%TF.GenerationSoftware,KiCad,Pcbnew,8.0.3*%
%TF.CreationDate,2025-07-14T16:29:20+02:00*%
%TF.ProjectId,ScxhrittmotorBoard,53637868-7269-4747-946d-6f746f72426f,rev?*%
%TF.SameCoordinates,Original*%
%TF.FileFunction,Copper,L1,Top*%
%TF.FilePolarity,Positive*%
%FSLAX46Y46*%
G04 Gerber Fmt 4.6, Leading zero omitted, Abs format (unit mm)*
G04 Created by KiCad (PCBNEW 8.0.3) date 2025-07-14 16:29:20*
%MOMM*%
%LPD*%
G01*
G04 APERTURE LIST*
G04 Aperture macros list*
%AMRoundRect*
0 Rectangle with rounded corners*
0 $1 Rounding radius*
0 $2 $3 $4 $5 $6 $7 $8 $9 X,Y pos of 4 corners*
0 Add a 4 corners polygon primitive as box body*
4,1,4,$2,$3,$4,$5,$6,$7,$8,$9,$2,$3,0*
0 Add four circle primitives for the rounded corners*
1,1,$1+$1,$2,$3*
1,1,$1+$1,$4,$5*
1,1,$1+$1,$6,$7*
1,1,$1+$1,$8,$9*
0 Add four rect primitives between the rounded corners*
20,1,$1+$1,$2,$3,$4,$5,0*
20,1,$1+$1,$4,$5,$6,$7,0*
20,1,$1+$1,$6,$7,$8,$9,0*
20,1,$1+$1,$8,$9,$2,$3,0*%
G04 Aperture macros list end*
%TA.AperFunction,SMDPad,CuDef*%
%ADD10R,1.500000X0.600000*%
%TD*%
%TA.AperFunction,SMDPad,CuDef*%
%ADD11RoundRect,0.225000X-0.225000X-0.250000X0.225000X-0.250000X0.225000X0.250000X-0.225000X0.250000X0*%
%TD*%
%TA.AperFunction,ComponentPad*%
%ADD12RoundRect,0.250000X0.625000X-0.350000X0.625000X0.350000X-0.625000X0.350000X-0.625000X-0.350000X0*%
%TD*%
%TA.AperFunction,ComponentPad*%
%ADD13O,1.750000X1.200000*%
%TD*%
%TA.AperFunction,SMDPad,CuDef*%
%ADD14RoundRect,0.225000X-0.250000X0.225000X-0.250000X-0.225000X0.250000X-0.225000X0.250000X0.225000X0*%
%TD*%
%TA.AperFunction,SMDPad,CuDef*%
%ADD15RoundRect,0.250000X0.550000X-1.500000X0.550000X1.500000X-0.550000X1.500000X-0.550000X-1.500000X0*%
%TD*%
%TA.AperFunction,ComponentPad*%
%ADD16R,1.700000X1.700000*%
%TD*%
%TA.AperFunction,ComponentPad*%
%ADD17O,1.700000X1.700000*%
%TD*%
%TA.AperFunction,ViaPad*%
%ADD18C,0.600000*%
%TD*%
%TA.AperFunction,ViaPad*%
%ADD19C,0.800000*%
%TD*%
%TA.AperFunction,Conductor*%
%ADD20C,0.250000*%
%TD*%
%TA.AperFunction,Conductor*%
%ADD21C,0.508000*%
%TD*%
G04 APERTURE END LIST*
D10*
%TO.P,U1,1,EN1\u002C2*%
%TO.N,Motor_EN*%
X121732200Y-92192000D03*
%TO.P,U1,2,1A*%
%TO.N,Motor_1A*%
X121732200Y-93462000D03*
%TO.P,U1,3,1Y*%
%TO.N,Net-(J1-Pin_2)*%
X121732200Y-94732000D03*
%TO.P,U1,4,GND*%
%TO.N,GND*%
X121732200Y-96002000D03*
%TO.P,U1,5,GND*%
X121732200Y-97272000D03*
%TO.P,U1,6,2Y*%
%TO.N,Net-(J1-Pin_1)*%
X121732200Y-98542000D03*
%TO.P,U1,7,2A*%
%TO.N,Motor_2A*%
X121732200Y-99812000D03*
%TO.P,U1,8,VCC2*%
%TO.N,+12V*%
X121732200Y-101082000D03*
%TO.P,U1,9,EN3\u002C4*%
%TO.N,Motor_EN*%
X128832200Y-101082000D03*
%TO.P,U1,10,3A*%
%TO.N,Motor_3A*%
X128832200Y-99812000D03*
%TO.P,U1,11,3Y*%
%TO.N,Net-(J1-Pin_3)*%
X128832200Y-98542000D03*
%TO.P,U1,12,GND*%
%TO.N,GND*%
X128832200Y-97272000D03*
%TO.P,U1,13,GND*%
X128832200Y-96002000D03*
%TO.P,U1,14,4Y*%
%TO.N,Net-(J1-Pin_4)*%
X128832200Y-94732000D03*
%TO.P,U1,15,4A*%
%TO.N,Motor_4A*%
X128832200Y-93462000D03*
%TO.P,U1,16,VCC1*%
%TO.N,+12V*%
X128832200Y-92192000D03*
%TD*%
D11*
%TO.P,C1,1*%
%TO.N,+12V*%
X128856600Y-90109200D03*
%TO.P,C1,2*%
%TO.N,GND*%
X130406600Y-90109200D03*
%TD*%
D12*
%TO.P,J1,1,Pin_1*%
%TO.N,Net-(J1-Pin_1)*%
X133907600Y-99713200D03*
D13*
%TO.P,J1,2,Pin_2*%
%TO.N,Net-(J1-Pin_2)*%
X133907600Y-97713200D03*
%TO.P,J1,3,Pin_3*%
%TO.N,Net-(J1-Pin_3)*%
X133907600Y-95713200D03*
%TO.P,J1,4,Pin_4*%
%TO.N,Net-(J1-Pin_4)*%
X133907600Y-93713200D03*
%TD*%
D14*
%TO.P,C2,1*%
%TO.N,+12V*%
X119862600Y-101104400D03*
%TO.P,C2,2*%
%TO.N,GND*%
X119862600Y-102654400D03*
%TD*%
D15*
%TO.P,C3,1*%
%TO.N,+12V*%
X128812800Y-86737000D03*
%TO.P,C3,2*%
%TO.N,GND*%
X128812800Y-81137000D03*
%TD*%
D16*
%TO.P,J3,1,Pin_1*%
%TO.N,+12V*%
X190075546Y-89335546D03*
D17*
%TO.P,J3,2,Pin_2*%
%TO.N,unconnected-(J3-Pin_2-Pad2)*%
X187535546Y-89335546D03*
%TO.P,J3,3,Pin_3*%
%TO.N,unconnected-(J3-Pin_3-Pad3)*%
X190075546Y-91875546D03*
%TO.P,J3,4,Pin_4*%
%TO.N,unconnected-(J3-Pin_4-Pad4)*%
X187535546Y-91875546D03*
%TO.P,J3,5,Pin_5*%
%TO.N,unconnected-(J3-Pin_5-Pad5)*%
X190075546Y-94415546D03*
%TO.P,J3,6,Pin_6*%
%TO.N,unconnected-(J3-Pin_6-Pad6)*%
X187535546Y-94415546D03*
%TO.P,J3,7,Pin_7*%
%TO.N,GND*%
X190075546Y-96955546D03*
%TO.P,J3,8,Pin_8*%
X187535546Y-96955546D03*
%TO.P,J3,9,Pin_9*%
%TO.N,unconnected-(J3-Pin_9-Pad9)*%
X190075546Y-99495546D03*
%TO.P,J3,10,Pin_10*%
%TO.N,unconnected-(J3-Pin_10-Pad10)*%
X187535546Y-99495546D03*
%TO.P,J3,11,Pin_11*%
%TO.N,GND*%
X190075546Y-102035546D03*
%TO.P,J3,12,Pin_12*%
X187535546Y-102035546D03*
%TO.P,J3,13,Pin_13*%
%TO.N,unconnected-(J3-Pin_13-Pad13)*%
X190075546Y-104575546D03*
%TO.P,J3,14,Pin_14*%
%TO.N,unconnected-(J3-Pin_14-Pad14)*%
X187535546Y-104575546D03*
%TO.P,J3,15,Pin_15*%
%TO.N,GND*%
X190075546Y-107115546D03*
%TO.P,J3,16,Pin_16*%
X187535546Y-107115546D03*
%TD*%
D16*
%TO.P,J2,1,Pin_1*%
%TO.N,unconnected-(J2-Pin_1-Pad1)*%
X103535546Y-86795546D03*
D17*
%TO.P,J2,2,Pin_2*%
%TO.N,unconnected-(J2-Pin_2-Pad2)*%
X100995546Y-86795546D03*
%TO.P,J2,3,Pin_3*%
%TO.N,unconnected-(J2-Pin_3-Pad3)*%
X103535546Y-89335546D03*
%TO.P,J2,4,Pin_4*%
%TO.N,DIO0*%
X100995546Y-89335546D03*
%TO.P,J2,5,Pin_5*%
%TO.N,unconnected-(J2-Pin_5-Pad5)*%
X103535546Y-91875546D03*
%TO.P,J2,6,Pin_6*%
%TO.N,DIO1*%
X100995546Y-91875546D03*
%TO.P,J2,7,Pin_7*%
%TO.N,unconnected-(J2-Pin_7-Pad7)*%
X103535546Y-94415546D03*
%TO.P,J2,8,Pin_8*%
%TO.N,DIO2*%
X100995546Y-94415546D03*
%TO.P,J2,9,Pin_9*%
%TO.N,unconnected-(J2-Pin_9-Pad9)*%
X103535546Y-96955546D03*
%TO.P,J2,10,Pin_10*%
%TO.N,DIO3*%
X100995546Y-96955546D03*
%TO.P,J2,11,Pin_11*%
%TO.N,unconnected-(J2-Pin_11-Pad11)*%
X103535546Y-99495546D03*
%TO.P,J2,12,Pin_12*%
%TO.N,DIO4*%
X100995546Y-99495546D03*
%TO.P,J2,13,Pin_13*%
%TO.N,unconnected-(J2-Pin_13-Pad13)*%
X103535546Y-102035546D03*
%TO.P,J2,14,Pin_14*%
%TO.N,DIO5*%
X100995546Y-102035546D03*
%TO.P,J2,15,Pin_15*%
%TO.N,unconnected-(J2-Pin_15-Pad15)*%
X103535546Y-104575546D03*
%TO.P,J2,16,Pin_16*%
%TO.N,DIO6*%
X100995546Y-104575546D03*
%TO.P,J2,17,Pin_17*%
%TO.N,unconnected-(J2-Pin_17-Pad17)*%
X103535546Y-107115546D03*
%TO.P,J2,18,Pin_18*%
%TO.N,DIO7*%
X100995546Y-107115546D03*
%TO.P,J2,19,Pin_19*%
%TO.N,GND*%
X103535546Y-109655546D03*
%TO.P,J2,20,Pin_20*%
X100995546Y-109655546D03*
%TD*%
D18*
%TO.N,GND*%
X119862600Y-103454200D03*
X130048000Y-96012000D03*
X131241800Y-90093800D03*
X120548400Y-96012000D03*
X120548400Y-97256600D03*
X130022600Y-97256600D03*
%TO.N,Motor_EN*%
X115417727Y-90836146D03*
X115417727Y-100996146D03*
X115417727Y-95916146D03*
D19*
X128828800Y-101955600D03*
D18*
X115417727Y-98456146D03*
X115417727Y-106021346D03*
X115417727Y-103536146D03*
X115417727Y-88296146D03*
X115417727Y-93376146D03*
%TO.N,Motor_1A*%
X117092127Y-93374146D03*
X117092127Y-90834146D03*
X117092127Y-98454146D03*
X117092127Y-106019346D03*
X117092127Y-95914146D03*
X117092127Y-88294146D03*
X117092127Y-103534146D03*
X117092127Y-100994146D03*
%TO.N,Motor_4A*%
X113510727Y-101019546D03*
X113510727Y-93399546D03*
X113510727Y-103559546D03*
X113510727Y-106044746D03*
X113510727Y-95939546D03*
X113510727Y-90859546D03*
X113510727Y-98479546D03*
X113510727Y-88319546D03*
%TO.N,Motor_3A*%
X111758127Y-88319546D03*
X111758127Y-90859546D03*
X111758127Y-103559546D03*
X111758127Y-98479546D03*
X111758127Y-93399546D03*
X129961800Y-99812000D03*
X111758127Y-101019546D03*
X111758127Y-106044746D03*
X111758127Y-95939546D03*
%TO.N,Motor_2A*%
X109980127Y-106044746D03*
X109980127Y-95939546D03*
X109980127Y-103559546D03*
X109980127Y-88319546D03*
X109980127Y-93399546D03*
X109980127Y-101019546D03*
X109980127Y-90859546D03*
X109980127Y-98479546D03*
%TO.N,+12V*%
X118973600Y-101092000D03*
X128016000Y-90093800D03*
%TD*%
D20*
%TO.N,GND*%
X119862600Y-103454200D02*
X119862600Y-102654400D01*
D21*
X128842200Y-96012000D02*
X128832200Y-96002000D01*
D20*
X130422000Y-90093800D02*
X130406600Y-90109200D01*
D21*
X128847600Y-97256600D02*
X128832200Y-97272000D01*
X121722200Y-96012000D02*
X121732200Y-96002000D01*
X130022600Y-97256600D02*
X128847600Y-97256600D01*
X120548400Y-97256600D02*
X121716800Y-97256600D01*
D20*
X131241800Y-90093800D02*
X130422000Y-90093800D01*
D21*
X130048000Y-96012000D02*
X128842200Y-96012000D01*
X121716800Y-97256600D02*
X121732200Y-97272000D01*
X120548400Y-96012000D02*
X121722200Y-96012000D01*
D20*
%TO.N,Net-(J1-Pin_1)*%
X124780200Y-98542000D02*
X126695200Y-100457000D01*
X132867400Y-100457000D02*
X133611200Y-99713200D01*
X126695200Y-100457000D02*
X132867400Y-100457000D01*
X133611200Y-99713200D02*
X133907600Y-99713200D01*
X121732200Y-98542000D02*
X124780200Y-98542000D01*
%TO.N,Net-(J1-Pin_2)*%
X133579200Y-97713200D02*
X133907600Y-97713200D01*
X123053000Y-94732000D02*
X127488000Y-99167000D01*
X127488000Y-99167000D02*
X132125400Y-99167000D01*
X121732200Y-94732000D02*
X123053000Y-94732000D01*
X132125400Y-99167000D02*
X133579200Y-97713200D01*
%TO.N,Net-(J1-Pin_3)*%
X131078800Y-98542000D02*
X133907600Y-95713200D01*
X128832200Y-98542000D02*
X131078800Y-98542000D01*
%TO.N,Net-(J1-Pin_4)*%
X128832200Y-94732000D02*
X132888800Y-94732000D01*
X132888800Y-94732000D02*
X133907600Y-93713200D01*
%TO.N,Motor_EN*%
X121732200Y-89626600D02*
X121732200Y-92192000D01*
X128828800Y-101085400D02*
X128832200Y-101082000D01*
X128828800Y-101955600D02*
X128828800Y-101085400D01*
X116038854Y-87669146D02*
X119774746Y-87669146D01*
X115417727Y-105945146D02*
X115341527Y-106021346D01*
X115417727Y-88296146D02*
X115417727Y-105945146D01*
X115417727Y-88296146D02*
X115417727Y-88290273D01*
X119774746Y-87669146D02*
X121732200Y-89626600D01*
X115417727Y-88290273D02*
X116038854Y-87669146D01*
%TO.N,Motor_1A*%
X117092127Y-105943146D02*
X117015927Y-106019346D01*
X117095873Y-93370400D02*
X117092127Y-93374146D01*
X117092127Y-88294146D02*
X117092127Y-105943146D01*
X121640600Y-93370400D02*
X117095873Y-93370400D01*
X121732200Y-93462000D02*
X121640600Y-93370400D01*
%TO.N,Motor_4A*%
X113510727Y-88319546D02*
X113510727Y-88317673D01*
X114609254Y-87219146D02*
X119961142Y-87219146D01*
X126203996Y-93462000D02*
X128832200Y-93462000D01*
X113510727Y-88317673D02*
X114609254Y-87219146D01*
X119961142Y-87219146D02*
X126203996Y-93462000D01*
X113510727Y-105968546D02*
X113434527Y-106044746D01*
X113510727Y-88319546D02*
X113510727Y-105968546D01*
%TO.N,Motor_3A*%
X111758127Y-88319546D02*
X111758127Y-105968546D01*
X129961800Y-99812000D02*
X128832200Y-99812000D01*
X128832200Y-99812000D02*
X128437800Y-99812000D01*
X111759746Y-106044746D02*
X111758127Y-106044746D01*
X111758127Y-105968546D02*
X111681927Y-106044746D01*
%TO.N,Motor_2A*%
X118033800Y-106935396D02*
X118033800Y-100609400D01*
X118831200Y-99812000D02*
X121732200Y-99812000D01*
X117458196Y-107511000D02*
X118033800Y-106935396D01*
X109980127Y-88319546D02*
X109980127Y-105968546D01*
X109980127Y-105968546D02*
X109903927Y-106044746D01*
X111446381Y-107511000D02*
X117458196Y-107511000D01*
X118033800Y-100609400D02*
X118831200Y-99812000D01*
X109980127Y-106044746D02*
X111446381Y-107511000D01*
%TO.N,+12V*%
X121732200Y-101082000D02*
X118983600Y-101082000D01*
D21*
X128812800Y-86737000D02*
X128812800Y-90065400D01*
X190075546Y-89335546D02*
X187633400Y-86893400D01*
D20*
X128031400Y-90109200D02*
X128016000Y-90093800D01*
X118983600Y-101082000D02*
X118973600Y-101092000D01*
X128856600Y-90109200D02*
X128031400Y-90109200D01*
D21*
X187633400Y-86893400D02*
X128969200Y-86893400D01*
X128812800Y-90065400D02*
X128856600Y-90109200D01*
D20*
X128856600Y-92167600D02*
X128832200Y-92192000D01*
X128856600Y-90109200D02*
X128856600Y-92167600D01*
D21*
X128969200Y-86893400D02*
X128812800Y-86737000D01*
D20*
X121744600Y-101094400D02*
X121732200Y-101082000D01*
%TD*%
%TA.AperFunction,Conductor*%
%TO.N,GND*%
G36*
X103069621Y-109462553D02*
G01*
X103035546Y-109589720D01*
X103035546Y-109721372D01*
X103069621Y-109848539D01*
X103102534Y-109905546D01*
X101428558Y-109905546D01*
X101461471Y-109848539D01*
X101495546Y-109721372D01*
X101495546Y-109589720D01*
X101461471Y-109462553D01*
X101428558Y-109405546D01*
X103102534Y-109405546D01*
X103069621Y-109462553D01*
G37*
%TD.AperFunction*%
%TA.AperFunction,Conductor*%
G36*
X189609621Y-106922553D02*
G01*
X189575546Y-107049720D01*
X189575546Y-107181372D01*
X189609621Y-107308539D01*
X189642534Y-107365546D01*
X187968558Y-107365546D01*
X188001471Y-107308539D01*
X188035546Y-107181372D01*
X188035546Y-107049720D01*
X188001471Y-106922553D01*
X187968558Y-106865546D01*
X189642534Y-106865546D01*
X189609621Y-106922553D01*
G37*
%TD.AperFunction*%
%TA.AperFunction,Conductor*%
G36*
X189609621Y-101842553D02*
G01*
X189575546Y-101969720D01*
X189575546Y-102101372D01*
X189609621Y-102228539D01*
X189642534Y-102285546D01*
X187968558Y-102285546D01*
X188001471Y-102228539D01*
X188035546Y-102101372D01*
X188035546Y-101969720D01*
X188001471Y-101842553D01*
X187968558Y-101785546D01*
X189642534Y-101785546D01*
X189609621Y-101842553D01*
G37*
%TD.AperFunction*%
%TA.AperFunction,Conductor*%
G36*
X120502776Y-94015585D02*
G01*
X120548531Y-94068389D01*
X120558475Y-94137547D01*
X120540577Y-94180752D01*
X120542654Y-94181886D01*
X120538402Y-94189671D01*
X120514099Y-94254833D01*
X120488109Y-94324517D01*
X120481700Y-94384127D01*
X120481700Y-94384134D01*
X120481700Y-94384135D01*
X120481700Y-95079870D01*
X120481701Y-95079876D01*
X120488108Y-95139483D01*
X120538402Y-95274328D01*
X120538404Y-95274332D01*
X120552457Y-95293103D01*
X120576876Y-95358567D01*
X120562026Y-95426840D01*
X120552460Y-95441726D01*
X120538846Y-95459911D01*
X120538845Y-95459913D01*
X120488603Y-95594620D01*
X120488601Y-95594627D01*
X120482200Y-95654155D01*
X120482200Y-95752000D01*
X122982200Y-95752000D01*
X122997624Y-95736576D01*
X123058947Y-95703091D01*
X123128639Y-95708075D01*
X123172986Y-95736576D01*
X125233832Y-97797422D01*
X125267317Y-97858745D01*
X125262333Y-97928437D01*
X125220461Y-97984370D01*
X125154997Y-98008787D01*
X125086724Y-97993935D01*
X125077258Y-97988204D01*
X125076485Y-97987687D01*
X125033266Y-97969786D01*
X124990046Y-97951884D01*
X124990044Y-97951882D01*
X124962655Y-97940538D01*
X124962653Y-97940537D01*
X124962652Y-97940537D01*
X124902229Y-97928518D01*
X124901822Y-97928437D01*
X124841810Y-97916500D01*
X124841807Y-97916500D01*
X124841806Y-97916500D01*
X123065949Y-97916500D01*
X122998910Y-97896815D01*
X122953155Y-97844011D01*
X122943211Y-97774853D01*
X122949767Y-97749166D01*
X122975797Y-97679376D01*
X122975798Y-97679372D01*
X122982199Y-97619844D01*
X122982200Y-97619827D01*
X122982200Y-97522000D01*
X120482200Y-97522000D01*
X120482200Y-97619844D01*
X120488601Y-97679372D01*
X120488603Y-97679379D01*
X120538845Y-97814086D01*
X120538848Y-97814092D01*
X120552459Y-97832274D01*
X120576875Y-97897739D01*
X120562022Y-97966012D01*
X120552460Y-97980892D01*
X120538403Y-97999670D01*
X120538402Y-97999671D01*
X120489784Y-98130026D01*
X120488109Y-98134517D01*
X120481700Y-98194127D01*
X120481700Y-98194134D01*
X120481700Y-98194135D01*
X120481700Y-98889870D01*
X120481701Y-98889876D01*
X120488108Y-98949483D01*
X120514099Y-99019167D01*
X120519083Y-99088859D01*
X120485598Y-99150182D01*
X120424274Y-99183666D01*
X120397917Y-99186500D01*
X118769589Y-99186500D01*
X118709171Y-99198518D01*
X118665943Y-99207116D01*
X118648746Y-99210537D01*
X118608175Y-99227343D01*
X118608174Y-99227343D01*
X118534919Y-99257685D01*
X118534910Y-99257690D01*
X118524100Y-99264914D01*
X118524099Y-99264915D01*
X118432468Y-99326140D01*
X118388905Y-99369703D01*
X118345342Y-99413267D01*
X117929308Y-99829301D01*
X117867985Y-99862786D01*
X117798293Y-99857802D01*
X117742360Y-99815930D01*
X117717943Y-99750466D01*
X117717627Y-99741620D01*
X117717627Y-98999000D01*
X117736634Y-98933027D01*
X117817915Y-98803670D01*
X117817916Y-98803668D01*
X117877495Y-98633401D01*
X117878538Y-98624143D01*
X117897692Y-98454149D01*
X117897692Y-98454142D01*
X117877496Y-98274896D01*
X117877495Y-98274891D01*
X117872973Y-98261967D01*
X117817916Y-98104624D01*
X117736632Y-97975262D01*
X117717627Y-97909291D01*
X117717627Y-96459000D01*
X117736634Y-96393027D01*
X117763768Y-96349844D01*
X120482200Y-96349844D01*
X120488601Y-96409372D01*
X120488603Y-96409379D01*
X120538845Y-96544086D01*
X120538846Y-96544087D01*
X120552772Y-96562691D01*
X120577187Y-96628156D01*
X120562334Y-96696429D01*
X120552772Y-96711309D01*
X120538846Y-96729912D01*
X120538845Y-96729913D01*
X120488603Y-96864620D01*
X120488601Y-96864627D01*
X120482200Y-96924155D01*
X120482200Y-97022000D01*
X121482200Y-97022000D01*
X121982200Y-97022000D01*
X122982200Y-97022000D01*
X122982200Y-96924172D01*
X122982199Y-96924155D01*
X122975798Y-96864627D01*
X122975797Y-96864623D01*
X122925551Y-96729908D01*
X122911630Y-96711313D01*
X122887211Y-96645849D01*
X122902061Y-96577576D01*
X122911630Y-96562687D01*
X122925551Y-96544091D01*
X122975797Y-96409376D01*
X122975798Y-96409372D01*
X122982199Y-96349844D01*
X122982200Y-96349827D01*
X122982200Y-96252000D01*
X121982200Y-96252000D01*
X121982200Y-97022000D01*
X121482200Y-97022000D01*
X121482200Y-96252000D01*
X120482200Y-96252000D01*
X120482200Y-96349844D01*
X117763768Y-96349844D01*
X117817915Y-96263670D01*
X117817916Y-96263668D01*
X117877495Y-96093401D01*
X117878501Y-96084472D01*
X117897692Y-95914149D01*
X117897692Y-95914142D01*
X117877496Y-95734896D01*
X117877495Y-95734891D01*
X117868112Y-95708075D01*
X117817916Y-95564624D01*
X117736632Y-95435262D01*
X117717627Y-95369291D01*
X117717627Y-94119900D01*
X117737312Y-94052861D01*
X117790116Y-94007106D01*
X117841627Y-93995900D01*
X120435737Y-93995900D01*
X120502776Y-94015585D01*
G37*
%TD.AperFunction*%
%TA.AperFunction,Conductor*%
G36*
X122562903Y-90705943D02*
G01*
X122569381Y-90711975D01*
X125715012Y-93857606D01*
X125715041Y-93857637D01*
X125805260Y-93947856D01*
X125805263Y-93947858D01*
X125863605Y-93986840D01*
X125863606Y-93986842D01*
X125877163Y-93995900D01*
X125907711Y-94016312D01*
X125974392Y-94043931D01*
X125974394Y-94043933D01*
X126021539Y-94063461D01*
X126021544Y-94063463D01*
X126021548Y-94063463D01*
X126021549Y-94063464D01*
X126076765Y-94074447D01*
X126076781Y-94074450D01*
X126076801Y-94074454D01*
X126142387Y-94087499D01*
X126142388Y-94087500D01*
X126142389Y-94087500D01*
X126142390Y-94087500D01*
X127497917Y-94087500D01*
X127564956Y-94107185D01*
X127610711Y-94159989D01*
X127620655Y-94229147D01*
X127614099Y-94254833D01*
X127588109Y-94324517D01*
X127581700Y-94384127D01*
X127581700Y-94384134D01*
X127581700Y-94384135D01*
X127581700Y-95079870D01*
X127581701Y-95079876D01*
X127588108Y-95139483D01*
X127638402Y-95274328D01*
X127638404Y-95274332D01*
X127652457Y-95293103D01*
X127676876Y-95358567D01*
X127662026Y-95426840D01*
X127652460Y-95441726D01*
X127638846Y-95459911D01*
X127638845Y-95459913D01*
X127588603Y-95594620D01*
X127588601Y-95594627D01*
X127582200Y-95654155D01*
X127582200Y-95752000D01*
X130082200Y-95752000D01*
X130082200Y-95654172D01*
X130082199Y-95654155D01*
X130075798Y-95594627D01*
X130075797Y-95594623D01*
X130049767Y-95524834D01*
X130044783Y-95455143D01*
X130078267Y-95393819D01*
X130139590Y-95360334D01*
X130165949Y-95357500D01*
X132429534Y-95357500D01*
X132496573Y-95377185D01*
X132542328Y-95429989D01*
X132552272Y-95499147D01*
X132552007Y-95500897D01*
X132532100Y-95626588D01*
X132532100Y-95799810D01*
X132559198Y-95970902D01*
X132559198Y-95970905D01*
X132586262Y-96054197D01*
X132588257Y-96124038D01*
X132556012Y-96180196D01*
X130856029Y-97880181D01*
X130794706Y-97913666D01*
X130768348Y-97916500D01*
X130165949Y-97916500D01*
X130098910Y-97896815D01*
X130053155Y-97844011D01*
X130043211Y-97774853D01*
X130049767Y-97749166D01*
X130075797Y-97679376D01*
X130075798Y-97679372D01*
X130082199Y-97619844D01*
X130082200Y-97619827D01*
X130082200Y-97522000D01*
X127582200Y-97522000D01*
X127582200Y-97619844D01*
X127588601Y-97679372D01*
X127588603Y-97679379D01*
X127638845Y-97814086D01*
X127638848Y-97814092D01*
X127652459Y-97832274D01*
X127676875Y-97897739D01*
X127662022Y-97966012D01*
X127652460Y-97980892D01*
X127638403Y-97999670D01*
X127638402Y-97999671D01*
X127588165Y-98134364D01*
X127546293Y-98190298D01*
X127480829Y-98214715D01*
X127412556Y-98199863D01*
X127384302Y-98178712D01*
X125555434Y-96349844D01*
X127582200Y-96349844D01*
X127588601Y-96409372D01*
X127588603Y-96409379D01*
X127638845Y-96544086D01*
X127638846Y-96544087D01*
X127652772Y-96562691D01*
X127677187Y-96628156D01*
X127662334Y-96696429D01*
X127652772Y-96711309D01*
X127638846Y-96729912D01*
X127638845Y-96729913D01*
X127588603Y-96864620D01*
X127588601Y-96864627D01*
X127582200Y-96924155D01*
X127582200Y-97022000D01*
X128582200Y-97022000D01*
X129082200Y-97022000D01*
X130082200Y-97022000D01*
X130082200Y-96924172D01*
X130082199Y-96924155D01*
X130075798Y-96864627D01*
X130075797Y-96864623D01*
X130025551Y-96729908D01*
X130011630Y-96711313D01*
X129987211Y-96645849D01*
X130002061Y-96577576D01*
X130011630Y-96562687D01*
X130025551Y-96544091D01*
X130075797Y-96409376D01*
X130075798Y-96409372D01*
X130082199Y-96349844D01*
X130082200Y-96349827D01*
X130082200Y-96252000D01*
X129082200Y-96252000D01*
X129082200Y-97022000D01*
X128582200Y-97022000D01*
X128582200Y-96252000D01*
X127582200Y-96252000D01*
X127582200Y-96349844D01*
X125555434Y-96349844D01*
X123543198Y-94337608D01*
X123543178Y-94337586D01*
X123451733Y-94246141D01*
X123390326Y-94205111D01*
X123355569Y-94181886D01*
X123349285Y-94177687D01*
X123306556Y-94159989D01*
X123268792Y-94144347D01*
X123235453Y-94130537D01*
X123225427Y-94128543D01*
X123175029Y-94118518D01*
X123114610Y-94106500D01*
X123114607Y-94106500D01*
X123114606Y-94106500D01*
X123066483Y-94106500D01*
X122999444Y-94086815D01*
X122953689Y-94034011D01*
X122943745Y-93964853D01*
X122950301Y-93939167D01*
X122962625Y-93906124D01*
X122976291Y-93869483D01*
X122982700Y-93809873D01*
X122982699Y-93114128D01*
X122976291Y-93054517D01*
X122974616Y-93050026D01*
X122925997Y-92919670D01*
X122925996Y-92919669D01*
X122921781Y-92914039D01*
X122912253Y-92901311D01*
X122887835Y-92835850D01*
X122902685Y-92767576D01*
X122912250Y-92752691D01*
X122925996Y-92734331D01*
X122976291Y-92599483D01*
X122982700Y-92539873D01*
X122982699Y-91844128D01*
X122976291Y-91784517D01*
X122925996Y-91649669D01*
X122925995Y-91649668D01*
X122925993Y-91649664D01*
X122839747Y-91534455D01*
X122839744Y-91534452D01*
X122724535Y-91448206D01*
X122724528Y-91448202D01*
X122589682Y-91397908D01*
X122589683Y-91397908D01*
X122530083Y-91391501D01*
X122530081Y-91391500D01*
X122530073Y-91391500D01*
X122530065Y-91391500D01*
X122481700Y-91391500D01*
X122414661Y-91371815D01*
X122368906Y-91319011D01*
X122357700Y-91267500D01*
X122357700Y-90799656D01*
X122377385Y-90732617D01*
X122430189Y-90686862D01*
X122499347Y-90676918D01*
X122562903Y-90705943D01*
G37*
%TD.AperFunction*%
%TA.AperFunction,Conductor*%
G36*
X189609621Y-96762553D02*
G01*
X189575546Y-96889720D01*
X189575546Y-97021372D01*
X189609621Y-97148539D01*
X189642534Y-97205546D01*
X187968558Y-97205546D01*
X188001471Y-97148539D01*
X188035546Y-97021372D01*
X188035546Y-96889720D01*
X188001471Y-96762553D01*
X187968558Y-96705546D01*
X189642534Y-96705546D01*
X189609621Y-96762553D01*
G37*
%TD.AperFunction*%
%TA.AperFunction,Conductor*%
G36*
X187536106Y-68225551D02*
G01*
X187817310Y-68228061D01*
X187825025Y-68228371D01*
X188386574Y-68268537D01*
X188395332Y-68269478D01*
X188952042Y-68349525D01*
X188960742Y-68351095D01*
X189510306Y-68470648D01*
X189518841Y-68472826D01*
X190058490Y-68631285D01*
X190066867Y-68634073D01*
X190593832Y-68830624D01*
X190601994Y-68834006D01*
X191113570Y-69067638D01*
X191121476Y-69071595D01*
X191615068Y-69341121D01*
X191615096Y-69341136D01*
X191622708Y-69345653D01*
X192095817Y-69649706D01*
X192103088Y-69654754D01*
X192553313Y-69991792D01*
X192560205Y-69997346D01*
X192985235Y-70365640D01*
X192991714Y-70371672D01*
X193389397Y-70769360D01*
X193395415Y-70775824D01*
X193763695Y-71200847D01*
X193763710Y-71200864D01*
X193769263Y-71207756D01*
X194106290Y-71657975D01*
X194111339Y-71665246D01*
X194415382Y-72138353D01*
X194415396Y-72138374D01*
X194419913Y-72145987D01*
X194689439Y-72639594D01*
X194693401Y-72647509D01*
X194927030Y-73159093D01*
X194930417Y-73167271D01*
X195126952Y-73694211D01*
X195129747Y-73702610D01*
X195288187Y-74242222D01*
X195290376Y-74250798D01*
X195409920Y-74800343D01*
X195411492Y-74809055D01*
X195491527Y-75365735D01*
X195492473Y-75374536D01*
X195532631Y-75936066D01*
X195532942Y-75943765D01*
X195535541Y-76225004D01*
X195535546Y-76226150D01*
X195535546Y-120225039D01*
X195535541Y-120226120D01*
X195533090Y-120507287D01*
X195532779Y-120515052D01*
X195492619Y-121076565D01*
X195491673Y-121085366D01*
X195411633Y-121642056D01*
X195410061Y-121650767D01*
X195290515Y-122200314D01*
X195288326Y-122208891D01*
X195129878Y-122748516D01*
X195127083Y-122756914D01*
X194930539Y-123283870D01*
X194927151Y-123292048D01*
X194693525Y-123803618D01*
X194689563Y-123811534D01*
X194420023Y-124305158D01*
X194415507Y-124312770D01*
X194111447Y-124785897D01*
X194106405Y-124793158D01*
X193769369Y-125243385D01*
X193763815Y-125250278D01*
X193395507Y-125675328D01*
X193389475Y-125681806D01*
X192991806Y-126079475D01*
X192985328Y-126085507D01*
X192560278Y-126453815D01*
X192553385Y-126459369D01*
X192103158Y-126796405D01*
X192095897Y-126801447D01*
X191769385Y-127011283D01*
X191622770Y-127105507D01*
X191615158Y-127110023D01*
X191121534Y-127379563D01*
X191113618Y-127383525D01*
X190602048Y-127617151D01*
X190593870Y-127620539D01*
X190066914Y-127817083D01*
X190058516Y-127819878D01*
X189518891Y-127978326D01*
X189510314Y-127980515D01*
X188960767Y-128100061D01*
X188952056Y-128101633D01*
X188395366Y-128181673D01*
X188386565Y-128182619D01*
X187825052Y-128222779D01*
X187817287Y-128223090D01*
X187539358Y-128225512D01*
X187536118Y-128225541D01*
X187535040Y-128225546D01*
X103536093Y-128225546D01*
X103534986Y-128225541D01*
X103253790Y-128223031D01*
X103246051Y-128222720D01*
X102684533Y-128182560D01*
X102675732Y-128181614D01*
X102119046Y-128101574D01*
X102110335Y-128100002D01*
X101560793Y-127980456D01*
X101552216Y-127978267D01*
X101012600Y-127819821D01*
X101004201Y-127817026D01*
X100477241Y-127620480D01*
X100469064Y-127617092D01*
X99957503Y-127383470D01*
X99949587Y-127379508D01*
X99455967Y-127109970D01*
X99448355Y-127105453D01*
X98975249Y-126801406D01*
X98967978Y-126796358D01*
X98517742Y-126459316D01*
X98510849Y-126453762D01*
X98085808Y-126085461D01*
X98079330Y-126079429D01*
X97681664Y-125681763D01*
X97675632Y-125675285D01*
X97307327Y-125250238D01*
X97301773Y-125243345D01*
X96964741Y-124793122D01*
X96959712Y-124785880D01*
X96655631Y-124312721D01*
X96651125Y-124305125D01*
X96596844Y-124205717D01*
X96381579Y-123811489D01*
X96377634Y-123803606D01*
X96143998Y-123292014D01*
X96140622Y-123283864D01*
X95944067Y-122756883D01*
X95941275Y-122748491D01*
X95861501Y-122476806D01*
X95782829Y-122208874D01*
X95780641Y-122200298D01*
X95679749Y-121736501D01*
X95661094Y-121650746D01*
X95659524Y-121642045D01*
X95656577Y-121621545D01*
X95579481Y-121085338D01*
X95578539Y-121076565D01*
X95538377Y-120515029D01*
X95538067Y-120507302D01*
X95535551Y-120226103D01*
X95535548Y-120225544D01*
X101283028Y-120225544D01*
X101283028Y-120225546D01*
X101303125Y-120525773D01*
X101303127Y-120525783D01*
X101363062Y-120820653D01*
X101461766Y-121104906D01*
X101461768Y-121104909D01*
X101597472Y-121373461D01*
X101597475Y-121373466D01*
X101597476Y-121373467D01*
X101767771Y-121621544D01*
X101969613Y-121844709D01*
X102199398Y-122038981D01*
X102453027Y-122200891D01*
X102453028Y-122200891D01*
X102453029Y-122200892D01*
X102474944Y-122211061D01*
X102725974Y-122327552D01*
X103013367Y-122416702D01*
X103310079Y-122466751D01*
X103610814Y-122476806D01*
X103910206Y-122446687D01*
X104202912Y-122376932D01*
X104483709Y-122268785D01*
X104747586Y-122124176D01*
X104989834Y-121945686D01*
X105206131Y-121736501D01*
X105392615Y-121500352D01*
X105545961Y-121241454D01*
X105663430Y-120964428D01*
X105742927Y-120674216D01*
X105783034Y-120375998D01*
X105785546Y-120225546D01*
X105785546Y-120225544D01*
X185283028Y-120225544D01*
X185283028Y-120225546D01*
X185303125Y-120525773D01*
X185303127Y-120525783D01*
X185363062Y-120820653D01*
X185461766Y-121104906D01*
X185461768Y-121104909D01*
X185597472Y-121373461D01*
X185597475Y-121373466D01*
X185597476Y-121373467D01*
X185767771Y-121621544D01*
X185969613Y-121844709D01*
X186199398Y-122038981D01*
X186453027Y-122200891D01*
X186453028Y-122200891D01*
X186453029Y-122200892D01*
X186474944Y-122211061D01*
X186725974Y-122327552D01*
X187013367Y-122416702D01*
X187310079Y-122466751D01*
X187610814Y-122476806D01*
X187910206Y-122446687D01*
X188202912Y-122376932D01*
X188483709Y-122268785D01*
X188747586Y-122124176D01*
X188989834Y-121945686D01*
X189206131Y-121736501D01*
X189392615Y-121500352D01*
X189545961Y-121241454D01*
X189663430Y-120964428D01*
X189742927Y-120674216D01*
X189783034Y-120375998D01*
X189785546Y-120225546D01*
X189783034Y-120075094D01*
X189742927Y-119776876D01*
X189663430Y-119486664D01*
X189545961Y-119209638D01*
X189467772Y-119077630D01*
X189392615Y-118950739D01*
X189206130Y-118714590D01*
X188989841Y-118505413D01*
X188989834Y-118505406D01*
X188747586Y-118326916D01*
X188483717Y-118182311D01*
X188483712Y-118182308D01*
X188483709Y-118182307D01*
X188483705Y-118182305D01*
X188483702Y-118182304D01*
X188202916Y-118074161D01*
X188202912Y-118074160D01*
X187910206Y-118004405D01*
X187910203Y-118004404D01*
X187610818Y-117974286D01*
X187610814Y-117974286D01*
X187310079Y-117984341D01*
X187013366Y-118034390D01*
X186885160Y-118074160D01*
X186725974Y-118123540D01*
X186725967Y-118123543D01*
X186725965Y-118123544D01*
X186453029Y-118250199D01*
X186453027Y-118250201D01*
X186199401Y-118412108D01*
X185969614Y-118606381D01*
X185767773Y-118829545D01*
X185767772Y-118829546D01*
X185597472Y-119077630D01*
X185461768Y-119346182D01*
X185461766Y-119346185D01*
X185363062Y-119630438D01*
X185303127Y-119925308D01*
X185303125Y-119925318D01*
X185283028Y-120225544D01*
X105785546Y-120225544D01*
X105783034Y-120075094D01*
X105742927Y-119776876D01*
X105663430Y-119486664D01*
X105545961Y-119209638D01*
X105467772Y-119077630D01*
X105392615Y-118950739D01*
X105206130Y-118714590D01*
X104989841Y-118505413D01*
X104989834Y-118505406D01*
X104747586Y-118326916D01*
X104483717Y-118182311D01*
X104483712Y-118182308D01*
X104483709Y-118182307D01*
X104483705Y-118182305D01*
X104483702Y-118182304D01*
X104202916Y-118074161D01*
X104202912Y-118074160D01*
X103910206Y-118004405D01*
X103910203Y-118004404D01*
X103610818Y-117974286D01*
X103610814Y-117974286D01*
X103310079Y-117984341D01*
X103013366Y-118034390D01*
X102885160Y-118074160D01*
X102725974Y-118123540D01*
X102725967Y-118123543D01*
X102725965Y-118123544D01*
X102453029Y-118250199D01*
X102453027Y-118250201D01*
X102199401Y-118412108D01*
X101969614Y-118606381D01*
X101767773Y-118829545D01*
X101767772Y-118829546D01*
X101597472Y-119077630D01*
X101461768Y-119346182D01*
X101461766Y-119346185D01*
X101363062Y-119630438D01*
X101303127Y-119925308D01*
X101303125Y-119925318D01*
X101283028Y-120225544D01*
X95535548Y-120225544D01*
X95535546Y-120224994D01*
X95535546Y-86795545D01*
X99639887Y-86795545D01*
X99639887Y-86795546D01*
X99660482Y-87030949D01*
X99660484Y-87030959D01*
X99721640Y-87259201D01*
X99721642Y-87259205D01*
X99721643Y-87259209D01*
X99806045Y-87440209D01*
X99821511Y-87473376D01*
X99821513Y-87473380D01*
X99957047Y-87666941D01*
X99957052Y-87666948D01*
X100124143Y-87834039D01*
X100124149Y-87834044D01*
X100309704Y-87963971D01*
X100353329Y-88018548D01*
X100360523Y-88088046D01*
X100329000Y-88150401D01*
X100309704Y-88167121D01*
X100124143Y-88297051D01*
X99957051Y-88464143D01*
X99821511Y-88657715D01*
X99821510Y-88657717D01*
X99721644Y-88871881D01*
X99721640Y-88871890D01*
X99660484Y-89100132D01*
X99660482Y-89100142D01*
X99639887Y-89335545D01*
X99639887Y-89335546D01*
X99660482Y-89570949D01*
X99660484Y-89570959D01*
X99721640Y-89799201D01*
X99721642Y-89799205D01*
X99721643Y-89799209D01*
X99801550Y-89970569D01*
X99821511Y-90013376D01*
X99821513Y-90013380D01*
X99929827Y-90168067D01*
X99957047Y-90206942D01*
X99957052Y-90206948D01*
X100124143Y-90374039D01*
X100124149Y-90374044D01*
X100309704Y-90503971D01*
X100353329Y-90558548D01*
X100360523Y-90628046D01*
X100329000Y-90690401D01*
X100309704Y-90707121D01*
X100124143Y-90837051D01*
X99957051Y-91004143D01*
X99821511Y-91197715D01*
X99821510Y-91197717D01*
X99721644Y-91411881D01*
X99721640Y-91411890D01*
X99660484Y-91640132D01*
X99660482Y-91640142D01*
X99639887Y-91875545D01*
X99639887Y-91875546D01*
X99660482Y-92110949D01*
X99660484Y-92110959D01*
X99721640Y-92339201D01*
X99721642Y-92339205D01*
X99721643Y-92339209D01*
X99725546Y-92347578D01*
X99821511Y-92553376D01*
X99821513Y-92553380D01*
X99929827Y-92708067D01*
X99957047Y-92746942D01*
X99957052Y-92746948D01*
X100124143Y-92914039D01*
X100124149Y-92914044D01*
X100309704Y-93043971D01*
X100353329Y-93098548D01*
X100360523Y-93168046D01*
X100329000Y-93230401D01*
X100309704Y-93247121D01*
X100124143Y-93377051D01*
X99957051Y-93544143D01*
X99821511Y-93737715D01*
X99821510Y-93737717D01*
X99721644Y-93951881D01*
X99721640Y-93951890D01*
X99660484Y-94180132D01*
X99660482Y-94180142D01*
X99639887Y-94415545D01*
X99639887Y-94415546D01*
X99660482Y-94650949D01*
X99660484Y-94650959D01*
X99721640Y-94879201D01*
X99721642Y-94879205D01*
X99721643Y-94879209D01*
X99725546Y-94887578D01*
X99821511Y-95093376D01*
X99821513Y-95093380D01*
X99851644Y-95136411D01*
X99957047Y-95286942D01*
X99957052Y-95286948D01*
X100124143Y-95454039D01*
X100124149Y-95454044D01*
X100309704Y-95583971D01*
X100353329Y-95638548D01*
X100360523Y-95708046D01*
X100329000Y-95770401D01*
X100309704Y-95787121D01*
X100124143Y-95917051D01*
X99957051Y-96084143D01*
X99821511Y-96277715D01*
X99821510Y-96277717D01*
X99721644Y-96491881D01*
X99721640Y-96491890D01*
X99660484Y-96720132D01*
X99660482Y-96720142D01*
X99639887Y-96955545D01*
X99639887Y-96955546D01*
X99660482Y-97190949D01*
X99660484Y-97190959D01*
X99721640Y-97419201D01*
X99721642Y-97419205D01*
X99721643Y-97419209D01*
X99801143Y-97589697D01*
X99821511Y-97633376D01*
X99821513Y-97633380D01*
X99897220Y-97741500D01*
X99957047Y-97826942D01*
X99957052Y-97826948D01*
X100124143Y-97994039D01*
X100124149Y-97994044D01*
X100309704Y-98123971D01*
X100353329Y-98178548D01*
X100360523Y-98248046D01*
X100329000Y-98310401D01*
X100309704Y-98327121D01*
X100124143Y-98457051D01*
X99957051Y-98624143D01*
X99821511Y-98817715D01*
X99821510Y-98817717D01*
X99721644Y-99031881D01*
X99721640Y-99031890D01*
X99660484Y-99260132D01*
X99660482Y-99260142D01*
X99639887Y-99495545D01*
X99639887Y-99495546D01*
X99660482Y-99730949D01*
X99660484Y-99730959D01*
X99721640Y-99959201D01*
X99721642Y-99959205D01*
X99721643Y-99959209D01*
X99725546Y-99967578D01*
X99821511Y-100173376D01*
X99821513Y-100173380D01*
X99929827Y-100328067D01*
X99957047Y-100366942D01*
X99957052Y-100366948D01*
X100124143Y-100534039D01*
X100124149Y-100534044D01*
X100309704Y-100663971D01*
X100353329Y-100718548D01*
X100360523Y-100788046D01*
X100329000Y-100850401D01*
X100309704Y-100867121D01*
X100124143Y-100997051D01*
X99957051Y-101164143D01*
X99821511Y-101357715D01*
X99821510Y-101357717D01*
X99721644Y-101571881D01*
X99721640Y-101571890D01*
X99660484Y-101800132D01*
X99660482Y-101800142D01*
X99639887Y-102035545D01*
X99639887Y-102035546D01*
X99660482Y-102270949D01*
X99660484Y-102270959D01*
X99721640Y-102499201D01*
X99721642Y-102499205D01*
X99721643Y-102499209D01*
X99781927Y-102628488D01*
X99821511Y-102713376D01*
X99821513Y-102713380D01*
X99929827Y-102868067D01*
X99957047Y-102906942D01*
X99957052Y-102906948D01*
X100124143Y-103074039D01*
X100124149Y-103074044D01*
X100309704Y-103203971D01*
X100353329Y-103258548D01*
X100360523Y-103328046D01*
X100329000Y-103390401D01*
X100309704Y-103407121D01*
X100124143Y-103537051D01*
X99957051Y-103704143D01*
X99821511Y-103897715D01*
X99821510Y-103897717D01*
X99721644Y-104111881D01*
X99721640Y-104111890D01*
X99660484Y-104340132D01*
X99660482Y-104340142D01*
X99639887Y-104575545D01*
X99639887Y-104575546D01*
X99660482Y-104810949D01*
X99660484Y-104810959D01*
X99721640Y-105039201D01*
X99721642Y-105039205D01*
X99721643Y-105039209D01*
X99725546Y-105047578D01*
X99821511Y-105253376D01*
X99821513Y-105253380D01*
X99929827Y-105408067D01*
X99957047Y-105446942D01*
X99957052Y-105446948D01*
X100124143Y-105614039D01*
X100124149Y-105614044D01*
X100309704Y-105743971D01*
X100353329Y-105798548D01*
X100360523Y-105868046D01*
X100329000Y-105930401D01*
X100309704Y-105947121D01*
X100124143Y-106077051D01*
X99957051Y-106244143D01*
X99821511Y-106437715D01*
X99821510Y-106437717D01*
X99721644Y-106651881D01*
X99721640Y-106651890D01*
X99660484Y-106880132D01*
X99660482Y-106880142D01*
X99639887Y-107115545D01*
X99639887Y-107115546D01*
X99660482Y-107350949D01*
X99660484Y-107350959D01*
X99721640Y-107579201D01*
X99721642Y-107579205D01*
X99721643Y-107579209D01*
X99801143Y-107749697D01*
X99821511Y-107793376D01*
X99821513Y-107793380D01*
X99900817Y-107906637D01*
X99957047Y-107986942D01*
X99957052Y-107986948D01*
X100124143Y-108154039D01*
X100124149Y-108154044D01*
X100310140Y-108284276D01*
X100353765Y-108338853D01*
X100360959Y-108408351D01*
X100329436Y-108470706D01*
X100310141Y-108487426D01*
X100124468Y-108617436D01*
X100124466Y-108617437D01*
X99957437Y-108784466D01*
X99957432Y-108784472D01*
X99821946Y-108977966D01*
X99821945Y-108977968D01*
X99722116Y-109192053D01*
X99722113Y-109192059D01*
X99664910Y-109405545D01*
X99664910Y-109405546D01*
X100562534Y-109405546D01*
X100529621Y-109462553D01*
X100495546Y-109589720D01*
X100495546Y-109721372D01*
X100529621Y-109848539D01*
X100562534Y-109905546D01*
X99664910Y-109905546D01*
X99722113Y-110119032D01*
X99722116Y-110119038D01*
X99821945Y-110333124D01*
X99957440Y-110526628D01*
X100124463Y-110693651D01*
X100317967Y-110829146D01*
X100532053Y-110928975D01*
X100532062Y-110928979D01*
X100745546Y-110986180D01*
X100745546Y-110088558D01*
X100802553Y-110121471D01*
X100929720Y-110155546D01*
X101061372Y-110155546D01*
X101188539Y-110121471D01*
X101245546Y-110088558D01*
X101245546Y-110986179D01*
X101459029Y-110928979D01*
X101459038Y-110928975D01*
X101673124Y-110829146D01*
X101866628Y-110693651D01*
X102033651Y-110526628D01*
X102163971Y-110340514D01*
X102218548Y-110296890D01*
X102288047Y-110289697D01*
X102350401Y-110321219D01*
X102367121Y-110340514D01*
X102497440Y-110526628D01*
X102664463Y-110693651D01*
X102857967Y-110829146D01*
X103072053Y-110928975D01*
X103072062Y-110928979D01*
X103285546Y-110986180D01*
X103285546Y-110088558D01*
X103342553Y-110121471D01*
X103469720Y-110155546D01*
X103601372Y-110155546D01*
X103728539Y-110121471D01*
X103785546Y-110088558D01*
X103785546Y-110986179D01*
X103999029Y-110928979D01*
X103999038Y-110928975D01*
X104213124Y-110829146D01*
X104406628Y-110693651D01*
X104573651Y-110526628D01*
X104709146Y-110333124D01*
X104808975Y-110119038D01*
X104808978Y-110119032D01*
X104866182Y-109905546D01*
X103968558Y-109905546D01*
X104001471Y-109848539D01*
X104035546Y-109721372D01*
X104035546Y-109589720D01*
X104001471Y-109462553D01*
X103968558Y-109405546D01*
X104866182Y-109405546D01*
X104866181Y-109405545D01*
X104808978Y-109192059D01*
X104808975Y-109192053D01*
X104709146Y-108977968D01*
X104709145Y-108977966D01*
X104573659Y-108784472D01*
X104573654Y-108784466D01*
X104406624Y-108617436D01*
X104220951Y-108487425D01*
X104177326Y-108432848D01*
X104170134Y-108363350D01*
X104201656Y-108300995D01*
X104220952Y-108284276D01*
X104406947Y-108154041D01*
X104574041Y-107986947D01*
X104709581Y-107793376D01*
X104809449Y-107579209D01*
X104870609Y-107350954D01*
X104891205Y-107115546D01*
X104870609Y-106880138D01*
X104815526Y-106674562D01*
X104809451Y-106651890D01*
X104809450Y-106651889D01*
X104809449Y-106651883D01*
X104709581Y-106437717D01*
X104703971Y-106429704D01*
X104574040Y-106244143D01*
X104406948Y-106077052D01*
X104406942Y-106077047D01*
X104221388Y-105947121D01*
X104177763Y-105892544D01*
X104170569Y-105823046D01*
X104202092Y-105760691D01*
X104221388Y-105743971D01*
X104291006Y-105695224D01*
X104406947Y-105614041D01*
X104574041Y-105446947D01*
X104709581Y-105253376D01*
X104809449Y-105039209D01*
X104870609Y-104810954D01*
X104891205Y-104575546D01*
X104870609Y-104340138D01*
X104809449Y-104111883D01*
X104709581Y-103897717D01*
X104703971Y-103889704D01*
X104574040Y-103704143D01*
X104406948Y-103537052D01*
X104406942Y-103537047D01*
X104221388Y-103407121D01*
X104177763Y-103352544D01*
X104170569Y-103283046D01*
X104202092Y-103220691D01*
X104221388Y-103203971D01*
X104249018Y-103184624D01*
X104406947Y-103074041D01*
X104574041Y-102906947D01*
X104709581Y-102713376D01*
X104809449Y-102499209D01*
X104870609Y-102270954D01*
X104891205Y-102035546D01*
X104870609Y-101800138D01*
X104809449Y-101571883D01*
X104709581Y-101357717D01*
X104703971Y-101349704D01*
X104574040Y-101164143D01*
X104406948Y-100997052D01*
X104406942Y-100997047D01*
X104221388Y-100867121D01*
X104177763Y-100812544D01*
X104170569Y-100743046D01*
X104202092Y-100680691D01*
X104221388Y-100663971D01*
X104249018Y-100644624D01*
X104406947Y-100534041D01*
X104574041Y-100366947D01*
X104709581Y-100173376D01*
X104809449Y-99959209D01*
X104870609Y-99730954D01*
X104891205Y-99495546D01*
X104870609Y-99260138D01*
X104809449Y-99031883D01*
X104709581Y-98817717D01*
X104703971Y-98809704D01*
X104574040Y-98624143D01*
X104406948Y-98457052D01*
X104406942Y-98457047D01*
X104221388Y-98327121D01*
X104177763Y-98272544D01*
X104170569Y-98203046D01*
X104202092Y-98140691D01*
X104221388Y-98123971D01*
X104249021Y-98104622D01*
X104406947Y-97994041D01*
X104574041Y-97826947D01*
X104709581Y-97633376D01*
X104809449Y-97419209D01*
X104870609Y-97190954D01*
X104891205Y-96955546D01*
X104870609Y-96720138D01*
X104809449Y-96491883D01*
X104709581Y-96277717D01*
X104703971Y-96269704D01*
X104574040Y-96084143D01*
X104406948Y-95917052D01*
X104406942Y-95917047D01*
X104221388Y-95787121D01*
X104177763Y-95732544D01*
X104170569Y-95663046D01*
X104202092Y-95600691D01*
X104221388Y-95583971D01*
X104305844Y-95524834D01*
X104406947Y-95454041D01*
X104574041Y-95286947D01*
X104709581Y-95093376D01*
X104809449Y-94879209D01*
X104870609Y-94650954D01*
X104891205Y-94415546D01*
X104870609Y-94180138D01*
X104809449Y-93951883D01*
X104709581Y-93737717D01*
X104703971Y-93729704D01*
X104574040Y-93544143D01*
X104406948Y-93377052D01*
X104406942Y-93377047D01*
X104221388Y-93247121D01*
X104177763Y-93192544D01*
X104170569Y-93123046D01*
X104202092Y-93060691D01*
X104221388Y-93043971D01*
X104289513Y-92996269D01*
X104406947Y-92914041D01*
X104574041Y-92746947D01*
X104709581Y-92553376D01*
X104809449Y-92339209D01*
X104870609Y-92110954D01*
X104891205Y-91875546D01*
X104870609Y-91640138D01*
X104809449Y-91411883D01*
X104709581Y-91197717D01*
X104703971Y-91189704D01*
X104574040Y-91004143D01*
X104406948Y-90837052D01*
X104406942Y-90837047D01*
X104221388Y-90707121D01*
X104177763Y-90652544D01*
X104170569Y-90583046D01*
X104202092Y-90520691D01*
X104221388Y-90503971D01*
X104308002Y-90443323D01*
X104406947Y-90374041D01*
X104574041Y-90206947D01*
X104709581Y-90013376D01*
X104809449Y-89799209D01*
X104870609Y-89570954D01*
X104891205Y-89335546D01*
X104870609Y-89100138D01*
X104809449Y-88871883D01*
X104709581Y-88657717D01*
X104703970Y-88649704D01*
X104574042Y-88464146D01*
X104514659Y-88404763D01*
X104452113Y-88342217D01*
X104439732Y-88319542D01*
X109174562Y-88319542D01*
X109174562Y-88319549D01*
X109194757Y-88498795D01*
X109194758Y-88498800D01*
X109254338Y-88669070D01*
X109335620Y-88798427D01*
X109354627Y-88864400D01*
X109354627Y-90314691D01*
X109335621Y-90380663D01*
X109254338Y-90510022D01*
X109194758Y-90680291D01*
X109194757Y-90680296D01*
X109174562Y-90859542D01*
X109174562Y-90859549D01*
X109194757Y-91038795D01*
X109194758Y-91038800D01*
X109254338Y-91209070D01*
X109335620Y-91338427D01*
X109354627Y-91404400D01*
X109354627Y-92854691D01*
X109335621Y-92920663D01*
X109254338Y-93050022D01*
X109194758Y-93220291D01*
X109194757Y-93220296D01*
X109174562Y-93399542D01*
X109174562Y-93399549D01*
X109194757Y-93578795D01*
X109194758Y-93578800D01*
X109254338Y-93749070D01*
X109292544Y-93809873D01*
X109322556Y-93857637D01*
X109335620Y-93878427D01*
X109354627Y-93944400D01*
X109354627Y-95394691D01*
X109335621Y-95460663D01*
X109254338Y-95590022D01*
X109194758Y-95760291D01*
X109194757Y-95760296D01*
X109174562Y-95939542D01*
X109174562Y-95939549D01*
X109194757Y-96118795D01*
X109194758Y-96118800D01*
X109254338Y-96289070D01*
X109292515Y-96349827D01*
X109329934Y-96409379D01*
X109335620Y-96418427D01*
X109354627Y-96484400D01*
X109354627Y-97934691D01*
X109335621Y-98000663D01*
X109254338Y-98130022D01*
X109194758Y-98300291D01*
X109194757Y-98300296D01*
X109174562Y-98479542D01*
X109174562Y-98479549D01*
X109194757Y-98658795D01*
X109194758Y-98658800D01*
X109254338Y-98829070D01*
X109335620Y-98958427D01*
X109354627Y-99024400D01*
X109354627Y-100474691D01*
X109335621Y-100540663D01*
X109254338Y-100670022D01*
X109194758Y-100840291D01*
X109194757Y-100840296D01*
X109174562Y-101019542D01*
X109174562Y-101019549D01*
X109194757Y-101198795D01*
X109194758Y-101198800D01*
X109254338Y-101369070D01*
X109335620Y-101498427D01*
X109354627Y-101564400D01*
X109354627Y-103014691D01*
X109335621Y-103080663D01*
X109254338Y-103210022D01*
X109194758Y-103380291D01*
X109194757Y-103380296D01*
X109174562Y-103559542D01*
X109174562Y-103559549D01*
X109194757Y-103738795D01*
X109194758Y-103738800D01*
X109254338Y-103909070D01*
X109335620Y-104038427D01*
X109354627Y-104104400D01*
X109354627Y-105499891D01*
X109335621Y-105565863D01*
X109254338Y-105695222D01*
X109194758Y-105865491D01*
X109194757Y-105865496D01*
X109174562Y-106044742D01*
X109174562Y-106044749D01*
X109194757Y-106223995D01*
X109194758Y-106224000D01*
X109254338Y-106394269D01*
X109309083Y-106481394D01*
X109350311Y-106547008D01*
X109477865Y-106674562D01*
X109630605Y-106770535D01*
X109800872Y-106830114D01*
X109847950Y-106835418D01*
X109912363Y-106862483D01*
X109921748Y-106870957D01*
X110957397Y-107906606D01*
X110957426Y-107906637D01*
X111047644Y-107996855D01*
X111047648Y-107996858D01*
X111150088Y-108065307D01*
X111150092Y-108065309D01*
X111150095Y-108065311D01*
X111263929Y-108112463D01*
X111276204Y-108114904D01*
X111281916Y-108116041D01*
X111281929Y-108116043D01*
X111281943Y-108116046D01*
X111384772Y-108136499D01*
X111384773Y-108136500D01*
X111384774Y-108136500D01*
X117519804Y-108136500D01*
X117519804Y-108136499D01*
X117622634Y-108116046D01*
X117622635Y-108116046D01*
X117640643Y-108112464D01*
X117640643Y-108112463D01*
X117640648Y-108112463D01*
X117640653Y-108112460D01*
X117640656Y-108112460D01*
X117673983Y-108098654D01*
X117673982Y-108098654D01*
X117673988Y-108098652D01*
X117754482Y-108065312D01*
X117805705Y-108031084D01*
X117856929Y-107996858D01*
X117944054Y-107909733D01*
X117944055Y-107909731D01*
X117951121Y-107902665D01*
X117951124Y-107902661D01*
X118432529Y-107421256D01*
X118432533Y-107421254D01*
X118519658Y-107334129D01*
X118553884Y-107282905D01*
X118588112Y-107231682D01*
X118635263Y-107117847D01*
X118659300Y-106997003D01*
X118659300Y-106873789D01*
X118659300Y-103075854D01*
X118678985Y-103008815D01*
X118731789Y-102963060D01*
X118800947Y-102953116D01*
X118864503Y-102982141D01*
X118901006Y-103036850D01*
X118951052Y-103187881D01*
X118951057Y-103187892D01*
X119040024Y-103332128D01*
X119040027Y-103332132D01*
X119159867Y-103451972D01*
X119159871Y-103451975D01*
X119304107Y-103540942D01*
X119304118Y-103540947D01*
X119464993Y-103594255D01*
X119564283Y-103604399D01*
X120112600Y-103604399D01*
X120160908Y-103604399D01*
X120160922Y-103604398D01*
X120260207Y-103594255D01*
X120421081Y-103540947D01*
X120421092Y-103540942D01*
X120565328Y-103451975D01*
X120565332Y-103451972D01*
X120685172Y-103332132D01*
X120685175Y-103332128D01*
X120774142Y-103187892D01*
X120774147Y-103187881D01*
X120827455Y-103027006D01*
X120837599Y-102927722D01*
X120837600Y-102927709D01*
X120837600Y-102904400D01*
X120112600Y-102904400D01*
X120112600Y-103604399D01*
X119564283Y-103604399D01*
X119612599Y-103604398D01*
X119612600Y-103604398D01*
X119612600Y-102528400D01*
X119632285Y-102461361D01*
X119685089Y-102415606D01*
X119736600Y-102404400D01*
X120837599Y-102404400D01*
X120837599Y-102381092D01*
X120837598Y-102381077D01*
X120827455Y-102281792D01*
X120774147Y-102120918D01*
X120774142Y-102120907D01*
X120737222Y-102061051D01*
X120718781Y-101993659D01*
X120739703Y-101926995D01*
X120793345Y-101882226D01*
X120862676Y-101873564D01*
X120871279Y-101875278D01*
X120874708Y-101876087D01*
X120874717Y-101876091D01*
X120934327Y-101882500D01*
X122530072Y-101882499D01*
X122589683Y-101876091D01*
X122724531Y-101825796D01*
X122839746Y-101739546D01*
X122925996Y-101624331D01*
X122976291Y-101489483D01*
X122982700Y-101429873D01*
X122982699Y-100734128D01*
X122976291Y-100674517D01*
X122974616Y-100670026D01*
X122925997Y-100539670D01*
X122925996Y-100539669D01*
X122920147Y-100531856D01*
X122912253Y-100521311D01*
X122887835Y-100455850D01*
X122902685Y-100387576D01*
X122912250Y-100372691D01*
X122925996Y-100354331D01*
X122976291Y-100219483D01*
X122982700Y-100159873D01*
X122982699Y-99464128D01*
X122976291Y-99404517D01*
X122950301Y-99334833D01*
X122945317Y-99265141D01*
X122978802Y-99203818D01*
X123040126Y-99170334D01*
X123066483Y-99167500D01*
X124469748Y-99167500D01*
X124536787Y-99187185D01*
X124557429Y-99203819D01*
X126206216Y-100852606D01*
X126206245Y-100852637D01*
X126296463Y-100942855D01*
X126296471Y-100942861D01*
X126373224Y-100994146D01*
X126373225Y-100994146D01*
X126398915Y-101011312D01*
X126456213Y-101035045D01*
X126456214Y-101035046D01*
X126456215Y-101035046D01*
X126512748Y-101058463D01*
X126573171Y-101070481D01*
X126633593Y-101082500D01*
X126633594Y-101082500D01*
X127457701Y-101082500D01*
X127524740Y-101102185D01*
X127570495Y-101154989D01*
X127581701Y-101206500D01*
X127581701Y-101429876D01*
X127588108Y-101489483D01*
X127638402Y-101624328D01*
X127638406Y-101624335D01*
X127724652Y-101739544D01*
X127724655Y-101739547D01*
X127839866Y-101825794D01*
X127839867Y-101825794D01*
X127839869Y-101825796D01*
X127843288Y-101827071D01*
X127846210Y-101829259D01*
X127847652Y-101830046D01*
X127847538Y-101830253D01*
X127899221Y-101868943D01*
X127923638Y-101934407D01*
X127923340Y-101952346D01*
X127923340Y-101955597D01*
X127923340Y-101955600D01*
X127943126Y-102143856D01*
X127943127Y-102143859D01*
X128001618Y-102323877D01*
X128001621Y-102323884D01*
X128096267Y-102487816D01*
X128222929Y-102628488D01*
X128376065Y-102739748D01*
X128376070Y-102739751D01*
X128548992Y-102816742D01*
X128548997Y-102816744D01*
X128734154Y-102856100D01*
X128734155Y-102856100D01*
X128923444Y-102856100D01*
X128923446Y-102856100D01*
X129108603Y-102816744D01*
X129281530Y-102739751D01*
X129434671Y-102628488D01*
X129561333Y-102487816D01*
X129655979Y-102323884D01*
X129714474Y-102143856D01*
X129734260Y-101955600D01*
X129734260Y-101955597D01*
X129734260Y-101949101D01*
X129736333Y-101949101D01*
X129747136Y-101889951D01*
X129794857Y-101838916D01*
X129814566Y-101829512D01*
X129824531Y-101825796D01*
X129939746Y-101739546D01*
X130025996Y-101624331D01*
X130076291Y-101489483D01*
X130082700Y-101429873D01*
X130082700Y-101206500D01*
X130102385Y-101139461D01*
X130155189Y-101093706D01*
X130206700Y-101082500D01*
X132929007Y-101082500D01*
X132989429Y-101070481D01*
X133049852Y-101058463D01*
X133049855Y-101058461D01*
X133049858Y-101058461D01*
X133083187Y-101044654D01*
X133083186Y-101044654D01*
X133083192Y-101044652D01*
X133163686Y-101011312D01*
X133214909Y-100977084D01*
X133266133Y-100942858D01*
X133353258Y-100855733D01*
X133353259Y-100855731D01*
X133358972Y-100850018D01*
X133420295Y-100816533D01*
X133446654Y-100813699D01*
X134582602Y-100813699D01*
X134582608Y-100813699D01*
X134685397Y-100803199D01*
X134851934Y-100748014D01*
X135001256Y-100655912D01*
X135125312Y-100531856D01*
X135217414Y-100382534D01*
X135272599Y-100215997D01*
X135283100Y-100113209D01*
X135283099Y-99313192D01*
X135278167Y-99264915D01*
X135272599Y-99210403D01*
X135272598Y-99210400D01*
X135258382Y-99167500D01*
X135217414Y-99043866D01*
X135125312Y-98894544D01*
X135001256Y-98770488D01*
X135001252Y-98770485D01*
X134937056Y-98730888D01*
X134890331Y-98678940D01*
X134879110Y-98609977D01*
X134906953Y-98545895D01*
X134914450Y-98537691D01*
X135022014Y-98430128D01*
X135123832Y-98289988D01*
X135202473Y-98135645D01*
X135256002Y-97970901D01*
X135283100Y-97799811D01*
X135283100Y-97626589D01*
X135256002Y-97455499D01*
X135202473Y-97290755D01*
X135123832Y-97136412D01*
X135022014Y-96996272D01*
X134899528Y-96873786D01*
X134816575Y-96813517D01*
X134773911Y-96758188D01*
X134767932Y-96688574D01*
X134800538Y-96626779D01*
X134816576Y-96612882D01*
X134899528Y-96552614D01*
X135022014Y-96430128D01*
X135123832Y-96289988D01*
X135202473Y-96135645D01*
X135256002Y-95970901D01*
X135283100Y-95799811D01*
X135283100Y-95626589D01*
X135256002Y-95455499D01*
X135202473Y-95290755D01*
X135123832Y-95136412D01*
X135022014Y-94996272D01*
X134899528Y-94873786D01*
X134816575Y-94813517D01*
X134773911Y-94758188D01*
X134767932Y-94688574D01*
X134800538Y-94626779D01*
X134816576Y-94612882D01*
X134899528Y-94552614D01*
X135022014Y-94430128D01*
X135123832Y-94289988D01*
X135202473Y-94135645D01*
X135256002Y-93970901D01*
X135283100Y-93799811D01*
X135283100Y-93626589D01*
X135256002Y-93455499D01*
X135202473Y-93290755D01*
X135123832Y-93136412D01*
X135022014Y-92996272D01*
X134899528Y-92873786D01*
X134759388Y-92771968D01*
X134605045Y-92693327D01*
X134440301Y-92639798D01*
X134440299Y-92639797D01*
X134440298Y-92639797D01*
X134308871Y-92618981D01*
X134269211Y-92612700D01*
X133545989Y-92612700D01*
X133506328Y-92618981D01*
X133374902Y-92639797D01*
X133210152Y-92693328D01*
X133055811Y-92771968D01*
X132980067Y-92827000D01*
X132915672Y-92873786D01*
X132915670Y-92873788D01*
X132915669Y-92873788D01*
X132793188Y-92996269D01*
X132793188Y-92996270D01*
X132793186Y-92996272D01*
X132767453Y-93031691D01*
X132691368Y-93136411D01*
X132612728Y-93290752D01*
X132559197Y-93455502D01*
X132536843Y-93596643D01*
X132532100Y-93626589D01*
X132532100Y-93799811D01*
X132555548Y-93947858D01*
X132557963Y-93963102D01*
X132549008Y-94032395D01*
X132504012Y-94085847D01*
X132437261Y-94106487D01*
X132435490Y-94106500D01*
X130166483Y-94106500D01*
X130099444Y-94086815D01*
X130053689Y-94034011D01*
X130043745Y-93964853D01*
X130050301Y-93939167D01*
X130062625Y-93906124D01*
X130076291Y-93869483D01*
X130082700Y-93809873D01*
X130082699Y-93114128D01*
X130076291Y-93054517D01*
X130074616Y-93050026D01*
X130025997Y-92919670D01*
X130025996Y-92919669D01*
X130021781Y-92914039D01*
X130012253Y-92901311D01*
X129987835Y-92835850D01*
X130002685Y-92767576D01*
X130012250Y-92752691D01*
X130025996Y-92734331D01*
X130076291Y-92599483D01*
X130082700Y-92539873D01*
X130082699Y-91844128D01*
X130076291Y-91784517D01*
X130025996Y-91649669D01*
X130025995Y-91649668D01*
X130025993Y-91649664D01*
X129939747Y-91534455D01*
X129939744Y-91534452D01*
X129824535Y-91448206D01*
X129824528Y-91448202D01*
X129689682Y-91397908D01*
X129689683Y-91397908D01*
X129630083Y-91391501D01*
X129630081Y-91391500D01*
X129630073Y-91391500D01*
X129630065Y-91391500D01*
X129606100Y-91391500D01*
X129539061Y-91371815D01*
X129493306Y-91319011D01*
X129482100Y-91267500D01*
X129482100Y-91033747D01*
X129501785Y-90966708D01*
X129529195Y-90936476D01*
X129534641Y-90932169D01*
X129534644Y-90932168D01*
X129544268Y-90922543D01*
X129605587Y-90889056D01*
X129675279Y-90894035D01*
X129719634Y-90922539D01*
X129728867Y-90931772D01*
X129728871Y-90931775D01*
X129873107Y-91020742D01*
X129873118Y-91020747D01*
X130033993Y-91074055D01*
X130133283Y-91084199D01*
X130656600Y-91084199D01*
X130679908Y-91084199D01*
X130679922Y-91084198D01*
X130779207Y-91074055D01*
X130940081Y-91020747D01*
X130940092Y-91020742D01*
X131084328Y-90931775D01*
X131084332Y-90931772D01*
X131204172Y-90811932D01*
X131204175Y-90811928D01*
X131293142Y-90667692D01*
X131293147Y-90667681D01*
X131346455Y-90506806D01*
X131356599Y-90407522D01*
X131356600Y-90407509D01*
X131356600Y-90359200D01*
X130656600Y-90359200D01*
X130656600Y-91084199D01*
X130133283Y-91084199D01*
X130156600Y-91084198D01*
X130156600Y-89859200D01*
X130656600Y-89859200D01*
X131356599Y-89859200D01*
X131356599Y-89810892D01*
X131356598Y-89810877D01*
X131346455Y-89711592D01*
X131293147Y-89550718D01*
X131293142Y-89550707D01*
X131204175Y-89406471D01*
X131204172Y-89406467D01*
X131084332Y-89286627D01*
X131084328Y-89286624D01*
X130940092Y-89197657D01*
X130940081Y-89197652D01*
X130779206Y-89144344D01*
X130679922Y-89134200D01*
X130656600Y-89134200D01*
X130656600Y-89859200D01*
X130156600Y-89859200D01*
X130156600Y-89134199D01*
X130133293Y-89134200D01*
X130133274Y-89134201D01*
X130033992Y-89144344D01*
X129873118Y-89197652D01*
X129873107Y-89197657D01*
X129756397Y-89269646D01*
X129689005Y-89288087D01*
X129622341Y-89267165D01*
X129577572Y-89213523D01*
X129567300Y-89164108D01*
X129567300Y-89049406D01*
X129586985Y-88982367D01*
X129639789Y-88936612D01*
X129652278Y-88931707D01*
X129682134Y-88921814D01*
X129831456Y-88829712D01*
X129955512Y-88705656D01*
X130047614Y-88556334D01*
X130102799Y-88389797D01*
X130113300Y-88287009D01*
X130113300Y-87771900D01*
X130132985Y-87704861D01*
X130185789Y-87659106D01*
X130237300Y-87647900D01*
X187269513Y-87647900D01*
X187336552Y-87667585D01*
X187357194Y-87684219D01*
X187455391Y-87782416D01*
X187488876Y-87843739D01*
X187483892Y-87913431D01*
X187442020Y-87969364D01*
X187378519Y-87993625D01*
X187300141Y-88000482D01*
X187300132Y-88000484D01*
X187071890Y-88061640D01*
X187071881Y-88061644D01*
X186857717Y-88161510D01*
X186857715Y-88161511D01*
X186664143Y-88297051D01*
X186497051Y-88464143D01*
X186361511Y-88657715D01*
X186361510Y-88657717D01*
X186261644Y-88871881D01*
X186261640Y-88871890D01*
X186200484Y-89100132D01*
X186200482Y-89100142D01*
X186179887Y-89335545D01*
X186179887Y-89335546D01*
X186200482Y-89570949D01*
X186200484Y-89570959D01*
X186261640Y-89799201D01*
X186261642Y-89799205D01*
X186261643Y-89799209D01*
X186341550Y-89970569D01*
X186361511Y-90013376D01*
X186361513Y-90013380D01*
X186469827Y-90168067D01*
X186497047Y-90206942D01*
X186497052Y-90206948D01*
X186664143Y-90374039D01*
X186664149Y-90374044D01*
X186849704Y-90503971D01*
X186893329Y-90558548D01*
X186900523Y-90628046D01*
X186869000Y-90690401D01*
X186849704Y-90707121D01*
X186664143Y-90837051D01*
X186497051Y-91004143D01*
X186361511Y-91197715D01*
X186361510Y-91197717D01*
X186261644Y-91411881D01*
X186261640Y-91411890D01*
X186200484Y-91640132D01*
X186200482Y-91640142D01*
X186179887Y-91875545D01*
X186179887Y-91875546D01*
X186200482Y-92110949D01*
X186200484Y-92110959D01*
X186261640Y-92339201D01*
X186261642Y-92339205D01*
X186261643Y-92339209D01*
X186265546Y-92347578D01*
X186361511Y-92553376D01*
X186361513Y-92553380D01*
X186469827Y-92708067D01*
X186497047Y-92746942D01*
X186497052Y-92746948D01*
X186664143Y-92914039D01*
X186664149Y-92914044D01*
X186849704Y-93043971D01*
X186893329Y-93098548D01*
X186900523Y-93168046D01*
X186869000Y-93230401D01*
X186849704Y-93247121D01*
X186664143Y-93377051D01*
X186497051Y-93544143D01*
X186361511Y-93737715D01*
X186361510Y-93737717D01*
X186261644Y-93951881D01*
X186261640Y-93951890D01*
X186200484Y-94180132D01*
X186200482Y-94180142D01*
X186179887Y-94415545D01*
X186179887Y-94415546D01*
X186200482Y-94650949D01*
X186200484Y-94650959D01*
X186261640Y-94879201D01*
X186261642Y-94879205D01*
X186261643Y-94879209D01*
X186265546Y-94887578D01*
X186361511Y-95093376D01*
X186361513Y-95093380D01*
X186391644Y-95136411D01*
X186497047Y-95286942D01*
X186497052Y-95286948D01*
X186664143Y-95454039D01*
X186664149Y-95454044D01*
X186672528Y-95459911D01*
X186833350Y-95572520D01*
X186850140Y-95584276D01*
X186893765Y-95638853D01*
X186900959Y-95708351D01*
X186869436Y-95770706D01*
X186850141Y-95787426D01*
X186664468Y-95917436D01*
X186664466Y-95917437D01*
X186497437Y-96084466D01*
X186497432Y-96084472D01*
X186361946Y-96277966D01*
X186361945Y-96277968D01*
X186262116Y-96492053D01*
X186262113Y-96492059D01*
X186204910Y-96705545D01*
X186204910Y-96705546D01*
X187102534Y-96705546D01*
X187069621Y-96762553D01*
X187035546Y-96889720D01*
X187035546Y-97021372D01*
X187069621Y-97148539D01*
X187102534Y-97205546D01*
X186204910Y-97205546D01*
X186262113Y-97419032D01*
X186262116Y-97419038D01*
X186361945Y-97633124D01*
X186497440Y-97826628D01*
X186664463Y-97993651D01*
X186850141Y-98123665D01*
X186893765Y-98178242D01*
X186900958Y-98247741D01*
X186869436Y-98310095D01*
X186850141Y-98326815D01*
X186664140Y-98457054D01*
X186497051Y-98624143D01*
X186361511Y-98817715D01*
X186361510Y-98817717D01*
X186261644Y-99031881D01*
X186261640Y-99031890D01*
X186200484Y-99260132D01*
X186200482Y-99260142D01*
X186179887Y-99495545D01*
X186179887Y-99495546D01*
X186200482Y-99730949D01*
X186200484Y-99730959D01*
X186261640Y-99959201D01*
X186261642Y-99959205D01*
X186261643Y-99959209D01*
X186265546Y-99967578D01*
X186361511Y-100173376D01*
X186361513Y-100173380D01*
X186469827Y-100328067D01*
X186497047Y-100366942D01*
X186497052Y-100366948D01*
X186664143Y-100534039D01*
X186664149Y-100534044D01*
X186672184Y-100539670D01*
X186833350Y-100652520D01*
X186850140Y-100664276D01*
X186893765Y-100718853D01*
X186900959Y-100788351D01*
X186869436Y-100850706D01*
X186850141Y-100867426D01*
X186664468Y-100997436D01*
X186664466Y-100997437D01*
X186497437Y-101164466D01*
X186497432Y-101164472D01*
X186361946Y-101357966D01*
X186361945Y-101357968D01*
X186262116Y-101572053D01*
X186262113Y-101572059D01*
X186204910Y-101785545D01*
X186204910Y-101785546D01*
X187102534Y-101785546D01*
X187069621Y-101842553D01*
X187035546Y-101969720D01*
X187035546Y-102101372D01*
X187069621Y-102228539D01*
X187102534Y-102285546D01*
X186204910Y-102285546D01*
X186262113Y-102499032D01*
X186262116Y-102499038D01*
X186361945Y-102713124D01*
X186497440Y-102906628D01*
X186664463Y-103073651D01*
X186850141Y-103203665D01*
X186893765Y-103258242D01*
X186900958Y-103327741D01*
X186869436Y-103390095D01*
X186850141Y-103406815D01*
X186664140Y-103537054D01*
X186497051Y-103704143D01*
X186361511Y-103897715D01*
X186361510Y-103897717D01*
X186261644Y-104111881D01*
X186261640Y-104111890D01*
X186200484Y-104340132D01*
X186200482Y-104340142D01*
X186179887Y-104575545D01*
X186179887Y-104575546D01*
X186200482Y-104810949D01*
X186200484Y-104810959D01*
X186261640Y-105039201D01*
X186261642Y-105039205D01*
X186261643Y-105039209D01*
X186265546Y-105047578D01*
X186361511Y-105253376D01*
X186361513Y-105253380D01*
X186469827Y-105408067D01*
X186497047Y-105446942D01*
X186497052Y-105446948D01*
X186664143Y-105614039D01*
X186664149Y-105614044D01*
X186850140Y-105744276D01*
X186893765Y-105798853D01*
X186900959Y-105868351D01*
X186869436Y-105930706D01*
X186850141Y-105947426D01*
X186664468Y-106077436D01*
X186664466Y-106077437D01*
X186497437Y-106244466D01*
X186497432Y-106244472D01*
X186361946Y-106437966D01*
X186361945Y-106437968D01*
X186262116Y-106652053D01*
X186262113Y-106652059D01*
X186204910Y-106865545D01*
X186204910Y-106865546D01*
X187102534Y-106865546D01*
X187069621Y-106922553D01*
X187035546Y-107049720D01*
X187035546Y-107181372D01*
X187069621Y-107308539D01*
X187102534Y-107365546D01*
X186204910Y-107365546D01*
X186262113Y-107579032D01*
X186262116Y-107579038D01*
X186361945Y-107793124D01*
X186497440Y-107986628D01*
X186664463Y-108153651D01*
X186857967Y-108289146D01*
X187072053Y-108388975D01*
X187072062Y-108388979D01*
X187285546Y-108446180D01*
X187285546Y-107548558D01*
X187342553Y-107581471D01*
X187469720Y-107615546D01*
X187601372Y-107615546D01*
X187728539Y-107581471D01*
X187785546Y-107548558D01*
X187785546Y-108446179D01*
X187999029Y-108388979D01*
X187999038Y-108388975D01*
X188213124Y-108289146D01*
X188406628Y-108153651D01*
X188573651Y-107986628D01*
X188703971Y-107800514D01*
X188758548Y-107756890D01*
X188828047Y-107749697D01*
X188890401Y-107781219D01*
X188907121Y-107800514D01*
X189037440Y-107986628D01*
X189204463Y-108153651D01*
X189397967Y-108289146D01*
X189612053Y-108388975D01*
X189612062Y-108388979D01*
X189825546Y-108446180D01*
X189825546Y-107548558D01*
X189882553Y-107581471D01*
X190009720Y-107615546D01*
X190141372Y-107615546D01*
X190268539Y-107581471D01*
X190325546Y-107548558D01*
X190325546Y-108446179D01*
X190539029Y-108388979D01*
X190539038Y-108388975D01*
X190753124Y-108289146D01*
X190946628Y-108153651D01*
X191113651Y-107986628D01*
X191249146Y-107793124D01*
X191348975Y-107579038D01*
X191348978Y-107579032D01*
X191406182Y-107365546D01*
X190508558Y-107365546D01*
X190541471Y-107308539D01*
X190575546Y-107181372D01*
X190575546Y-107049720D01*
X190541471Y-106922553D01*
X190508558Y-106865546D01*
X191406182Y-106865546D01*
X191406181Y-106865545D01*
X191348978Y-106652059D01*
X191348975Y-106652053D01*
X191249146Y-106437968D01*
X191249145Y-106437966D01*
X191113659Y-106244472D01*
X191113654Y-106244466D01*
X190946624Y-106077436D01*
X190760951Y-105947425D01*
X190717326Y-105892848D01*
X190710134Y-105823350D01*
X190741656Y-105760995D01*
X190760952Y-105744276D01*
X190796623Y-105719299D01*
X190946947Y-105614041D01*
X191114041Y-105446947D01*
X191249581Y-105253376D01*
X191349449Y-105039209D01*
X191410609Y-104810954D01*
X191431205Y-104575546D01*
X191410609Y-104340138D01*
X191349449Y-104111883D01*
X191249581Y-103897717D01*
X191243971Y-103889704D01*
X191114040Y-103704143D01*
X190946948Y-103537052D01*
X190946947Y-103537051D01*
X190760951Y-103406815D01*
X190717327Y-103352238D01*
X190710134Y-103282739D01*
X190741656Y-103220385D01*
X190760951Y-103203665D01*
X190946628Y-103073651D01*
X191113651Y-102906628D01*
X191249146Y-102713124D01*
X191348975Y-102499038D01*
X191348978Y-102499032D01*
X191406182Y-102285546D01*
X190508558Y-102285546D01*
X190541471Y-102228539D01*
X190575546Y-102101372D01*
X190575546Y-101969720D01*
X190541471Y-101842553D01*
X190508558Y-101785546D01*
X191406182Y-101785546D01*
X191406181Y-101785545D01*
X191348978Y-101572059D01*
X191348975Y-101572053D01*
X191249146Y-101357968D01*
X191249145Y-101357966D01*
X191113659Y-101164472D01*
X191113654Y-101164466D01*
X190946624Y-100997436D01*
X190760951Y-100867425D01*
X190717326Y-100812848D01*
X190710134Y-100743350D01*
X190741656Y-100680995D01*
X190760952Y-100664276D01*
X190772900Y-100655910D01*
X190946947Y-100534041D01*
X191114041Y-100366947D01*
X191249581Y-100173376D01*
X191349449Y-99959209D01*
X191410609Y-99730954D01*
X191431205Y-99495546D01*
X191410609Y-99260138D01*
X191349449Y-99031883D01*
X191249581Y-98817717D01*
X191243971Y-98809704D01*
X191114040Y-98624143D01*
X190946948Y-98457052D01*
X190946947Y-98457051D01*
X190760951Y-98326815D01*
X190717327Y-98272238D01*
X190710134Y-98202739D01*
X190741656Y-98140385D01*
X190760951Y-98123665D01*
X190946628Y-97993651D01*
X191113651Y-97826628D01*
X191249146Y-97633124D01*
X191348975Y-97419038D01*
X191348978Y-97419032D01*
X191406182Y-97205546D01*
X190508558Y-97205546D01*
X190541471Y-97148539D01*
X190575546Y-97021372D01*
X190575546Y-96889720D01*
X190541471Y-96762553D01*
X190508558Y-96705546D01*
X191406182Y-96705546D01*
X191406181Y-96705545D01*
X191348978Y-96492059D01*
X191348975Y-96492053D01*
X191249146Y-96277968D01*
X191249145Y-96277966D01*
X191113659Y-96084472D01*
X191113654Y-96084466D01*
X190946624Y-95917436D01*
X190760951Y-95787425D01*
X190717326Y-95732848D01*
X190710134Y-95663350D01*
X190741656Y-95600995D01*
X190760952Y-95584276D01*
X190761388Y-95583971D01*
X190946947Y-95454041D01*
X191114041Y-95286947D01*
X191249581Y-95093376D01*
X191349449Y-94879209D01*
X191410609Y-94650954D01*
X191431205Y-94415546D01*
X191410609Y-94180138D01*
X191349449Y-93951883D01*
X191249581Y-93737717D01*
X191243971Y-93729704D01*
X191114040Y-93544143D01*
X190946948Y-93377052D01*
X190946942Y-93377047D01*
X190761388Y-93247121D01*
X190717763Y-93192544D01*
X190710569Y-93123046D01*
X190742092Y-93060691D01*
X190761388Y-93043971D01*
X190829513Y-92996269D01*
X190946947Y-92914041D01*
X191114041Y-92746947D01*
X191249581Y-92553376D01*
X191349449Y-92339209D01*
X191410609Y-92110954D01*
X191431205Y-91875546D01*
X191410609Y-91640138D01*
X191349449Y-91411883D01*
X191249581Y-91197717D01*
X191243970Y-91189704D01*
X191114042Y-91004146D01*
X191074473Y-90964577D01*
X190992113Y-90882217D01*
X190958630Y-90820897D01*
X190963614Y-90751205D01*
X191005485Y-90695271D01*
X191036461Y-90678356D01*
X191167877Y-90629342D01*
X191283092Y-90543092D01*
X191369342Y-90427877D01*
X191419637Y-90293029D01*
X191426046Y-90233419D01*
X191426045Y-88437674D01*
X191419637Y-88378063D01*
X191419044Y-88376474D01*
X191369343Y-88243217D01*
X191369339Y-88243210D01*
X191283093Y-88128001D01*
X191283090Y-88127998D01*
X191167881Y-88041752D01*
X191167874Y-88041748D01*
X191033028Y-87991454D01*
X191033029Y-87991454D01*
X190973429Y-87985047D01*
X190973427Y-87985046D01*
X190973419Y-87985046D01*
X190973411Y-87985046D01*
X189843433Y-87985046D01*
X189776394Y-87965361D01*
X189755752Y-87948727D01*
X188114369Y-86307343D01*
X188114368Y-86307342D01*
X188073173Y-86279817D01*
X187990789Y-86224770D01*
X187990786Y-86224768D01*
X187990785Y-86224768D01*
X187910355Y-86191453D01*
X187853480Y-86167895D01*
X187829294Y-86163084D01*
X187707714Y-86138899D01*
X187707712Y-86138899D01*
X187559088Y-86138899D01*
X187552974Y-86138899D01*
X187552954Y-86138900D01*
X130237299Y-86138900D01*
X130170260Y-86119215D01*
X130124505Y-86066411D01*
X130113299Y-86014900D01*
X130113299Y-85186998D01*
X130113298Y-85186981D01*
X130102799Y-85084203D01*
X130102798Y-85084200D01*
X130047614Y-84917666D01*
X129955512Y-84768344D01*
X129831456Y-84644288D01*
X129682134Y-84552186D01*
X129515597Y-84497001D01*
X129515595Y-84497000D01*
X129412810Y-84486500D01*
X128212798Y-84486500D01*
X128212781Y-84486501D01*
X128110003Y-84497000D01*
X128110000Y-84497001D01*
X127943468Y-84552185D01*
X127943463Y-84552187D01*
X127794142Y-84644289D01*
X127670089Y-84768342D01*
X127577987Y-84917663D01*
X127577986Y-84917666D01*
X127522801Y-85084203D01*
X127522801Y-85084204D01*
X127522800Y-85084204D01*
X127512300Y-85186983D01*
X127512300Y-88287001D01*
X127512301Y-88287018D01*
X127522800Y-88389796D01*
X127522801Y-88389799D01*
X127577985Y-88556331D01*
X127577987Y-88556336D01*
X127602562Y-88596179D01*
X127670088Y-88705656D01*
X127794144Y-88829712D01*
X127943466Y-88921814D01*
X127973304Y-88931701D01*
X128030747Y-88971471D01*
X128057572Y-89035986D01*
X128058300Y-89049406D01*
X128058300Y-89172655D01*
X128038615Y-89239694D01*
X127985811Y-89285449D01*
X127948184Y-89295875D01*
X127836749Y-89308430D01*
X127836745Y-89308431D01*
X127666476Y-89368011D01*
X127513737Y-89463984D01*
X127386184Y-89591537D01*
X127290211Y-89744276D01*
X127230631Y-89914545D01*
X127230630Y-89914550D01*
X127210435Y-90093796D01*
X127210435Y-90093803D01*
X127230630Y-90273049D01*
X127230631Y-90273054D01*
X127290211Y-90443323D01*
X127352901Y-90543093D01*
X127386184Y-90596062D01*
X127513738Y-90723616D01*
X127528063Y-90732617D01*
X127654788Y-90812244D01*
X127666478Y-90819589D01*
X127764716Y-90853964D01*
X127836745Y-90879168D01*
X127836750Y-90879169D01*
X128015997Y-90899365D01*
X128016000Y-90899365D01*
X128073273Y-90892911D01*
X128142093Y-90904964D01*
X128174838Y-90928450D01*
X128178556Y-90932168D01*
X128178563Y-90932172D01*
X128184004Y-90936474D01*
X128224385Y-90993493D01*
X128231100Y-91033746D01*
X128231100Y-91267500D01*
X128211415Y-91334539D01*
X128158611Y-91380294D01*
X128107102Y-91391500D01*
X128034330Y-91391500D01*
X128034323Y-91391501D01*
X127974716Y-91397908D01*
X127839871Y-91448202D01*
X127839864Y-91448206D01*
X127724655Y-91534452D01*
X127724652Y-91534455D01*
X127638406Y-91649664D01*
X127638402Y-91649671D01*
X127588110Y-91784513D01*
X127588109Y-91784517D01*
X127581700Y-91844127D01*
X127581700Y-91844134D01*
X127581700Y-91844135D01*
X127581700Y-92539870D01*
X127581701Y-92539876D01*
X127588108Y-92599483D01*
X127614099Y-92669167D01*
X127619083Y-92738859D01*
X127585598Y-92800182D01*
X127524274Y-92833666D01*
X127497917Y-92836500D01*
X126514448Y-92836500D01*
X126447409Y-92816815D01*
X126426767Y-92800181D01*
X120451340Y-86824754D01*
X120451320Y-86824732D01*
X120359875Y-86733287D01*
X120305574Y-86697005D01*
X120257429Y-86664835D01*
X120257428Y-86664834D01*
X120176934Y-86631493D01*
X120143595Y-86617683D01*
X120133569Y-86615689D01*
X120083171Y-86605664D01*
X120022752Y-86593646D01*
X120022749Y-86593646D01*
X120022748Y-86593646D01*
X114670861Y-86593646D01*
X114547647Y-86593646D01*
X114547643Y-86593646D01*
X114487225Y-86605664D01*
X114426802Y-86617683D01*
X114426797Y-86617684D01*
X114393461Y-86631493D01*
X114379651Y-86637213D01*
X114357423Y-86646420D01*
X114312967Y-86664834D01*
X114302811Y-86671621D01*
X114302703Y-86671693D01*
X114210522Y-86733286D01*
X114166959Y-86776849D01*
X114123396Y-86820413D01*
X114123393Y-86820416D01*
X113450237Y-87493571D01*
X113388914Y-87527056D01*
X113376441Y-87529110D01*
X113331477Y-87534176D01*
X113161205Y-87593756D01*
X113008464Y-87689730D01*
X112880911Y-87817283D01*
X112784936Y-87970026D01*
X112751468Y-88065672D01*
X112710747Y-88122448D01*
X112645794Y-88148195D01*
X112577232Y-88134739D01*
X112526829Y-88086351D01*
X112517386Y-88065672D01*
X112483917Y-87970026D01*
X112483916Y-87970024D01*
X112387943Y-87817284D01*
X112260389Y-87689730D01*
X112251618Y-87684219D01*
X112107650Y-87593757D01*
X111937381Y-87534177D01*
X111937376Y-87534176D01*
X111758131Y-87513981D01*
X111758123Y-87513981D01*
X111578877Y-87534176D01*
X111578872Y-87534177D01*
X111408603Y-87593757D01*
X111255864Y-87689730D01*
X111128311Y-87817283D01*
X111032336Y-87970026D01*
X110986168Y-88101967D01*
X110945447Y-88158743D01*
X110880494Y-88184490D01*
X110811932Y-88171034D01*
X110761530Y-88122646D01*
X110752086Y-88101967D01*
X110705917Y-87970026D01*
X110705916Y-87970024D01*
X110609943Y-87817284D01*
X110482389Y-87689730D01*
X110473618Y-87684219D01*
X110329650Y-87593757D01*
X110159381Y-87534177D01*
X110159376Y-87534176D01*
X109980131Y-87513981D01*
X109980123Y-87513981D01*
X109800877Y-87534176D01*
X109800872Y-87534177D01*
X109630603Y-87593757D01*
X109477864Y-87689730D01*
X109350311Y-87817283D01*
X109254338Y-87970022D01*
X109194758Y-88140291D01*
X109194757Y-88140296D01*
X109174562Y-88319542D01*
X104439732Y-88319542D01*
X104418630Y-88280897D01*
X104423614Y-88211205D01*
X104465485Y-88155271D01*
X104496461Y-88138356D01*
X104627877Y-88089342D01*
X104743092Y-88003092D01*
X104829342Y-87887877D01*
X104879637Y-87753029D01*
X104886046Y-87693419D01*
X104886045Y-85897674D01*
X104879637Y-85838063D01*
X104878356Y-85834629D01*
X104829343Y-85703217D01*
X104829339Y-85703210D01*
X104743093Y-85588001D01*
X104743090Y-85587998D01*
X104627881Y-85501752D01*
X104627874Y-85501748D01*
X104493028Y-85451454D01*
X104493029Y-85451454D01*
X104433429Y-85445047D01*
X104433427Y-85445046D01*
X104433419Y-85445046D01*
X104433410Y-85445046D01*
X102637675Y-85445046D01*
X102637669Y-85445047D01*
X102578062Y-85451454D01*
X102443217Y-85501748D01*
X102443210Y-85501752D01*
X102328001Y-85587998D01*
X102327998Y-85588001D01*
X102241752Y-85703210D01*
X102241749Y-85703215D01*
X102192735Y-85834629D01*
X102150863Y-85890562D01*
X102085399Y-85914979D01*
X102017126Y-85900127D01*
X101988872Y-85878976D01*
X101866948Y-85757052D01*
X101866941Y-85757047D01*
X101673380Y-85621513D01*
X101673376Y-85621511D01*
X101673374Y-85621510D01*
X101459209Y-85521643D01*
X101459205Y-85521642D01*
X101459201Y-85521640D01*
X101230959Y-85460484D01*
X101230949Y-85460482D01*
X100995547Y-85439887D01*
X100995545Y-85439887D01*
X100760142Y-85460482D01*
X100760132Y-85460484D01*
X100531890Y-85521640D01*
X100531881Y-85521644D01*
X100317717Y-85621510D01*
X100317715Y-85621511D01*
X100124143Y-85757051D01*
X99957051Y-85924143D01*
X99821511Y-86117715D01*
X99821510Y-86117717D01*
X99721644Y-86331881D01*
X99721640Y-86331890D01*
X99660484Y-86560132D01*
X99660482Y-86560142D01*
X99639887Y-86795545D01*
X95535546Y-86795545D01*
X95535546Y-82686986D01*
X127512801Y-82686986D01*
X127523294Y-82789697D01*
X127578441Y-82956119D01*
X127578443Y-82956124D01*
X127670484Y-83105345D01*
X127794454Y-83229315D01*
X127943675Y-83321356D01*
X127943680Y-83321358D01*
X128110102Y-83376505D01*
X128110109Y-83376506D01*
X128212819Y-83386999D01*
X128562799Y-83386999D01*
X129062800Y-83386999D01*
X129412772Y-83386999D01*
X129412786Y-83386998D01*
X129515497Y-83376505D01*
X129681919Y-83321358D01*
X129681924Y-83321356D01*
X129831145Y-83229315D01*
X129955115Y-83105345D01*
X130047156Y-82956124D01*
X130047158Y-82956119D01*
X130102305Y-82789697D01*
X130102306Y-82789690D01*
X130112799Y-82686986D01*
X130112800Y-82686973D01*
X130112800Y-81387000D01*
X129062800Y-81387000D01*
X129062800Y-83386999D01*
X128562799Y-83386999D01*
X128562800Y-83386998D01*
X128562800Y-81387000D01*
X127512801Y-81387000D01*
X127512801Y-82686986D01*
X95535546Y-82686986D01*
X95535546Y-79587013D01*
X127512800Y-79587013D01*
X127512800Y-80887000D01*
X128562800Y-80887000D01*
X129062800Y-80887000D01*
X130112799Y-80887000D01*
X130112799Y-79587028D01*
X130112798Y-79587013D01*
X130102305Y-79484302D01*
X130047158Y-79317880D01*
X130047156Y-79317875D01*
X129955115Y-79168654D01*
X129831145Y-79044684D01*
X129681924Y-78952643D01*
X129681919Y-78952641D01*
X129515497Y-78897494D01*
X129515490Y-78897493D01*
X129412786Y-78887000D01*
X129062800Y-78887000D01*
X129062800Y-80887000D01*
X128562800Y-80887000D01*
X128562800Y-78887000D01*
X128212828Y-78887000D01*
X128212812Y-78887001D01*
X128110102Y-78897494D01*
X127943680Y-78952641D01*
X127943675Y-78952643D01*
X127794454Y-79044684D01*
X127670484Y-79168654D01*
X127578443Y-79317875D01*
X127578441Y-79317880D01*
X127523294Y-79484302D01*
X127523293Y-79484309D01*
X127512800Y-79587013D01*
X95535546Y-79587013D01*
X95535546Y-76226092D01*
X95535548Y-76225544D01*
X101283028Y-76225544D01*
X101283028Y-76225546D01*
X101303125Y-76525773D01*
X101303127Y-76525783D01*
X101363062Y-76820653D01*
X101461766Y-77104906D01*
X101461768Y-77104909D01*
X101597472Y-77373461D01*
X101597475Y-77373466D01*
X101597476Y-77373467D01*
X101767771Y-77621544D01*
X101969613Y-77844709D01*
X102199398Y-78038981D01*
X102453027Y-78200891D01*
X102725974Y-78327552D01*
X103013367Y-78416702D01*
X103310079Y-78466751D01*
X103610814Y-78476806D01*
X103910206Y-78446687D01*
X104202912Y-78376932D01*
X104483709Y-78268785D01*
X104747586Y-78124176D01*
X104989834Y-77945686D01*
X105206131Y-77736501D01*
X105392615Y-77500352D01*
X105545961Y-77241454D01*
X105663430Y-76964428D01*
X105742927Y-76674216D01*
X105783034Y-76375998D01*
X105785546Y-76225546D01*
X105785546Y-76225544D01*
X185283028Y-76225544D01*
X185283028Y-76225546D01*
X185303125Y-76525773D01*
X185303127Y-76525783D01*
X185363062Y-76820653D01*
X185461766Y-77104906D01*
X185461768Y-77104909D01*
X185597472Y-77373461D01*
X185597475Y-77373466D01*
X185597476Y-77373467D01*
X185767771Y-77621544D01*
X185969613Y-77844709D01*
X186199398Y-78038981D01*
X186453027Y-78200891D01*
X186725974Y-78327552D01*
X187013367Y-78416702D01*
X187310079Y-78466751D01*
X187610814Y-78476806D01*
X187910206Y-78446687D01*
X188202912Y-78376932D01*
X188483709Y-78268785D01*
X188747586Y-78124176D01*
X188989834Y-77945686D01*
X189206131Y-77736501D01*
X189392615Y-77500352D01*
X189545961Y-77241454D01*
X189663430Y-76964428D01*
X189742927Y-76674216D01*
X189783034Y-76375998D01*
X189785546Y-76225546D01*
X189783034Y-76075094D01*
X189742927Y-75776876D01*
X189663430Y-75486664D01*
X189545961Y-75209638D01*
X189467772Y-75077630D01*
X189392615Y-74950739D01*
X189206130Y-74714590D01*
X188989841Y-74505413D01*
X188989834Y-74505406D01*
X188747586Y-74326916D01*
X188608680Y-74250793D01*
X188483717Y-74182311D01*
X188483712Y-74182308D01*
X188483709Y-74182307D01*
X188483705Y-74182305D01*
X188483702Y-74182304D01*
X188202916Y-74074161D01*
X188202912Y-74074160D01*
X187910206Y-74004405D01*
X187910203Y-74004404D01*
X187610818Y-73974286D01*
X187610814Y-73974286D01*
X187310079Y-73984341D01*
X187013366Y-74034390D01*
X186885160Y-74074160D01*
X186725974Y-74123540D01*
X186725967Y-74123543D01*
X186725965Y-74123544D01*
X186453029Y-74250199D01*
X186453027Y-74250201D01*
X186199401Y-74412108D01*
X185969614Y-74606381D01*
X185767773Y-74829545D01*
X185767772Y-74829546D01*
X185597472Y-75077630D01*
X185461768Y-75346182D01*
X185461766Y-75346185D01*
X185363062Y-75630438D01*
X185303127Y-75925308D01*
X185303125Y-75925318D01*
X185283028Y-76225544D01*
X105785546Y-76225544D01*
X105783034Y-76075094D01*
X105742927Y-75776876D01*
X105663430Y-75486664D01*
X105545961Y-75209638D01*
X105467772Y-75077630D01*
X105392615Y-74950739D01*
X105206130Y-74714590D01*
X104989841Y-74505413D01*
X104989834Y-74505406D01*
X104747586Y-74326916D01*
X104608680Y-74250793D01*
X104483717Y-74182311D01*
X104483712Y-74182308D01*
X104483709Y-74182307D01*
X104483705Y-74182305D01*
X104483702Y-74182304D01*
X104202916Y-74074161D01*
X104202912Y-74074160D01*
X103910206Y-74004405D01*
X103910203Y-74004404D01*
X103610818Y-73974286D01*
X103610814Y-73974286D01*
X103310079Y-73984341D01*
X103013366Y-74034390D01*
X102885160Y-74074160D01*
X102725974Y-74123540D01*
X102725967Y-74123543D01*
X102725965Y-74123544D01*
X102453029Y-74250199D01*
X102453027Y-74250201D01*
X102199401Y-74412108D01*
X101969614Y-74606381D01*
X101767773Y-74829545D01*
X101767772Y-74829546D01*
X101597472Y-75077630D01*
X101461768Y-75346182D01*
X101461766Y-75346185D01*
X101363062Y-75630438D01*
X101303127Y-75925308D01*
X101303125Y-75925318D01*
X101283028Y-76225544D01*
X95535548Y-76225544D01*
X95535551Y-76224986D01*
X95535565Y-76223327D01*
X95538061Y-75943765D01*
X95538371Y-75936051D01*
X95539139Y-75925315D01*
X95578533Y-75374508D01*
X95579477Y-75365735D01*
X95659519Y-74809031D01*
X95661088Y-74800343D01*
X95780636Y-74250785D01*
X95782821Y-74242224D01*
X95941280Y-73702566D01*
X95944056Y-73694223D01*
X96140619Y-73167217D01*
X96143985Y-73159093D01*
X96377634Y-72647472D01*
X96381574Y-72639601D01*
X96651125Y-72145957D01*
X96655638Y-72138353D01*
X96959685Y-71665247D01*
X96964733Y-71657976D01*
X97301775Y-71207740D01*
X97307314Y-71200864D01*
X97675641Y-70775792D01*
X97681647Y-70769342D01*
X98079342Y-70371647D01*
X98085794Y-70365640D01*
X98510864Y-69997314D01*
X98517740Y-69991775D01*
X98967976Y-69654733D01*
X98975247Y-69649685D01*
X99448330Y-69345653D01*
X99448361Y-69345633D01*
X99455957Y-69341125D01*
X99949601Y-69071574D01*
X99957472Y-69067634D01*
X100469104Y-68833980D01*
X100477217Y-68830619D01*
X101004223Y-68634056D01*
X101012566Y-68631280D01*
X101552224Y-68472821D01*
X101560785Y-68470636D01*
X102110350Y-68351086D01*
X102119031Y-68349519D01*
X102675756Y-68269474D01*
X102684508Y-68268533D01*
X103246064Y-68228370D01*
X103253777Y-68228060D01*
X103527532Y-68225617D01*
X103534987Y-68225551D01*
X103536093Y-68225546D01*
X187534999Y-68225546D01*
X187536106Y-68225551D01*
G37*
%TD.AperFunction*%
%TD*%
M02*
