%TF.GenerationSoftware,KiCad,Pcbnew,8.0.3*%
%TF.CreationDate,2025-07-14T16:29:20+02:00*%
%TF.ProjectId,ScxhrittmotorBoard,53637868-7269-4747-946d-6f746f72426f,rev?*%
%TF.SameCoordinates,Original*%
%TF.FileFunction,Copper,L2,Bot*%
%TF.FilePolarity,Positive*%
%FSLAX46Y46*%
G04 Gerber Fmt 4.6, Leading zero omitted, Abs format (unit mm)*
G04 Created by KiCad (PCBNEW 8.0.3) date 2025-07-14 16:29:20*
%MOMM*%
%LPD*%
G01*
G04 APERTURE LIST*
G04 Aperture macros list*
%AMRoundRect*
0 Rectangle with rounded corners*
0 $1 Rounding radius*
0 $2 $3 $4 $5 $6 $7 $8 $9 X,Y pos of 4 corners*
0 Add a 4 corners polygon primitive as box body*
4,1,4,$2,$3,$4,$5,$6,$7,$8,$9,$2,$3,0*
0 Add four circle primitives for the rounded corners*
1,1,$1+$1,$2,$3*
1,1,$1+$1,$4,$5*
1,1,$1+$1,$6,$7*
1,1,$1+$1,$8,$9*
0 Add four rect primitives between the rounded corners*
20,1,$1+$1,$2,$3,$4,$5,0*
20,1,$1+$1,$4,$5,$6,$7,0*
20,1,$1+$1,$6,$7,$8,$9,0*
20,1,$1+$1,$8,$9,$2,$3,0*%
G04 Aperture macros list end*
%TA.AperFunction,ComponentPad*%
%ADD10RoundRect,0.250000X0.625000X-0.350000X0.625000X0.350000X-0.625000X0.350000X-0.625000X-0.350000X0*%
%TD*%
%TA.AperFunction,ComponentPad*%
%ADD11O,1.750000X1.200000*%
%TD*%
%TA.AperFunction,SMDPad,CuDef*%
%ADD12RoundRect,0.135000X0.185000X-0.135000X0.185000X0.135000X-0.185000X0.135000X-0.185000X-0.135000X0*%
%TD*%
%TA.AperFunction,ComponentPad*%
%ADD13R,1.700000X1.700000*%
%TD*%
%TA.AperFunction,ComponentPad*%
%ADD14O,1.700000X1.700000*%
%TD*%
%TA.AperFunction,ViaPad*%
%ADD15C,0.600000*%
%TD*%
%TA.AperFunction,ViaPad*%
%ADD16C,0.800000*%
%TD*%
%TA.AperFunction,Conductor*%
%ADD17C,0.250000*%
%TD*%
G04 APERTURE END LIST*
D10*
%TO.P,J1,1,Pin_1*%
%TO.N,Net-(J1-Pin_1)*%
X133907600Y-99713200D03*
D11*
%TO.P,J1,2,Pin_2*%
%TO.N,Net-(J1-Pin_2)*%
X133907600Y-97713200D03*
%TO.P,J1,3,Pin_3*%
%TO.N,Net-(J1-Pin_3)*%
X133907600Y-95713200D03*
%TO.P,J1,4,Pin_4*%
%TO.N,Net-(J1-Pin_4)*%
X133907600Y-93713200D03*
%TD*%
D12*
%TO.P,R4,1*%
%TO.N,DIO4*%
X116228527Y-99497546D03*
%TO.P,R4,2*%
%TO.N,Motor_1A*%
X116228527Y-98477546D03*
%TD*%
%TO.P,R10,1*%
%TO.N,DIO6*%
X109040327Y-104577546D03*
%TO.P,R10,2*%
%TO.N,Motor_2A*%
X109040327Y-103557546D03*
%TD*%
%TO.P,R25,1*%
%TO.N,DIO7*%
X112596327Y-107066746D03*
%TO.P,R25,2*%
%TO.N,Motor_4A*%
X112596327Y-106046746D03*
%TD*%
%TO.P,R22,1*%
%TO.N,DIO2*%
X110919927Y-94417546D03*
%TO.P,R22,2*%
%TO.N,Motor_3A*%
X110919927Y-93397546D03*
%TD*%
%TO.P,R6,1*%
%TO.N,DIO2*%
X116228527Y-94417546D03*
%TO.P,R6,2*%
%TO.N,Motor_1A*%
X116228527Y-93397546D03*
%TD*%
%TO.P,R1,1*%
%TO.N,DIO7*%
X116228527Y-107066746D03*
%TO.P,R1,2*%
%TO.N,Motor_1A*%
X116228527Y-106046746D03*
%TD*%
%TO.P,R12,1*%
%TO.N,DIO4*%
X109040327Y-99497546D03*
%TO.P,R12,2*%
%TO.N,Motor_2A*%
X109040327Y-98477546D03*
%TD*%
%TO.P,R2,1*%
%TO.N,DIO6*%
X116228527Y-104577546D03*
%TO.P,R2,2*%
%TO.N,Motor_1A*%
X116228527Y-103557546D03*
%TD*%
%TO.P,R34,1*%
%TO.N,DIO6*%
X114577527Y-104577546D03*
%TO.P,R34,2*%
%TO.N,Motor_EN*%
X114577527Y-103557546D03*
%TD*%
%TO.P,R15,1*%
%TO.N,DIO1*%
X109040327Y-91877546D03*
%TO.P,R15,2*%
%TO.N,Motor_2A*%
X109040327Y-90857546D03*
%TD*%
%TO.P,R37,1*%
%TO.N,DIO3*%
X114577527Y-96957546D03*
%TO.P,R37,2*%
%TO.N,Motor_EN*%
X114577527Y-95937546D03*
%TD*%
%TO.P,R21,1*%
%TO.N,DIO3*%
X110919927Y-96957546D03*
%TO.P,R21,2*%
%TO.N,Motor_3A*%
X110919927Y-95937546D03*
%TD*%
%TO.P,R13,1*%
%TO.N,DIO3*%
X109040327Y-96957546D03*
%TO.P,R13,2*%
%TO.N,Motor_2A*%
X109040327Y-95937546D03*
%TD*%
%TO.P,R29,1*%
%TO.N,DIO3*%
X112596327Y-96957546D03*
%TO.P,R29,2*%
%TO.N,Motor_4A*%
X112596327Y-95937546D03*
%TD*%
%TO.P,R33,1*%
%TO.N,DIO7*%
X114577527Y-107066746D03*
%TO.P,R33,2*%
%TO.N,Motor_EN*%
X114577527Y-106046746D03*
%TD*%
%TO.P,R9,1*%
%TO.N,DIO7*%
X109040327Y-107066746D03*
%TO.P,R9,2*%
%TO.N,Motor_2A*%
X109040327Y-106046746D03*
%TD*%
%TO.P,R30,1*%
%TO.N,DIO2*%
X112596327Y-94417546D03*
%TO.P,R30,2*%
%TO.N,Motor_4A*%
X112596327Y-93397546D03*
%TD*%
%TO.P,R17,1*%
%TO.N,DIO7*%
X110919927Y-107066746D03*
%TO.P,R17,2*%
%TO.N,Motor_3A*%
X110919927Y-106046746D03*
%TD*%
%TO.P,R5,1*%
%TO.N,DIO3*%
X116228527Y-96957546D03*
%TO.P,R5,2*%
%TO.N,Motor_1A*%
X116228527Y-95937546D03*
%TD*%
%TO.P,R27,1*%
%TO.N,DIO5*%
X112596327Y-102037546D03*
%TO.P,R27,2*%
%TO.N,Motor_4A*%
X112596327Y-101017546D03*
%TD*%
%TO.P,R18,1*%
%TO.N,DIO6*%
X110919927Y-104577546D03*
%TO.P,R18,2*%
%TO.N,Motor_3A*%
X110919927Y-103557546D03*
%TD*%
%TO.P,R39,1*%
%TO.N,DIO1*%
X114577527Y-91877546D03*
%TO.P,R39,2*%
%TO.N,Motor_EN*%
X114577527Y-90857546D03*
%TD*%
%TO.P,R7,1*%
%TO.N,DIO1*%
X116228527Y-91877546D03*
%TO.P,R7,2*%
%TO.N,Motor_1A*%
X116228527Y-90857546D03*
%TD*%
%TO.P,R35,1*%
%TO.N,DIO5*%
X114577527Y-102037546D03*
%TO.P,R35,2*%
%TO.N,Motor_EN*%
X114577527Y-101017546D03*
%TD*%
D13*
%TO.P,J3,1,Pin_1*%
%TO.N,+12V*%
X190075546Y-89335546D03*
D14*
%TO.P,J3,2,Pin_2*%
%TO.N,unconnected-(J3-Pin_2-Pad2)*%
X187535546Y-89335546D03*
%TO.P,J3,3,Pin_3*%
%TO.N,unconnected-(J3-Pin_3-Pad3)*%
X190075546Y-91875546D03*
%TO.P,J3,4,Pin_4*%
%TO.N,unconnected-(J3-Pin_4-Pad4)*%
X187535546Y-91875546D03*
%TO.P,J3,5,Pin_5*%
%TO.N,unconnected-(J3-Pin_5-Pad5)*%
X190075546Y-94415546D03*
%TO.P,J3,6,Pin_6*%
%TO.N,unconnected-(J3-Pin_6-Pad6)*%
X187535546Y-94415546D03*
%TO.P,J3,7,Pin_7*%
%TO.N,GND*%
X190075546Y-96955546D03*
%TO.P,J3,8,Pin_8*%
X187535546Y-96955546D03*
%TO.P,J3,9,Pin_9*%
%TO.N,unconnected-(J3-Pin_9-Pad9)*%
X190075546Y-99495546D03*
%TO.P,J3,10,Pin_10*%
%TO.N,unconnected-(J3-Pin_10-Pad10)*%
X187535546Y-99495546D03*
%TO.P,J3,11,Pin_11*%
%TO.N,GND*%
X190075546Y-102035546D03*
%TO.P,J3,12,Pin_12*%
X187535546Y-102035546D03*
%TO.P,J3,13,Pin_13*%
%TO.N,unconnected-(J3-Pin_13-Pad13)*%
X190075546Y-104575546D03*
%TO.P,J3,14,Pin_14*%
%TO.N,unconnected-(J3-Pin_14-Pad14)*%
X187535546Y-104575546D03*
%TO.P,J3,15,Pin_15*%
%TO.N,GND*%
X190075546Y-107115546D03*
%TO.P,J3,16,Pin_16*%
X187535546Y-107115546D03*
%TD*%
D12*
%TO.P,R11,1*%
%TO.N,DIO5*%
X109040327Y-102037546D03*
%TO.P,R11,2*%
%TO.N,Motor_2A*%
X109040327Y-101017546D03*
%TD*%
%TO.P,R3,1*%
%TO.N,DIO5*%
X116228527Y-102037546D03*
%TO.P,R3,2*%
%TO.N,Motor_1A*%
X116228527Y-101017546D03*
%TD*%
%TO.P,R40,1*%
%TO.N,DIO0*%
X114577527Y-89337546D03*
%TO.P,R40,2*%
%TO.N,Motor_EN*%
X114577527Y-88317546D03*
%TD*%
%TO.P,R14,1*%
%TO.N,DIO2*%
X109040327Y-94417546D03*
%TO.P,R14,2*%
%TO.N,Motor_2A*%
X109040327Y-93397546D03*
%TD*%
%TO.P,R20,1*%
%TO.N,DIO4*%
X110919927Y-99497546D03*
%TO.P,R20,2*%
%TO.N,Motor_3A*%
X110919927Y-98477546D03*
%TD*%
%TO.P,R23,1*%
%TO.N,DIO1*%
X110919927Y-91877546D03*
%TO.P,R23,2*%
%TO.N,Motor_3A*%
X110919927Y-90857546D03*
%TD*%
%TO.P,R24,1*%
%TO.N,DIO0*%
X110919927Y-89337546D03*
%TO.P,R24,2*%
%TO.N,Motor_3A*%
X110919927Y-88317546D03*
%TD*%
%TO.P,R36,1*%
%TO.N,DIO4*%
X114577527Y-99497546D03*
%TO.P,R36,2*%
%TO.N,Motor_EN*%
X114577527Y-98477546D03*
%TD*%
D13*
%TO.P,J2,1,Pin_1*%
%TO.N,unconnected-(J2-Pin_1-Pad1)*%
X103535546Y-86795546D03*
D14*
%TO.P,J2,2,Pin_2*%
%TO.N,unconnected-(J2-Pin_2-Pad2)*%
X100995546Y-86795546D03*
%TO.P,J2,3,Pin_3*%
%TO.N,unconnected-(J2-Pin_3-Pad3)*%
X103535546Y-89335546D03*
%TO.P,J2,4,Pin_4*%
%TO.N,DIO0*%
X100995546Y-89335546D03*
%TO.P,J2,5,Pin_5*%
%TO.N,unconnected-(J2-Pin_5-Pad5)*%
X103535546Y-91875546D03*
%TO.P,J2,6,Pin_6*%
%TO.N,DIO1*%
X100995546Y-91875546D03*
%TO.P,J2,7,Pin_7*%
%TO.N,unconnected-(J2-Pin_7-Pad7)*%
X103535546Y-94415546D03*
%TO.P,J2,8,Pin_8*%
%TO.N,DIO2*%
X100995546Y-94415546D03*
%TO.P,J2,9,Pin_9*%
%TO.N,unconnected-(J2-Pin_9-Pad9)*%
X103535546Y-96955546D03*
%TO.P,J2,10,Pin_10*%
%TO.N,DIO3*%
X100995546Y-96955546D03*
%TO.P,J2,11,Pin_11*%
%TO.N,unconnected-(J2-Pin_11-Pad11)*%
X103535546Y-99495546D03*
%TO.P,J2,12,Pin_12*%
%TO.N,DIO4*%
X100995546Y-99495546D03*
%TO.P,J2,13,Pin_13*%
%TO.N,unconnected-(J2-Pin_13-Pad13)*%
X103535546Y-102035546D03*
%TO.P,J2,14,Pin_14*%
%TO.N,DIO5*%
X100995546Y-102035546D03*
%TO.P,J2,15,Pin_15*%
%TO.N,unconnected-(J2-Pin_15-Pad15)*%
X103535546Y-104575546D03*
%TO.P,J2,16,Pin_16*%
%TO.N,DIO6*%
X100995546Y-104575546D03*
%TO.P,J2,17,Pin_17*%
%TO.N,unconnected-(J2-Pin_17-Pad17)*%
X103535546Y-107115546D03*
%TO.P,J2,18,Pin_18*%
%TO.N,DIO7*%
X100995546Y-107115546D03*
%TO.P,J2,19,Pin_19*%
%TO.N,GND*%
X103535546Y-109655546D03*
%TO.P,J2,20,Pin_20*%
X100995546Y-109655546D03*
%TD*%
D12*
%TO.P,R28,1*%
%TO.N,DIO4*%
X112596327Y-99497546D03*
%TO.P,R28,2*%
%TO.N,Motor_4A*%
X112596327Y-98477546D03*
%TD*%
%TO.P,R31,1*%
%TO.N,DIO1*%
X112596327Y-91877546D03*
%TO.P,R31,2*%
%TO.N,Motor_4A*%
X112596327Y-90857546D03*
%TD*%
%TO.P,R8,1*%
%TO.N,DIO0*%
X116228527Y-89337546D03*
%TO.P,R8,2*%
%TO.N,Motor_1A*%
X116228527Y-88317546D03*
%TD*%
%TO.P,R16,1*%
%TO.N,DIO0*%
X109040327Y-89337546D03*
%TO.P,R16,2*%
%TO.N,Motor_2A*%
X109040327Y-88317546D03*
%TD*%
%TO.P,R19,1*%
%TO.N,DIO5*%
X110919927Y-102037546D03*
%TO.P,R19,2*%
%TO.N,Motor_3A*%
X110919927Y-101017546D03*
%TD*%
%TO.P,R26,1*%
%TO.N,DIO6*%
X112596327Y-104577546D03*
%TO.P,R26,2*%
%TO.N,Motor_4A*%
X112596327Y-103557546D03*
%TD*%
%TO.P,R32,1*%
%TO.N,DIO0*%
X112596327Y-89337546D03*
%TO.P,R32,2*%
%TO.N,Motor_4A*%
X112596327Y-88317546D03*
%TD*%
%TO.P,R38,1*%
%TO.N,DIO2*%
X114577527Y-94417546D03*
%TO.P,R38,2*%
%TO.N,Motor_EN*%
X114577527Y-93397546D03*
%TD*%
D15*
%TO.N,GND*%
X119862600Y-103454200D03*
X130048000Y-96012000D03*
X131241800Y-90093800D03*
X120548400Y-96012000D03*
X120548400Y-97256600D03*
X130022600Y-97256600D03*
%TO.N,Motor_EN*%
X115417727Y-90836146D03*
X115417727Y-100996146D03*
X115417727Y-95916146D03*
D16*
X128828800Y-101955600D03*
D15*
X115417727Y-98456146D03*
X115417727Y-106021346D03*
X115417727Y-103536146D03*
X115417727Y-88296146D03*
X115417727Y-93376146D03*
%TO.N,Motor_1A*%
X117092127Y-93374146D03*
X117092127Y-90834146D03*
X117092127Y-98454146D03*
X117092127Y-106019346D03*
X117092127Y-95914146D03*
X117092127Y-88294146D03*
X117092127Y-103534146D03*
X117092127Y-100994146D03*
%TO.N,Motor_4A*%
X113510727Y-101019546D03*
X113510727Y-93399546D03*
X113510727Y-103559546D03*
X113510727Y-106044746D03*
X113510727Y-95939546D03*
X113510727Y-90859546D03*
X113510727Y-98479546D03*
X113510727Y-88319546D03*
%TO.N,Motor_3A*%
X111758127Y-88319546D03*
X111758127Y-90859546D03*
X111758127Y-103559546D03*
X111758127Y-98479546D03*
X111758127Y-93399546D03*
X129961800Y-99812000D03*
X111758127Y-101019546D03*
X111758127Y-106044746D03*
X111758127Y-95939546D03*
%TO.N,Motor_2A*%
X109980127Y-106044746D03*
X109980127Y-95939546D03*
X109980127Y-103559546D03*
X109980127Y-88319546D03*
X109980127Y-93399546D03*
X109980127Y-101019546D03*
X109980127Y-90859546D03*
X109980127Y-98479546D03*
%TO.N,+12V*%
X118973600Y-101092000D03*
X128016000Y-90093800D03*
%TD*%
D17*
%TO.N,Motor_EN*%
X128828800Y-101955600D02*
X128828800Y-102819200D01*
X115415727Y-95914146D02*
X115417727Y-95916146D01*
X114147727Y-95916146D02*
X114169127Y-95937546D01*
X115415727Y-100994146D02*
X115417727Y-100996146D01*
X115415727Y-88294146D02*
X115417727Y-88296146D01*
X114598927Y-100996146D02*
X114577527Y-101017546D01*
X114598927Y-98456146D02*
X114577527Y-98477546D01*
X115417727Y-103536146D02*
X114598927Y-103536146D01*
X128854200Y-101955600D02*
X128981200Y-101828600D01*
X114169127Y-95937546D02*
X114577527Y-95937546D01*
X115415727Y-103534146D02*
X115417727Y-103536146D01*
X114452527Y-90836146D02*
X115417727Y-90836146D01*
X115417727Y-93376146D02*
X114598927Y-93376146D01*
X114602927Y-106021346D02*
X114577527Y-106046746D01*
X114577527Y-90857546D02*
X114473927Y-90857546D01*
X114473927Y-90857546D02*
X114452527Y-90836146D01*
X128828800Y-101955600D02*
X128854200Y-101955600D01*
X115417727Y-105883266D02*
X115417727Y-106021346D01*
X115415727Y-93374146D02*
X115417727Y-93376146D01*
X114598927Y-93376146D02*
X114577527Y-93397546D01*
X128828800Y-102819200D02*
X126339600Y-105308400D01*
X115417727Y-106021346D02*
X114602927Y-106021346D01*
X114577527Y-88317546D02*
X115396327Y-88317546D01*
X114598927Y-103536146D02*
X114577527Y-103557546D01*
X115415727Y-90834146D02*
X115417727Y-90836146D01*
X126339600Y-105308400D02*
X115992593Y-105308400D01*
X115417727Y-98456146D02*
X114598927Y-98456146D01*
X115417727Y-95916146D02*
X114147727Y-95916146D01*
X115417727Y-100996146D02*
X114598927Y-100996146D01*
X115415727Y-98454146D02*
X115417727Y-98456146D01*
X115992593Y-105308400D02*
X115417727Y-105883266D01*
X115396327Y-88317546D02*
X115417727Y-88296146D01*
%TO.N,Motor_1A*%
X117090127Y-98452146D02*
X117092127Y-98454146D01*
X117092127Y-98454146D02*
X116251927Y-98454146D01*
X117092127Y-103534146D02*
X116251927Y-103534146D01*
X116255927Y-106019346D02*
X116228527Y-106046746D01*
X117092127Y-100994146D02*
X116251927Y-100994146D01*
X117090127Y-95912146D02*
X117092127Y-95914146D01*
X116888927Y-100994146D02*
X116873527Y-101009546D01*
X116251927Y-100994146D02*
X116228527Y-101017546D01*
X117092127Y-95914146D02*
X116251927Y-95914146D01*
X117092127Y-93374146D02*
X116251927Y-93374146D01*
X116251927Y-93374146D02*
X116228527Y-93397546D01*
X117068727Y-88317546D02*
X117092127Y-88294146D01*
X117090127Y-100992146D02*
X117092127Y-100994146D01*
X117090127Y-93372146D02*
X117092127Y-93374146D01*
X116228527Y-88317546D02*
X117068727Y-88317546D01*
X117090127Y-103532146D02*
X117092127Y-103534146D01*
X117090127Y-88292146D02*
X117092127Y-88294146D01*
X116228527Y-90857546D02*
X117068727Y-90857546D01*
X117090127Y-90832146D02*
X117092127Y-90834146D01*
X117092127Y-100994146D02*
X116888927Y-100994146D01*
X117092127Y-106019346D02*
X116255927Y-106019346D01*
X117068727Y-90857546D02*
X117092127Y-90834146D01*
X116251927Y-95914146D02*
X116228527Y-95937546D01*
X116251927Y-103534146D02*
X116228527Y-103557546D01*
X116873527Y-101009546D02*
X116873527Y-101146546D01*
X116251927Y-98454146D02*
X116228527Y-98477546D01*
%TO.N,DIO0*%
X102218492Y-88112600D02*
X100995546Y-89335546D01*
X109040327Y-89337546D02*
X108985873Y-89337546D01*
X108985873Y-89337546D02*
X107760927Y-88112600D01*
X107760927Y-88112600D02*
X102218492Y-88112600D01*
X109040327Y-89337546D02*
X116228527Y-89337546D01*
X109038581Y-89339292D02*
X109040327Y-89337546D01*
%TO.N,DIO1*%
X109040327Y-91877546D02*
X116228527Y-91877546D01*
X108969746Y-91875546D02*
X107696000Y-90601800D01*
X102269292Y-90601800D02*
X100995546Y-91875546D01*
X107696000Y-90601800D02*
X102269292Y-90601800D01*
X109038581Y-91879292D02*
X109040327Y-91877546D01*
%TO.N,DIO2*%
X109040327Y-94417546D02*
X116228527Y-94417546D01*
X109038581Y-94419292D02*
X109040327Y-94417546D01*
X107696000Y-93141800D02*
X102269292Y-93141800D01*
X108971746Y-94417546D02*
X107696000Y-93141800D01*
X102269292Y-93141800D02*
X100995546Y-94415546D01*
X109040327Y-94417546D02*
X108971746Y-94417546D01*
%TO.N,DIO3*%
X107863327Y-95780546D02*
X102170546Y-95780546D01*
X109040327Y-96957546D02*
X107863327Y-95780546D01*
X109040327Y-96957546D02*
X116228527Y-96957546D01*
X102170546Y-95780546D02*
X100995546Y-96955546D01*
X109038581Y-96959292D02*
X109040327Y-96957546D01*
X109040327Y-96957546D02*
X109042327Y-96955546D01*
%TO.N,DIO4*%
X109040327Y-99497546D02*
X116228527Y-99497546D01*
X109038581Y-99499292D02*
X109040327Y-99497546D01*
X109040327Y-99497546D02*
X109042327Y-99495546D01*
X109040327Y-99497546D02*
X107789981Y-98247200D01*
X102243892Y-98247200D02*
X100995546Y-99495546D01*
X107789981Y-98247200D02*
X102243892Y-98247200D01*
%TO.N,DIO5*%
X109038581Y-102039292D02*
X109040327Y-102037546D01*
X102170546Y-100860546D02*
X100995546Y-102035546D01*
X109040327Y-102037546D02*
X116228527Y-102037546D01*
X107863327Y-100860546D02*
X102170546Y-100860546D01*
X109042327Y-102035546D02*
X111986854Y-102035546D01*
X109040327Y-102037546D02*
X107863327Y-100860546D01*
X109040327Y-102037546D02*
X109042327Y-102035546D01*
%TO.N,DIO6*%
X109040327Y-104577546D02*
X108918946Y-104577546D01*
X107643200Y-103301800D02*
X102269292Y-103301800D01*
X108918946Y-104577546D02*
X107643200Y-103301800D01*
X102269292Y-103301800D02*
X100995546Y-104575546D01*
X109040327Y-104577546D02*
X116228527Y-104577546D01*
%TO.N,DIO7*%
X108946346Y-107066746D02*
X109040327Y-107066746D01*
X102269292Y-105841800D02*
X107721400Y-105841800D01*
X115972781Y-107093892D02*
X116025327Y-107041346D01*
X107721400Y-105841800D02*
X108946346Y-107066746D01*
X116175981Y-107119292D02*
X116228527Y-107066746D01*
X116179727Y-107115546D02*
X116228527Y-107066746D01*
X100995546Y-107115546D02*
X102269292Y-105841800D01*
X109016800Y-107111800D02*
X109063854Y-107064746D01*
%TO.N,Motor_4A*%
X113508727Y-90857546D02*
X113510727Y-90859546D01*
X113510727Y-90859546D02*
X112598327Y-90859546D01*
X113508727Y-103557546D02*
X113510727Y-103559546D01*
X112598327Y-95939546D02*
X112596327Y-95937546D01*
X113508727Y-93397546D02*
X113510727Y-93399546D01*
X113510727Y-103559546D02*
X112598327Y-103559546D01*
X113510727Y-98479546D02*
X112598327Y-98479546D01*
X113508727Y-98477546D02*
X113510727Y-98479546D01*
X113508727Y-88317546D02*
X113510727Y-88319546D01*
X113510727Y-95939546D02*
X112598327Y-95939546D01*
X113510727Y-106044746D02*
X112598327Y-106044746D01*
X113508727Y-95937546D02*
X113510727Y-95939546D01*
X113508727Y-101017546D02*
X113510727Y-101019546D01*
X112598327Y-106044746D02*
X112596327Y-106046746D01*
X112598327Y-90859546D02*
X112596327Y-90857546D01*
X112598327Y-98479546D02*
X112596327Y-98477546D01*
X112598327Y-93399546D02*
X112596327Y-93397546D01*
X113510727Y-101019546D02*
X112598327Y-101019546D01*
X112596327Y-88317546D02*
X113508727Y-88317546D01*
X113510727Y-93399546D02*
X112598327Y-93399546D01*
X112598327Y-101019546D02*
X112596327Y-101017546D01*
%TO.N,Motor_3A*%
X110921927Y-93399546D02*
X110919927Y-93397546D01*
X111758127Y-107643327D02*
X111758127Y-106044746D01*
X111756127Y-95937546D02*
X111758127Y-95939546D01*
X110921927Y-103559546D02*
X110919927Y-103557546D01*
X110919927Y-88317546D02*
X111756127Y-88317546D01*
X111758127Y-103559546D02*
X110921927Y-103559546D01*
X130759200Y-102616000D02*
X125425200Y-107950000D01*
X129961800Y-99812000D02*
X130759200Y-100609400D01*
X111758127Y-95939546D02*
X110921927Y-95939546D01*
X112064800Y-107950000D02*
X111758127Y-107643327D01*
X111756127Y-88317546D02*
X111758127Y-88319546D01*
X111756127Y-101017546D02*
X111758127Y-101019546D01*
X111758127Y-106044746D02*
X110921927Y-106044746D01*
X110921927Y-90859546D02*
X110919927Y-90857546D01*
X111756127Y-103557546D02*
X111758127Y-103559546D01*
X130759200Y-100609400D02*
X130759200Y-102616000D01*
X111756127Y-98477546D02*
X111758127Y-98479546D01*
X111756127Y-90857546D02*
X111758127Y-90859546D01*
X110921927Y-106044746D02*
X110919927Y-106046746D01*
X111758127Y-93399546D02*
X110921927Y-93399546D01*
X110921927Y-98479546D02*
X110919927Y-98477546D01*
X111758127Y-98479546D02*
X110921927Y-98479546D01*
X111756127Y-93397546D02*
X111758127Y-93399546D01*
X111758127Y-105910666D02*
X111758127Y-106044746D01*
X110921927Y-95939546D02*
X110919927Y-95937546D01*
X125425200Y-107950000D02*
X112064800Y-107950000D01*
X110921927Y-101019546D02*
X110919927Y-101017546D01*
X111758127Y-101019546D02*
X110921927Y-101019546D01*
X111758127Y-90859546D02*
X110921927Y-90859546D01*
%TO.N,Motor_2A*%
X109978127Y-95937546D02*
X109980127Y-95939546D01*
X109040327Y-93397546D02*
X109978127Y-93397546D01*
X109040327Y-90857546D02*
X109978127Y-90857546D01*
X109978127Y-90857546D02*
X109980127Y-90859546D01*
X109903927Y-106044746D02*
X109040327Y-106044746D01*
X109978127Y-93397546D02*
X109980127Y-93399546D01*
X109040327Y-103557546D02*
X109978127Y-103557546D01*
X109978127Y-101017546D02*
X109980127Y-101019546D01*
X109040327Y-95937546D02*
X109978127Y-95937546D01*
X109978127Y-88317546D02*
X109980127Y-88319546D01*
X109978127Y-103557546D02*
X109980127Y-103559546D01*
X109040327Y-98477546D02*
X109978127Y-98477546D01*
X109040327Y-101017546D02*
X109978127Y-101017546D01*
X109978127Y-98477546D02*
X109980127Y-98479546D01*
X109040327Y-88317546D02*
X109978127Y-88317546D01*
%TO.N,+12V*%
X123494800Y-90093800D02*
X118973600Y-94615000D01*
X118973600Y-94615000D02*
X118973600Y-101092000D01*
X128016000Y-90093800D02*
X123494800Y-90093800D01*
%TD*%
%TA.AperFunction,Conductor*%
%TO.N,GND*%
G36*
X103069621Y-109462553D02*
G01*
X103035546Y-109589720D01*
X103035546Y-109721372D01*
X103069621Y-109848539D01*
X103102534Y-109905546D01*
X101428558Y-109905546D01*
X101461471Y-109848539D01*
X101495546Y-109721372D01*
X101495546Y-109589720D01*
X101461471Y-109462553D01*
X101428558Y-109405546D01*
X103102534Y-109405546D01*
X103069621Y-109462553D01*
G37*
%TD.AperFunction*%
%TA.AperFunction,Conductor*%
G36*
X189609621Y-106922553D02*
G01*
X189575546Y-107049720D01*
X189575546Y-107181372D01*
X189609621Y-107308539D01*
X189642534Y-107365546D01*
X187968558Y-107365546D01*
X188001471Y-107308539D01*
X188035546Y-107181372D01*
X188035546Y-107049720D01*
X188001471Y-106922553D01*
X187968558Y-106865546D01*
X189642534Y-106865546D01*
X189609621Y-106922553D01*
G37*
%TD.AperFunction*%
%TA.AperFunction,Conductor*%
G36*
X189609621Y-101842553D02*
G01*
X189575546Y-101969720D01*
X189575546Y-102101372D01*
X189609621Y-102228539D01*
X189642534Y-102285546D01*
X187968558Y-102285546D01*
X188001471Y-102228539D01*
X188035546Y-102101372D01*
X188035546Y-101969720D01*
X188001471Y-101842553D01*
X187968558Y-101785546D01*
X189642534Y-101785546D01*
X189609621Y-101842553D01*
G37*
%TD.AperFunction*%
%TA.AperFunction,Conductor*%
G36*
X189609621Y-96762553D02*
G01*
X189575546Y-96889720D01*
X189575546Y-97021372D01*
X189609621Y-97148539D01*
X189642534Y-97205546D01*
X187968558Y-97205546D01*
X188001471Y-97148539D01*
X188035546Y-97021372D01*
X188035546Y-96889720D01*
X188001471Y-96762553D01*
X187968558Y-96705546D01*
X189642534Y-96705546D01*
X189609621Y-96762553D01*
G37*
%TD.AperFunction*%
%TA.AperFunction,Conductor*%
G36*
X187536106Y-68225551D02*
G01*
X187817310Y-68228061D01*
X187825025Y-68228371D01*
X188386574Y-68268537D01*
X188395332Y-68269478D01*
X188952042Y-68349525D01*
X188960742Y-68351095D01*
X189510306Y-68470648D01*
X189518841Y-68472826D01*
X190058490Y-68631285D01*
X190066867Y-68634073D01*
X190593832Y-68830624D01*
X190601994Y-68834006D01*
X191113570Y-69067638D01*
X191121476Y-69071595D01*
X191615068Y-69341121D01*
X191615096Y-69341136D01*
X191622708Y-69345653D01*
X192095817Y-69649706D01*
X192103088Y-69654754D01*
X192553313Y-69991792D01*
X192560205Y-69997346D01*
X192985235Y-70365640D01*
X192991714Y-70371672D01*
X193389397Y-70769360D01*
X193395415Y-70775824D01*
X193763695Y-71200847D01*
X193763710Y-71200864D01*
X193769263Y-71207756D01*
X194106290Y-71657975D01*
X194111339Y-71665246D01*
X194415382Y-72138353D01*
X194415396Y-72138374D01*
X194419913Y-72145987D01*
X194689439Y-72639594D01*
X194693401Y-72647509D01*
X194927030Y-73159093D01*
X194930417Y-73167271D01*
X195126952Y-73694211D01*
X195129747Y-73702610D01*
X195288187Y-74242222D01*
X195290376Y-74250798D01*
X195409920Y-74800343D01*
X195411492Y-74809055D01*
X195491527Y-75365735D01*
X195492473Y-75374536D01*
X195532631Y-75936066D01*
X195532942Y-75943765D01*
X195535541Y-76225004D01*
X195535546Y-76226150D01*
X195535546Y-120225039D01*
X195535541Y-120226120D01*
X195533090Y-120507287D01*
X195532779Y-120515052D01*
X195492619Y-121076565D01*
X195491673Y-121085366D01*
X195411633Y-121642056D01*
X195410061Y-121650767D01*
X195290515Y-122200314D01*
X195288326Y-122208891D01*
X195129878Y-122748516D01*
X195127083Y-122756914D01*
X194930539Y-123283870D01*
X194927151Y-123292048D01*
X194693525Y-123803618D01*
X194689563Y-123811534D01*
X194420023Y-124305158D01*
X194415507Y-124312770D01*
X194111447Y-124785897D01*
X194106405Y-124793158D01*
X193769369Y-125243385D01*
X193763815Y-125250278D01*
X193395507Y-125675328D01*
X193389475Y-125681806D01*
X192991806Y-126079475D01*
X192985328Y-126085507D01*
X192560278Y-126453815D01*
X192553385Y-126459369D01*
X192103158Y-126796405D01*
X192095897Y-126801447D01*
X191769385Y-127011283D01*
X191622770Y-127105507D01*
X191615158Y-127110023D01*
X191121534Y-127379563D01*
X191113618Y-127383525D01*
X190602048Y-127617151D01*
X190593870Y-127620539D01*
X190066914Y-127817083D01*
X190058516Y-127819878D01*
X189518891Y-127978326D01*
X189510314Y-127980515D01*
X188960767Y-128100061D01*
X188952056Y-128101633D01*
X188395366Y-128181673D01*
X188386565Y-128182619D01*
X187825052Y-128222779D01*
X187817287Y-128223090D01*
X187539358Y-128225512D01*
X187536118Y-128225541D01*
X187535040Y-128225546D01*
X103536093Y-128225546D01*
X103534986Y-128225541D01*
X103253790Y-128223031D01*
X103246051Y-128222720D01*
X102684533Y-128182560D01*
X102675732Y-128181614D01*
X102119046Y-128101574D01*
X102110335Y-128100002D01*
X101560793Y-127980456D01*
X101552216Y-127978267D01*
X101012600Y-127819821D01*
X101004201Y-127817026D01*
X100477241Y-127620480D01*
X100469064Y-127617092D01*
X99957503Y-127383470D01*
X99949587Y-127379508D01*
X99455967Y-127109970D01*
X99448355Y-127105453D01*
X98975249Y-126801406D01*
X98967978Y-126796358D01*
X98517742Y-126459316D01*
X98510849Y-126453762D01*
X98085808Y-126085461D01*
X98079330Y-126079429D01*
X97681664Y-125681763D01*
X97675632Y-125675285D01*
X97307327Y-125250238D01*
X97301773Y-125243345D01*
X96964741Y-124793122D01*
X96959712Y-124785880D01*
X96655631Y-124312721D01*
X96651125Y-124305125D01*
X96596844Y-124205717D01*
X96381579Y-123811489D01*
X96377634Y-123803606D01*
X96143998Y-123292014D01*
X96140622Y-123283864D01*
X95944067Y-122756883D01*
X95941275Y-122748491D01*
X95861501Y-122476806D01*
X95782829Y-122208874D01*
X95780641Y-122200298D01*
X95679749Y-121736501D01*
X95661094Y-121650746D01*
X95659524Y-121642045D01*
X95656577Y-121621545D01*
X95579481Y-121085338D01*
X95578539Y-121076565D01*
X95538377Y-120515029D01*
X95538067Y-120507302D01*
X95535551Y-120226103D01*
X95535548Y-120225544D01*
X101283028Y-120225544D01*
X101283028Y-120225546D01*
X101303125Y-120525773D01*
X101303127Y-120525783D01*
X101363062Y-120820653D01*
X101461766Y-121104906D01*
X101461768Y-121104909D01*
X101597472Y-121373461D01*
X101597475Y-121373466D01*
X101597476Y-121373467D01*
X101767771Y-121621544D01*
X101969613Y-121844709D01*
X102199398Y-122038981D01*
X102453027Y-122200891D01*
X102453028Y-122200891D01*
X102453029Y-122200892D01*
X102474944Y-122211061D01*
X102725974Y-122327552D01*
X103013367Y-122416702D01*
X103310079Y-122466751D01*
X103610814Y-122476806D01*
X103910206Y-122446687D01*
X104202912Y-122376932D01*
X104483709Y-122268785D01*
X104747586Y-122124176D01*
X104989834Y-121945686D01*
X105206131Y-121736501D01*
X105392615Y-121500352D01*
X105545961Y-121241454D01*
X105663430Y-120964428D01*
X105742927Y-120674216D01*
X105783034Y-120375998D01*
X105785546Y-120225546D01*
X105785546Y-120225544D01*
X185283028Y-120225544D01*
X185283028Y-120225546D01*
X185303125Y-120525773D01*
X185303127Y-120525783D01*
X185363062Y-120820653D01*
X185461766Y-121104906D01*
X185461768Y-121104909D01*
X185597472Y-121373461D01*
X185597475Y-121373466D01*
X185597476Y-121373467D01*
X185767771Y-121621544D01*
X185969613Y-121844709D01*
X186199398Y-122038981D01*
X186453027Y-122200891D01*
X186453028Y-122200891D01*
X186453029Y-122200892D01*
X186474944Y-122211061D01*
X186725974Y-122327552D01*
X187013367Y-122416702D01*
X187310079Y-122466751D01*
X187610814Y-122476806D01*
X187910206Y-122446687D01*
X188202912Y-122376932D01*
X188483709Y-122268785D01*
X188747586Y-122124176D01*
X188989834Y-121945686D01*
X189206131Y-121736501D01*
X189392615Y-121500352D01*
X189545961Y-121241454D01*
X189663430Y-120964428D01*
X189742927Y-120674216D01*
X189783034Y-120375998D01*
X189785546Y-120225546D01*
X189783034Y-120075094D01*
X189742927Y-119776876D01*
X189663430Y-119486664D01*
X189545961Y-119209638D01*
X189467772Y-119077630D01*
X189392615Y-118950739D01*
X189206130Y-118714590D01*
X188989841Y-118505413D01*
X188989834Y-118505406D01*
X188747586Y-118326916D01*
X188483717Y-118182311D01*
X188483712Y-118182308D01*
X188483709Y-118182307D01*
X188483705Y-118182305D01*
X188483702Y-118182304D01*
X188202916Y-118074161D01*
X188202912Y-118074160D01*
X187910206Y-118004405D01*
X187910203Y-118004404D01*
X187610818Y-117974286D01*
X187610814Y-117974286D01*
X187310079Y-117984341D01*
X187013366Y-118034390D01*
X186885160Y-118074160D01*
X186725974Y-118123540D01*
X186725967Y-118123543D01*
X186725965Y-118123544D01*
X186453029Y-118250199D01*
X186453027Y-118250201D01*
X186199401Y-118412108D01*
X185969614Y-118606381D01*
X185767773Y-118829545D01*
X185767772Y-118829546D01*
X185597472Y-119077630D01*
X185461768Y-119346182D01*
X185461766Y-119346185D01*
X185363062Y-119630438D01*
X185303127Y-119925308D01*
X185303125Y-119925318D01*
X185283028Y-120225544D01*
X105785546Y-120225544D01*
X105783034Y-120075094D01*
X105742927Y-119776876D01*
X105663430Y-119486664D01*
X105545961Y-119209638D01*
X105467772Y-119077630D01*
X105392615Y-118950739D01*
X105206130Y-118714590D01*
X104989841Y-118505413D01*
X104989834Y-118505406D01*
X104747586Y-118326916D01*
X104483717Y-118182311D01*
X104483712Y-118182308D01*
X104483709Y-118182307D01*
X104483705Y-118182305D01*
X104483702Y-118182304D01*
X104202916Y-118074161D01*
X104202912Y-118074160D01*
X103910206Y-118004405D01*
X103910203Y-118004404D01*
X103610818Y-117974286D01*
X103610814Y-117974286D01*
X103310079Y-117984341D01*
X103013366Y-118034390D01*
X102885160Y-118074160D01*
X102725974Y-118123540D01*
X102725967Y-118123543D01*
X102725965Y-118123544D01*
X102453029Y-118250199D01*
X102453027Y-118250201D01*
X102199401Y-118412108D01*
X101969614Y-118606381D01*
X101767773Y-118829545D01*
X101767772Y-118829546D01*
X101597472Y-119077630D01*
X101461768Y-119346182D01*
X101461766Y-119346185D01*
X101363062Y-119630438D01*
X101303127Y-119925308D01*
X101303125Y-119925318D01*
X101283028Y-120225544D01*
X95535548Y-120225544D01*
X95535546Y-120224994D01*
X95535546Y-86795545D01*
X99639887Y-86795545D01*
X99639887Y-86795546D01*
X99660482Y-87030949D01*
X99660484Y-87030959D01*
X99721640Y-87259201D01*
X99721642Y-87259205D01*
X99721643Y-87259209D01*
X99794108Y-87414611D01*
X99821511Y-87473376D01*
X99821513Y-87473380D01*
X99957047Y-87666941D01*
X99957052Y-87666948D01*
X100124143Y-87834039D01*
X100124149Y-87834044D01*
X100309704Y-87963971D01*
X100353329Y-88018548D01*
X100360523Y-88088046D01*
X100329000Y-88150401D01*
X100309704Y-88167121D01*
X100124143Y-88297051D01*
X99957051Y-88464143D01*
X99821511Y-88657715D01*
X99821510Y-88657717D01*
X99721644Y-88871881D01*
X99721640Y-88871890D01*
X99660484Y-89100132D01*
X99660482Y-89100142D01*
X99639887Y-89335545D01*
X99639887Y-89335546D01*
X99660482Y-89570949D01*
X99660484Y-89570959D01*
X99721640Y-89799201D01*
X99721642Y-89799205D01*
X99721643Y-89799209D01*
X99770420Y-89903811D01*
X99821511Y-90013376D01*
X99821513Y-90013380D01*
X99957047Y-90206941D01*
X99957052Y-90206948D01*
X100124143Y-90374039D01*
X100124149Y-90374044D01*
X100309704Y-90503971D01*
X100353329Y-90558548D01*
X100360523Y-90628046D01*
X100329000Y-90690401D01*
X100309704Y-90707121D01*
X100124143Y-90837051D01*
X99957051Y-91004143D01*
X99821511Y-91197715D01*
X99821510Y-91197717D01*
X99721644Y-91411881D01*
X99721640Y-91411890D01*
X99660484Y-91640132D01*
X99660482Y-91640142D01*
X99639887Y-91875545D01*
X99639887Y-91875546D01*
X99660482Y-92110949D01*
X99660484Y-92110959D01*
X99721640Y-92339201D01*
X99721642Y-92339205D01*
X99721643Y-92339209D01*
X99770420Y-92443811D01*
X99821511Y-92553376D01*
X99821513Y-92553380D01*
X99929827Y-92708067D01*
X99957047Y-92746942D01*
X99957052Y-92746948D01*
X100124143Y-92914039D01*
X100124149Y-92914044D01*
X100309704Y-93043971D01*
X100353329Y-93098548D01*
X100360523Y-93168046D01*
X100329000Y-93230401D01*
X100309704Y-93247121D01*
X100124143Y-93377051D01*
X99957051Y-93544143D01*
X99821511Y-93737715D01*
X99821510Y-93737717D01*
X99721644Y-93951881D01*
X99721640Y-93951890D01*
X99660484Y-94180132D01*
X99660482Y-94180142D01*
X99639887Y-94415545D01*
X99639887Y-94415546D01*
X99660482Y-94650949D01*
X99660484Y-94650959D01*
X99721640Y-94879201D01*
X99721642Y-94879205D01*
X99721643Y-94879209D01*
X99768009Y-94978641D01*
X99821511Y-95093376D01*
X99821513Y-95093380D01*
X99929827Y-95248067D01*
X99957047Y-95286942D01*
X99957052Y-95286948D01*
X100124143Y-95454039D01*
X100124149Y-95454044D01*
X100309704Y-95583971D01*
X100353329Y-95638548D01*
X100360523Y-95708046D01*
X100329000Y-95770401D01*
X100309704Y-95787121D01*
X100124143Y-95917051D01*
X99957051Y-96084143D01*
X99821511Y-96277715D01*
X99821510Y-96277717D01*
X99721644Y-96491881D01*
X99721640Y-96491890D01*
X99660484Y-96720132D01*
X99660482Y-96720142D01*
X99639887Y-96955545D01*
X99639887Y-96955546D01*
X99660482Y-97190949D01*
X99660484Y-97190959D01*
X99721640Y-97419201D01*
X99721642Y-97419205D01*
X99721643Y-97419209D01*
X99821511Y-97633375D01*
X99821513Y-97633380D01*
X99929827Y-97788067D01*
X99938049Y-97799810D01*
X99957047Y-97826941D01*
X99957052Y-97826948D01*
X100124143Y-97994039D01*
X100124149Y-97994044D01*
X100309704Y-98123971D01*
X100353329Y-98178548D01*
X100360523Y-98248046D01*
X100329000Y-98310401D01*
X100309704Y-98327121D01*
X100124143Y-98457051D01*
X99957051Y-98624143D01*
X99821511Y-98817715D01*
X99821510Y-98817717D01*
X99721644Y-99031881D01*
X99721640Y-99031890D01*
X99660484Y-99260132D01*
X99660482Y-99260142D01*
X99639887Y-99495545D01*
X99639887Y-99495546D01*
X99660482Y-99730949D01*
X99660484Y-99730959D01*
X99721640Y-99959201D01*
X99721642Y-99959205D01*
X99721643Y-99959209D01*
X99768009Y-100058641D01*
X99821511Y-100173376D01*
X99821513Y-100173380D01*
X99929827Y-100328067D01*
X99957047Y-100366942D01*
X99957052Y-100366948D01*
X100124143Y-100534039D01*
X100124149Y-100534044D01*
X100309704Y-100663971D01*
X100353329Y-100718548D01*
X100360523Y-100788046D01*
X100329000Y-100850401D01*
X100309704Y-100867121D01*
X100124143Y-100997051D01*
X99957051Y-101164143D01*
X99821511Y-101357715D01*
X99821510Y-101357717D01*
X99721644Y-101571881D01*
X99721640Y-101571890D01*
X99660484Y-101800132D01*
X99660482Y-101800142D01*
X99639887Y-102035545D01*
X99639887Y-102035546D01*
X99660482Y-102270949D01*
X99660484Y-102270959D01*
X99721640Y-102499201D01*
X99721642Y-102499205D01*
X99721643Y-102499209D01*
X99801143Y-102669697D01*
X99821511Y-102713376D01*
X99821513Y-102713380D01*
X99957047Y-102906941D01*
X99957052Y-102906948D01*
X100124143Y-103074039D01*
X100124149Y-103074044D01*
X100309704Y-103203971D01*
X100353329Y-103258548D01*
X100360523Y-103328046D01*
X100329000Y-103390401D01*
X100309704Y-103407121D01*
X100124143Y-103537051D01*
X99957051Y-103704143D01*
X99821511Y-103897715D01*
X99821510Y-103897717D01*
X99721644Y-104111881D01*
X99721640Y-104111890D01*
X99660484Y-104340132D01*
X99660482Y-104340142D01*
X99639887Y-104575545D01*
X99639887Y-104575546D01*
X99660482Y-104810949D01*
X99660484Y-104810959D01*
X99721640Y-105039201D01*
X99721642Y-105039205D01*
X99721643Y-105039209D01*
X99770420Y-105143811D01*
X99821511Y-105253376D01*
X99821513Y-105253380D01*
X99901393Y-105367459D01*
X99957047Y-105446942D01*
X99957052Y-105446948D01*
X100124143Y-105614039D01*
X100124149Y-105614044D01*
X100309704Y-105743971D01*
X100353329Y-105798548D01*
X100360523Y-105868046D01*
X100329000Y-105930401D01*
X100309704Y-105947121D01*
X100124143Y-106077051D01*
X99957051Y-106244143D01*
X99821511Y-106437715D01*
X99821510Y-106437717D01*
X99721644Y-106651881D01*
X99721640Y-106651890D01*
X99660484Y-106880132D01*
X99660482Y-106880142D01*
X99639887Y-107115545D01*
X99639887Y-107115546D01*
X99660482Y-107350949D01*
X99660484Y-107350959D01*
X99721640Y-107579201D01*
X99721642Y-107579205D01*
X99721643Y-107579209D01*
X99801143Y-107749697D01*
X99821511Y-107793376D01*
X99821513Y-107793380D01*
X99923907Y-107939613D01*
X99957051Y-107986947D01*
X100124143Y-108154039D01*
X100124149Y-108154044D01*
X100310140Y-108284276D01*
X100353765Y-108338853D01*
X100360959Y-108408351D01*
X100329436Y-108470706D01*
X100310141Y-108487426D01*
X100124468Y-108617436D01*
X100124466Y-108617437D01*
X99957437Y-108784466D01*
X99957432Y-108784472D01*
X99821946Y-108977966D01*
X99821945Y-108977968D01*
X99722116Y-109192053D01*
X99722113Y-109192059D01*
X99664910Y-109405545D01*
X99664910Y-109405546D01*
X100562534Y-109405546D01*
X100529621Y-109462553D01*
X100495546Y-109589720D01*
X100495546Y-109721372D01*
X100529621Y-109848539D01*
X100562534Y-109905546D01*
X99664910Y-109905546D01*
X99722113Y-110119032D01*
X99722116Y-110119038D01*
X99821945Y-110333124D01*
X99957440Y-110526628D01*
X100124463Y-110693651D01*
X100317967Y-110829146D01*
X100532053Y-110928975D01*
X100532062Y-110928979D01*
X100745546Y-110986180D01*
X100745546Y-110088558D01*
X100802553Y-110121471D01*
X100929720Y-110155546D01*
X101061372Y-110155546D01*
X101188539Y-110121471D01*
X101245546Y-110088558D01*
X101245546Y-110986179D01*
X101459029Y-110928979D01*
X101459038Y-110928975D01*
X101673124Y-110829146D01*
X101866628Y-110693651D01*
X102033651Y-110526628D01*
X102163971Y-110340514D01*
X102218548Y-110296890D01*
X102288047Y-110289697D01*
X102350401Y-110321219D01*
X102367121Y-110340514D01*
X102497440Y-110526628D01*
X102664463Y-110693651D01*
X102857967Y-110829146D01*
X103072053Y-110928975D01*
X103072062Y-110928979D01*
X103285546Y-110986180D01*
X103285546Y-110088558D01*
X103342553Y-110121471D01*
X103469720Y-110155546D01*
X103601372Y-110155546D01*
X103728539Y-110121471D01*
X103785546Y-110088558D01*
X103785546Y-110986179D01*
X103999029Y-110928979D01*
X103999038Y-110928975D01*
X104213124Y-110829146D01*
X104406628Y-110693651D01*
X104573651Y-110526628D01*
X104709146Y-110333124D01*
X104808975Y-110119038D01*
X104808978Y-110119032D01*
X104866182Y-109905546D01*
X103968558Y-109905546D01*
X104001471Y-109848539D01*
X104035546Y-109721372D01*
X104035546Y-109589720D01*
X104001471Y-109462553D01*
X103968558Y-109405546D01*
X104866182Y-109405546D01*
X104866181Y-109405545D01*
X104808978Y-109192059D01*
X104808975Y-109192053D01*
X104709146Y-108977968D01*
X104709145Y-108977966D01*
X104573659Y-108784472D01*
X104573654Y-108784466D01*
X104406624Y-108617436D01*
X104220951Y-108487425D01*
X104177326Y-108432848D01*
X104170134Y-108363350D01*
X104201656Y-108300995D01*
X104220952Y-108284276D01*
X104406947Y-108154041D01*
X104574041Y-107986947D01*
X104709581Y-107793376D01*
X104809449Y-107579209D01*
X104870609Y-107350954D01*
X104891205Y-107115546D01*
X104870609Y-106880138D01*
X104809449Y-106651883D01*
X104805635Y-106643705D01*
X104795143Y-106574630D01*
X104823661Y-106510845D01*
X104882137Y-106472605D01*
X104918017Y-106467300D01*
X107410948Y-106467300D01*
X107477987Y-106486985D01*
X107498629Y-106503619D01*
X108183968Y-107188958D01*
X108217453Y-107250281D01*
X108219905Y-107266912D01*
X108222662Y-107301951D01*
X108267456Y-107456134D01*
X108267458Y-107456139D01*
X108349190Y-107594341D01*
X108349196Y-107594349D01*
X108462723Y-107707876D01*
X108462727Y-107707879D01*
X108462729Y-107707881D01*
X108600934Y-107789615D01*
X108638449Y-107800514D01*
X108755118Y-107834410D01*
X108755121Y-107834410D01*
X108755123Y-107834411D01*
X108791146Y-107837246D01*
X109289507Y-107837245D01*
X109325531Y-107834411D01*
X109479720Y-107789615D01*
X109617925Y-107707881D01*
X109731462Y-107594344D01*
X109813196Y-107456139D01*
X109857992Y-107301950D01*
X109857992Y-107301948D01*
X109858145Y-107301115D01*
X109858357Y-107300691D01*
X109859760Y-107295866D01*
X109860655Y-107296126D01*
X109889553Y-107238702D01*
X109949718Y-107203178D01*
X110019538Y-107205822D01*
X110076845Y-107245792D01*
X110099804Y-107296065D01*
X110100494Y-107295865D01*
X110101859Y-107300563D01*
X110102109Y-107301111D01*
X110102262Y-107301953D01*
X110147056Y-107456134D01*
X110147058Y-107456139D01*
X110228790Y-107594341D01*
X110228796Y-107594349D01*
X110342323Y-107707876D01*
X110342327Y-107707879D01*
X110342329Y-107707881D01*
X110480534Y-107789615D01*
X110518049Y-107800514D01*
X110634718Y-107834410D01*
X110634721Y-107834410D01*
X110634723Y-107834411D01*
X110670746Y-107837246D01*
X111078558Y-107837245D01*
X111145597Y-107856929D01*
X111191352Y-107909733D01*
X111193119Y-107913791D01*
X111203815Y-107939613D01*
X111235444Y-107986947D01*
X111235445Y-107986949D01*
X111272270Y-108042062D01*
X111363713Y-108133505D01*
X111363735Y-108133525D01*
X111575816Y-108345606D01*
X111575845Y-108345637D01*
X111666064Y-108435856D01*
X111666067Y-108435858D01*
X111717290Y-108470084D01*
X111768514Y-108504312D01*
X111849007Y-108537652D01*
X111882348Y-108551463D01*
X111942771Y-108563481D01*
X112003193Y-108575500D01*
X125486807Y-108575500D01*
X125547229Y-108563481D01*
X125607652Y-108551463D01*
X125607655Y-108551461D01*
X125607658Y-108551461D01*
X125640987Y-108537654D01*
X125640986Y-108537654D01*
X125640992Y-108537652D01*
X125721486Y-108504312D01*
X125772709Y-108470084D01*
X125772711Y-108470083D01*
X125785471Y-108461556D01*
X125823933Y-108435858D01*
X125911058Y-108348733D01*
X125911059Y-108348731D01*
X125918125Y-108341665D01*
X125918128Y-108341661D01*
X131157929Y-103101860D01*
X131157933Y-103101858D01*
X131245058Y-103014733D01*
X131298546Y-102934683D01*
X131313512Y-102912286D01*
X131353418Y-102815942D01*
X131354740Y-102812751D01*
X131354769Y-102812679D01*
X131360663Y-102798452D01*
X131384700Y-102677606D01*
X131384700Y-100547794D01*
X131384700Y-100547789D01*
X131381965Y-100534043D01*
X131381963Y-100534036D01*
X131371077Y-100479303D01*
X131371077Y-100479302D01*
X131360664Y-100426954D01*
X131360663Y-100426948D01*
X131334726Y-100364330D01*
X131313512Y-100313115D01*
X131285571Y-100271299D01*
X131285571Y-100271298D01*
X131245061Y-100210671D01*
X131245055Y-100210663D01*
X131154837Y-100120445D01*
X131154806Y-100120416D01*
X130788011Y-99753621D01*
X130754526Y-99692298D01*
X130752473Y-99679838D01*
X130747168Y-99632745D01*
X130687589Y-99462478D01*
X130591616Y-99309738D01*
X130464062Y-99182184D01*
X130460481Y-99179934D01*
X130311323Y-99086211D01*
X130141054Y-99026631D01*
X130141049Y-99026630D01*
X129961804Y-99006435D01*
X129961796Y-99006435D01*
X129782550Y-99026630D01*
X129782545Y-99026631D01*
X129612276Y-99086211D01*
X129459537Y-99182184D01*
X129331984Y-99309737D01*
X129236011Y-99462476D01*
X129176431Y-99632745D01*
X129176430Y-99632750D01*
X129156235Y-99811996D01*
X129156235Y-99812003D01*
X129176430Y-99991249D01*
X129176431Y-99991254D01*
X129236011Y-100161523D01*
X129304989Y-100271300D01*
X129331984Y-100314262D01*
X129459538Y-100441816D01*
X129513757Y-100475884D01*
X129602835Y-100531856D01*
X129612278Y-100537789D01*
X129782545Y-100597368D01*
X129829623Y-100602672D01*
X129894036Y-100629737D01*
X129903421Y-100638211D01*
X130097381Y-100832171D01*
X130130866Y-100893494D01*
X130133700Y-100919852D01*
X130133700Y-102305547D01*
X130114015Y-102372586D01*
X130097381Y-102393228D01*
X129665981Y-102824628D01*
X129604658Y-102858113D01*
X129534966Y-102853129D01*
X129479033Y-102811257D01*
X129454616Y-102745793D01*
X129454300Y-102736947D01*
X129454300Y-102654287D01*
X129473985Y-102587248D01*
X129486150Y-102571315D01*
X129519160Y-102534653D01*
X129561333Y-102487816D01*
X129655979Y-102323884D01*
X129714474Y-102143856D01*
X129734260Y-101955600D01*
X129714474Y-101767344D01*
X129655979Y-101587316D01*
X129561333Y-101423384D01*
X129434671Y-101282712D01*
X129418902Y-101271255D01*
X129281534Y-101171451D01*
X129281529Y-101171448D01*
X129108607Y-101094457D01*
X129108602Y-101094455D01*
X128962801Y-101063465D01*
X128923446Y-101055100D01*
X128734154Y-101055100D01*
X128701697Y-101061998D01*
X128548997Y-101094455D01*
X128548992Y-101094457D01*
X128376070Y-101171448D01*
X128376065Y-101171451D01*
X128222929Y-101282711D01*
X128096266Y-101423385D01*
X128001621Y-101587315D01*
X128001618Y-101587322D01*
X127943127Y-101767340D01*
X127943126Y-101767344D01*
X127923340Y-101955600D01*
X127943126Y-102143856D01*
X127943127Y-102143859D01*
X128001618Y-102323877D01*
X128001621Y-102323884D01*
X128096264Y-102487812D01*
X128096265Y-102487814D01*
X128096267Y-102487816D01*
X128102492Y-102494729D01*
X128132722Y-102557718D01*
X128124099Y-102627054D01*
X128098024Y-102665383D01*
X126116829Y-104646581D01*
X126055506Y-104680066D01*
X126029148Y-104682900D01*
X117173027Y-104682900D01*
X117105988Y-104663215D01*
X117060233Y-104610411D01*
X117049027Y-104558901D01*
X117049026Y-104455381D01*
X117068710Y-104388342D01*
X117121513Y-104342586D01*
X117159141Y-104332160D01*
X117191967Y-104328461D01*
X117271377Y-104319515D01*
X117271380Y-104319514D01*
X117271382Y-104319514D01*
X117441649Y-104259935D01*
X117594389Y-104163962D01*
X117721943Y-104036408D01*
X117817916Y-103883668D01*
X117877495Y-103713401D01*
X117878538Y-103704143D01*
X117897692Y-103534149D01*
X117897692Y-103534142D01*
X117877496Y-103354896D01*
X117877495Y-103354891D01*
X117876567Y-103352238D01*
X117817916Y-103184624D01*
X117721943Y-103031884D01*
X117594389Y-102904330D01*
X117592379Y-102903067D01*
X117441650Y-102808357D01*
X117271381Y-102748777D01*
X117271376Y-102748776D01*
X117092131Y-102728581D01*
X117092122Y-102728581D01*
X117051087Y-102733204D01*
X116982265Y-102721149D01*
X116930887Y-102673799D01*
X116913263Y-102606189D01*
X116930473Y-102546863D01*
X116955608Y-102504362D01*
X117001396Y-102426939D01*
X117036664Y-102305547D01*
X117046191Y-102272754D01*
X117046191Y-102272752D01*
X117046192Y-102272750D01*
X117049027Y-102236727D01*
X117049026Y-101915379D01*
X117068710Y-101848341D01*
X117121514Y-101802586D01*
X117159141Y-101792160D01*
X117191967Y-101788461D01*
X117271377Y-101779515D01*
X117271380Y-101779514D01*
X117271382Y-101779514D01*
X117441649Y-101719935D01*
X117594389Y-101623962D01*
X117721943Y-101496408D01*
X117817916Y-101343668D01*
X117877495Y-101173401D01*
X117878501Y-101164472D01*
X117886667Y-101091996D01*
X118168035Y-101091996D01*
X118168035Y-101092003D01*
X118188230Y-101271249D01*
X118188231Y-101271254D01*
X118247811Y-101441523D01*
X118275787Y-101486046D01*
X118343784Y-101594262D01*
X118471338Y-101721816D01*
X118482038Y-101728539D01*
X118599882Y-101802586D01*
X118624078Y-101817789D01*
X118711391Y-101848341D01*
X118794345Y-101877368D01*
X118794350Y-101877369D01*
X118973596Y-101897565D01*
X118973600Y-101897565D01*
X118973604Y-101897565D01*
X119152849Y-101877369D01*
X119152852Y-101877368D01*
X119152855Y-101877368D01*
X119323122Y-101817789D01*
X119475862Y-101721816D01*
X119603416Y-101594262D01*
X119699389Y-101441522D01*
X119758968Y-101271255D01*
X119758969Y-101271249D01*
X119779165Y-101092003D01*
X119779165Y-101091996D01*
X119758969Y-100912750D01*
X119758968Y-100912745D01*
X119752232Y-100893494D01*
X119699389Y-100742478D01*
X119684544Y-100718853D01*
X119618106Y-100613117D01*
X119599100Y-100547145D01*
X119599100Y-94925452D01*
X119618785Y-94858413D01*
X119635419Y-94837771D01*
X120846601Y-93626589D01*
X132532100Y-93626589D01*
X132532100Y-93799810D01*
X132556185Y-93951881D01*
X132559198Y-93970901D01*
X132612727Y-94135645D01*
X132691368Y-94289988D01*
X132793186Y-94430128D01*
X132915672Y-94552614D01*
X132915678Y-94552618D01*
X132998623Y-94612883D01*
X133041289Y-94668213D01*
X133047267Y-94737826D01*
X133014661Y-94799621D01*
X132998623Y-94813517D01*
X132915678Y-94873781D01*
X132915669Y-94873788D01*
X132793188Y-94996269D01*
X132793188Y-94996270D01*
X132793186Y-94996272D01*
X132759203Y-95043046D01*
X132691368Y-95136411D01*
X132612728Y-95290752D01*
X132559197Y-95455502D01*
X132541914Y-95564624D01*
X132532100Y-95626589D01*
X132532100Y-95799811D01*
X132559198Y-95970901D01*
X132612727Y-96135645D01*
X132691368Y-96289988D01*
X132793186Y-96430128D01*
X132915672Y-96552614D01*
X132928782Y-96562139D01*
X132998623Y-96612883D01*
X133041289Y-96668213D01*
X133047267Y-96737826D01*
X133014661Y-96799621D01*
X132998623Y-96813517D01*
X132915678Y-96873781D01*
X132915669Y-96873788D01*
X132793188Y-96996269D01*
X132793188Y-96996270D01*
X132793186Y-96996272D01*
X132756591Y-97046641D01*
X132691368Y-97136411D01*
X132612728Y-97290752D01*
X132559197Y-97455502D01*
X132532951Y-97621219D01*
X132532100Y-97626589D01*
X132532100Y-97799811D01*
X132559198Y-97970901D01*
X132612727Y-98135645D01*
X132691368Y-98289988D01*
X132793186Y-98430128D01*
X132793188Y-98430130D01*
X132900727Y-98537669D01*
X132934212Y-98598992D01*
X132929228Y-98668684D01*
X132887356Y-98724617D01*
X132878144Y-98730888D01*
X132813944Y-98770487D01*
X132689889Y-98894542D01*
X132597787Y-99043863D01*
X132597786Y-99043866D01*
X132542601Y-99210403D01*
X132542601Y-99210404D01*
X132542600Y-99210404D01*
X132532100Y-99313183D01*
X132532100Y-100113201D01*
X132532101Y-100113219D01*
X132542600Y-100215996D01*
X132542601Y-100215999D01*
X132591753Y-100364328D01*
X132597786Y-100382534D01*
X132689888Y-100531856D01*
X132813944Y-100655912D01*
X132963266Y-100748014D01*
X133129803Y-100803199D01*
X133232591Y-100813700D01*
X134582608Y-100813699D01*
X134685397Y-100803199D01*
X134851934Y-100748014D01*
X135001256Y-100655912D01*
X135125312Y-100531856D01*
X135217414Y-100382534D01*
X135272599Y-100215997D01*
X135283100Y-100113209D01*
X135283099Y-99313192D01*
X135282603Y-99308341D01*
X135272599Y-99210403D01*
X135272598Y-99210400D01*
X135262503Y-99179935D01*
X135217414Y-99043866D01*
X135125312Y-98894544D01*
X135001256Y-98770488D01*
X135001252Y-98770485D01*
X134937056Y-98730888D01*
X134890331Y-98678940D01*
X134879110Y-98609977D01*
X134906953Y-98545895D01*
X134914450Y-98537691D01*
X135022014Y-98430128D01*
X135123832Y-98289988D01*
X135202473Y-98135645D01*
X135256002Y-97970901D01*
X135283100Y-97799811D01*
X135283100Y-97626589D01*
X135256002Y-97455499D01*
X135202473Y-97290755D01*
X135123832Y-97136412D01*
X135022014Y-96996272D01*
X134899528Y-96873786D01*
X134816575Y-96813517D01*
X134773911Y-96758188D01*
X134767932Y-96688574D01*
X134800538Y-96626779D01*
X134816576Y-96612882D01*
X134899528Y-96552614D01*
X135022014Y-96430128D01*
X135123832Y-96289988D01*
X135202473Y-96135645D01*
X135256002Y-95970901D01*
X135283100Y-95799811D01*
X135283100Y-95626589D01*
X135256002Y-95455499D01*
X135202473Y-95290755D01*
X135123832Y-95136412D01*
X135022014Y-94996272D01*
X134899528Y-94873786D01*
X134816575Y-94813517D01*
X134773911Y-94758188D01*
X134767932Y-94688574D01*
X134800538Y-94626779D01*
X134816576Y-94612882D01*
X134899528Y-94552614D01*
X135022014Y-94430128D01*
X135123832Y-94289988D01*
X135202473Y-94135645D01*
X135256002Y-93970901D01*
X135283100Y-93799811D01*
X135283100Y-93626589D01*
X135256002Y-93455499D01*
X135202473Y-93290755D01*
X135123832Y-93136412D01*
X135022014Y-92996272D01*
X134899528Y-92873786D01*
X134759388Y-92771968D01*
X134605045Y-92693327D01*
X134440301Y-92639798D01*
X134440299Y-92639797D01*
X134440298Y-92639797D01*
X134308871Y-92618981D01*
X134269211Y-92612700D01*
X133545989Y-92612700D01*
X133506328Y-92618981D01*
X133374902Y-92639797D01*
X133374899Y-92639798D01*
X133236805Y-92684668D01*
X133210152Y-92693328D01*
X133055811Y-92771968D01*
X132975856Y-92830059D01*
X132915672Y-92873786D01*
X132915670Y-92873788D01*
X132915669Y-92873788D01*
X132793188Y-92996269D01*
X132793188Y-92996270D01*
X132793186Y-92996272D01*
X132772587Y-93024624D01*
X132691368Y-93136411D01*
X132612728Y-93290752D01*
X132559197Y-93455502D01*
X132532100Y-93626589D01*
X120846601Y-93626589D01*
X123717572Y-90755619D01*
X123778895Y-90722134D01*
X123805253Y-90719300D01*
X127471145Y-90719300D01*
X127537117Y-90738306D01*
X127612529Y-90785691D01*
X127666478Y-90819589D01*
X127764716Y-90853964D01*
X127836745Y-90879168D01*
X127836750Y-90879169D01*
X128015996Y-90899365D01*
X128016000Y-90899365D01*
X128016004Y-90899365D01*
X128195249Y-90879169D01*
X128195252Y-90879168D01*
X128195255Y-90879168D01*
X128365522Y-90819589D01*
X128518262Y-90723616D01*
X128645816Y-90596062D01*
X128741789Y-90443322D01*
X128801368Y-90273055D01*
X128802558Y-90262493D01*
X128821565Y-90093803D01*
X128821565Y-90093796D01*
X128801369Y-89914550D01*
X128801368Y-89914545D01*
X128777685Y-89846863D01*
X128741789Y-89744278D01*
X128645816Y-89591538D01*
X128518262Y-89463984D01*
X128494883Y-89449294D01*
X128365523Y-89368011D01*
X128272741Y-89335545D01*
X186179887Y-89335545D01*
X186179887Y-89335546D01*
X186200482Y-89570949D01*
X186200484Y-89570959D01*
X186261640Y-89799201D01*
X186261642Y-89799205D01*
X186261643Y-89799209D01*
X186310420Y-89903811D01*
X186361511Y-90013376D01*
X186361513Y-90013380D01*
X186497047Y-90206941D01*
X186497052Y-90206948D01*
X186664143Y-90374039D01*
X186664149Y-90374044D01*
X186849704Y-90503971D01*
X186893329Y-90558548D01*
X186900523Y-90628046D01*
X186869000Y-90690401D01*
X186849704Y-90707121D01*
X186664143Y-90837051D01*
X186497051Y-91004143D01*
X186361511Y-91197715D01*
X186361510Y-91197717D01*
X186261644Y-91411881D01*
X186261640Y-91411890D01*
X186200484Y-91640132D01*
X186200482Y-91640142D01*
X186179887Y-91875545D01*
X186179887Y-91875546D01*
X186200482Y-92110949D01*
X186200484Y-92110959D01*
X186261640Y-92339201D01*
X186261642Y-92339205D01*
X186261643Y-92339209D01*
X186310420Y-92443811D01*
X186361511Y-92553376D01*
X186361513Y-92553380D01*
X186469827Y-92708067D01*
X186497047Y-92746942D01*
X186497052Y-92746948D01*
X186664143Y-92914039D01*
X186664149Y-92914044D01*
X186849704Y-93043971D01*
X186893329Y-93098548D01*
X186900523Y-93168046D01*
X186869000Y-93230401D01*
X186849704Y-93247121D01*
X186664143Y-93377051D01*
X186497051Y-93544143D01*
X186361511Y-93737715D01*
X186361510Y-93737717D01*
X186261644Y-93951881D01*
X186261640Y-93951890D01*
X186200484Y-94180132D01*
X186200482Y-94180142D01*
X186179887Y-94415545D01*
X186179887Y-94415546D01*
X186200482Y-94650949D01*
X186200484Y-94650959D01*
X186261640Y-94879201D01*
X186261642Y-94879205D01*
X186261643Y-94879209D01*
X186308009Y-94978641D01*
X186361511Y-95093376D01*
X186361513Y-95093380D01*
X186469827Y-95248067D01*
X186497047Y-95286942D01*
X186497052Y-95286948D01*
X186664143Y-95454039D01*
X186664149Y-95454044D01*
X186850140Y-95584276D01*
X186893765Y-95638853D01*
X186900959Y-95708351D01*
X186869436Y-95770706D01*
X186850141Y-95787426D01*
X186664468Y-95917436D01*
X186664466Y-95917437D01*
X186497437Y-96084466D01*
X186497432Y-96084472D01*
X186361946Y-96277966D01*
X186361945Y-96277968D01*
X186262116Y-96492053D01*
X186262113Y-96492059D01*
X186204910Y-96705545D01*
X186204910Y-96705546D01*
X187102534Y-96705546D01*
X187069621Y-96762553D01*
X187035546Y-96889720D01*
X187035546Y-97021372D01*
X187069621Y-97148539D01*
X187102534Y-97205546D01*
X186204910Y-97205546D01*
X186262113Y-97419032D01*
X186262116Y-97419038D01*
X186361945Y-97633124D01*
X186497440Y-97826628D01*
X186664463Y-97993651D01*
X186850141Y-98123665D01*
X186893765Y-98178242D01*
X186900958Y-98247741D01*
X186869436Y-98310095D01*
X186850141Y-98326815D01*
X186664140Y-98457054D01*
X186497051Y-98624143D01*
X186361511Y-98817715D01*
X186361510Y-98817717D01*
X186261644Y-99031881D01*
X186261640Y-99031890D01*
X186200484Y-99260132D01*
X186200482Y-99260142D01*
X186179887Y-99495545D01*
X186179887Y-99495546D01*
X186200482Y-99730949D01*
X186200484Y-99730959D01*
X186261640Y-99959201D01*
X186261642Y-99959205D01*
X186261643Y-99959209D01*
X186308009Y-100058641D01*
X186361511Y-100173376D01*
X186361513Y-100173380D01*
X186469827Y-100328067D01*
X186497047Y-100366942D01*
X186497052Y-100366948D01*
X186664143Y-100534039D01*
X186664149Y-100534044D01*
X186850140Y-100664276D01*
X186893765Y-100718853D01*
X186900959Y-100788351D01*
X186869436Y-100850706D01*
X186850141Y-100867426D01*
X186664468Y-100997436D01*
X186664466Y-100997437D01*
X186497437Y-101164466D01*
X186497432Y-101164472D01*
X186361946Y-101357966D01*
X186361945Y-101357968D01*
X186262116Y-101572053D01*
X186262113Y-101572059D01*
X186204910Y-101785545D01*
X186204910Y-101785546D01*
X187102534Y-101785546D01*
X187069621Y-101842553D01*
X187035546Y-101969720D01*
X187035546Y-102101372D01*
X187069621Y-102228539D01*
X187102534Y-102285546D01*
X186204910Y-102285546D01*
X186262113Y-102499032D01*
X186262116Y-102499038D01*
X186361945Y-102713124D01*
X186497440Y-102906628D01*
X186664463Y-103073651D01*
X186850141Y-103203665D01*
X186893765Y-103258242D01*
X186900958Y-103327741D01*
X186869436Y-103390095D01*
X186850141Y-103406815D01*
X186664140Y-103537054D01*
X186497051Y-103704143D01*
X186361511Y-103897715D01*
X186361510Y-103897717D01*
X186261644Y-104111881D01*
X186261640Y-104111890D01*
X186200484Y-104340132D01*
X186200482Y-104340142D01*
X186179887Y-104575545D01*
X186179887Y-104575546D01*
X186200482Y-104810949D01*
X186200484Y-104810959D01*
X186261640Y-105039201D01*
X186261642Y-105039205D01*
X186261643Y-105039209D01*
X186310420Y-105143811D01*
X186361511Y-105253376D01*
X186361513Y-105253380D01*
X186441393Y-105367459D01*
X186497047Y-105446942D01*
X186497052Y-105446948D01*
X186664143Y-105614039D01*
X186664149Y-105614044D01*
X186850140Y-105744276D01*
X186893765Y-105798853D01*
X186900959Y-105868351D01*
X186869436Y-105930706D01*
X186850141Y-105947426D01*
X186664468Y-106077436D01*
X186664466Y-106077437D01*
X186497437Y-106244466D01*
X186497432Y-106244472D01*
X186361946Y-106437966D01*
X186361945Y-106437968D01*
X186262116Y-106652053D01*
X186262113Y-106652059D01*
X186204910Y-106865545D01*
X186204910Y-106865546D01*
X187102534Y-106865546D01*
X187069621Y-106922553D01*
X187035546Y-107049720D01*
X187035546Y-107181372D01*
X187069621Y-107308539D01*
X187102534Y-107365546D01*
X186204910Y-107365546D01*
X186262113Y-107579032D01*
X186262116Y-107579038D01*
X186361945Y-107793124D01*
X186497440Y-107986628D01*
X186664463Y-108153651D01*
X186857967Y-108289146D01*
X187072053Y-108388975D01*
X187072062Y-108388979D01*
X187285546Y-108446180D01*
X187285546Y-107548558D01*
X187342553Y-107581471D01*
X187469720Y-107615546D01*
X187601372Y-107615546D01*
X187728539Y-107581471D01*
X187785546Y-107548558D01*
X187785546Y-108446179D01*
X187999029Y-108388979D01*
X187999038Y-108388975D01*
X188213124Y-108289146D01*
X188406628Y-108153651D01*
X188573651Y-107986628D01*
X188703971Y-107800514D01*
X188758548Y-107756890D01*
X188828047Y-107749697D01*
X188890401Y-107781219D01*
X188907121Y-107800514D01*
X189037440Y-107986628D01*
X189204463Y-108153651D01*
X189397967Y-108289146D01*
X189612053Y-108388975D01*
X189612062Y-108388979D01*
X189825546Y-108446180D01*
X189825546Y-107548558D01*
X189882553Y-107581471D01*
X190009720Y-107615546D01*
X190141372Y-107615546D01*
X190268539Y-107581471D01*
X190325546Y-107548558D01*
X190325546Y-108446179D01*
X190539029Y-108388979D01*
X190539038Y-108388975D01*
X190753124Y-108289146D01*
X190946628Y-108153651D01*
X191113651Y-107986628D01*
X191249146Y-107793124D01*
X191348975Y-107579038D01*
X191348978Y-107579032D01*
X191406182Y-107365546D01*
X190508558Y-107365546D01*
X190541471Y-107308539D01*
X190575546Y-107181372D01*
X190575546Y-107049720D01*
X190541471Y-106922553D01*
X190508558Y-106865546D01*
X191406182Y-106865546D01*
X191406181Y-106865545D01*
X191348978Y-106652059D01*
X191348975Y-106652053D01*
X191249146Y-106437968D01*
X191249145Y-106437966D01*
X191113659Y-106244472D01*
X191113654Y-106244466D01*
X190946624Y-106077436D01*
X190760951Y-105947425D01*
X190717326Y-105892848D01*
X190710134Y-105823350D01*
X190741656Y-105760995D01*
X190760952Y-105744276D01*
X190761388Y-105743971D01*
X190946947Y-105614041D01*
X191114041Y-105446947D01*
X191249581Y-105253376D01*
X191349449Y-105039209D01*
X191410609Y-104810954D01*
X191431205Y-104575546D01*
X191410609Y-104340138D01*
X191349449Y-104111883D01*
X191249581Y-103897717D01*
X191243971Y-103889704D01*
X191114040Y-103704143D01*
X190946948Y-103537052D01*
X190946947Y-103537051D01*
X190760951Y-103406815D01*
X190717327Y-103352238D01*
X190710134Y-103282739D01*
X190741656Y-103220385D01*
X190760951Y-103203665D01*
X190946628Y-103073651D01*
X191113651Y-102906628D01*
X191249146Y-102713124D01*
X191348975Y-102499038D01*
X191348978Y-102499032D01*
X191406182Y-102285546D01*
X190508558Y-102285546D01*
X190541471Y-102228539D01*
X190575546Y-102101372D01*
X190575546Y-101969720D01*
X190541471Y-101842553D01*
X190508558Y-101785546D01*
X191406182Y-101785546D01*
X191406181Y-101785545D01*
X191348978Y-101572059D01*
X191348975Y-101572053D01*
X191249146Y-101357968D01*
X191249145Y-101357966D01*
X191113659Y-101164472D01*
X191113654Y-101164466D01*
X190946624Y-100997436D01*
X190760951Y-100867425D01*
X190717326Y-100812848D01*
X190710134Y-100743350D01*
X190741656Y-100680995D01*
X190760952Y-100664276D01*
X190810279Y-100629737D01*
X190946947Y-100534041D01*
X191114041Y-100366947D01*
X191249581Y-100173376D01*
X191349449Y-99959209D01*
X191410609Y-99730954D01*
X191431205Y-99495546D01*
X191410609Y-99260138D01*
X191349449Y-99031883D01*
X191249581Y-98817717D01*
X191243971Y-98809704D01*
X191114040Y-98624143D01*
X190946948Y-98457052D01*
X190946947Y-98457051D01*
X190760951Y-98326815D01*
X190717327Y-98272238D01*
X190710134Y-98202739D01*
X190741656Y-98140385D01*
X190760951Y-98123665D01*
X190946628Y-97993651D01*
X191113651Y-97826628D01*
X191249146Y-97633124D01*
X191348975Y-97419038D01*
X191348978Y-97419032D01*
X191406182Y-97205546D01*
X190508558Y-97205546D01*
X190541471Y-97148539D01*
X190575546Y-97021372D01*
X190575546Y-96889720D01*
X190541471Y-96762553D01*
X190508558Y-96705546D01*
X191406182Y-96705546D01*
X191406181Y-96705545D01*
X191348978Y-96492059D01*
X191348975Y-96492053D01*
X191249146Y-96277968D01*
X191249145Y-96277966D01*
X191113659Y-96084472D01*
X191113654Y-96084466D01*
X190946624Y-95917436D01*
X190760951Y-95787425D01*
X190717326Y-95732848D01*
X190710134Y-95663350D01*
X190741656Y-95600995D01*
X190760952Y-95584276D01*
X190944860Y-95455502D01*
X190946947Y-95454041D01*
X191114041Y-95286947D01*
X191249581Y-95093376D01*
X191349449Y-94879209D01*
X191410609Y-94650954D01*
X191431205Y-94415546D01*
X191410609Y-94180138D01*
X191349449Y-93951883D01*
X191249581Y-93737717D01*
X191243971Y-93729704D01*
X191114040Y-93544143D01*
X190946948Y-93377052D01*
X190946942Y-93377047D01*
X190761388Y-93247121D01*
X190717763Y-93192544D01*
X190710569Y-93123046D01*
X190742092Y-93060691D01*
X190761388Y-93043971D01*
X190829513Y-92996269D01*
X190946947Y-92914041D01*
X191114041Y-92746947D01*
X191249581Y-92553376D01*
X191349449Y-92339209D01*
X191410609Y-92110954D01*
X191431205Y-91875546D01*
X191410609Y-91640138D01*
X191349449Y-91411883D01*
X191249581Y-91197717D01*
X191243970Y-91189704D01*
X191114042Y-91004146D01*
X191114039Y-91004143D01*
X190992113Y-90882217D01*
X190958630Y-90820897D01*
X190963614Y-90751205D01*
X191005485Y-90695271D01*
X191036461Y-90678356D01*
X191167877Y-90629342D01*
X191283092Y-90543092D01*
X191369342Y-90427877D01*
X191419637Y-90293029D01*
X191426046Y-90233419D01*
X191426045Y-88437674D01*
X191419637Y-88378063D01*
X191418356Y-88374629D01*
X191369343Y-88243217D01*
X191369339Y-88243210D01*
X191283093Y-88128001D01*
X191283090Y-88127998D01*
X191167881Y-88041752D01*
X191167874Y-88041748D01*
X191033028Y-87991454D01*
X191033029Y-87991454D01*
X190973429Y-87985047D01*
X190973427Y-87985046D01*
X190973419Y-87985046D01*
X190973410Y-87985046D01*
X189177675Y-87985046D01*
X189177669Y-87985047D01*
X189118062Y-87991454D01*
X188983217Y-88041748D01*
X188983210Y-88041752D01*
X188868001Y-88127998D01*
X188867998Y-88128001D01*
X188781752Y-88243210D01*
X188781749Y-88243215D01*
X188732735Y-88374629D01*
X188690863Y-88430562D01*
X188625399Y-88454979D01*
X188557126Y-88440127D01*
X188528872Y-88418976D01*
X188406948Y-88297052D01*
X188406941Y-88297047D01*
X188402802Y-88294149D01*
X188330064Y-88243217D01*
X188213380Y-88161513D01*
X188213376Y-88161511D01*
X188213374Y-88161510D01*
X187999209Y-88061643D01*
X187999205Y-88061642D01*
X187999201Y-88061640D01*
X187770959Y-88000484D01*
X187770949Y-88000482D01*
X187535547Y-87979887D01*
X187535545Y-87979887D01*
X187300142Y-88000482D01*
X187300132Y-88000484D01*
X187071890Y-88061640D01*
X187071881Y-88061644D01*
X186857717Y-88161510D01*
X186857715Y-88161511D01*
X186664143Y-88297051D01*
X186497051Y-88464143D01*
X186361511Y-88657715D01*
X186361510Y-88657717D01*
X186261644Y-88871881D01*
X186261640Y-88871890D01*
X186200484Y-89100132D01*
X186200482Y-89100142D01*
X186179887Y-89335545D01*
X128272741Y-89335545D01*
X128195254Y-89308431D01*
X128195249Y-89308430D01*
X128016004Y-89288235D01*
X128015996Y-89288235D01*
X127836750Y-89308430D01*
X127836745Y-89308431D01*
X127666476Y-89368011D01*
X127537117Y-89449294D01*
X127471145Y-89468300D01*
X123433189Y-89468300D01*
X123372771Y-89480318D01*
X123329543Y-89488916D01*
X123312346Y-89492337D01*
X123198516Y-89539487D01*
X123120618Y-89591538D01*
X123120617Y-89591539D01*
X123096063Y-89607944D01*
X123096062Y-89607945D01*
X118574869Y-94129140D01*
X118487741Y-94216267D01*
X118487738Y-94216271D01*
X118475166Y-94235089D01*
X118475162Y-94235095D01*
X118419290Y-94318710D01*
X118419285Y-94318719D01*
X118388417Y-94393244D01*
X118388417Y-94393245D01*
X118372138Y-94432545D01*
X118372135Y-94432555D01*
X118348100Y-94553389D01*
X118348100Y-100547145D01*
X118329094Y-100613117D01*
X118247811Y-100742476D01*
X118188231Y-100912745D01*
X118188230Y-100912750D01*
X118168035Y-101091996D01*
X117886667Y-101091996D01*
X117897692Y-100994149D01*
X117897692Y-100994142D01*
X117877496Y-100814896D01*
X117877495Y-100814891D01*
X117868208Y-100788351D01*
X117817916Y-100644624D01*
X117813886Y-100638211D01*
X117778709Y-100582226D01*
X117721943Y-100491884D01*
X117594389Y-100364330D01*
X117548053Y-100335215D01*
X117441650Y-100268357D01*
X117271381Y-100208777D01*
X117271376Y-100208776D01*
X117092131Y-100188581D01*
X117092122Y-100188581D01*
X117051087Y-100193204D01*
X116982265Y-100181149D01*
X116930887Y-100133799D01*
X116913263Y-100066189D01*
X116930473Y-100006863D01*
X117001396Y-99886939D01*
X117046192Y-99732750D01*
X117049027Y-99696727D01*
X117049026Y-99375379D01*
X117068710Y-99308341D01*
X117121514Y-99262586D01*
X117159141Y-99252160D01*
X117191967Y-99248461D01*
X117271377Y-99239515D01*
X117271380Y-99239514D01*
X117271382Y-99239514D01*
X117441649Y-99179935D01*
X117594389Y-99083962D01*
X117721943Y-98956408D01*
X117817916Y-98803668D01*
X117877495Y-98633401D01*
X117878538Y-98624143D01*
X117897692Y-98454149D01*
X117897692Y-98454142D01*
X117877496Y-98274896D01*
X117877495Y-98274891D01*
X117876567Y-98272238D01*
X117817916Y-98104624D01*
X117721943Y-97951884D01*
X117594389Y-97824330D01*
X117555983Y-97800198D01*
X117441650Y-97728357D01*
X117271381Y-97668777D01*
X117271376Y-97668776D01*
X117092131Y-97648581D01*
X117092122Y-97648581D01*
X117051087Y-97653204D01*
X116982265Y-97641149D01*
X116930887Y-97593799D01*
X116913263Y-97526189D01*
X116930473Y-97466863D01*
X116953706Y-97427578D01*
X117001396Y-97346939D01*
X117034378Y-97233411D01*
X117046191Y-97192754D01*
X117046191Y-97192752D01*
X117046192Y-97192750D01*
X117049027Y-97156727D01*
X117049026Y-96835379D01*
X117068710Y-96768341D01*
X117121514Y-96722586D01*
X117159141Y-96712160D01*
X117191967Y-96708461D01*
X117271377Y-96699515D01*
X117271380Y-96699514D01*
X117271382Y-96699514D01*
X117441649Y-96639935D01*
X117594389Y-96543962D01*
X117721943Y-96416408D01*
X117817916Y-96263668D01*
X117877495Y-96093401D01*
X117878501Y-96084472D01*
X117897692Y-95914149D01*
X117897692Y-95914142D01*
X117877496Y-95734896D01*
X117877495Y-95734891D01*
X117868208Y-95708351D01*
X117817916Y-95564624D01*
X117721943Y-95411884D01*
X117594389Y-95284330D01*
X117548053Y-95255215D01*
X117441650Y-95188357D01*
X117271381Y-95128777D01*
X117271376Y-95128776D01*
X117092131Y-95108581D01*
X117092122Y-95108581D01*
X117051087Y-95113204D01*
X116982265Y-95101149D01*
X116930887Y-95053799D01*
X116913263Y-94986189D01*
X116930473Y-94926863D01*
X117001396Y-94806939D01*
X117046192Y-94652750D01*
X117049027Y-94616727D01*
X117049026Y-94295379D01*
X117068710Y-94228341D01*
X117121514Y-94182586D01*
X117159141Y-94172160D01*
X117191967Y-94168461D01*
X117271377Y-94159515D01*
X117271380Y-94159514D01*
X117271382Y-94159514D01*
X117441649Y-94099935D01*
X117594389Y-94003962D01*
X117721943Y-93876408D01*
X117817916Y-93723668D01*
X117877495Y-93553401D01*
X117878538Y-93544143D01*
X117897692Y-93374149D01*
X117897692Y-93374142D01*
X117877496Y-93194896D01*
X117877495Y-93194891D01*
X117876674Y-93192544D01*
X117817916Y-93024624D01*
X117721943Y-92871884D01*
X117594389Y-92744330D01*
X117548053Y-92715215D01*
X117441650Y-92648357D01*
X117271381Y-92588777D01*
X117271376Y-92588776D01*
X117092131Y-92568581D01*
X117092122Y-92568581D01*
X117051087Y-92573204D01*
X116982265Y-92561149D01*
X116930887Y-92513799D01*
X116913263Y-92446189D01*
X116930473Y-92386863D01*
X116955608Y-92344362D01*
X117001396Y-92266939D01*
X117046192Y-92112750D01*
X117049027Y-92076727D01*
X117049026Y-91755379D01*
X117068710Y-91688341D01*
X117121514Y-91642586D01*
X117159141Y-91632160D01*
X117191967Y-91628461D01*
X117271377Y-91619515D01*
X117271380Y-91619514D01*
X117271382Y-91619514D01*
X117441649Y-91559935D01*
X117594389Y-91463962D01*
X117721943Y-91336408D01*
X117817916Y-91183668D01*
X117877495Y-91013401D01*
X117890344Y-90899365D01*
X117897692Y-90834149D01*
X117897692Y-90834142D01*
X117877496Y-90654896D01*
X117877495Y-90654891D01*
X117868554Y-90629339D01*
X117817916Y-90484624D01*
X117721943Y-90331884D01*
X117594389Y-90204330D01*
X117548053Y-90175215D01*
X117441650Y-90108357D01*
X117271381Y-90048777D01*
X117271376Y-90048776D01*
X117092131Y-90028581D01*
X117092122Y-90028581D01*
X117051087Y-90033204D01*
X116982265Y-90021149D01*
X116930887Y-89973799D01*
X116913263Y-89906189D01*
X116930473Y-89846863D01*
X116955608Y-89804362D01*
X117001396Y-89726939D01*
X117035967Y-89607944D01*
X117046191Y-89572754D01*
X117046191Y-89572752D01*
X117046192Y-89572750D01*
X117049027Y-89536727D01*
X117049026Y-89215379D01*
X117068710Y-89148341D01*
X117121514Y-89102586D01*
X117159141Y-89092160D01*
X117191967Y-89088461D01*
X117271377Y-89079515D01*
X117271380Y-89079514D01*
X117271382Y-89079514D01*
X117441649Y-89019935D01*
X117594389Y-88923962D01*
X117721943Y-88796408D01*
X117817916Y-88643668D01*
X117877495Y-88473401D01*
X117881244Y-88440127D01*
X117897692Y-88294149D01*
X117897692Y-88294142D01*
X117877496Y-88114896D01*
X117877495Y-88114891D01*
X117817916Y-87944624D01*
X117721943Y-87791884D01*
X117594389Y-87664330D01*
X117553545Y-87638666D01*
X117441650Y-87568357D01*
X117271381Y-87508777D01*
X117271376Y-87508776D01*
X117092131Y-87488581D01*
X117092123Y-87488581D01*
X116912877Y-87508776D01*
X116912864Y-87508779D01*
X116742607Y-87568355D01*
X116737464Y-87571587D01*
X116670226Y-87590582D01*
X116636904Y-87585666D01*
X116513731Y-87549881D01*
X116513728Y-87549880D01*
X116513729Y-87549880D01*
X116477708Y-87547046D01*
X115979357Y-87547046D01*
X115979335Y-87547047D01*
X115943324Y-87549880D01*
X115852587Y-87576241D01*
X115782717Y-87576040D01*
X115773838Y-87572610D01*
X115773822Y-87572657D01*
X115596981Y-87510777D01*
X115596976Y-87510776D01*
X115417731Y-87490581D01*
X115417723Y-87490581D01*
X115238477Y-87510776D01*
X115238464Y-87510779D01*
X115068205Y-87570356D01*
X115061933Y-87573377D01*
X115060755Y-87570932D01*
X115005378Y-87586566D01*
X114972078Y-87581649D01*
X114862735Y-87549881D01*
X114862729Y-87549880D01*
X114826708Y-87547046D01*
X114328357Y-87547046D01*
X114328335Y-87547047D01*
X114292321Y-87549881D01*
X114138138Y-87594675D01*
X114138135Y-87594676D01*
X114060813Y-87640404D01*
X113993089Y-87657585D01*
X113931722Y-87638666D01*
X113872909Y-87601712D01*
X113860249Y-87593757D01*
X113860248Y-87593756D01*
X113860244Y-87593754D01*
X113689989Y-87534179D01*
X113689976Y-87534176D01*
X113510731Y-87513981D01*
X113510723Y-87513981D01*
X113331477Y-87534176D01*
X113331464Y-87534179D01*
X113161205Y-87593756D01*
X113154933Y-87596777D01*
X113154050Y-87594945D01*
X113096369Y-87611235D01*
X113043444Y-87596464D01*
X113042878Y-87597775D01*
X113035715Y-87594675D01*
X112881535Y-87549881D01*
X112881529Y-87549880D01*
X112845508Y-87547046D01*
X112347157Y-87547046D01*
X112347135Y-87547047D01*
X112311125Y-87549880D01*
X112169542Y-87591014D01*
X112099673Y-87590814D01*
X112093993Y-87588978D01*
X111937389Y-87534179D01*
X111937376Y-87534176D01*
X111758131Y-87513981D01*
X111758123Y-87513981D01*
X111578877Y-87534176D01*
X111578872Y-87534177D01*
X111422260Y-87588979D01*
X111352481Y-87592540D01*
X111346710Y-87591013D01*
X111205135Y-87549881D01*
X111205129Y-87549880D01*
X111169108Y-87547046D01*
X110670757Y-87547046D01*
X110670735Y-87547047D01*
X110634721Y-87549881D01*
X110480538Y-87594675D01*
X110480528Y-87594679D01*
X110468631Y-87601715D01*
X110400906Y-87618894D01*
X110339544Y-87599974D01*
X110329647Y-87593755D01*
X110159389Y-87534179D01*
X110159376Y-87534176D01*
X109980131Y-87513981D01*
X109980123Y-87513981D01*
X109800877Y-87534176D01*
X109800864Y-87534179D01*
X109630605Y-87593756D01*
X109620706Y-87599976D01*
X109553469Y-87618974D01*
X109491617Y-87601712D01*
X109479724Y-87594678D01*
X109479718Y-87594676D01*
X109325535Y-87549881D01*
X109325529Y-87549880D01*
X109289508Y-87547046D01*
X108791157Y-87547046D01*
X108791135Y-87547047D01*
X108755121Y-87549881D01*
X108600938Y-87594675D01*
X108600933Y-87594677D01*
X108462731Y-87676409D01*
X108462723Y-87676415D01*
X108423710Y-87715429D01*
X108362387Y-87748914D01*
X108292695Y-87743930D01*
X108248348Y-87715429D01*
X108159660Y-87626741D01*
X108108436Y-87592515D01*
X108083780Y-87576040D01*
X108057213Y-87558288D01*
X108057210Y-87558286D01*
X108057207Y-87558285D01*
X107976719Y-87524947D01*
X107943381Y-87511138D01*
X107943382Y-87511138D01*
X107943379Y-87511137D01*
X107943375Y-87511136D01*
X107943371Y-87511135D01*
X107840034Y-87490580D01*
X107840033Y-87490580D01*
X107822538Y-87487100D01*
X107822534Y-87487100D01*
X107822533Y-87487100D01*
X105010046Y-87487100D01*
X104943007Y-87467415D01*
X104897252Y-87414611D01*
X104886046Y-87363100D01*
X104886045Y-85897675D01*
X104886044Y-85897669D01*
X104879637Y-85838062D01*
X104829343Y-85703217D01*
X104829339Y-85703210D01*
X104743093Y-85588001D01*
X104743090Y-85587998D01*
X104627881Y-85501752D01*
X104627874Y-85501748D01*
X104493028Y-85451454D01*
X104493029Y-85451454D01*
X104433429Y-85445047D01*
X104433427Y-85445046D01*
X104433419Y-85445046D01*
X104433410Y-85445046D01*
X102637675Y-85445046D01*
X102637669Y-85445047D01*
X102578062Y-85451454D01*
X102443217Y-85501748D01*
X102443210Y-85501752D01*
X102328001Y-85587998D01*
X102327998Y-85588001D01*
X102241752Y-85703210D01*
X102241749Y-85703215D01*
X102192735Y-85834629D01*
X102150863Y-85890562D01*
X102085399Y-85914979D01*
X102017126Y-85900127D01*
X101988872Y-85878976D01*
X101866948Y-85757052D01*
X101866941Y-85757047D01*
X101673380Y-85621513D01*
X101673376Y-85621511D01*
X101673374Y-85621510D01*
X101459209Y-85521643D01*
X101459205Y-85521642D01*
X101459201Y-85521640D01*
X101230959Y-85460484D01*
X101230949Y-85460482D01*
X100995547Y-85439887D01*
X100995545Y-85439887D01*
X100760142Y-85460482D01*
X100760132Y-85460484D01*
X100531890Y-85521640D01*
X100531881Y-85521644D01*
X100317717Y-85621510D01*
X100317715Y-85621511D01*
X100124143Y-85757051D01*
X99957051Y-85924143D01*
X99821511Y-86117715D01*
X99821510Y-86117717D01*
X99721644Y-86331881D01*
X99721640Y-86331890D01*
X99660484Y-86560132D01*
X99660482Y-86560142D01*
X99639887Y-86795545D01*
X95535546Y-86795545D01*
X95535546Y-76226092D01*
X95535548Y-76225544D01*
X101283028Y-76225544D01*
X101283028Y-76225546D01*
X101303125Y-76525773D01*
X101303127Y-76525783D01*
X101363062Y-76820653D01*
X101461766Y-77104906D01*
X101461768Y-77104909D01*
X101597472Y-77373461D01*
X101597475Y-77373466D01*
X101597476Y-77373467D01*
X101767771Y-77621544D01*
X101969613Y-77844709D01*
X102199398Y-78038981D01*
X102453027Y-78200891D01*
X102725974Y-78327552D01*
X103013367Y-78416702D01*
X103310079Y-78466751D01*
X103610814Y-78476806D01*
X103910206Y-78446687D01*
X104202912Y-78376932D01*
X104483709Y-78268785D01*
X104747586Y-78124176D01*
X104989834Y-77945686D01*
X105206131Y-77736501D01*
X105392615Y-77500352D01*
X105545961Y-77241454D01*
X105663430Y-76964428D01*
X105742927Y-76674216D01*
X105783034Y-76375998D01*
X105785546Y-76225546D01*
X105785546Y-76225544D01*
X185283028Y-76225544D01*
X185283028Y-76225546D01*
X185303125Y-76525773D01*
X185303127Y-76525783D01*
X185363062Y-76820653D01*
X185461766Y-77104906D01*
X185461768Y-77104909D01*
X185597472Y-77373461D01*
X185597475Y-77373466D01*
X185597476Y-77373467D01*
X185767771Y-77621544D01*
X185969613Y-77844709D01*
X186199398Y-78038981D01*
X186453027Y-78200891D01*
X186725974Y-78327552D01*
X187013367Y-78416702D01*
X187310079Y-78466751D01*
X187610814Y-78476806D01*
X187910206Y-78446687D01*
X188202912Y-78376932D01*
X188483709Y-78268785D01*
X188747586Y-78124176D01*
X188989834Y-77945686D01*
X189206131Y-77736501D01*
X189392615Y-77500352D01*
X189545961Y-77241454D01*
X189663430Y-76964428D01*
X189742927Y-76674216D01*
X189783034Y-76375998D01*
X189785546Y-76225546D01*
X189783034Y-76075094D01*
X189742927Y-75776876D01*
X189663430Y-75486664D01*
X189545961Y-75209638D01*
X189467772Y-75077630D01*
X189392615Y-74950739D01*
X189206130Y-74714590D01*
X188989841Y-74505413D01*
X188989834Y-74505406D01*
X188747586Y-74326916D01*
X188608680Y-74250793D01*
X188483717Y-74182311D01*
X188483712Y-74182308D01*
X188483709Y-74182307D01*
X188483705Y-74182305D01*
X188483702Y-74182304D01*
X188202916Y-74074161D01*
X188202912Y-74074160D01*
X187910206Y-74004405D01*
X187910203Y-74004404D01*
X187610818Y-73974286D01*
X187610814Y-73974286D01*
X187310079Y-73984341D01*
X187013366Y-74034390D01*
X186885160Y-74074160D01*
X186725974Y-74123540D01*
X186725967Y-74123543D01*
X186725965Y-74123544D01*
X186453029Y-74250199D01*
X186453027Y-74250201D01*
X186199401Y-74412108D01*
X185969614Y-74606381D01*
X185767773Y-74829545D01*
X185767772Y-74829546D01*
X185597472Y-75077630D01*
X185461768Y-75346182D01*
X185461766Y-75346185D01*
X185363062Y-75630438D01*
X185303127Y-75925308D01*
X185303125Y-75925318D01*
X185283028Y-76225544D01*
X105785546Y-76225544D01*
X105783034Y-76075094D01*
X105742927Y-75776876D01*
X105663430Y-75486664D01*
X105545961Y-75209638D01*
X105467772Y-75077630D01*
X105392615Y-74950739D01*
X105206130Y-74714590D01*
X104989841Y-74505413D01*
X104989834Y-74505406D01*
X104747586Y-74326916D01*
X104608680Y-74250793D01*
X104483717Y-74182311D01*
X104483712Y-74182308D01*
X104483709Y-74182307D01*
X104483705Y-74182305D01*
X104483702Y-74182304D01*
X104202916Y-74074161D01*
X104202912Y-74074160D01*
X103910206Y-74004405D01*
X103910203Y-74004404D01*
X103610818Y-73974286D01*
X103610814Y-73974286D01*
X103310079Y-73984341D01*
X103013366Y-74034390D01*
X102885160Y-74074160D01*
X102725974Y-74123540D01*
X102725967Y-74123543D01*
X102725965Y-74123544D01*
X102453029Y-74250199D01*
X102453027Y-74250201D01*
X102199401Y-74412108D01*
X101969614Y-74606381D01*
X101767773Y-74829545D01*
X101767772Y-74829546D01*
X101597472Y-75077630D01*
X101461768Y-75346182D01*
X101461766Y-75346185D01*
X101363062Y-75630438D01*
X101303127Y-75925308D01*
X101303125Y-75925318D01*
X101283028Y-76225544D01*
X95535548Y-76225544D01*
X95535551Y-76224986D01*
X95535565Y-76223327D01*
X95538061Y-75943765D01*
X95538371Y-75936051D01*
X95539139Y-75925315D01*
X95578533Y-75374508D01*
X95579477Y-75365735D01*
X95659519Y-74809031D01*
X95661088Y-74800343D01*
X95780636Y-74250785D01*
X95782821Y-74242224D01*
X95941280Y-73702566D01*
X95944056Y-73694223D01*
X96140619Y-73167217D01*
X96143985Y-73159093D01*
X96377634Y-72647472D01*
X96381574Y-72639601D01*
X96651125Y-72145957D01*
X96655638Y-72138353D01*
X96959685Y-71665247D01*
X96964733Y-71657976D01*
X97301775Y-71207740D01*
X97307314Y-71200864D01*
X97675641Y-70775792D01*
X97681647Y-70769342D01*
X98079342Y-70371647D01*
X98085794Y-70365640D01*
X98510864Y-69997314D01*
X98517740Y-69991775D01*
X98967976Y-69654733D01*
X98975247Y-69649685D01*
X99448330Y-69345653D01*
X99448361Y-69345633D01*
X99455957Y-69341125D01*
X99949601Y-69071574D01*
X99957472Y-69067634D01*
X100469104Y-68833980D01*
X100477217Y-68830619D01*
X101004223Y-68634056D01*
X101012566Y-68631280D01*
X101552224Y-68472821D01*
X101560785Y-68470636D01*
X102110350Y-68351086D01*
X102119031Y-68349519D01*
X102675756Y-68269474D01*
X102684508Y-68268533D01*
X103246064Y-68228370D01*
X103253777Y-68228060D01*
X103527532Y-68225617D01*
X103534987Y-68225551D01*
X103536093Y-68225546D01*
X187534999Y-68225546D01*
X187536106Y-68225551D01*
G37*
%TD.AperFunction*%
%TD*%
M02*
