%TF.GenerationSoftware,KiCad,Pcbnew,8.0.3*%
%TF.CreationDate,2025-07-14T16:29:20+02:00*%
%TF.ProjectId,ScxhrittmotorBoard,53637868-7269-4747-946d-6f746f72426f,rev?*%
%TF.SameCoordinates,Original*%
%TF.FileFunction,Legend,Top*%
%TF.FilePolarity,Positive*%
%FSLAX46Y46*%
G04 Gerber Fmt 4.6, Leading zero omitted, Abs format (unit mm)*
G04 Created by KiCad (PCBNEW 8.0.3) date 2025-07-14 16:29:20*
%MOMM*%
%LPD*%
G01*
G04 APERTURE LIST*
G04 Aperture macros list*
%AMRoundRect*
0 Rectangle with rounded corners*
0 $1 Rounding radius*
0 $2 $3 $4 $5 $6 $7 $8 $9 X,Y pos of 4 corners*
0 Add a 4 corners polygon primitive as box body*
4,1,4,$2,$3,$4,$5,$6,$7,$8,$9,$2,$3,0*
0 Add four circle primitives for the rounded corners*
1,1,$1+$1,$2,$3*
1,1,$1+$1,$4,$5*
1,1,$1+$1,$6,$7*
1,1,$1+$1,$8,$9*
0 Add four rect primitives between the rounded corners*
20,1,$1+$1,$2,$3,$4,$5,0*
20,1,$1+$1,$4,$5,$6,$7,0*
20,1,$1+$1,$6,$7,$8,$9,0*
20,1,$1+$1,$8,$9,$2,$3,0*%
G04 Aperture macros list end*
%ADD10C,0.150000*%
%ADD11C,0.250000*%
%ADD12C,0.120000*%
%ADD13R,1.500000X0.600000*%
%ADD14RoundRect,0.225000X-0.225000X-0.250000X0.225000X-0.250000X0.225000X0.250000X-0.225000X0.250000X0*%
%ADD15RoundRect,0.250000X0.625000X-0.350000X0.625000X0.350000X-0.625000X0.350000X-0.625000X-0.350000X0*%
%ADD16O,1.750000X1.200000*%
%ADD17RoundRect,0.225000X-0.250000X0.225000X-0.250000X-0.225000X0.250000X-0.225000X0.250000X0.225000X0*%
%ADD18RoundRect,0.250000X0.550000X-1.500000X0.550000X1.500000X-0.550000X1.500000X-0.550000X-1.500000X0*%
%ADD19R,1.700000X1.700000*%
%ADD20O,1.700000X1.700000*%
G04 APERTURE END LIST*
D10*
X140068300Y-78994000D02*
X180632100Y-78994000D01*
X180632100Y-117602000D01*
X140068300Y-117602000D01*
X140068300Y-78994000D01*
D11*
X142791739Y-97639201D02*
X143291739Y-97805867D01*
X143291739Y-97805867D02*
X144125073Y-97805867D01*
X144125073Y-97805867D02*
X144458406Y-97639201D01*
X144458406Y-97639201D02*
X144625073Y-97472534D01*
X144625073Y-97472534D02*
X144791739Y-97139201D01*
X144791739Y-97139201D02*
X144791739Y-96805867D01*
X144791739Y-96805867D02*
X144625073Y-96472534D01*
X144625073Y-96472534D02*
X144458406Y-96305867D01*
X144458406Y-96305867D02*
X144125073Y-96139201D01*
X144125073Y-96139201D02*
X143458406Y-95972534D01*
X143458406Y-95972534D02*
X143125073Y-95805867D01*
X143125073Y-95805867D02*
X142958406Y-95639201D01*
X142958406Y-95639201D02*
X142791739Y-95305867D01*
X142791739Y-95305867D02*
X142791739Y-94972534D01*
X142791739Y-94972534D02*
X142958406Y-94639201D01*
X142958406Y-94639201D02*
X143125073Y-94472534D01*
X143125073Y-94472534D02*
X143458406Y-94305867D01*
X143458406Y-94305867D02*
X144291739Y-94305867D01*
X144291739Y-94305867D02*
X144791739Y-94472534D01*
X145791739Y-95472534D02*
X147125072Y-95472534D01*
X146291739Y-94305867D02*
X146291739Y-97305867D01*
X146291739Y-97305867D02*
X146458406Y-97639201D01*
X146458406Y-97639201D02*
X146791739Y-97805867D01*
X146791739Y-97805867D02*
X147125072Y-97805867D01*
X149625072Y-97639201D02*
X149291739Y-97805867D01*
X149291739Y-97805867D02*
X148625072Y-97805867D01*
X148625072Y-97805867D02*
X148291739Y-97639201D01*
X148291739Y-97639201D02*
X148125072Y-97305867D01*
X148125072Y-97305867D02*
X148125072Y-95972534D01*
X148125072Y-95972534D02*
X148291739Y-95639201D01*
X148291739Y-95639201D02*
X148625072Y-95472534D01*
X148625072Y-95472534D02*
X149291739Y-95472534D01*
X149291739Y-95472534D02*
X149625072Y-95639201D01*
X149625072Y-95639201D02*
X149791739Y-95972534D01*
X149791739Y-95972534D02*
X149791739Y-96305867D01*
X149791739Y-96305867D02*
X148125072Y-96639201D01*
X151291739Y-95472534D02*
X151291739Y-98972534D01*
X151291739Y-95639201D02*
X151625072Y-95472534D01*
X151625072Y-95472534D02*
X152291739Y-95472534D01*
X152291739Y-95472534D02*
X152625072Y-95639201D01*
X152625072Y-95639201D02*
X152791739Y-95805867D01*
X152791739Y-95805867D02*
X152958406Y-96139201D01*
X152958406Y-96139201D02*
X152958406Y-97139201D01*
X152958406Y-97139201D02*
X152791739Y-97472534D01*
X152791739Y-97472534D02*
X152625072Y-97639201D01*
X152625072Y-97639201D02*
X152291739Y-97805867D01*
X152291739Y-97805867D02*
X151625072Y-97805867D01*
X151625072Y-97805867D02*
X151291739Y-97639201D01*
X154458406Y-95472534D02*
X154458406Y-98972534D01*
X154458406Y-95639201D02*
X154791739Y-95472534D01*
X154791739Y-95472534D02*
X155458406Y-95472534D01*
X155458406Y-95472534D02*
X155791739Y-95639201D01*
X155791739Y-95639201D02*
X155958406Y-95805867D01*
X155958406Y-95805867D02*
X156125073Y-96139201D01*
X156125073Y-96139201D02*
X156125073Y-97139201D01*
X156125073Y-97139201D02*
X155958406Y-97472534D01*
X155958406Y-97472534D02*
X155791739Y-97639201D01*
X155791739Y-97639201D02*
X155458406Y-97805867D01*
X155458406Y-97805867D02*
X154791739Y-97805867D01*
X154791739Y-97805867D02*
X154458406Y-97639201D01*
X158958406Y-97639201D02*
X158625073Y-97805867D01*
X158625073Y-97805867D02*
X157958406Y-97805867D01*
X157958406Y-97805867D02*
X157625073Y-97639201D01*
X157625073Y-97639201D02*
X157458406Y-97305867D01*
X157458406Y-97305867D02*
X157458406Y-95972534D01*
X157458406Y-95972534D02*
X157625073Y-95639201D01*
X157625073Y-95639201D02*
X157958406Y-95472534D01*
X157958406Y-95472534D02*
X158625073Y-95472534D01*
X158625073Y-95472534D02*
X158958406Y-95639201D01*
X158958406Y-95639201D02*
X159125073Y-95972534D01*
X159125073Y-95972534D02*
X159125073Y-96305867D01*
X159125073Y-96305867D02*
X157458406Y-96639201D01*
X160625073Y-97805867D02*
X160625073Y-95472534D01*
X160625073Y-96139201D02*
X160791740Y-95805867D01*
X160791740Y-95805867D02*
X160958406Y-95639201D01*
X160958406Y-95639201D02*
X161291740Y-95472534D01*
X161291740Y-95472534D02*
X161625073Y-95472534D01*
X165458407Y-97805867D02*
X165458407Y-94305867D01*
X165458407Y-94305867D02*
X166625074Y-96805867D01*
X166625074Y-96805867D02*
X167791740Y-94305867D01*
X167791740Y-94305867D02*
X167791740Y-97805867D01*
X169958407Y-97805867D02*
X169625074Y-97639201D01*
X169625074Y-97639201D02*
X169458407Y-97472534D01*
X169458407Y-97472534D02*
X169291740Y-97139201D01*
X169291740Y-97139201D02*
X169291740Y-96139201D01*
X169291740Y-96139201D02*
X169458407Y-95805867D01*
X169458407Y-95805867D02*
X169625074Y-95639201D01*
X169625074Y-95639201D02*
X169958407Y-95472534D01*
X169958407Y-95472534D02*
X170458407Y-95472534D01*
X170458407Y-95472534D02*
X170791740Y-95639201D01*
X170791740Y-95639201D02*
X170958407Y-95805867D01*
X170958407Y-95805867D02*
X171125074Y-96139201D01*
X171125074Y-96139201D02*
X171125074Y-97139201D01*
X171125074Y-97139201D02*
X170958407Y-97472534D01*
X170958407Y-97472534D02*
X170791740Y-97639201D01*
X170791740Y-97639201D02*
X170458407Y-97805867D01*
X170458407Y-97805867D02*
X169958407Y-97805867D01*
X172125074Y-95472534D02*
X173458407Y-95472534D01*
X172625074Y-94305867D02*
X172625074Y-97305867D01*
X172625074Y-97305867D02*
X172791741Y-97639201D01*
X172791741Y-97639201D02*
X173125074Y-97805867D01*
X173125074Y-97805867D02*
X173458407Y-97805867D01*
X175125074Y-97805867D02*
X174791741Y-97639201D01*
X174791741Y-97639201D02*
X174625074Y-97472534D01*
X174625074Y-97472534D02*
X174458407Y-97139201D01*
X174458407Y-97139201D02*
X174458407Y-96139201D01*
X174458407Y-96139201D02*
X174625074Y-95805867D01*
X174625074Y-95805867D02*
X174791741Y-95639201D01*
X174791741Y-95639201D02*
X175125074Y-95472534D01*
X175125074Y-95472534D02*
X175625074Y-95472534D01*
X175625074Y-95472534D02*
X175958407Y-95639201D01*
X175958407Y-95639201D02*
X176125074Y-95805867D01*
X176125074Y-95805867D02*
X176291741Y-96139201D01*
X176291741Y-96139201D02*
X176291741Y-97139201D01*
X176291741Y-97139201D02*
X176125074Y-97472534D01*
X176125074Y-97472534D02*
X175958407Y-97639201D01*
X175958407Y-97639201D02*
X175625074Y-97805867D01*
X175625074Y-97805867D02*
X175125074Y-97805867D01*
X177791741Y-97805867D02*
X177791741Y-95472534D01*
X177791741Y-96139201D02*
X177958408Y-95805867D01*
X177958408Y-95805867D02*
X178125074Y-95639201D01*
X178125074Y-95639201D02*
X178458408Y-95472534D01*
X178458408Y-95472534D02*
X178791741Y-95472534D01*
D10*
X124520295Y-89891819D02*
X124520295Y-90701342D01*
X124520295Y-90701342D02*
X124567914Y-90796580D01*
X124567914Y-90796580D02*
X124615533Y-90844200D01*
X124615533Y-90844200D02*
X124710771Y-90891819D01*
X124710771Y-90891819D02*
X124901247Y-90891819D01*
X124901247Y-90891819D02*
X124996485Y-90844200D01*
X124996485Y-90844200D02*
X125044104Y-90796580D01*
X125044104Y-90796580D02*
X125091723Y-90701342D01*
X125091723Y-90701342D02*
X125091723Y-89891819D01*
X126091723Y-90891819D02*
X125520295Y-90891819D01*
X125806009Y-90891819D02*
X125806009Y-89891819D01*
X125806009Y-89891819D02*
X125710771Y-90034676D01*
X125710771Y-90034676D02*
X125615533Y-90129914D01*
X125615533Y-90129914D02*
X125520295Y-90177533D01*
X129464933Y-89038780D02*
X129417314Y-89086400D01*
X129417314Y-89086400D02*
X129274457Y-89134019D01*
X129274457Y-89134019D02*
X129179219Y-89134019D01*
X129179219Y-89134019D02*
X129036362Y-89086400D01*
X129036362Y-89086400D02*
X128941124Y-88991161D01*
X128941124Y-88991161D02*
X128893505Y-88895923D01*
X128893505Y-88895923D02*
X128845886Y-88705447D01*
X128845886Y-88705447D02*
X128845886Y-88562590D01*
X128845886Y-88562590D02*
X128893505Y-88372114D01*
X128893505Y-88372114D02*
X128941124Y-88276876D01*
X128941124Y-88276876D02*
X129036362Y-88181638D01*
X129036362Y-88181638D02*
X129179219Y-88134019D01*
X129179219Y-88134019D02*
X129274457Y-88134019D01*
X129274457Y-88134019D02*
X129417314Y-88181638D01*
X129417314Y-88181638D02*
X129464933Y-88229257D01*
X130417314Y-89134019D02*
X129845886Y-89134019D01*
X130131600Y-89134019D02*
X130131600Y-88134019D01*
X130131600Y-88134019D02*
X130036362Y-88276876D01*
X130036362Y-88276876D02*
X129941124Y-88372114D01*
X129941124Y-88372114D02*
X129845886Y-88419733D01*
X130462419Y-97046533D02*
X131176704Y-97046533D01*
X131176704Y-97046533D02*
X131319561Y-97094152D01*
X131319561Y-97094152D02*
X131414800Y-97189390D01*
X131414800Y-97189390D02*
X131462419Y-97332247D01*
X131462419Y-97332247D02*
X131462419Y-97427485D01*
X131462419Y-96046533D02*
X131462419Y-96617961D01*
X131462419Y-96332247D02*
X130462419Y-96332247D01*
X130462419Y-96332247D02*
X130605276Y-96427485D01*
X130605276Y-96427485D02*
X130700514Y-96522723D01*
X130700514Y-96522723D02*
X130748133Y-96617961D01*
X121652180Y-102046066D02*
X121699800Y-102093685D01*
X121699800Y-102093685D02*
X121747419Y-102236542D01*
X121747419Y-102236542D02*
X121747419Y-102331780D01*
X121747419Y-102331780D02*
X121699800Y-102474637D01*
X121699800Y-102474637D02*
X121604561Y-102569875D01*
X121604561Y-102569875D02*
X121509323Y-102617494D01*
X121509323Y-102617494D02*
X121318847Y-102665113D01*
X121318847Y-102665113D02*
X121175990Y-102665113D01*
X121175990Y-102665113D02*
X120985514Y-102617494D01*
X120985514Y-102617494D02*
X120890276Y-102569875D01*
X120890276Y-102569875D02*
X120795038Y-102474637D01*
X120795038Y-102474637D02*
X120747419Y-102331780D01*
X120747419Y-102331780D02*
X120747419Y-102236542D01*
X120747419Y-102236542D02*
X120795038Y-102093685D01*
X120795038Y-102093685D02*
X120842657Y-102046066D01*
X120842657Y-101665113D02*
X120795038Y-101617494D01*
X120795038Y-101617494D02*
X120747419Y-101522256D01*
X120747419Y-101522256D02*
X120747419Y-101284161D01*
X120747419Y-101284161D02*
X120795038Y-101188923D01*
X120795038Y-101188923D02*
X120842657Y-101141304D01*
X120842657Y-101141304D02*
X120937895Y-101093685D01*
X120937895Y-101093685D02*
X121033133Y-101093685D01*
X121033133Y-101093685D02*
X121175990Y-101141304D01*
X121175990Y-101141304D02*
X121747419Y-101712732D01*
X121747419Y-101712732D02*
X121747419Y-101093685D01*
X124822380Y-84103666D02*
X124870000Y-84151285D01*
X124870000Y-84151285D02*
X124917619Y-84294142D01*
X124917619Y-84294142D02*
X124917619Y-84389380D01*
X124917619Y-84389380D02*
X124870000Y-84532237D01*
X124870000Y-84532237D02*
X124774761Y-84627475D01*
X124774761Y-84627475D02*
X124679523Y-84675094D01*
X124679523Y-84675094D02*
X124489047Y-84722713D01*
X124489047Y-84722713D02*
X124346190Y-84722713D01*
X124346190Y-84722713D02*
X124155714Y-84675094D01*
X124155714Y-84675094D02*
X124060476Y-84627475D01*
X124060476Y-84627475D02*
X123965238Y-84532237D01*
X123965238Y-84532237D02*
X123917619Y-84389380D01*
X123917619Y-84389380D02*
X123917619Y-84294142D01*
X123917619Y-84294142D02*
X123965238Y-84151285D01*
X123965238Y-84151285D02*
X124012857Y-84103666D01*
X123917619Y-83770332D02*
X123917619Y-83151285D01*
X123917619Y-83151285D02*
X124298571Y-83484618D01*
X124298571Y-83484618D02*
X124298571Y-83341761D01*
X124298571Y-83341761D02*
X124346190Y-83246523D01*
X124346190Y-83246523D02*
X124393809Y-83198904D01*
X124393809Y-83198904D02*
X124489047Y-83151285D01*
X124489047Y-83151285D02*
X124727142Y-83151285D01*
X124727142Y-83151285D02*
X124822380Y-83198904D01*
X124822380Y-83198904D02*
X124870000Y-83246523D01*
X124870000Y-83246523D02*
X124917619Y-83341761D01*
X124917619Y-83341761D02*
X124917619Y-83627475D01*
X124917619Y-83627475D02*
X124870000Y-83722713D01*
X124870000Y-83722713D02*
X124822380Y-83770332D01*
%TO.C,U1*%
X122507200Y-91362000D02*
X122507200Y-91637000D01*
X122507200Y-91362000D02*
X128057200Y-91362000D01*
X122507200Y-91637000D02*
X120982200Y-91637000D01*
X122507200Y-101912000D02*
X122507200Y-101557000D01*
X122507200Y-101912000D02*
X128057200Y-101912000D01*
X128057200Y-91362000D02*
X128057200Y-91717000D01*
X128057200Y-101912000D02*
X128057200Y-101557000D01*
D12*
%TO.C,C1*%
X129491020Y-89599200D02*
X129772180Y-89599200D01*
X129491020Y-90619200D02*
X129772180Y-90619200D01*
%TO.C,J1*%
X131797600Y-100823200D02*
X131797600Y-102073200D01*
X131797600Y-102073200D02*
X133047600Y-102073200D01*
X131897600Y-100013200D02*
X131897600Y-100313200D01*
X131897600Y-100313200D02*
X132097600Y-100313200D01*
X131997600Y-100013200D02*
X131997600Y-100313200D01*
X132097600Y-91653200D02*
X132097600Y-101773200D01*
X132097600Y-99213200D02*
X132707600Y-99213200D01*
X132097600Y-100013200D02*
X131897600Y-100013200D01*
X132097600Y-101773200D02*
X136817600Y-101773200D01*
X132707600Y-92263200D02*
X132707600Y-94213200D01*
X132707600Y-94213200D02*
X132097600Y-94213200D01*
X132707600Y-99213200D02*
X132707600Y-101163200D01*
X132707600Y-101163200D02*
X136207600Y-101163200D01*
X133407600Y-91653200D02*
X133407600Y-92263200D01*
X133407600Y-101773200D02*
X133407600Y-101163200D01*
X134707600Y-91653200D02*
X134707600Y-92263200D01*
X134707600Y-101773200D02*
X134707600Y-101163200D01*
X135707600Y-94613200D02*
X136207600Y-94613200D01*
X135707600Y-94813200D02*
X135707600Y-94613200D01*
X135707600Y-96613200D02*
X136207600Y-96613200D01*
X135707600Y-96813200D02*
X135707600Y-96613200D01*
X135707600Y-98613200D02*
X136207600Y-98613200D01*
X135707600Y-98813200D02*
X135707600Y-98613200D01*
X136207600Y-92263200D02*
X132707600Y-92263200D01*
X136207600Y-94713200D02*
X135707600Y-94713200D01*
X136207600Y-94813200D02*
X135707600Y-94813200D01*
X136207600Y-96713200D02*
X135707600Y-96713200D01*
X136207600Y-96813200D02*
X135707600Y-96813200D01*
X136207600Y-98713200D02*
X135707600Y-98713200D01*
X136207600Y-98813200D02*
X135707600Y-98813200D01*
X136207600Y-101163200D02*
X136207600Y-92263200D01*
X136817600Y-91653200D02*
X132097600Y-91653200D01*
X136817600Y-101773200D02*
X136817600Y-91653200D01*
%TO.C,C2*%
X119352600Y-101738820D02*
X119352600Y-102019980D01*
X120372600Y-101738820D02*
X120372600Y-102019980D01*
%TO.C,C3*%
X125402800Y-80527000D02*
X127752800Y-80527000D01*
X125402800Y-86282563D02*
X125402800Y-80527000D01*
X126467237Y-87347000D02*
X125402800Y-86282563D01*
X126467237Y-87347000D02*
X127752800Y-87347000D01*
X126571550Y-87980750D02*
X127359050Y-87980750D01*
X126965300Y-88374500D02*
X126965300Y-87587000D01*
X131158363Y-87347000D02*
X129872800Y-87347000D01*
X131158363Y-87347000D02*
X132222800Y-86282563D01*
X132222800Y-80527000D02*
X129872800Y-80527000D01*
X132222800Y-86282563D02*
X132222800Y-80527000D01*
%TD*%
%LPC*%
D13*
%TO.C,U1*%
X121732200Y-92192000D03*
X121732200Y-93462000D03*
X121732200Y-94732000D03*
X121732200Y-96002000D03*
X121732200Y-97272000D03*
X121732200Y-98542000D03*
X121732200Y-99812000D03*
X121732200Y-101082000D03*
X128832200Y-101082000D03*
X128832200Y-99812000D03*
X128832200Y-98542000D03*
X128832200Y-97272000D03*
X128832200Y-96002000D03*
X128832200Y-94732000D03*
X128832200Y-93462000D03*
X128832200Y-92192000D03*
%TD*%
D14*
%TO.C,C1*%
X128856600Y-90109200D03*
X130406600Y-90109200D03*
%TD*%
D15*
%TO.C,J1*%
X133907600Y-99713200D03*
D16*
X133907600Y-97713200D03*
X133907600Y-95713200D03*
X133907600Y-93713200D03*
%TD*%
D17*
%TO.C,C2*%
X119862600Y-101104400D03*
X119862600Y-102654400D03*
%TD*%
D18*
%TO.C,C3*%
X128812800Y-86737000D03*
X128812800Y-81137000D03*
%TD*%
D19*
%TO.C,J3*%
X190075546Y-89335546D03*
D20*
X187535546Y-89335546D03*
X190075546Y-91875546D03*
X187535546Y-91875546D03*
X190075546Y-94415546D03*
X187535546Y-94415546D03*
X190075546Y-96955546D03*
X187535546Y-96955546D03*
X190075546Y-99495546D03*
X187535546Y-99495546D03*
X190075546Y-102035546D03*
X187535546Y-102035546D03*
X190075546Y-104575546D03*
X187535546Y-104575546D03*
X190075546Y-107115546D03*
X187535546Y-107115546D03*
%TD*%
D19*
%TO.C,J2*%
X103535546Y-86795546D03*
D20*
X100995546Y-86795546D03*
X103535546Y-89335546D03*
X100995546Y-89335546D03*
X103535546Y-91875546D03*
X100995546Y-91875546D03*
X103535546Y-94415546D03*
X100995546Y-94415546D03*
X103535546Y-96955546D03*
X100995546Y-96955546D03*
X103535546Y-99495546D03*
X100995546Y-99495546D03*
X103535546Y-102035546D03*
X100995546Y-102035546D03*
X103535546Y-104575546D03*
X100995546Y-104575546D03*
X103535546Y-107115546D03*
X100995546Y-107115546D03*
X103535546Y-109655546D03*
X100995546Y-109655546D03*
%TD*%
%LPD*%
M02*
