M48
; DRILL file {KiCad 8.0.3} date 2025-07-14T16:29:20+0200
; FORMAT={-:-/ absolute / inch / decimal}
; #@! TF.CreationDate,2025-07-14T16:29:20+02:00
; #@! TF.GenerationSoftware,Kicad,Pcbnew,8.0.3
; #@! TF.FileFunction,Plated,1,2,PTH
FMAT,2
INCH
; #@! TA.AperFunction,Plated,PTH,ViaDrill
T1C0.0118
; #@! TA.AperFunction,Plated,PTH,ViaDrill
T2C0.0157
; #@! TA.AperFunction,Plated,PTH,ComponentDrill
T3C0.0295
; #@! TA.AperFunction,Plated,PTH,ComponentDrill
T4C0.0394
%
G90
G05
T1
X4.3299Y-3.4771
X4.3299Y-3.5771
X4.3299Y-3.6771
X4.3299Y-3.7771
X4.3299Y-3.8771
X4.3299Y-3.9771
X4.3299Y-4.0771
X4.3299Y-4.175
X4.3999Y-3.4771
X4.3999Y-3.5771
X4.3999Y-3.6771
X4.3999Y-3.7771
X4.3999Y-3.8771
X4.3999Y-3.9771
X4.3999Y-4.0771
X4.3999Y-4.175
X4.4689Y-3.4771
X4.4689Y-3.5771
X4.4689Y-3.6771
X4.4689Y-3.7771
X4.4689Y-3.8771
X4.4689Y-3.9771
X4.4689Y-4.0771
X4.4689Y-4.175
X4.544Y-3.4762
X4.544Y-3.5762
X4.544Y-3.6762
X4.544Y-3.7762
X4.544Y-3.8762
X4.544Y-3.9762
X4.544Y-4.0762
X4.544Y-4.1741
X4.6099Y-3.4761
X4.6099Y-3.5761
X4.6099Y-3.6761
X4.6099Y-3.7761
X4.6099Y-3.8761
X4.6099Y-3.9761
X4.6099Y-4.0761
X4.6099Y-4.174
X4.684Y-3.98
X4.719Y-4.073
X4.746Y-3.78
X4.746Y-3.829
X5.04Y-3.547
X5.1166Y-3.9296
X5.119Y-3.829
X5.12Y-3.78
X5.167Y-3.547
T2
X5.072Y-4.014
T3
X5.272Y-3.6895
X5.272Y-3.7682
X5.272Y-3.847
X5.272Y-3.9257
T4
X3.9762Y-3.4171
X3.9762Y-3.5171
X3.9762Y-3.6171
X3.9762Y-3.7171
X3.9762Y-3.8171
X3.9762Y-3.9171
X3.9762Y-4.0171
X3.9762Y-4.1171
X3.9762Y-4.2171
X3.9762Y-4.3171
X4.0762Y-3.4171
X4.0762Y-3.5171
X4.0762Y-3.6171
X4.0762Y-3.7171
X4.0762Y-3.8171
X4.0762Y-3.9171
X4.0762Y-4.0171
X4.0762Y-4.1171
X4.0762Y-4.2171
X4.0762Y-4.3171
X7.3833Y-3.5171
X7.3833Y-3.6171
X7.3833Y-3.7171
X7.3833Y-3.8171
X7.3833Y-3.9171
X7.3833Y-4.0171
X7.3833Y-4.1171
X7.3833Y-4.2171
X7.4833Y-3.5171
X7.4833Y-3.6171
X7.4833Y-3.7171
X7.4833Y-3.8171
X7.4833Y-3.9171
X7.4833Y-4.0171
X7.4833Y-4.1171
X7.4833Y-4.2171
M30
