%TF.GenerationSoftware,KiCad,Pcbnew,8.0.3*%
%TF.CreationDate,2025-07-14T16:29:20+02:00*%
%TF.ProjectId,ScxhrittmotorBoard,53637868-7269-4747-946d-6f746f72426f,rev?*%
%TF.SameCoordinates,Original*%
%TF.FileFunction,Paste,Bot*%
%TF.FilePolarity,Positive*%
%FSLAX46Y46*%
G04 Gerber Fmt 4.6, Leading zero omitted, Abs format (unit mm)*
G04 Created by KiCad (PCBNEW 8.0.3) date 2025-07-14 16:29:20*
%MOMM*%
%LPD*%
G01*
G04 APERTURE LIST*
G04 Aperture macros list*
%AMRoundRect*
0 Rectangle with rounded corners*
0 $1 Rounding radius*
0 $2 $3 $4 $5 $6 $7 $8 $9 X,Y pos of 4 corners*
0 Add a 4 corners polygon primitive as box body*
4,1,4,$2,$3,$4,$5,$6,$7,$8,$9,$2,$3,0*
0 Add four circle primitives for the rounded corners*
1,1,$1+$1,$2,$3*
1,1,$1+$1,$4,$5*
1,1,$1+$1,$6,$7*
1,1,$1+$1,$8,$9*
0 Add four rect primitives between the rounded corners*
20,1,$1+$1,$2,$3,$4,$5,0*
20,1,$1+$1,$4,$5,$6,$7,0*
20,1,$1+$1,$6,$7,$8,$9,0*
20,1,$1+$1,$8,$9,$2,$3,0*%
G04 Aperture macros list end*
%ADD10RoundRect,0.135000X0.185000X-0.135000X0.185000X0.135000X-0.185000X0.135000X-0.185000X-0.135000X0*%
G04 APERTURE END LIST*
D10*
%TO.C,R4*%
X116228527Y-99497546D03*
X116228527Y-98477546D03*
%TD*%
%TO.C,R10*%
X109040327Y-104577546D03*
X109040327Y-103557546D03*
%TD*%
%TO.C,R25*%
X112596327Y-107066746D03*
X112596327Y-106046746D03*
%TD*%
%TO.C,R22*%
X110919927Y-94417546D03*
X110919927Y-93397546D03*
%TD*%
%TO.C,R6*%
X116228527Y-94417546D03*
X116228527Y-93397546D03*
%TD*%
%TO.C,R1*%
X116228527Y-107066746D03*
X116228527Y-106046746D03*
%TD*%
%TO.C,R12*%
X109040327Y-99497546D03*
X109040327Y-98477546D03*
%TD*%
%TO.C,R2*%
X116228527Y-104577546D03*
X116228527Y-103557546D03*
%TD*%
%TO.C,R34*%
X114577527Y-104577546D03*
X114577527Y-103557546D03*
%TD*%
%TO.C,R15*%
X109040327Y-91877546D03*
X109040327Y-90857546D03*
%TD*%
%TO.C,R37*%
X114577527Y-96957546D03*
X114577527Y-95937546D03*
%TD*%
%TO.C,R21*%
X110919927Y-96957546D03*
X110919927Y-95937546D03*
%TD*%
%TO.C,R13*%
X109040327Y-96957546D03*
X109040327Y-95937546D03*
%TD*%
%TO.C,R29*%
X112596327Y-96957546D03*
X112596327Y-95937546D03*
%TD*%
%TO.C,R33*%
X114577527Y-107066746D03*
X114577527Y-106046746D03*
%TD*%
%TO.C,R9*%
X109040327Y-107066746D03*
X109040327Y-106046746D03*
%TD*%
%TO.C,R30*%
X112596327Y-94417546D03*
X112596327Y-93397546D03*
%TD*%
%TO.C,R17*%
X110919927Y-107066746D03*
X110919927Y-106046746D03*
%TD*%
%TO.C,R5*%
X116228527Y-96957546D03*
X116228527Y-95937546D03*
%TD*%
%TO.C,R27*%
X112596327Y-102037546D03*
X112596327Y-101017546D03*
%TD*%
%TO.C,R18*%
X110919927Y-104577546D03*
X110919927Y-103557546D03*
%TD*%
%TO.C,R39*%
X114577527Y-91877546D03*
X114577527Y-90857546D03*
%TD*%
%TO.C,R7*%
X116228527Y-91877546D03*
X116228527Y-90857546D03*
%TD*%
%TO.C,R35*%
X114577527Y-102037546D03*
X114577527Y-101017546D03*
%TD*%
%TO.C,R11*%
X109040327Y-102037546D03*
X109040327Y-101017546D03*
%TD*%
%TO.C,R3*%
X116228527Y-102037546D03*
X116228527Y-101017546D03*
%TD*%
%TO.C,R40*%
X114577527Y-89337546D03*
X114577527Y-88317546D03*
%TD*%
%TO.C,R14*%
X109040327Y-94417546D03*
X109040327Y-93397546D03*
%TD*%
%TO.C,R20*%
X110919927Y-99497546D03*
X110919927Y-98477546D03*
%TD*%
%TO.C,R23*%
X110919927Y-91877546D03*
X110919927Y-90857546D03*
%TD*%
%TO.C,R24*%
X110919927Y-89337546D03*
X110919927Y-88317546D03*
%TD*%
%TO.C,R36*%
X114577527Y-99497546D03*
X114577527Y-98477546D03*
%TD*%
%TO.C,R28*%
X112596327Y-99497546D03*
X112596327Y-98477546D03*
%TD*%
%TO.C,R31*%
X112596327Y-91877546D03*
X112596327Y-90857546D03*
%TD*%
%TO.C,R8*%
X116228527Y-89337546D03*
X116228527Y-88317546D03*
%TD*%
%TO.C,R16*%
X109040327Y-89337546D03*
X109040327Y-88317546D03*
%TD*%
%TO.C,R19*%
X110919927Y-102037546D03*
X110919927Y-101017546D03*
%TD*%
%TO.C,R26*%
X112596327Y-104577546D03*
X112596327Y-103557546D03*
%TD*%
%TO.C,R32*%
X112596327Y-89337546D03*
X112596327Y-88317546D03*
%TD*%
%TO.C,R38*%
X114577527Y-94417546D03*
X114577527Y-93397546D03*
%TD*%
M02*
