%TF.GenerationSoftware,KiCad,Pcbnew,8.0.3*%
%TF.CreationDate,2025-07-14T16:29:20+02:00*%
%TF.ProjectId,ScxhrittmotorBoard,53637868-7269-4747-946d-6f746f72426f,rev?*%
%TF.SameCoordinates,Original*%
%TF.FileFunction,Legend,Bot*%
%TF.FilePolarity,Positive*%
%FSLAX46Y46*%
G04 Gerber Fmt 4.6, Leading zero omitted, Abs format (unit mm)*
G04 Created by KiCad (PCBNEW 8.0.3) date 2025-07-14 16:29:20*
%MOMM*%
%LPD*%
G01*
G04 APERTURE LIST*
G04 Aperture macros list*
%AMRoundRect*
0 Rectangle with rounded corners*
0 $1 Rounding radius*
0 $2 $3 $4 $5 $6 $7 $8 $9 X,Y pos of 4 corners*
0 Add a 4 corners polygon primitive as box body*
4,1,4,$2,$3,$4,$5,$6,$7,$8,$9,$2,$3,0*
0 Add four circle primitives for the rounded corners*
1,1,$1+$1,$2,$3*
1,1,$1+$1,$4,$5*
1,1,$1+$1,$6,$7*
1,1,$1+$1,$8,$9*
0 Add four rect primitives between the rounded corners*
20,1,$1+$1,$2,$3,$4,$5,0*
20,1,$1+$1,$4,$5,$6,$7,0*
20,1,$1+$1,$6,$7,$8,$9,0*
20,1,$1+$1,$8,$9,$2,$3,0*%
G04 Aperture macros list end*
%ADD10C,0.150000*%
%ADD11C,0.120000*%
%ADD12RoundRect,0.250000X0.625000X-0.350000X0.625000X0.350000X-0.625000X0.350000X-0.625000X-0.350000X0*%
%ADD13O,1.750000X1.200000*%
%ADD14RoundRect,0.135000X0.185000X-0.135000X0.185000X0.135000X-0.185000X0.135000X-0.185000X-0.135000X0*%
%ADD15R,1.700000X1.700000*%
%ADD16O,1.700000X1.700000*%
G04 APERTURE END LIST*
D10*
X117853346Y-98820879D02*
X117377155Y-98487546D01*
X117853346Y-98249451D02*
X116853346Y-98249451D01*
X116853346Y-98249451D02*
X116853346Y-98630403D01*
X116853346Y-98630403D02*
X116900965Y-98725641D01*
X116900965Y-98725641D02*
X116948584Y-98773260D01*
X116948584Y-98773260D02*
X117043822Y-98820879D01*
X117043822Y-98820879D02*
X117186679Y-98820879D01*
X117186679Y-98820879D02*
X117281917Y-98773260D01*
X117281917Y-98773260D02*
X117329536Y-98725641D01*
X117329536Y-98725641D02*
X117377155Y-98630403D01*
X117377155Y-98630403D02*
X117377155Y-98249451D01*
X117186679Y-99678022D02*
X117853346Y-99678022D01*
X116805727Y-99439927D02*
X117520012Y-99201832D01*
X117520012Y-99201832D02*
X117520012Y-99820879D01*
X110665146Y-103424688D02*
X110188955Y-103091355D01*
X110665146Y-102853260D02*
X109665146Y-102853260D01*
X109665146Y-102853260D02*
X109665146Y-103234212D01*
X109665146Y-103234212D02*
X109712765Y-103329450D01*
X109712765Y-103329450D02*
X109760384Y-103377069D01*
X109760384Y-103377069D02*
X109855622Y-103424688D01*
X109855622Y-103424688D02*
X109998479Y-103424688D01*
X109998479Y-103424688D02*
X110093717Y-103377069D01*
X110093717Y-103377069D02*
X110141336Y-103329450D01*
X110141336Y-103329450D02*
X110188955Y-103234212D01*
X110188955Y-103234212D02*
X110188955Y-102853260D01*
X110665146Y-104377069D02*
X110665146Y-103805641D01*
X110665146Y-104091355D02*
X109665146Y-104091355D01*
X109665146Y-104091355D02*
X109808003Y-103996117D01*
X109808003Y-103996117D02*
X109903241Y-103900879D01*
X109903241Y-103900879D02*
X109950860Y-103805641D01*
X109665146Y-104996117D02*
X109665146Y-105091355D01*
X109665146Y-105091355D02*
X109712765Y-105186593D01*
X109712765Y-105186593D02*
X109760384Y-105234212D01*
X109760384Y-105234212D02*
X109855622Y-105281831D01*
X109855622Y-105281831D02*
X110046098Y-105329450D01*
X110046098Y-105329450D02*
X110284193Y-105329450D01*
X110284193Y-105329450D02*
X110474669Y-105281831D01*
X110474669Y-105281831D02*
X110569907Y-105234212D01*
X110569907Y-105234212D02*
X110617527Y-105186593D01*
X110617527Y-105186593D02*
X110665146Y-105091355D01*
X110665146Y-105091355D02*
X110665146Y-104996117D01*
X110665146Y-104996117D02*
X110617527Y-104900879D01*
X110617527Y-104900879D02*
X110569907Y-104853260D01*
X110569907Y-104853260D02*
X110474669Y-104805641D01*
X110474669Y-104805641D02*
X110284193Y-104758022D01*
X110284193Y-104758022D02*
X110046098Y-104758022D01*
X110046098Y-104758022D02*
X109855622Y-104805641D01*
X109855622Y-104805641D02*
X109760384Y-104853260D01*
X109760384Y-104853260D02*
X109712765Y-104900879D01*
X109712765Y-104900879D02*
X109665146Y-104996117D01*
X114221146Y-105913888D02*
X113744955Y-105580555D01*
X114221146Y-105342460D02*
X113221146Y-105342460D01*
X113221146Y-105342460D02*
X113221146Y-105723412D01*
X113221146Y-105723412D02*
X113268765Y-105818650D01*
X113268765Y-105818650D02*
X113316384Y-105866269D01*
X113316384Y-105866269D02*
X113411622Y-105913888D01*
X113411622Y-105913888D02*
X113554479Y-105913888D01*
X113554479Y-105913888D02*
X113649717Y-105866269D01*
X113649717Y-105866269D02*
X113697336Y-105818650D01*
X113697336Y-105818650D02*
X113744955Y-105723412D01*
X113744955Y-105723412D02*
X113744955Y-105342460D01*
X113316384Y-106294841D02*
X113268765Y-106342460D01*
X113268765Y-106342460D02*
X113221146Y-106437698D01*
X113221146Y-106437698D02*
X113221146Y-106675793D01*
X113221146Y-106675793D02*
X113268765Y-106771031D01*
X113268765Y-106771031D02*
X113316384Y-106818650D01*
X113316384Y-106818650D02*
X113411622Y-106866269D01*
X113411622Y-106866269D02*
X113506860Y-106866269D01*
X113506860Y-106866269D02*
X113649717Y-106818650D01*
X113649717Y-106818650D02*
X114221146Y-106247222D01*
X114221146Y-106247222D02*
X114221146Y-106866269D01*
X113221146Y-107771031D02*
X113221146Y-107294841D01*
X113221146Y-107294841D02*
X113697336Y-107247222D01*
X113697336Y-107247222D02*
X113649717Y-107294841D01*
X113649717Y-107294841D02*
X113602098Y-107390079D01*
X113602098Y-107390079D02*
X113602098Y-107628174D01*
X113602098Y-107628174D02*
X113649717Y-107723412D01*
X113649717Y-107723412D02*
X113697336Y-107771031D01*
X113697336Y-107771031D02*
X113792574Y-107818650D01*
X113792574Y-107818650D02*
X114030669Y-107818650D01*
X114030669Y-107818650D02*
X114125907Y-107771031D01*
X114125907Y-107771031D02*
X114173527Y-107723412D01*
X114173527Y-107723412D02*
X114221146Y-107628174D01*
X114221146Y-107628174D02*
X114221146Y-107390079D01*
X114221146Y-107390079D02*
X114173527Y-107294841D01*
X114173527Y-107294841D02*
X114125907Y-107247222D01*
X112544746Y-93264688D02*
X112068555Y-92931355D01*
X112544746Y-92693260D02*
X111544746Y-92693260D01*
X111544746Y-92693260D02*
X111544746Y-93074212D01*
X111544746Y-93074212D02*
X111592365Y-93169450D01*
X111592365Y-93169450D02*
X111639984Y-93217069D01*
X111639984Y-93217069D02*
X111735222Y-93264688D01*
X111735222Y-93264688D02*
X111878079Y-93264688D01*
X111878079Y-93264688D02*
X111973317Y-93217069D01*
X111973317Y-93217069D02*
X112020936Y-93169450D01*
X112020936Y-93169450D02*
X112068555Y-93074212D01*
X112068555Y-93074212D02*
X112068555Y-92693260D01*
X111639984Y-93645641D02*
X111592365Y-93693260D01*
X111592365Y-93693260D02*
X111544746Y-93788498D01*
X111544746Y-93788498D02*
X111544746Y-94026593D01*
X111544746Y-94026593D02*
X111592365Y-94121831D01*
X111592365Y-94121831D02*
X111639984Y-94169450D01*
X111639984Y-94169450D02*
X111735222Y-94217069D01*
X111735222Y-94217069D02*
X111830460Y-94217069D01*
X111830460Y-94217069D02*
X111973317Y-94169450D01*
X111973317Y-94169450D02*
X112544746Y-93598022D01*
X112544746Y-93598022D02*
X112544746Y-94217069D01*
X111639984Y-94598022D02*
X111592365Y-94645641D01*
X111592365Y-94645641D02*
X111544746Y-94740879D01*
X111544746Y-94740879D02*
X111544746Y-94978974D01*
X111544746Y-94978974D02*
X111592365Y-95074212D01*
X111592365Y-95074212D02*
X111639984Y-95121831D01*
X111639984Y-95121831D02*
X111735222Y-95169450D01*
X111735222Y-95169450D02*
X111830460Y-95169450D01*
X111830460Y-95169450D02*
X111973317Y-95121831D01*
X111973317Y-95121831D02*
X112544746Y-94550403D01*
X112544746Y-94550403D02*
X112544746Y-95169450D01*
X117853346Y-93740879D02*
X117377155Y-93407546D01*
X117853346Y-93169451D02*
X116853346Y-93169451D01*
X116853346Y-93169451D02*
X116853346Y-93550403D01*
X116853346Y-93550403D02*
X116900965Y-93645641D01*
X116900965Y-93645641D02*
X116948584Y-93693260D01*
X116948584Y-93693260D02*
X117043822Y-93740879D01*
X117043822Y-93740879D02*
X117186679Y-93740879D01*
X117186679Y-93740879D02*
X117281917Y-93693260D01*
X117281917Y-93693260D02*
X117329536Y-93645641D01*
X117329536Y-93645641D02*
X117377155Y-93550403D01*
X117377155Y-93550403D02*
X117377155Y-93169451D01*
X116853346Y-94598022D02*
X116853346Y-94407546D01*
X116853346Y-94407546D02*
X116900965Y-94312308D01*
X116900965Y-94312308D02*
X116948584Y-94264689D01*
X116948584Y-94264689D02*
X117091441Y-94169451D01*
X117091441Y-94169451D02*
X117281917Y-94121832D01*
X117281917Y-94121832D02*
X117662869Y-94121832D01*
X117662869Y-94121832D02*
X117758107Y-94169451D01*
X117758107Y-94169451D02*
X117805727Y-94217070D01*
X117805727Y-94217070D02*
X117853346Y-94312308D01*
X117853346Y-94312308D02*
X117853346Y-94502784D01*
X117853346Y-94502784D02*
X117805727Y-94598022D01*
X117805727Y-94598022D02*
X117758107Y-94645641D01*
X117758107Y-94645641D02*
X117662869Y-94693260D01*
X117662869Y-94693260D02*
X117424774Y-94693260D01*
X117424774Y-94693260D02*
X117329536Y-94645641D01*
X117329536Y-94645641D02*
X117281917Y-94598022D01*
X117281917Y-94598022D02*
X117234298Y-94502784D01*
X117234298Y-94502784D02*
X117234298Y-94312308D01*
X117234298Y-94312308D02*
X117281917Y-94217070D01*
X117281917Y-94217070D02*
X117329536Y-94169451D01*
X117329536Y-94169451D02*
X117424774Y-94121832D01*
X117853346Y-106390079D02*
X117377155Y-106056746D01*
X117853346Y-105818651D02*
X116853346Y-105818651D01*
X116853346Y-105818651D02*
X116853346Y-106199603D01*
X116853346Y-106199603D02*
X116900965Y-106294841D01*
X116900965Y-106294841D02*
X116948584Y-106342460D01*
X116948584Y-106342460D02*
X117043822Y-106390079D01*
X117043822Y-106390079D02*
X117186679Y-106390079D01*
X117186679Y-106390079D02*
X117281917Y-106342460D01*
X117281917Y-106342460D02*
X117329536Y-106294841D01*
X117329536Y-106294841D02*
X117377155Y-106199603D01*
X117377155Y-106199603D02*
X117377155Y-105818651D01*
X117853346Y-107342460D02*
X117853346Y-106771032D01*
X117853346Y-107056746D02*
X116853346Y-107056746D01*
X116853346Y-107056746D02*
X116996203Y-106961508D01*
X116996203Y-106961508D02*
X117091441Y-106866270D01*
X117091441Y-106866270D02*
X117139060Y-106771032D01*
X110665146Y-98344688D02*
X110188955Y-98011355D01*
X110665146Y-97773260D02*
X109665146Y-97773260D01*
X109665146Y-97773260D02*
X109665146Y-98154212D01*
X109665146Y-98154212D02*
X109712765Y-98249450D01*
X109712765Y-98249450D02*
X109760384Y-98297069D01*
X109760384Y-98297069D02*
X109855622Y-98344688D01*
X109855622Y-98344688D02*
X109998479Y-98344688D01*
X109998479Y-98344688D02*
X110093717Y-98297069D01*
X110093717Y-98297069D02*
X110141336Y-98249450D01*
X110141336Y-98249450D02*
X110188955Y-98154212D01*
X110188955Y-98154212D02*
X110188955Y-97773260D01*
X110665146Y-99297069D02*
X110665146Y-98725641D01*
X110665146Y-99011355D02*
X109665146Y-99011355D01*
X109665146Y-99011355D02*
X109808003Y-98916117D01*
X109808003Y-98916117D02*
X109903241Y-98820879D01*
X109903241Y-98820879D02*
X109950860Y-98725641D01*
X109760384Y-99678022D02*
X109712765Y-99725641D01*
X109712765Y-99725641D02*
X109665146Y-99820879D01*
X109665146Y-99820879D02*
X109665146Y-100058974D01*
X109665146Y-100058974D02*
X109712765Y-100154212D01*
X109712765Y-100154212D02*
X109760384Y-100201831D01*
X109760384Y-100201831D02*
X109855622Y-100249450D01*
X109855622Y-100249450D02*
X109950860Y-100249450D01*
X109950860Y-100249450D02*
X110093717Y-100201831D01*
X110093717Y-100201831D02*
X110665146Y-99630403D01*
X110665146Y-99630403D02*
X110665146Y-100249450D01*
X117853346Y-103900879D02*
X117377155Y-103567546D01*
X117853346Y-103329451D02*
X116853346Y-103329451D01*
X116853346Y-103329451D02*
X116853346Y-103710403D01*
X116853346Y-103710403D02*
X116900965Y-103805641D01*
X116900965Y-103805641D02*
X116948584Y-103853260D01*
X116948584Y-103853260D02*
X117043822Y-103900879D01*
X117043822Y-103900879D02*
X117186679Y-103900879D01*
X117186679Y-103900879D02*
X117281917Y-103853260D01*
X117281917Y-103853260D02*
X117329536Y-103805641D01*
X117329536Y-103805641D02*
X117377155Y-103710403D01*
X117377155Y-103710403D02*
X117377155Y-103329451D01*
X116948584Y-104281832D02*
X116900965Y-104329451D01*
X116900965Y-104329451D02*
X116853346Y-104424689D01*
X116853346Y-104424689D02*
X116853346Y-104662784D01*
X116853346Y-104662784D02*
X116900965Y-104758022D01*
X116900965Y-104758022D02*
X116948584Y-104805641D01*
X116948584Y-104805641D02*
X117043822Y-104853260D01*
X117043822Y-104853260D02*
X117139060Y-104853260D01*
X117139060Y-104853260D02*
X117281917Y-104805641D01*
X117281917Y-104805641D02*
X117853346Y-104234213D01*
X117853346Y-104234213D02*
X117853346Y-104853260D01*
X116202346Y-103424688D02*
X115726155Y-103091355D01*
X116202346Y-102853260D02*
X115202346Y-102853260D01*
X115202346Y-102853260D02*
X115202346Y-103234212D01*
X115202346Y-103234212D02*
X115249965Y-103329450D01*
X115249965Y-103329450D02*
X115297584Y-103377069D01*
X115297584Y-103377069D02*
X115392822Y-103424688D01*
X115392822Y-103424688D02*
X115535679Y-103424688D01*
X115535679Y-103424688D02*
X115630917Y-103377069D01*
X115630917Y-103377069D02*
X115678536Y-103329450D01*
X115678536Y-103329450D02*
X115726155Y-103234212D01*
X115726155Y-103234212D02*
X115726155Y-102853260D01*
X115202346Y-103758022D02*
X115202346Y-104377069D01*
X115202346Y-104377069D02*
X115583298Y-104043736D01*
X115583298Y-104043736D02*
X115583298Y-104186593D01*
X115583298Y-104186593D02*
X115630917Y-104281831D01*
X115630917Y-104281831D02*
X115678536Y-104329450D01*
X115678536Y-104329450D02*
X115773774Y-104377069D01*
X115773774Y-104377069D02*
X116011869Y-104377069D01*
X116011869Y-104377069D02*
X116107107Y-104329450D01*
X116107107Y-104329450D02*
X116154727Y-104281831D01*
X116154727Y-104281831D02*
X116202346Y-104186593D01*
X116202346Y-104186593D02*
X116202346Y-103900879D01*
X116202346Y-103900879D02*
X116154727Y-103805641D01*
X116154727Y-103805641D02*
X116107107Y-103758022D01*
X115535679Y-105234212D02*
X116202346Y-105234212D01*
X115154727Y-104996117D02*
X115869012Y-104758022D01*
X115869012Y-104758022D02*
X115869012Y-105377069D01*
X110665146Y-90724688D02*
X110188955Y-90391355D01*
X110665146Y-90153260D02*
X109665146Y-90153260D01*
X109665146Y-90153260D02*
X109665146Y-90534212D01*
X109665146Y-90534212D02*
X109712765Y-90629450D01*
X109712765Y-90629450D02*
X109760384Y-90677069D01*
X109760384Y-90677069D02*
X109855622Y-90724688D01*
X109855622Y-90724688D02*
X109998479Y-90724688D01*
X109998479Y-90724688D02*
X110093717Y-90677069D01*
X110093717Y-90677069D02*
X110141336Y-90629450D01*
X110141336Y-90629450D02*
X110188955Y-90534212D01*
X110188955Y-90534212D02*
X110188955Y-90153260D01*
X110665146Y-91677069D02*
X110665146Y-91105641D01*
X110665146Y-91391355D02*
X109665146Y-91391355D01*
X109665146Y-91391355D02*
X109808003Y-91296117D01*
X109808003Y-91296117D02*
X109903241Y-91200879D01*
X109903241Y-91200879D02*
X109950860Y-91105641D01*
X109665146Y-92581831D02*
X109665146Y-92105641D01*
X109665146Y-92105641D02*
X110141336Y-92058022D01*
X110141336Y-92058022D02*
X110093717Y-92105641D01*
X110093717Y-92105641D02*
X110046098Y-92200879D01*
X110046098Y-92200879D02*
X110046098Y-92438974D01*
X110046098Y-92438974D02*
X110093717Y-92534212D01*
X110093717Y-92534212D02*
X110141336Y-92581831D01*
X110141336Y-92581831D02*
X110236574Y-92629450D01*
X110236574Y-92629450D02*
X110474669Y-92629450D01*
X110474669Y-92629450D02*
X110569907Y-92581831D01*
X110569907Y-92581831D02*
X110617527Y-92534212D01*
X110617527Y-92534212D02*
X110665146Y-92438974D01*
X110665146Y-92438974D02*
X110665146Y-92200879D01*
X110665146Y-92200879D02*
X110617527Y-92105641D01*
X110617527Y-92105641D02*
X110569907Y-92058022D01*
X116202346Y-95804688D02*
X115726155Y-95471355D01*
X116202346Y-95233260D02*
X115202346Y-95233260D01*
X115202346Y-95233260D02*
X115202346Y-95614212D01*
X115202346Y-95614212D02*
X115249965Y-95709450D01*
X115249965Y-95709450D02*
X115297584Y-95757069D01*
X115297584Y-95757069D02*
X115392822Y-95804688D01*
X115392822Y-95804688D02*
X115535679Y-95804688D01*
X115535679Y-95804688D02*
X115630917Y-95757069D01*
X115630917Y-95757069D02*
X115678536Y-95709450D01*
X115678536Y-95709450D02*
X115726155Y-95614212D01*
X115726155Y-95614212D02*
X115726155Y-95233260D01*
X115202346Y-96138022D02*
X115202346Y-96757069D01*
X115202346Y-96757069D02*
X115583298Y-96423736D01*
X115583298Y-96423736D02*
X115583298Y-96566593D01*
X115583298Y-96566593D02*
X115630917Y-96661831D01*
X115630917Y-96661831D02*
X115678536Y-96709450D01*
X115678536Y-96709450D02*
X115773774Y-96757069D01*
X115773774Y-96757069D02*
X116011869Y-96757069D01*
X116011869Y-96757069D02*
X116107107Y-96709450D01*
X116107107Y-96709450D02*
X116154727Y-96661831D01*
X116154727Y-96661831D02*
X116202346Y-96566593D01*
X116202346Y-96566593D02*
X116202346Y-96280879D01*
X116202346Y-96280879D02*
X116154727Y-96185641D01*
X116154727Y-96185641D02*
X116107107Y-96138022D01*
X115202346Y-97090403D02*
X115202346Y-97757069D01*
X115202346Y-97757069D02*
X116202346Y-97328498D01*
X112544746Y-95804688D02*
X112068555Y-95471355D01*
X112544746Y-95233260D02*
X111544746Y-95233260D01*
X111544746Y-95233260D02*
X111544746Y-95614212D01*
X111544746Y-95614212D02*
X111592365Y-95709450D01*
X111592365Y-95709450D02*
X111639984Y-95757069D01*
X111639984Y-95757069D02*
X111735222Y-95804688D01*
X111735222Y-95804688D02*
X111878079Y-95804688D01*
X111878079Y-95804688D02*
X111973317Y-95757069D01*
X111973317Y-95757069D02*
X112020936Y-95709450D01*
X112020936Y-95709450D02*
X112068555Y-95614212D01*
X112068555Y-95614212D02*
X112068555Y-95233260D01*
X111639984Y-96185641D02*
X111592365Y-96233260D01*
X111592365Y-96233260D02*
X111544746Y-96328498D01*
X111544746Y-96328498D02*
X111544746Y-96566593D01*
X111544746Y-96566593D02*
X111592365Y-96661831D01*
X111592365Y-96661831D02*
X111639984Y-96709450D01*
X111639984Y-96709450D02*
X111735222Y-96757069D01*
X111735222Y-96757069D02*
X111830460Y-96757069D01*
X111830460Y-96757069D02*
X111973317Y-96709450D01*
X111973317Y-96709450D02*
X112544746Y-96138022D01*
X112544746Y-96138022D02*
X112544746Y-96757069D01*
X112544746Y-97709450D02*
X112544746Y-97138022D01*
X112544746Y-97423736D02*
X111544746Y-97423736D01*
X111544746Y-97423736D02*
X111687603Y-97328498D01*
X111687603Y-97328498D02*
X111782841Y-97233260D01*
X111782841Y-97233260D02*
X111830460Y-97138022D01*
X110665146Y-95804688D02*
X110188955Y-95471355D01*
X110665146Y-95233260D02*
X109665146Y-95233260D01*
X109665146Y-95233260D02*
X109665146Y-95614212D01*
X109665146Y-95614212D02*
X109712765Y-95709450D01*
X109712765Y-95709450D02*
X109760384Y-95757069D01*
X109760384Y-95757069D02*
X109855622Y-95804688D01*
X109855622Y-95804688D02*
X109998479Y-95804688D01*
X109998479Y-95804688D02*
X110093717Y-95757069D01*
X110093717Y-95757069D02*
X110141336Y-95709450D01*
X110141336Y-95709450D02*
X110188955Y-95614212D01*
X110188955Y-95614212D02*
X110188955Y-95233260D01*
X110665146Y-96757069D02*
X110665146Y-96185641D01*
X110665146Y-96471355D02*
X109665146Y-96471355D01*
X109665146Y-96471355D02*
X109808003Y-96376117D01*
X109808003Y-96376117D02*
X109903241Y-96280879D01*
X109903241Y-96280879D02*
X109950860Y-96185641D01*
X109665146Y-97090403D02*
X109665146Y-97709450D01*
X109665146Y-97709450D02*
X110046098Y-97376117D01*
X110046098Y-97376117D02*
X110046098Y-97518974D01*
X110046098Y-97518974D02*
X110093717Y-97614212D01*
X110093717Y-97614212D02*
X110141336Y-97661831D01*
X110141336Y-97661831D02*
X110236574Y-97709450D01*
X110236574Y-97709450D02*
X110474669Y-97709450D01*
X110474669Y-97709450D02*
X110569907Y-97661831D01*
X110569907Y-97661831D02*
X110617527Y-97614212D01*
X110617527Y-97614212D02*
X110665146Y-97518974D01*
X110665146Y-97518974D02*
X110665146Y-97233260D01*
X110665146Y-97233260D02*
X110617527Y-97138022D01*
X110617527Y-97138022D02*
X110569907Y-97090403D01*
X114221146Y-95804688D02*
X113744955Y-95471355D01*
X114221146Y-95233260D02*
X113221146Y-95233260D01*
X113221146Y-95233260D02*
X113221146Y-95614212D01*
X113221146Y-95614212D02*
X113268765Y-95709450D01*
X113268765Y-95709450D02*
X113316384Y-95757069D01*
X113316384Y-95757069D02*
X113411622Y-95804688D01*
X113411622Y-95804688D02*
X113554479Y-95804688D01*
X113554479Y-95804688D02*
X113649717Y-95757069D01*
X113649717Y-95757069D02*
X113697336Y-95709450D01*
X113697336Y-95709450D02*
X113744955Y-95614212D01*
X113744955Y-95614212D02*
X113744955Y-95233260D01*
X113316384Y-96185641D02*
X113268765Y-96233260D01*
X113268765Y-96233260D02*
X113221146Y-96328498D01*
X113221146Y-96328498D02*
X113221146Y-96566593D01*
X113221146Y-96566593D02*
X113268765Y-96661831D01*
X113268765Y-96661831D02*
X113316384Y-96709450D01*
X113316384Y-96709450D02*
X113411622Y-96757069D01*
X113411622Y-96757069D02*
X113506860Y-96757069D01*
X113506860Y-96757069D02*
X113649717Y-96709450D01*
X113649717Y-96709450D02*
X114221146Y-96138022D01*
X114221146Y-96138022D02*
X114221146Y-96757069D01*
X114221146Y-97233260D02*
X114221146Y-97423736D01*
X114221146Y-97423736D02*
X114173527Y-97518974D01*
X114173527Y-97518974D02*
X114125907Y-97566593D01*
X114125907Y-97566593D02*
X113983050Y-97661831D01*
X113983050Y-97661831D02*
X113792574Y-97709450D01*
X113792574Y-97709450D02*
X113411622Y-97709450D01*
X113411622Y-97709450D02*
X113316384Y-97661831D01*
X113316384Y-97661831D02*
X113268765Y-97614212D01*
X113268765Y-97614212D02*
X113221146Y-97518974D01*
X113221146Y-97518974D02*
X113221146Y-97328498D01*
X113221146Y-97328498D02*
X113268765Y-97233260D01*
X113268765Y-97233260D02*
X113316384Y-97185641D01*
X113316384Y-97185641D02*
X113411622Y-97138022D01*
X113411622Y-97138022D02*
X113649717Y-97138022D01*
X113649717Y-97138022D02*
X113744955Y-97185641D01*
X113744955Y-97185641D02*
X113792574Y-97233260D01*
X113792574Y-97233260D02*
X113840193Y-97328498D01*
X113840193Y-97328498D02*
X113840193Y-97518974D01*
X113840193Y-97518974D02*
X113792574Y-97614212D01*
X113792574Y-97614212D02*
X113744955Y-97661831D01*
X113744955Y-97661831D02*
X113649717Y-97709450D01*
X119502746Y-109165088D02*
X119026555Y-108831755D01*
X119502746Y-108593660D02*
X118502746Y-108593660D01*
X118502746Y-108593660D02*
X118502746Y-108974612D01*
X118502746Y-108974612D02*
X118550365Y-109069850D01*
X118550365Y-109069850D02*
X118597984Y-109117469D01*
X118597984Y-109117469D02*
X118693222Y-109165088D01*
X118693222Y-109165088D02*
X118836079Y-109165088D01*
X118836079Y-109165088D02*
X118931317Y-109117469D01*
X118931317Y-109117469D02*
X118978936Y-109069850D01*
X118978936Y-109069850D02*
X119026555Y-108974612D01*
X119026555Y-108974612D02*
X119026555Y-108593660D01*
X118502746Y-109498422D02*
X118502746Y-110117469D01*
X118502746Y-110117469D02*
X118883698Y-109784136D01*
X118883698Y-109784136D02*
X118883698Y-109926993D01*
X118883698Y-109926993D02*
X118931317Y-110022231D01*
X118931317Y-110022231D02*
X118978936Y-110069850D01*
X118978936Y-110069850D02*
X119074174Y-110117469D01*
X119074174Y-110117469D02*
X119312269Y-110117469D01*
X119312269Y-110117469D02*
X119407507Y-110069850D01*
X119407507Y-110069850D02*
X119455127Y-110022231D01*
X119455127Y-110022231D02*
X119502746Y-109926993D01*
X119502746Y-109926993D02*
X119502746Y-109641279D01*
X119502746Y-109641279D02*
X119455127Y-109546041D01*
X119455127Y-109546041D02*
X119407507Y-109498422D01*
X118502746Y-110450803D02*
X118502746Y-111069850D01*
X118502746Y-111069850D02*
X118883698Y-110736517D01*
X118883698Y-110736517D02*
X118883698Y-110879374D01*
X118883698Y-110879374D02*
X118931317Y-110974612D01*
X118931317Y-110974612D02*
X118978936Y-111022231D01*
X118978936Y-111022231D02*
X119074174Y-111069850D01*
X119074174Y-111069850D02*
X119312269Y-111069850D01*
X119312269Y-111069850D02*
X119407507Y-111022231D01*
X119407507Y-111022231D02*
X119455127Y-110974612D01*
X119455127Y-110974612D02*
X119502746Y-110879374D01*
X119502746Y-110879374D02*
X119502746Y-110593660D01*
X119502746Y-110593660D02*
X119455127Y-110498422D01*
X119455127Y-110498422D02*
X119407507Y-110450803D01*
X110665146Y-106390079D02*
X110188955Y-106056746D01*
X110665146Y-105818651D02*
X109665146Y-105818651D01*
X109665146Y-105818651D02*
X109665146Y-106199603D01*
X109665146Y-106199603D02*
X109712765Y-106294841D01*
X109712765Y-106294841D02*
X109760384Y-106342460D01*
X109760384Y-106342460D02*
X109855622Y-106390079D01*
X109855622Y-106390079D02*
X109998479Y-106390079D01*
X109998479Y-106390079D02*
X110093717Y-106342460D01*
X110093717Y-106342460D02*
X110141336Y-106294841D01*
X110141336Y-106294841D02*
X110188955Y-106199603D01*
X110188955Y-106199603D02*
X110188955Y-105818651D01*
X110665146Y-106866270D02*
X110665146Y-107056746D01*
X110665146Y-107056746D02*
X110617527Y-107151984D01*
X110617527Y-107151984D02*
X110569907Y-107199603D01*
X110569907Y-107199603D02*
X110427050Y-107294841D01*
X110427050Y-107294841D02*
X110236574Y-107342460D01*
X110236574Y-107342460D02*
X109855622Y-107342460D01*
X109855622Y-107342460D02*
X109760384Y-107294841D01*
X109760384Y-107294841D02*
X109712765Y-107247222D01*
X109712765Y-107247222D02*
X109665146Y-107151984D01*
X109665146Y-107151984D02*
X109665146Y-106961508D01*
X109665146Y-106961508D02*
X109712765Y-106866270D01*
X109712765Y-106866270D02*
X109760384Y-106818651D01*
X109760384Y-106818651D02*
X109855622Y-106771032D01*
X109855622Y-106771032D02*
X110093717Y-106771032D01*
X110093717Y-106771032D02*
X110188955Y-106818651D01*
X110188955Y-106818651D02*
X110236574Y-106866270D01*
X110236574Y-106866270D02*
X110284193Y-106961508D01*
X110284193Y-106961508D02*
X110284193Y-107151984D01*
X110284193Y-107151984D02*
X110236574Y-107247222D01*
X110236574Y-107247222D02*
X110188955Y-107294841D01*
X110188955Y-107294841D02*
X110093717Y-107342460D01*
X114221146Y-93264688D02*
X113744955Y-92931355D01*
X114221146Y-92693260D02*
X113221146Y-92693260D01*
X113221146Y-92693260D02*
X113221146Y-93074212D01*
X113221146Y-93074212D02*
X113268765Y-93169450D01*
X113268765Y-93169450D02*
X113316384Y-93217069D01*
X113316384Y-93217069D02*
X113411622Y-93264688D01*
X113411622Y-93264688D02*
X113554479Y-93264688D01*
X113554479Y-93264688D02*
X113649717Y-93217069D01*
X113649717Y-93217069D02*
X113697336Y-93169450D01*
X113697336Y-93169450D02*
X113744955Y-93074212D01*
X113744955Y-93074212D02*
X113744955Y-92693260D01*
X113221146Y-93598022D02*
X113221146Y-94217069D01*
X113221146Y-94217069D02*
X113602098Y-93883736D01*
X113602098Y-93883736D02*
X113602098Y-94026593D01*
X113602098Y-94026593D02*
X113649717Y-94121831D01*
X113649717Y-94121831D02*
X113697336Y-94169450D01*
X113697336Y-94169450D02*
X113792574Y-94217069D01*
X113792574Y-94217069D02*
X114030669Y-94217069D01*
X114030669Y-94217069D02*
X114125907Y-94169450D01*
X114125907Y-94169450D02*
X114173527Y-94121831D01*
X114173527Y-94121831D02*
X114221146Y-94026593D01*
X114221146Y-94026593D02*
X114221146Y-93740879D01*
X114221146Y-93740879D02*
X114173527Y-93645641D01*
X114173527Y-93645641D02*
X114125907Y-93598022D01*
X113221146Y-94836117D02*
X113221146Y-94931355D01*
X113221146Y-94931355D02*
X113268765Y-95026593D01*
X113268765Y-95026593D02*
X113316384Y-95074212D01*
X113316384Y-95074212D02*
X113411622Y-95121831D01*
X113411622Y-95121831D02*
X113602098Y-95169450D01*
X113602098Y-95169450D02*
X113840193Y-95169450D01*
X113840193Y-95169450D02*
X114030669Y-95121831D01*
X114030669Y-95121831D02*
X114125907Y-95074212D01*
X114125907Y-95074212D02*
X114173527Y-95026593D01*
X114173527Y-95026593D02*
X114221146Y-94931355D01*
X114221146Y-94931355D02*
X114221146Y-94836117D01*
X114221146Y-94836117D02*
X114173527Y-94740879D01*
X114173527Y-94740879D02*
X114125907Y-94693260D01*
X114125907Y-94693260D02*
X114030669Y-94645641D01*
X114030669Y-94645641D02*
X113840193Y-94598022D01*
X113840193Y-94598022D02*
X113602098Y-94598022D01*
X113602098Y-94598022D02*
X113411622Y-94645641D01*
X113411622Y-94645641D02*
X113316384Y-94693260D01*
X113316384Y-94693260D02*
X113268765Y-94740879D01*
X113268765Y-94740879D02*
X113221146Y-94836117D01*
X112544746Y-105913888D02*
X112068555Y-105580555D01*
X112544746Y-105342460D02*
X111544746Y-105342460D01*
X111544746Y-105342460D02*
X111544746Y-105723412D01*
X111544746Y-105723412D02*
X111592365Y-105818650D01*
X111592365Y-105818650D02*
X111639984Y-105866269D01*
X111639984Y-105866269D02*
X111735222Y-105913888D01*
X111735222Y-105913888D02*
X111878079Y-105913888D01*
X111878079Y-105913888D02*
X111973317Y-105866269D01*
X111973317Y-105866269D02*
X112020936Y-105818650D01*
X112020936Y-105818650D02*
X112068555Y-105723412D01*
X112068555Y-105723412D02*
X112068555Y-105342460D01*
X112544746Y-106866269D02*
X112544746Y-106294841D01*
X112544746Y-106580555D02*
X111544746Y-106580555D01*
X111544746Y-106580555D02*
X111687603Y-106485317D01*
X111687603Y-106485317D02*
X111782841Y-106390079D01*
X111782841Y-106390079D02*
X111830460Y-106294841D01*
X111544746Y-107199603D02*
X111544746Y-107866269D01*
X111544746Y-107866269D02*
X112544746Y-107437698D01*
X117853346Y-96280879D02*
X117377155Y-95947546D01*
X117853346Y-95709451D02*
X116853346Y-95709451D01*
X116853346Y-95709451D02*
X116853346Y-96090403D01*
X116853346Y-96090403D02*
X116900965Y-96185641D01*
X116900965Y-96185641D02*
X116948584Y-96233260D01*
X116948584Y-96233260D02*
X117043822Y-96280879D01*
X117043822Y-96280879D02*
X117186679Y-96280879D01*
X117186679Y-96280879D02*
X117281917Y-96233260D01*
X117281917Y-96233260D02*
X117329536Y-96185641D01*
X117329536Y-96185641D02*
X117377155Y-96090403D01*
X117377155Y-96090403D02*
X117377155Y-95709451D01*
X116853346Y-97185641D02*
X116853346Y-96709451D01*
X116853346Y-96709451D02*
X117329536Y-96661832D01*
X117329536Y-96661832D02*
X117281917Y-96709451D01*
X117281917Y-96709451D02*
X117234298Y-96804689D01*
X117234298Y-96804689D02*
X117234298Y-97042784D01*
X117234298Y-97042784D02*
X117281917Y-97138022D01*
X117281917Y-97138022D02*
X117329536Y-97185641D01*
X117329536Y-97185641D02*
X117424774Y-97233260D01*
X117424774Y-97233260D02*
X117662869Y-97233260D01*
X117662869Y-97233260D02*
X117758107Y-97185641D01*
X117758107Y-97185641D02*
X117805727Y-97138022D01*
X117805727Y-97138022D02*
X117853346Y-97042784D01*
X117853346Y-97042784D02*
X117853346Y-96804689D01*
X117853346Y-96804689D02*
X117805727Y-96709451D01*
X117805727Y-96709451D02*
X117758107Y-96661832D01*
X114221146Y-100884688D02*
X113744955Y-100551355D01*
X114221146Y-100313260D02*
X113221146Y-100313260D01*
X113221146Y-100313260D02*
X113221146Y-100694212D01*
X113221146Y-100694212D02*
X113268765Y-100789450D01*
X113268765Y-100789450D02*
X113316384Y-100837069D01*
X113316384Y-100837069D02*
X113411622Y-100884688D01*
X113411622Y-100884688D02*
X113554479Y-100884688D01*
X113554479Y-100884688D02*
X113649717Y-100837069D01*
X113649717Y-100837069D02*
X113697336Y-100789450D01*
X113697336Y-100789450D02*
X113744955Y-100694212D01*
X113744955Y-100694212D02*
X113744955Y-100313260D01*
X113316384Y-101265641D02*
X113268765Y-101313260D01*
X113268765Y-101313260D02*
X113221146Y-101408498D01*
X113221146Y-101408498D02*
X113221146Y-101646593D01*
X113221146Y-101646593D02*
X113268765Y-101741831D01*
X113268765Y-101741831D02*
X113316384Y-101789450D01*
X113316384Y-101789450D02*
X113411622Y-101837069D01*
X113411622Y-101837069D02*
X113506860Y-101837069D01*
X113506860Y-101837069D02*
X113649717Y-101789450D01*
X113649717Y-101789450D02*
X114221146Y-101218022D01*
X114221146Y-101218022D02*
X114221146Y-101837069D01*
X113221146Y-102170403D02*
X113221146Y-102837069D01*
X113221146Y-102837069D02*
X114221146Y-102408498D01*
X112544746Y-103424688D02*
X112068555Y-103091355D01*
X112544746Y-102853260D02*
X111544746Y-102853260D01*
X111544746Y-102853260D02*
X111544746Y-103234212D01*
X111544746Y-103234212D02*
X111592365Y-103329450D01*
X111592365Y-103329450D02*
X111639984Y-103377069D01*
X111639984Y-103377069D02*
X111735222Y-103424688D01*
X111735222Y-103424688D02*
X111878079Y-103424688D01*
X111878079Y-103424688D02*
X111973317Y-103377069D01*
X111973317Y-103377069D02*
X112020936Y-103329450D01*
X112020936Y-103329450D02*
X112068555Y-103234212D01*
X112068555Y-103234212D02*
X112068555Y-102853260D01*
X112544746Y-104377069D02*
X112544746Y-103805641D01*
X112544746Y-104091355D02*
X111544746Y-104091355D01*
X111544746Y-104091355D02*
X111687603Y-103996117D01*
X111687603Y-103996117D02*
X111782841Y-103900879D01*
X111782841Y-103900879D02*
X111830460Y-103805641D01*
X111973317Y-104948498D02*
X111925698Y-104853260D01*
X111925698Y-104853260D02*
X111878079Y-104805641D01*
X111878079Y-104805641D02*
X111782841Y-104758022D01*
X111782841Y-104758022D02*
X111735222Y-104758022D01*
X111735222Y-104758022D02*
X111639984Y-104805641D01*
X111639984Y-104805641D02*
X111592365Y-104853260D01*
X111592365Y-104853260D02*
X111544746Y-104948498D01*
X111544746Y-104948498D02*
X111544746Y-105138974D01*
X111544746Y-105138974D02*
X111592365Y-105234212D01*
X111592365Y-105234212D02*
X111639984Y-105281831D01*
X111639984Y-105281831D02*
X111735222Y-105329450D01*
X111735222Y-105329450D02*
X111782841Y-105329450D01*
X111782841Y-105329450D02*
X111878079Y-105281831D01*
X111878079Y-105281831D02*
X111925698Y-105234212D01*
X111925698Y-105234212D02*
X111973317Y-105138974D01*
X111973317Y-105138974D02*
X111973317Y-104948498D01*
X111973317Y-104948498D02*
X112020936Y-104853260D01*
X112020936Y-104853260D02*
X112068555Y-104805641D01*
X112068555Y-104805641D02*
X112163793Y-104758022D01*
X112163793Y-104758022D02*
X112354269Y-104758022D01*
X112354269Y-104758022D02*
X112449507Y-104805641D01*
X112449507Y-104805641D02*
X112497127Y-104853260D01*
X112497127Y-104853260D02*
X112544746Y-104948498D01*
X112544746Y-104948498D02*
X112544746Y-105138974D01*
X112544746Y-105138974D02*
X112497127Y-105234212D01*
X112497127Y-105234212D02*
X112449507Y-105281831D01*
X112449507Y-105281831D02*
X112354269Y-105329450D01*
X112354269Y-105329450D02*
X112163793Y-105329450D01*
X112163793Y-105329450D02*
X112068555Y-105281831D01*
X112068555Y-105281831D02*
X112020936Y-105234212D01*
X112020936Y-105234212D02*
X111973317Y-105138974D01*
X116202346Y-90724688D02*
X115726155Y-90391355D01*
X116202346Y-90153260D02*
X115202346Y-90153260D01*
X115202346Y-90153260D02*
X115202346Y-90534212D01*
X115202346Y-90534212D02*
X115249965Y-90629450D01*
X115249965Y-90629450D02*
X115297584Y-90677069D01*
X115297584Y-90677069D02*
X115392822Y-90724688D01*
X115392822Y-90724688D02*
X115535679Y-90724688D01*
X115535679Y-90724688D02*
X115630917Y-90677069D01*
X115630917Y-90677069D02*
X115678536Y-90629450D01*
X115678536Y-90629450D02*
X115726155Y-90534212D01*
X115726155Y-90534212D02*
X115726155Y-90153260D01*
X115202346Y-91058022D02*
X115202346Y-91677069D01*
X115202346Y-91677069D02*
X115583298Y-91343736D01*
X115583298Y-91343736D02*
X115583298Y-91486593D01*
X115583298Y-91486593D02*
X115630917Y-91581831D01*
X115630917Y-91581831D02*
X115678536Y-91629450D01*
X115678536Y-91629450D02*
X115773774Y-91677069D01*
X115773774Y-91677069D02*
X116011869Y-91677069D01*
X116011869Y-91677069D02*
X116107107Y-91629450D01*
X116107107Y-91629450D02*
X116154727Y-91581831D01*
X116154727Y-91581831D02*
X116202346Y-91486593D01*
X116202346Y-91486593D02*
X116202346Y-91200879D01*
X116202346Y-91200879D02*
X116154727Y-91105641D01*
X116154727Y-91105641D02*
X116107107Y-91058022D01*
X116202346Y-92153260D02*
X116202346Y-92343736D01*
X116202346Y-92343736D02*
X116154727Y-92438974D01*
X116154727Y-92438974D02*
X116107107Y-92486593D01*
X116107107Y-92486593D02*
X115964250Y-92581831D01*
X115964250Y-92581831D02*
X115773774Y-92629450D01*
X115773774Y-92629450D02*
X115392822Y-92629450D01*
X115392822Y-92629450D02*
X115297584Y-92581831D01*
X115297584Y-92581831D02*
X115249965Y-92534212D01*
X115249965Y-92534212D02*
X115202346Y-92438974D01*
X115202346Y-92438974D02*
X115202346Y-92248498D01*
X115202346Y-92248498D02*
X115249965Y-92153260D01*
X115249965Y-92153260D02*
X115297584Y-92105641D01*
X115297584Y-92105641D02*
X115392822Y-92058022D01*
X115392822Y-92058022D02*
X115630917Y-92058022D01*
X115630917Y-92058022D02*
X115726155Y-92105641D01*
X115726155Y-92105641D02*
X115773774Y-92153260D01*
X115773774Y-92153260D02*
X115821393Y-92248498D01*
X115821393Y-92248498D02*
X115821393Y-92438974D01*
X115821393Y-92438974D02*
X115773774Y-92534212D01*
X115773774Y-92534212D02*
X115726155Y-92581831D01*
X115726155Y-92581831D02*
X115630917Y-92629450D01*
X117853346Y-91200879D02*
X117377155Y-90867546D01*
X117853346Y-90629451D02*
X116853346Y-90629451D01*
X116853346Y-90629451D02*
X116853346Y-91010403D01*
X116853346Y-91010403D02*
X116900965Y-91105641D01*
X116900965Y-91105641D02*
X116948584Y-91153260D01*
X116948584Y-91153260D02*
X117043822Y-91200879D01*
X117043822Y-91200879D02*
X117186679Y-91200879D01*
X117186679Y-91200879D02*
X117281917Y-91153260D01*
X117281917Y-91153260D02*
X117329536Y-91105641D01*
X117329536Y-91105641D02*
X117377155Y-91010403D01*
X117377155Y-91010403D02*
X117377155Y-90629451D01*
X116853346Y-91534213D02*
X116853346Y-92200879D01*
X116853346Y-92200879D02*
X117853346Y-91772308D01*
X116202346Y-100884688D02*
X115726155Y-100551355D01*
X116202346Y-100313260D02*
X115202346Y-100313260D01*
X115202346Y-100313260D02*
X115202346Y-100694212D01*
X115202346Y-100694212D02*
X115249965Y-100789450D01*
X115249965Y-100789450D02*
X115297584Y-100837069D01*
X115297584Y-100837069D02*
X115392822Y-100884688D01*
X115392822Y-100884688D02*
X115535679Y-100884688D01*
X115535679Y-100884688D02*
X115630917Y-100837069D01*
X115630917Y-100837069D02*
X115678536Y-100789450D01*
X115678536Y-100789450D02*
X115726155Y-100694212D01*
X115726155Y-100694212D02*
X115726155Y-100313260D01*
X115202346Y-101218022D02*
X115202346Y-101837069D01*
X115202346Y-101837069D02*
X115583298Y-101503736D01*
X115583298Y-101503736D02*
X115583298Y-101646593D01*
X115583298Y-101646593D02*
X115630917Y-101741831D01*
X115630917Y-101741831D02*
X115678536Y-101789450D01*
X115678536Y-101789450D02*
X115773774Y-101837069D01*
X115773774Y-101837069D02*
X116011869Y-101837069D01*
X116011869Y-101837069D02*
X116107107Y-101789450D01*
X116107107Y-101789450D02*
X116154727Y-101741831D01*
X116154727Y-101741831D02*
X116202346Y-101646593D01*
X116202346Y-101646593D02*
X116202346Y-101360879D01*
X116202346Y-101360879D02*
X116154727Y-101265641D01*
X116154727Y-101265641D02*
X116107107Y-101218022D01*
X115202346Y-102741831D02*
X115202346Y-102265641D01*
X115202346Y-102265641D02*
X115678536Y-102218022D01*
X115678536Y-102218022D02*
X115630917Y-102265641D01*
X115630917Y-102265641D02*
X115583298Y-102360879D01*
X115583298Y-102360879D02*
X115583298Y-102598974D01*
X115583298Y-102598974D02*
X115630917Y-102694212D01*
X115630917Y-102694212D02*
X115678536Y-102741831D01*
X115678536Y-102741831D02*
X115773774Y-102789450D01*
X115773774Y-102789450D02*
X116011869Y-102789450D01*
X116011869Y-102789450D02*
X116107107Y-102741831D01*
X116107107Y-102741831D02*
X116154727Y-102694212D01*
X116154727Y-102694212D02*
X116202346Y-102598974D01*
X116202346Y-102598974D02*
X116202346Y-102360879D01*
X116202346Y-102360879D02*
X116154727Y-102265641D01*
X116154727Y-102265641D02*
X116107107Y-102218022D01*
X189138879Y-86460365D02*
X189138879Y-87174650D01*
X189138879Y-87174650D02*
X189186498Y-87317507D01*
X189186498Y-87317507D02*
X189281736Y-87412746D01*
X189281736Y-87412746D02*
X189424593Y-87460365D01*
X189424593Y-87460365D02*
X189519831Y-87460365D01*
X188757926Y-86460365D02*
X188138879Y-86460365D01*
X188138879Y-86460365D02*
X188472212Y-86841317D01*
X188472212Y-86841317D02*
X188329355Y-86841317D01*
X188329355Y-86841317D02*
X188234117Y-86888936D01*
X188234117Y-86888936D02*
X188186498Y-86936555D01*
X188186498Y-86936555D02*
X188138879Y-87031793D01*
X188138879Y-87031793D02*
X188138879Y-87269888D01*
X188138879Y-87269888D02*
X188186498Y-87365126D01*
X188186498Y-87365126D02*
X188234117Y-87412746D01*
X188234117Y-87412746D02*
X188329355Y-87460365D01*
X188329355Y-87460365D02*
X188615069Y-87460365D01*
X188615069Y-87460365D02*
X188710307Y-87412746D01*
X188710307Y-87412746D02*
X188757926Y-87365126D01*
X110665146Y-100884688D02*
X110188955Y-100551355D01*
X110665146Y-100313260D02*
X109665146Y-100313260D01*
X109665146Y-100313260D02*
X109665146Y-100694212D01*
X109665146Y-100694212D02*
X109712765Y-100789450D01*
X109712765Y-100789450D02*
X109760384Y-100837069D01*
X109760384Y-100837069D02*
X109855622Y-100884688D01*
X109855622Y-100884688D02*
X109998479Y-100884688D01*
X109998479Y-100884688D02*
X110093717Y-100837069D01*
X110093717Y-100837069D02*
X110141336Y-100789450D01*
X110141336Y-100789450D02*
X110188955Y-100694212D01*
X110188955Y-100694212D02*
X110188955Y-100313260D01*
X110665146Y-101837069D02*
X110665146Y-101265641D01*
X110665146Y-101551355D02*
X109665146Y-101551355D01*
X109665146Y-101551355D02*
X109808003Y-101456117D01*
X109808003Y-101456117D02*
X109903241Y-101360879D01*
X109903241Y-101360879D02*
X109950860Y-101265641D01*
X110665146Y-102789450D02*
X110665146Y-102218022D01*
X110665146Y-102503736D02*
X109665146Y-102503736D01*
X109665146Y-102503736D02*
X109808003Y-102408498D01*
X109808003Y-102408498D02*
X109903241Y-102313260D01*
X109903241Y-102313260D02*
X109950860Y-102218022D01*
X117853346Y-101360879D02*
X117377155Y-101027546D01*
X117853346Y-100789451D02*
X116853346Y-100789451D01*
X116853346Y-100789451D02*
X116853346Y-101170403D01*
X116853346Y-101170403D02*
X116900965Y-101265641D01*
X116900965Y-101265641D02*
X116948584Y-101313260D01*
X116948584Y-101313260D02*
X117043822Y-101360879D01*
X117043822Y-101360879D02*
X117186679Y-101360879D01*
X117186679Y-101360879D02*
X117281917Y-101313260D01*
X117281917Y-101313260D02*
X117329536Y-101265641D01*
X117329536Y-101265641D02*
X117377155Y-101170403D01*
X117377155Y-101170403D02*
X117377155Y-100789451D01*
X116853346Y-101694213D02*
X116853346Y-102313260D01*
X116853346Y-102313260D02*
X117234298Y-101979927D01*
X117234298Y-101979927D02*
X117234298Y-102122784D01*
X117234298Y-102122784D02*
X117281917Y-102218022D01*
X117281917Y-102218022D02*
X117329536Y-102265641D01*
X117329536Y-102265641D02*
X117424774Y-102313260D01*
X117424774Y-102313260D02*
X117662869Y-102313260D01*
X117662869Y-102313260D02*
X117758107Y-102265641D01*
X117758107Y-102265641D02*
X117805727Y-102218022D01*
X117805727Y-102218022D02*
X117853346Y-102122784D01*
X117853346Y-102122784D02*
X117853346Y-101837070D01*
X117853346Y-101837070D02*
X117805727Y-101741832D01*
X117805727Y-101741832D02*
X117758107Y-101694213D01*
X116202346Y-88184688D02*
X115726155Y-87851355D01*
X116202346Y-87613260D02*
X115202346Y-87613260D01*
X115202346Y-87613260D02*
X115202346Y-87994212D01*
X115202346Y-87994212D02*
X115249965Y-88089450D01*
X115249965Y-88089450D02*
X115297584Y-88137069D01*
X115297584Y-88137069D02*
X115392822Y-88184688D01*
X115392822Y-88184688D02*
X115535679Y-88184688D01*
X115535679Y-88184688D02*
X115630917Y-88137069D01*
X115630917Y-88137069D02*
X115678536Y-88089450D01*
X115678536Y-88089450D02*
X115726155Y-87994212D01*
X115726155Y-87994212D02*
X115726155Y-87613260D01*
X115535679Y-89041831D02*
X116202346Y-89041831D01*
X115154727Y-88803736D02*
X115869012Y-88565641D01*
X115869012Y-88565641D02*
X115869012Y-89184688D01*
X115202346Y-89756117D02*
X115202346Y-89851355D01*
X115202346Y-89851355D02*
X115249965Y-89946593D01*
X115249965Y-89946593D02*
X115297584Y-89994212D01*
X115297584Y-89994212D02*
X115392822Y-90041831D01*
X115392822Y-90041831D02*
X115583298Y-90089450D01*
X115583298Y-90089450D02*
X115821393Y-90089450D01*
X115821393Y-90089450D02*
X116011869Y-90041831D01*
X116011869Y-90041831D02*
X116107107Y-89994212D01*
X116107107Y-89994212D02*
X116154727Y-89946593D01*
X116154727Y-89946593D02*
X116202346Y-89851355D01*
X116202346Y-89851355D02*
X116202346Y-89756117D01*
X116202346Y-89756117D02*
X116154727Y-89660879D01*
X116154727Y-89660879D02*
X116107107Y-89613260D01*
X116107107Y-89613260D02*
X116011869Y-89565641D01*
X116011869Y-89565641D02*
X115821393Y-89518022D01*
X115821393Y-89518022D02*
X115583298Y-89518022D01*
X115583298Y-89518022D02*
X115392822Y-89565641D01*
X115392822Y-89565641D02*
X115297584Y-89613260D01*
X115297584Y-89613260D02*
X115249965Y-89660879D01*
X115249965Y-89660879D02*
X115202346Y-89756117D01*
X110665146Y-93264688D02*
X110188955Y-92931355D01*
X110665146Y-92693260D02*
X109665146Y-92693260D01*
X109665146Y-92693260D02*
X109665146Y-93074212D01*
X109665146Y-93074212D02*
X109712765Y-93169450D01*
X109712765Y-93169450D02*
X109760384Y-93217069D01*
X109760384Y-93217069D02*
X109855622Y-93264688D01*
X109855622Y-93264688D02*
X109998479Y-93264688D01*
X109998479Y-93264688D02*
X110093717Y-93217069D01*
X110093717Y-93217069D02*
X110141336Y-93169450D01*
X110141336Y-93169450D02*
X110188955Y-93074212D01*
X110188955Y-93074212D02*
X110188955Y-92693260D01*
X110665146Y-94217069D02*
X110665146Y-93645641D01*
X110665146Y-93931355D02*
X109665146Y-93931355D01*
X109665146Y-93931355D02*
X109808003Y-93836117D01*
X109808003Y-93836117D02*
X109903241Y-93740879D01*
X109903241Y-93740879D02*
X109950860Y-93645641D01*
X109998479Y-95074212D02*
X110665146Y-95074212D01*
X109617527Y-94836117D02*
X110331812Y-94598022D01*
X110331812Y-94598022D02*
X110331812Y-95217069D01*
X112544746Y-98344688D02*
X112068555Y-98011355D01*
X112544746Y-97773260D02*
X111544746Y-97773260D01*
X111544746Y-97773260D02*
X111544746Y-98154212D01*
X111544746Y-98154212D02*
X111592365Y-98249450D01*
X111592365Y-98249450D02*
X111639984Y-98297069D01*
X111639984Y-98297069D02*
X111735222Y-98344688D01*
X111735222Y-98344688D02*
X111878079Y-98344688D01*
X111878079Y-98344688D02*
X111973317Y-98297069D01*
X111973317Y-98297069D02*
X112020936Y-98249450D01*
X112020936Y-98249450D02*
X112068555Y-98154212D01*
X112068555Y-98154212D02*
X112068555Y-97773260D01*
X111639984Y-98725641D02*
X111592365Y-98773260D01*
X111592365Y-98773260D02*
X111544746Y-98868498D01*
X111544746Y-98868498D02*
X111544746Y-99106593D01*
X111544746Y-99106593D02*
X111592365Y-99201831D01*
X111592365Y-99201831D02*
X111639984Y-99249450D01*
X111639984Y-99249450D02*
X111735222Y-99297069D01*
X111735222Y-99297069D02*
X111830460Y-99297069D01*
X111830460Y-99297069D02*
X111973317Y-99249450D01*
X111973317Y-99249450D02*
X112544746Y-98678022D01*
X112544746Y-98678022D02*
X112544746Y-99297069D01*
X111544746Y-99916117D02*
X111544746Y-100011355D01*
X111544746Y-100011355D02*
X111592365Y-100106593D01*
X111592365Y-100106593D02*
X111639984Y-100154212D01*
X111639984Y-100154212D02*
X111735222Y-100201831D01*
X111735222Y-100201831D02*
X111925698Y-100249450D01*
X111925698Y-100249450D02*
X112163793Y-100249450D01*
X112163793Y-100249450D02*
X112354269Y-100201831D01*
X112354269Y-100201831D02*
X112449507Y-100154212D01*
X112449507Y-100154212D02*
X112497127Y-100106593D01*
X112497127Y-100106593D02*
X112544746Y-100011355D01*
X112544746Y-100011355D02*
X112544746Y-99916117D01*
X112544746Y-99916117D02*
X112497127Y-99820879D01*
X112497127Y-99820879D02*
X112449507Y-99773260D01*
X112449507Y-99773260D02*
X112354269Y-99725641D01*
X112354269Y-99725641D02*
X112163793Y-99678022D01*
X112163793Y-99678022D02*
X111925698Y-99678022D01*
X111925698Y-99678022D02*
X111735222Y-99725641D01*
X111735222Y-99725641D02*
X111639984Y-99773260D01*
X111639984Y-99773260D02*
X111592365Y-99820879D01*
X111592365Y-99820879D02*
X111544746Y-99916117D01*
X112544746Y-90724688D02*
X112068555Y-90391355D01*
X112544746Y-90153260D02*
X111544746Y-90153260D01*
X111544746Y-90153260D02*
X111544746Y-90534212D01*
X111544746Y-90534212D02*
X111592365Y-90629450D01*
X111592365Y-90629450D02*
X111639984Y-90677069D01*
X111639984Y-90677069D02*
X111735222Y-90724688D01*
X111735222Y-90724688D02*
X111878079Y-90724688D01*
X111878079Y-90724688D02*
X111973317Y-90677069D01*
X111973317Y-90677069D02*
X112020936Y-90629450D01*
X112020936Y-90629450D02*
X112068555Y-90534212D01*
X112068555Y-90534212D02*
X112068555Y-90153260D01*
X111639984Y-91105641D02*
X111592365Y-91153260D01*
X111592365Y-91153260D02*
X111544746Y-91248498D01*
X111544746Y-91248498D02*
X111544746Y-91486593D01*
X111544746Y-91486593D02*
X111592365Y-91581831D01*
X111592365Y-91581831D02*
X111639984Y-91629450D01*
X111639984Y-91629450D02*
X111735222Y-91677069D01*
X111735222Y-91677069D02*
X111830460Y-91677069D01*
X111830460Y-91677069D02*
X111973317Y-91629450D01*
X111973317Y-91629450D02*
X112544746Y-91058022D01*
X112544746Y-91058022D02*
X112544746Y-91677069D01*
X111544746Y-92010403D02*
X111544746Y-92629450D01*
X111544746Y-92629450D02*
X111925698Y-92296117D01*
X111925698Y-92296117D02*
X111925698Y-92438974D01*
X111925698Y-92438974D02*
X111973317Y-92534212D01*
X111973317Y-92534212D02*
X112020936Y-92581831D01*
X112020936Y-92581831D02*
X112116174Y-92629450D01*
X112116174Y-92629450D02*
X112354269Y-92629450D01*
X112354269Y-92629450D02*
X112449507Y-92581831D01*
X112449507Y-92581831D02*
X112497127Y-92534212D01*
X112497127Y-92534212D02*
X112544746Y-92438974D01*
X112544746Y-92438974D02*
X112544746Y-92153260D01*
X112544746Y-92153260D02*
X112497127Y-92058022D01*
X112497127Y-92058022D02*
X112449507Y-92010403D01*
X112544746Y-88184688D02*
X112068555Y-87851355D01*
X112544746Y-87613260D02*
X111544746Y-87613260D01*
X111544746Y-87613260D02*
X111544746Y-87994212D01*
X111544746Y-87994212D02*
X111592365Y-88089450D01*
X111592365Y-88089450D02*
X111639984Y-88137069D01*
X111639984Y-88137069D02*
X111735222Y-88184688D01*
X111735222Y-88184688D02*
X111878079Y-88184688D01*
X111878079Y-88184688D02*
X111973317Y-88137069D01*
X111973317Y-88137069D02*
X112020936Y-88089450D01*
X112020936Y-88089450D02*
X112068555Y-87994212D01*
X112068555Y-87994212D02*
X112068555Y-87613260D01*
X111639984Y-88565641D02*
X111592365Y-88613260D01*
X111592365Y-88613260D02*
X111544746Y-88708498D01*
X111544746Y-88708498D02*
X111544746Y-88946593D01*
X111544746Y-88946593D02*
X111592365Y-89041831D01*
X111592365Y-89041831D02*
X111639984Y-89089450D01*
X111639984Y-89089450D02*
X111735222Y-89137069D01*
X111735222Y-89137069D02*
X111830460Y-89137069D01*
X111830460Y-89137069D02*
X111973317Y-89089450D01*
X111973317Y-89089450D02*
X112544746Y-88518022D01*
X112544746Y-88518022D02*
X112544746Y-89137069D01*
X111878079Y-89994212D02*
X112544746Y-89994212D01*
X111497127Y-89756117D02*
X112211412Y-89518022D01*
X112211412Y-89518022D02*
X112211412Y-90137069D01*
X116202346Y-98344688D02*
X115726155Y-98011355D01*
X116202346Y-97773260D02*
X115202346Y-97773260D01*
X115202346Y-97773260D02*
X115202346Y-98154212D01*
X115202346Y-98154212D02*
X115249965Y-98249450D01*
X115249965Y-98249450D02*
X115297584Y-98297069D01*
X115297584Y-98297069D02*
X115392822Y-98344688D01*
X115392822Y-98344688D02*
X115535679Y-98344688D01*
X115535679Y-98344688D02*
X115630917Y-98297069D01*
X115630917Y-98297069D02*
X115678536Y-98249450D01*
X115678536Y-98249450D02*
X115726155Y-98154212D01*
X115726155Y-98154212D02*
X115726155Y-97773260D01*
X115202346Y-98678022D02*
X115202346Y-99297069D01*
X115202346Y-99297069D02*
X115583298Y-98963736D01*
X115583298Y-98963736D02*
X115583298Y-99106593D01*
X115583298Y-99106593D02*
X115630917Y-99201831D01*
X115630917Y-99201831D02*
X115678536Y-99249450D01*
X115678536Y-99249450D02*
X115773774Y-99297069D01*
X115773774Y-99297069D02*
X116011869Y-99297069D01*
X116011869Y-99297069D02*
X116107107Y-99249450D01*
X116107107Y-99249450D02*
X116154727Y-99201831D01*
X116154727Y-99201831D02*
X116202346Y-99106593D01*
X116202346Y-99106593D02*
X116202346Y-98820879D01*
X116202346Y-98820879D02*
X116154727Y-98725641D01*
X116154727Y-98725641D02*
X116107107Y-98678022D01*
X115202346Y-100154212D02*
X115202346Y-99963736D01*
X115202346Y-99963736D02*
X115249965Y-99868498D01*
X115249965Y-99868498D02*
X115297584Y-99820879D01*
X115297584Y-99820879D02*
X115440441Y-99725641D01*
X115440441Y-99725641D02*
X115630917Y-99678022D01*
X115630917Y-99678022D02*
X116011869Y-99678022D01*
X116011869Y-99678022D02*
X116107107Y-99725641D01*
X116107107Y-99725641D02*
X116154727Y-99773260D01*
X116154727Y-99773260D02*
X116202346Y-99868498D01*
X116202346Y-99868498D02*
X116202346Y-100058974D01*
X116202346Y-100058974D02*
X116154727Y-100154212D01*
X116154727Y-100154212D02*
X116107107Y-100201831D01*
X116107107Y-100201831D02*
X116011869Y-100249450D01*
X116011869Y-100249450D02*
X115773774Y-100249450D01*
X115773774Y-100249450D02*
X115678536Y-100201831D01*
X115678536Y-100201831D02*
X115630917Y-100154212D01*
X115630917Y-100154212D02*
X115583298Y-100058974D01*
X115583298Y-100058974D02*
X115583298Y-99868498D01*
X115583298Y-99868498D02*
X115630917Y-99773260D01*
X115630917Y-99773260D02*
X115678536Y-99725641D01*
X115678536Y-99725641D02*
X115773774Y-99678022D01*
X102598879Y-83920365D02*
X102598879Y-84634650D01*
X102598879Y-84634650D02*
X102646498Y-84777507D01*
X102646498Y-84777507D02*
X102741736Y-84872746D01*
X102741736Y-84872746D02*
X102884593Y-84920365D01*
X102884593Y-84920365D02*
X102979831Y-84920365D01*
X102170307Y-84015603D02*
X102122688Y-83967984D01*
X102122688Y-83967984D02*
X102027450Y-83920365D01*
X102027450Y-83920365D02*
X101789355Y-83920365D01*
X101789355Y-83920365D02*
X101694117Y-83967984D01*
X101694117Y-83967984D02*
X101646498Y-84015603D01*
X101646498Y-84015603D02*
X101598879Y-84110841D01*
X101598879Y-84110841D02*
X101598879Y-84206079D01*
X101598879Y-84206079D02*
X101646498Y-84348936D01*
X101646498Y-84348936D02*
X102217926Y-84920365D01*
X102217926Y-84920365D02*
X101598879Y-84920365D01*
X114221146Y-98344688D02*
X113744955Y-98011355D01*
X114221146Y-97773260D02*
X113221146Y-97773260D01*
X113221146Y-97773260D02*
X113221146Y-98154212D01*
X113221146Y-98154212D02*
X113268765Y-98249450D01*
X113268765Y-98249450D02*
X113316384Y-98297069D01*
X113316384Y-98297069D02*
X113411622Y-98344688D01*
X113411622Y-98344688D02*
X113554479Y-98344688D01*
X113554479Y-98344688D02*
X113649717Y-98297069D01*
X113649717Y-98297069D02*
X113697336Y-98249450D01*
X113697336Y-98249450D02*
X113744955Y-98154212D01*
X113744955Y-98154212D02*
X113744955Y-97773260D01*
X113316384Y-98725641D02*
X113268765Y-98773260D01*
X113268765Y-98773260D02*
X113221146Y-98868498D01*
X113221146Y-98868498D02*
X113221146Y-99106593D01*
X113221146Y-99106593D02*
X113268765Y-99201831D01*
X113268765Y-99201831D02*
X113316384Y-99249450D01*
X113316384Y-99249450D02*
X113411622Y-99297069D01*
X113411622Y-99297069D02*
X113506860Y-99297069D01*
X113506860Y-99297069D02*
X113649717Y-99249450D01*
X113649717Y-99249450D02*
X114221146Y-98678022D01*
X114221146Y-98678022D02*
X114221146Y-99297069D01*
X113649717Y-99868498D02*
X113602098Y-99773260D01*
X113602098Y-99773260D02*
X113554479Y-99725641D01*
X113554479Y-99725641D02*
X113459241Y-99678022D01*
X113459241Y-99678022D02*
X113411622Y-99678022D01*
X113411622Y-99678022D02*
X113316384Y-99725641D01*
X113316384Y-99725641D02*
X113268765Y-99773260D01*
X113268765Y-99773260D02*
X113221146Y-99868498D01*
X113221146Y-99868498D02*
X113221146Y-100058974D01*
X113221146Y-100058974D02*
X113268765Y-100154212D01*
X113268765Y-100154212D02*
X113316384Y-100201831D01*
X113316384Y-100201831D02*
X113411622Y-100249450D01*
X113411622Y-100249450D02*
X113459241Y-100249450D01*
X113459241Y-100249450D02*
X113554479Y-100201831D01*
X113554479Y-100201831D02*
X113602098Y-100154212D01*
X113602098Y-100154212D02*
X113649717Y-100058974D01*
X113649717Y-100058974D02*
X113649717Y-99868498D01*
X113649717Y-99868498D02*
X113697336Y-99773260D01*
X113697336Y-99773260D02*
X113744955Y-99725641D01*
X113744955Y-99725641D02*
X113840193Y-99678022D01*
X113840193Y-99678022D02*
X114030669Y-99678022D01*
X114030669Y-99678022D02*
X114125907Y-99725641D01*
X114125907Y-99725641D02*
X114173527Y-99773260D01*
X114173527Y-99773260D02*
X114221146Y-99868498D01*
X114221146Y-99868498D02*
X114221146Y-100058974D01*
X114221146Y-100058974D02*
X114173527Y-100154212D01*
X114173527Y-100154212D02*
X114125907Y-100201831D01*
X114125907Y-100201831D02*
X114030669Y-100249450D01*
X114030669Y-100249450D02*
X113840193Y-100249450D01*
X113840193Y-100249450D02*
X113744955Y-100201831D01*
X113744955Y-100201831D02*
X113697336Y-100154212D01*
X113697336Y-100154212D02*
X113649717Y-100058974D01*
X114221146Y-90724688D02*
X113744955Y-90391355D01*
X114221146Y-90153260D02*
X113221146Y-90153260D01*
X113221146Y-90153260D02*
X113221146Y-90534212D01*
X113221146Y-90534212D02*
X113268765Y-90629450D01*
X113268765Y-90629450D02*
X113316384Y-90677069D01*
X113316384Y-90677069D02*
X113411622Y-90724688D01*
X113411622Y-90724688D02*
X113554479Y-90724688D01*
X113554479Y-90724688D02*
X113649717Y-90677069D01*
X113649717Y-90677069D02*
X113697336Y-90629450D01*
X113697336Y-90629450D02*
X113744955Y-90534212D01*
X113744955Y-90534212D02*
X113744955Y-90153260D01*
X113221146Y-91058022D02*
X113221146Y-91677069D01*
X113221146Y-91677069D02*
X113602098Y-91343736D01*
X113602098Y-91343736D02*
X113602098Y-91486593D01*
X113602098Y-91486593D02*
X113649717Y-91581831D01*
X113649717Y-91581831D02*
X113697336Y-91629450D01*
X113697336Y-91629450D02*
X113792574Y-91677069D01*
X113792574Y-91677069D02*
X114030669Y-91677069D01*
X114030669Y-91677069D02*
X114125907Y-91629450D01*
X114125907Y-91629450D02*
X114173527Y-91581831D01*
X114173527Y-91581831D02*
X114221146Y-91486593D01*
X114221146Y-91486593D02*
X114221146Y-91200879D01*
X114221146Y-91200879D02*
X114173527Y-91105641D01*
X114173527Y-91105641D02*
X114125907Y-91058022D01*
X114221146Y-92629450D02*
X114221146Y-92058022D01*
X114221146Y-92343736D02*
X113221146Y-92343736D01*
X113221146Y-92343736D02*
X113364003Y-92248498D01*
X113364003Y-92248498D02*
X113459241Y-92153260D01*
X113459241Y-92153260D02*
X113506860Y-92058022D01*
X117853346Y-88660879D02*
X117377155Y-88327546D01*
X117853346Y-88089451D02*
X116853346Y-88089451D01*
X116853346Y-88089451D02*
X116853346Y-88470403D01*
X116853346Y-88470403D02*
X116900965Y-88565641D01*
X116900965Y-88565641D02*
X116948584Y-88613260D01*
X116948584Y-88613260D02*
X117043822Y-88660879D01*
X117043822Y-88660879D02*
X117186679Y-88660879D01*
X117186679Y-88660879D02*
X117281917Y-88613260D01*
X117281917Y-88613260D02*
X117329536Y-88565641D01*
X117329536Y-88565641D02*
X117377155Y-88470403D01*
X117377155Y-88470403D02*
X117377155Y-88089451D01*
X117281917Y-89232308D02*
X117234298Y-89137070D01*
X117234298Y-89137070D02*
X117186679Y-89089451D01*
X117186679Y-89089451D02*
X117091441Y-89041832D01*
X117091441Y-89041832D02*
X117043822Y-89041832D01*
X117043822Y-89041832D02*
X116948584Y-89089451D01*
X116948584Y-89089451D02*
X116900965Y-89137070D01*
X116900965Y-89137070D02*
X116853346Y-89232308D01*
X116853346Y-89232308D02*
X116853346Y-89422784D01*
X116853346Y-89422784D02*
X116900965Y-89518022D01*
X116900965Y-89518022D02*
X116948584Y-89565641D01*
X116948584Y-89565641D02*
X117043822Y-89613260D01*
X117043822Y-89613260D02*
X117091441Y-89613260D01*
X117091441Y-89613260D02*
X117186679Y-89565641D01*
X117186679Y-89565641D02*
X117234298Y-89518022D01*
X117234298Y-89518022D02*
X117281917Y-89422784D01*
X117281917Y-89422784D02*
X117281917Y-89232308D01*
X117281917Y-89232308D02*
X117329536Y-89137070D01*
X117329536Y-89137070D02*
X117377155Y-89089451D01*
X117377155Y-89089451D02*
X117472393Y-89041832D01*
X117472393Y-89041832D02*
X117662869Y-89041832D01*
X117662869Y-89041832D02*
X117758107Y-89089451D01*
X117758107Y-89089451D02*
X117805727Y-89137070D01*
X117805727Y-89137070D02*
X117853346Y-89232308D01*
X117853346Y-89232308D02*
X117853346Y-89422784D01*
X117853346Y-89422784D02*
X117805727Y-89518022D01*
X117805727Y-89518022D02*
X117758107Y-89565641D01*
X117758107Y-89565641D02*
X117662869Y-89613260D01*
X117662869Y-89613260D02*
X117472393Y-89613260D01*
X117472393Y-89613260D02*
X117377155Y-89565641D01*
X117377155Y-89565641D02*
X117329536Y-89518022D01*
X117329536Y-89518022D02*
X117281917Y-89422784D01*
X109037946Y-82418888D02*
X108561755Y-82085555D01*
X109037946Y-81847460D02*
X108037946Y-81847460D01*
X108037946Y-81847460D02*
X108037946Y-82228412D01*
X108037946Y-82228412D02*
X108085565Y-82323650D01*
X108085565Y-82323650D02*
X108133184Y-82371269D01*
X108133184Y-82371269D02*
X108228422Y-82418888D01*
X108228422Y-82418888D02*
X108371279Y-82418888D01*
X108371279Y-82418888D02*
X108466517Y-82371269D01*
X108466517Y-82371269D02*
X108514136Y-82323650D01*
X108514136Y-82323650D02*
X108561755Y-82228412D01*
X108561755Y-82228412D02*
X108561755Y-81847460D01*
X109037946Y-83371269D02*
X109037946Y-82799841D01*
X109037946Y-83085555D02*
X108037946Y-83085555D01*
X108037946Y-83085555D02*
X108180803Y-82990317D01*
X108180803Y-82990317D02*
X108276041Y-82895079D01*
X108276041Y-82895079D02*
X108323660Y-82799841D01*
X108037946Y-84228412D02*
X108037946Y-84037936D01*
X108037946Y-84037936D02*
X108085565Y-83942698D01*
X108085565Y-83942698D02*
X108133184Y-83895079D01*
X108133184Y-83895079D02*
X108276041Y-83799841D01*
X108276041Y-83799841D02*
X108466517Y-83752222D01*
X108466517Y-83752222D02*
X108847469Y-83752222D01*
X108847469Y-83752222D02*
X108942707Y-83799841D01*
X108942707Y-83799841D02*
X108990327Y-83847460D01*
X108990327Y-83847460D02*
X109037946Y-83942698D01*
X109037946Y-83942698D02*
X109037946Y-84133174D01*
X109037946Y-84133174D02*
X108990327Y-84228412D01*
X108990327Y-84228412D02*
X108942707Y-84276031D01*
X108942707Y-84276031D02*
X108847469Y-84323650D01*
X108847469Y-84323650D02*
X108609374Y-84323650D01*
X108609374Y-84323650D02*
X108514136Y-84276031D01*
X108514136Y-84276031D02*
X108466517Y-84228412D01*
X108466517Y-84228412D02*
X108418898Y-84133174D01*
X108418898Y-84133174D02*
X108418898Y-83942698D01*
X108418898Y-83942698D02*
X108466517Y-83847460D01*
X108466517Y-83847460D02*
X108514136Y-83799841D01*
X108514136Y-83799841D02*
X108609374Y-83752222D01*
X112544746Y-100884688D02*
X112068555Y-100551355D01*
X112544746Y-100313260D02*
X111544746Y-100313260D01*
X111544746Y-100313260D02*
X111544746Y-100694212D01*
X111544746Y-100694212D02*
X111592365Y-100789450D01*
X111592365Y-100789450D02*
X111639984Y-100837069D01*
X111639984Y-100837069D02*
X111735222Y-100884688D01*
X111735222Y-100884688D02*
X111878079Y-100884688D01*
X111878079Y-100884688D02*
X111973317Y-100837069D01*
X111973317Y-100837069D02*
X112020936Y-100789450D01*
X112020936Y-100789450D02*
X112068555Y-100694212D01*
X112068555Y-100694212D02*
X112068555Y-100313260D01*
X112544746Y-101837069D02*
X112544746Y-101265641D01*
X112544746Y-101551355D02*
X111544746Y-101551355D01*
X111544746Y-101551355D02*
X111687603Y-101456117D01*
X111687603Y-101456117D02*
X111782841Y-101360879D01*
X111782841Y-101360879D02*
X111830460Y-101265641D01*
X112544746Y-102313260D02*
X112544746Y-102503736D01*
X112544746Y-102503736D02*
X112497127Y-102598974D01*
X112497127Y-102598974D02*
X112449507Y-102646593D01*
X112449507Y-102646593D02*
X112306650Y-102741831D01*
X112306650Y-102741831D02*
X112116174Y-102789450D01*
X112116174Y-102789450D02*
X111735222Y-102789450D01*
X111735222Y-102789450D02*
X111639984Y-102741831D01*
X111639984Y-102741831D02*
X111592365Y-102694212D01*
X111592365Y-102694212D02*
X111544746Y-102598974D01*
X111544746Y-102598974D02*
X111544746Y-102408498D01*
X111544746Y-102408498D02*
X111592365Y-102313260D01*
X111592365Y-102313260D02*
X111639984Y-102265641D01*
X111639984Y-102265641D02*
X111735222Y-102218022D01*
X111735222Y-102218022D02*
X111973317Y-102218022D01*
X111973317Y-102218022D02*
X112068555Y-102265641D01*
X112068555Y-102265641D02*
X112116174Y-102313260D01*
X112116174Y-102313260D02*
X112163793Y-102408498D01*
X112163793Y-102408498D02*
X112163793Y-102598974D01*
X112163793Y-102598974D02*
X112116174Y-102694212D01*
X112116174Y-102694212D02*
X112068555Y-102741831D01*
X112068555Y-102741831D02*
X111973317Y-102789450D01*
X114221146Y-103424688D02*
X113744955Y-103091355D01*
X114221146Y-102853260D02*
X113221146Y-102853260D01*
X113221146Y-102853260D02*
X113221146Y-103234212D01*
X113221146Y-103234212D02*
X113268765Y-103329450D01*
X113268765Y-103329450D02*
X113316384Y-103377069D01*
X113316384Y-103377069D02*
X113411622Y-103424688D01*
X113411622Y-103424688D02*
X113554479Y-103424688D01*
X113554479Y-103424688D02*
X113649717Y-103377069D01*
X113649717Y-103377069D02*
X113697336Y-103329450D01*
X113697336Y-103329450D02*
X113744955Y-103234212D01*
X113744955Y-103234212D02*
X113744955Y-102853260D01*
X113316384Y-103805641D02*
X113268765Y-103853260D01*
X113268765Y-103853260D02*
X113221146Y-103948498D01*
X113221146Y-103948498D02*
X113221146Y-104186593D01*
X113221146Y-104186593D02*
X113268765Y-104281831D01*
X113268765Y-104281831D02*
X113316384Y-104329450D01*
X113316384Y-104329450D02*
X113411622Y-104377069D01*
X113411622Y-104377069D02*
X113506860Y-104377069D01*
X113506860Y-104377069D02*
X113649717Y-104329450D01*
X113649717Y-104329450D02*
X114221146Y-103758022D01*
X114221146Y-103758022D02*
X114221146Y-104377069D01*
X113221146Y-105234212D02*
X113221146Y-105043736D01*
X113221146Y-105043736D02*
X113268765Y-104948498D01*
X113268765Y-104948498D02*
X113316384Y-104900879D01*
X113316384Y-104900879D02*
X113459241Y-104805641D01*
X113459241Y-104805641D02*
X113649717Y-104758022D01*
X113649717Y-104758022D02*
X114030669Y-104758022D01*
X114030669Y-104758022D02*
X114125907Y-104805641D01*
X114125907Y-104805641D02*
X114173527Y-104853260D01*
X114173527Y-104853260D02*
X114221146Y-104948498D01*
X114221146Y-104948498D02*
X114221146Y-105138974D01*
X114221146Y-105138974D02*
X114173527Y-105234212D01*
X114173527Y-105234212D02*
X114125907Y-105281831D01*
X114125907Y-105281831D02*
X114030669Y-105329450D01*
X114030669Y-105329450D02*
X113792574Y-105329450D01*
X113792574Y-105329450D02*
X113697336Y-105281831D01*
X113697336Y-105281831D02*
X113649717Y-105234212D01*
X113649717Y-105234212D02*
X113602098Y-105138974D01*
X113602098Y-105138974D02*
X113602098Y-104948498D01*
X113602098Y-104948498D02*
X113649717Y-104853260D01*
X113649717Y-104853260D02*
X113697336Y-104805641D01*
X113697336Y-104805641D02*
X113792574Y-104758022D01*
X114221146Y-88184688D02*
X113744955Y-87851355D01*
X114221146Y-87613260D02*
X113221146Y-87613260D01*
X113221146Y-87613260D02*
X113221146Y-87994212D01*
X113221146Y-87994212D02*
X113268765Y-88089450D01*
X113268765Y-88089450D02*
X113316384Y-88137069D01*
X113316384Y-88137069D02*
X113411622Y-88184688D01*
X113411622Y-88184688D02*
X113554479Y-88184688D01*
X113554479Y-88184688D02*
X113649717Y-88137069D01*
X113649717Y-88137069D02*
X113697336Y-88089450D01*
X113697336Y-88089450D02*
X113744955Y-87994212D01*
X113744955Y-87994212D02*
X113744955Y-87613260D01*
X113221146Y-88518022D02*
X113221146Y-89137069D01*
X113221146Y-89137069D02*
X113602098Y-88803736D01*
X113602098Y-88803736D02*
X113602098Y-88946593D01*
X113602098Y-88946593D02*
X113649717Y-89041831D01*
X113649717Y-89041831D02*
X113697336Y-89089450D01*
X113697336Y-89089450D02*
X113792574Y-89137069D01*
X113792574Y-89137069D02*
X114030669Y-89137069D01*
X114030669Y-89137069D02*
X114125907Y-89089450D01*
X114125907Y-89089450D02*
X114173527Y-89041831D01*
X114173527Y-89041831D02*
X114221146Y-88946593D01*
X114221146Y-88946593D02*
X114221146Y-88660879D01*
X114221146Y-88660879D02*
X114173527Y-88565641D01*
X114173527Y-88565641D02*
X114125907Y-88518022D01*
X113316384Y-89518022D02*
X113268765Y-89565641D01*
X113268765Y-89565641D02*
X113221146Y-89660879D01*
X113221146Y-89660879D02*
X113221146Y-89898974D01*
X113221146Y-89898974D02*
X113268765Y-89994212D01*
X113268765Y-89994212D02*
X113316384Y-90041831D01*
X113316384Y-90041831D02*
X113411622Y-90089450D01*
X113411622Y-90089450D02*
X113506860Y-90089450D01*
X113506860Y-90089450D02*
X113649717Y-90041831D01*
X113649717Y-90041831D02*
X114221146Y-89470403D01*
X114221146Y-89470403D02*
X114221146Y-90089450D01*
X116202346Y-93264688D02*
X115726155Y-92931355D01*
X116202346Y-92693260D02*
X115202346Y-92693260D01*
X115202346Y-92693260D02*
X115202346Y-93074212D01*
X115202346Y-93074212D02*
X115249965Y-93169450D01*
X115249965Y-93169450D02*
X115297584Y-93217069D01*
X115297584Y-93217069D02*
X115392822Y-93264688D01*
X115392822Y-93264688D02*
X115535679Y-93264688D01*
X115535679Y-93264688D02*
X115630917Y-93217069D01*
X115630917Y-93217069D02*
X115678536Y-93169450D01*
X115678536Y-93169450D02*
X115726155Y-93074212D01*
X115726155Y-93074212D02*
X115726155Y-92693260D01*
X115202346Y-93598022D02*
X115202346Y-94217069D01*
X115202346Y-94217069D02*
X115583298Y-93883736D01*
X115583298Y-93883736D02*
X115583298Y-94026593D01*
X115583298Y-94026593D02*
X115630917Y-94121831D01*
X115630917Y-94121831D02*
X115678536Y-94169450D01*
X115678536Y-94169450D02*
X115773774Y-94217069D01*
X115773774Y-94217069D02*
X116011869Y-94217069D01*
X116011869Y-94217069D02*
X116107107Y-94169450D01*
X116107107Y-94169450D02*
X116154727Y-94121831D01*
X116154727Y-94121831D02*
X116202346Y-94026593D01*
X116202346Y-94026593D02*
X116202346Y-93740879D01*
X116202346Y-93740879D02*
X116154727Y-93645641D01*
X116154727Y-93645641D02*
X116107107Y-93598022D01*
X115630917Y-94788498D02*
X115583298Y-94693260D01*
X115583298Y-94693260D02*
X115535679Y-94645641D01*
X115535679Y-94645641D02*
X115440441Y-94598022D01*
X115440441Y-94598022D02*
X115392822Y-94598022D01*
X115392822Y-94598022D02*
X115297584Y-94645641D01*
X115297584Y-94645641D02*
X115249965Y-94693260D01*
X115249965Y-94693260D02*
X115202346Y-94788498D01*
X115202346Y-94788498D02*
X115202346Y-94978974D01*
X115202346Y-94978974D02*
X115249965Y-95074212D01*
X115249965Y-95074212D02*
X115297584Y-95121831D01*
X115297584Y-95121831D02*
X115392822Y-95169450D01*
X115392822Y-95169450D02*
X115440441Y-95169450D01*
X115440441Y-95169450D02*
X115535679Y-95121831D01*
X115535679Y-95121831D02*
X115583298Y-95074212D01*
X115583298Y-95074212D02*
X115630917Y-94978974D01*
X115630917Y-94978974D02*
X115630917Y-94788498D01*
X115630917Y-94788498D02*
X115678536Y-94693260D01*
X115678536Y-94693260D02*
X115726155Y-94645641D01*
X115726155Y-94645641D02*
X115821393Y-94598022D01*
X115821393Y-94598022D02*
X116011869Y-94598022D01*
X116011869Y-94598022D02*
X116107107Y-94645641D01*
X116107107Y-94645641D02*
X116154727Y-94693260D01*
X116154727Y-94693260D02*
X116202346Y-94788498D01*
X116202346Y-94788498D02*
X116202346Y-94978974D01*
X116202346Y-94978974D02*
X116154727Y-95074212D01*
X116154727Y-95074212D02*
X116107107Y-95121831D01*
X116107107Y-95121831D02*
X116011869Y-95169450D01*
X116011869Y-95169450D02*
X115821393Y-95169450D01*
X115821393Y-95169450D02*
X115726155Y-95121831D01*
X115726155Y-95121831D02*
X115678536Y-95074212D01*
X115678536Y-95074212D02*
X115630917Y-94978974D01*
D11*
%TO.C,R4*%
X115848527Y-98833905D02*
X115848527Y-99141187D01*
X116608527Y-98833905D02*
X116608527Y-99141187D01*
%TO.C,R10*%
X108660327Y-103913905D02*
X108660327Y-104221187D01*
X109420327Y-103913905D02*
X109420327Y-104221187D01*
%TO.C,R25*%
X112216327Y-106403105D02*
X112216327Y-106710387D01*
X112976327Y-106403105D02*
X112976327Y-106710387D01*
%TO.C,R22*%
X110539927Y-93753905D02*
X110539927Y-94061187D01*
X111299927Y-93753905D02*
X111299927Y-94061187D01*
%TO.C,R6*%
X115848527Y-93753905D02*
X115848527Y-94061187D01*
X116608527Y-93753905D02*
X116608527Y-94061187D01*
%TO.C,R1*%
X115848527Y-106403105D02*
X115848527Y-106710387D01*
X116608527Y-106403105D02*
X116608527Y-106710387D01*
%TO.C,R12*%
X108660327Y-98833905D02*
X108660327Y-99141187D01*
X109420327Y-98833905D02*
X109420327Y-99141187D01*
%TO.C,R2*%
X115848527Y-103913905D02*
X115848527Y-104221187D01*
X116608527Y-103913905D02*
X116608527Y-104221187D01*
%TO.C,R34*%
X114197527Y-103913905D02*
X114197527Y-104221187D01*
X114957527Y-103913905D02*
X114957527Y-104221187D01*
%TO.C,R15*%
X108660327Y-91213905D02*
X108660327Y-91521187D01*
X109420327Y-91213905D02*
X109420327Y-91521187D01*
%TO.C,R37*%
X114197527Y-96293905D02*
X114197527Y-96601187D01*
X114957527Y-96293905D02*
X114957527Y-96601187D01*
%TO.C,R21*%
X110539927Y-96293905D02*
X110539927Y-96601187D01*
X111299927Y-96293905D02*
X111299927Y-96601187D01*
%TO.C,R13*%
X108660327Y-96293905D02*
X108660327Y-96601187D01*
X109420327Y-96293905D02*
X109420327Y-96601187D01*
%TO.C,R29*%
X112216327Y-96293905D02*
X112216327Y-96601187D01*
X112976327Y-96293905D02*
X112976327Y-96601187D01*
%TO.C,R33*%
X114197527Y-106403105D02*
X114197527Y-106710387D01*
X114957527Y-106403105D02*
X114957527Y-106710387D01*
%TO.C,R9*%
X108660327Y-106403105D02*
X108660327Y-106710387D01*
X109420327Y-106403105D02*
X109420327Y-106710387D01*
%TO.C,R30*%
X112216327Y-93753905D02*
X112216327Y-94061187D01*
X112976327Y-93753905D02*
X112976327Y-94061187D01*
%TO.C,R17*%
X110539927Y-106403105D02*
X110539927Y-106710387D01*
X111299927Y-106403105D02*
X111299927Y-106710387D01*
%TO.C,R5*%
X115848527Y-96293905D02*
X115848527Y-96601187D01*
X116608527Y-96293905D02*
X116608527Y-96601187D01*
%TO.C,R27*%
X112216327Y-101373905D02*
X112216327Y-101681187D01*
X112976327Y-101373905D02*
X112976327Y-101681187D01*
%TO.C,R18*%
X110539927Y-103913905D02*
X110539927Y-104221187D01*
X111299927Y-103913905D02*
X111299927Y-104221187D01*
%TO.C,R39*%
X114197527Y-91213905D02*
X114197527Y-91521187D01*
X114957527Y-91213905D02*
X114957527Y-91521187D01*
%TO.C,R7*%
X115848527Y-91213905D02*
X115848527Y-91521187D01*
X116608527Y-91213905D02*
X116608527Y-91521187D01*
%TO.C,R35*%
X114197527Y-101373905D02*
X114197527Y-101681187D01*
X114957527Y-101373905D02*
X114957527Y-101681187D01*
%TO.C,J3*%
X186205546Y-88005546D02*
X186205546Y-108445546D01*
X188805546Y-88005546D02*
X186205546Y-88005546D01*
X188805546Y-90605546D02*
X188805546Y-88005546D01*
X191405546Y-88005546D02*
X190075546Y-88005546D01*
X191405546Y-89335546D02*
X191405546Y-88005546D01*
X191405546Y-90605546D02*
X188805546Y-90605546D01*
X191405546Y-90605546D02*
X191405546Y-108445546D01*
X191405546Y-108445546D02*
X186205546Y-108445546D01*
%TO.C,R11*%
X108660327Y-101373905D02*
X108660327Y-101681187D01*
X109420327Y-101373905D02*
X109420327Y-101681187D01*
%TO.C,R3*%
X115848527Y-101373905D02*
X115848527Y-101681187D01*
X116608527Y-101373905D02*
X116608527Y-101681187D01*
%TO.C,R40*%
X114197527Y-88673905D02*
X114197527Y-88981187D01*
X114957527Y-88673905D02*
X114957527Y-88981187D01*
%TO.C,R14*%
X108660327Y-93753905D02*
X108660327Y-94061187D01*
X109420327Y-93753905D02*
X109420327Y-94061187D01*
%TO.C,R20*%
X110539927Y-98833905D02*
X110539927Y-99141187D01*
X111299927Y-98833905D02*
X111299927Y-99141187D01*
%TO.C,R23*%
X110539927Y-91213905D02*
X110539927Y-91521187D01*
X111299927Y-91213905D02*
X111299927Y-91521187D01*
%TO.C,R24*%
X110539927Y-88673905D02*
X110539927Y-88981187D01*
X111299927Y-88673905D02*
X111299927Y-88981187D01*
%TO.C,R36*%
X114197527Y-98833905D02*
X114197527Y-99141187D01*
X114957527Y-98833905D02*
X114957527Y-99141187D01*
%TO.C,J2*%
X99665546Y-85465546D02*
X102265546Y-85465546D01*
X99665546Y-110985546D02*
X99665546Y-85465546D01*
X99665546Y-110985546D02*
X104865546Y-110985546D01*
X102265546Y-85465546D02*
X102265546Y-88065546D01*
X102265546Y-88065546D02*
X104865546Y-88065546D01*
X103535546Y-85465546D02*
X104865546Y-85465546D01*
X104865546Y-85465546D02*
X104865546Y-86795546D01*
X104865546Y-110985546D02*
X104865546Y-88065546D01*
%TO.C,R28*%
X112216327Y-98833905D02*
X112216327Y-99141187D01*
X112976327Y-98833905D02*
X112976327Y-99141187D01*
%TO.C,R31*%
X112216327Y-91213905D02*
X112216327Y-91521187D01*
X112976327Y-91213905D02*
X112976327Y-91521187D01*
%TO.C,R8*%
X115848527Y-88673905D02*
X115848527Y-88981187D01*
X116608527Y-88673905D02*
X116608527Y-88981187D01*
%TO.C,R16*%
X108660327Y-88673905D02*
X108660327Y-88981187D01*
X109420327Y-88673905D02*
X109420327Y-88981187D01*
%TO.C,R19*%
X110539927Y-101373905D02*
X110539927Y-101681187D01*
X111299927Y-101373905D02*
X111299927Y-101681187D01*
%TO.C,R26*%
X112216327Y-103913905D02*
X112216327Y-104221187D01*
X112976327Y-103913905D02*
X112976327Y-104221187D01*
%TO.C,R32*%
X112216327Y-88673905D02*
X112216327Y-88981187D01*
X112976327Y-88673905D02*
X112976327Y-88981187D01*
%TO.C,R38*%
X114197527Y-93753905D02*
X114197527Y-94061187D01*
X114957527Y-93753905D02*
X114957527Y-94061187D01*
%TD*%
%LPC*%
D12*
%TO.C,J1*%
X133907600Y-99713200D03*
D13*
X133907600Y-97713200D03*
X133907600Y-95713200D03*
X133907600Y-93713200D03*
%TD*%
D14*
%TO.C,R4*%
X116228527Y-99497546D03*
X116228527Y-98477546D03*
%TD*%
%TO.C,R10*%
X109040327Y-104577546D03*
X109040327Y-103557546D03*
%TD*%
%TO.C,R25*%
X112596327Y-107066746D03*
X112596327Y-106046746D03*
%TD*%
%TO.C,R22*%
X110919927Y-94417546D03*
X110919927Y-93397546D03*
%TD*%
%TO.C,R6*%
X116228527Y-94417546D03*
X116228527Y-93397546D03*
%TD*%
%TO.C,R1*%
X116228527Y-107066746D03*
X116228527Y-106046746D03*
%TD*%
%TO.C,R12*%
X109040327Y-99497546D03*
X109040327Y-98477546D03*
%TD*%
%TO.C,R2*%
X116228527Y-104577546D03*
X116228527Y-103557546D03*
%TD*%
%TO.C,R34*%
X114577527Y-104577546D03*
X114577527Y-103557546D03*
%TD*%
%TO.C,R15*%
X109040327Y-91877546D03*
X109040327Y-90857546D03*
%TD*%
%TO.C,R37*%
X114577527Y-96957546D03*
X114577527Y-95937546D03*
%TD*%
%TO.C,R21*%
X110919927Y-96957546D03*
X110919927Y-95937546D03*
%TD*%
%TO.C,R13*%
X109040327Y-96957546D03*
X109040327Y-95937546D03*
%TD*%
%TO.C,R29*%
X112596327Y-96957546D03*
X112596327Y-95937546D03*
%TD*%
%TO.C,R33*%
X114577527Y-107066746D03*
X114577527Y-106046746D03*
%TD*%
%TO.C,R9*%
X109040327Y-107066746D03*
X109040327Y-106046746D03*
%TD*%
%TO.C,R30*%
X112596327Y-94417546D03*
X112596327Y-93397546D03*
%TD*%
%TO.C,R17*%
X110919927Y-107066746D03*
X110919927Y-106046746D03*
%TD*%
%TO.C,R5*%
X116228527Y-96957546D03*
X116228527Y-95937546D03*
%TD*%
%TO.C,R27*%
X112596327Y-102037546D03*
X112596327Y-101017546D03*
%TD*%
%TO.C,R18*%
X110919927Y-104577546D03*
X110919927Y-103557546D03*
%TD*%
%TO.C,R39*%
X114577527Y-91877546D03*
X114577527Y-90857546D03*
%TD*%
%TO.C,R7*%
X116228527Y-91877546D03*
X116228527Y-90857546D03*
%TD*%
%TO.C,R35*%
X114577527Y-102037546D03*
X114577527Y-101017546D03*
%TD*%
D15*
%TO.C,J3*%
X190075546Y-89335546D03*
D16*
X187535546Y-89335546D03*
X190075546Y-91875546D03*
X187535546Y-91875546D03*
X190075546Y-94415546D03*
X187535546Y-94415546D03*
X190075546Y-96955546D03*
X187535546Y-96955546D03*
X190075546Y-99495546D03*
X187535546Y-99495546D03*
X190075546Y-102035546D03*
X187535546Y-102035546D03*
X190075546Y-104575546D03*
X187535546Y-104575546D03*
X190075546Y-107115546D03*
X187535546Y-107115546D03*
%TD*%
D14*
%TO.C,R11*%
X109040327Y-102037546D03*
X109040327Y-101017546D03*
%TD*%
%TO.C,R3*%
X116228527Y-102037546D03*
X116228527Y-101017546D03*
%TD*%
%TO.C,R40*%
X114577527Y-89337546D03*
X114577527Y-88317546D03*
%TD*%
%TO.C,R14*%
X109040327Y-94417546D03*
X109040327Y-93397546D03*
%TD*%
%TO.C,R20*%
X110919927Y-99497546D03*
X110919927Y-98477546D03*
%TD*%
%TO.C,R23*%
X110919927Y-91877546D03*
X110919927Y-90857546D03*
%TD*%
%TO.C,R24*%
X110919927Y-89337546D03*
X110919927Y-88317546D03*
%TD*%
%TO.C,R36*%
X114577527Y-99497546D03*
X114577527Y-98477546D03*
%TD*%
D15*
%TO.C,J2*%
X103535546Y-86795546D03*
D16*
X100995546Y-86795546D03*
X103535546Y-89335546D03*
X100995546Y-89335546D03*
X103535546Y-91875546D03*
X100995546Y-91875546D03*
X103535546Y-94415546D03*
X100995546Y-94415546D03*
X103535546Y-96955546D03*
X100995546Y-96955546D03*
X103535546Y-99495546D03*
X100995546Y-99495546D03*
X103535546Y-102035546D03*
X100995546Y-102035546D03*
X103535546Y-104575546D03*
X100995546Y-104575546D03*
X103535546Y-107115546D03*
X100995546Y-107115546D03*
X103535546Y-109655546D03*
X100995546Y-109655546D03*
%TD*%
D14*
%TO.C,R28*%
X112596327Y-99497546D03*
X112596327Y-98477546D03*
%TD*%
%TO.C,R31*%
X112596327Y-91877546D03*
X112596327Y-90857546D03*
%TD*%
%TO.C,R8*%
X116228527Y-89337546D03*
X116228527Y-88317546D03*
%TD*%
%TO.C,R16*%
X109040327Y-89337546D03*
X109040327Y-88317546D03*
%TD*%
%TO.C,R19*%
X110919927Y-102037546D03*
X110919927Y-101017546D03*
%TD*%
%TO.C,R26*%
X112596327Y-104577546D03*
X112596327Y-103557546D03*
%TD*%
%TO.C,R32*%
X112596327Y-89337546D03*
X112596327Y-88317546D03*
%TD*%
%TO.C,R38*%
X114577527Y-94417546D03*
X114577527Y-93397546D03*
%TD*%
%LPD*%
M02*
