M48
; DRILL file {KiCad 8.0.3} date 2025-07-14T16:25:53+0200
; FORMAT={-:-/ absolute / inch / decimal}
; #@! TF.CreationDate,2025-07-14T16:25:53+02:00
; #@! TF.GenerationSoftware,Kicad,Pcbnew,8.0.3
; #@! TF.FileFunction,Plated,1,2,PTH
FMAT,2
INCH
; #@! TA.AperFunction,Plated,PTH,ViaDrill
T1C0.0118
; #@! TA.AperFunction,Plated,PTH,ViaDrill
T2C0.0157
; #@! TA.AperFunction,Plated,PTH,ComponentDrill
T3C0.0394
%
G90
G05
T1
X3.369Y-2.998
X3.369Y-3.099
X3.369Y-3.199
X3.369Y-3.299
X3.369Y-3.398
X3.369Y-3.499
X3.369Y-3.599
X3.369Y-3.699
X3.456Y-2.998
X3.456Y-3.099
X3.456Y-3.199
X3.456Y-3.299
X3.456Y-3.398
X3.456Y-3.499
X3.456Y-3.599
X3.456Y-3.699
X6.175Y-3.307
T2
X3.7598Y-2.9724
X3.7598Y-3.0315
X4.8461Y-2.815
X4.8965Y-2.815
X4.9465Y-2.815
X4.9965Y-2.815
X6.1614Y-3.4252
T3
X3.1289Y-2.939
X3.1289Y-3.039
X3.1289Y-3.139
X3.1289Y-3.239
X3.1289Y-3.339
X3.1289Y-3.439
X3.1289Y-3.539
X3.1289Y-3.639
X3.1289Y-3.739
X3.1289Y-3.839
X3.2289Y-2.939
X3.2289Y-3.039
X3.2289Y-3.139
X3.2289Y-3.239
X3.2289Y-3.339
X3.2289Y-3.439
X3.2289Y-3.539
X3.2289Y-3.639
X3.2289Y-3.739
X3.2289Y-3.839
X6.536Y-3.039
X6.536Y-3.139
X6.536Y-3.239
X6.536Y-3.339
X6.536Y-3.439
X6.536Y-3.539
X6.536Y-3.639
X6.536Y-3.739
X6.636Y-3.039
X6.636Y-3.139
X6.636Y-3.239
X6.636Y-3.339
X6.636Y-3.439
X6.636Y-3.539
X6.636Y-3.639
X6.636Y-3.739
M30
