%TF.GenerationSoftware,KiCad,Pcbnew,8.0.3*%
%TF.CreationDate,2025-07-14T16:25:52+02:00*%
%TF.ProjectId,Cmes,436d6573-2e6b-4696-9361-645f70636258,rev?*%
%TF.SameCoordinates,Original*%
%TF.FileFunction,Copper,L1,Top*%
%TF.FilePolarity,Positive*%
%FSLAX46Y46*%
G04 Gerber Fmt 4.6, Leading zero omitted, Abs format (unit mm)*
G04 Created by KiCad (PCBNEW 8.0.3) date 2025-07-14 16:25:52*
%MOMM*%
%LPD*%
G01*
G04 APERTURE LIST*
G04 Aperture macros list*
%AMRoundRect*
0 Rectangle with rounded corners*
0 $1 Rounding radius*
0 $2 $3 $4 $5 $6 $7 $8 $9 X,Y pos of 4 corners*
0 Add a 4 corners polygon primitive as box body*
4,1,4,$2,$3,$4,$5,$6,$7,$8,$9,$2,$3,0*
0 Add four circle primitives for the rounded corners*
1,1,$1+$1,$2,$3*
1,1,$1+$1,$4,$5*
1,1,$1+$1,$6,$7*
1,1,$1+$1,$8,$9*
0 Add four rect primitives between the rounded corners*
20,1,$1+$1,$2,$3,$4,$5,0*
20,1,$1+$1,$4,$5,$6,$7,0*
20,1,$1+$1,$6,$7,$8,$9,0*
20,1,$1+$1,$8,$9,$2,$3,0*%
G04 Aperture macros list end*
%TA.AperFunction,SMDPad,CuDef*%
%ADD10R,1.800000X1.100000*%
%TD*%
%TA.AperFunction,SMDPad,CuDef*%
%ADD11RoundRect,0.200000X0.200000X0.275000X-0.200000X0.275000X-0.200000X-0.275000X0.200000X-0.275000X0*%
%TD*%
%TA.AperFunction,SMDPad,CuDef*%
%ADD12RoundRect,0.150000X-0.512500X-0.150000X0.512500X-0.150000X0.512500X0.150000X-0.512500X0.150000X0*%
%TD*%
%TA.AperFunction,SMDPad,CuDef*%
%ADD13RoundRect,0.225000X0.250000X-0.225000X0.250000X0.225000X-0.250000X0.225000X-0.250000X-0.225000X0*%
%TD*%
%TA.AperFunction,SMDPad,CuDef*%
%ADD14R,1.500000X0.760000*%
%TD*%
%TA.AperFunction,SMDPad,CuDef*%
%ADD15RoundRect,0.225000X0.225000X0.250000X-0.225000X0.250000X-0.225000X-0.250000X0.225000X-0.250000X0*%
%TD*%
%TA.AperFunction,SMDPad,CuDef*%
%ADD16RoundRect,0.200000X0.275000X-0.200000X0.275000X0.200000X-0.275000X0.200000X-0.275000X-0.200000X0*%
%TD*%
%TA.AperFunction,SMDPad,CuDef*%
%ADD17R,0.760000X1.500000*%
%TD*%
%TA.AperFunction,SMDPad,CuDef*%
%ADD18RoundRect,0.150000X-0.150000X0.587500X-0.150000X-0.587500X0.150000X-0.587500X0.150000X0.587500X0*%
%TD*%
%TA.AperFunction,ComponentPad*%
%ADD19R,1.700000X1.700000*%
%TD*%
%TA.AperFunction,ComponentPad*%
%ADD20O,1.700000X1.700000*%
%TD*%
%TA.AperFunction,ViaPad*%
%ADD21C,0.800000*%
%TD*%
%TA.AperFunction,ViaPad*%
%ADD22C,0.600000*%
%TD*%
%TA.AperFunction,Conductor*%
%ADD23C,0.381000*%
%TD*%
%TA.AperFunction,Conductor*%
%ADD24C,0.250000*%
%TD*%
G04 APERTURE END LIST*
D10*
%TO.P,SW4,1,1*%
%TO.N,Net-(Q1-D)*%
X108100000Y-78850000D03*
X101900000Y-78850000D03*
%TO.P,SW4,2,2*%
%TO.N,GND*%
X108100000Y-75150000D03*
X101900000Y-75150000D03*
%TD*%
D11*
%TO.P,R3,1*%
%TO.N,Net-(R3-Pad1)*%
X139325000Y-91000000D03*
%TO.P,R3,2*%
%TO.N,Net-(U1-+)*%
X137675000Y-91000000D03*
%TD*%
%TO.P,R4,1*%
%TO.N,Net-(R4-Pad1)*%
X139325000Y-93000000D03*
%TO.P,R4,2*%
%TO.N,Net-(U1-+)*%
X137675000Y-93000000D03*
%TD*%
D12*
%TO.P,U1,1,+*%
%TO.N,Net-(U1-+)*%
X157862500Y-86050000D03*
%TO.P,U1,2,V-*%
%TO.N,GND*%
X157862500Y-87000000D03*
%TO.P,U1,3,-*%
%TO.N,SpgOut*%
X157862500Y-87950000D03*
%TO.P,U1,4*%
X160137500Y-87950000D03*
%TO.P,U1,5,V+*%
%TO.N,+5V*%
X160137500Y-86050000D03*
%TD*%
D13*
%TO.P,C4,1*%
%TO.N,Net-(U1-+)*%
X122000000Y-84275000D03*
%TO.P,C4,2*%
%TO.N,Net-(C4-Pad2)*%
X122000000Y-82725000D03*
%TD*%
D11*
%TO.P,R7,1*%
%TO.N,Net-(U1-+)*%
X112650000Y-93000000D03*
%TO.P,R7,2*%
%TO.N,Net-(R7-Pad2)*%
X111000000Y-93000000D03*
%TD*%
D13*
%TO.P,C3,1*%
%TO.N,Net-(U1-+)*%
X124000000Y-84275000D03*
%TO.P,C3,2*%
%TO.N,Net-(C3-Pad2)*%
X124000000Y-82725000D03*
%TD*%
D14*
%TO.P,SW3,1*%
%TO.N,Net-(Q1-D)*%
X101190000Y-90090000D03*
%TO.P,SW3,2*%
X101190000Y-91360000D03*
%TO.P,SW3,3*%
X101190000Y-92630000D03*
%TO.P,SW3,4*%
X101190000Y-93910000D03*
%TO.P,SW3,5*%
%TO.N,Net-(R8-Pad2)*%
X108810000Y-93910000D03*
%TO.P,SW3,6*%
%TO.N,Net-(R7-Pad2)*%
X108810000Y-92630000D03*
%TO.P,SW3,7*%
%TO.N,Net-(R6-Pad2)*%
X108810000Y-91360000D03*
%TO.P,SW3,8*%
%TO.N,Net-(R2-Pad2)*%
X108810000Y-90090000D03*
%TD*%
D15*
%TO.P,C5,1*%
%TO.N,+5V*%
X159775000Y-84000000D03*
%TO.P,C5,2*%
%TO.N,GND*%
X158225000Y-84000000D03*
%TD*%
D16*
%TO.P,R9,1*%
%TO.N,+5V*%
X155500000Y-77825000D03*
%TO.P,R9,2*%
%TO.N,Charge*%
X155500000Y-76175000D03*
%TD*%
D13*
%TO.P,C1,1*%
%TO.N,Net-(U1-+)*%
X128000000Y-84275000D03*
%TO.P,C1,2*%
%TO.N,Net-(C1-Pad2)*%
X128000000Y-82725000D03*
%TD*%
D11*
%TO.P,R10,1*%
%TO.N,discharge*%
X98325000Y-75062500D03*
%TO.P,R10,2*%
%TO.N,GND*%
X96675000Y-75062500D03*
%TD*%
%TO.P,R2,1*%
%TO.N,Net-(U1-+)*%
X112650000Y-89000000D03*
%TO.P,R2,2*%
%TO.N,Net-(R2-Pad2)*%
X111000000Y-89000000D03*
%TD*%
%TO.P,R5,1*%
%TO.N,Net-(R5-Pad1)*%
X139325000Y-95000000D03*
%TO.P,R5,2*%
%TO.N,Net-(U1-+)*%
X137675000Y-95000000D03*
%TD*%
D17*
%TO.P,SW1,1*%
%TO.N,GND*%
X126910000Y-73190000D03*
%TO.P,SW1,2*%
X125640000Y-73190000D03*
%TO.P,SW1,3*%
X124370000Y-73190000D03*
%TO.P,SW1,4*%
X123090000Y-73190000D03*
%TO.P,SW1,5*%
%TO.N,Net-(C4-Pad2)*%
X123090000Y-80810000D03*
%TO.P,SW1,6*%
%TO.N,Net-(C3-Pad2)*%
X124370000Y-80810000D03*
%TO.P,SW1,7*%
%TO.N,Net-(C2-Pad2)*%
X125640000Y-80810000D03*
%TO.P,SW1,8*%
%TO.N,Net-(C1-Pad2)*%
X126910000Y-80810000D03*
%TD*%
D11*
%TO.P,R1,1*%
%TO.N,Net-(R1-Pad1)*%
X139325000Y-89000000D03*
%TO.P,R1,2*%
%TO.N,Net-(U1-+)*%
X137675000Y-89000000D03*
%TD*%
D14*
%TO.P,SW2,1*%
%TO.N,Net-(Q2-S)*%
X148810000Y-93910000D03*
%TO.P,SW2,2*%
X148810000Y-92640000D03*
%TO.P,SW2,3*%
X148810000Y-91370000D03*
%TO.P,SW2,4*%
X148810000Y-90090000D03*
%TO.P,SW2,5*%
%TO.N,Net-(R1-Pad1)*%
X141190000Y-90090000D03*
%TO.P,SW2,6*%
%TO.N,Net-(R3-Pad1)*%
X141190000Y-91370000D03*
%TO.P,SW2,7*%
%TO.N,Net-(R4-Pad1)*%
X141190000Y-92640000D03*
%TO.P,SW2,8*%
%TO.N,Net-(R5-Pad1)*%
X141190000Y-93910000D03*
%TD*%
D10*
%TO.P,SW5,1,1*%
%TO.N,+5V*%
X141900000Y-75150000D03*
X148100000Y-75150000D03*
%TO.P,SW5,2,2*%
%TO.N,Net-(Q2-S)*%
X141900000Y-78850000D03*
X148100000Y-78850000D03*
%TD*%
D18*
%TO.P,Q2,1,G*%
%TO.N,Charge*%
X153450000Y-76562500D03*
%TO.P,Q2,2,S*%
%TO.N,Net-(Q2-S)*%
X151550000Y-76562500D03*
%TO.P,Q2,3,D*%
%TO.N,+5V*%
X152500000Y-78437500D03*
%TD*%
D11*
%TO.P,R8,1*%
%TO.N,Net-(U1-+)*%
X112650000Y-95000000D03*
%TO.P,R8,2*%
%TO.N,Net-(R8-Pad2)*%
X111000000Y-95000000D03*
%TD*%
D18*
%TO.P,Q1,1,G*%
%TO.N,discharge*%
X98450000Y-77062500D03*
%TO.P,Q1,2,S*%
%TO.N,GND*%
X96550000Y-77062500D03*
%TO.P,Q1,3,D*%
%TO.N,Net-(Q1-D)*%
X97500000Y-78937500D03*
%TD*%
D11*
%TO.P,R6,1*%
%TO.N,Net-(U1-+)*%
X112650000Y-91000000D03*
%TO.P,R6,2*%
%TO.N,Net-(R6-Pad2)*%
X111000000Y-91000000D03*
%TD*%
D13*
%TO.P,C2,1*%
%TO.N,Net-(U1-+)*%
X126000000Y-84275000D03*
%TO.P,C2,2*%
%TO.N,Net-(C2-Pad2)*%
X126000000Y-82725000D03*
%TD*%
D19*
%TO.P,J1,1,Pin_1*%
%TO.N,unconnected-(J1-Pin_1-Pad1)*%
X82014400Y-74650600D03*
D20*
%TO.P,J1,2,Pin_2*%
%TO.N,unconnected-(J1-Pin_2-Pad2)*%
X79474400Y-74650600D03*
%TO.P,J1,3,Pin_3*%
%TO.N,unconnected-(J1-Pin_3-Pad3)*%
X82014400Y-77190600D03*
%TO.P,J1,4,Pin_4*%
%TO.N,DIO0*%
X79474400Y-77190600D03*
%TO.P,J1,5,Pin_5*%
%TO.N,unconnected-(J1-Pin_5-Pad5)*%
X82014400Y-79730600D03*
%TO.P,J1,6,Pin_6*%
%TO.N,DIO1*%
X79474400Y-79730600D03*
%TO.P,J1,7,Pin_7*%
%TO.N,unconnected-(J1-Pin_7-Pad7)*%
X82014400Y-82270600D03*
%TO.P,J1,8,Pin_8*%
%TO.N,DIO2*%
X79474400Y-82270600D03*
%TO.P,J1,9,Pin_9*%
%TO.N,unconnected-(J1-Pin_9-Pad9)*%
X82014400Y-84810600D03*
%TO.P,J1,10,Pin_10*%
%TO.N,DIO3*%
X79474400Y-84810600D03*
%TO.P,J1,11,Pin_11*%
%TO.N,unconnected-(J1-Pin_11-Pad11)*%
X82014400Y-87350600D03*
%TO.P,J1,12,Pin_12*%
%TO.N,DIO4*%
X79474400Y-87350600D03*
%TO.P,J1,13,Pin_13*%
%TO.N,unconnected-(J1-Pin_13-Pad13)*%
X82014400Y-89890600D03*
%TO.P,J1,14,Pin_14*%
%TO.N,DIO5*%
X79474400Y-89890600D03*
%TO.P,J1,15,Pin_15*%
%TO.N,unconnected-(J1-Pin_15-Pad15)*%
X82014400Y-92430600D03*
%TO.P,J1,16,Pin_16*%
%TO.N,DIO6*%
X79474400Y-92430600D03*
%TO.P,J1,17,Pin_17*%
%TO.N,unconnected-(J1-Pin_17-Pad17)*%
X82014400Y-94970600D03*
%TO.P,J1,18,Pin_18*%
%TO.N,DIO7*%
X79474400Y-94970600D03*
%TO.P,J1,19,Pin_19*%
%TO.N,GND*%
X82014400Y-97510600D03*
%TO.P,J1,20,Pin_20*%
X79474400Y-97510600D03*
%TD*%
D19*
%TO.P,J2,1,Pin_1*%
%TO.N,unconnected-(J2-Pin_1-Pad1)*%
X168554400Y-77190600D03*
D20*
%TO.P,J2,2,Pin_2*%
%TO.N,unconnected-(J2-Pin_2-Pad2)*%
X166014400Y-77190600D03*
%TO.P,J2,3,Pin_3*%
%TO.N,+5V*%
X168554400Y-79730600D03*
%TO.P,J2,4,Pin_4*%
X166014400Y-79730600D03*
%TO.P,J2,5,Pin_5*%
%TO.N,unconnected-(J2-Pin_5-Pad5)*%
X168554400Y-82270600D03*
%TO.P,J2,6,Pin_6*%
%TO.N,unconnected-(J2-Pin_6-Pad6)*%
X166014400Y-82270600D03*
%TO.P,J2,7,Pin_7*%
%TO.N,GND*%
X168554400Y-84810600D03*
%TO.P,J2,8,Pin_8*%
X166014400Y-84810600D03*
%TO.P,J2,9,Pin_9*%
%TO.N,AI0+*%
X168554400Y-87350600D03*
%TO.P,J2,10,Pin_10*%
%TO.N,AI0-*%
X166014400Y-87350600D03*
%TO.P,J2,11,Pin_11*%
%TO.N,GND*%
X168554400Y-89890600D03*
%TO.P,J2,12,Pin_12*%
X166014400Y-89890600D03*
%TO.P,J2,13,Pin_13*%
%TO.N,unconnected-(J2-Pin_13-Pad13)*%
X168554400Y-92430600D03*
%TO.P,J2,14,Pin_14*%
%TO.N,unconnected-(J2-Pin_14-Pad14)*%
X166014400Y-92430600D03*
%TO.P,J2,15,Pin_15*%
%TO.N,GND*%
X168554400Y-94970600D03*
%TO.P,J2,16,Pin_16*%
X166014400Y-94970600D03*
%TD*%
D21*
%TO.N,GND*%
X156500000Y-87000000D03*
X95500000Y-77000000D03*
X125640000Y-71500000D03*
X124370000Y-71500000D03*
D22*
X156845000Y-83997800D03*
D21*
X123090000Y-71500000D03*
X95500000Y-75500000D03*
X126910000Y-71500000D03*
D22*
%TO.N,discharge*%
X87782400Y-78714600D03*
X87782400Y-83794600D03*
X87782400Y-76149200D03*
X87782400Y-91414600D03*
X87782400Y-81254600D03*
X87782400Y-86309200D03*
X87782400Y-88874600D03*
X87782400Y-93954600D03*
%TO.N,Charge*%
X85572600Y-78714600D03*
X85572600Y-83794600D03*
X85572600Y-81254600D03*
X85572600Y-93954600D03*
X85572600Y-86309200D03*
X85572600Y-88874600D03*
X85572600Y-91414600D03*
X85572600Y-76149200D03*
%TD*%
D23*
%TO.N,+5V*%
X141900000Y-75150000D02*
X148100000Y-75150000D01*
X148719408Y-75150000D02*
X150000000Y-76430592D01*
D24*
X160000000Y-84225000D02*
X159775000Y-84000000D01*
D23*
X161519400Y-78980600D02*
X162019400Y-79480600D01*
D24*
X159775000Y-84000000D02*
X159775000Y-82225000D01*
D23*
X162019400Y-79980600D02*
X162000000Y-80000000D01*
X162019400Y-79480600D02*
X162019400Y-79980600D01*
X160363800Y-77825000D02*
X161519400Y-78980600D01*
X161750000Y-79211200D02*
X161750000Y-80250000D01*
D24*
X162000000Y-80000000D02*
X162269400Y-79730600D01*
D23*
X152500000Y-78437500D02*
X154887500Y-78437500D01*
X151437500Y-78437500D02*
X152500000Y-78437500D01*
X162019400Y-79480600D02*
X162269400Y-79730600D01*
X161519400Y-78980600D02*
X161750000Y-79211200D01*
D24*
X161750000Y-80250000D02*
X162000000Y-80000000D01*
X159775000Y-82225000D02*
X161750000Y-80250000D01*
X160137500Y-86050000D02*
X160000000Y-85912500D01*
X163000000Y-79730600D02*
X166014400Y-79730600D01*
D23*
X155500000Y-77825000D02*
X160363800Y-77825000D01*
D24*
X162269400Y-79730600D02*
X163000000Y-79730600D01*
D23*
X154887500Y-78437500D02*
X155500000Y-77825000D01*
X150000000Y-77000000D02*
X151437500Y-78437500D01*
D24*
X160000000Y-85912500D02*
X160000000Y-84225000D01*
D23*
X150000000Y-76430592D02*
X150000000Y-77000000D01*
X148100000Y-75150000D02*
X148719408Y-75150000D01*
D24*
%TO.N,Net-(C1-Pad2)*%
X126910000Y-81635000D02*
X128000000Y-82725000D01*
X126910000Y-80810000D02*
X126910000Y-81635000D01*
%TO.N,Net-(C2-Pad2)*%
X125640000Y-80810000D02*
X125640000Y-82365000D01*
X125640000Y-82365000D02*
X126000000Y-82725000D01*
%TO.N,Net-(C3-Pad2)*%
X124370000Y-82355000D02*
X124000000Y-82725000D01*
X124370000Y-80810000D02*
X124370000Y-82355000D01*
%TO.N,Net-(C4-Pad2)*%
X123090000Y-81635000D02*
X122000000Y-82725000D01*
X123090000Y-80810000D02*
X123090000Y-81635000D01*
D23*
%TO.N,GND*%
X126910000Y-71500000D02*
X126910000Y-73190000D01*
D24*
X96675000Y-76937500D02*
X96550000Y-77062500D01*
X96675000Y-75062500D02*
X96675000Y-76937500D01*
D23*
X125640000Y-71500000D02*
X125640000Y-73190000D01*
D24*
X96550000Y-75187500D02*
X96675000Y-75062500D01*
X95562500Y-77062500D02*
X95500000Y-77000000D01*
D23*
X123090000Y-71500000D02*
X123090000Y-73190000D01*
X124370000Y-71500000D02*
X124370000Y-73190000D01*
D24*
X96487500Y-77000000D02*
X96550000Y-77062500D01*
X157862500Y-87000000D02*
X156500000Y-87000000D01*
%TO.N,Net-(R1-Pad1)*%
X140415000Y-90090000D02*
X139325000Y-89000000D01*
X141190000Y-90090000D02*
X140415000Y-90090000D01*
%TO.N,Net-(R2-Pad2)*%
X108810000Y-90090000D02*
X109910000Y-90090000D01*
X109910000Y-90090000D02*
X111000000Y-89000000D01*
%TO.N,Net-(R3-Pad1)*%
X141190000Y-91370000D02*
X139695000Y-91370000D01*
X139695000Y-91370000D02*
X139325000Y-91000000D01*
%TO.N,Net-(R4-Pad1)*%
X139685000Y-92640000D02*
X139325000Y-93000000D01*
X141190000Y-92640000D02*
X139685000Y-92640000D01*
%TO.N,Net-(R5-Pad1)*%
X140415000Y-93910000D02*
X139325000Y-95000000D01*
X141190000Y-93910000D02*
X140415000Y-93910000D01*
%TO.N,Net-(R6-Pad2)*%
X110640000Y-91360000D02*
X111000000Y-91000000D01*
X108810000Y-91360000D02*
X110640000Y-91360000D01*
%TO.N,Net-(R7-Pad2)*%
X110630000Y-92630000D02*
X111000000Y-93000000D01*
X108810000Y-92630000D02*
X110630000Y-92630000D01*
%TO.N,Net-(R8-Pad2)*%
X108810000Y-93910000D02*
X109910000Y-93910000D01*
X109910000Y-93910000D02*
X111000000Y-95000000D01*
D23*
%TO.N,discharge*%
X98325000Y-73825000D02*
X97000000Y-72500000D01*
X98325000Y-75062500D02*
X98325000Y-73825000D01*
X87782400Y-76149200D02*
X87782400Y-93954600D01*
X91431600Y-72500000D02*
X92000000Y-72500000D01*
X97000000Y-72500000D02*
X92000000Y-72500000D01*
X87782400Y-76149200D02*
X91431600Y-72500000D01*
X98325000Y-76937500D02*
X98450000Y-77062500D01*
X98325000Y-75062500D02*
X98325000Y-76937500D01*
X98437500Y-75062500D02*
X98500000Y-75000000D01*
D24*
%TO.N,Net-(Q1-D)*%
X101190000Y-93910000D02*
X101190000Y-90090000D01*
X97500000Y-78937500D02*
X108012500Y-78937500D01*
X108012500Y-78937500D02*
X108100000Y-78850000D01*
D23*
%TO.N,Charge*%
X85572600Y-76149200D02*
X85572600Y-93954600D01*
X155112500Y-76562500D02*
X155500000Y-76175000D01*
X150000000Y-68000000D02*
X93721800Y-68000000D01*
X155500000Y-73500000D02*
X150000000Y-68000000D01*
X93721800Y-68000000D02*
X85572600Y-76149200D01*
X155500000Y-76175000D02*
X155500000Y-73500000D01*
X153450000Y-76562500D02*
X155112500Y-76562500D01*
%TO.N,Net-(U1-+)*%
X136652000Y-96697800D02*
X136245600Y-96291400D01*
X138963400Y-97586800D02*
X137236200Y-97586800D01*
X157862500Y-86050000D02*
X156332064Y-86050000D01*
X152831800Y-96977200D02*
X152222200Y-97586800D01*
X154914600Y-87680800D02*
X154914600Y-94894400D01*
X156332064Y-86050000D02*
X154914600Y-87467464D01*
X136652000Y-96494600D02*
X136652000Y-96062800D01*
X137109200Y-96240600D02*
X137109200Y-96189800D01*
X136652000Y-97002600D02*
X136652000Y-96697800D01*
X154914600Y-87467464D02*
X154914600Y-87680800D01*
X154914600Y-94894400D02*
X152831800Y-96977200D01*
X136652000Y-96697800D02*
X137109200Y-96240600D01*
X137236200Y-97586800D02*
X136652000Y-97002600D01*
X152222200Y-97586800D02*
X138963400Y-97586800D01*
D24*
%TO.N,SpgOut*%
X160137500Y-87950000D02*
X161550000Y-87950000D01*
X162100000Y-88500000D02*
X164500000Y-88500000D01*
X161550000Y-87950000D02*
X162100000Y-88500000D01*
X157862500Y-87950000D02*
X160137500Y-87950000D01*
%TD*%
%TA.AperFunction,Conductor*%
%TO.N,Net-(Q2-S)*%
G36*
X145943039Y-78019685D02*
G01*
X145988794Y-78072489D01*
X146000000Y-78124000D01*
X146000000Y-78300000D01*
X146576000Y-78300000D01*
X146643039Y-78319685D01*
X146688794Y-78372489D01*
X146700000Y-78424000D01*
X146700000Y-78600000D01*
X149500000Y-78600000D01*
X149500000Y-78252172D01*
X149499999Y-78252155D01*
X149493598Y-78192627D01*
X149493597Y-78192623D01*
X149484165Y-78167334D01*
X149479181Y-78097642D01*
X149512665Y-78036319D01*
X149573989Y-78002834D01*
X149600347Y-78000000D01*
X149971416Y-78000000D01*
X150038455Y-78019685D01*
X150059097Y-78036319D01*
X150997007Y-78974230D01*
X150997014Y-78974236D01*
X151110187Y-79049855D01*
X151110190Y-79049857D01*
X151231247Y-79100000D01*
X151235943Y-79101945D01*
X151235947Y-79101945D01*
X151235948Y-79101946D01*
X151369439Y-79128500D01*
X151369442Y-79128500D01*
X151369443Y-79128500D01*
X151505557Y-79128500D01*
X151609571Y-79128500D01*
X151676610Y-79148185D01*
X151722365Y-79200989D01*
X151728647Y-79217905D01*
X151748254Y-79285393D01*
X151748255Y-79285396D01*
X151831917Y-79426862D01*
X151831923Y-79426870D01*
X151948129Y-79543076D01*
X151948133Y-79543079D01*
X151948135Y-79543081D01*
X152089602Y-79626744D01*
X152131224Y-79638836D01*
X152247426Y-79672597D01*
X152247429Y-79672597D01*
X152247431Y-79672598D01*
X152284306Y-79675500D01*
X152284314Y-79675500D01*
X152715686Y-79675500D01*
X152715694Y-79675500D01*
X152752569Y-79672598D01*
X152752571Y-79672597D01*
X152752573Y-79672597D01*
X152841405Y-79646789D01*
X152911274Y-79646988D01*
X152969944Y-79684930D01*
X152998788Y-79748568D01*
X153000000Y-79765865D01*
X153000000Y-94876000D01*
X152980315Y-94943039D01*
X152927511Y-94988794D01*
X152876000Y-95000000D01*
X149774467Y-95000000D01*
X149707428Y-94980315D01*
X149661673Y-94927511D01*
X149651729Y-94858353D01*
X149680754Y-94794797D01*
X149731134Y-94759818D01*
X149802086Y-94733354D01*
X149802093Y-94733350D01*
X149917187Y-94647190D01*
X149917190Y-94647187D01*
X150003350Y-94532093D01*
X150003354Y-94532086D01*
X150053596Y-94397379D01*
X150053598Y-94397372D01*
X150059999Y-94337844D01*
X150060000Y-94337827D01*
X150060000Y-94160000D01*
X148684000Y-94160000D01*
X148616961Y-94140315D01*
X148571206Y-94087511D01*
X148560000Y-94036000D01*
X148560000Y-93660000D01*
X149060000Y-93660000D01*
X150060000Y-93660000D01*
X150060000Y-93482172D01*
X150059999Y-93482155D01*
X150053598Y-93422627D01*
X150053597Y-93422623D01*
X150014699Y-93318334D01*
X150009715Y-93248643D01*
X150014699Y-93231666D01*
X150053597Y-93127376D01*
X150053598Y-93127372D01*
X150059999Y-93067844D01*
X150060000Y-93067827D01*
X150060000Y-92890000D01*
X149060000Y-92890000D01*
X149060000Y-93660000D01*
X148560000Y-93660000D01*
X148560000Y-92390000D01*
X149060000Y-92390000D01*
X150060000Y-92390000D01*
X150060000Y-92212172D01*
X150059999Y-92212155D01*
X150053598Y-92152627D01*
X150053597Y-92152623D01*
X150014699Y-92048334D01*
X150009715Y-91978643D01*
X150014699Y-91961666D01*
X150053597Y-91857376D01*
X150053598Y-91857372D01*
X150059999Y-91797844D01*
X150060000Y-91797827D01*
X150060000Y-91620000D01*
X149060000Y-91620000D01*
X149060000Y-92390000D01*
X148560000Y-92390000D01*
X148560000Y-91120000D01*
X149060000Y-91120000D01*
X150060000Y-91120000D01*
X150060000Y-90942172D01*
X150059999Y-90942155D01*
X150053598Y-90882627D01*
X150053597Y-90882623D01*
X150012834Y-90773334D01*
X150007850Y-90703643D01*
X150012834Y-90686666D01*
X150053597Y-90577376D01*
X150053598Y-90577372D01*
X150059999Y-90517844D01*
X150060000Y-90517827D01*
X150060000Y-90340000D01*
X149060000Y-90340000D01*
X149060000Y-91120000D01*
X148560000Y-91120000D01*
X148560000Y-89840000D01*
X149060000Y-89840000D01*
X150060000Y-89840000D01*
X150060000Y-89662172D01*
X150059999Y-89662155D01*
X150053598Y-89602627D01*
X150053596Y-89602620D01*
X150003354Y-89467913D01*
X150003350Y-89467906D01*
X149917190Y-89352812D01*
X149917187Y-89352809D01*
X149802093Y-89266649D01*
X149802086Y-89266645D01*
X149667379Y-89216403D01*
X149667372Y-89216401D01*
X149607844Y-89210000D01*
X149060000Y-89210000D01*
X149060000Y-89840000D01*
X148560000Y-89840000D01*
X148560000Y-89210000D01*
X148012155Y-89210000D01*
X147952627Y-89216401D01*
X147952620Y-89216403D01*
X147817913Y-89266645D01*
X147817906Y-89266649D01*
X147702812Y-89352809D01*
X147646000Y-89428700D01*
X147590066Y-89470570D01*
X147520374Y-89475554D01*
X147459052Y-89442068D01*
X147446907Y-89427945D01*
X140524173Y-80032806D01*
X140500253Y-79967158D01*
X140500000Y-79959249D01*
X140500000Y-79898002D01*
X140519685Y-79830963D01*
X140572489Y-79785208D01*
X140641647Y-79775264D01*
X140698312Y-79798736D01*
X140757910Y-79843352D01*
X140757913Y-79843354D01*
X140892620Y-79893596D01*
X140892627Y-79893598D01*
X140952155Y-79899999D01*
X140952172Y-79900000D01*
X141650000Y-79900000D01*
X142150000Y-79900000D01*
X142847828Y-79900000D01*
X142847844Y-79899999D01*
X142907372Y-79893598D01*
X142907379Y-79893596D01*
X143042086Y-79843354D01*
X143042093Y-79843350D01*
X143157187Y-79757190D01*
X143157190Y-79757187D01*
X143243350Y-79642093D01*
X143243354Y-79642086D01*
X143293596Y-79507379D01*
X143293598Y-79507372D01*
X143299999Y-79447844D01*
X146700000Y-79447844D01*
X146706401Y-79507372D01*
X146706403Y-79507379D01*
X146756645Y-79642086D01*
X146756649Y-79642093D01*
X146842809Y-79757187D01*
X146842812Y-79757190D01*
X146957906Y-79843350D01*
X146957913Y-79843354D01*
X147092620Y-79893596D01*
X147092627Y-79893598D01*
X147152155Y-79899999D01*
X147152172Y-79900000D01*
X147850000Y-79900000D01*
X148350000Y-79900000D01*
X149047828Y-79900000D01*
X149047844Y-79899999D01*
X149107372Y-79893598D01*
X149107379Y-79893596D01*
X149242086Y-79843354D01*
X149242093Y-79843350D01*
X149357187Y-79757190D01*
X149357190Y-79757187D01*
X149443350Y-79642093D01*
X149443354Y-79642086D01*
X149493596Y-79507379D01*
X149493598Y-79507372D01*
X149499999Y-79447844D01*
X149500000Y-79447827D01*
X149500000Y-79100000D01*
X148350000Y-79100000D01*
X148350000Y-79900000D01*
X147850000Y-79900000D01*
X147850000Y-79100000D01*
X146700000Y-79100000D01*
X146700000Y-79447844D01*
X143299999Y-79447844D01*
X143300000Y-79447827D01*
X143300000Y-79100000D01*
X142150000Y-79100000D01*
X142150000Y-79900000D01*
X141650000Y-79900000D01*
X141650000Y-78724000D01*
X141669685Y-78656961D01*
X141722489Y-78611206D01*
X141774000Y-78600000D01*
X143300000Y-78600000D01*
X143300000Y-78424000D01*
X143319685Y-78356961D01*
X143372489Y-78311206D01*
X143424000Y-78300000D01*
X144000000Y-78300000D01*
X144000000Y-78124000D01*
X144019685Y-78056961D01*
X144072489Y-78011206D01*
X144124000Y-78000000D01*
X145876000Y-78000000D01*
X145943039Y-78019685D01*
G37*
%TD.AperFunction*%
%TD*%
%TA.AperFunction,Conductor*%
%TO.N,Net-(Q1-D)*%
G36*
X100466692Y-78019685D02*
G01*
X100512447Y-78072489D01*
X100522391Y-78141647D01*
X100515835Y-78167334D01*
X100506402Y-78192623D01*
X100506401Y-78192627D01*
X100500000Y-78252155D01*
X100500000Y-78600000D01*
X103300000Y-78600000D01*
X103300000Y-78424000D01*
X103319685Y-78356961D01*
X103372489Y-78311206D01*
X103424000Y-78300000D01*
X104000000Y-78300000D01*
X104000000Y-78124000D01*
X104019685Y-78056961D01*
X104072489Y-78011206D01*
X104124000Y-78000000D01*
X105876000Y-78000000D01*
X105943039Y-78019685D01*
X105988794Y-78072489D01*
X106000000Y-78124000D01*
X106000000Y-78300000D01*
X106576000Y-78300000D01*
X106643039Y-78319685D01*
X106688794Y-78372489D01*
X106700000Y-78424000D01*
X106700000Y-78600000D01*
X108226000Y-78600000D01*
X108293039Y-78619685D01*
X108338794Y-78672489D01*
X108350000Y-78724000D01*
X108350000Y-79900000D01*
X109047828Y-79900000D01*
X109047844Y-79899999D01*
X109107372Y-79893598D01*
X109107379Y-79893596D01*
X109242086Y-79843354D01*
X109242089Y-79843352D01*
X109301688Y-79798736D01*
X109367152Y-79774318D01*
X109435425Y-79789169D01*
X109484831Y-79838573D01*
X109500000Y-79898002D01*
X109500000Y-79959249D01*
X109480315Y-80026288D01*
X109475827Y-80032806D01*
X102553092Y-89427945D01*
X102497477Y-89470238D01*
X102427825Y-89475750D01*
X102366250Y-89442731D01*
X102353998Y-89428699D01*
X102297186Y-89352809D01*
X102182093Y-89266649D01*
X102182086Y-89266645D01*
X102047379Y-89216403D01*
X102047372Y-89216401D01*
X101987844Y-89210000D01*
X101440000Y-89210000D01*
X101440000Y-94036000D01*
X101420315Y-94103039D01*
X101367511Y-94148794D01*
X101316000Y-94160000D01*
X99940000Y-94160000D01*
X99940000Y-94337844D01*
X99946401Y-94397372D01*
X99946403Y-94397379D01*
X99996645Y-94532086D01*
X99996649Y-94532093D01*
X100082809Y-94647187D01*
X100082812Y-94647190D01*
X100197906Y-94733350D01*
X100197913Y-94733354D01*
X100268866Y-94759818D01*
X100324800Y-94801689D01*
X100349217Y-94867154D01*
X100334365Y-94935426D01*
X100284960Y-94984832D01*
X100225533Y-95000000D01*
X97124000Y-95000000D01*
X97056961Y-94980315D01*
X97011206Y-94927511D01*
X97000000Y-94876000D01*
X97000000Y-93057844D01*
X99940000Y-93057844D01*
X99946401Y-93117372D01*
X99946403Y-93117382D01*
X99987164Y-93226668D01*
X99992148Y-93296359D01*
X99987164Y-93313332D01*
X99946403Y-93422617D01*
X99946401Y-93422627D01*
X99940000Y-93482155D01*
X99940000Y-93660000D01*
X100940000Y-93660000D01*
X100940000Y-92880000D01*
X99940000Y-92880000D01*
X99940000Y-93057844D01*
X97000000Y-93057844D01*
X97000000Y-91787844D01*
X99940000Y-91787844D01*
X99946401Y-91847372D01*
X99946403Y-91847382D01*
X99985299Y-91951668D01*
X99990283Y-92021359D01*
X99985299Y-92038332D01*
X99946403Y-92142617D01*
X99946401Y-92142627D01*
X99940000Y-92202155D01*
X99940000Y-92380000D01*
X100940000Y-92380000D01*
X100940000Y-91610000D01*
X99940000Y-91610000D01*
X99940000Y-91787844D01*
X97000000Y-91787844D01*
X97000000Y-90517844D01*
X99940000Y-90517844D01*
X99946401Y-90577372D01*
X99946403Y-90577382D01*
X99985299Y-90681668D01*
X99990283Y-90751359D01*
X99985299Y-90768332D01*
X99946403Y-90872617D01*
X99946401Y-90872627D01*
X99940000Y-90932155D01*
X99940000Y-91110000D01*
X100940000Y-91110000D01*
X100940000Y-90340000D01*
X99940000Y-90340000D01*
X99940000Y-90517844D01*
X97000000Y-90517844D01*
X97000000Y-89662155D01*
X99940000Y-89662155D01*
X99940000Y-89840000D01*
X100940000Y-89840000D01*
X100940000Y-89210000D01*
X100392155Y-89210000D01*
X100332627Y-89216401D01*
X100332620Y-89216403D01*
X100197913Y-89266645D01*
X100197906Y-89266649D01*
X100082812Y-89352809D01*
X100082809Y-89352812D01*
X99996649Y-89467906D01*
X99996645Y-89467913D01*
X99946403Y-89602620D01*
X99946401Y-89602627D01*
X99940000Y-89662155D01*
X97000000Y-89662155D01*
X97000000Y-80265344D01*
X97019685Y-80198305D01*
X97072489Y-80152550D01*
X97141647Y-80142606D01*
X97158595Y-80146268D01*
X97247505Y-80172099D01*
X97247511Y-80172100D01*
X97249998Y-80172295D01*
X97250000Y-80172295D01*
X97750000Y-80172295D01*
X97750001Y-80172295D01*
X97752486Y-80172100D01*
X97910198Y-80126281D01*
X98051552Y-80042685D01*
X98051561Y-80042678D01*
X98167678Y-79926561D01*
X98167685Y-79926552D01*
X98251282Y-79785196D01*
X98251283Y-79785193D01*
X98297099Y-79627495D01*
X98297100Y-79627489D01*
X98299999Y-79590649D01*
X98300000Y-79590634D01*
X98300000Y-79447844D01*
X100500000Y-79447844D01*
X100506401Y-79507372D01*
X100506403Y-79507379D01*
X100556645Y-79642086D01*
X100556649Y-79642093D01*
X100642809Y-79757187D01*
X100642812Y-79757190D01*
X100757906Y-79843350D01*
X100757913Y-79843354D01*
X100892620Y-79893596D01*
X100892627Y-79893598D01*
X100952155Y-79899999D01*
X100952172Y-79900000D01*
X101650000Y-79900000D01*
X102150000Y-79900000D01*
X102847828Y-79900000D01*
X102847844Y-79899999D01*
X102907372Y-79893598D01*
X102907379Y-79893596D01*
X103042086Y-79843354D01*
X103042093Y-79843350D01*
X103157187Y-79757190D01*
X103157190Y-79757187D01*
X103243350Y-79642093D01*
X103243354Y-79642086D01*
X103293596Y-79507379D01*
X103293598Y-79507372D01*
X103299999Y-79447844D01*
X106700000Y-79447844D01*
X106706401Y-79507372D01*
X106706403Y-79507379D01*
X106756645Y-79642086D01*
X106756649Y-79642093D01*
X106842809Y-79757187D01*
X106842812Y-79757190D01*
X106957906Y-79843350D01*
X106957913Y-79843354D01*
X107092620Y-79893596D01*
X107092627Y-79893598D01*
X107152155Y-79899999D01*
X107152172Y-79900000D01*
X107850000Y-79900000D01*
X107850000Y-79100000D01*
X106700000Y-79100000D01*
X106700000Y-79447844D01*
X103299999Y-79447844D01*
X103300000Y-79447827D01*
X103300000Y-79100000D01*
X102150000Y-79100000D01*
X102150000Y-79900000D01*
X101650000Y-79900000D01*
X101650000Y-79100000D01*
X100500000Y-79100000D01*
X100500000Y-79447844D01*
X98300000Y-79447844D01*
X98300000Y-79187500D01*
X97750000Y-79187500D01*
X97750000Y-80172295D01*
X97250000Y-80172295D01*
X97250000Y-78811500D01*
X97269685Y-78744461D01*
X97322489Y-78698706D01*
X97374000Y-78687500D01*
X98300000Y-78687500D01*
X98300000Y-78424500D01*
X98319685Y-78357461D01*
X98372489Y-78311706D01*
X98424000Y-78300500D01*
X98665686Y-78300500D01*
X98665694Y-78300500D01*
X98702569Y-78297598D01*
X98702571Y-78297597D01*
X98702573Y-78297597D01*
X98744191Y-78285505D01*
X98860398Y-78251744D01*
X99001865Y-78168081D01*
X99118081Y-78051865D01*
X99118083Y-78051860D01*
X99121079Y-78048000D01*
X99177722Y-78007093D01*
X99219059Y-78000000D01*
X100399653Y-78000000D01*
X100466692Y-78019685D01*
G37*
%TD.AperFunction*%
%TD*%
%TA.AperFunction,Conductor*%
%TO.N,Net-(U1-+)*%
G36*
X129043047Y-83520390D02*
G01*
X138069650Y-87796150D01*
X138121808Y-87842637D01*
X138140554Y-87909945D01*
X138119934Y-87976703D01*
X138066496Y-88021715D01*
X138005346Y-88031703D01*
X137931573Y-88025000D01*
X137925000Y-88025000D01*
X137925000Y-95974999D01*
X137931581Y-95974999D01*
X138002102Y-95968591D01*
X138002107Y-95968590D01*
X138164398Y-95918018D01*
X138311849Y-95828880D01*
X138379404Y-95811043D01*
X138445878Y-95832560D01*
X138490166Y-95886600D01*
X138500000Y-95934996D01*
X138500000Y-96376000D01*
X138480315Y-96443039D01*
X138427511Y-96488794D01*
X138376000Y-96500000D01*
X112124000Y-96500000D01*
X112056961Y-96480315D01*
X112011206Y-96427511D01*
X112000000Y-96376000D01*
X112000000Y-96036493D01*
X112019685Y-95969454D01*
X112072489Y-95923699D01*
X112141647Y-95913755D01*
X112160891Y-95918108D01*
X112322895Y-95968590D01*
X112393408Y-95974998D01*
X112393426Y-95974999D01*
X112900000Y-95974999D01*
X112906581Y-95974999D01*
X112977102Y-95968591D01*
X112977107Y-95968590D01*
X113139396Y-95918018D01*
X113284877Y-95830072D01*
X113405072Y-95709877D01*
X113493019Y-95564395D01*
X113543590Y-95402106D01*
X113549999Y-95331582D01*
X136775001Y-95331582D01*
X136781408Y-95402102D01*
X136781409Y-95402107D01*
X136831981Y-95564396D01*
X136919927Y-95709877D01*
X137040122Y-95830072D01*
X137185604Y-95918019D01*
X137185603Y-95918019D01*
X137347894Y-95968590D01*
X137347893Y-95968590D01*
X137418408Y-95974998D01*
X137418426Y-95974999D01*
X137424999Y-95974998D01*
X137425000Y-95974998D01*
X137425000Y-95250000D01*
X136775001Y-95250000D01*
X136775001Y-95331582D01*
X113549999Y-95331582D01*
X113550000Y-95331572D01*
X113550000Y-95250000D01*
X112900000Y-95250000D01*
X112900000Y-95974999D01*
X112393426Y-95974999D01*
X112399999Y-95974998D01*
X112400000Y-95974998D01*
X112400000Y-94750000D01*
X112900000Y-94750000D01*
X113549999Y-94750000D01*
X113549999Y-94668427D01*
X136775000Y-94668427D01*
X136775000Y-94750000D01*
X137425000Y-94750000D01*
X137425000Y-93250000D01*
X136775001Y-93250000D01*
X136775001Y-93331582D01*
X136781408Y-93402102D01*
X136781409Y-93402107D01*
X136831981Y-93564396D01*
X136919927Y-93709877D01*
X137040122Y-93830072D01*
X137145677Y-93893883D01*
X137192865Y-93945411D01*
X137204703Y-94014271D01*
X137177434Y-94078599D01*
X137145677Y-94106117D01*
X137040122Y-94169927D01*
X136919927Y-94290122D01*
X136831980Y-94435604D01*
X136781409Y-94597893D01*
X136775000Y-94668427D01*
X113549999Y-94668427D01*
X113549999Y-94668417D01*
X113543591Y-94597897D01*
X113543590Y-94597892D01*
X113493018Y-94435603D01*
X113405072Y-94290122D01*
X113284877Y-94169927D01*
X113179322Y-94106117D01*
X113132135Y-94054589D01*
X113120296Y-93985730D01*
X113147565Y-93921401D01*
X113179322Y-93893883D01*
X113284877Y-93830072D01*
X113405072Y-93709877D01*
X113493019Y-93564395D01*
X113543590Y-93402106D01*
X113550000Y-93331572D01*
X113550000Y-93250000D01*
X112900000Y-93250000D01*
X112900000Y-94750000D01*
X112400000Y-94750000D01*
X112400000Y-92750000D01*
X112900000Y-92750000D01*
X113549999Y-92750000D01*
X113549999Y-92668427D01*
X136775000Y-92668427D01*
X136775000Y-92750000D01*
X137425000Y-92750000D01*
X137425000Y-91250000D01*
X136775001Y-91250000D01*
X136775001Y-91331582D01*
X136781408Y-91402102D01*
X136781409Y-91402107D01*
X136831981Y-91564396D01*
X136919927Y-91709877D01*
X137040122Y-91830072D01*
X137145677Y-91893883D01*
X137192865Y-91945411D01*
X137204703Y-92014271D01*
X137177434Y-92078599D01*
X137145677Y-92106117D01*
X137040122Y-92169927D01*
X136919927Y-92290122D01*
X136831980Y-92435604D01*
X136781409Y-92597893D01*
X136775000Y-92668427D01*
X113549999Y-92668427D01*
X113549999Y-92668417D01*
X113543591Y-92597897D01*
X113543590Y-92597892D01*
X113493018Y-92435603D01*
X113405072Y-92290122D01*
X113284877Y-92169927D01*
X113179322Y-92106117D01*
X113132135Y-92054589D01*
X113120296Y-91985730D01*
X113147565Y-91921401D01*
X113179322Y-91893883D01*
X113284877Y-91830072D01*
X113405072Y-91709877D01*
X113493019Y-91564395D01*
X113543590Y-91402106D01*
X113550000Y-91331572D01*
X113550000Y-91250000D01*
X112900000Y-91250000D01*
X112900000Y-92750000D01*
X112400000Y-92750000D01*
X112400000Y-90750000D01*
X112900000Y-90750000D01*
X113549999Y-90750000D01*
X113549999Y-90668427D01*
X136775000Y-90668427D01*
X136775000Y-90750000D01*
X137425000Y-90750000D01*
X137425000Y-89250000D01*
X136775001Y-89250000D01*
X136775001Y-89331582D01*
X136781408Y-89402102D01*
X136781409Y-89402107D01*
X136831981Y-89564396D01*
X136919927Y-89709877D01*
X137040122Y-89830072D01*
X137145677Y-89893883D01*
X137192865Y-89945411D01*
X137204703Y-90014271D01*
X137177434Y-90078599D01*
X137145677Y-90106117D01*
X137040122Y-90169927D01*
X136919927Y-90290122D01*
X136831980Y-90435604D01*
X136781409Y-90597893D01*
X136775000Y-90668427D01*
X113549999Y-90668427D01*
X113549999Y-90668417D01*
X113543591Y-90597897D01*
X113543590Y-90597892D01*
X113493018Y-90435603D01*
X113405072Y-90290122D01*
X113284877Y-90169927D01*
X113179322Y-90106117D01*
X113132135Y-90054589D01*
X113120296Y-89985730D01*
X113147565Y-89921401D01*
X113179322Y-89893883D01*
X113284877Y-89830072D01*
X113405072Y-89709877D01*
X113493019Y-89564395D01*
X113543590Y-89402106D01*
X113550000Y-89331572D01*
X113550000Y-89250000D01*
X112900000Y-89250000D01*
X112900000Y-90750000D01*
X112400000Y-90750000D01*
X112400000Y-88750000D01*
X112900000Y-88750000D01*
X113549999Y-88750000D01*
X113549999Y-88668427D01*
X136775000Y-88668427D01*
X136775000Y-88750000D01*
X137425000Y-88750000D01*
X137425000Y-88025000D01*
X137424999Y-88024999D01*
X137418436Y-88025000D01*
X137418417Y-88025001D01*
X137347897Y-88031408D01*
X137347892Y-88031409D01*
X137185603Y-88081981D01*
X137040122Y-88169927D01*
X136919927Y-88290122D01*
X136831980Y-88435604D01*
X136781409Y-88597893D01*
X136775000Y-88668427D01*
X113549999Y-88668427D01*
X113549999Y-88668417D01*
X113543591Y-88597897D01*
X113543590Y-88597892D01*
X113493018Y-88435603D01*
X113405072Y-88290122D01*
X113284877Y-88169927D01*
X113139395Y-88081980D01*
X113139396Y-88081980D01*
X112977105Y-88031409D01*
X112977106Y-88031409D01*
X112906572Y-88025000D01*
X112900000Y-88025000D01*
X112900000Y-88750000D01*
X112400000Y-88750000D01*
X112400000Y-88024999D01*
X112371655Y-87996659D01*
X112338165Y-87935338D01*
X112343144Y-87865646D01*
X112385011Y-87809710D01*
X112403870Y-87798064D01*
X118903354Y-84548322D01*
X121025001Y-84548322D01*
X121035144Y-84647607D01*
X121088452Y-84808481D01*
X121088457Y-84808492D01*
X121177424Y-84952728D01*
X121177427Y-84952732D01*
X121297267Y-85072572D01*
X121297271Y-85072575D01*
X121441507Y-85161542D01*
X121441518Y-85161547D01*
X121602393Y-85214855D01*
X121701683Y-85224999D01*
X122250000Y-85224999D01*
X122298308Y-85224999D01*
X122298322Y-85224998D01*
X122397607Y-85214855D01*
X122558481Y-85161547D01*
X122558492Y-85161542D01*
X122702728Y-85072575D01*
X122702732Y-85072572D01*
X122822572Y-84952732D01*
X122822575Y-84952728D01*
X122894462Y-84836183D01*
X122946410Y-84789458D01*
X123015372Y-84778237D01*
X123079454Y-84806080D01*
X123105538Y-84836183D01*
X123177424Y-84952728D01*
X123177427Y-84952732D01*
X123297267Y-85072572D01*
X123297271Y-85072575D01*
X123441507Y-85161542D01*
X123441518Y-85161547D01*
X123602393Y-85214855D01*
X123701683Y-85224999D01*
X124250000Y-85224999D01*
X124298308Y-85224999D01*
X124298322Y-85224998D01*
X124397607Y-85214855D01*
X124558481Y-85161547D01*
X124558492Y-85161542D01*
X124702728Y-85072575D01*
X124702732Y-85072572D01*
X124822572Y-84952732D01*
X124822575Y-84952728D01*
X124894462Y-84836183D01*
X124946410Y-84789458D01*
X125015372Y-84778237D01*
X125079454Y-84806080D01*
X125105538Y-84836183D01*
X125177424Y-84952728D01*
X125177427Y-84952732D01*
X125297267Y-85072572D01*
X125297271Y-85072575D01*
X125441507Y-85161542D01*
X125441518Y-85161547D01*
X125602393Y-85214855D01*
X125701683Y-85224999D01*
X126250000Y-85224999D01*
X126298308Y-85224999D01*
X126298322Y-85224998D01*
X126397607Y-85214855D01*
X126558481Y-85161547D01*
X126558492Y-85161542D01*
X126702728Y-85072575D01*
X126702732Y-85072572D01*
X126822572Y-84952732D01*
X126822575Y-84952728D01*
X126894462Y-84836183D01*
X126946410Y-84789458D01*
X127015372Y-84778237D01*
X127079454Y-84806080D01*
X127105538Y-84836183D01*
X127177424Y-84952728D01*
X127177427Y-84952732D01*
X127297267Y-85072572D01*
X127297271Y-85072575D01*
X127441507Y-85161542D01*
X127441518Y-85161547D01*
X127602393Y-85214855D01*
X127701683Y-85224999D01*
X128250000Y-85224999D01*
X128298308Y-85224999D01*
X128298322Y-85224998D01*
X128397607Y-85214855D01*
X128558481Y-85161547D01*
X128558492Y-85161542D01*
X128702728Y-85072575D01*
X128702732Y-85072572D01*
X128822572Y-84952732D01*
X128822575Y-84952728D01*
X128911542Y-84808492D01*
X128911547Y-84808481D01*
X128964855Y-84647606D01*
X128974999Y-84548322D01*
X128975000Y-84548309D01*
X128975000Y-84525000D01*
X128250000Y-84525000D01*
X128250000Y-85224999D01*
X127701683Y-85224999D01*
X127749999Y-85224998D01*
X127750000Y-85224998D01*
X127750000Y-84525000D01*
X126250000Y-84525000D01*
X126250000Y-85224999D01*
X125701683Y-85224999D01*
X125749999Y-85224998D01*
X125750000Y-85224998D01*
X125750000Y-84525000D01*
X124250000Y-84525000D01*
X124250000Y-85224999D01*
X123701683Y-85224999D01*
X123749999Y-85224998D01*
X123750000Y-85224998D01*
X123750000Y-84525000D01*
X122250000Y-84525000D01*
X122250000Y-85224999D01*
X121701683Y-85224999D01*
X121749999Y-85224998D01*
X121750000Y-85224998D01*
X121750000Y-84525000D01*
X121025001Y-84525000D01*
X121025001Y-84548322D01*
X118903354Y-84548322D01*
X120953540Y-83523229D01*
X121022304Y-83510855D01*
X121086843Y-83537623D01*
X121126665Y-83595033D01*
X121129127Y-83664859D01*
X121114532Y-83699236D01*
X121088454Y-83741513D01*
X121088452Y-83741518D01*
X121035144Y-83902393D01*
X121025000Y-84001677D01*
X121025000Y-84025000D01*
X128974999Y-84025000D01*
X128974999Y-84001692D01*
X128974998Y-84001677D01*
X128964855Y-83902392D01*
X128911547Y-83741518D01*
X128911542Y-83741507D01*
X128884430Y-83697552D01*
X128865989Y-83630160D01*
X128886911Y-83563496D01*
X128940553Y-83518727D01*
X129009884Y-83510065D01*
X129043047Y-83520390D01*
G37*
%TD.AperFunction*%
%TD*%
%TA.AperFunction,Conductor*%
%TO.N,GND*%
G36*
X81548475Y-97317607D02*
G01*
X81514400Y-97444774D01*
X81514400Y-97576426D01*
X81548475Y-97703593D01*
X81581388Y-97760600D01*
X79907412Y-97760600D01*
X79940325Y-97703593D01*
X79974400Y-97576426D01*
X79974400Y-97444774D01*
X79940325Y-97317607D01*
X79907412Y-97260600D01*
X81581388Y-97260600D01*
X81548475Y-97317607D01*
G37*
%TD.AperFunction*%
%TA.AperFunction,Conductor*%
G36*
X168088475Y-94777607D02*
G01*
X168054400Y-94904774D01*
X168054400Y-95036426D01*
X168088475Y-95163593D01*
X168121388Y-95220600D01*
X166447412Y-95220600D01*
X166480325Y-95163593D01*
X166514400Y-95036426D01*
X166514400Y-94904774D01*
X166480325Y-94777607D01*
X166447412Y-94720600D01*
X168121388Y-94720600D01*
X168088475Y-94777607D01*
G37*
%TD.AperFunction*%
%TA.AperFunction,Conductor*%
G36*
X160093255Y-78535685D02*
G01*
X160113897Y-78552319D01*
X160982664Y-79421086D01*
X160982666Y-79421089D01*
X161022680Y-79461102D01*
X161056166Y-79522424D01*
X161059000Y-79548784D01*
X161059000Y-80005047D01*
X161039315Y-80072086D01*
X161022681Y-80092728D01*
X160216384Y-80899025D01*
X159376270Y-81739139D01*
X159376267Y-81739142D01*
X159343743Y-81771666D01*
X159289142Y-81826266D01*
X159261727Y-81867296D01*
X159261726Y-81867295D01*
X159220689Y-81928712D01*
X159220685Y-81928719D01*
X159199957Y-81978764D01*
X159199957Y-81978765D01*
X159173538Y-82042545D01*
X159173535Y-82042555D01*
X159149500Y-82163389D01*
X159149500Y-83075452D01*
X159129815Y-83142491D01*
X159102415Y-83172715D01*
X159096954Y-83177032D01*
X159087324Y-83186663D01*
X159026000Y-83220146D01*
X158956308Y-83215159D01*
X158911965Y-83186660D01*
X158902732Y-83177427D01*
X158902728Y-83177424D01*
X158758492Y-83088457D01*
X158758481Y-83088452D01*
X158597606Y-83035144D01*
X158498322Y-83025000D01*
X158475000Y-83025000D01*
X158475000Y-84974999D01*
X158498308Y-84974999D01*
X158498322Y-84974998D01*
X158597607Y-84964855D01*
X158758481Y-84911547D01*
X158758492Y-84911542D01*
X158902731Y-84822573D01*
X158911959Y-84813345D01*
X158973279Y-84779856D01*
X159042971Y-84784835D01*
X159087327Y-84813339D01*
X159096955Y-84822967D01*
X159096959Y-84822970D01*
X159241302Y-84912003D01*
X159255028Y-84916551D01*
X159289503Y-84927974D01*
X159346947Y-84967744D01*
X159373772Y-85032259D01*
X159374500Y-85045680D01*
X159374500Y-85221673D01*
X159354815Y-85288712D01*
X159313622Y-85328405D01*
X159223135Y-85381919D01*
X159223129Y-85381923D01*
X159106923Y-85498129D01*
X159106914Y-85498140D01*
X159106729Y-85498455D01*
X159106519Y-85498650D01*
X159102139Y-85504298D01*
X159101227Y-85503591D01*
X159055657Y-85546136D01*
X158986915Y-85558637D01*
X158922327Y-85531988D01*
X158898143Y-85504078D01*
X158897861Y-85504298D01*
X158893823Y-85499092D01*
X158893271Y-85498455D01*
X158893085Y-85498140D01*
X158893076Y-85498129D01*
X158776870Y-85381923D01*
X158776862Y-85381917D01*
X158686377Y-85328405D01*
X158635398Y-85298256D01*
X158635397Y-85298255D01*
X158635396Y-85298255D01*
X158635393Y-85298254D01*
X158477573Y-85252402D01*
X158477567Y-85252401D01*
X158440701Y-85249500D01*
X158440694Y-85249500D01*
X157284306Y-85249500D01*
X157284298Y-85249500D01*
X157247432Y-85252401D01*
X157247426Y-85252402D01*
X157089606Y-85298254D01*
X157089603Y-85298255D01*
X157016088Y-85341732D01*
X156952967Y-85359000D01*
X156264004Y-85359000D01*
X156148796Y-85381917D01*
X156148786Y-85381919D01*
X156135044Y-85384652D01*
X156130506Y-85385555D01*
X156130502Y-85385556D01*
X156004759Y-85437640D01*
X156004746Y-85437647D01*
X155891578Y-85513264D01*
X155891574Y-85513267D01*
X154377869Y-87026971D01*
X154377868Y-87026972D01*
X154377865Y-87026977D01*
X154332703Y-87094568D01*
X154318920Y-87115196D01*
X154302244Y-87140152D01*
X154302240Y-87140159D01*
X154250156Y-87265902D01*
X154250153Y-87265912D01*
X154223600Y-87399403D01*
X154223600Y-94556816D01*
X154203915Y-94623855D01*
X154187281Y-94644497D01*
X153692072Y-95139705D01*
X153630749Y-95173190D01*
X153561057Y-95168206D01*
X153505124Y-95126334D01*
X153480707Y-95060870D01*
X153484932Y-95021625D01*
X153484414Y-95021524D01*
X153484535Y-95020906D01*
X153484410Y-95020875D01*
X153485022Y-95018422D01*
X153485023Y-95018420D01*
X153485024Y-95018416D01*
X153505500Y-94876000D01*
X153505500Y-84298322D01*
X157275001Y-84298322D01*
X157285144Y-84397607D01*
X157338452Y-84558481D01*
X157338457Y-84558492D01*
X157427424Y-84702728D01*
X157427427Y-84702732D01*
X157547267Y-84822572D01*
X157547271Y-84822575D01*
X157691507Y-84911542D01*
X157691518Y-84911547D01*
X157852393Y-84964855D01*
X157951683Y-84974999D01*
X157975000Y-84974998D01*
X157975000Y-84250000D01*
X157275001Y-84250000D01*
X157275001Y-84298322D01*
X153505500Y-84298322D01*
X153505500Y-83701677D01*
X157275000Y-83701677D01*
X157275000Y-83750000D01*
X157975000Y-83750000D01*
X157975000Y-83024999D01*
X157951693Y-83025000D01*
X157951674Y-83025001D01*
X157852392Y-83035144D01*
X157691518Y-83088452D01*
X157691507Y-83088457D01*
X157547271Y-83177424D01*
X157547267Y-83177427D01*
X157427427Y-83297267D01*
X157427424Y-83297271D01*
X157338457Y-83441507D01*
X157338452Y-83441518D01*
X157285144Y-83602393D01*
X157275000Y-83701677D01*
X153505500Y-83701677D01*
X153505500Y-79765865D01*
X153504264Y-79730531D01*
X153503052Y-79713234D01*
X153499345Y-79678051D01*
X153459202Y-79539885D01*
X153459200Y-79539880D01*
X153459199Y-79539877D01*
X153439955Y-79497421D01*
X153430358Y-79476247D01*
X153430354Y-79476242D01*
X153430353Y-79476238D01*
X153352921Y-79354991D01*
X153352919Y-79354990D01*
X153342581Y-79345980D01*
X153304975Y-79287094D01*
X153305175Y-79217225D01*
X153343118Y-79158555D01*
X153406756Y-79129712D01*
X153424052Y-79128500D01*
X154955560Y-79128500D01*
X155045370Y-79110634D01*
X155089057Y-79101945D01*
X155214811Y-79049856D01*
X155229391Y-79040114D01*
X155327987Y-78974235D01*
X155540403Y-78761819D01*
X155601726Y-78728334D01*
X155628084Y-78725500D01*
X155831613Y-78725500D01*
X155831616Y-78725500D01*
X155902196Y-78719086D01*
X156064606Y-78668478D01*
X156210185Y-78580472D01*
X156215376Y-78575281D01*
X156238339Y-78552319D01*
X156299662Y-78518834D01*
X156326020Y-78516000D01*
X160026216Y-78516000D01*
X160093255Y-78535685D01*
G37*
%TD.AperFunction*%
%TA.AperFunction,Conductor*%
G36*
X168088475Y-89697607D02*
G01*
X168054400Y-89824774D01*
X168054400Y-89956426D01*
X168088475Y-90083593D01*
X168121388Y-90140600D01*
X166447412Y-90140600D01*
X166480325Y-90083593D01*
X166514400Y-89956426D01*
X166514400Y-89824774D01*
X166480325Y-89697607D01*
X166447412Y-89640600D01*
X168121388Y-89640600D01*
X168088475Y-89697607D01*
G37*
%TD.AperFunction*%
%TA.AperFunction,Conductor*%
G36*
X168088475Y-84617607D02*
G01*
X168054400Y-84744774D01*
X168054400Y-84876426D01*
X168088475Y-85003593D01*
X168121388Y-85060600D01*
X166447412Y-85060600D01*
X166480325Y-85003593D01*
X166514400Y-84876426D01*
X166514400Y-84744774D01*
X166480325Y-84617607D01*
X166447412Y-84560600D01*
X168121388Y-84560600D01*
X168088475Y-84617607D01*
G37*
%TD.AperFunction*%
%TA.AperFunction,Conductor*%
G36*
X166014959Y-56080605D02*
G01*
X166022571Y-56080672D01*
X166296167Y-56083114D01*
X166303882Y-56083424D01*
X166865435Y-56123587D01*
X166874193Y-56124528D01*
X167430909Y-56204571D01*
X167439600Y-56206140D01*
X167989153Y-56325688D01*
X167997729Y-56327876D01*
X168537371Y-56486330D01*
X168545730Y-56489112D01*
X169072718Y-56685668D01*
X169080851Y-56689037D01*
X169592461Y-56922682D01*
X169600360Y-56926636D01*
X170093981Y-57196174D01*
X170101593Y-57200691D01*
X170574699Y-57504738D01*
X170581970Y-57509786D01*
X171032206Y-57846828D01*
X171039099Y-57852382D01*
X171464140Y-58220682D01*
X171470618Y-58226714D01*
X171868285Y-58624381D01*
X171874317Y-58630859D01*
X172242617Y-59055900D01*
X172248171Y-59062793D01*
X172585213Y-59513029D01*
X172590261Y-59520300D01*
X172894308Y-59993406D01*
X172898825Y-60001018D01*
X173168363Y-60494639D01*
X173172322Y-60502549D01*
X173405956Y-61014135D01*
X173409338Y-61022299D01*
X173605880Y-61549250D01*
X173608675Y-61557648D01*
X173767122Y-62097269D01*
X173769311Y-62105846D01*
X173888857Y-62655389D01*
X173890429Y-62664100D01*
X173970468Y-63220785D01*
X173971414Y-63229586D01*
X174011574Y-63791105D01*
X174011885Y-63798844D01*
X174014395Y-64080039D01*
X174014400Y-64081146D01*
X174014400Y-108080053D01*
X174014395Y-108081160D01*
X174011885Y-108362355D01*
X174011574Y-108370094D01*
X173971414Y-108931613D01*
X173970468Y-108940414D01*
X173890429Y-109497099D01*
X173888857Y-109505810D01*
X173769311Y-110055353D01*
X173767122Y-110063930D01*
X173608675Y-110603551D01*
X173605880Y-110611949D01*
X173409338Y-111138900D01*
X173405950Y-111147079D01*
X173172325Y-111658645D01*
X173168363Y-111666560D01*
X172898825Y-112160181D01*
X172894308Y-112167793D01*
X172590261Y-112640899D01*
X172585213Y-112648170D01*
X172248171Y-113098406D01*
X172242617Y-113105299D01*
X171874317Y-113530340D01*
X171868285Y-113536818D01*
X171470618Y-113934485D01*
X171464140Y-113940517D01*
X171039099Y-114308817D01*
X171032206Y-114314371D01*
X170581970Y-114651413D01*
X170574699Y-114656461D01*
X170101593Y-114960508D01*
X170093981Y-114965025D01*
X169600360Y-115234563D01*
X169592445Y-115238525D01*
X169080879Y-115472150D01*
X169072700Y-115475538D01*
X168545749Y-115672080D01*
X168537351Y-115674875D01*
X167997730Y-115833322D01*
X167989153Y-115835511D01*
X167439610Y-115955057D01*
X167430899Y-115956629D01*
X166874214Y-116036668D01*
X166865413Y-116037614D01*
X166303894Y-116077774D01*
X166296155Y-116078085D01*
X166014960Y-116080595D01*
X166013853Y-116080600D01*
X82014947Y-116080600D01*
X82013840Y-116080595D01*
X81732644Y-116078085D01*
X81724905Y-116077774D01*
X81163386Y-116037614D01*
X81154585Y-116036668D01*
X80597900Y-115956629D01*
X80589189Y-115955057D01*
X80039646Y-115835511D01*
X80031069Y-115833322D01*
X79491448Y-115674875D01*
X79483050Y-115672080D01*
X78956099Y-115475538D01*
X78947935Y-115472156D01*
X78436349Y-115238522D01*
X78428439Y-115234563D01*
X77934818Y-114965025D01*
X77927206Y-114960508D01*
X77454100Y-114656461D01*
X77446829Y-114651413D01*
X76996593Y-114314371D01*
X76989700Y-114308817D01*
X76564659Y-113940517D01*
X76558181Y-113934485D01*
X76160514Y-113536818D01*
X76154482Y-113530340D01*
X75786182Y-113105299D01*
X75780628Y-113098406D01*
X75443586Y-112648170D01*
X75438538Y-112640899D01*
X75134491Y-112167793D01*
X75129974Y-112160181D01*
X74860436Y-111666560D01*
X74856482Y-111658661D01*
X74622837Y-111147051D01*
X74619468Y-111138918D01*
X74422912Y-110611930D01*
X74420130Y-110603571D01*
X74261676Y-110063929D01*
X74259488Y-110055353D01*
X74139940Y-109505800D01*
X74138370Y-109497099D01*
X74135423Y-109476599D01*
X74058328Y-108940393D01*
X74057387Y-108931635D01*
X74017224Y-108370082D01*
X74016914Y-108362354D01*
X74015742Y-108231052D01*
X74014405Y-108081159D01*
X74014402Y-108080598D01*
X79761882Y-108080598D01*
X79761882Y-108080600D01*
X79781979Y-108380827D01*
X79781981Y-108380837D01*
X79841916Y-108675707D01*
X79940620Y-108959960D01*
X79940622Y-108959963D01*
X80076326Y-109228515D01*
X80076329Y-109228520D01*
X80076330Y-109228521D01*
X80246625Y-109476598D01*
X80448467Y-109699763D01*
X80678252Y-109894035D01*
X80931881Y-110055945D01*
X81204828Y-110182606D01*
X81492221Y-110271756D01*
X81788933Y-110321805D01*
X82089668Y-110331860D01*
X82389060Y-110301741D01*
X82681766Y-110231986D01*
X82962563Y-110123839D01*
X83226440Y-109979230D01*
X83468688Y-109800740D01*
X83684985Y-109591555D01*
X83871469Y-109355406D01*
X84024815Y-109096508D01*
X84142284Y-108819482D01*
X84221781Y-108529270D01*
X84261888Y-108231052D01*
X84264400Y-108080600D01*
X84264400Y-108080598D01*
X163761882Y-108080598D01*
X163761882Y-108080600D01*
X163781979Y-108380827D01*
X163781981Y-108380837D01*
X163841916Y-108675707D01*
X163940620Y-108959960D01*
X163940622Y-108959963D01*
X164076326Y-109228515D01*
X164076329Y-109228520D01*
X164076330Y-109228521D01*
X164246625Y-109476598D01*
X164448467Y-109699763D01*
X164678252Y-109894035D01*
X164931881Y-110055945D01*
X165204828Y-110182606D01*
X165492221Y-110271756D01*
X165788933Y-110321805D01*
X166089668Y-110331860D01*
X166389060Y-110301741D01*
X166681766Y-110231986D01*
X166962563Y-110123839D01*
X167226440Y-109979230D01*
X167468688Y-109800740D01*
X167684985Y-109591555D01*
X167871469Y-109355406D01*
X168024815Y-109096508D01*
X168142284Y-108819482D01*
X168221781Y-108529270D01*
X168261888Y-108231052D01*
X168264400Y-108080600D01*
X168261888Y-107930148D01*
X168221781Y-107631930D01*
X168142284Y-107341718D01*
X168024815Y-107064692D01*
X167946626Y-106932684D01*
X167871469Y-106805793D01*
X167684984Y-106569644D01*
X167468695Y-106360467D01*
X167468688Y-106360460D01*
X167226440Y-106181970D01*
X166962571Y-106037365D01*
X166962566Y-106037362D01*
X166962563Y-106037361D01*
X166962559Y-106037359D01*
X166962556Y-106037358D01*
X166681770Y-105929215D01*
X166681766Y-105929214D01*
X166389060Y-105859459D01*
X166389057Y-105859458D01*
X166089672Y-105829340D01*
X166089668Y-105829340D01*
X165788933Y-105839395D01*
X165492220Y-105889444D01*
X165364014Y-105929214D01*
X165204828Y-105978594D01*
X165204821Y-105978597D01*
X165204819Y-105978598D01*
X164931883Y-106105253D01*
X164931881Y-106105255D01*
X164678255Y-106267162D01*
X164448468Y-106461435D01*
X164246627Y-106684599D01*
X164246626Y-106684600D01*
X164076326Y-106932684D01*
X163940622Y-107201236D01*
X163940620Y-107201239D01*
X163841916Y-107485492D01*
X163781981Y-107780362D01*
X163781979Y-107780372D01*
X163761882Y-108080598D01*
X84264400Y-108080598D01*
X84261888Y-107930148D01*
X84221781Y-107631930D01*
X84142284Y-107341718D01*
X84024815Y-107064692D01*
X83946626Y-106932684D01*
X83871469Y-106805793D01*
X83684984Y-106569644D01*
X83468695Y-106360467D01*
X83468688Y-106360460D01*
X83226440Y-106181970D01*
X82962571Y-106037365D01*
X82962566Y-106037362D01*
X82962563Y-106037361D01*
X82962559Y-106037359D01*
X82962556Y-106037358D01*
X82681770Y-105929215D01*
X82681766Y-105929214D01*
X82389060Y-105859459D01*
X82389057Y-105859458D01*
X82089672Y-105829340D01*
X82089668Y-105829340D01*
X81788933Y-105839395D01*
X81492220Y-105889444D01*
X81364014Y-105929214D01*
X81204828Y-105978594D01*
X81204821Y-105978597D01*
X81204819Y-105978598D01*
X80931883Y-106105253D01*
X80931881Y-106105255D01*
X80678255Y-106267162D01*
X80448468Y-106461435D01*
X80246627Y-106684599D01*
X80246626Y-106684600D01*
X80076326Y-106932684D01*
X79940622Y-107201236D01*
X79940620Y-107201239D01*
X79841916Y-107485492D01*
X79781981Y-107780362D01*
X79781979Y-107780372D01*
X79761882Y-108080598D01*
X74014402Y-108080598D01*
X74014400Y-108080053D01*
X74014400Y-74650599D01*
X78118741Y-74650599D01*
X78118741Y-74650600D01*
X78139336Y-74886003D01*
X78139338Y-74886013D01*
X78200494Y-75114255D01*
X78200496Y-75114259D01*
X78200497Y-75114263D01*
X78284899Y-75295263D01*
X78300365Y-75328430D01*
X78300367Y-75328434D01*
X78435901Y-75521995D01*
X78435906Y-75522002D01*
X78602997Y-75689093D01*
X78603003Y-75689098D01*
X78788558Y-75819025D01*
X78832183Y-75873602D01*
X78839377Y-75943100D01*
X78807854Y-76005455D01*
X78788558Y-76022175D01*
X78602997Y-76152105D01*
X78435905Y-76319197D01*
X78300365Y-76512769D01*
X78300364Y-76512771D01*
X78200498Y-76726935D01*
X78200494Y-76726944D01*
X78139338Y-76955186D01*
X78139336Y-76955196D01*
X78118741Y-77190599D01*
X78118741Y-77190600D01*
X78139336Y-77426003D01*
X78139338Y-77426013D01*
X78200494Y-77654255D01*
X78200496Y-77654259D01*
X78200497Y-77654263D01*
X78271211Y-77805909D01*
X78300365Y-77868430D01*
X78300367Y-77868434D01*
X78408681Y-78023121D01*
X78435901Y-78061996D01*
X78435906Y-78062002D01*
X78602997Y-78229093D01*
X78603003Y-78229098D01*
X78788558Y-78359025D01*
X78832183Y-78413602D01*
X78839377Y-78483100D01*
X78807854Y-78545455D01*
X78788558Y-78562175D01*
X78602997Y-78692105D01*
X78435905Y-78859197D01*
X78300365Y-79052769D01*
X78300364Y-79052771D01*
X78200498Y-79266935D01*
X78200494Y-79266944D01*
X78139338Y-79495186D01*
X78139336Y-79495196D01*
X78118741Y-79730599D01*
X78118741Y-79730600D01*
X78139336Y-79966003D01*
X78139338Y-79966013D01*
X78200494Y-80194255D01*
X78200496Y-80194259D01*
X78200497Y-80194263D01*
X78275963Y-80356100D01*
X78300365Y-80408430D01*
X78300367Y-80408434D01*
X78390203Y-80536732D01*
X78435901Y-80601996D01*
X78435906Y-80602002D01*
X78602997Y-80769093D01*
X78603003Y-80769098D01*
X78788558Y-80899025D01*
X78832183Y-80953602D01*
X78839377Y-81023100D01*
X78807854Y-81085455D01*
X78788558Y-81102175D01*
X78602997Y-81232105D01*
X78435905Y-81399197D01*
X78300365Y-81592769D01*
X78300364Y-81592771D01*
X78200498Y-81806935D01*
X78200494Y-81806944D01*
X78139338Y-82035186D01*
X78139336Y-82035196D01*
X78118741Y-82270599D01*
X78118741Y-82270600D01*
X78139336Y-82506003D01*
X78139338Y-82506013D01*
X78200494Y-82734255D01*
X78200496Y-82734259D01*
X78200497Y-82734263D01*
X78204400Y-82742632D01*
X78300365Y-82948430D01*
X78300367Y-82948434D01*
X78398413Y-83088457D01*
X78435901Y-83141996D01*
X78435906Y-83142002D01*
X78602997Y-83309093D01*
X78603003Y-83309098D01*
X78788558Y-83439025D01*
X78832183Y-83493602D01*
X78839377Y-83563100D01*
X78807854Y-83625455D01*
X78788558Y-83642175D01*
X78602997Y-83772105D01*
X78435905Y-83939197D01*
X78300365Y-84132769D01*
X78300364Y-84132771D01*
X78200498Y-84346935D01*
X78200494Y-84346944D01*
X78139338Y-84575186D01*
X78139336Y-84575196D01*
X78118741Y-84810599D01*
X78118741Y-84810600D01*
X78139336Y-85046003D01*
X78139338Y-85046013D01*
X78200494Y-85274255D01*
X78200496Y-85274259D01*
X78200497Y-85274263D01*
X78279997Y-85444751D01*
X78300365Y-85488430D01*
X78300367Y-85488434D01*
X78406217Y-85639602D01*
X78435901Y-85681996D01*
X78435906Y-85682002D01*
X78602997Y-85849093D01*
X78603003Y-85849098D01*
X78788558Y-85979025D01*
X78832183Y-86033602D01*
X78839377Y-86103100D01*
X78807854Y-86165455D01*
X78788558Y-86182175D01*
X78602997Y-86312105D01*
X78435905Y-86479197D01*
X78300365Y-86672769D01*
X78300364Y-86672771D01*
X78200498Y-86886935D01*
X78200494Y-86886944D01*
X78139338Y-87115186D01*
X78139336Y-87115196D01*
X78118741Y-87350599D01*
X78118741Y-87350600D01*
X78139336Y-87586003D01*
X78139338Y-87586013D01*
X78200494Y-87814255D01*
X78200496Y-87814259D01*
X78200497Y-87814263D01*
X78269394Y-87962013D01*
X78300365Y-88028430D01*
X78300367Y-88028434D01*
X78354209Y-88105327D01*
X78435901Y-88221996D01*
X78435906Y-88222002D01*
X78602997Y-88389093D01*
X78603003Y-88389098D01*
X78788558Y-88519025D01*
X78832183Y-88573602D01*
X78839377Y-88643100D01*
X78807854Y-88705455D01*
X78788558Y-88722175D01*
X78602997Y-88852105D01*
X78435905Y-89019197D01*
X78300365Y-89212769D01*
X78300364Y-89212771D01*
X78200498Y-89426935D01*
X78200494Y-89426944D01*
X78139338Y-89655186D01*
X78139336Y-89655196D01*
X78118741Y-89890599D01*
X78118741Y-89890600D01*
X78139336Y-90126003D01*
X78139338Y-90126013D01*
X78200494Y-90354255D01*
X78200496Y-90354259D01*
X78200497Y-90354263D01*
X78279997Y-90524751D01*
X78300365Y-90568430D01*
X78300367Y-90568434D01*
X78398680Y-90708838D01*
X78435901Y-90761996D01*
X78435906Y-90762002D01*
X78602997Y-90929093D01*
X78603003Y-90929098D01*
X78788558Y-91059025D01*
X78832183Y-91113602D01*
X78839377Y-91183100D01*
X78807854Y-91245455D01*
X78788558Y-91262175D01*
X78602997Y-91392105D01*
X78435905Y-91559197D01*
X78300365Y-91752769D01*
X78300364Y-91752771D01*
X78200498Y-91966935D01*
X78200494Y-91966944D01*
X78139338Y-92195186D01*
X78139336Y-92195196D01*
X78118741Y-92430599D01*
X78118741Y-92430600D01*
X78139336Y-92666003D01*
X78139338Y-92666013D01*
X78200494Y-92894255D01*
X78200496Y-92894259D01*
X78200497Y-92894263D01*
X78281453Y-93067873D01*
X78300365Y-93108430D01*
X78300367Y-93108434D01*
X78398543Y-93248642D01*
X78435901Y-93301996D01*
X78435906Y-93302002D01*
X78602997Y-93469093D01*
X78603003Y-93469098D01*
X78788558Y-93599025D01*
X78832183Y-93653602D01*
X78839377Y-93723100D01*
X78807854Y-93785455D01*
X78788558Y-93802175D01*
X78602997Y-93932105D01*
X78435905Y-94099197D01*
X78300365Y-94292769D01*
X78300364Y-94292771D01*
X78200498Y-94506935D01*
X78200494Y-94506944D01*
X78139338Y-94735186D01*
X78139336Y-94735196D01*
X78118741Y-94970599D01*
X78118741Y-94970600D01*
X78139336Y-95206003D01*
X78139338Y-95206013D01*
X78200494Y-95434255D01*
X78200496Y-95434259D01*
X78200497Y-95434263D01*
X78246094Y-95532045D01*
X78300365Y-95648430D01*
X78300367Y-95648434D01*
X78343606Y-95710185D01*
X78435901Y-95841996D01*
X78435906Y-95842002D01*
X78602997Y-96009093D01*
X78603003Y-96009098D01*
X78788994Y-96139330D01*
X78832619Y-96193907D01*
X78839813Y-96263405D01*
X78808290Y-96325760D01*
X78788995Y-96342480D01*
X78603322Y-96472490D01*
X78603320Y-96472491D01*
X78436291Y-96639520D01*
X78436286Y-96639526D01*
X78300800Y-96833020D01*
X78300799Y-96833022D01*
X78200970Y-97047107D01*
X78200967Y-97047113D01*
X78143764Y-97260599D01*
X78143764Y-97260600D01*
X79041388Y-97260600D01*
X79008475Y-97317607D01*
X78974400Y-97444774D01*
X78974400Y-97576426D01*
X79008475Y-97703593D01*
X79041388Y-97760600D01*
X78143764Y-97760600D01*
X78200967Y-97974086D01*
X78200970Y-97974092D01*
X78300799Y-98188178D01*
X78436294Y-98381682D01*
X78603317Y-98548705D01*
X78796821Y-98684200D01*
X79010907Y-98784029D01*
X79010916Y-98784033D01*
X79224400Y-98841234D01*
X79224400Y-97943612D01*
X79281407Y-97976525D01*
X79408574Y-98010600D01*
X79540226Y-98010600D01*
X79667393Y-97976525D01*
X79724400Y-97943612D01*
X79724400Y-98841233D01*
X79937883Y-98784033D01*
X79937892Y-98784029D01*
X80151978Y-98684200D01*
X80345482Y-98548705D01*
X80512505Y-98381682D01*
X80642825Y-98195568D01*
X80697402Y-98151944D01*
X80766901Y-98144751D01*
X80829255Y-98176273D01*
X80845975Y-98195568D01*
X80976294Y-98381682D01*
X81143317Y-98548705D01*
X81336821Y-98684200D01*
X81550907Y-98784029D01*
X81550916Y-98784033D01*
X81764400Y-98841234D01*
X81764400Y-97943612D01*
X81821407Y-97976525D01*
X81948574Y-98010600D01*
X82080226Y-98010600D01*
X82207393Y-97976525D01*
X82264400Y-97943612D01*
X82264400Y-98841233D01*
X82477883Y-98784033D01*
X82477892Y-98784029D01*
X82691978Y-98684200D01*
X82885482Y-98548705D01*
X83052505Y-98381682D01*
X83188000Y-98188178D01*
X83287829Y-97974092D01*
X83287832Y-97974086D01*
X83345036Y-97760600D01*
X82447412Y-97760600D01*
X82480325Y-97703593D01*
X82514400Y-97576426D01*
X82514400Y-97444774D01*
X82480325Y-97317607D01*
X82447412Y-97260600D01*
X83345036Y-97260600D01*
X83345035Y-97260599D01*
X83287832Y-97047113D01*
X83287829Y-97047107D01*
X83188000Y-96833022D01*
X83187999Y-96833020D01*
X83052513Y-96639526D01*
X83052508Y-96639520D01*
X82885478Y-96472490D01*
X82699805Y-96342479D01*
X82656180Y-96287902D01*
X82648988Y-96218404D01*
X82680510Y-96156049D01*
X82699806Y-96139330D01*
X82804815Y-96065802D01*
X82885801Y-96009095D01*
X83052895Y-95842001D01*
X83188435Y-95648430D01*
X83288303Y-95434263D01*
X83349463Y-95206008D01*
X83370059Y-94970600D01*
X83349463Y-94735192D01*
X83288303Y-94506937D01*
X83188435Y-94292771D01*
X83186398Y-94289861D01*
X83052894Y-94099197D01*
X82885802Y-93932106D01*
X82885796Y-93932101D01*
X82700242Y-93802175D01*
X82656617Y-93747598D01*
X82649423Y-93678100D01*
X82680946Y-93615745D01*
X82700242Y-93599025D01*
X82727474Y-93579957D01*
X82885801Y-93469095D01*
X83052895Y-93302001D01*
X83188435Y-93108430D01*
X83288303Y-92894263D01*
X83349463Y-92666008D01*
X83370059Y-92430600D01*
X83349463Y-92195192D01*
X83291439Y-91978642D01*
X83288305Y-91966944D01*
X83288304Y-91966943D01*
X83288303Y-91966937D01*
X83188435Y-91752771D01*
X83186043Y-91749354D01*
X83052894Y-91559197D01*
X82885802Y-91392106D01*
X82885796Y-91392101D01*
X82700242Y-91262175D01*
X82656617Y-91207598D01*
X82649423Y-91138100D01*
X82680946Y-91075745D01*
X82700242Y-91059025D01*
X82727474Y-91039957D01*
X82885801Y-90929095D01*
X83052895Y-90762001D01*
X83188435Y-90568430D01*
X83288303Y-90354263D01*
X83349463Y-90126008D01*
X83370059Y-89890600D01*
X83349463Y-89655192D01*
X83288303Y-89426937D01*
X83188435Y-89212771D01*
X83186146Y-89209501D01*
X83052894Y-89019197D01*
X82885802Y-88852106D01*
X82885796Y-88852101D01*
X82700242Y-88722175D01*
X82656617Y-88667598D01*
X82649423Y-88598100D01*
X82680946Y-88535745D01*
X82700242Y-88519025D01*
X82727474Y-88499957D01*
X82885801Y-88389095D01*
X83052895Y-88222001D01*
X83188435Y-88028430D01*
X83288303Y-87814263D01*
X83349463Y-87586008D01*
X83370059Y-87350600D01*
X83367775Y-87324500D01*
X83364598Y-87288181D01*
X83349463Y-87115192D01*
X83288303Y-86886937D01*
X83188435Y-86672771D01*
X83182825Y-86664758D01*
X83052894Y-86479197D01*
X82885802Y-86312106D01*
X82885796Y-86312101D01*
X82700242Y-86182175D01*
X82656617Y-86127598D01*
X82649423Y-86058100D01*
X82680946Y-85995745D01*
X82700242Y-85979025D01*
X82806944Y-85904311D01*
X82885801Y-85849095D01*
X83052895Y-85682001D01*
X83188435Y-85488430D01*
X83288303Y-85274263D01*
X83349463Y-85046008D01*
X83370059Y-84810600D01*
X83349463Y-84575192D01*
X83288303Y-84346937D01*
X83188435Y-84132771D01*
X83182825Y-84124758D01*
X83052894Y-83939197D01*
X82885802Y-83772106D01*
X82885796Y-83772101D01*
X82700242Y-83642175D01*
X82656617Y-83587598D01*
X82649423Y-83518100D01*
X82680946Y-83455745D01*
X82700242Y-83439025D01*
X82751628Y-83403044D01*
X82885801Y-83309095D01*
X83052895Y-83142001D01*
X83188435Y-82948430D01*
X83288303Y-82734263D01*
X83349463Y-82506008D01*
X83370059Y-82270600D01*
X83349463Y-82035192D01*
X83303026Y-81861885D01*
X83288305Y-81806944D01*
X83288304Y-81806943D01*
X83288303Y-81806937D01*
X83188435Y-81592771D01*
X83182825Y-81584758D01*
X83052894Y-81399197D01*
X82885802Y-81232106D01*
X82885796Y-81232101D01*
X82700242Y-81102175D01*
X82656617Y-81047598D01*
X82649423Y-80978100D01*
X82680946Y-80915745D01*
X82700242Y-80899025D01*
X82727474Y-80879957D01*
X82885801Y-80769095D01*
X83052895Y-80602001D01*
X83188435Y-80408430D01*
X83288303Y-80194263D01*
X83349463Y-79966008D01*
X83370059Y-79730600D01*
X83367596Y-79702454D01*
X83361045Y-79627569D01*
X83349463Y-79495192D01*
X83288303Y-79266937D01*
X83188435Y-79052771D01*
X83188052Y-79052223D01*
X83052894Y-78859197D01*
X82885802Y-78692106D01*
X82885796Y-78692101D01*
X82700242Y-78562175D01*
X82656617Y-78507598D01*
X82649423Y-78438100D01*
X82680946Y-78375745D01*
X82700242Y-78359025D01*
X82727474Y-78339957D01*
X82885801Y-78229095D01*
X83052895Y-78062001D01*
X83188435Y-77868430D01*
X83288303Y-77654263D01*
X83349463Y-77426008D01*
X83370059Y-77190600D01*
X83349463Y-76955192D01*
X83288303Y-76726937D01*
X83188435Y-76512771D01*
X83182824Y-76504758D01*
X83052896Y-76319200D01*
X83007726Y-76274030D01*
X82930967Y-76197271D01*
X82904716Y-76149196D01*
X84767035Y-76149196D01*
X84767035Y-76149203D01*
X84787230Y-76328449D01*
X84787231Y-76328454D01*
X84846811Y-76498724D01*
X84862593Y-76523839D01*
X84881600Y-76589812D01*
X84881600Y-78273987D01*
X84862595Y-78339957D01*
X84846809Y-78365080D01*
X84787233Y-78535337D01*
X84787230Y-78535350D01*
X84767035Y-78714596D01*
X84767035Y-78714603D01*
X84787230Y-78893849D01*
X84787231Y-78893854D01*
X84846811Y-79064124D01*
X84862593Y-79089239D01*
X84881600Y-79155212D01*
X84881600Y-80813987D01*
X84862595Y-80879957D01*
X84846809Y-80905080D01*
X84787233Y-81075337D01*
X84787230Y-81075350D01*
X84767035Y-81254596D01*
X84767035Y-81254603D01*
X84787230Y-81433849D01*
X84787231Y-81433854D01*
X84846811Y-81604124D01*
X84862593Y-81629239D01*
X84881600Y-81695212D01*
X84881600Y-83353987D01*
X84862595Y-83419957D01*
X84846809Y-83445080D01*
X84787233Y-83615337D01*
X84787230Y-83615350D01*
X84767035Y-83794596D01*
X84767035Y-83794603D01*
X84787230Y-83973849D01*
X84787231Y-83973854D01*
X84846811Y-84144124D01*
X84862593Y-84169239D01*
X84881600Y-84235212D01*
X84881600Y-85868587D01*
X84862595Y-85934557D01*
X84846809Y-85959680D01*
X84787233Y-86129937D01*
X84787230Y-86129950D01*
X84767035Y-86309196D01*
X84767035Y-86309203D01*
X84787230Y-86488449D01*
X84787231Y-86488454D01*
X84846811Y-86658724D01*
X84862593Y-86683839D01*
X84881600Y-86749812D01*
X84881600Y-88433987D01*
X84862595Y-88499957D01*
X84846809Y-88525080D01*
X84787233Y-88695337D01*
X84787230Y-88695350D01*
X84767035Y-88874596D01*
X84767035Y-88874603D01*
X84787230Y-89053849D01*
X84787231Y-89053854D01*
X84846811Y-89224124D01*
X84862593Y-89249239D01*
X84881600Y-89315212D01*
X84881600Y-90973987D01*
X84862595Y-91039957D01*
X84846809Y-91065080D01*
X84787233Y-91235337D01*
X84787230Y-91235350D01*
X84767035Y-91414596D01*
X84767035Y-91414603D01*
X84787230Y-91593849D01*
X84787231Y-91593854D01*
X84846811Y-91764124D01*
X84862593Y-91789239D01*
X84881600Y-91855212D01*
X84881600Y-93513987D01*
X84862595Y-93579957D01*
X84846809Y-93605080D01*
X84787233Y-93775337D01*
X84787230Y-93775350D01*
X84767035Y-93954596D01*
X84767035Y-93954603D01*
X84787230Y-94133849D01*
X84787231Y-94133854D01*
X84846811Y-94304123D01*
X84910088Y-94404827D01*
X84942784Y-94456862D01*
X85070338Y-94584416D01*
X85108155Y-94608178D01*
X85170805Y-94647544D01*
X85223078Y-94680389D01*
X85375709Y-94733797D01*
X85393345Y-94739968D01*
X85393350Y-94739969D01*
X85572596Y-94760165D01*
X85572600Y-94760165D01*
X85572604Y-94760165D01*
X85751849Y-94739969D01*
X85751852Y-94739968D01*
X85751855Y-94739968D01*
X85922122Y-94680389D01*
X86074862Y-94584416D01*
X86202416Y-94456862D01*
X86298389Y-94304122D01*
X86357968Y-94133855D01*
X86358461Y-94129480D01*
X86378165Y-93954603D01*
X86378165Y-93954596D01*
X86357969Y-93775350D01*
X86357966Y-93775337D01*
X86298390Y-93605080D01*
X86298110Y-93604635D01*
X86282605Y-93579957D01*
X86263600Y-93513987D01*
X86263600Y-91855212D01*
X86282607Y-91789239D01*
X86298388Y-91764124D01*
X86298389Y-91764122D01*
X86357968Y-91593855D01*
X86378165Y-91414600D01*
X86375630Y-91392105D01*
X86357969Y-91235350D01*
X86357966Y-91235337D01*
X86298390Y-91065080D01*
X86298110Y-91064635D01*
X86282605Y-91039957D01*
X86263600Y-90973987D01*
X86263600Y-89315212D01*
X86282607Y-89249239D01*
X86298388Y-89224124D01*
X86298389Y-89224122D01*
X86357968Y-89053855D01*
X86357969Y-89053849D01*
X86378165Y-88874603D01*
X86378165Y-88874596D01*
X86357969Y-88695350D01*
X86357966Y-88695337D01*
X86298390Y-88525080D01*
X86298110Y-88524635D01*
X86283807Y-88501870D01*
X86282605Y-88499957D01*
X86263600Y-88433987D01*
X86263600Y-86749812D01*
X86282607Y-86683839D01*
X86298388Y-86658724D01*
X86357968Y-86488454D01*
X86357969Y-86488449D01*
X86378165Y-86309203D01*
X86378165Y-86309196D01*
X86357969Y-86129950D01*
X86357966Y-86129937D01*
X86298390Y-85959680D01*
X86282605Y-85934557D01*
X86263600Y-85868587D01*
X86263600Y-84235212D01*
X86282607Y-84169239D01*
X86298388Y-84144124D01*
X86298389Y-84144122D01*
X86357968Y-83973855D01*
X86361836Y-83939526D01*
X86378165Y-83794603D01*
X86378165Y-83794596D01*
X86357969Y-83615350D01*
X86357966Y-83615337D01*
X86298390Y-83445080D01*
X86298110Y-83444635D01*
X86282605Y-83419957D01*
X86263600Y-83353987D01*
X86263600Y-81695212D01*
X86282607Y-81629239D01*
X86298388Y-81604124D01*
X86298389Y-81604122D01*
X86357968Y-81433855D01*
X86378165Y-81254600D01*
X86375630Y-81232105D01*
X86357969Y-81075350D01*
X86357966Y-81075337D01*
X86298390Y-80905080D01*
X86298110Y-80904635D01*
X86282605Y-80879957D01*
X86263600Y-80813987D01*
X86263600Y-79155212D01*
X86282607Y-79089239D01*
X86298388Y-79064124D01*
X86298389Y-79064122D01*
X86357968Y-78893855D01*
X86372845Y-78761819D01*
X86378165Y-78714603D01*
X86378165Y-78714596D01*
X86357969Y-78535350D01*
X86357966Y-78535337D01*
X86298390Y-78365080D01*
X86298110Y-78364635D01*
X86282605Y-78339957D01*
X86263600Y-78273987D01*
X86263600Y-76589812D01*
X86282607Y-76523839D01*
X86298388Y-76498724D01*
X86321871Y-76431613D01*
X86341839Y-76374545D01*
X86371197Y-76327823D01*
X86780480Y-75918540D01*
X86841801Y-75885057D01*
X86911493Y-75890041D01*
X86967426Y-75931913D01*
X86991843Y-75997377D01*
X86991379Y-76020106D01*
X86976835Y-76149195D01*
X86976835Y-76149203D01*
X86997030Y-76328449D01*
X86997031Y-76328454D01*
X87056611Y-76498724D01*
X87072393Y-76523839D01*
X87091400Y-76589812D01*
X87091400Y-78273987D01*
X87072395Y-78339957D01*
X87056609Y-78365080D01*
X86997033Y-78535337D01*
X86997030Y-78535350D01*
X86976835Y-78714596D01*
X86976835Y-78714603D01*
X86997030Y-78893849D01*
X86997031Y-78893854D01*
X87056611Y-79064124D01*
X87072393Y-79089239D01*
X87091400Y-79155212D01*
X87091400Y-80813987D01*
X87072395Y-80879957D01*
X87056609Y-80905080D01*
X86997033Y-81075337D01*
X86997030Y-81075350D01*
X86976835Y-81254596D01*
X86976835Y-81254603D01*
X86997030Y-81433849D01*
X86997031Y-81433854D01*
X87056611Y-81604124D01*
X87072393Y-81629239D01*
X87091400Y-81695212D01*
X87091400Y-83353987D01*
X87072395Y-83419957D01*
X87056609Y-83445080D01*
X86997033Y-83615337D01*
X86997030Y-83615350D01*
X86976835Y-83794596D01*
X86976835Y-83794603D01*
X86997030Y-83973849D01*
X86997031Y-83973854D01*
X87056611Y-84144124D01*
X87072393Y-84169239D01*
X87091400Y-84235212D01*
X87091400Y-85868587D01*
X87072395Y-85934557D01*
X87056609Y-85959680D01*
X86997033Y-86129937D01*
X86997030Y-86129950D01*
X86976835Y-86309196D01*
X86976835Y-86309203D01*
X86997030Y-86488449D01*
X86997031Y-86488454D01*
X87056611Y-86658724D01*
X87072393Y-86683839D01*
X87091400Y-86749812D01*
X87091400Y-88433987D01*
X87072395Y-88499957D01*
X87056609Y-88525080D01*
X86997033Y-88695337D01*
X86997030Y-88695350D01*
X86976835Y-88874596D01*
X86976835Y-88874603D01*
X86997030Y-89053849D01*
X86997031Y-89053854D01*
X87056611Y-89224124D01*
X87072393Y-89249239D01*
X87091400Y-89315212D01*
X87091400Y-90973987D01*
X87072395Y-91039957D01*
X87056609Y-91065080D01*
X86997033Y-91235337D01*
X86997030Y-91235350D01*
X86976835Y-91414596D01*
X86976835Y-91414603D01*
X86997030Y-91593849D01*
X86997031Y-91593854D01*
X87056611Y-91764124D01*
X87072393Y-91789239D01*
X87091400Y-91855212D01*
X87091400Y-93513987D01*
X87072395Y-93579957D01*
X87056609Y-93605080D01*
X86997033Y-93775337D01*
X86997030Y-93775350D01*
X86976835Y-93954596D01*
X86976835Y-93954603D01*
X86997030Y-94133849D01*
X86997031Y-94133854D01*
X87056611Y-94304123D01*
X87119888Y-94404827D01*
X87152584Y-94456862D01*
X87280138Y-94584416D01*
X87317955Y-94608178D01*
X87380605Y-94647544D01*
X87432878Y-94680389D01*
X87585509Y-94733797D01*
X87603145Y-94739968D01*
X87603150Y-94739969D01*
X87782396Y-94760165D01*
X87782400Y-94760165D01*
X87782404Y-94760165D01*
X87961649Y-94739969D01*
X87961652Y-94739968D01*
X87961655Y-94739968D01*
X88131922Y-94680389D01*
X88284662Y-94584416D01*
X88412216Y-94456862D01*
X88508189Y-94304122D01*
X88567768Y-94133855D01*
X88568261Y-94129480D01*
X88587965Y-93954603D01*
X88587965Y-93954596D01*
X88567769Y-93775350D01*
X88567766Y-93775337D01*
X88508190Y-93605080D01*
X88507910Y-93604635D01*
X88492405Y-93579957D01*
X88473400Y-93513987D01*
X88473400Y-91855212D01*
X88492407Y-91789239D01*
X88508188Y-91764124D01*
X88508189Y-91764122D01*
X88567768Y-91593855D01*
X88587965Y-91414600D01*
X88585430Y-91392105D01*
X88567769Y-91235350D01*
X88567766Y-91235337D01*
X88508190Y-91065080D01*
X88507910Y-91064635D01*
X88492405Y-91039957D01*
X88473400Y-90973987D01*
X88473400Y-89315212D01*
X88492407Y-89249239D01*
X88508188Y-89224124D01*
X88508189Y-89224122D01*
X88567768Y-89053855D01*
X88567769Y-89053849D01*
X88587965Y-88874603D01*
X88587965Y-88874596D01*
X88567769Y-88695350D01*
X88567766Y-88695337D01*
X88508190Y-88525080D01*
X88507910Y-88524635D01*
X88493607Y-88501870D01*
X88492405Y-88499957D01*
X88473400Y-88433987D01*
X88473400Y-86749812D01*
X88492407Y-86683839D01*
X88508188Y-86658724D01*
X88567768Y-86488454D01*
X88567769Y-86488449D01*
X88587965Y-86309203D01*
X88587965Y-86309196D01*
X88567769Y-86129950D01*
X88567766Y-86129937D01*
X88508190Y-85959680D01*
X88492405Y-85934557D01*
X88473400Y-85868587D01*
X88473400Y-84235212D01*
X88492407Y-84169239D01*
X88508188Y-84144124D01*
X88508189Y-84144122D01*
X88567768Y-83973855D01*
X88571636Y-83939526D01*
X88587965Y-83794603D01*
X88587965Y-83794596D01*
X88567769Y-83615350D01*
X88567766Y-83615337D01*
X88508190Y-83445080D01*
X88507910Y-83444635D01*
X88492405Y-83419957D01*
X88473400Y-83353987D01*
X88473400Y-81695212D01*
X88492407Y-81629239D01*
X88508188Y-81604124D01*
X88508189Y-81604122D01*
X88567768Y-81433855D01*
X88587965Y-81254600D01*
X88585430Y-81232105D01*
X88567769Y-81075350D01*
X88567766Y-81075337D01*
X88508190Y-80905080D01*
X88507910Y-80904635D01*
X88492405Y-80879957D01*
X88473400Y-80813987D01*
X88473400Y-79155212D01*
X88492407Y-79089239D01*
X88508188Y-79064124D01*
X88508189Y-79064122D01*
X88567768Y-78893855D01*
X88582645Y-78761819D01*
X88587965Y-78714603D01*
X88587965Y-78714596D01*
X88567769Y-78535350D01*
X88567766Y-78535337D01*
X88508190Y-78365080D01*
X88507910Y-78364635D01*
X88492405Y-78339957D01*
X88473400Y-78273987D01*
X88473400Y-77715649D01*
X95750000Y-77715649D01*
X95752899Y-77752489D01*
X95752900Y-77752495D01*
X95798716Y-77910193D01*
X95798717Y-77910196D01*
X95882314Y-78051552D01*
X95882321Y-78051561D01*
X95998438Y-78167678D01*
X95998447Y-78167685D01*
X96139801Y-78251281D01*
X96297514Y-78297100D01*
X96297511Y-78297100D01*
X96299998Y-78297295D01*
X96300000Y-78297295D01*
X96300000Y-77312500D01*
X95750000Y-77312500D01*
X95750000Y-77715649D01*
X88473400Y-77715649D01*
X88473400Y-76589812D01*
X88492407Y-76523839D01*
X88508188Y-76498724D01*
X88531671Y-76431613D01*
X88539461Y-76409350D01*
X95750000Y-76409350D01*
X95750000Y-76812500D01*
X96300000Y-76812500D01*
X96300000Y-75906000D01*
X96319685Y-75838961D01*
X96372489Y-75793206D01*
X96424000Y-75782000D01*
X96425000Y-75782000D01*
X96425000Y-75312500D01*
X95775001Y-75312500D01*
X95775001Y-75394082D01*
X95781408Y-75464602D01*
X95781409Y-75464607D01*
X95831981Y-75626896D01*
X95919927Y-75772377D01*
X95963974Y-75816424D01*
X95997459Y-75877747D01*
X95992475Y-75947439D01*
X95963974Y-75991786D01*
X95882321Y-76073438D01*
X95882314Y-76073447D01*
X95798717Y-76214803D01*
X95798716Y-76214806D01*
X95752900Y-76372504D01*
X95752899Y-76372510D01*
X95750000Y-76409350D01*
X88539461Y-76409350D01*
X88551639Y-76374545D01*
X88580997Y-76327823D01*
X90177894Y-74730927D01*
X95775000Y-74730927D01*
X95775000Y-74812500D01*
X96425000Y-74812500D01*
X96425000Y-74087500D01*
X96424999Y-74087499D01*
X96418436Y-74087500D01*
X96418417Y-74087501D01*
X96347897Y-74093908D01*
X96347892Y-74093909D01*
X96185603Y-74144481D01*
X96040122Y-74232427D01*
X95919927Y-74352622D01*
X95831980Y-74498104D01*
X95781409Y-74660393D01*
X95775000Y-74730927D01*
X90177894Y-74730927D01*
X91681503Y-73227319D01*
X91742826Y-73193834D01*
X91769184Y-73191000D01*
X91931942Y-73191000D01*
X96662416Y-73191000D01*
X96729455Y-73210685D01*
X96750097Y-73227319D01*
X97597681Y-74074902D01*
X97631166Y-74136225D01*
X97634000Y-74162583D01*
X97634000Y-74236480D01*
X97614315Y-74303519D01*
X97597681Y-74324161D01*
X97587327Y-74334515D01*
X97526004Y-74368000D01*
X97456312Y-74363016D01*
X97411965Y-74334515D01*
X97309877Y-74232427D01*
X97164395Y-74144480D01*
X97164396Y-74144480D01*
X97002105Y-74093909D01*
X97002106Y-74093909D01*
X96931572Y-74087500D01*
X96925000Y-74087500D01*
X96925000Y-75956500D01*
X96905315Y-76023539D01*
X96852511Y-76069294D01*
X96801000Y-76080500D01*
X96800000Y-76080500D01*
X96800000Y-76812500D01*
X97350000Y-76812500D01*
X97350000Y-76409365D01*
X97349999Y-76409350D01*
X97347100Y-76372510D01*
X97347099Y-76372504D01*
X97301283Y-76214806D01*
X97301282Y-76214803D01*
X97225680Y-76086967D01*
X97208497Y-76019243D01*
X97230657Y-75952981D01*
X97268263Y-75917728D01*
X97309878Y-75892570D01*
X97411963Y-75790485D01*
X97473286Y-75756999D01*
X97542977Y-75761983D01*
X97587322Y-75790480D01*
X97597677Y-75800834D01*
X97631165Y-75862155D01*
X97634000Y-75888519D01*
X97634000Y-77005560D01*
X97646431Y-77068053D01*
X97647116Y-77071496D01*
X97649500Y-77095692D01*
X97649500Y-77575500D01*
X97629815Y-77642539D01*
X97577011Y-77688294D01*
X97525500Y-77699500D01*
X97474000Y-77699500D01*
X97406961Y-77679815D01*
X97361206Y-77627011D01*
X97350000Y-77575500D01*
X97350000Y-77312500D01*
X96800000Y-77312500D01*
X96800000Y-77968184D01*
X96782733Y-78031304D01*
X96748254Y-78089605D01*
X96748254Y-78089606D01*
X96702402Y-78247426D01*
X96702401Y-78247432D01*
X96699500Y-78284298D01*
X96699500Y-79590701D01*
X96702401Y-79627567D01*
X96721329Y-79692717D01*
X96721129Y-79762586D01*
X96691299Y-79812708D01*
X96691553Y-79812928D01*
X96690328Y-79814341D01*
X96689953Y-79814972D01*
X96688666Y-79816258D01*
X96594433Y-79925008D01*
X96594430Y-79925012D01*
X96534664Y-80055878D01*
X96523844Y-80092728D01*
X96514977Y-80122924D01*
X96514976Y-80122928D01*
X96494500Y-80265344D01*
X96494500Y-94876000D01*
X96494501Y-94876009D01*
X96506052Y-94983450D01*
X96506054Y-94983462D01*
X96517260Y-95034972D01*
X96551383Y-95137497D01*
X96551386Y-95137503D01*
X96629171Y-95258537D01*
X96629179Y-95258548D01*
X96674923Y-95311340D01*
X96674926Y-95311343D01*
X96674930Y-95311347D01*
X96783664Y-95405567D01*
X96783667Y-95405568D01*
X96783668Y-95405569D01*
X96851450Y-95436525D01*
X96914541Y-95465338D01*
X96981580Y-95485023D01*
X96981584Y-95485024D01*
X97124000Y-95505500D01*
X97124003Y-95505500D01*
X100225530Y-95505500D01*
X100225533Y-95505500D01*
X100350548Y-95489797D01*
X100393201Y-95478910D01*
X100409964Y-95474632D01*
X100409965Y-95474631D01*
X100409975Y-95474629D01*
X100527225Y-95428496D01*
X100642406Y-95342271D01*
X100691811Y-95292865D01*
X100778031Y-95177688D01*
X100828312Y-95042880D01*
X100843164Y-94974608D01*
X100843164Y-94974607D01*
X100843164Y-94974601D01*
X100843400Y-94972412D01*
X100843480Y-94970190D01*
X100848096Y-94905653D01*
X100872513Y-94840188D01*
X100928447Y-94798317D01*
X100971780Y-94790499D01*
X101987871Y-94790499D01*
X101987872Y-94790499D01*
X102047483Y-94784091D01*
X102182331Y-94733796D01*
X102297546Y-94647546D01*
X102383796Y-94532331D01*
X102434091Y-94397483D01*
X102440500Y-94337873D01*
X102440499Y-93482128D01*
X102434091Y-93422517D01*
X102393366Y-93313329D01*
X102388383Y-93243642D01*
X102393361Y-93226683D01*
X102434091Y-93117483D01*
X102440500Y-93057873D01*
X102440499Y-92202128D01*
X102434091Y-92142517D01*
X102395231Y-92038329D01*
X102390248Y-91968642D01*
X102395227Y-91951682D01*
X102434091Y-91847483D01*
X102440500Y-91787873D01*
X102440499Y-90932128D01*
X102434091Y-90872517D01*
X102395231Y-90768329D01*
X102390248Y-90698642D01*
X102395227Y-90681682D01*
X102434091Y-90577483D01*
X102440500Y-90517873D01*
X102440499Y-90095154D01*
X102460183Y-90028116D01*
X102512987Y-89982361D01*
X102537224Y-89974192D01*
X102537350Y-89974163D01*
X102537356Y-89974163D01*
X102677708Y-89942516D01*
X102803464Y-89872609D01*
X102859079Y-89830316D01*
X102859082Y-89830313D01*
X102960048Y-89727807D01*
X109882783Y-80332668D01*
X109892175Y-80319484D01*
X109896663Y-80312966D01*
X109905567Y-80299585D01*
X109965338Y-80168708D01*
X109985023Y-80101669D01*
X109985024Y-80101665D01*
X110005500Y-79959249D01*
X110005500Y-79898002D01*
X109989797Y-79772984D01*
X109978979Y-79730600D01*
X109974629Y-79713558D01*
X109964786Y-79688543D01*
X109928493Y-79596304D01*
X109854467Y-79497421D01*
X109842270Y-79481128D01*
X109842266Y-79481123D01*
X109822244Y-79461102D01*
X109792860Y-79431719D01*
X109754726Y-79403173D01*
X109677681Y-79345499D01*
X109581166Y-79309502D01*
X109525232Y-79267631D01*
X109500815Y-79202167D01*
X109500499Y-79193320D01*
X109500499Y-78252129D01*
X109500498Y-78252123D01*
X109500497Y-78252116D01*
X109494091Y-78192517D01*
X109484829Y-78167685D01*
X109443797Y-78057671D01*
X109443793Y-78057664D01*
X109357547Y-77942455D01*
X109357544Y-77942452D01*
X109242335Y-77856206D01*
X109242328Y-77856202D01*
X109107482Y-77805908D01*
X109099938Y-77804126D01*
X109100441Y-77801994D01*
X109046184Y-77779513D01*
X109006342Y-77722117D01*
X109000000Y-77682970D01*
X109000000Y-76316524D01*
X109019685Y-76249485D01*
X109072489Y-76203730D01*
X109100020Y-76196179D01*
X109099832Y-76195380D01*
X109107379Y-76193596D01*
X109242086Y-76143354D01*
X109242093Y-76143350D01*
X109357187Y-76057190D01*
X109357190Y-76057187D01*
X109443350Y-75942093D01*
X109443354Y-75942086D01*
X109493596Y-75807379D01*
X109493598Y-75807372D01*
X109499999Y-75747844D01*
X109500000Y-75747827D01*
X109500000Y-75400000D01*
X106700000Y-75400000D01*
X106700000Y-75576000D01*
X106680315Y-75643039D01*
X106627511Y-75688794D01*
X106576000Y-75700000D01*
X106000000Y-75700000D01*
X106000000Y-77370500D01*
X105980315Y-77437539D01*
X105927511Y-77483294D01*
X105876000Y-77494500D01*
X104124000Y-77494500D01*
X104056961Y-77474815D01*
X104011206Y-77422011D01*
X104000000Y-77370500D01*
X104000000Y-75700000D01*
X103424000Y-75700000D01*
X103356961Y-75680315D01*
X103311206Y-75627511D01*
X103300000Y-75576000D01*
X103300000Y-75400000D01*
X100500000Y-75400000D01*
X100500000Y-75747844D01*
X100506401Y-75807372D01*
X100506403Y-75807379D01*
X100556645Y-75942086D01*
X100556649Y-75942093D01*
X100642809Y-76057187D01*
X100642812Y-76057190D01*
X100757906Y-76143350D01*
X100757913Y-76143354D01*
X100892620Y-76193596D01*
X100900168Y-76195380D01*
X100899655Y-76197548D01*
X100953786Y-76219956D01*
X100993646Y-76277340D01*
X101000000Y-76316524D01*
X101000000Y-77548212D01*
X100980315Y-77615251D01*
X100927511Y-77661006D01*
X100858353Y-77670950D01*
X100794797Y-77641925D01*
X100739988Y-77594432D01*
X100739984Y-77594430D01*
X100609118Y-77534664D01*
X100609113Y-77534662D01*
X100609112Y-77534662D01*
X100542073Y-77514977D01*
X100542075Y-77514977D01*
X100542070Y-77514976D01*
X100480007Y-77506053D01*
X100399653Y-77494500D01*
X100399651Y-77494500D01*
X99374500Y-77494500D01*
X99307461Y-77474815D01*
X99261706Y-77422011D01*
X99250500Y-77370500D01*
X99250500Y-76409313D01*
X99250499Y-76409298D01*
X99250382Y-76407813D01*
X99247598Y-76372431D01*
X99234821Y-76328454D01*
X99201745Y-76214606D01*
X99201744Y-76214603D01*
X99201744Y-76214602D01*
X99118081Y-76073135D01*
X99118079Y-76073133D01*
X99118076Y-76073129D01*
X99052319Y-76007372D01*
X99018834Y-75946049D01*
X99016000Y-75919691D01*
X99016000Y-75888519D01*
X99035685Y-75821480D01*
X99052315Y-75800841D01*
X99080472Y-75772685D01*
X99168478Y-75627106D01*
X99219086Y-75464696D01*
X99225500Y-75394116D01*
X99225500Y-74730884D01*
X99219086Y-74660304D01*
X99185386Y-74552155D01*
X100500000Y-74552155D01*
X100500000Y-74900000D01*
X101650000Y-74900000D01*
X102150000Y-74900000D01*
X103300000Y-74900000D01*
X103300000Y-74552172D01*
X103299999Y-74552155D01*
X106700000Y-74552155D01*
X106700000Y-74900000D01*
X107850000Y-74900000D01*
X108350000Y-74900000D01*
X109500000Y-74900000D01*
X109500000Y-74552172D01*
X109499999Y-74552155D01*
X109493598Y-74492627D01*
X109493596Y-74492620D01*
X109443354Y-74357913D01*
X109443350Y-74357906D01*
X109357190Y-74242812D01*
X109357187Y-74242809D01*
X109242093Y-74156649D01*
X109242086Y-74156645D01*
X109107379Y-74106403D01*
X109107372Y-74106401D01*
X109047844Y-74100000D01*
X108350000Y-74100000D01*
X108350000Y-74900000D01*
X107850000Y-74900000D01*
X107850000Y-74100000D01*
X107152155Y-74100000D01*
X107092627Y-74106401D01*
X107092620Y-74106403D01*
X106957913Y-74156645D01*
X106957906Y-74156649D01*
X106842812Y-74242809D01*
X106842809Y-74242812D01*
X106756649Y-74357906D01*
X106756645Y-74357913D01*
X106706403Y-74492620D01*
X106706401Y-74492627D01*
X106700000Y-74552155D01*
X103299999Y-74552155D01*
X103293598Y-74492627D01*
X103293596Y-74492620D01*
X103243354Y-74357913D01*
X103243350Y-74357906D01*
X103157190Y-74242812D01*
X103157187Y-74242809D01*
X103042093Y-74156649D01*
X103042086Y-74156645D01*
X102907379Y-74106403D01*
X102907372Y-74106401D01*
X102847844Y-74100000D01*
X102150000Y-74100000D01*
X102150000Y-74900000D01*
X101650000Y-74900000D01*
X101650000Y-74100000D01*
X100952155Y-74100000D01*
X100892627Y-74106401D01*
X100892620Y-74106403D01*
X100757913Y-74156645D01*
X100757906Y-74156649D01*
X100642812Y-74242809D01*
X100642809Y-74242812D01*
X100556649Y-74357906D01*
X100556645Y-74357913D01*
X100506403Y-74492620D01*
X100506401Y-74492627D01*
X100500000Y-74552155D01*
X99185386Y-74552155D01*
X99168478Y-74497894D01*
X99080472Y-74352315D01*
X99080470Y-74352313D01*
X99080469Y-74352311D01*
X99052319Y-74324161D01*
X99018834Y-74262838D01*
X99016000Y-74236480D01*
X99016000Y-73987844D01*
X122210000Y-73987844D01*
X122216401Y-74047372D01*
X122216403Y-74047379D01*
X122266645Y-74182086D01*
X122266649Y-74182093D01*
X122352809Y-74297187D01*
X122352812Y-74297190D01*
X122467906Y-74383350D01*
X122467913Y-74383354D01*
X122602620Y-74433596D01*
X122602627Y-74433598D01*
X122662155Y-74439999D01*
X122662172Y-74440000D01*
X122840000Y-74440000D01*
X123340000Y-74440000D01*
X123517828Y-74440000D01*
X123517844Y-74439999D01*
X123577372Y-74433598D01*
X123577376Y-74433597D01*
X123686666Y-74392834D01*
X123756357Y-74387850D01*
X123773334Y-74392834D01*
X123882623Y-74433597D01*
X123882627Y-74433598D01*
X123942155Y-74439999D01*
X123942172Y-74440000D01*
X124120000Y-74440000D01*
X124620000Y-74440000D01*
X124797828Y-74440000D01*
X124797844Y-74439999D01*
X124857372Y-74433598D01*
X124857376Y-74433597D01*
X124961666Y-74394699D01*
X125031357Y-74389715D01*
X125048334Y-74394699D01*
X125152623Y-74433597D01*
X125152627Y-74433598D01*
X125212155Y-74439999D01*
X125212172Y-74440000D01*
X125390000Y-74440000D01*
X125890000Y-74440000D01*
X126067828Y-74440000D01*
X126067844Y-74439999D01*
X126127372Y-74433598D01*
X126127376Y-74433597D01*
X126231666Y-74394699D01*
X126301357Y-74389715D01*
X126318334Y-74394699D01*
X126422623Y-74433597D01*
X126422627Y-74433598D01*
X126482155Y-74439999D01*
X126482172Y-74440000D01*
X126660000Y-74440000D01*
X127160000Y-74440000D01*
X127337828Y-74440000D01*
X127337844Y-74439999D01*
X127397372Y-74433598D01*
X127397379Y-74433596D01*
X127532086Y-74383354D01*
X127532093Y-74383350D01*
X127647187Y-74297190D01*
X127647190Y-74297187D01*
X127733350Y-74182093D01*
X127733354Y-74182086D01*
X127783596Y-74047379D01*
X127783598Y-74047372D01*
X127789999Y-73987844D01*
X127790000Y-73987827D01*
X127790000Y-73440000D01*
X127160000Y-73440000D01*
X127160000Y-74440000D01*
X126660000Y-74440000D01*
X126660000Y-73440000D01*
X125890000Y-73440000D01*
X125890000Y-74440000D01*
X125390000Y-74440000D01*
X125390000Y-73440000D01*
X124620000Y-73440000D01*
X124620000Y-74440000D01*
X124120000Y-74440000D01*
X124120000Y-73440000D01*
X123340000Y-73440000D01*
X123340000Y-74440000D01*
X122840000Y-74440000D01*
X122840000Y-73440000D01*
X122210000Y-73440000D01*
X122210000Y-73987844D01*
X99016000Y-73987844D01*
X99016000Y-73756939D01*
X98989446Y-73623448D01*
X98989445Y-73623447D01*
X98989445Y-73623443D01*
X98962447Y-73558264D01*
X98937359Y-73497695D01*
X98937352Y-73497682D01*
X98861735Y-73384514D01*
X98834023Y-73356802D01*
X98765487Y-73288266D01*
X98440487Y-72963266D01*
X97869377Y-72392155D01*
X122210000Y-72392155D01*
X122210000Y-72940000D01*
X122840000Y-72940000D01*
X123340000Y-72940000D01*
X124120000Y-72940000D01*
X124620000Y-72940000D01*
X125390000Y-72940000D01*
X125890000Y-72940000D01*
X126660000Y-72940000D01*
X127160000Y-72940000D01*
X127790000Y-72940000D01*
X127790000Y-72392172D01*
X127789999Y-72392155D01*
X127783598Y-72332627D01*
X127783596Y-72332620D01*
X127733354Y-72197913D01*
X127733350Y-72197906D01*
X127647190Y-72082812D01*
X127647187Y-72082809D01*
X127532093Y-71996649D01*
X127532086Y-71996645D01*
X127397379Y-71946403D01*
X127397372Y-71946401D01*
X127337844Y-71940000D01*
X127160000Y-71940000D01*
X127160000Y-72940000D01*
X126660000Y-72940000D01*
X126660000Y-71940000D01*
X126482155Y-71940000D01*
X126422627Y-71946401D01*
X126422617Y-71946403D01*
X126318332Y-71985299D01*
X126248641Y-71990283D01*
X126231668Y-71985299D01*
X126127382Y-71946403D01*
X126127372Y-71946401D01*
X126067844Y-71940000D01*
X125890000Y-71940000D01*
X125890000Y-72940000D01*
X125390000Y-72940000D01*
X125390000Y-71940000D01*
X125212155Y-71940000D01*
X125152627Y-71946401D01*
X125152617Y-71946403D01*
X125048332Y-71985299D01*
X124978641Y-71990283D01*
X124961668Y-71985299D01*
X124857382Y-71946403D01*
X124857372Y-71946401D01*
X124797844Y-71940000D01*
X124620000Y-71940000D01*
X124620000Y-72940000D01*
X124120000Y-72940000D01*
X124120000Y-71940000D01*
X123942155Y-71940000D01*
X123882627Y-71946401D01*
X123882617Y-71946403D01*
X123773332Y-71987164D01*
X123703641Y-71992148D01*
X123686668Y-71987164D01*
X123577382Y-71946403D01*
X123577372Y-71946401D01*
X123517844Y-71940000D01*
X123340000Y-71940000D01*
X123340000Y-72940000D01*
X122840000Y-72940000D01*
X122840000Y-71940000D01*
X122662155Y-71940000D01*
X122602627Y-71946401D01*
X122602620Y-71946403D01*
X122467913Y-71996645D01*
X122467906Y-71996649D01*
X122352812Y-72082809D01*
X122352809Y-72082812D01*
X122266649Y-72197906D01*
X122266645Y-72197913D01*
X122216403Y-72332620D01*
X122216401Y-72332627D01*
X122210000Y-72392155D01*
X97869377Y-72392155D01*
X97440492Y-71963269D01*
X97440485Y-71963263D01*
X97327312Y-71887644D01*
X97327309Y-71887642D01*
X97201561Y-71835556D01*
X97201551Y-71835553D01*
X97068060Y-71809000D01*
X97068058Y-71809000D01*
X92068058Y-71809000D01*
X91363542Y-71809000D01*
X91363540Y-71809000D01*
X91230048Y-71835553D01*
X91230039Y-71835556D01*
X91180191Y-71856203D01*
X91110722Y-71863670D01*
X91048243Y-71832394D01*
X91012592Y-71772305D01*
X91015087Y-71702479D01*
X91045057Y-71653964D01*
X93971703Y-68727319D01*
X94033026Y-68693834D01*
X94059384Y-68691000D01*
X149662416Y-68691000D01*
X149729455Y-68710685D01*
X149750097Y-68727319D01*
X154772681Y-73749902D01*
X154806166Y-73811225D01*
X154809000Y-73837583D01*
X154809000Y-75348980D01*
X154789315Y-75416019D01*
X154772681Y-75436661D01*
X154669531Y-75539810D01*
X154669530Y-75539811D01*
X154581522Y-75685393D01*
X154580368Y-75689098D01*
X154550673Y-75784392D01*
X154511937Y-75842538D01*
X154447912Y-75870512D01*
X154432289Y-75871500D01*
X154340429Y-75871500D01*
X154273390Y-75851815D01*
X154227635Y-75799011D01*
X154221353Y-75782095D01*
X154209976Y-75742935D01*
X154201744Y-75714602D01*
X154118081Y-75573135D01*
X154118079Y-75573133D01*
X154118076Y-75573129D01*
X154001870Y-75456923D01*
X154001862Y-75456917D01*
X153860396Y-75373255D01*
X153860393Y-75373254D01*
X153702573Y-75327402D01*
X153702567Y-75327401D01*
X153665701Y-75324500D01*
X153665694Y-75324500D01*
X153234306Y-75324500D01*
X153234298Y-75324500D01*
X153197432Y-75327401D01*
X153197426Y-75327402D01*
X153039606Y-75373254D01*
X153039603Y-75373255D01*
X152898137Y-75456917D01*
X152898129Y-75456923D01*
X152781923Y-75573129D01*
X152781917Y-75573137D01*
X152698255Y-75714603D01*
X152698254Y-75714606D01*
X152652402Y-75872426D01*
X152652401Y-75872432D01*
X152649500Y-75909298D01*
X152649500Y-77075500D01*
X152629815Y-77142539D01*
X152577011Y-77188294D01*
X152525500Y-77199500D01*
X152474500Y-77199500D01*
X152407461Y-77179815D01*
X152361706Y-77127011D01*
X152350500Y-77075500D01*
X152350500Y-75909313D01*
X152350499Y-75909298D01*
X152350239Y-75906000D01*
X152347598Y-75872431D01*
X152347040Y-75870512D01*
X152309974Y-75742931D01*
X152301744Y-75714602D01*
X152218081Y-75573135D01*
X152218079Y-75573133D01*
X152218076Y-75573129D01*
X152101870Y-75456923D01*
X152101862Y-75456917D01*
X151960396Y-75373255D01*
X151960393Y-75373254D01*
X151802573Y-75327402D01*
X151802567Y-75327401D01*
X151765701Y-75324500D01*
X151765694Y-75324500D01*
X151334306Y-75324500D01*
X151334298Y-75324500D01*
X151297432Y-75327401D01*
X151297426Y-75327402D01*
X151139606Y-75373254D01*
X151139603Y-75373255D01*
X150998137Y-75456917D01*
X150998129Y-75456923D01*
X150881923Y-75573129D01*
X150881917Y-75573137D01*
X150798255Y-75714603D01*
X150798254Y-75714606D01*
X150752402Y-75872426D01*
X150752401Y-75872432D01*
X150749309Y-75911733D01*
X150748484Y-75911668D01*
X150727187Y-75974778D01*
X150672602Y-76018392D01*
X150603102Y-76025572D01*
X150540754Y-75994038D01*
X150537945Y-75991316D01*
X149536818Y-74990188D01*
X149503333Y-74928865D01*
X149500499Y-74902507D01*
X149500499Y-74552129D01*
X149500498Y-74552123D01*
X149500497Y-74552116D01*
X149494091Y-74492517D01*
X149474503Y-74440000D01*
X149443797Y-74357671D01*
X149443793Y-74357664D01*
X149357547Y-74242455D01*
X149357544Y-74242452D01*
X149242335Y-74156206D01*
X149242328Y-74156202D01*
X149107482Y-74105908D01*
X149107483Y-74105908D01*
X149047883Y-74099501D01*
X149047881Y-74099500D01*
X149047873Y-74099500D01*
X149047864Y-74099500D01*
X147152129Y-74099500D01*
X147152123Y-74099501D01*
X147092516Y-74105908D01*
X146957671Y-74156202D01*
X146957664Y-74156206D01*
X146842455Y-74242452D01*
X146842452Y-74242455D01*
X146756206Y-74357664D01*
X146756203Y-74357669D01*
X146748498Y-74378331D01*
X146706628Y-74434265D01*
X146641164Y-74458684D01*
X146632315Y-74459000D01*
X143367685Y-74459000D01*
X143300646Y-74439315D01*
X143254891Y-74386511D01*
X143251502Y-74378331D01*
X143243796Y-74357669D01*
X143243793Y-74357664D01*
X143157547Y-74242455D01*
X143157544Y-74242452D01*
X143042335Y-74156206D01*
X143042328Y-74156202D01*
X142907482Y-74105908D01*
X142907483Y-74105908D01*
X142847883Y-74099501D01*
X142847881Y-74099500D01*
X142847873Y-74099500D01*
X142847864Y-74099500D01*
X140952129Y-74099500D01*
X140952123Y-74099501D01*
X140892516Y-74105908D01*
X140757671Y-74156202D01*
X140757664Y-74156206D01*
X140642455Y-74242452D01*
X140642452Y-74242455D01*
X140556206Y-74357664D01*
X140556202Y-74357671D01*
X140505908Y-74492517D01*
X140499501Y-74552116D01*
X140499501Y-74552123D01*
X140499500Y-74552135D01*
X140499500Y-75747870D01*
X140499501Y-75747876D01*
X140505908Y-75807483D01*
X140556202Y-75942328D01*
X140556206Y-75942335D01*
X140642452Y-76057544D01*
X140642455Y-76057547D01*
X140757664Y-76143793D01*
X140757671Y-76143797D01*
X140892517Y-76194091D01*
X140900062Y-76195874D01*
X140899557Y-76198010D01*
X140953795Y-76220468D01*
X140993650Y-76277856D01*
X141000000Y-76317029D01*
X141000000Y-77682969D01*
X140980315Y-77750008D01*
X140927511Y-77795763D01*
X140899883Y-77803345D01*
X140900068Y-77804124D01*
X140892520Y-77805907D01*
X140757671Y-77856202D01*
X140757664Y-77856206D01*
X140642455Y-77942452D01*
X140642452Y-77942455D01*
X140556206Y-78057664D01*
X140556202Y-78057671D01*
X140505908Y-78192517D01*
X140500005Y-78247426D01*
X140499501Y-78252123D01*
X140499500Y-78252135D01*
X140499500Y-79192335D01*
X140479815Y-79259374D01*
X140427011Y-79305129D01*
X140410437Y-79311312D01*
X140362495Y-79325389D01*
X140362492Y-79325391D01*
X140241462Y-79403173D01*
X140241451Y-79403181D01*
X140188659Y-79448925D01*
X140094433Y-79557666D01*
X140094430Y-79557670D01*
X140034664Y-79688536D01*
X140014976Y-79755584D01*
X139994500Y-79898003D01*
X139994500Y-79959258D01*
X139994757Y-79975386D01*
X139994758Y-79975411D01*
X139995011Y-79983320D01*
X139995782Y-79999396D01*
X140015345Y-80092728D01*
X140025299Y-80140217D01*
X140049219Y-80205865D01*
X140117211Y-80332658D01*
X140117217Y-80332668D01*
X147039951Y-89727807D01*
X147063634Y-89757539D01*
X147075779Y-89771662D01*
X147101602Y-89799503D01*
X147216782Y-89885730D01*
X147243811Y-89900489D01*
X147278083Y-89919205D01*
X147278093Y-89919210D01*
X147278104Y-89919216D01*
X147278109Y-89919218D01*
X147278141Y-89919231D01*
X147412911Y-89969499D01*
X147412914Y-89969499D01*
X147412919Y-89969501D01*
X147444347Y-89971748D01*
X147509809Y-89996164D01*
X147551681Y-90052097D01*
X147559500Y-90095432D01*
X147559500Y-90517870D01*
X147559501Y-90517876D01*
X147565909Y-90577484D01*
X147606631Y-90686668D01*
X147611615Y-90756359D01*
X147606631Y-90773332D01*
X147565909Y-90882514D01*
X147565908Y-90882516D01*
X147560575Y-90932127D01*
X147559501Y-90942123D01*
X147559500Y-90942135D01*
X147559500Y-91797870D01*
X147559501Y-91797876D01*
X147565909Y-91857484D01*
X147604766Y-91961668D01*
X147609750Y-92031359D01*
X147604766Y-92048332D01*
X147565909Y-92152514D01*
X147565908Y-92152516D01*
X147560575Y-92202127D01*
X147559501Y-92212123D01*
X147559500Y-92212135D01*
X147559500Y-93067870D01*
X147559501Y-93067876D01*
X147565909Y-93127484D01*
X147604766Y-93231668D01*
X147609750Y-93301359D01*
X147604766Y-93318332D01*
X147565909Y-93422514D01*
X147565908Y-93422516D01*
X147559501Y-93482116D01*
X147559501Y-93482123D01*
X147559500Y-93482135D01*
X147559500Y-94337870D01*
X147559501Y-94337876D01*
X147565908Y-94397483D01*
X147616202Y-94532328D01*
X147616206Y-94532335D01*
X147702452Y-94647544D01*
X147702455Y-94647547D01*
X147817664Y-94733793D01*
X147817671Y-94733797D01*
X147952517Y-94784091D01*
X147952516Y-94784091D01*
X147959444Y-94784835D01*
X148012127Y-94790500D01*
X149027374Y-94790499D01*
X149094413Y-94810183D01*
X149140168Y-94862987D01*
X149151374Y-94914493D01*
X149151374Y-94930291D01*
X149151375Y-94930297D01*
X149161319Y-94999455D01*
X149161320Y-94999460D01*
X149161321Y-94999463D01*
X149201853Y-95137501D01*
X149201856Y-95137507D01*
X149279638Y-95258537D01*
X149279646Y-95258548D01*
X149325390Y-95311340D01*
X149325393Y-95311343D01*
X149325397Y-95311347D01*
X149434131Y-95405567D01*
X149434134Y-95405568D01*
X149434135Y-95405569D01*
X149501917Y-95436525D01*
X149565008Y-95465338D01*
X149632047Y-95485023D01*
X149632051Y-95485024D01*
X149774467Y-95505500D01*
X149774470Y-95505500D01*
X152875990Y-95505500D01*
X152876000Y-95505500D01*
X152983456Y-95493947D01*
X153023699Y-95485192D01*
X153093388Y-95490175D01*
X153149323Y-95532045D01*
X153173741Y-95597509D01*
X153158890Y-95665783D01*
X153137738Y-95694039D01*
X152295065Y-96536713D01*
X151972297Y-96859481D01*
X151910974Y-96892966D01*
X151884616Y-96895800D01*
X139016557Y-96895800D01*
X138949518Y-96876115D01*
X138903763Y-96823311D01*
X138893819Y-96754153D01*
X138903763Y-96720288D01*
X138965335Y-96585465D01*
X138965338Y-96585459D01*
X138985023Y-96518420D01*
X138985024Y-96518416D01*
X139005500Y-96376000D01*
X139005500Y-96099500D01*
X139025185Y-96032461D01*
X139077989Y-95986706D01*
X139129500Y-95975500D01*
X139581613Y-95975500D01*
X139581616Y-95975500D01*
X139652196Y-95969086D01*
X139814606Y-95918478D01*
X139960185Y-95830472D01*
X140080472Y-95710185D01*
X140168478Y-95564606D01*
X140219086Y-95402196D01*
X140225500Y-95331616D01*
X140225500Y-95035451D01*
X140245185Y-94968412D01*
X140261815Y-94947774D01*
X140382771Y-94826817D01*
X140444094Y-94793333D01*
X140470452Y-94790499D01*
X141987871Y-94790499D01*
X141987872Y-94790499D01*
X142047483Y-94784091D01*
X142182331Y-94733796D01*
X142297546Y-94647546D01*
X142383796Y-94532331D01*
X142434091Y-94397483D01*
X142440500Y-94337873D01*
X142440499Y-93482128D01*
X142434091Y-93422517D01*
X142395231Y-93318329D01*
X142390248Y-93248642D01*
X142395227Y-93231682D01*
X142434091Y-93127483D01*
X142440500Y-93067873D01*
X142440499Y-92212128D01*
X142434091Y-92152517D01*
X142395231Y-92048329D01*
X142390248Y-91978642D01*
X142395227Y-91961682D01*
X142434091Y-91857483D01*
X142440500Y-91797873D01*
X142440499Y-90942128D01*
X142434091Y-90882517D01*
X142393366Y-90773329D01*
X142388383Y-90703642D01*
X142393361Y-90686683D01*
X142434091Y-90577483D01*
X142440500Y-90517873D01*
X142440499Y-89662128D01*
X142434091Y-89602517D01*
X142431351Y-89595172D01*
X142383797Y-89467671D01*
X142383793Y-89467664D01*
X142297547Y-89352455D01*
X142297544Y-89352452D01*
X142182335Y-89266206D01*
X142182328Y-89266202D01*
X142047482Y-89215908D01*
X142047483Y-89215908D01*
X141987883Y-89209501D01*
X141987881Y-89209500D01*
X141987873Y-89209500D01*
X141987865Y-89209500D01*
X140470452Y-89209500D01*
X140403413Y-89189815D01*
X140382771Y-89173181D01*
X140261819Y-89052229D01*
X140228334Y-88990906D01*
X140225500Y-88964548D01*
X140225500Y-88668386D01*
X140225456Y-88667902D01*
X140219086Y-88597804D01*
X140168478Y-88435394D01*
X140080472Y-88289815D01*
X140080470Y-88289813D01*
X140080469Y-88289811D01*
X139960188Y-88169530D01*
X139814606Y-88081522D01*
X139652196Y-88030914D01*
X139652194Y-88030913D01*
X139652192Y-88030913D01*
X139602778Y-88026423D01*
X139581616Y-88024500D01*
X139068384Y-88024500D01*
X139049145Y-88026248D01*
X138997807Y-88030913D01*
X138997804Y-88030914D01*
X138835394Y-88081522D01*
X138835392Y-88081522D01*
X138835392Y-88081523D01*
X138825518Y-88087492D01*
X138757963Y-88105327D01*
X138691489Y-88083808D01*
X138647203Y-88029767D01*
X138638891Y-87962013D01*
X138641471Y-87945689D01*
X138646005Y-87917008D01*
X138646004Y-87917004D01*
X138646005Y-87917003D01*
X138634684Y-87829622D01*
X138627520Y-87774320D01*
X138608774Y-87707012D01*
X138550839Y-87575312D01*
X138550837Y-87575309D01*
X138458155Y-87465279D01*
X138458138Y-87465261D01*
X138405994Y-87418787D01*
X138405981Y-87418777D01*
X138286048Y-87339310D01*
X129259450Y-83063553D01*
X129259445Y-83063551D01*
X129193316Y-83037741D01*
X129172270Y-83031189D01*
X129160152Y-83027416D01*
X129160149Y-83027415D01*
X129160145Y-83027414D01*
X129091075Y-83011128D01*
X129091071Y-83011127D01*
X129091066Y-83011126D01*
X129084511Y-83010303D01*
X129084878Y-83007380D01*
X129030504Y-82990294D01*
X128985753Y-82936636D01*
X128975499Y-82887265D01*
X128975499Y-82451656D01*
X128965349Y-82352292D01*
X128912003Y-82191303D01*
X128911999Y-82191297D01*
X128911998Y-82191294D01*
X128822970Y-82046959D01*
X128822967Y-82046955D01*
X128703044Y-81927032D01*
X128703040Y-81927029D01*
X128558705Y-81838001D01*
X128558699Y-81837998D01*
X128558697Y-81837997D01*
X128523295Y-81826266D01*
X128397709Y-81784651D01*
X128298352Y-81774500D01*
X128298345Y-81774500D01*
X127985452Y-81774500D01*
X127918413Y-81754815D01*
X127897771Y-81738181D01*
X127826818Y-81667228D01*
X127793333Y-81605905D01*
X127790499Y-81579556D01*
X127790499Y-80012128D01*
X127784091Y-79952517D01*
X127773832Y-79925012D01*
X127733797Y-79817671D01*
X127733793Y-79817664D01*
X127647547Y-79702455D01*
X127647544Y-79702452D01*
X127532335Y-79616206D01*
X127532328Y-79616202D01*
X127397482Y-79565908D01*
X127397483Y-79565908D01*
X127337883Y-79559501D01*
X127337881Y-79559500D01*
X127337873Y-79559500D01*
X127337864Y-79559500D01*
X126482129Y-79559500D01*
X126482123Y-79559501D01*
X126422515Y-79565909D01*
X126318332Y-79604766D01*
X126248641Y-79609750D01*
X126231668Y-79604766D01*
X126127485Y-79565909D01*
X126127483Y-79565908D01*
X126067883Y-79559501D01*
X126067881Y-79559500D01*
X126067873Y-79559500D01*
X126067864Y-79559500D01*
X125212129Y-79559500D01*
X125212123Y-79559501D01*
X125152515Y-79565909D01*
X125048332Y-79604766D01*
X124978641Y-79609750D01*
X124961668Y-79604766D01*
X124857485Y-79565909D01*
X124857483Y-79565908D01*
X124797883Y-79559501D01*
X124797881Y-79559500D01*
X124797873Y-79559500D01*
X124797864Y-79559500D01*
X123942129Y-79559500D01*
X123942123Y-79559501D01*
X123882515Y-79565909D01*
X123773332Y-79606631D01*
X123703641Y-79611615D01*
X123686668Y-79606631D01*
X123577485Y-79565909D01*
X123577483Y-79565908D01*
X123517883Y-79559501D01*
X123517881Y-79559500D01*
X123517873Y-79559500D01*
X123517864Y-79559500D01*
X122662129Y-79559500D01*
X122662123Y-79559501D01*
X122602516Y-79565908D01*
X122467671Y-79616202D01*
X122467664Y-79616206D01*
X122352455Y-79702452D01*
X122352452Y-79702455D01*
X122266206Y-79817664D01*
X122266202Y-79817671D01*
X122215908Y-79952517D01*
X122210261Y-80005047D01*
X122209501Y-80012123D01*
X122209500Y-80012135D01*
X122209500Y-81579546D01*
X122189815Y-81646585D01*
X122173181Y-81667227D01*
X122102227Y-81738181D01*
X122040904Y-81771666D01*
X122014546Y-81774500D01*
X121701663Y-81774500D01*
X121701644Y-81774501D01*
X121602292Y-81784650D01*
X121602289Y-81784651D01*
X121441305Y-81837996D01*
X121441294Y-81838001D01*
X121296959Y-81927029D01*
X121296955Y-81927032D01*
X121177032Y-82046955D01*
X121177029Y-82046959D01*
X121088001Y-82191294D01*
X121087996Y-82191305D01*
X121034651Y-82352290D01*
X121024500Y-82451647D01*
X121024500Y-82893162D01*
X121004815Y-82960201D01*
X120952011Y-83005956D01*
X120922462Y-83015202D01*
X120865120Y-83025521D01*
X120864070Y-83025700D01*
X120727473Y-83071096D01*
X112177830Y-87345917D01*
X112177792Y-87345937D01*
X112138271Y-87367962D01*
X112138245Y-87367977D01*
X112119420Y-87379602D01*
X112119409Y-87379609D01*
X112082048Y-87405057D01*
X111980322Y-87506797D01*
X111980312Y-87506808D01*
X111938447Y-87562743D01*
X111938444Y-87562747D01*
X111869500Y-87689032D01*
X111869500Y-87689033D01*
X111838930Y-87829616D01*
X111838929Y-87829622D01*
X111838929Y-87829623D01*
X111833950Y-87899315D01*
X111833950Y-87899318D01*
X111833950Y-87899322D01*
X111833950Y-87899325D01*
X111844225Y-88042825D01*
X111844737Y-88044197D01*
X111844841Y-88045657D01*
X111846111Y-88051490D01*
X111845272Y-88051672D01*
X111849726Y-88113889D01*
X111816245Y-88175214D01*
X111754923Y-88208703D01*
X111685231Y-88203722D01*
X111640877Y-88175219D01*
X111635188Y-88169530D01*
X111489606Y-88081522D01*
X111327196Y-88030914D01*
X111327194Y-88030913D01*
X111327192Y-88030913D01*
X111277778Y-88026423D01*
X111256616Y-88024500D01*
X110743384Y-88024500D01*
X110724145Y-88026248D01*
X110672807Y-88030913D01*
X110510393Y-88081522D01*
X110364811Y-88169530D01*
X110244530Y-88289811D01*
X110156522Y-88435393D01*
X110105913Y-88597807D01*
X110101798Y-88643100D01*
X110099572Y-88667598D01*
X110099500Y-88668386D01*
X110099500Y-88964547D01*
X110079815Y-89031586D01*
X110063181Y-89052228D01*
X109892820Y-89222588D01*
X109831497Y-89256073D01*
X109761806Y-89251089D01*
X109667482Y-89215908D01*
X109667483Y-89215908D01*
X109607883Y-89209501D01*
X109607881Y-89209500D01*
X109607873Y-89209500D01*
X109607864Y-89209500D01*
X108012129Y-89209500D01*
X108012123Y-89209501D01*
X107952516Y-89215908D01*
X107817671Y-89266202D01*
X107817664Y-89266206D01*
X107702455Y-89352452D01*
X107702452Y-89352455D01*
X107616206Y-89467664D01*
X107616202Y-89467671D01*
X107565908Y-89602517D01*
X107560245Y-89655196D01*
X107559501Y-89662123D01*
X107559500Y-89662135D01*
X107559500Y-90517870D01*
X107559501Y-90517876D01*
X107565909Y-90577484D01*
X107604766Y-90681668D01*
X107609750Y-90751359D01*
X107604766Y-90768332D01*
X107565909Y-90872514D01*
X107565908Y-90872516D01*
X107559501Y-90932116D01*
X107559501Y-90932123D01*
X107559500Y-90932135D01*
X107559500Y-91787870D01*
X107559501Y-91787876D01*
X107565909Y-91847484D01*
X107604766Y-91951668D01*
X107609750Y-92021359D01*
X107604766Y-92038332D01*
X107565909Y-92142514D01*
X107565908Y-92142516D01*
X107560245Y-92195196D01*
X107559501Y-92202123D01*
X107559500Y-92202135D01*
X107559500Y-93057870D01*
X107559501Y-93057876D01*
X107565909Y-93117484D01*
X107606631Y-93226668D01*
X107611615Y-93296359D01*
X107606631Y-93313332D01*
X107565909Y-93422514D01*
X107565908Y-93422516D01*
X107559501Y-93482116D01*
X107559501Y-93482123D01*
X107559500Y-93482135D01*
X107559500Y-94337870D01*
X107559501Y-94337876D01*
X107565908Y-94397483D01*
X107616202Y-94532328D01*
X107616206Y-94532335D01*
X107702452Y-94647544D01*
X107702455Y-94647547D01*
X107817664Y-94733793D01*
X107817671Y-94733797D01*
X107952517Y-94784091D01*
X107952516Y-94784091D01*
X107959444Y-94784835D01*
X108012127Y-94790500D01*
X109607872Y-94790499D01*
X109667483Y-94784091D01*
X109761808Y-94748909D01*
X109831498Y-94743926D01*
X109892821Y-94777411D01*
X110063181Y-94947771D01*
X110096666Y-95009094D01*
X110099500Y-95035452D01*
X110099500Y-95331613D01*
X110105913Y-95402192D01*
X110105913Y-95402194D01*
X110105914Y-95402196D01*
X110156522Y-95564606D01*
X110234767Y-95694039D01*
X110244530Y-95710188D01*
X110364811Y-95830469D01*
X110364813Y-95830470D01*
X110364815Y-95830472D01*
X110510394Y-95918478D01*
X110672804Y-95969086D01*
X110743384Y-95975500D01*
X110743387Y-95975500D01*
X111256613Y-95975500D01*
X111256616Y-95975500D01*
X111327196Y-95969086D01*
X111333608Y-95967087D01*
X111403467Y-95965935D01*
X111462860Y-96002734D01*
X111492930Y-96065802D01*
X111494500Y-96085472D01*
X111494500Y-96376000D01*
X111494501Y-96376009D01*
X111506052Y-96483450D01*
X111506054Y-96483462D01*
X111517260Y-96534972D01*
X111551383Y-96637497D01*
X111551386Y-96637503D01*
X111629171Y-96758537D01*
X111629179Y-96758548D01*
X111674923Y-96811340D01*
X111674926Y-96811343D01*
X111674930Y-96811347D01*
X111783664Y-96905567D01*
X111914541Y-96965338D01*
X111981580Y-96985023D01*
X111981584Y-96985024D01*
X112124000Y-97005500D01*
X135846275Y-97005500D01*
X135913314Y-97025185D01*
X135959069Y-97077989D01*
X135967892Y-97105307D01*
X135976049Y-97146312D01*
X135976049Y-97146314D01*
X135987553Y-97204149D01*
X135987556Y-97204161D01*
X136039642Y-97329909D01*
X136039644Y-97329912D01*
X136115263Y-97443085D01*
X136115269Y-97443092D01*
X136699466Y-98027287D01*
X136795713Y-98123534D01*
X136795714Y-98123535D01*
X136908882Y-98199152D01*
X136908895Y-98199159D01*
X137034638Y-98251243D01*
X137034643Y-98251245D01*
X137034647Y-98251245D01*
X137034648Y-98251246D01*
X137168139Y-98277800D01*
X137168142Y-98277800D01*
X152290260Y-98277800D01*
X152380070Y-98259934D01*
X152423757Y-98251245D01*
X152549511Y-98199156D01*
X152662687Y-98123535D01*
X153262080Y-97524139D01*
X153262085Y-97524136D01*
X153272285Y-97513935D01*
X153272287Y-97513935D01*
X155451335Y-95334887D01*
X155526956Y-95221711D01*
X155529183Y-95216336D01*
X155561837Y-95137501D01*
X155579045Y-95095957D01*
X155591080Y-95035452D01*
X155605600Y-94962459D01*
X155605600Y-87805047D01*
X155625285Y-87738008D01*
X155641919Y-87717366D01*
X156572966Y-86786319D01*
X156634289Y-86752834D01*
X156660647Y-86750000D01*
X156968185Y-86750000D01*
X157031305Y-86767267D01*
X157089602Y-86801744D01*
X157131224Y-86813836D01*
X157247426Y-86847597D01*
X157247429Y-86847597D01*
X157247431Y-86847598D01*
X157284306Y-86850500D01*
X157284314Y-86850500D01*
X158440686Y-86850500D01*
X158440694Y-86850500D01*
X158477569Y-86847598D01*
X158477571Y-86847597D01*
X158477573Y-86847597D01*
X158519191Y-86835505D01*
X158635398Y-86801744D01*
X158693694Y-86767268D01*
X158756815Y-86750000D01*
X159022294Y-86750000D01*
X159046557Y-86723752D01*
X159106518Y-86687885D01*
X159176352Y-86690129D01*
X159216012Y-86714530D01*
X159216969Y-86713298D01*
X159223132Y-86718078D01*
X159223135Y-86718081D01*
X159364602Y-86801744D01*
X159406224Y-86813836D01*
X159522426Y-86847597D01*
X159522429Y-86847597D01*
X159522431Y-86847598D01*
X159559306Y-86850500D01*
X159559314Y-86850500D01*
X160715686Y-86850500D01*
X160715694Y-86850500D01*
X160752569Y-86847598D01*
X160752571Y-86847597D01*
X160752573Y-86847597D01*
X160794191Y-86835505D01*
X160910398Y-86801744D01*
X161051865Y-86718081D01*
X161168081Y-86601865D01*
X161251744Y-86460398D01*
X161295671Y-86309203D01*
X161297597Y-86302573D01*
X161297598Y-86302567D01*
X161300499Y-86265701D01*
X161300500Y-86265694D01*
X161300500Y-85834306D01*
X161297598Y-85797431D01*
X161251744Y-85639602D01*
X161168081Y-85498135D01*
X161168079Y-85498133D01*
X161168076Y-85498129D01*
X161051870Y-85381923D01*
X161051862Y-85381917D01*
X160961377Y-85328405D01*
X160910398Y-85298256D01*
X160910397Y-85298255D01*
X160910396Y-85298255D01*
X160910393Y-85298254D01*
X160752573Y-85252402D01*
X160752558Y-85252400D01*
X160739767Y-85251393D01*
X160674479Y-85226507D01*
X160633010Y-85170275D01*
X160625500Y-85127776D01*
X160625500Y-84653043D01*
X160643962Y-84587945D01*
X160651826Y-84575196D01*
X160662003Y-84558697D01*
X160715349Y-84397708D01*
X160725500Y-84298345D01*
X160725499Y-83701656D01*
X160715349Y-83602292D01*
X160662003Y-83441303D01*
X160661999Y-83441297D01*
X160661998Y-83441294D01*
X160572970Y-83296959D01*
X160572969Y-83296958D01*
X160572968Y-83296956D01*
X160453044Y-83177032D01*
X160453043Y-83177031D01*
X160453041Y-83177029D01*
X160447590Y-83172719D01*
X160407213Y-83115697D01*
X160400500Y-83075452D01*
X160400500Y-82535451D01*
X160420185Y-82468412D01*
X160436814Y-82447775D01*
X161965849Y-80918739D01*
X162006071Y-80891863D01*
X162077311Y-80862356D01*
X162190487Y-80786734D01*
X162286734Y-80690487D01*
X162305487Y-80662420D01*
X162334615Y-80618828D01*
X162368825Y-80584616D01*
X162440487Y-80536735D01*
X162556135Y-80421086D01*
X162562733Y-80411210D01*
X162616345Y-80366405D01*
X162665836Y-80356100D01*
X162938394Y-80356100D01*
X164739173Y-80356100D01*
X164806212Y-80375785D01*
X164840748Y-80408977D01*
X164975901Y-80601996D01*
X164975906Y-80602002D01*
X165142997Y-80769093D01*
X165143003Y-80769098D01*
X165328558Y-80899025D01*
X165372183Y-80953602D01*
X165379377Y-81023100D01*
X165347854Y-81085455D01*
X165328558Y-81102175D01*
X165142997Y-81232105D01*
X164975905Y-81399197D01*
X164840365Y-81592769D01*
X164840364Y-81592771D01*
X164740498Y-81806935D01*
X164740494Y-81806944D01*
X164679338Y-82035186D01*
X164679336Y-82035196D01*
X164658741Y-82270599D01*
X164658741Y-82270600D01*
X164679336Y-82506003D01*
X164679338Y-82506013D01*
X164740494Y-82734255D01*
X164740496Y-82734259D01*
X164740497Y-82734263D01*
X164744400Y-82742632D01*
X164840365Y-82948430D01*
X164840367Y-82948434D01*
X164938413Y-83088457D01*
X164975905Y-83142001D01*
X165142999Y-83309095D01*
X165258130Y-83389711D01*
X165328994Y-83439330D01*
X165372619Y-83493907D01*
X165379813Y-83563405D01*
X165348290Y-83625760D01*
X165328995Y-83642480D01*
X165143322Y-83772490D01*
X165143320Y-83772491D01*
X164976291Y-83939520D01*
X164976286Y-83939526D01*
X164840800Y-84133020D01*
X164840799Y-84133022D01*
X164740970Y-84347107D01*
X164740967Y-84347113D01*
X164683764Y-84560599D01*
X164683764Y-84560600D01*
X165581388Y-84560600D01*
X165548475Y-84617607D01*
X165514400Y-84744774D01*
X165514400Y-84876426D01*
X165548475Y-85003593D01*
X165581388Y-85060600D01*
X164683764Y-85060600D01*
X164740967Y-85274086D01*
X164740970Y-85274092D01*
X164840799Y-85488178D01*
X164976294Y-85681682D01*
X165143317Y-85848705D01*
X165328995Y-85978719D01*
X165372619Y-86033296D01*
X165379812Y-86102795D01*
X165348290Y-86165149D01*
X165328995Y-86181869D01*
X165142994Y-86312108D01*
X164975905Y-86479197D01*
X164840365Y-86672769D01*
X164840364Y-86672771D01*
X164740498Y-86886935D01*
X164740494Y-86886944D01*
X164679338Y-87115186D01*
X164679336Y-87115196D01*
X164658741Y-87350599D01*
X164658741Y-87350600D01*
X164679336Y-87586003D01*
X164679338Y-87586013D01*
X164716007Y-87722865D01*
X164714344Y-87792715D01*
X164675181Y-87850577D01*
X164610952Y-87878081D01*
X164572043Y-87876576D01*
X164561606Y-87874500D01*
X164561605Y-87874500D01*
X162410453Y-87874500D01*
X162343414Y-87854815D01*
X162322772Y-87838181D01*
X162042928Y-87558338D01*
X162042925Y-87558334D01*
X162042925Y-87558335D01*
X162035858Y-87551268D01*
X162035858Y-87551267D01*
X161948733Y-87464142D01*
X161948732Y-87464141D01*
X161948731Y-87464140D01*
X161897509Y-87429915D01*
X161879225Y-87417698D01*
X161846286Y-87395688D01*
X161846283Y-87395686D01*
X161846280Y-87395685D01*
X161765792Y-87362347D01*
X161732453Y-87348537D01*
X161719280Y-87345917D01*
X161672029Y-87336518D01*
X161611610Y-87324500D01*
X161611607Y-87324500D01*
X161611606Y-87324500D01*
X161145809Y-87324500D01*
X161078770Y-87304815D01*
X161058128Y-87288181D01*
X161051870Y-87281923D01*
X161051862Y-87281917D01*
X160910396Y-87198255D01*
X160910393Y-87198254D01*
X160752573Y-87152402D01*
X160752567Y-87152401D01*
X160715701Y-87149500D01*
X160715694Y-87149500D01*
X159559306Y-87149500D01*
X159559298Y-87149500D01*
X159522432Y-87152401D01*
X159522426Y-87152402D01*
X159364606Y-87198254D01*
X159364603Y-87198255D01*
X159223137Y-87281917D01*
X159216969Y-87286702D01*
X159215664Y-87285019D01*
X159163954Y-87313246D01*
X159094263Y-87308251D01*
X159046558Y-87276247D01*
X159022296Y-87250000D01*
X158756815Y-87250000D01*
X158693694Y-87232732D01*
X158635396Y-87198255D01*
X158635393Y-87198254D01*
X158477573Y-87152402D01*
X158477567Y-87152401D01*
X158440701Y-87149500D01*
X158440694Y-87149500D01*
X157284306Y-87149500D01*
X157284298Y-87149500D01*
X157247432Y-87152401D01*
X157247426Y-87152402D01*
X157089606Y-87198254D01*
X157089603Y-87198255D01*
X157031306Y-87232732D01*
X156968185Y-87250000D01*
X156702705Y-87250000D01*
X156702704Y-87250001D01*
X156702899Y-87252488D01*
X156702900Y-87252494D01*
X156748716Y-87410193D01*
X156748720Y-87410203D01*
X156749427Y-87411398D01*
X156749695Y-87412454D01*
X156751816Y-87417356D01*
X156751024Y-87417698D01*
X156766603Y-87479123D01*
X156750993Y-87532284D01*
X156751355Y-87532441D01*
X156750087Y-87535369D01*
X156749427Y-87537620D01*
X156748259Y-87539594D01*
X156748254Y-87539607D01*
X156702402Y-87697426D01*
X156702401Y-87697432D01*
X156699500Y-87734298D01*
X156699500Y-88165701D01*
X156702401Y-88202567D01*
X156702402Y-88202573D01*
X156748254Y-88360393D01*
X156748255Y-88360396D01*
X156831917Y-88501862D01*
X156831923Y-88501870D01*
X156948129Y-88618076D01*
X156948133Y-88618079D01*
X156948135Y-88618081D01*
X157089602Y-88701744D01*
X157103425Y-88705760D01*
X157247426Y-88747597D01*
X157247429Y-88747597D01*
X157247431Y-88747598D01*
X157284306Y-88750500D01*
X157284314Y-88750500D01*
X158440686Y-88750500D01*
X158440694Y-88750500D01*
X158477569Y-88747598D01*
X158477571Y-88747597D01*
X158477573Y-88747597D01*
X158519191Y-88735505D01*
X158635398Y-88701744D01*
X158776865Y-88618081D01*
X158776870Y-88618076D01*
X158783128Y-88611819D01*
X158844451Y-88578334D01*
X158870809Y-88575500D01*
X159129191Y-88575500D01*
X159196230Y-88595185D01*
X159216872Y-88611819D01*
X159223129Y-88618076D01*
X159223133Y-88618079D01*
X159223135Y-88618081D01*
X159364602Y-88701744D01*
X159378425Y-88705760D01*
X159522426Y-88747597D01*
X159522429Y-88747597D01*
X159522431Y-88747598D01*
X159559306Y-88750500D01*
X159559314Y-88750500D01*
X160715686Y-88750500D01*
X160715694Y-88750500D01*
X160752569Y-88747598D01*
X160752571Y-88747597D01*
X160752573Y-88747597D01*
X160794191Y-88735505D01*
X160910398Y-88701744D01*
X161051865Y-88618081D01*
X161051870Y-88618076D01*
X161058128Y-88611819D01*
X161119451Y-88578334D01*
X161145809Y-88575500D01*
X161239548Y-88575500D01*
X161306587Y-88595185D01*
X161327228Y-88611818D01*
X161614141Y-88898732D01*
X161614142Y-88898733D01*
X161679956Y-88964547D01*
X161701268Y-88985859D01*
X161769452Y-89031418D01*
X161769451Y-89031418D01*
X161803712Y-89054310D01*
X161803713Y-89054310D01*
X161803714Y-89054311D01*
X161917548Y-89101463D01*
X162038388Y-89125499D01*
X162038392Y-89125500D01*
X162038393Y-89125500D01*
X164561607Y-89125500D01*
X164561608Y-89125499D01*
X164674347Y-89103075D01*
X164743938Y-89109302D01*
X164799116Y-89152165D01*
X164822360Y-89218055D01*
X164810920Y-89277096D01*
X164740971Y-89427102D01*
X164740967Y-89427113D01*
X164683764Y-89640599D01*
X164683764Y-89640600D01*
X165581388Y-89640600D01*
X165548475Y-89697607D01*
X165514400Y-89824774D01*
X165514400Y-89956426D01*
X165548475Y-90083593D01*
X165581388Y-90140600D01*
X164683764Y-90140600D01*
X164740967Y-90354086D01*
X164740970Y-90354092D01*
X164840799Y-90568178D01*
X164976294Y-90761682D01*
X165143317Y-90928705D01*
X165328995Y-91058719D01*
X165372619Y-91113296D01*
X165379812Y-91182795D01*
X165348290Y-91245149D01*
X165328995Y-91261869D01*
X165142994Y-91392108D01*
X164975905Y-91559197D01*
X164840365Y-91752769D01*
X164840364Y-91752771D01*
X164740498Y-91966935D01*
X164740494Y-91966944D01*
X164679338Y-92195186D01*
X164679336Y-92195196D01*
X164658741Y-92430599D01*
X164658741Y-92430600D01*
X164679336Y-92666003D01*
X164679338Y-92666013D01*
X164740494Y-92894255D01*
X164740496Y-92894259D01*
X164740497Y-92894263D01*
X164821453Y-93067873D01*
X164840365Y-93108430D01*
X164840367Y-93108434D01*
X164938543Y-93248642D01*
X164975901Y-93301996D01*
X164975906Y-93302002D01*
X165142997Y-93469093D01*
X165143003Y-93469098D01*
X165161612Y-93482128D01*
X165323055Y-93595172D01*
X165328994Y-93599330D01*
X165372619Y-93653907D01*
X165379813Y-93723405D01*
X165348290Y-93785760D01*
X165328995Y-93802480D01*
X165143322Y-93932490D01*
X165143320Y-93932491D01*
X164976291Y-94099520D01*
X164976286Y-94099526D01*
X164840800Y-94293020D01*
X164840799Y-94293022D01*
X164740970Y-94507107D01*
X164740967Y-94507113D01*
X164683764Y-94720599D01*
X164683764Y-94720600D01*
X165581388Y-94720600D01*
X165548475Y-94777607D01*
X165514400Y-94904774D01*
X165514400Y-95036426D01*
X165548475Y-95163593D01*
X165581388Y-95220600D01*
X164683764Y-95220600D01*
X164740967Y-95434086D01*
X164740970Y-95434092D01*
X164840799Y-95648178D01*
X164976294Y-95841682D01*
X165143317Y-96008705D01*
X165336821Y-96144200D01*
X165550907Y-96244029D01*
X165550916Y-96244033D01*
X165764400Y-96301234D01*
X165764400Y-95403612D01*
X165821407Y-95436525D01*
X165948574Y-95470600D01*
X166080226Y-95470600D01*
X166207393Y-95436525D01*
X166264400Y-95403612D01*
X166264400Y-96301233D01*
X166477883Y-96244033D01*
X166477892Y-96244029D01*
X166691978Y-96144200D01*
X166885482Y-96008705D01*
X167052505Y-95841682D01*
X167182825Y-95655568D01*
X167237402Y-95611944D01*
X167306901Y-95604751D01*
X167369255Y-95636273D01*
X167385975Y-95655568D01*
X167516294Y-95841682D01*
X167683317Y-96008705D01*
X167876821Y-96144200D01*
X168090907Y-96244029D01*
X168090916Y-96244033D01*
X168304400Y-96301234D01*
X168304400Y-95403612D01*
X168361407Y-95436525D01*
X168488574Y-95470600D01*
X168620226Y-95470600D01*
X168747393Y-95436525D01*
X168804400Y-95403612D01*
X168804400Y-96301233D01*
X169017883Y-96244033D01*
X169017892Y-96244029D01*
X169231978Y-96144200D01*
X169425482Y-96008705D01*
X169592505Y-95841682D01*
X169728000Y-95648178D01*
X169827829Y-95434092D01*
X169827832Y-95434086D01*
X169885036Y-95220600D01*
X168987412Y-95220600D01*
X169020325Y-95163593D01*
X169054400Y-95036426D01*
X169054400Y-94904774D01*
X169020325Y-94777607D01*
X168987412Y-94720600D01*
X169885036Y-94720600D01*
X169885035Y-94720599D01*
X169827832Y-94507113D01*
X169827829Y-94507107D01*
X169728000Y-94293022D01*
X169727999Y-94293020D01*
X169592513Y-94099526D01*
X169592508Y-94099520D01*
X169425478Y-93932490D01*
X169239805Y-93802479D01*
X169196180Y-93747902D01*
X169188988Y-93678404D01*
X169220510Y-93616049D01*
X169239806Y-93599330D01*
X169240242Y-93599025D01*
X169425801Y-93469095D01*
X169592895Y-93302001D01*
X169728435Y-93108430D01*
X169828303Y-92894263D01*
X169889463Y-92666008D01*
X169910059Y-92430600D01*
X169889463Y-92195192D01*
X169831439Y-91978642D01*
X169828305Y-91966944D01*
X169828304Y-91966943D01*
X169828303Y-91966937D01*
X169728435Y-91752771D01*
X169726043Y-91749354D01*
X169592894Y-91559197D01*
X169425802Y-91392106D01*
X169425801Y-91392105D01*
X169239805Y-91261869D01*
X169196181Y-91207292D01*
X169188988Y-91137793D01*
X169220510Y-91075439D01*
X169239805Y-91058719D01*
X169425482Y-90928705D01*
X169592505Y-90761682D01*
X169728000Y-90568178D01*
X169827829Y-90354092D01*
X169827832Y-90354086D01*
X169885036Y-90140600D01*
X168987412Y-90140600D01*
X169020325Y-90083593D01*
X169054400Y-89956426D01*
X169054400Y-89824774D01*
X169020325Y-89697607D01*
X168987412Y-89640600D01*
X169885036Y-89640600D01*
X169885035Y-89640599D01*
X169827832Y-89427113D01*
X169827829Y-89427107D01*
X169728000Y-89213022D01*
X169727999Y-89213020D01*
X169592513Y-89019526D01*
X169592508Y-89019520D01*
X169425478Y-88852490D01*
X169239805Y-88722479D01*
X169196180Y-88667902D01*
X169188988Y-88598404D01*
X169220510Y-88536049D01*
X169239806Y-88519330D01*
X169240242Y-88519025D01*
X169425801Y-88389095D01*
X169592895Y-88222001D01*
X169728435Y-88028430D01*
X169828303Y-87814263D01*
X169889463Y-87586008D01*
X169910059Y-87350600D01*
X169907775Y-87324500D01*
X169904598Y-87288181D01*
X169889463Y-87115192D01*
X169828303Y-86886937D01*
X169728435Y-86672771D01*
X169722825Y-86664758D01*
X169592894Y-86479197D01*
X169425802Y-86312106D01*
X169425801Y-86312105D01*
X169239805Y-86181869D01*
X169196181Y-86127292D01*
X169188988Y-86057793D01*
X169220510Y-85995439D01*
X169239805Y-85978719D01*
X169425482Y-85848705D01*
X169592505Y-85681682D01*
X169728000Y-85488178D01*
X169827829Y-85274092D01*
X169827832Y-85274086D01*
X169885036Y-85060600D01*
X168987412Y-85060600D01*
X169020325Y-85003593D01*
X169054400Y-84876426D01*
X169054400Y-84744774D01*
X169020325Y-84617607D01*
X168987412Y-84560600D01*
X169885036Y-84560600D01*
X169885035Y-84560599D01*
X169827832Y-84347113D01*
X169827829Y-84347107D01*
X169728000Y-84133022D01*
X169727999Y-84133020D01*
X169592513Y-83939526D01*
X169592508Y-83939520D01*
X169425478Y-83772490D01*
X169239805Y-83642479D01*
X169196180Y-83587902D01*
X169188988Y-83518404D01*
X169220510Y-83456049D01*
X169239806Y-83439330D01*
X169240242Y-83439025D01*
X169425801Y-83309095D01*
X169592895Y-83142001D01*
X169728435Y-82948430D01*
X169828303Y-82734263D01*
X169889463Y-82506008D01*
X169910059Y-82270600D01*
X169889463Y-82035192D01*
X169843026Y-81861885D01*
X169828305Y-81806944D01*
X169828304Y-81806943D01*
X169828303Y-81806937D01*
X169728435Y-81592771D01*
X169722825Y-81584758D01*
X169592894Y-81399197D01*
X169425802Y-81232106D01*
X169425796Y-81232101D01*
X169240242Y-81102175D01*
X169196617Y-81047598D01*
X169189423Y-80978100D01*
X169220946Y-80915745D01*
X169240242Y-80899025D01*
X169267474Y-80879957D01*
X169425801Y-80769095D01*
X169592895Y-80602001D01*
X169728435Y-80408430D01*
X169828303Y-80194263D01*
X169889463Y-79966008D01*
X169910059Y-79730600D01*
X169907596Y-79702454D01*
X169901045Y-79627569D01*
X169889463Y-79495192D01*
X169828303Y-79266937D01*
X169728435Y-79052771D01*
X169728051Y-79052223D01*
X169592896Y-78859200D01*
X169592893Y-78859197D01*
X169470967Y-78737271D01*
X169437484Y-78675951D01*
X169442468Y-78606259D01*
X169484339Y-78550325D01*
X169515315Y-78533410D01*
X169646731Y-78484396D01*
X169761946Y-78398146D01*
X169848196Y-78282931D01*
X169898491Y-78148083D01*
X169904900Y-78088473D01*
X169904899Y-76292728D01*
X169898491Y-76233117D01*
X169897210Y-76229683D01*
X169848197Y-76098271D01*
X169848193Y-76098264D01*
X169761947Y-75983055D01*
X169761944Y-75983052D01*
X169646735Y-75896806D01*
X169646728Y-75896802D01*
X169511882Y-75846508D01*
X169511883Y-75846508D01*
X169452283Y-75840101D01*
X169452281Y-75840100D01*
X169452273Y-75840100D01*
X169452264Y-75840100D01*
X167656529Y-75840100D01*
X167656523Y-75840101D01*
X167596916Y-75846508D01*
X167462071Y-75896802D01*
X167462064Y-75896806D01*
X167346855Y-75983052D01*
X167346852Y-75983055D01*
X167260606Y-76098264D01*
X167260603Y-76098269D01*
X167211589Y-76229683D01*
X167169717Y-76285616D01*
X167104253Y-76310033D01*
X167035980Y-76295181D01*
X167007726Y-76274030D01*
X166885802Y-76152106D01*
X166885795Y-76152101D01*
X166881656Y-76149203D01*
X166816073Y-76103281D01*
X166692234Y-76016567D01*
X166692230Y-76016565D01*
X166678848Y-76010325D01*
X166478063Y-75916697D01*
X166478059Y-75916696D01*
X166478055Y-75916694D01*
X166249813Y-75855538D01*
X166249803Y-75855536D01*
X166014401Y-75834941D01*
X166014399Y-75834941D01*
X165778996Y-75855536D01*
X165778986Y-75855538D01*
X165550744Y-75916694D01*
X165550737Y-75916696D01*
X165550737Y-75916697D01*
X165544316Y-75919691D01*
X165336571Y-76016564D01*
X165336569Y-76016565D01*
X165142997Y-76152105D01*
X164975905Y-76319197D01*
X164840365Y-76512769D01*
X164840364Y-76512771D01*
X164740498Y-76726935D01*
X164740494Y-76726944D01*
X164679338Y-76955186D01*
X164679336Y-76955196D01*
X164658741Y-77190599D01*
X164658741Y-77190600D01*
X164679336Y-77426003D01*
X164679338Y-77426013D01*
X164740494Y-77654255D01*
X164740496Y-77654259D01*
X164740497Y-77654263D01*
X164811211Y-77805909D01*
X164840365Y-77868430D01*
X164840367Y-77868434D01*
X164948681Y-78023121D01*
X164975901Y-78061996D01*
X164975906Y-78062002D01*
X165142997Y-78229093D01*
X165143003Y-78229098D01*
X165328558Y-78359025D01*
X165372183Y-78413602D01*
X165379377Y-78483100D01*
X165347854Y-78545455D01*
X165328558Y-78562175D01*
X165142997Y-78692105D01*
X164975905Y-78859197D01*
X164840748Y-79052223D01*
X164786171Y-79095848D01*
X164739173Y-79105100D01*
X162672484Y-79105100D01*
X162605445Y-79085415D01*
X162584807Y-79068785D01*
X162459887Y-78943865D01*
X162459886Y-78943864D01*
X162455556Y-78939534D01*
X162455545Y-78939524D01*
X162208127Y-78692106D01*
X161959887Y-78443865D01*
X161384452Y-77868430D01*
X160804292Y-77288269D01*
X160804285Y-77288263D01*
X160691112Y-77212644D01*
X160691109Y-77212642D01*
X160565361Y-77160556D01*
X160565351Y-77160553D01*
X160431860Y-77134000D01*
X160431858Y-77134000D01*
X156326020Y-77134000D01*
X156258981Y-77114315D01*
X156238343Y-77097686D01*
X156236349Y-77095692D01*
X156228340Y-77087683D01*
X156194854Y-77026364D01*
X156199835Y-76956672D01*
X156228336Y-76912320D01*
X156330472Y-76810185D01*
X156418478Y-76664606D01*
X156469086Y-76502196D01*
X156475500Y-76431616D01*
X156475500Y-75918384D01*
X156469086Y-75847804D01*
X156418478Y-75685394D01*
X156330472Y-75539815D01*
X156330470Y-75539813D01*
X156330469Y-75539811D01*
X156227319Y-75436661D01*
X156193834Y-75375338D01*
X156191000Y-75348980D01*
X156191000Y-73431939D01*
X156164446Y-73298448D01*
X156164445Y-73298447D01*
X156164445Y-73298443D01*
X156164443Y-73298438D01*
X156112359Y-73172695D01*
X156112352Y-73172682D01*
X156036735Y-73059514D01*
X156036734Y-73059513D01*
X155940487Y-72963266D01*
X154631181Y-71653960D01*
X150440492Y-67463269D01*
X150440485Y-67463263D01*
X150327312Y-67387644D01*
X150327309Y-67387642D01*
X150201561Y-67335556D01*
X150201551Y-67335553D01*
X150068060Y-67309000D01*
X150068058Y-67309000D01*
X93653742Y-67309000D01*
X93653740Y-67309000D01*
X93520248Y-67335553D01*
X93520238Y-67335556D01*
X93394490Y-67387642D01*
X93394487Y-67387644D01*
X93281314Y-67463263D01*
X93281307Y-67463269D01*
X85393976Y-75350600D01*
X85347251Y-75379960D01*
X85223076Y-75423411D01*
X85223075Y-75423412D01*
X85070337Y-75519384D01*
X84942784Y-75646937D01*
X84846811Y-75799676D01*
X84787231Y-75969945D01*
X84787230Y-75969950D01*
X84767035Y-76149196D01*
X82904716Y-76149196D01*
X82897484Y-76135951D01*
X82902468Y-76066259D01*
X82944339Y-76010325D01*
X82975315Y-75993410D01*
X83106731Y-75944396D01*
X83221946Y-75858146D01*
X83308196Y-75742931D01*
X83358491Y-75608083D01*
X83364900Y-75548473D01*
X83364899Y-73752728D01*
X83358491Y-73693117D01*
X83357210Y-73689683D01*
X83308197Y-73558271D01*
X83308193Y-73558264D01*
X83221947Y-73443055D01*
X83221944Y-73443052D01*
X83106735Y-73356806D01*
X83106728Y-73356802D01*
X82971882Y-73306508D01*
X82971883Y-73306508D01*
X82912283Y-73300101D01*
X82912281Y-73300100D01*
X82912273Y-73300100D01*
X82912264Y-73300100D01*
X81116529Y-73300100D01*
X81116523Y-73300101D01*
X81056916Y-73306508D01*
X80922071Y-73356802D01*
X80922064Y-73356806D01*
X80806855Y-73443052D01*
X80806852Y-73443055D01*
X80720606Y-73558264D01*
X80720603Y-73558269D01*
X80671589Y-73689683D01*
X80629717Y-73745616D01*
X80564253Y-73770033D01*
X80495980Y-73755181D01*
X80467726Y-73734030D01*
X80345802Y-73612106D01*
X80345795Y-73612101D01*
X80152234Y-73476567D01*
X80152230Y-73476565D01*
X80152228Y-73476564D01*
X79938063Y-73376697D01*
X79938059Y-73376696D01*
X79938055Y-73376694D01*
X79709813Y-73315538D01*
X79709803Y-73315536D01*
X79474401Y-73294941D01*
X79474399Y-73294941D01*
X79238996Y-73315536D01*
X79238986Y-73315538D01*
X79010744Y-73376694D01*
X79010735Y-73376698D01*
X78796571Y-73476564D01*
X78796569Y-73476565D01*
X78602997Y-73612105D01*
X78435905Y-73779197D01*
X78300365Y-73972769D01*
X78300364Y-73972771D01*
X78200498Y-74186935D01*
X78200494Y-74186944D01*
X78139338Y-74415186D01*
X78139336Y-74415196D01*
X78118741Y-74650599D01*
X74014400Y-74650599D01*
X74014400Y-64081146D01*
X74014402Y-64080598D01*
X79761882Y-64080598D01*
X79761882Y-64080600D01*
X79781979Y-64380827D01*
X79781981Y-64380837D01*
X79841916Y-64675707D01*
X79940620Y-64959960D01*
X79940622Y-64959963D01*
X80076326Y-65228515D01*
X80076329Y-65228520D01*
X80076330Y-65228521D01*
X80246625Y-65476598D01*
X80448467Y-65699763D01*
X80678252Y-65894035D01*
X80931881Y-66055945D01*
X81204828Y-66182606D01*
X81492221Y-66271756D01*
X81788933Y-66321805D01*
X82089668Y-66331860D01*
X82389060Y-66301741D01*
X82681766Y-66231986D01*
X82962563Y-66123839D01*
X83226440Y-65979230D01*
X83468688Y-65800740D01*
X83684985Y-65591555D01*
X83871469Y-65355406D01*
X84024815Y-65096508D01*
X84142284Y-64819482D01*
X84221781Y-64529270D01*
X84261888Y-64231052D01*
X84264400Y-64080600D01*
X84264400Y-64080598D01*
X163761882Y-64080598D01*
X163761882Y-64080600D01*
X163781979Y-64380827D01*
X163781981Y-64380837D01*
X163841916Y-64675707D01*
X163940620Y-64959960D01*
X163940622Y-64959963D01*
X164076326Y-65228515D01*
X164076329Y-65228520D01*
X164076330Y-65228521D01*
X164246625Y-65476598D01*
X164448467Y-65699763D01*
X164678252Y-65894035D01*
X164931881Y-66055945D01*
X165204828Y-66182606D01*
X165492221Y-66271756D01*
X165788933Y-66321805D01*
X166089668Y-66331860D01*
X166389060Y-66301741D01*
X166681766Y-66231986D01*
X166962563Y-66123839D01*
X167226440Y-65979230D01*
X167468688Y-65800740D01*
X167684985Y-65591555D01*
X167871469Y-65355406D01*
X168024815Y-65096508D01*
X168142284Y-64819482D01*
X168221781Y-64529270D01*
X168261888Y-64231052D01*
X168264400Y-64080600D01*
X168261888Y-63930148D01*
X168221781Y-63631930D01*
X168142284Y-63341718D01*
X168024815Y-63064692D01*
X167946626Y-62932684D01*
X167871469Y-62805793D01*
X167684984Y-62569644D01*
X167468695Y-62360467D01*
X167468688Y-62360460D01*
X167226440Y-62181970D01*
X167087532Y-62105846D01*
X166962571Y-62037365D01*
X166962566Y-62037362D01*
X166962563Y-62037361D01*
X166962559Y-62037359D01*
X166962556Y-62037358D01*
X166681770Y-61929215D01*
X166681766Y-61929214D01*
X166389060Y-61859459D01*
X166389057Y-61859458D01*
X166089672Y-61829340D01*
X166089668Y-61829340D01*
X165788933Y-61839395D01*
X165492220Y-61889444D01*
X165364014Y-61929214D01*
X165204828Y-61978594D01*
X165204821Y-61978597D01*
X165204819Y-61978598D01*
X164931883Y-62105253D01*
X164931881Y-62105255D01*
X164678255Y-62267162D01*
X164448468Y-62461435D01*
X164246627Y-62684599D01*
X164246626Y-62684600D01*
X164076326Y-62932684D01*
X163940622Y-63201236D01*
X163940620Y-63201239D01*
X163841916Y-63485492D01*
X163781981Y-63780362D01*
X163781979Y-63780372D01*
X163761882Y-64080598D01*
X84264400Y-64080598D01*
X84261888Y-63930148D01*
X84221781Y-63631930D01*
X84142284Y-63341718D01*
X84024815Y-63064692D01*
X83946626Y-62932684D01*
X83871469Y-62805793D01*
X83684984Y-62569644D01*
X83468695Y-62360467D01*
X83468688Y-62360460D01*
X83226440Y-62181970D01*
X83087532Y-62105846D01*
X82962571Y-62037365D01*
X82962566Y-62037362D01*
X82962563Y-62037361D01*
X82962559Y-62037359D01*
X82962556Y-62037358D01*
X82681770Y-61929215D01*
X82681766Y-61929214D01*
X82389060Y-61859459D01*
X82389057Y-61859458D01*
X82089672Y-61829340D01*
X82089668Y-61829340D01*
X81788933Y-61839395D01*
X81492220Y-61889444D01*
X81364014Y-61929214D01*
X81204828Y-61978594D01*
X81204821Y-61978597D01*
X81204819Y-61978598D01*
X80931883Y-62105253D01*
X80931881Y-62105255D01*
X80678255Y-62267162D01*
X80448468Y-62461435D01*
X80246627Y-62684599D01*
X80246626Y-62684600D01*
X80076326Y-62932684D01*
X79940622Y-63201236D01*
X79940620Y-63201239D01*
X79841916Y-63485492D01*
X79781981Y-63780362D01*
X79781979Y-63780372D01*
X79761882Y-64080598D01*
X74014402Y-64080598D01*
X74014405Y-64080040D01*
X74014419Y-64078381D01*
X74016914Y-63798831D01*
X74017225Y-63791105D01*
X74017993Y-63780369D01*
X74057387Y-63229561D01*
X74058328Y-63220809D01*
X74138372Y-62664085D01*
X74139939Y-62655404D01*
X74259489Y-62105838D01*
X74261677Y-62097269D01*
X74420133Y-61557620D01*
X74422909Y-61549277D01*
X74619472Y-61022271D01*
X74622833Y-61014158D01*
X74856487Y-60502526D01*
X74860427Y-60494655D01*
X75129978Y-60001010D01*
X75134491Y-59993406D01*
X75438538Y-59520300D01*
X75443586Y-59513029D01*
X75780628Y-59062793D01*
X75786167Y-59055917D01*
X76154494Y-58630845D01*
X76160500Y-58624395D01*
X76558195Y-58226700D01*
X76564645Y-58220694D01*
X76989717Y-57852367D01*
X76996593Y-57846828D01*
X77446829Y-57509786D01*
X77454100Y-57504738D01*
X77927214Y-57200686D01*
X77934810Y-57196178D01*
X78428455Y-56926627D01*
X78436326Y-56922687D01*
X78947958Y-56689033D01*
X78956071Y-56685672D01*
X79483077Y-56489109D01*
X79491420Y-56486333D01*
X80031077Y-56327874D01*
X80039638Y-56325689D01*
X80589204Y-56206139D01*
X80597885Y-56204572D01*
X81154609Y-56124528D01*
X81163361Y-56123587D01*
X81724918Y-56083424D01*
X81732631Y-56083114D01*
X82006386Y-56080671D01*
X82013841Y-56080605D01*
X82014947Y-56080600D01*
X166013853Y-56080600D01*
X166014959Y-56080605D01*
G37*
%TD.AperFunction*%
%TD*%
M02*
