%TF.GenerationSoftware,KiCad,Pcbnew,8.0.3*%
%TF.CreationDate,2025-07-14T16:25:53+02:00*%
%TF.ProjectId,Cmes,436d6573-2e6b-4696-9361-645f70636258,rev?*%
%TF.SameCoordinates,Original*%
%TF.FileFunction,Soldermask,Top*%
%TF.FilePolarity,Negative*%
%FSLAX46Y46*%
G04 Gerber Fmt 4.6, Leading zero omitted, Abs format (unit mm)*
G04 Created by KiCad (PCBNEW 8.0.3) date 2025-07-14 16:25:53*
%MOMM*%
%LPD*%
G01*
G04 APERTURE LIST*
G04 Aperture macros list*
%AMRoundRect*
0 Rectangle with rounded corners*
0 $1 Rounding radius*
0 $2 $3 $4 $5 $6 $7 $8 $9 X,Y pos of 4 corners*
0 Add a 4 corners polygon primitive as box body*
4,1,4,$2,$3,$4,$5,$6,$7,$8,$9,$2,$3,0*
0 Add four circle primitives for the rounded corners*
1,1,$1+$1,$2,$3*
1,1,$1+$1,$4,$5*
1,1,$1+$1,$6,$7*
1,1,$1+$1,$8,$9*
0 Add four rect primitives between the rounded corners*
20,1,$1+$1,$2,$3,$4,$5,0*
20,1,$1+$1,$4,$5,$6,$7,0*
20,1,$1+$1,$6,$7,$8,$9,0*
20,1,$1+$1,$8,$9,$2,$3,0*%
G04 Aperture macros list end*
%ADD10R,1.800000X1.100000*%
%ADD11RoundRect,0.200000X0.200000X0.275000X-0.200000X0.275000X-0.200000X-0.275000X0.200000X-0.275000X0*%
%ADD12RoundRect,0.150000X-0.512500X-0.150000X0.512500X-0.150000X0.512500X0.150000X-0.512500X0.150000X0*%
%ADD13RoundRect,0.225000X0.250000X-0.225000X0.250000X0.225000X-0.250000X0.225000X-0.250000X-0.225000X0*%
%ADD14R,1.500000X0.760000*%
%ADD15RoundRect,0.225000X0.225000X0.250000X-0.225000X0.250000X-0.225000X-0.250000X0.225000X-0.250000X0*%
%ADD16RoundRect,0.200000X0.275000X-0.200000X0.275000X0.200000X-0.275000X0.200000X-0.275000X-0.200000X0*%
%ADD17R,0.760000X1.500000*%
%ADD18RoundRect,0.150000X-0.150000X0.587500X-0.150000X-0.587500X0.150000X-0.587500X0.150000X0.587500X0*%
%ADD19R,1.700000X1.700000*%
%ADD20O,1.700000X1.700000*%
G04 APERTURE END LIST*
D10*
%TO.C,SW4*%
X108100000Y-78850000D03*
X101900000Y-78850000D03*
X108100000Y-75150000D03*
X101900000Y-75150000D03*
%TD*%
D11*
%TO.C,R3*%
X139325000Y-91000000D03*
X137675000Y-91000000D03*
%TD*%
%TO.C,R4*%
X139325000Y-93000000D03*
X137675000Y-93000000D03*
%TD*%
D12*
%TO.C,U1*%
X157862500Y-86050000D03*
X157862500Y-87000000D03*
X157862500Y-87950000D03*
X160137500Y-87950000D03*
X160137500Y-86050000D03*
%TD*%
D13*
%TO.C,C4*%
X122000000Y-84275000D03*
X122000000Y-82725000D03*
%TD*%
D11*
%TO.C,R7*%
X112650000Y-93000000D03*
X111000000Y-93000000D03*
%TD*%
D13*
%TO.C,C3*%
X124000000Y-84275000D03*
X124000000Y-82725000D03*
%TD*%
D14*
%TO.C,SW3*%
X101190000Y-90090000D03*
X101190000Y-91360000D03*
X101190000Y-92630000D03*
X101190000Y-93910000D03*
X108810000Y-93910000D03*
X108810000Y-92630000D03*
X108810000Y-91360000D03*
X108810000Y-90090000D03*
%TD*%
D15*
%TO.C,C5*%
X159775000Y-84000000D03*
X158225000Y-84000000D03*
%TD*%
D16*
%TO.C,R9*%
X155500000Y-77825000D03*
X155500000Y-76175000D03*
%TD*%
D13*
%TO.C,C1*%
X128000000Y-84275000D03*
X128000000Y-82725000D03*
%TD*%
D11*
%TO.C,R10*%
X98325000Y-75062500D03*
X96675000Y-75062500D03*
%TD*%
%TO.C,R2*%
X112650000Y-89000000D03*
X111000000Y-89000000D03*
%TD*%
%TO.C,R5*%
X139325000Y-95000000D03*
X137675000Y-95000000D03*
%TD*%
D17*
%TO.C,SW1*%
X126910000Y-73190000D03*
X125640000Y-73190000D03*
X124370000Y-73190000D03*
X123090000Y-73190000D03*
X123090000Y-80810000D03*
X124370000Y-80810000D03*
X125640000Y-80810000D03*
X126910000Y-80810000D03*
%TD*%
D11*
%TO.C,R1*%
X139325000Y-89000000D03*
X137675000Y-89000000D03*
%TD*%
D14*
%TO.C,SW2*%
X148810000Y-93910000D03*
X148810000Y-92640000D03*
X148810000Y-91370000D03*
X148810000Y-90090000D03*
X141190000Y-90090000D03*
X141190000Y-91370000D03*
X141190000Y-92640000D03*
X141190000Y-93910000D03*
%TD*%
D10*
%TO.C,SW5*%
X141900000Y-75150000D03*
X148100000Y-75150000D03*
X141900000Y-78850000D03*
X148100000Y-78850000D03*
%TD*%
D18*
%TO.C,Q2*%
X153450000Y-76562500D03*
X151550000Y-76562500D03*
X152500000Y-78437500D03*
%TD*%
D11*
%TO.C,R8*%
X112650000Y-95000000D03*
X111000000Y-95000000D03*
%TD*%
D18*
%TO.C,Q1*%
X98450000Y-77062500D03*
X96550000Y-77062500D03*
X97500000Y-78937500D03*
%TD*%
D11*
%TO.C,R6*%
X112650000Y-91000000D03*
X111000000Y-91000000D03*
%TD*%
D13*
%TO.C,C2*%
X126000000Y-84275000D03*
X126000000Y-82725000D03*
%TD*%
D19*
%TO.C,J1*%
X82014400Y-74650600D03*
D20*
X79474400Y-74650600D03*
X82014400Y-77190600D03*
X79474400Y-77190600D03*
X82014400Y-79730600D03*
X79474400Y-79730600D03*
X82014400Y-82270600D03*
X79474400Y-82270600D03*
X82014400Y-84810600D03*
X79474400Y-84810600D03*
X82014400Y-87350600D03*
X79474400Y-87350600D03*
X82014400Y-89890600D03*
X79474400Y-89890600D03*
X82014400Y-92430600D03*
X79474400Y-92430600D03*
X82014400Y-94970600D03*
X79474400Y-94970600D03*
X82014400Y-97510600D03*
X79474400Y-97510600D03*
%TD*%
D19*
%TO.C,J2*%
X168554400Y-77190600D03*
D20*
X166014400Y-77190600D03*
X168554400Y-79730600D03*
X166014400Y-79730600D03*
X168554400Y-82270600D03*
X166014400Y-82270600D03*
X168554400Y-84810600D03*
X166014400Y-84810600D03*
X168554400Y-87350600D03*
X166014400Y-87350600D03*
X168554400Y-89890600D03*
X166014400Y-89890600D03*
X168554400Y-92430600D03*
X166014400Y-92430600D03*
X168554400Y-94970600D03*
X166014400Y-94970600D03*
%TD*%
M02*
