%TF.GenerationSoftware,KiCad,Pcbnew,8.0.3*%
%TF.CreationDate,2025-07-14T16:25:53+02:00*%
%TF.ProjectId,Cmes,436d6573-2e6b-4696-9361-645f70636258,rev?*%
%TF.SameCoordinates,Original*%
%TF.FileFunction,Copper,L2,Bot*%
%TF.FilePolarity,Positive*%
%FSLAX46Y46*%
G04 Gerber Fmt 4.6, Leading zero omitted, Abs format (unit mm)*
G04 Created by KiCad (PCBNEW 8.0.3) date 2025-07-14 16:25:53*
%MOMM*%
%LPD*%
G01*
G04 APERTURE LIST*
G04 Aperture macros list*
%AMRoundRect*
0 Rectangle with rounded corners*
0 $1 Rounding radius*
0 $2 $3 $4 $5 $6 $7 $8 $9 X,Y pos of 4 corners*
0 Add a 4 corners polygon primitive as box body*
4,1,4,$2,$3,$4,$5,$6,$7,$8,$9,$2,$3,0*
0 Add four circle primitives for the rounded corners*
1,1,$1+$1,$2,$3*
1,1,$1+$1,$4,$5*
1,1,$1+$1,$6,$7*
1,1,$1+$1,$8,$9*
0 Add four rect primitives between the rounded corners*
20,1,$1+$1,$2,$3,$4,$5,0*
20,1,$1+$1,$4,$5,$6,$7,0*
20,1,$1+$1,$6,$7,$8,$9,0*
20,1,$1+$1,$8,$9,$2,$3,0*%
G04 Aperture macros list end*
%TA.AperFunction,SMDPad,CuDef*%
%ADD10RoundRect,0.135000X0.185000X-0.135000X0.185000X0.135000X-0.185000X0.135000X-0.185000X-0.135000X0*%
%TD*%
%TA.AperFunction,ComponentPad*%
%ADD11R,1.700000X1.700000*%
%TD*%
%TA.AperFunction,ComponentPad*%
%ADD12O,1.700000X1.700000*%
%TD*%
%TA.AperFunction,ViaPad*%
%ADD13C,0.800000*%
%TD*%
%TA.AperFunction,ViaPad*%
%ADD14C,0.600000*%
%TD*%
%TA.AperFunction,Conductor*%
%ADD15C,0.381000*%
%TD*%
G04 APERTURE END LIST*
D10*
%TO.P,R20,1*%
%TO.N,DIO6*%
X84683600Y-92432600D03*
%TO.P,R20,2*%
%TO.N,Charge*%
X84683600Y-91412600D03*
%TD*%
%TO.P,R23,1*%
%TO.N,DIO3*%
X84683600Y-84812600D03*
%TO.P,R23,2*%
%TO.N,Charge*%
X84683600Y-83792600D03*
%TD*%
%TO.P,R24,1*%
%TO.N,DIO2*%
X84683600Y-82272600D03*
%TO.P,R24,2*%
%TO.N,Charge*%
X84683600Y-81252600D03*
%TD*%
%TO.P,R14,1*%
%TO.N,DIO4*%
X86842600Y-87327200D03*
%TO.P,R14,2*%
%TO.N,discharge*%
X86842600Y-86307200D03*
%TD*%
%TO.P,R26,1*%
%TO.N,DIO0*%
X84683600Y-77192600D03*
%TO.P,R26,2*%
%TO.N,Charge*%
X84683600Y-76172600D03*
%TD*%
%TO.P,R17,1*%
%TO.N,DIO1*%
X86842600Y-79732600D03*
%TO.P,R17,2*%
%TO.N,discharge*%
X86842600Y-78712600D03*
%TD*%
D11*
%TO.P,J1,1,Pin_1*%
%TO.N,unconnected-(J1-Pin_1-Pad1)*%
X82014400Y-74650600D03*
D12*
%TO.P,J1,2,Pin_2*%
%TO.N,unconnected-(J1-Pin_2-Pad2)*%
X79474400Y-74650600D03*
%TO.P,J1,3,Pin_3*%
%TO.N,unconnected-(J1-Pin_3-Pad3)*%
X82014400Y-77190600D03*
%TO.P,J1,4,Pin_4*%
%TO.N,DIO0*%
X79474400Y-77190600D03*
%TO.P,J1,5,Pin_5*%
%TO.N,unconnected-(J1-Pin_5-Pad5)*%
X82014400Y-79730600D03*
%TO.P,J1,6,Pin_6*%
%TO.N,DIO1*%
X79474400Y-79730600D03*
%TO.P,J1,7,Pin_7*%
%TO.N,unconnected-(J1-Pin_7-Pad7)*%
X82014400Y-82270600D03*
%TO.P,J1,8,Pin_8*%
%TO.N,DIO2*%
X79474400Y-82270600D03*
%TO.P,J1,9,Pin_9*%
%TO.N,unconnected-(J1-Pin_9-Pad9)*%
X82014400Y-84810600D03*
%TO.P,J1,10,Pin_10*%
%TO.N,DIO3*%
X79474400Y-84810600D03*
%TO.P,J1,11,Pin_11*%
%TO.N,unconnected-(J1-Pin_11-Pad11)*%
X82014400Y-87350600D03*
%TO.P,J1,12,Pin_12*%
%TO.N,DIO4*%
X79474400Y-87350600D03*
%TO.P,J1,13,Pin_13*%
%TO.N,unconnected-(J1-Pin_13-Pad13)*%
X82014400Y-89890600D03*
%TO.P,J1,14,Pin_14*%
%TO.N,DIO5*%
X79474400Y-89890600D03*
%TO.P,J1,15,Pin_15*%
%TO.N,unconnected-(J1-Pin_15-Pad15)*%
X82014400Y-92430600D03*
%TO.P,J1,16,Pin_16*%
%TO.N,DIO6*%
X79474400Y-92430600D03*
%TO.P,J1,17,Pin_17*%
%TO.N,unconnected-(J1-Pin_17-Pad17)*%
X82014400Y-94970600D03*
%TO.P,J1,18,Pin_18*%
%TO.N,DIO7*%
X79474400Y-94970600D03*
%TO.P,J1,19,Pin_19*%
%TO.N,GND*%
X82014400Y-97510600D03*
%TO.P,J1,20,Pin_20*%
X79474400Y-97510600D03*
%TD*%
D10*
%TO.P,R18,1*%
%TO.N,DIO0*%
X86842600Y-77192600D03*
%TO.P,R18,2*%
%TO.N,discharge*%
X86842600Y-76172600D03*
%TD*%
%TO.P,R15,1*%
%TO.N,DIO3*%
X86842600Y-84812600D03*
%TO.P,R15,2*%
%TO.N,discharge*%
X86842600Y-83792600D03*
%TD*%
%TO.P,R12,1*%
%TO.N,DIO6*%
X86842600Y-92432600D03*
%TO.P,R12,2*%
%TO.N,discharge*%
X86842600Y-91412600D03*
%TD*%
%TO.P,R16,1*%
%TO.N,DIO2*%
X86842600Y-82272600D03*
%TO.P,R16,2*%
%TO.N,discharge*%
X86842600Y-81252600D03*
%TD*%
%TO.P,R13,1*%
%TO.N,DIO5*%
X86842600Y-89892600D03*
%TO.P,R13,2*%
%TO.N,discharge*%
X86842600Y-88872600D03*
%TD*%
%TO.P,R25,1*%
%TO.N,DIO1*%
X84683600Y-79732600D03*
%TO.P,R25,2*%
%TO.N,Charge*%
X84683600Y-78712600D03*
%TD*%
%TO.P,R22,1*%
%TO.N,DIO4*%
X84683600Y-87327200D03*
%TO.P,R22,2*%
%TO.N,Charge*%
X84683600Y-86307200D03*
%TD*%
%TO.P,R11,1*%
%TO.N,DIO7*%
X86842600Y-94972600D03*
%TO.P,R11,2*%
%TO.N,discharge*%
X86842600Y-93952600D03*
%TD*%
D11*
%TO.P,J2,1,Pin_1*%
%TO.N,unconnected-(J2-Pin_1-Pad1)*%
X168554400Y-77190600D03*
D12*
%TO.P,J2,2,Pin_2*%
%TO.N,unconnected-(J2-Pin_2-Pad2)*%
X166014400Y-77190600D03*
%TO.P,J2,3,Pin_3*%
%TO.N,+5V*%
X168554400Y-79730600D03*
%TO.P,J2,4,Pin_4*%
X166014400Y-79730600D03*
%TO.P,J2,5,Pin_5*%
%TO.N,unconnected-(J2-Pin_5-Pad5)*%
X168554400Y-82270600D03*
%TO.P,J2,6,Pin_6*%
%TO.N,unconnected-(J2-Pin_6-Pad6)*%
X166014400Y-82270600D03*
%TO.P,J2,7,Pin_7*%
%TO.N,GND*%
X168554400Y-84810600D03*
%TO.P,J2,8,Pin_8*%
X166014400Y-84810600D03*
%TO.P,J2,9,Pin_9*%
%TO.N,AI0+*%
X168554400Y-87350600D03*
%TO.P,J2,10,Pin_10*%
%TO.N,AI0-*%
X166014400Y-87350600D03*
%TO.P,J2,11,Pin_11*%
%TO.N,GND*%
X168554400Y-89890600D03*
%TO.P,J2,12,Pin_12*%
X166014400Y-89890600D03*
%TO.P,J2,13,Pin_13*%
%TO.N,unconnected-(J2-Pin_13-Pad13)*%
X168554400Y-92430600D03*
%TO.P,J2,14,Pin_14*%
%TO.N,unconnected-(J2-Pin_14-Pad14)*%
X166014400Y-92430600D03*
%TO.P,J2,15,Pin_15*%
%TO.N,GND*%
X168554400Y-94970600D03*
%TO.P,J2,16,Pin_16*%
X166014400Y-94970600D03*
%TD*%
D10*
%TO.P,R19,1*%
%TO.N,DIO7*%
X84683600Y-94972600D03*
%TO.P,R19,2*%
%TO.N,Charge*%
X84683600Y-93952600D03*
%TD*%
%TO.P,R21,1*%
%TO.N,DIO5*%
X84683600Y-89892600D03*
%TO.P,R21,2*%
%TO.N,Charge*%
X84683600Y-88872600D03*
%TD*%
D13*
%TO.N,GND*%
X156500000Y-87000000D03*
X95500000Y-77000000D03*
X125640000Y-71500000D03*
X124370000Y-71500000D03*
D14*
X156845000Y-83997800D03*
D13*
X123090000Y-71500000D03*
X95500000Y-75500000D03*
X126910000Y-71500000D03*
D14*
%TO.N,discharge*%
X87782400Y-78714600D03*
X87782400Y-83794600D03*
X87782400Y-76149200D03*
X87782400Y-91414600D03*
X87782400Y-81254600D03*
X87782400Y-86309200D03*
X87782400Y-88874600D03*
X87782400Y-93954600D03*
%TO.N,Charge*%
X85572600Y-78714600D03*
X85572600Y-83794600D03*
X85572600Y-81254600D03*
X85572600Y-93954600D03*
X85572600Y-86309200D03*
X85572600Y-88874600D03*
X85572600Y-91414600D03*
X85572600Y-76149200D03*
%TD*%
D15*
%TO.N,DIO1*%
X82016400Y-79732600D02*
X82014400Y-79730600D01*
X84683600Y-79732600D02*
X86842600Y-79732600D01*
X84683600Y-79732600D02*
X82016400Y-79732600D01*
%TO.N,DIO2*%
X82016400Y-82272600D02*
X82014400Y-82270600D01*
X84683600Y-82272600D02*
X82016400Y-82272600D01*
X84683600Y-82272600D02*
X86842600Y-82272600D01*
%TO.N,DIO4*%
X84683600Y-87327200D02*
X86842600Y-87327200D01*
X82037800Y-87327200D02*
X82014400Y-87350600D01*
X84683600Y-87327200D02*
X82037800Y-87327200D01*
%TO.N,DIO6*%
X82016400Y-92432600D02*
X82014400Y-92430600D01*
X84683600Y-92432600D02*
X86842600Y-92432600D01*
X84683600Y-92432600D02*
X82016400Y-92432600D01*
%TO.N,DIO7*%
X82016400Y-94972600D02*
X82014400Y-94970600D01*
X84683600Y-94972600D02*
X82016400Y-94972600D01*
X84683600Y-94972600D02*
X86842600Y-94972600D01*
%TO.N,DIO0*%
X82016400Y-77192600D02*
X82014400Y-77190600D01*
X84683600Y-77192600D02*
X82016400Y-77192600D01*
X84683600Y-77192600D02*
X86842600Y-77192600D01*
%TO.N,DIO3*%
X82016400Y-84812600D02*
X82014400Y-84810600D01*
X84683600Y-84812600D02*
X86842600Y-84812600D01*
X84683600Y-84812600D02*
X82016400Y-84812600D01*
%TO.N,DIO5*%
X82016400Y-89892600D02*
X82014400Y-89890600D01*
X84683600Y-89892600D02*
X82016400Y-89892600D01*
X84683600Y-89892600D02*
X86842600Y-89892600D01*
%TO.N,discharge*%
X87780400Y-91412600D02*
X87782400Y-91414600D01*
X87780400Y-83792600D02*
X87782400Y-83794600D01*
X87780400Y-88872600D02*
X87782400Y-88874600D01*
X87780400Y-93952600D02*
X87782400Y-93954600D01*
X86842600Y-78712600D02*
X87780400Y-78712600D01*
X86842600Y-91412600D02*
X87780400Y-91412600D01*
X86842600Y-93952600D02*
X87780400Y-93952600D01*
X86842600Y-86307200D02*
X87780400Y-86307200D01*
X86842600Y-76172600D02*
X87759000Y-76172600D01*
X87780400Y-86307200D02*
X87782400Y-86309200D01*
X87780400Y-81252600D02*
X87782400Y-81254600D01*
X86842600Y-83792600D02*
X87780400Y-83792600D01*
X86842600Y-81252600D02*
X87780400Y-81252600D01*
X87759000Y-76172600D02*
X87782400Y-76149200D01*
X87780400Y-78712600D02*
X87782400Y-78714600D01*
X86842600Y-88872600D02*
X87780400Y-88872600D01*
%TO.N,Charge*%
X84683600Y-83792600D02*
X85570600Y-83792600D01*
X85570600Y-83792600D02*
X85572600Y-83794600D01*
X84683600Y-93952600D02*
X85570600Y-93952600D01*
X84683600Y-91412600D02*
X85570600Y-91412600D01*
X84683600Y-76172600D02*
X85549200Y-76172600D01*
X85549200Y-76172600D02*
X85572600Y-76149200D01*
X85570600Y-81252600D02*
X85572600Y-81254600D01*
X84683600Y-86307200D02*
X85570600Y-86307200D01*
X85570600Y-78712600D02*
X85572600Y-78714600D01*
X85570600Y-88872600D02*
X85572600Y-88874600D01*
X84683600Y-78712600D02*
X85570600Y-78712600D01*
X84683600Y-81252600D02*
X85570600Y-81252600D01*
X85570600Y-86307200D02*
X85572600Y-86309200D01*
X84683600Y-88872600D02*
X85570600Y-88872600D01*
X85570600Y-93952600D02*
X85572600Y-93954600D01*
X85570600Y-91412600D02*
X85572600Y-91414600D01*
%TD*%
%TA.AperFunction,Conductor*%
%TO.N,GND*%
G36*
X81548475Y-97317607D02*
G01*
X81514400Y-97444774D01*
X81514400Y-97576426D01*
X81548475Y-97703593D01*
X81581388Y-97760600D01*
X79907412Y-97760600D01*
X79940325Y-97703593D01*
X79974400Y-97576426D01*
X79974400Y-97444774D01*
X79940325Y-97317607D01*
X79907412Y-97260600D01*
X81581388Y-97260600D01*
X81548475Y-97317607D01*
G37*
%TD.AperFunction*%
%TA.AperFunction,Conductor*%
G36*
X168088475Y-94777607D02*
G01*
X168054400Y-94904774D01*
X168054400Y-95036426D01*
X168088475Y-95163593D01*
X168121388Y-95220600D01*
X166447412Y-95220600D01*
X166480325Y-95163593D01*
X166514400Y-95036426D01*
X166514400Y-94904774D01*
X166480325Y-94777607D01*
X166447412Y-94720600D01*
X168121388Y-94720600D01*
X168088475Y-94777607D01*
G37*
%TD.AperFunction*%
%TA.AperFunction,Conductor*%
G36*
X168088475Y-89697607D02*
G01*
X168054400Y-89824774D01*
X168054400Y-89956426D01*
X168088475Y-90083593D01*
X168121388Y-90140600D01*
X166447412Y-90140600D01*
X166480325Y-90083593D01*
X166514400Y-89956426D01*
X166514400Y-89824774D01*
X166480325Y-89697607D01*
X166447412Y-89640600D01*
X168121388Y-89640600D01*
X168088475Y-89697607D01*
G37*
%TD.AperFunction*%
%TA.AperFunction,Conductor*%
G36*
X168088475Y-84617607D02*
G01*
X168054400Y-84744774D01*
X168054400Y-84876426D01*
X168088475Y-85003593D01*
X168121388Y-85060600D01*
X166447412Y-85060600D01*
X166480325Y-85003593D01*
X166514400Y-84876426D01*
X166514400Y-84744774D01*
X166480325Y-84617607D01*
X166447412Y-84560600D01*
X168121388Y-84560600D01*
X168088475Y-84617607D01*
G37*
%TD.AperFunction*%
%TA.AperFunction,Conductor*%
G36*
X166014959Y-56080605D02*
G01*
X166022571Y-56080672D01*
X166296167Y-56083114D01*
X166303882Y-56083424D01*
X166865435Y-56123587D01*
X166874193Y-56124528D01*
X167430909Y-56204571D01*
X167439600Y-56206140D01*
X167989153Y-56325688D01*
X167997729Y-56327876D01*
X168537371Y-56486330D01*
X168545730Y-56489112D01*
X169072718Y-56685668D01*
X169080851Y-56689037D01*
X169592461Y-56922682D01*
X169600360Y-56926636D01*
X170093981Y-57196174D01*
X170101593Y-57200691D01*
X170574699Y-57504738D01*
X170581970Y-57509786D01*
X171032206Y-57846828D01*
X171039099Y-57852382D01*
X171464140Y-58220682D01*
X171470618Y-58226714D01*
X171868285Y-58624381D01*
X171874317Y-58630859D01*
X172242617Y-59055900D01*
X172248171Y-59062793D01*
X172585213Y-59513029D01*
X172590261Y-59520300D01*
X172894308Y-59993406D01*
X172898825Y-60001018D01*
X173168363Y-60494639D01*
X173172322Y-60502549D01*
X173405956Y-61014135D01*
X173409338Y-61022299D01*
X173605880Y-61549250D01*
X173608675Y-61557648D01*
X173767122Y-62097269D01*
X173769311Y-62105846D01*
X173888857Y-62655389D01*
X173890429Y-62664100D01*
X173970468Y-63220785D01*
X173971414Y-63229586D01*
X174011574Y-63791105D01*
X174011885Y-63798844D01*
X174014395Y-64080039D01*
X174014400Y-64081146D01*
X174014400Y-108080053D01*
X174014395Y-108081160D01*
X174011885Y-108362355D01*
X174011574Y-108370094D01*
X173971414Y-108931613D01*
X173970468Y-108940414D01*
X173890429Y-109497099D01*
X173888857Y-109505810D01*
X173769311Y-110055353D01*
X173767122Y-110063930D01*
X173608675Y-110603551D01*
X173605880Y-110611949D01*
X173409338Y-111138900D01*
X173405950Y-111147079D01*
X173172325Y-111658645D01*
X173168363Y-111666560D01*
X172898825Y-112160181D01*
X172894308Y-112167793D01*
X172590261Y-112640899D01*
X172585213Y-112648170D01*
X172248171Y-113098406D01*
X172242617Y-113105299D01*
X171874317Y-113530340D01*
X171868285Y-113536818D01*
X171470618Y-113934485D01*
X171464140Y-113940517D01*
X171039099Y-114308817D01*
X171032206Y-114314371D01*
X170581970Y-114651413D01*
X170574699Y-114656461D01*
X170101593Y-114960508D01*
X170093981Y-114965025D01*
X169600360Y-115234563D01*
X169592445Y-115238525D01*
X169080879Y-115472150D01*
X169072700Y-115475538D01*
X168545749Y-115672080D01*
X168537351Y-115674875D01*
X167997730Y-115833322D01*
X167989153Y-115835511D01*
X167439610Y-115955057D01*
X167430899Y-115956629D01*
X166874214Y-116036668D01*
X166865413Y-116037614D01*
X166303894Y-116077774D01*
X166296155Y-116078085D01*
X166014960Y-116080595D01*
X166013853Y-116080600D01*
X82014947Y-116080600D01*
X82013840Y-116080595D01*
X81732644Y-116078085D01*
X81724905Y-116077774D01*
X81163386Y-116037614D01*
X81154585Y-116036668D01*
X80597900Y-115956629D01*
X80589189Y-115955057D01*
X80039646Y-115835511D01*
X80031069Y-115833322D01*
X79491448Y-115674875D01*
X79483050Y-115672080D01*
X78956099Y-115475538D01*
X78947935Y-115472156D01*
X78436349Y-115238522D01*
X78428439Y-115234563D01*
X77934818Y-114965025D01*
X77927206Y-114960508D01*
X77454100Y-114656461D01*
X77446829Y-114651413D01*
X76996593Y-114314371D01*
X76989700Y-114308817D01*
X76564659Y-113940517D01*
X76558181Y-113934485D01*
X76160514Y-113536818D01*
X76154482Y-113530340D01*
X75786182Y-113105299D01*
X75780628Y-113098406D01*
X75443586Y-112648170D01*
X75438538Y-112640899D01*
X75134491Y-112167793D01*
X75129974Y-112160181D01*
X74860436Y-111666560D01*
X74856482Y-111658661D01*
X74622837Y-111147051D01*
X74619468Y-111138918D01*
X74422912Y-110611930D01*
X74420130Y-110603571D01*
X74261676Y-110063929D01*
X74259488Y-110055353D01*
X74139940Y-109505800D01*
X74138370Y-109497099D01*
X74135423Y-109476599D01*
X74058328Y-108940393D01*
X74057387Y-108931635D01*
X74017224Y-108370082D01*
X74016914Y-108362354D01*
X74015742Y-108231052D01*
X74014405Y-108081159D01*
X74014402Y-108080598D01*
X79761882Y-108080598D01*
X79761882Y-108080600D01*
X79781979Y-108380827D01*
X79781981Y-108380837D01*
X79841916Y-108675707D01*
X79940620Y-108959960D01*
X79940622Y-108959963D01*
X80076326Y-109228515D01*
X80076329Y-109228520D01*
X80076330Y-109228521D01*
X80246625Y-109476598D01*
X80448467Y-109699763D01*
X80678252Y-109894035D01*
X80931881Y-110055945D01*
X81204828Y-110182606D01*
X81492221Y-110271756D01*
X81788933Y-110321805D01*
X82089668Y-110331860D01*
X82389060Y-110301741D01*
X82681766Y-110231986D01*
X82962563Y-110123839D01*
X83226440Y-109979230D01*
X83468688Y-109800740D01*
X83684985Y-109591555D01*
X83871469Y-109355406D01*
X84024815Y-109096508D01*
X84142284Y-108819482D01*
X84221781Y-108529270D01*
X84261888Y-108231052D01*
X84264400Y-108080600D01*
X84264400Y-108080598D01*
X163761882Y-108080598D01*
X163761882Y-108080600D01*
X163781979Y-108380827D01*
X163781981Y-108380837D01*
X163841916Y-108675707D01*
X163940620Y-108959960D01*
X163940622Y-108959963D01*
X164076326Y-109228515D01*
X164076329Y-109228520D01*
X164076330Y-109228521D01*
X164246625Y-109476598D01*
X164448467Y-109699763D01*
X164678252Y-109894035D01*
X164931881Y-110055945D01*
X165204828Y-110182606D01*
X165492221Y-110271756D01*
X165788933Y-110321805D01*
X166089668Y-110331860D01*
X166389060Y-110301741D01*
X166681766Y-110231986D01*
X166962563Y-110123839D01*
X167226440Y-109979230D01*
X167468688Y-109800740D01*
X167684985Y-109591555D01*
X167871469Y-109355406D01*
X168024815Y-109096508D01*
X168142284Y-108819482D01*
X168221781Y-108529270D01*
X168261888Y-108231052D01*
X168264400Y-108080600D01*
X168261888Y-107930148D01*
X168221781Y-107631930D01*
X168142284Y-107341718D01*
X168024815Y-107064692D01*
X167946626Y-106932684D01*
X167871469Y-106805793D01*
X167684984Y-106569644D01*
X167468695Y-106360467D01*
X167468688Y-106360460D01*
X167226440Y-106181970D01*
X166962571Y-106037365D01*
X166962566Y-106037362D01*
X166962563Y-106037361D01*
X166962559Y-106037359D01*
X166962556Y-106037358D01*
X166681770Y-105929215D01*
X166681766Y-105929214D01*
X166389060Y-105859459D01*
X166389057Y-105859458D01*
X166089672Y-105829340D01*
X166089668Y-105829340D01*
X165788933Y-105839395D01*
X165492220Y-105889444D01*
X165364014Y-105929214D01*
X165204828Y-105978594D01*
X165204821Y-105978597D01*
X165204819Y-105978598D01*
X164931883Y-106105253D01*
X164931881Y-106105255D01*
X164678255Y-106267162D01*
X164448468Y-106461435D01*
X164246627Y-106684599D01*
X164246626Y-106684600D01*
X164076326Y-106932684D01*
X163940622Y-107201236D01*
X163940620Y-107201239D01*
X163841916Y-107485492D01*
X163781981Y-107780362D01*
X163781979Y-107780372D01*
X163761882Y-108080598D01*
X84264400Y-108080598D01*
X84261888Y-107930148D01*
X84221781Y-107631930D01*
X84142284Y-107341718D01*
X84024815Y-107064692D01*
X83946626Y-106932684D01*
X83871469Y-106805793D01*
X83684984Y-106569644D01*
X83468695Y-106360467D01*
X83468688Y-106360460D01*
X83226440Y-106181970D01*
X82962571Y-106037365D01*
X82962566Y-106037362D01*
X82962563Y-106037361D01*
X82962559Y-106037359D01*
X82962556Y-106037358D01*
X82681770Y-105929215D01*
X82681766Y-105929214D01*
X82389060Y-105859459D01*
X82389057Y-105859458D01*
X82089672Y-105829340D01*
X82089668Y-105829340D01*
X81788933Y-105839395D01*
X81492220Y-105889444D01*
X81364014Y-105929214D01*
X81204828Y-105978594D01*
X81204821Y-105978597D01*
X81204819Y-105978598D01*
X80931883Y-106105253D01*
X80931881Y-106105255D01*
X80678255Y-106267162D01*
X80448468Y-106461435D01*
X80246627Y-106684599D01*
X80246626Y-106684600D01*
X80076326Y-106932684D01*
X79940622Y-107201236D01*
X79940620Y-107201239D01*
X79841916Y-107485492D01*
X79781981Y-107780362D01*
X79781979Y-107780372D01*
X79761882Y-108080598D01*
X74014402Y-108080598D01*
X74014400Y-108080053D01*
X74014400Y-74650599D01*
X78118741Y-74650599D01*
X78118741Y-74650600D01*
X78139336Y-74886003D01*
X78139338Y-74886013D01*
X78200494Y-75114255D01*
X78200496Y-75114259D01*
X78200497Y-75114263D01*
X78284899Y-75295263D01*
X78300365Y-75328430D01*
X78300367Y-75328434D01*
X78435901Y-75521995D01*
X78435906Y-75522002D01*
X78602997Y-75689093D01*
X78603003Y-75689098D01*
X78788558Y-75819025D01*
X78832183Y-75873602D01*
X78839377Y-75943100D01*
X78807854Y-76005455D01*
X78788558Y-76022175D01*
X78602997Y-76152105D01*
X78435905Y-76319197D01*
X78300365Y-76512769D01*
X78300364Y-76512771D01*
X78200498Y-76726935D01*
X78200494Y-76726944D01*
X78139338Y-76955186D01*
X78139336Y-76955196D01*
X78118741Y-77190599D01*
X78118741Y-77190600D01*
X78139336Y-77426003D01*
X78139338Y-77426013D01*
X78200494Y-77654255D01*
X78200496Y-77654259D01*
X78200497Y-77654263D01*
X78204400Y-77662632D01*
X78300365Y-77868430D01*
X78300367Y-77868434D01*
X78384657Y-77988811D01*
X78435901Y-78061996D01*
X78435906Y-78062002D01*
X78602997Y-78229093D01*
X78603003Y-78229098D01*
X78788558Y-78359025D01*
X78832183Y-78413602D01*
X78839377Y-78483100D01*
X78807854Y-78545455D01*
X78788558Y-78562175D01*
X78602997Y-78692105D01*
X78435905Y-78859197D01*
X78300365Y-79052769D01*
X78300364Y-79052771D01*
X78200498Y-79266935D01*
X78200494Y-79266944D01*
X78139338Y-79495186D01*
X78139336Y-79495196D01*
X78118741Y-79730599D01*
X78118741Y-79730600D01*
X78139336Y-79966003D01*
X78139338Y-79966013D01*
X78200494Y-80194255D01*
X78200496Y-80194259D01*
X78200497Y-80194263D01*
X78204400Y-80202632D01*
X78300365Y-80408430D01*
X78300367Y-80408434D01*
X78384657Y-80528811D01*
X78435901Y-80601996D01*
X78435906Y-80602002D01*
X78602997Y-80769093D01*
X78603003Y-80769098D01*
X78788558Y-80899025D01*
X78832183Y-80953602D01*
X78839377Y-81023100D01*
X78807854Y-81085455D01*
X78788558Y-81102175D01*
X78602997Y-81232105D01*
X78435905Y-81399197D01*
X78300365Y-81592769D01*
X78300364Y-81592771D01*
X78200498Y-81806935D01*
X78200494Y-81806944D01*
X78139338Y-82035186D01*
X78139336Y-82035196D01*
X78118741Y-82270599D01*
X78118741Y-82270600D01*
X78139336Y-82506003D01*
X78139338Y-82506013D01*
X78200494Y-82734255D01*
X78200496Y-82734259D01*
X78200497Y-82734263D01*
X78204400Y-82742632D01*
X78300365Y-82948430D01*
X78300367Y-82948434D01*
X78384657Y-83068811D01*
X78435901Y-83141996D01*
X78435906Y-83142002D01*
X78602997Y-83309093D01*
X78603003Y-83309098D01*
X78788558Y-83439025D01*
X78832183Y-83493602D01*
X78839377Y-83563100D01*
X78807854Y-83625455D01*
X78788558Y-83642175D01*
X78602997Y-83772105D01*
X78435905Y-83939197D01*
X78300365Y-84132769D01*
X78300364Y-84132771D01*
X78200498Y-84346935D01*
X78200494Y-84346944D01*
X78139338Y-84575186D01*
X78139336Y-84575196D01*
X78118741Y-84810599D01*
X78118741Y-84810600D01*
X78139336Y-85046003D01*
X78139338Y-85046013D01*
X78200494Y-85274255D01*
X78200496Y-85274259D01*
X78200497Y-85274263D01*
X78294696Y-85476273D01*
X78300365Y-85488430D01*
X78300367Y-85488434D01*
X78408681Y-85643121D01*
X78435901Y-85681996D01*
X78435906Y-85682002D01*
X78602997Y-85849093D01*
X78603003Y-85849098D01*
X78788558Y-85979025D01*
X78832183Y-86033602D01*
X78839377Y-86103100D01*
X78807854Y-86165455D01*
X78788558Y-86182175D01*
X78602997Y-86312105D01*
X78435905Y-86479197D01*
X78300365Y-86672769D01*
X78300364Y-86672771D01*
X78200498Y-86886935D01*
X78200494Y-86886944D01*
X78139338Y-87115186D01*
X78139336Y-87115196D01*
X78118741Y-87350599D01*
X78118741Y-87350600D01*
X78139336Y-87586003D01*
X78139338Y-87586013D01*
X78200494Y-87814255D01*
X78200496Y-87814259D01*
X78200497Y-87814263D01*
X78238013Y-87894716D01*
X78300365Y-88028430D01*
X78300367Y-88028434D01*
X78348868Y-88097700D01*
X78435904Y-88222000D01*
X78435906Y-88222002D01*
X78602997Y-88389093D01*
X78603003Y-88389098D01*
X78788558Y-88519025D01*
X78832183Y-88573602D01*
X78839377Y-88643100D01*
X78807854Y-88705455D01*
X78788558Y-88722175D01*
X78602997Y-88852105D01*
X78435905Y-89019197D01*
X78300365Y-89212769D01*
X78300364Y-89212771D01*
X78200498Y-89426935D01*
X78200494Y-89426944D01*
X78139338Y-89655186D01*
X78139336Y-89655196D01*
X78118741Y-89890599D01*
X78118741Y-89890600D01*
X78139336Y-90126003D01*
X78139338Y-90126013D01*
X78200494Y-90354255D01*
X78200496Y-90354259D01*
X78200497Y-90354263D01*
X78231243Y-90420198D01*
X78300365Y-90568430D01*
X78300367Y-90568434D01*
X78384657Y-90688811D01*
X78435901Y-90761996D01*
X78435906Y-90762002D01*
X78602997Y-90929093D01*
X78603003Y-90929098D01*
X78788558Y-91059025D01*
X78832183Y-91113602D01*
X78839377Y-91183100D01*
X78807854Y-91245455D01*
X78788558Y-91262175D01*
X78602997Y-91392105D01*
X78435905Y-91559197D01*
X78300365Y-91752769D01*
X78300364Y-91752771D01*
X78200498Y-91966935D01*
X78200494Y-91966944D01*
X78139338Y-92195186D01*
X78139336Y-92195196D01*
X78118741Y-92430599D01*
X78118741Y-92430600D01*
X78139336Y-92666003D01*
X78139338Y-92666013D01*
X78200494Y-92894255D01*
X78200496Y-92894259D01*
X78200497Y-92894263D01*
X78204400Y-92902632D01*
X78300365Y-93108430D01*
X78300367Y-93108434D01*
X78384657Y-93228811D01*
X78435901Y-93301996D01*
X78435906Y-93302002D01*
X78602997Y-93469093D01*
X78603003Y-93469098D01*
X78788558Y-93599025D01*
X78832183Y-93653602D01*
X78839377Y-93723100D01*
X78807854Y-93785455D01*
X78788558Y-93802175D01*
X78602997Y-93932105D01*
X78435905Y-94099197D01*
X78300365Y-94292769D01*
X78300364Y-94292771D01*
X78200498Y-94506935D01*
X78200494Y-94506944D01*
X78139338Y-94735186D01*
X78139336Y-94735196D01*
X78118741Y-94970599D01*
X78118741Y-94970600D01*
X78139336Y-95206003D01*
X78139338Y-95206013D01*
X78200494Y-95434255D01*
X78200496Y-95434259D01*
X78200497Y-95434263D01*
X78279997Y-95604751D01*
X78300365Y-95648430D01*
X78300367Y-95648434D01*
X78408681Y-95803121D01*
X78435901Y-95841996D01*
X78435906Y-95842002D01*
X78602997Y-96009093D01*
X78603003Y-96009098D01*
X78788994Y-96139330D01*
X78832619Y-96193907D01*
X78839813Y-96263405D01*
X78808290Y-96325760D01*
X78788995Y-96342480D01*
X78603322Y-96472490D01*
X78603320Y-96472491D01*
X78436291Y-96639520D01*
X78436286Y-96639526D01*
X78300800Y-96833020D01*
X78300799Y-96833022D01*
X78200970Y-97047107D01*
X78200967Y-97047113D01*
X78143764Y-97260599D01*
X78143764Y-97260600D01*
X79041388Y-97260600D01*
X79008475Y-97317607D01*
X78974400Y-97444774D01*
X78974400Y-97576426D01*
X79008475Y-97703593D01*
X79041388Y-97760600D01*
X78143764Y-97760600D01*
X78200967Y-97974086D01*
X78200970Y-97974092D01*
X78300799Y-98188178D01*
X78436294Y-98381682D01*
X78603317Y-98548705D01*
X78796821Y-98684200D01*
X79010907Y-98784029D01*
X79010916Y-98784033D01*
X79224400Y-98841234D01*
X79224400Y-97943612D01*
X79281407Y-97976525D01*
X79408574Y-98010600D01*
X79540226Y-98010600D01*
X79667393Y-97976525D01*
X79724400Y-97943612D01*
X79724400Y-98841233D01*
X79937883Y-98784033D01*
X79937892Y-98784029D01*
X80151978Y-98684200D01*
X80345482Y-98548705D01*
X80512505Y-98381682D01*
X80642825Y-98195568D01*
X80697402Y-98151944D01*
X80766901Y-98144751D01*
X80829255Y-98176273D01*
X80845975Y-98195568D01*
X80976294Y-98381682D01*
X81143317Y-98548705D01*
X81336821Y-98684200D01*
X81550907Y-98784029D01*
X81550916Y-98784033D01*
X81764400Y-98841234D01*
X81764400Y-97943612D01*
X81821407Y-97976525D01*
X81948574Y-98010600D01*
X82080226Y-98010600D01*
X82207393Y-97976525D01*
X82264400Y-97943612D01*
X82264400Y-98841233D01*
X82477883Y-98784033D01*
X82477892Y-98784029D01*
X82691978Y-98684200D01*
X82885482Y-98548705D01*
X83052505Y-98381682D01*
X83188000Y-98188178D01*
X83287829Y-97974092D01*
X83287832Y-97974086D01*
X83345036Y-97760600D01*
X82447412Y-97760600D01*
X82480325Y-97703593D01*
X82514400Y-97576426D01*
X82514400Y-97444774D01*
X82480325Y-97317607D01*
X82447412Y-97260600D01*
X83345036Y-97260600D01*
X83345035Y-97260599D01*
X83287832Y-97047113D01*
X83287829Y-97047107D01*
X83188000Y-96833022D01*
X83187999Y-96833020D01*
X83052513Y-96639526D01*
X83052508Y-96639520D01*
X82885478Y-96472490D01*
X82699805Y-96342479D01*
X82656180Y-96287902D01*
X82648988Y-96218404D01*
X82680510Y-96156049D01*
X82699806Y-96139330D01*
X82885801Y-96009095D01*
X83052895Y-95842001D01*
X83140789Y-95716474D01*
X83195365Y-95672851D01*
X83242363Y-95663600D01*
X84156397Y-95663600D01*
X84219517Y-95680868D01*
X84242244Y-95694308D01*
X84244207Y-95695469D01*
X84284868Y-95707282D01*
X84398391Y-95740264D01*
X84398394Y-95740264D01*
X84398396Y-95740265D01*
X84434419Y-95743100D01*
X84932780Y-95743099D01*
X84968804Y-95740265D01*
X85122993Y-95695469D01*
X85136807Y-95687299D01*
X85147683Y-95680868D01*
X85210803Y-95663600D01*
X86315397Y-95663600D01*
X86378517Y-95680868D01*
X86401244Y-95694308D01*
X86403207Y-95695469D01*
X86443868Y-95707282D01*
X86557391Y-95740264D01*
X86557394Y-95740264D01*
X86557396Y-95740265D01*
X86593419Y-95743100D01*
X87091780Y-95743099D01*
X87127804Y-95740265D01*
X87281993Y-95695469D01*
X87420198Y-95613735D01*
X87533735Y-95500198D01*
X87615469Y-95361993D01*
X87648451Y-95248465D01*
X87660264Y-95207808D01*
X87660265Y-95207802D01*
X87663099Y-95171788D01*
X87663100Y-95171781D01*
X87663099Y-94884164D01*
X87682783Y-94817126D01*
X87735587Y-94771371D01*
X87775673Y-94762650D01*
X87775481Y-94760945D01*
X87961649Y-94739969D01*
X87961652Y-94739968D01*
X87961655Y-94739968D01*
X88131922Y-94680389D01*
X88284662Y-94584416D01*
X88412216Y-94456862D01*
X88508189Y-94304122D01*
X88567768Y-94133855D01*
X88571636Y-94099526D01*
X88587965Y-93954603D01*
X88587965Y-93954596D01*
X88567769Y-93775350D01*
X88567768Y-93775345D01*
X88542979Y-93704503D01*
X88508189Y-93605078D01*
X88504577Y-93599330D01*
X88412215Y-93452337D01*
X88284662Y-93324784D01*
X88131923Y-93228811D01*
X87961654Y-93169231D01*
X87961649Y-93169230D01*
X87782404Y-93149035D01*
X87782396Y-93149035D01*
X87641322Y-93164929D01*
X87572500Y-93152874D01*
X87521121Y-93105525D01*
X87503497Y-93037914D01*
X87525224Y-92971509D01*
X87529464Y-92965704D01*
X87533730Y-92960202D01*
X87533735Y-92960198D01*
X87615469Y-92821993D01*
X87660265Y-92667804D01*
X87663100Y-92631781D01*
X87663099Y-92344164D01*
X87682783Y-92277126D01*
X87735587Y-92231371D01*
X87775673Y-92222650D01*
X87775481Y-92220945D01*
X87961649Y-92199969D01*
X87961652Y-92199968D01*
X87961655Y-92199968D01*
X88131922Y-92140389D01*
X88284662Y-92044416D01*
X88412216Y-91916862D01*
X88508189Y-91764122D01*
X88567768Y-91593855D01*
X88587965Y-91414600D01*
X88585430Y-91392105D01*
X88567769Y-91235350D01*
X88567768Y-91235345D01*
X88547489Y-91177391D01*
X88508189Y-91065078D01*
X88504193Y-91058719D01*
X88412215Y-90912337D01*
X88284662Y-90784784D01*
X88131923Y-90688811D01*
X87961654Y-90629231D01*
X87961649Y-90629230D01*
X87782404Y-90609035D01*
X87782396Y-90609035D01*
X87641322Y-90624929D01*
X87572500Y-90612874D01*
X87521121Y-90565525D01*
X87503497Y-90497914D01*
X87525224Y-90431509D01*
X87529464Y-90425704D01*
X87533730Y-90420202D01*
X87533735Y-90420198D01*
X87615469Y-90281993D01*
X87648451Y-90168465D01*
X87660264Y-90127808D01*
X87660265Y-90127802D01*
X87663099Y-90091788D01*
X87663100Y-90091781D01*
X87663099Y-89804164D01*
X87682783Y-89737126D01*
X87735587Y-89691371D01*
X87775673Y-89682650D01*
X87775481Y-89680945D01*
X87961649Y-89659969D01*
X87961652Y-89659968D01*
X87961655Y-89659968D01*
X88131922Y-89600389D01*
X88284662Y-89504416D01*
X88412216Y-89376862D01*
X88508189Y-89224122D01*
X88567768Y-89053855D01*
X88571636Y-89019526D01*
X88587965Y-88874603D01*
X88587965Y-88874596D01*
X88567769Y-88695350D01*
X88567768Y-88695345D01*
X88542979Y-88624503D01*
X88508189Y-88525078D01*
X88504577Y-88519330D01*
X88412215Y-88372337D01*
X88284662Y-88244784D01*
X88131923Y-88148811D01*
X87961654Y-88089231D01*
X87961649Y-88089230D01*
X87782404Y-88069035D01*
X87782396Y-88069035D01*
X87612862Y-88088136D01*
X87544040Y-88076081D01*
X87492661Y-88028732D01*
X87475037Y-87961122D01*
X87496764Y-87894716D01*
X87511294Y-87877238D01*
X87533735Y-87854798D01*
X87615469Y-87716593D01*
X87660265Y-87562404D01*
X87663100Y-87526381D01*
X87663099Y-87238764D01*
X87682783Y-87171726D01*
X87735587Y-87125971D01*
X87775673Y-87117250D01*
X87775481Y-87115545D01*
X87961649Y-87094569D01*
X87961652Y-87094568D01*
X87961655Y-87094568D01*
X88131922Y-87034989D01*
X88284662Y-86939016D01*
X88412216Y-86811462D01*
X88508189Y-86658722D01*
X88567768Y-86488455D01*
X88568811Y-86479197D01*
X88587965Y-86309203D01*
X88587965Y-86309196D01*
X88567769Y-86129950D01*
X88567768Y-86129945D01*
X88560093Y-86108011D01*
X88508189Y-85959678D01*
X88412216Y-85806938D01*
X88284662Y-85679384D01*
X88263465Y-85666065D01*
X88131923Y-85583411D01*
X87961654Y-85523831D01*
X87961649Y-85523830D01*
X87782404Y-85503635D01*
X87782395Y-85503635D01*
X87659720Y-85517456D01*
X87590899Y-85505401D01*
X87539520Y-85458052D01*
X87521896Y-85390441D01*
X87539105Y-85331117D01*
X87615469Y-85201993D01*
X87648451Y-85088465D01*
X87660264Y-85047808D01*
X87660265Y-85047802D01*
X87663099Y-85011788D01*
X87663100Y-85011781D01*
X87663099Y-84724164D01*
X87682783Y-84657126D01*
X87735587Y-84611371D01*
X87775673Y-84602650D01*
X87775481Y-84600945D01*
X87961649Y-84579969D01*
X87961652Y-84579968D01*
X87961655Y-84579968D01*
X88131922Y-84520389D01*
X88284662Y-84424416D01*
X88412216Y-84296862D01*
X88508189Y-84144122D01*
X88567768Y-83973855D01*
X88571636Y-83939526D01*
X88587965Y-83794603D01*
X88587965Y-83794596D01*
X88567769Y-83615350D01*
X88567768Y-83615345D01*
X88542979Y-83544503D01*
X88508189Y-83445078D01*
X88504577Y-83439330D01*
X88412215Y-83292337D01*
X88284662Y-83164784D01*
X88131923Y-83068811D01*
X87961654Y-83009231D01*
X87961649Y-83009230D01*
X87782404Y-82989035D01*
X87782396Y-82989035D01*
X87641322Y-83004929D01*
X87572500Y-82992874D01*
X87521121Y-82945525D01*
X87503497Y-82877914D01*
X87525224Y-82811509D01*
X87529464Y-82805704D01*
X87533730Y-82800202D01*
X87533735Y-82800198D01*
X87615469Y-82661993D01*
X87660265Y-82507804D01*
X87663100Y-82471781D01*
X87663099Y-82184164D01*
X87682783Y-82117126D01*
X87735587Y-82071371D01*
X87775673Y-82062650D01*
X87775481Y-82060945D01*
X87961649Y-82039969D01*
X87961652Y-82039968D01*
X87961655Y-82039968D01*
X88131922Y-81980389D01*
X88284662Y-81884416D01*
X88412216Y-81756862D01*
X88508189Y-81604122D01*
X88567768Y-81433855D01*
X88587965Y-81254600D01*
X88585430Y-81232105D01*
X88567769Y-81075350D01*
X88567768Y-81075345D01*
X88547489Y-81017391D01*
X88508189Y-80905078D01*
X88412216Y-80752338D01*
X88284662Y-80624784D01*
X88263465Y-80611465D01*
X88131923Y-80528811D01*
X87961654Y-80469231D01*
X87961649Y-80469230D01*
X87782404Y-80449035D01*
X87782396Y-80449035D01*
X87641322Y-80464929D01*
X87572500Y-80452874D01*
X87521121Y-80405525D01*
X87503497Y-80337914D01*
X87525224Y-80271509D01*
X87529464Y-80265704D01*
X87533730Y-80260202D01*
X87533735Y-80260198D01*
X87615469Y-80121993D01*
X87660265Y-79967804D01*
X87663100Y-79931781D01*
X87663099Y-79644164D01*
X87682783Y-79577126D01*
X87735587Y-79531371D01*
X87775673Y-79522650D01*
X87775481Y-79520945D01*
X87961649Y-79499969D01*
X87961652Y-79499968D01*
X87961655Y-79499968D01*
X88131922Y-79440389D01*
X88284662Y-79344416D01*
X88412216Y-79216862D01*
X88508189Y-79064122D01*
X88567768Y-78893855D01*
X88571673Y-78859197D01*
X88587965Y-78714603D01*
X88587965Y-78714596D01*
X88567769Y-78535350D01*
X88567768Y-78535345D01*
X88558059Y-78507598D01*
X88508189Y-78365078D01*
X88412216Y-78212338D01*
X88284662Y-78084784D01*
X88131923Y-77988811D01*
X87961654Y-77929231D01*
X87961649Y-77929230D01*
X87782404Y-77909035D01*
X87782396Y-77909035D01*
X87641322Y-77924929D01*
X87572500Y-77912874D01*
X87521121Y-77865525D01*
X87503497Y-77797914D01*
X87525224Y-77731509D01*
X87529464Y-77725704D01*
X87533730Y-77720202D01*
X87533735Y-77720198D01*
X87615469Y-77581993D01*
X87660265Y-77427804D01*
X87663100Y-77391781D01*
X87663099Y-77190599D01*
X164658741Y-77190599D01*
X164658741Y-77190600D01*
X164679336Y-77426003D01*
X164679338Y-77426013D01*
X164740494Y-77654255D01*
X164740496Y-77654259D01*
X164740497Y-77654263D01*
X164744400Y-77662632D01*
X164840365Y-77868430D01*
X164840367Y-77868434D01*
X164924657Y-77988811D01*
X164975901Y-78061996D01*
X164975906Y-78062002D01*
X165142997Y-78229093D01*
X165143003Y-78229098D01*
X165328558Y-78359025D01*
X165372183Y-78413602D01*
X165379377Y-78483100D01*
X165347854Y-78545455D01*
X165328558Y-78562175D01*
X165142997Y-78692105D01*
X164975905Y-78859197D01*
X164840365Y-79052769D01*
X164840364Y-79052771D01*
X164740498Y-79266935D01*
X164740494Y-79266944D01*
X164679338Y-79495186D01*
X164679336Y-79495196D01*
X164658741Y-79730599D01*
X164658741Y-79730600D01*
X164679336Y-79966003D01*
X164679338Y-79966013D01*
X164740494Y-80194255D01*
X164740496Y-80194259D01*
X164740497Y-80194263D01*
X164744400Y-80202632D01*
X164840365Y-80408430D01*
X164840367Y-80408434D01*
X164924657Y-80528811D01*
X164975901Y-80601996D01*
X164975906Y-80602002D01*
X165142997Y-80769093D01*
X165143003Y-80769098D01*
X165328558Y-80899025D01*
X165372183Y-80953602D01*
X165379377Y-81023100D01*
X165347854Y-81085455D01*
X165328558Y-81102175D01*
X165142997Y-81232105D01*
X164975905Y-81399197D01*
X164840365Y-81592769D01*
X164840364Y-81592771D01*
X164740498Y-81806935D01*
X164740494Y-81806944D01*
X164679338Y-82035186D01*
X164679336Y-82035196D01*
X164658741Y-82270599D01*
X164658741Y-82270600D01*
X164679336Y-82506003D01*
X164679338Y-82506013D01*
X164740494Y-82734255D01*
X164740496Y-82734259D01*
X164740497Y-82734263D01*
X164744400Y-82742632D01*
X164840365Y-82948430D01*
X164840367Y-82948434D01*
X164924657Y-83068811D01*
X164975905Y-83142001D01*
X165142999Y-83309095D01*
X165277410Y-83403211D01*
X165328994Y-83439330D01*
X165372619Y-83493907D01*
X165379813Y-83563405D01*
X165348290Y-83625760D01*
X165328995Y-83642480D01*
X165143322Y-83772490D01*
X165143320Y-83772491D01*
X164976291Y-83939520D01*
X164976286Y-83939526D01*
X164840800Y-84133020D01*
X164840799Y-84133022D01*
X164740970Y-84347107D01*
X164740967Y-84347113D01*
X164683764Y-84560599D01*
X164683764Y-84560600D01*
X165581388Y-84560600D01*
X165548475Y-84617607D01*
X165514400Y-84744774D01*
X165514400Y-84876426D01*
X165548475Y-85003593D01*
X165581388Y-85060600D01*
X164683764Y-85060600D01*
X164740967Y-85274086D01*
X164740970Y-85274092D01*
X164840799Y-85488178D01*
X164976294Y-85681682D01*
X165143317Y-85848705D01*
X165328995Y-85978719D01*
X165372619Y-86033296D01*
X165379812Y-86102795D01*
X165348290Y-86165149D01*
X165328995Y-86181869D01*
X165142994Y-86312108D01*
X164975905Y-86479197D01*
X164840365Y-86672769D01*
X164840364Y-86672771D01*
X164740498Y-86886935D01*
X164740494Y-86886944D01*
X164679338Y-87115186D01*
X164679336Y-87115196D01*
X164658741Y-87350599D01*
X164658741Y-87350600D01*
X164679336Y-87586003D01*
X164679338Y-87586013D01*
X164740494Y-87814255D01*
X164740496Y-87814259D01*
X164740497Y-87814263D01*
X164778013Y-87894716D01*
X164840365Y-88028430D01*
X164840367Y-88028434D01*
X164888868Y-88097700D01*
X164975905Y-88222001D01*
X165142999Y-88389095D01*
X165277410Y-88483211D01*
X165328994Y-88519330D01*
X165372619Y-88573907D01*
X165379813Y-88643405D01*
X165348290Y-88705760D01*
X165328995Y-88722480D01*
X165143322Y-88852490D01*
X165143320Y-88852491D01*
X164976291Y-89019520D01*
X164976286Y-89019526D01*
X164840800Y-89213020D01*
X164840799Y-89213022D01*
X164740970Y-89427107D01*
X164740967Y-89427113D01*
X164683764Y-89640599D01*
X164683764Y-89640600D01*
X165581388Y-89640600D01*
X165548475Y-89697607D01*
X165514400Y-89824774D01*
X165514400Y-89956426D01*
X165548475Y-90083593D01*
X165581388Y-90140600D01*
X164683764Y-90140600D01*
X164740967Y-90354086D01*
X164740970Y-90354092D01*
X164840799Y-90568178D01*
X164976294Y-90761682D01*
X165143317Y-90928705D01*
X165328995Y-91058719D01*
X165372619Y-91113296D01*
X165379812Y-91182795D01*
X165348290Y-91245149D01*
X165328995Y-91261869D01*
X165142994Y-91392108D01*
X164975905Y-91559197D01*
X164840365Y-91752769D01*
X164840364Y-91752771D01*
X164740498Y-91966935D01*
X164740494Y-91966944D01*
X164679338Y-92195186D01*
X164679336Y-92195196D01*
X164658741Y-92430599D01*
X164658741Y-92430600D01*
X164679336Y-92666003D01*
X164679338Y-92666013D01*
X164740494Y-92894255D01*
X164740496Y-92894259D01*
X164740497Y-92894263D01*
X164744400Y-92902632D01*
X164840365Y-93108430D01*
X164840367Y-93108434D01*
X164924657Y-93228811D01*
X164975905Y-93302001D01*
X165142999Y-93469095D01*
X165277410Y-93563211D01*
X165328994Y-93599330D01*
X165372619Y-93653907D01*
X165379813Y-93723405D01*
X165348290Y-93785760D01*
X165328995Y-93802480D01*
X165143322Y-93932490D01*
X165143320Y-93932491D01*
X164976291Y-94099520D01*
X164976286Y-94099526D01*
X164840800Y-94293020D01*
X164840799Y-94293022D01*
X164740970Y-94507107D01*
X164740967Y-94507113D01*
X164683764Y-94720599D01*
X164683764Y-94720600D01*
X165581388Y-94720600D01*
X165548475Y-94777607D01*
X165514400Y-94904774D01*
X165514400Y-95036426D01*
X165548475Y-95163593D01*
X165581388Y-95220600D01*
X164683764Y-95220600D01*
X164740967Y-95434086D01*
X164740970Y-95434092D01*
X164840799Y-95648178D01*
X164976294Y-95841682D01*
X165143317Y-96008705D01*
X165336821Y-96144200D01*
X165550907Y-96244029D01*
X165550916Y-96244033D01*
X165764400Y-96301234D01*
X165764400Y-95403612D01*
X165821407Y-95436525D01*
X165948574Y-95470600D01*
X166080226Y-95470600D01*
X166207393Y-95436525D01*
X166264400Y-95403612D01*
X166264400Y-96301233D01*
X166477883Y-96244033D01*
X166477892Y-96244029D01*
X166691978Y-96144200D01*
X166885482Y-96008705D01*
X167052505Y-95841682D01*
X167182825Y-95655568D01*
X167237402Y-95611944D01*
X167306901Y-95604751D01*
X167369255Y-95636273D01*
X167385975Y-95655568D01*
X167516294Y-95841682D01*
X167683317Y-96008705D01*
X167876821Y-96144200D01*
X168090907Y-96244029D01*
X168090916Y-96244033D01*
X168304400Y-96301234D01*
X168304400Y-95403612D01*
X168361407Y-95436525D01*
X168488574Y-95470600D01*
X168620226Y-95470600D01*
X168747393Y-95436525D01*
X168804400Y-95403612D01*
X168804400Y-96301233D01*
X169017883Y-96244033D01*
X169017892Y-96244029D01*
X169231978Y-96144200D01*
X169425482Y-96008705D01*
X169592505Y-95841682D01*
X169728000Y-95648178D01*
X169827829Y-95434092D01*
X169827832Y-95434086D01*
X169885036Y-95220600D01*
X168987412Y-95220600D01*
X169020325Y-95163593D01*
X169054400Y-95036426D01*
X169054400Y-94904774D01*
X169020325Y-94777607D01*
X168987412Y-94720600D01*
X169885036Y-94720600D01*
X169885035Y-94720599D01*
X169827832Y-94507113D01*
X169827829Y-94507107D01*
X169728000Y-94293022D01*
X169727999Y-94293020D01*
X169592513Y-94099526D01*
X169592508Y-94099520D01*
X169425478Y-93932490D01*
X169239805Y-93802479D01*
X169196180Y-93747902D01*
X169188988Y-93678404D01*
X169220510Y-93616049D01*
X169239806Y-93599330D01*
X169240242Y-93599025D01*
X169425801Y-93469095D01*
X169592895Y-93302001D01*
X169728435Y-93108430D01*
X169828303Y-92894263D01*
X169889463Y-92666008D01*
X169910059Y-92430600D01*
X169889463Y-92195192D01*
X169828303Y-91966937D01*
X169728435Y-91752771D01*
X169722825Y-91744758D01*
X169592894Y-91559197D01*
X169425802Y-91392106D01*
X169425801Y-91392105D01*
X169239805Y-91261869D01*
X169196181Y-91207292D01*
X169188988Y-91137793D01*
X169220510Y-91075439D01*
X169239805Y-91058719D01*
X169425482Y-90928705D01*
X169592505Y-90761682D01*
X169728000Y-90568178D01*
X169827829Y-90354092D01*
X169827832Y-90354086D01*
X169885036Y-90140600D01*
X168987412Y-90140600D01*
X169020325Y-90083593D01*
X169054400Y-89956426D01*
X169054400Y-89824774D01*
X169020325Y-89697607D01*
X168987412Y-89640600D01*
X169885036Y-89640600D01*
X169885035Y-89640599D01*
X169827832Y-89427113D01*
X169827829Y-89427107D01*
X169728000Y-89213022D01*
X169727999Y-89213020D01*
X169592513Y-89019526D01*
X169592508Y-89019520D01*
X169425478Y-88852490D01*
X169239805Y-88722479D01*
X169196180Y-88667902D01*
X169188988Y-88598404D01*
X169220510Y-88536049D01*
X169239806Y-88519330D01*
X169240242Y-88519025D01*
X169425801Y-88389095D01*
X169592895Y-88222001D01*
X169728435Y-88028430D01*
X169828303Y-87814263D01*
X169889463Y-87586008D01*
X169910059Y-87350600D01*
X169889463Y-87115192D01*
X169828303Y-86886937D01*
X169728435Y-86672771D01*
X169722825Y-86664758D01*
X169592894Y-86479197D01*
X169425802Y-86312106D01*
X169425801Y-86312105D01*
X169239805Y-86181869D01*
X169196181Y-86127292D01*
X169188988Y-86057793D01*
X169220510Y-85995439D01*
X169239805Y-85978719D01*
X169425482Y-85848705D01*
X169592505Y-85681682D01*
X169728000Y-85488178D01*
X169827829Y-85274092D01*
X169827832Y-85274086D01*
X169885036Y-85060600D01*
X168987412Y-85060600D01*
X169020325Y-85003593D01*
X169054400Y-84876426D01*
X169054400Y-84744774D01*
X169020325Y-84617607D01*
X168987412Y-84560600D01*
X169885036Y-84560600D01*
X169885035Y-84560599D01*
X169827832Y-84347113D01*
X169827829Y-84347107D01*
X169728000Y-84133022D01*
X169727999Y-84133020D01*
X169592513Y-83939526D01*
X169592508Y-83939520D01*
X169425478Y-83772490D01*
X169239805Y-83642479D01*
X169196180Y-83587902D01*
X169188988Y-83518404D01*
X169220510Y-83456049D01*
X169239806Y-83439330D01*
X169240242Y-83439025D01*
X169425801Y-83309095D01*
X169592895Y-83142001D01*
X169728435Y-82948430D01*
X169828303Y-82734263D01*
X169889463Y-82506008D01*
X169910059Y-82270600D01*
X169889463Y-82035192D01*
X169828303Y-81806937D01*
X169728435Y-81592771D01*
X169722825Y-81584758D01*
X169592894Y-81399197D01*
X169425802Y-81232106D01*
X169425796Y-81232101D01*
X169240242Y-81102175D01*
X169196617Y-81047598D01*
X169189423Y-80978100D01*
X169220946Y-80915745D01*
X169240242Y-80899025D01*
X169262426Y-80883491D01*
X169425801Y-80769095D01*
X169592895Y-80602001D01*
X169728435Y-80408430D01*
X169828303Y-80194263D01*
X169889463Y-79966008D01*
X169910059Y-79730600D01*
X169889463Y-79495192D01*
X169828303Y-79266937D01*
X169728435Y-79052771D01*
X169722824Y-79044758D01*
X169592896Y-78859200D01*
X169592893Y-78859197D01*
X169470967Y-78737271D01*
X169437484Y-78675951D01*
X169442468Y-78606259D01*
X169484339Y-78550325D01*
X169515315Y-78533410D01*
X169646731Y-78484396D01*
X169761946Y-78398146D01*
X169848196Y-78282931D01*
X169898491Y-78148083D01*
X169904900Y-78088473D01*
X169904899Y-76292728D01*
X169898491Y-76233117D01*
X169897210Y-76229683D01*
X169848197Y-76098271D01*
X169848193Y-76098264D01*
X169761947Y-75983055D01*
X169761944Y-75983052D01*
X169646735Y-75896806D01*
X169646728Y-75896802D01*
X169511882Y-75846508D01*
X169511883Y-75846508D01*
X169452283Y-75840101D01*
X169452281Y-75840100D01*
X169452273Y-75840100D01*
X169452264Y-75840100D01*
X167656529Y-75840100D01*
X167656523Y-75840101D01*
X167596916Y-75846508D01*
X167462071Y-75896802D01*
X167462064Y-75896806D01*
X167346855Y-75983052D01*
X167346852Y-75983055D01*
X167260606Y-76098264D01*
X167260603Y-76098269D01*
X167211589Y-76229683D01*
X167169717Y-76285616D01*
X167104253Y-76310033D01*
X167035980Y-76295181D01*
X167007726Y-76274030D01*
X166885802Y-76152106D01*
X166885795Y-76152101D01*
X166881656Y-76149203D01*
X166846921Y-76124881D01*
X166692234Y-76016567D01*
X166692230Y-76016565D01*
X166678848Y-76010325D01*
X166478063Y-75916697D01*
X166478059Y-75916696D01*
X166478055Y-75916694D01*
X166249813Y-75855538D01*
X166249803Y-75855536D01*
X166014401Y-75834941D01*
X166014399Y-75834941D01*
X165778996Y-75855536D01*
X165778986Y-75855538D01*
X165550744Y-75916694D01*
X165550735Y-75916698D01*
X165336571Y-76016564D01*
X165336569Y-76016565D01*
X165142997Y-76152105D01*
X164975905Y-76319197D01*
X164840365Y-76512769D01*
X164840364Y-76512771D01*
X164740498Y-76726935D01*
X164740494Y-76726944D01*
X164679338Y-76955186D01*
X164679336Y-76955196D01*
X164658741Y-77190599D01*
X87663099Y-77190599D01*
X87663099Y-77078764D01*
X87682783Y-77011726D01*
X87735587Y-76965971D01*
X87775673Y-76957250D01*
X87775481Y-76955545D01*
X87961649Y-76934569D01*
X87961652Y-76934568D01*
X87961655Y-76934568D01*
X88131922Y-76874989D01*
X88284662Y-76779016D01*
X88412216Y-76651462D01*
X88508189Y-76498722D01*
X88567768Y-76328455D01*
X88571517Y-76295181D01*
X88587965Y-76149203D01*
X88587965Y-76149196D01*
X88567769Y-75969950D01*
X88567768Y-75969945D01*
X88558827Y-75944393D01*
X88508189Y-75799678D01*
X88412216Y-75646938D01*
X88284662Y-75519384D01*
X88131923Y-75423411D01*
X87961654Y-75363831D01*
X87961649Y-75363830D01*
X87782404Y-75343635D01*
X87782396Y-75343635D01*
X87603150Y-75363830D01*
X87603145Y-75363831D01*
X87432874Y-75423412D01*
X87401826Y-75442921D01*
X87334589Y-75461921D01*
X87286608Y-75451728D01*
X87281991Y-75449730D01*
X87127808Y-75404935D01*
X87127802Y-75404934D01*
X87091781Y-75402100D01*
X86593430Y-75402100D01*
X86593408Y-75402101D01*
X86557394Y-75404935D01*
X86403211Y-75449729D01*
X86403206Y-75449731D01*
X86265007Y-75531461D01*
X86264999Y-75531468D01*
X86263647Y-75532820D01*
X86262327Y-75533540D01*
X86258841Y-75536245D01*
X86258404Y-75535682D01*
X86202321Y-75566300D01*
X86132630Y-75561311D01*
X86088291Y-75532813D01*
X86074862Y-75519384D01*
X85922123Y-75423411D01*
X85751854Y-75363831D01*
X85751849Y-75363830D01*
X85572604Y-75343635D01*
X85572596Y-75343635D01*
X85393350Y-75363830D01*
X85393337Y-75363833D01*
X85223078Y-75423410D01*
X85209908Y-75431685D01*
X85142670Y-75450682D01*
X85109345Y-75445766D01*
X84968804Y-75404935D01*
X84968801Y-75404934D01*
X84968802Y-75404934D01*
X84932781Y-75402100D01*
X84434430Y-75402100D01*
X84434408Y-75402101D01*
X84398394Y-75404935D01*
X84244211Y-75449729D01*
X84244206Y-75449731D01*
X84106004Y-75531463D01*
X84105996Y-75531469D01*
X83992469Y-75644996D01*
X83992463Y-75645004D01*
X83910731Y-75783206D01*
X83910729Y-75783211D01*
X83865935Y-75937391D01*
X83865934Y-75937397D01*
X83863100Y-75973411D01*
X83863100Y-76371790D01*
X83863138Y-76372733D01*
X83863100Y-76372880D01*
X83863101Y-76374214D01*
X83862766Y-76374214D01*
X83846100Y-76440494D01*
X83795133Y-76488286D01*
X83739234Y-76501600D01*
X83245163Y-76501600D01*
X83178124Y-76481915D01*
X83143588Y-76448723D01*
X83052896Y-76319200D01*
X83007726Y-76274030D01*
X82930967Y-76197271D01*
X82897484Y-76135951D01*
X82902468Y-76066259D01*
X82944339Y-76010325D01*
X82975315Y-75993410D01*
X83106731Y-75944396D01*
X83221946Y-75858146D01*
X83308196Y-75742931D01*
X83358491Y-75608083D01*
X83364900Y-75548473D01*
X83364899Y-73752728D01*
X83358491Y-73693117D01*
X83357210Y-73689683D01*
X83308197Y-73558271D01*
X83308193Y-73558264D01*
X83221947Y-73443055D01*
X83221944Y-73443052D01*
X83106735Y-73356806D01*
X83106728Y-73356802D01*
X82971882Y-73306508D01*
X82971883Y-73306508D01*
X82912283Y-73300101D01*
X82912281Y-73300100D01*
X82912273Y-73300100D01*
X82912264Y-73300100D01*
X81116529Y-73300100D01*
X81116523Y-73300101D01*
X81056916Y-73306508D01*
X80922071Y-73356802D01*
X80922064Y-73356806D01*
X80806855Y-73443052D01*
X80806852Y-73443055D01*
X80720606Y-73558264D01*
X80720603Y-73558269D01*
X80671589Y-73689683D01*
X80629717Y-73745616D01*
X80564253Y-73770033D01*
X80495980Y-73755181D01*
X80467726Y-73734030D01*
X80345802Y-73612106D01*
X80345795Y-73612101D01*
X80152234Y-73476567D01*
X80152230Y-73476565D01*
X80152228Y-73476564D01*
X79938063Y-73376697D01*
X79938059Y-73376696D01*
X79938055Y-73376694D01*
X79709813Y-73315538D01*
X79709803Y-73315536D01*
X79474401Y-73294941D01*
X79474399Y-73294941D01*
X79238996Y-73315536D01*
X79238986Y-73315538D01*
X79010744Y-73376694D01*
X79010735Y-73376698D01*
X78796571Y-73476564D01*
X78796569Y-73476565D01*
X78602997Y-73612105D01*
X78435905Y-73779197D01*
X78300365Y-73972769D01*
X78300364Y-73972771D01*
X78200498Y-74186935D01*
X78200494Y-74186944D01*
X78139338Y-74415186D01*
X78139336Y-74415196D01*
X78118741Y-74650599D01*
X74014400Y-74650599D01*
X74014400Y-64081146D01*
X74014402Y-64080598D01*
X79761882Y-64080598D01*
X79761882Y-64080600D01*
X79781979Y-64380827D01*
X79781981Y-64380837D01*
X79841916Y-64675707D01*
X79940620Y-64959960D01*
X79940622Y-64959963D01*
X80076326Y-65228515D01*
X80076329Y-65228520D01*
X80076330Y-65228521D01*
X80246625Y-65476598D01*
X80448467Y-65699763D01*
X80678252Y-65894035D01*
X80931881Y-66055945D01*
X81204828Y-66182606D01*
X81492221Y-66271756D01*
X81788933Y-66321805D01*
X82089668Y-66331860D01*
X82389060Y-66301741D01*
X82681766Y-66231986D01*
X82962563Y-66123839D01*
X83226440Y-65979230D01*
X83468688Y-65800740D01*
X83684985Y-65591555D01*
X83871469Y-65355406D01*
X84024815Y-65096508D01*
X84142284Y-64819482D01*
X84221781Y-64529270D01*
X84261888Y-64231052D01*
X84264400Y-64080600D01*
X84264400Y-64080598D01*
X163761882Y-64080598D01*
X163761882Y-64080600D01*
X163781979Y-64380827D01*
X163781981Y-64380837D01*
X163841916Y-64675707D01*
X163940620Y-64959960D01*
X163940622Y-64959963D01*
X164076326Y-65228515D01*
X164076329Y-65228520D01*
X164076330Y-65228521D01*
X164246625Y-65476598D01*
X164448467Y-65699763D01*
X164678252Y-65894035D01*
X164931881Y-66055945D01*
X165204828Y-66182606D01*
X165492221Y-66271756D01*
X165788933Y-66321805D01*
X166089668Y-66331860D01*
X166389060Y-66301741D01*
X166681766Y-66231986D01*
X166962563Y-66123839D01*
X167226440Y-65979230D01*
X167468688Y-65800740D01*
X167684985Y-65591555D01*
X167871469Y-65355406D01*
X168024815Y-65096508D01*
X168142284Y-64819482D01*
X168221781Y-64529270D01*
X168261888Y-64231052D01*
X168264400Y-64080600D01*
X168261888Y-63930148D01*
X168221781Y-63631930D01*
X168142284Y-63341718D01*
X168024815Y-63064692D01*
X167946626Y-62932684D01*
X167871469Y-62805793D01*
X167684984Y-62569644D01*
X167468695Y-62360467D01*
X167468688Y-62360460D01*
X167226440Y-62181970D01*
X167087532Y-62105846D01*
X166962571Y-62037365D01*
X166962566Y-62037362D01*
X166962563Y-62037361D01*
X166962559Y-62037359D01*
X166962556Y-62037358D01*
X166681770Y-61929215D01*
X166681766Y-61929214D01*
X166389060Y-61859459D01*
X166389057Y-61859458D01*
X166089672Y-61829340D01*
X166089668Y-61829340D01*
X165788933Y-61839395D01*
X165492220Y-61889444D01*
X165364014Y-61929214D01*
X165204828Y-61978594D01*
X165204821Y-61978597D01*
X165204819Y-61978598D01*
X164931883Y-62105253D01*
X164931881Y-62105255D01*
X164678255Y-62267162D01*
X164448468Y-62461435D01*
X164246627Y-62684599D01*
X164246626Y-62684600D01*
X164076326Y-62932684D01*
X163940622Y-63201236D01*
X163940620Y-63201239D01*
X163841916Y-63485492D01*
X163781981Y-63780362D01*
X163781979Y-63780372D01*
X163761882Y-64080598D01*
X84264400Y-64080598D01*
X84261888Y-63930148D01*
X84221781Y-63631930D01*
X84142284Y-63341718D01*
X84024815Y-63064692D01*
X83946626Y-62932684D01*
X83871469Y-62805793D01*
X83684984Y-62569644D01*
X83468695Y-62360467D01*
X83468688Y-62360460D01*
X83226440Y-62181970D01*
X83087532Y-62105846D01*
X82962571Y-62037365D01*
X82962566Y-62037362D01*
X82962563Y-62037361D01*
X82962559Y-62037359D01*
X82962556Y-62037358D01*
X82681770Y-61929215D01*
X82681766Y-61929214D01*
X82389060Y-61859459D01*
X82389057Y-61859458D01*
X82089672Y-61829340D01*
X82089668Y-61829340D01*
X81788933Y-61839395D01*
X81492220Y-61889444D01*
X81364014Y-61929214D01*
X81204828Y-61978594D01*
X81204821Y-61978597D01*
X81204819Y-61978598D01*
X80931883Y-62105253D01*
X80931881Y-62105255D01*
X80678255Y-62267162D01*
X80448468Y-62461435D01*
X80246627Y-62684599D01*
X80246626Y-62684600D01*
X80076326Y-62932684D01*
X79940622Y-63201236D01*
X79940620Y-63201239D01*
X79841916Y-63485492D01*
X79781981Y-63780362D01*
X79781979Y-63780372D01*
X79761882Y-64080598D01*
X74014402Y-64080598D01*
X74014405Y-64080040D01*
X74014419Y-64078381D01*
X74016914Y-63798831D01*
X74017225Y-63791105D01*
X74017993Y-63780369D01*
X74057387Y-63229561D01*
X74058328Y-63220809D01*
X74138372Y-62664085D01*
X74139939Y-62655404D01*
X74259489Y-62105838D01*
X74261677Y-62097269D01*
X74420133Y-61557620D01*
X74422909Y-61549277D01*
X74619472Y-61022271D01*
X74622833Y-61014158D01*
X74856487Y-60502526D01*
X74860427Y-60494655D01*
X75129978Y-60001010D01*
X75134491Y-59993406D01*
X75438538Y-59520300D01*
X75443586Y-59513029D01*
X75780628Y-59062793D01*
X75786167Y-59055917D01*
X76154494Y-58630845D01*
X76160500Y-58624395D01*
X76558195Y-58226700D01*
X76564645Y-58220694D01*
X76989717Y-57852367D01*
X76996593Y-57846828D01*
X77446829Y-57509786D01*
X77454100Y-57504738D01*
X77927214Y-57200686D01*
X77934810Y-57196178D01*
X78428455Y-56926627D01*
X78436326Y-56922687D01*
X78947958Y-56689033D01*
X78956071Y-56685672D01*
X79483077Y-56489109D01*
X79491420Y-56486333D01*
X80031077Y-56327874D01*
X80039638Y-56325689D01*
X80589204Y-56206139D01*
X80597885Y-56204572D01*
X81154609Y-56124528D01*
X81163361Y-56123587D01*
X81724918Y-56083424D01*
X81732631Y-56083114D01*
X82006386Y-56080671D01*
X82013841Y-56080605D01*
X82014947Y-56080600D01*
X166013853Y-56080600D01*
X166014959Y-56080605D01*
G37*
%TD.AperFunction*%
%TD*%
M02*
