%TF.GenerationSoftware,KiCad,Pcbnew,8.0.3*%
%TF.CreationDate,2025-07-14T16:25:52+02:00*%
%TF.ProjectId,Cmes,436d6573-2e6b-4696-9361-645f70636258,rev?*%
%TF.SameCoordinates,Original*%
%TF.FileFunction,Legend,Top*%
%TF.FilePolarity,Positive*%
%FSLAX46Y46*%
G04 Gerber Fmt 4.6, Leading zero omitted, Abs format (unit mm)*
G04 Created by KiCad (PCBNEW 8.0.3) date 2025-07-14 16:25:52*
%MOMM*%
%LPD*%
G01*
G04 APERTURE LIST*
G04 Aperture macros list*
%AMRoundRect*
0 Rectangle with rounded corners*
0 $1 Rounding radius*
0 $2 $3 $4 $5 $6 $7 $8 $9 X,Y pos of 4 corners*
0 Add a 4 corners polygon primitive as box body*
4,1,4,$2,$3,$4,$5,$6,$7,$8,$9,$2,$3,0*
0 Add four circle primitives for the rounded corners*
1,1,$1+$1,$2,$3*
1,1,$1+$1,$4,$5*
1,1,$1+$1,$6,$7*
1,1,$1+$1,$8,$9*
0 Add four rect primitives between the rounded corners*
20,1,$1+$1,$2,$3,$4,$5,0*
20,1,$1+$1,$4,$5,$6,$7,0*
20,1,$1+$1,$6,$7,$8,$9,0*
20,1,$1+$1,$8,$9,$2,$3,0*%
G04 Aperture macros list end*
%ADD10C,0.150000*%
%ADD11C,0.080000*%
%ADD12C,0.120000*%
%ADD13C,0.250000*%
%ADD14R,1.800000X1.100000*%
%ADD15RoundRect,0.200000X0.200000X0.275000X-0.200000X0.275000X-0.200000X-0.275000X0.200000X-0.275000X0*%
%ADD16RoundRect,0.150000X-0.512500X-0.150000X0.512500X-0.150000X0.512500X0.150000X-0.512500X0.150000X0*%
%ADD17RoundRect,0.225000X0.250000X-0.225000X0.250000X0.225000X-0.250000X0.225000X-0.250000X-0.225000X0*%
%ADD18R,1.500000X0.760000*%
%ADD19RoundRect,0.225000X0.225000X0.250000X-0.225000X0.250000X-0.225000X-0.250000X0.225000X-0.250000X0*%
%ADD20RoundRect,0.200000X0.275000X-0.200000X0.275000X0.200000X-0.275000X0.200000X-0.275000X-0.200000X0*%
%ADD21R,0.760000X1.500000*%
%ADD22RoundRect,0.150000X-0.150000X0.587500X-0.150000X-0.587500X0.150000X-0.587500X0.150000X0.587500X0*%
%ADD23R,1.700000X1.700000*%
%ADD24O,1.700000X1.700000*%
G04 APERTURE END LIST*
D10*
X103666667Y-81007200D02*
X103809524Y-81054819D01*
X103809524Y-81054819D02*
X104047619Y-81054819D01*
X104047619Y-81054819D02*
X104142857Y-81007200D01*
X104142857Y-81007200D02*
X104190476Y-80959580D01*
X104190476Y-80959580D02*
X104238095Y-80864342D01*
X104238095Y-80864342D02*
X104238095Y-80769104D01*
X104238095Y-80769104D02*
X104190476Y-80673866D01*
X104190476Y-80673866D02*
X104142857Y-80626247D01*
X104142857Y-80626247D02*
X104047619Y-80578628D01*
X104047619Y-80578628D02*
X103857143Y-80531009D01*
X103857143Y-80531009D02*
X103761905Y-80483390D01*
X103761905Y-80483390D02*
X103714286Y-80435771D01*
X103714286Y-80435771D02*
X103666667Y-80340533D01*
X103666667Y-80340533D02*
X103666667Y-80245295D01*
X103666667Y-80245295D02*
X103714286Y-80150057D01*
X103714286Y-80150057D02*
X103761905Y-80102438D01*
X103761905Y-80102438D02*
X103857143Y-80054819D01*
X103857143Y-80054819D02*
X104095238Y-80054819D01*
X104095238Y-80054819D02*
X104238095Y-80102438D01*
X104571429Y-80054819D02*
X104809524Y-81054819D01*
X104809524Y-81054819D02*
X105000000Y-80340533D01*
X105000000Y-80340533D02*
X105190476Y-81054819D01*
X105190476Y-81054819D02*
X105428572Y-80054819D01*
X106238095Y-80388152D02*
X106238095Y-81054819D01*
X106000000Y-80007200D02*
X105761905Y-80721485D01*
X105761905Y-80721485D02*
X106380952Y-80721485D01*
X138333333Y-92884819D02*
X138000000Y-92408628D01*
X137761905Y-92884819D02*
X137761905Y-91884819D01*
X137761905Y-91884819D02*
X138142857Y-91884819D01*
X138142857Y-91884819D02*
X138238095Y-91932438D01*
X138238095Y-91932438D02*
X138285714Y-91980057D01*
X138285714Y-91980057D02*
X138333333Y-92075295D01*
X138333333Y-92075295D02*
X138333333Y-92218152D01*
X138333333Y-92218152D02*
X138285714Y-92313390D01*
X138285714Y-92313390D02*
X138238095Y-92361009D01*
X138238095Y-92361009D02*
X138142857Y-92408628D01*
X138142857Y-92408628D02*
X137761905Y-92408628D01*
X138666667Y-91884819D02*
X139285714Y-91884819D01*
X139285714Y-91884819D02*
X138952381Y-92265771D01*
X138952381Y-92265771D02*
X139095238Y-92265771D01*
X139095238Y-92265771D02*
X139190476Y-92313390D01*
X139190476Y-92313390D02*
X139238095Y-92361009D01*
X139238095Y-92361009D02*
X139285714Y-92456247D01*
X139285714Y-92456247D02*
X139285714Y-92694342D01*
X139285714Y-92694342D02*
X139238095Y-92789580D01*
X139238095Y-92789580D02*
X139190476Y-92837200D01*
X139190476Y-92837200D02*
X139095238Y-92884819D01*
X139095238Y-92884819D02*
X138809524Y-92884819D01*
X138809524Y-92884819D02*
X138714286Y-92837200D01*
X138714286Y-92837200D02*
X138666667Y-92789580D01*
X138333333Y-94884819D02*
X138000000Y-94408628D01*
X137761905Y-94884819D02*
X137761905Y-93884819D01*
X137761905Y-93884819D02*
X138142857Y-93884819D01*
X138142857Y-93884819D02*
X138238095Y-93932438D01*
X138238095Y-93932438D02*
X138285714Y-93980057D01*
X138285714Y-93980057D02*
X138333333Y-94075295D01*
X138333333Y-94075295D02*
X138333333Y-94218152D01*
X138333333Y-94218152D02*
X138285714Y-94313390D01*
X138285714Y-94313390D02*
X138238095Y-94361009D01*
X138238095Y-94361009D02*
X138142857Y-94408628D01*
X138142857Y-94408628D02*
X137761905Y-94408628D01*
X139190476Y-94218152D02*
X139190476Y-94884819D01*
X138952381Y-93837200D02*
X138714286Y-94551485D01*
X138714286Y-94551485D02*
X139333333Y-94551485D01*
X158238095Y-84054819D02*
X158238095Y-84864342D01*
X158238095Y-84864342D02*
X158285714Y-84959580D01*
X158285714Y-84959580D02*
X158333333Y-85007200D01*
X158333333Y-85007200D02*
X158428571Y-85054819D01*
X158428571Y-85054819D02*
X158619047Y-85054819D01*
X158619047Y-85054819D02*
X158714285Y-85007200D01*
X158714285Y-85007200D02*
X158761904Y-84959580D01*
X158761904Y-84959580D02*
X158809523Y-84864342D01*
X158809523Y-84864342D02*
X158809523Y-84054819D01*
X159809523Y-85054819D02*
X159238095Y-85054819D01*
X159523809Y-85054819D02*
X159523809Y-84054819D01*
X159523809Y-84054819D02*
X159428571Y-84197676D01*
X159428571Y-84197676D02*
X159333333Y-84292914D01*
X159333333Y-84292914D02*
X159238095Y-84340533D01*
X120929580Y-83666666D02*
X120977200Y-83714285D01*
X120977200Y-83714285D02*
X121024819Y-83857142D01*
X121024819Y-83857142D02*
X121024819Y-83952380D01*
X121024819Y-83952380D02*
X120977200Y-84095237D01*
X120977200Y-84095237D02*
X120881961Y-84190475D01*
X120881961Y-84190475D02*
X120786723Y-84238094D01*
X120786723Y-84238094D02*
X120596247Y-84285713D01*
X120596247Y-84285713D02*
X120453390Y-84285713D01*
X120453390Y-84285713D02*
X120262914Y-84238094D01*
X120262914Y-84238094D02*
X120167676Y-84190475D01*
X120167676Y-84190475D02*
X120072438Y-84095237D01*
X120072438Y-84095237D02*
X120024819Y-83952380D01*
X120024819Y-83952380D02*
X120024819Y-83857142D01*
X120024819Y-83857142D02*
X120072438Y-83714285D01*
X120072438Y-83714285D02*
X120120057Y-83666666D01*
X120358152Y-82809523D02*
X121024819Y-82809523D01*
X119977200Y-83047618D02*
X120691485Y-83285713D01*
X120691485Y-83285713D02*
X120691485Y-82666666D01*
X111658333Y-94884819D02*
X111325000Y-94408628D01*
X111086905Y-94884819D02*
X111086905Y-93884819D01*
X111086905Y-93884819D02*
X111467857Y-93884819D01*
X111467857Y-93884819D02*
X111563095Y-93932438D01*
X111563095Y-93932438D02*
X111610714Y-93980057D01*
X111610714Y-93980057D02*
X111658333Y-94075295D01*
X111658333Y-94075295D02*
X111658333Y-94218152D01*
X111658333Y-94218152D02*
X111610714Y-94313390D01*
X111610714Y-94313390D02*
X111563095Y-94361009D01*
X111563095Y-94361009D02*
X111467857Y-94408628D01*
X111467857Y-94408628D02*
X111086905Y-94408628D01*
X111991667Y-93884819D02*
X112658333Y-93884819D01*
X112658333Y-93884819D02*
X112229762Y-94884819D01*
X122929580Y-83666666D02*
X122977200Y-83714285D01*
X122977200Y-83714285D02*
X123024819Y-83857142D01*
X123024819Y-83857142D02*
X123024819Y-83952380D01*
X123024819Y-83952380D02*
X122977200Y-84095237D01*
X122977200Y-84095237D02*
X122881961Y-84190475D01*
X122881961Y-84190475D02*
X122786723Y-84238094D01*
X122786723Y-84238094D02*
X122596247Y-84285713D01*
X122596247Y-84285713D02*
X122453390Y-84285713D01*
X122453390Y-84285713D02*
X122262914Y-84238094D01*
X122262914Y-84238094D02*
X122167676Y-84190475D01*
X122167676Y-84190475D02*
X122072438Y-84095237D01*
X122072438Y-84095237D02*
X122024819Y-83952380D01*
X122024819Y-83952380D02*
X122024819Y-83857142D01*
X122024819Y-83857142D02*
X122072438Y-83714285D01*
X122072438Y-83714285D02*
X122120057Y-83666666D01*
X122024819Y-83333332D02*
X122024819Y-82714285D01*
X122024819Y-82714285D02*
X122405771Y-83047618D01*
X122405771Y-83047618D02*
X122405771Y-82904761D01*
X122405771Y-82904761D02*
X122453390Y-82809523D01*
X122453390Y-82809523D02*
X122501009Y-82761904D01*
X122501009Y-82761904D02*
X122596247Y-82714285D01*
X122596247Y-82714285D02*
X122834342Y-82714285D01*
X122834342Y-82714285D02*
X122929580Y-82761904D01*
X122929580Y-82761904D02*
X122977200Y-82809523D01*
X122977200Y-82809523D02*
X123024819Y-82904761D01*
X123024819Y-82904761D02*
X123024819Y-83190475D01*
X123024819Y-83190475D02*
X122977200Y-83285713D01*
X122977200Y-83285713D02*
X122929580Y-83333332D01*
X112642200Y-93333332D02*
X112689819Y-93190475D01*
X112689819Y-93190475D02*
X112689819Y-92952380D01*
X112689819Y-92952380D02*
X112642200Y-92857142D01*
X112642200Y-92857142D02*
X112594580Y-92809523D01*
X112594580Y-92809523D02*
X112499342Y-92761904D01*
X112499342Y-92761904D02*
X112404104Y-92761904D01*
X112404104Y-92761904D02*
X112308866Y-92809523D01*
X112308866Y-92809523D02*
X112261247Y-92857142D01*
X112261247Y-92857142D02*
X112213628Y-92952380D01*
X112213628Y-92952380D02*
X112166009Y-93142856D01*
X112166009Y-93142856D02*
X112118390Y-93238094D01*
X112118390Y-93238094D02*
X112070771Y-93285713D01*
X112070771Y-93285713D02*
X111975533Y-93333332D01*
X111975533Y-93333332D02*
X111880295Y-93333332D01*
X111880295Y-93333332D02*
X111785057Y-93285713D01*
X111785057Y-93285713D02*
X111737438Y-93238094D01*
X111737438Y-93238094D02*
X111689819Y-93142856D01*
X111689819Y-93142856D02*
X111689819Y-92904761D01*
X111689819Y-92904761D02*
X111737438Y-92761904D01*
X111689819Y-92428570D02*
X112689819Y-92190475D01*
X112689819Y-92190475D02*
X111975533Y-91999999D01*
X111975533Y-91999999D02*
X112689819Y-91809523D01*
X112689819Y-91809523D02*
X111689819Y-91571428D01*
X111689819Y-91285713D02*
X111689819Y-90666666D01*
X111689819Y-90666666D02*
X112070771Y-90999999D01*
X112070771Y-90999999D02*
X112070771Y-90857142D01*
X112070771Y-90857142D02*
X112118390Y-90761904D01*
X112118390Y-90761904D02*
X112166009Y-90714285D01*
X112166009Y-90714285D02*
X112261247Y-90666666D01*
X112261247Y-90666666D02*
X112499342Y-90666666D01*
X112499342Y-90666666D02*
X112594580Y-90714285D01*
X112594580Y-90714285D02*
X112642200Y-90761904D01*
X112642200Y-90761904D02*
X112689819Y-90857142D01*
X112689819Y-90857142D02*
X112689819Y-91142856D01*
X112689819Y-91142856D02*
X112642200Y-91238094D01*
X112642200Y-91238094D02*
X112594580Y-91285713D01*
D11*
X107001202Y-92088459D02*
X107191678Y-92088459D01*
X107191678Y-92088459D02*
X107286916Y-92136078D01*
X107286916Y-92136078D02*
X107382154Y-92231316D01*
X107382154Y-92231316D02*
X107429773Y-92421792D01*
X107429773Y-92421792D02*
X107429773Y-92755125D01*
X107429773Y-92755125D02*
X107382154Y-92945601D01*
X107382154Y-92945601D02*
X107286916Y-93040840D01*
X107286916Y-93040840D02*
X107191678Y-93088459D01*
X107191678Y-93088459D02*
X107001202Y-93088459D01*
X107001202Y-93088459D02*
X106905964Y-93040840D01*
X106905964Y-93040840D02*
X106810726Y-92945601D01*
X106810726Y-92945601D02*
X106763107Y-92755125D01*
X106763107Y-92755125D02*
X106763107Y-92421792D01*
X106763107Y-92421792D02*
X106810726Y-92231316D01*
X106810726Y-92231316D02*
X106905964Y-92136078D01*
X106905964Y-92136078D02*
X107001202Y-92088459D01*
X107858345Y-93088459D02*
X107858345Y-92088459D01*
X107858345Y-92088459D02*
X108429773Y-93088459D01*
X108429773Y-93088459D02*
X108429773Y-92088459D01*
X107001202Y-90818459D02*
X107191678Y-90818459D01*
X107191678Y-90818459D02*
X107286916Y-90866078D01*
X107286916Y-90866078D02*
X107382154Y-90961316D01*
X107382154Y-90961316D02*
X107429773Y-91151792D01*
X107429773Y-91151792D02*
X107429773Y-91485125D01*
X107429773Y-91485125D02*
X107382154Y-91675601D01*
X107382154Y-91675601D02*
X107286916Y-91770840D01*
X107286916Y-91770840D02*
X107191678Y-91818459D01*
X107191678Y-91818459D02*
X107001202Y-91818459D01*
X107001202Y-91818459D02*
X106905964Y-91770840D01*
X106905964Y-91770840D02*
X106810726Y-91675601D01*
X106810726Y-91675601D02*
X106763107Y-91485125D01*
X106763107Y-91485125D02*
X106763107Y-91151792D01*
X106763107Y-91151792D02*
X106810726Y-90961316D01*
X106810726Y-90961316D02*
X106905964Y-90866078D01*
X106905964Y-90866078D02*
X107001202Y-90818459D01*
X107858345Y-91818459D02*
X107858345Y-90818459D01*
X107858345Y-90818459D02*
X108429773Y-91818459D01*
X108429773Y-91818459D02*
X108429773Y-90818459D01*
X107001202Y-89548459D02*
X107191678Y-89548459D01*
X107191678Y-89548459D02*
X107286916Y-89596078D01*
X107286916Y-89596078D02*
X107382154Y-89691316D01*
X107382154Y-89691316D02*
X107429773Y-89881792D01*
X107429773Y-89881792D02*
X107429773Y-90215125D01*
X107429773Y-90215125D02*
X107382154Y-90405601D01*
X107382154Y-90405601D02*
X107286916Y-90500840D01*
X107286916Y-90500840D02*
X107191678Y-90548459D01*
X107191678Y-90548459D02*
X107001202Y-90548459D01*
X107001202Y-90548459D02*
X106905964Y-90500840D01*
X106905964Y-90500840D02*
X106810726Y-90405601D01*
X106810726Y-90405601D02*
X106763107Y-90215125D01*
X106763107Y-90215125D02*
X106763107Y-89881792D01*
X106763107Y-89881792D02*
X106810726Y-89691316D01*
X106810726Y-89691316D02*
X106905964Y-89596078D01*
X106905964Y-89596078D02*
X107001202Y-89548459D01*
X107858345Y-90548459D02*
X107858345Y-89548459D01*
X107858345Y-89548459D02*
X108429773Y-90548459D01*
X108429773Y-90548459D02*
X108429773Y-89548459D01*
X107001202Y-93368459D02*
X107191678Y-93368459D01*
X107191678Y-93368459D02*
X107286916Y-93416078D01*
X107286916Y-93416078D02*
X107382154Y-93511316D01*
X107382154Y-93511316D02*
X107429773Y-93701792D01*
X107429773Y-93701792D02*
X107429773Y-94035125D01*
X107429773Y-94035125D02*
X107382154Y-94225601D01*
X107382154Y-94225601D02*
X107286916Y-94320840D01*
X107286916Y-94320840D02*
X107191678Y-94368459D01*
X107191678Y-94368459D02*
X107001202Y-94368459D01*
X107001202Y-94368459D02*
X106905964Y-94320840D01*
X106905964Y-94320840D02*
X106810726Y-94225601D01*
X106810726Y-94225601D02*
X106763107Y-94035125D01*
X106763107Y-94035125D02*
X106763107Y-93701792D01*
X106763107Y-93701792D02*
X106810726Y-93511316D01*
X106810726Y-93511316D02*
X106905964Y-93416078D01*
X106905964Y-93416078D02*
X107001202Y-93368459D01*
X107858345Y-94368459D02*
X107858345Y-93368459D01*
X107858345Y-93368459D02*
X108429773Y-94368459D01*
X108429773Y-94368459D02*
X108429773Y-93368459D01*
D10*
X158833333Y-85789580D02*
X158785714Y-85837200D01*
X158785714Y-85837200D02*
X158642857Y-85884819D01*
X158642857Y-85884819D02*
X158547619Y-85884819D01*
X158547619Y-85884819D02*
X158404762Y-85837200D01*
X158404762Y-85837200D02*
X158309524Y-85741961D01*
X158309524Y-85741961D02*
X158261905Y-85646723D01*
X158261905Y-85646723D02*
X158214286Y-85456247D01*
X158214286Y-85456247D02*
X158214286Y-85313390D01*
X158214286Y-85313390D02*
X158261905Y-85122914D01*
X158261905Y-85122914D02*
X158309524Y-85027676D01*
X158309524Y-85027676D02*
X158404762Y-84932438D01*
X158404762Y-84932438D02*
X158547619Y-84884819D01*
X158547619Y-84884819D02*
X158642857Y-84884819D01*
X158642857Y-84884819D02*
X158785714Y-84932438D01*
X158785714Y-84932438D02*
X158833333Y-84980057D01*
X159738095Y-84884819D02*
X159261905Y-84884819D01*
X159261905Y-84884819D02*
X159214286Y-85361009D01*
X159214286Y-85361009D02*
X159261905Y-85313390D01*
X159261905Y-85313390D02*
X159357143Y-85265771D01*
X159357143Y-85265771D02*
X159595238Y-85265771D01*
X159595238Y-85265771D02*
X159690476Y-85313390D01*
X159690476Y-85313390D02*
X159738095Y-85361009D01*
X159738095Y-85361009D02*
X159785714Y-85456247D01*
X159785714Y-85456247D02*
X159785714Y-85694342D01*
X159785714Y-85694342D02*
X159738095Y-85789580D01*
X159738095Y-85789580D02*
X159690476Y-85837200D01*
X159690476Y-85837200D02*
X159595238Y-85884819D01*
X159595238Y-85884819D02*
X159357143Y-85884819D01*
X159357143Y-85884819D02*
X159261905Y-85837200D01*
X159261905Y-85837200D02*
X159214286Y-85789580D01*
X154524819Y-77166666D02*
X154048628Y-77499999D01*
X154524819Y-77738094D02*
X153524819Y-77738094D01*
X153524819Y-77738094D02*
X153524819Y-77357142D01*
X153524819Y-77357142D02*
X153572438Y-77261904D01*
X153572438Y-77261904D02*
X153620057Y-77214285D01*
X153620057Y-77214285D02*
X153715295Y-77166666D01*
X153715295Y-77166666D02*
X153858152Y-77166666D01*
X153858152Y-77166666D02*
X153953390Y-77214285D01*
X153953390Y-77214285D02*
X154001009Y-77261904D01*
X154001009Y-77261904D02*
X154048628Y-77357142D01*
X154048628Y-77357142D02*
X154048628Y-77738094D01*
X154524819Y-76690475D02*
X154524819Y-76499999D01*
X154524819Y-76499999D02*
X154477200Y-76404761D01*
X154477200Y-76404761D02*
X154429580Y-76357142D01*
X154429580Y-76357142D02*
X154286723Y-76261904D01*
X154286723Y-76261904D02*
X154096247Y-76214285D01*
X154096247Y-76214285D02*
X153715295Y-76214285D01*
X153715295Y-76214285D02*
X153620057Y-76261904D01*
X153620057Y-76261904D02*
X153572438Y-76309523D01*
X153572438Y-76309523D02*
X153524819Y-76404761D01*
X153524819Y-76404761D02*
X153524819Y-76595237D01*
X153524819Y-76595237D02*
X153572438Y-76690475D01*
X153572438Y-76690475D02*
X153620057Y-76738094D01*
X153620057Y-76738094D02*
X153715295Y-76785713D01*
X153715295Y-76785713D02*
X153953390Y-76785713D01*
X153953390Y-76785713D02*
X154048628Y-76738094D01*
X154048628Y-76738094D02*
X154096247Y-76690475D01*
X154096247Y-76690475D02*
X154143866Y-76595237D01*
X154143866Y-76595237D02*
X154143866Y-76404761D01*
X154143866Y-76404761D02*
X154096247Y-76309523D01*
X154096247Y-76309523D02*
X154048628Y-76261904D01*
X154048628Y-76261904D02*
X153953390Y-76214285D01*
X126929580Y-83666666D02*
X126977200Y-83714285D01*
X126977200Y-83714285D02*
X127024819Y-83857142D01*
X127024819Y-83857142D02*
X127024819Y-83952380D01*
X127024819Y-83952380D02*
X126977200Y-84095237D01*
X126977200Y-84095237D02*
X126881961Y-84190475D01*
X126881961Y-84190475D02*
X126786723Y-84238094D01*
X126786723Y-84238094D02*
X126596247Y-84285713D01*
X126596247Y-84285713D02*
X126453390Y-84285713D01*
X126453390Y-84285713D02*
X126262914Y-84238094D01*
X126262914Y-84238094D02*
X126167676Y-84190475D01*
X126167676Y-84190475D02*
X126072438Y-84095237D01*
X126072438Y-84095237D02*
X126024819Y-83952380D01*
X126024819Y-83952380D02*
X126024819Y-83857142D01*
X126024819Y-83857142D02*
X126072438Y-83714285D01*
X126072438Y-83714285D02*
X126120057Y-83666666D01*
X127024819Y-82714285D02*
X127024819Y-83285713D01*
X127024819Y-82999999D02*
X126024819Y-82999999D01*
X126024819Y-82999999D02*
X126167676Y-83095237D01*
X126167676Y-83095237D02*
X126262914Y-83190475D01*
X126262914Y-83190475D02*
X126310533Y-83285713D01*
X111658333Y-90884819D02*
X111325000Y-90408628D01*
X111086905Y-90884819D02*
X111086905Y-89884819D01*
X111086905Y-89884819D02*
X111467857Y-89884819D01*
X111467857Y-89884819D02*
X111563095Y-89932438D01*
X111563095Y-89932438D02*
X111610714Y-89980057D01*
X111610714Y-89980057D02*
X111658333Y-90075295D01*
X111658333Y-90075295D02*
X111658333Y-90218152D01*
X111658333Y-90218152D02*
X111610714Y-90313390D01*
X111610714Y-90313390D02*
X111563095Y-90361009D01*
X111563095Y-90361009D02*
X111467857Y-90408628D01*
X111467857Y-90408628D02*
X111086905Y-90408628D01*
X112039286Y-89980057D02*
X112086905Y-89932438D01*
X112086905Y-89932438D02*
X112182143Y-89884819D01*
X112182143Y-89884819D02*
X112420238Y-89884819D01*
X112420238Y-89884819D02*
X112515476Y-89932438D01*
X112515476Y-89932438D02*
X112563095Y-89980057D01*
X112563095Y-89980057D02*
X112610714Y-90075295D01*
X112610714Y-90075295D02*
X112610714Y-90170533D01*
X112610714Y-90170533D02*
X112563095Y-90313390D01*
X112563095Y-90313390D02*
X111991667Y-90884819D01*
X111991667Y-90884819D02*
X112610714Y-90884819D01*
X138333333Y-96884819D02*
X138000000Y-96408628D01*
X137761905Y-96884819D02*
X137761905Y-95884819D01*
X137761905Y-95884819D02*
X138142857Y-95884819D01*
X138142857Y-95884819D02*
X138238095Y-95932438D01*
X138238095Y-95932438D02*
X138285714Y-95980057D01*
X138285714Y-95980057D02*
X138333333Y-96075295D01*
X138333333Y-96075295D02*
X138333333Y-96218152D01*
X138333333Y-96218152D02*
X138285714Y-96313390D01*
X138285714Y-96313390D02*
X138238095Y-96361009D01*
X138238095Y-96361009D02*
X138142857Y-96408628D01*
X138142857Y-96408628D02*
X137761905Y-96408628D01*
X139238095Y-95884819D02*
X138761905Y-95884819D01*
X138761905Y-95884819D02*
X138714286Y-96361009D01*
X138714286Y-96361009D02*
X138761905Y-96313390D01*
X138761905Y-96313390D02*
X138857143Y-96265771D01*
X138857143Y-96265771D02*
X139095238Y-96265771D01*
X139095238Y-96265771D02*
X139190476Y-96313390D01*
X139190476Y-96313390D02*
X139238095Y-96361009D01*
X139238095Y-96361009D02*
X139285714Y-96456247D01*
X139285714Y-96456247D02*
X139285714Y-96694342D01*
X139285714Y-96694342D02*
X139238095Y-96789580D01*
X139238095Y-96789580D02*
X139190476Y-96837200D01*
X139190476Y-96837200D02*
X139095238Y-96884819D01*
X139095238Y-96884819D02*
X138857143Y-96884819D01*
X138857143Y-96884819D02*
X138761905Y-96837200D01*
X138761905Y-96837200D02*
X138714286Y-96789580D01*
X123166667Y-84597200D02*
X123309524Y-84644819D01*
X123309524Y-84644819D02*
X123547619Y-84644819D01*
X123547619Y-84644819D02*
X123642857Y-84597200D01*
X123642857Y-84597200D02*
X123690476Y-84549580D01*
X123690476Y-84549580D02*
X123738095Y-84454342D01*
X123738095Y-84454342D02*
X123738095Y-84359104D01*
X123738095Y-84359104D02*
X123690476Y-84263866D01*
X123690476Y-84263866D02*
X123642857Y-84216247D01*
X123642857Y-84216247D02*
X123547619Y-84168628D01*
X123547619Y-84168628D02*
X123357143Y-84121009D01*
X123357143Y-84121009D02*
X123261905Y-84073390D01*
X123261905Y-84073390D02*
X123214286Y-84025771D01*
X123214286Y-84025771D02*
X123166667Y-83930533D01*
X123166667Y-83930533D02*
X123166667Y-83835295D01*
X123166667Y-83835295D02*
X123214286Y-83740057D01*
X123214286Y-83740057D02*
X123261905Y-83692438D01*
X123261905Y-83692438D02*
X123357143Y-83644819D01*
X123357143Y-83644819D02*
X123595238Y-83644819D01*
X123595238Y-83644819D02*
X123738095Y-83692438D01*
X124071429Y-83644819D02*
X124309524Y-84644819D01*
X124309524Y-84644819D02*
X124500000Y-83930533D01*
X124500000Y-83930533D02*
X124690476Y-84644819D01*
X124690476Y-84644819D02*
X124928572Y-83644819D01*
X125833333Y-84644819D02*
X125261905Y-84644819D01*
X125547619Y-84644819D02*
X125547619Y-83644819D01*
X125547619Y-83644819D02*
X125452381Y-83787676D01*
X125452381Y-83787676D02*
X125357143Y-83882914D01*
X125357143Y-83882914D02*
X125261905Y-83930533D01*
D11*
X125088459Y-73718797D02*
X125088459Y-73528321D01*
X125088459Y-73528321D02*
X125136078Y-73433083D01*
X125136078Y-73433083D02*
X125231316Y-73337845D01*
X125231316Y-73337845D02*
X125421792Y-73290226D01*
X125421792Y-73290226D02*
X125755125Y-73290226D01*
X125755125Y-73290226D02*
X125945601Y-73337845D01*
X125945601Y-73337845D02*
X126040840Y-73433083D01*
X126040840Y-73433083D02*
X126088459Y-73528321D01*
X126088459Y-73528321D02*
X126088459Y-73718797D01*
X126088459Y-73718797D02*
X126040840Y-73814035D01*
X126040840Y-73814035D02*
X125945601Y-73909273D01*
X125945601Y-73909273D02*
X125755125Y-73956892D01*
X125755125Y-73956892D02*
X125421792Y-73956892D01*
X125421792Y-73956892D02*
X125231316Y-73909273D01*
X125231316Y-73909273D02*
X125136078Y-73814035D01*
X125136078Y-73814035D02*
X125088459Y-73718797D01*
X126088459Y-72861654D02*
X125088459Y-72861654D01*
X125088459Y-72861654D02*
X126088459Y-72290226D01*
X126088459Y-72290226D02*
X125088459Y-72290226D01*
X122548459Y-73718797D02*
X122548459Y-73528321D01*
X122548459Y-73528321D02*
X122596078Y-73433083D01*
X122596078Y-73433083D02*
X122691316Y-73337845D01*
X122691316Y-73337845D02*
X122881792Y-73290226D01*
X122881792Y-73290226D02*
X123215125Y-73290226D01*
X123215125Y-73290226D02*
X123405601Y-73337845D01*
X123405601Y-73337845D02*
X123500840Y-73433083D01*
X123500840Y-73433083D02*
X123548459Y-73528321D01*
X123548459Y-73528321D02*
X123548459Y-73718797D01*
X123548459Y-73718797D02*
X123500840Y-73814035D01*
X123500840Y-73814035D02*
X123405601Y-73909273D01*
X123405601Y-73909273D02*
X123215125Y-73956892D01*
X123215125Y-73956892D02*
X122881792Y-73956892D01*
X122881792Y-73956892D02*
X122691316Y-73909273D01*
X122691316Y-73909273D02*
X122596078Y-73814035D01*
X122596078Y-73814035D02*
X122548459Y-73718797D01*
X123548459Y-72861654D02*
X122548459Y-72861654D01*
X122548459Y-72861654D02*
X123548459Y-72290226D01*
X123548459Y-72290226D02*
X122548459Y-72290226D01*
X126368459Y-73718797D02*
X126368459Y-73528321D01*
X126368459Y-73528321D02*
X126416078Y-73433083D01*
X126416078Y-73433083D02*
X126511316Y-73337845D01*
X126511316Y-73337845D02*
X126701792Y-73290226D01*
X126701792Y-73290226D02*
X127035125Y-73290226D01*
X127035125Y-73290226D02*
X127225601Y-73337845D01*
X127225601Y-73337845D02*
X127320840Y-73433083D01*
X127320840Y-73433083D02*
X127368459Y-73528321D01*
X127368459Y-73528321D02*
X127368459Y-73718797D01*
X127368459Y-73718797D02*
X127320840Y-73814035D01*
X127320840Y-73814035D02*
X127225601Y-73909273D01*
X127225601Y-73909273D02*
X127035125Y-73956892D01*
X127035125Y-73956892D02*
X126701792Y-73956892D01*
X126701792Y-73956892D02*
X126511316Y-73909273D01*
X126511316Y-73909273D02*
X126416078Y-73814035D01*
X126416078Y-73814035D02*
X126368459Y-73718797D01*
X127368459Y-72861654D02*
X126368459Y-72861654D01*
X126368459Y-72861654D02*
X127368459Y-72290226D01*
X127368459Y-72290226D02*
X126368459Y-72290226D01*
X123818459Y-73718797D02*
X123818459Y-73528321D01*
X123818459Y-73528321D02*
X123866078Y-73433083D01*
X123866078Y-73433083D02*
X123961316Y-73337845D01*
X123961316Y-73337845D02*
X124151792Y-73290226D01*
X124151792Y-73290226D02*
X124485125Y-73290226D01*
X124485125Y-73290226D02*
X124675601Y-73337845D01*
X124675601Y-73337845D02*
X124770840Y-73433083D01*
X124770840Y-73433083D02*
X124818459Y-73528321D01*
X124818459Y-73528321D02*
X124818459Y-73718797D01*
X124818459Y-73718797D02*
X124770840Y-73814035D01*
X124770840Y-73814035D02*
X124675601Y-73909273D01*
X124675601Y-73909273D02*
X124485125Y-73956892D01*
X124485125Y-73956892D02*
X124151792Y-73956892D01*
X124151792Y-73956892D02*
X123961316Y-73909273D01*
X123961316Y-73909273D02*
X123866078Y-73814035D01*
X123866078Y-73814035D02*
X123818459Y-73718797D01*
X124818459Y-72861654D02*
X123818459Y-72861654D01*
X123818459Y-72861654D02*
X124818459Y-72290226D01*
X124818459Y-72290226D02*
X123818459Y-72290226D01*
D10*
X138333333Y-90884819D02*
X138000000Y-90408628D01*
X137761905Y-90884819D02*
X137761905Y-89884819D01*
X137761905Y-89884819D02*
X138142857Y-89884819D01*
X138142857Y-89884819D02*
X138238095Y-89932438D01*
X138238095Y-89932438D02*
X138285714Y-89980057D01*
X138285714Y-89980057D02*
X138333333Y-90075295D01*
X138333333Y-90075295D02*
X138333333Y-90218152D01*
X138333333Y-90218152D02*
X138285714Y-90313390D01*
X138285714Y-90313390D02*
X138238095Y-90361009D01*
X138238095Y-90361009D02*
X138142857Y-90408628D01*
X138142857Y-90408628D02*
X137761905Y-90408628D01*
X139285714Y-90884819D02*
X138714286Y-90884819D01*
X139000000Y-90884819D02*
X139000000Y-89884819D01*
X139000000Y-89884819D02*
X138904762Y-90027676D01*
X138904762Y-90027676D02*
X138809524Y-90122914D01*
X138809524Y-90122914D02*
X138714286Y-90170533D01*
X134257200Y-93333332D02*
X134304819Y-93190475D01*
X134304819Y-93190475D02*
X134304819Y-92952380D01*
X134304819Y-92952380D02*
X134257200Y-92857142D01*
X134257200Y-92857142D02*
X134209580Y-92809523D01*
X134209580Y-92809523D02*
X134114342Y-92761904D01*
X134114342Y-92761904D02*
X134019104Y-92761904D01*
X134019104Y-92761904D02*
X133923866Y-92809523D01*
X133923866Y-92809523D02*
X133876247Y-92857142D01*
X133876247Y-92857142D02*
X133828628Y-92952380D01*
X133828628Y-92952380D02*
X133781009Y-93142856D01*
X133781009Y-93142856D02*
X133733390Y-93238094D01*
X133733390Y-93238094D02*
X133685771Y-93285713D01*
X133685771Y-93285713D02*
X133590533Y-93333332D01*
X133590533Y-93333332D02*
X133495295Y-93333332D01*
X133495295Y-93333332D02*
X133400057Y-93285713D01*
X133400057Y-93285713D02*
X133352438Y-93238094D01*
X133352438Y-93238094D02*
X133304819Y-93142856D01*
X133304819Y-93142856D02*
X133304819Y-92904761D01*
X133304819Y-92904761D02*
X133352438Y-92761904D01*
X133304819Y-92428570D02*
X134304819Y-92190475D01*
X134304819Y-92190475D02*
X133590533Y-91999999D01*
X133590533Y-91999999D02*
X134304819Y-91809523D01*
X134304819Y-91809523D02*
X133304819Y-91571428D01*
X133400057Y-91238094D02*
X133352438Y-91190475D01*
X133352438Y-91190475D02*
X133304819Y-91095237D01*
X133304819Y-91095237D02*
X133304819Y-90857142D01*
X133304819Y-90857142D02*
X133352438Y-90761904D01*
X133352438Y-90761904D02*
X133400057Y-90714285D01*
X133400057Y-90714285D02*
X133495295Y-90666666D01*
X133495295Y-90666666D02*
X133590533Y-90666666D01*
X133590533Y-90666666D02*
X133733390Y-90714285D01*
X133733390Y-90714285D02*
X134304819Y-91285713D01*
X134304819Y-91285713D02*
X134304819Y-90666666D01*
D11*
X143961202Y-90828459D02*
X144151678Y-90828459D01*
X144151678Y-90828459D02*
X144246916Y-90876078D01*
X144246916Y-90876078D02*
X144342154Y-90971316D01*
X144342154Y-90971316D02*
X144389773Y-91161792D01*
X144389773Y-91161792D02*
X144389773Y-91495125D01*
X144389773Y-91495125D02*
X144342154Y-91685601D01*
X144342154Y-91685601D02*
X144246916Y-91780840D01*
X144246916Y-91780840D02*
X144151678Y-91828459D01*
X144151678Y-91828459D02*
X143961202Y-91828459D01*
X143961202Y-91828459D02*
X143865964Y-91780840D01*
X143865964Y-91780840D02*
X143770726Y-91685601D01*
X143770726Y-91685601D02*
X143723107Y-91495125D01*
X143723107Y-91495125D02*
X143723107Y-91161792D01*
X143723107Y-91161792D02*
X143770726Y-90971316D01*
X143770726Y-90971316D02*
X143865964Y-90876078D01*
X143865964Y-90876078D02*
X143961202Y-90828459D01*
X144818345Y-91828459D02*
X144818345Y-90828459D01*
X144818345Y-90828459D02*
X145389773Y-91828459D01*
X145389773Y-91828459D02*
X145389773Y-90828459D01*
X143961202Y-89548459D02*
X144151678Y-89548459D01*
X144151678Y-89548459D02*
X144246916Y-89596078D01*
X144246916Y-89596078D02*
X144342154Y-89691316D01*
X144342154Y-89691316D02*
X144389773Y-89881792D01*
X144389773Y-89881792D02*
X144389773Y-90215125D01*
X144389773Y-90215125D02*
X144342154Y-90405601D01*
X144342154Y-90405601D02*
X144246916Y-90500840D01*
X144246916Y-90500840D02*
X144151678Y-90548459D01*
X144151678Y-90548459D02*
X143961202Y-90548459D01*
X143961202Y-90548459D02*
X143865964Y-90500840D01*
X143865964Y-90500840D02*
X143770726Y-90405601D01*
X143770726Y-90405601D02*
X143723107Y-90215125D01*
X143723107Y-90215125D02*
X143723107Y-89881792D01*
X143723107Y-89881792D02*
X143770726Y-89691316D01*
X143770726Y-89691316D02*
X143865964Y-89596078D01*
X143865964Y-89596078D02*
X143961202Y-89548459D01*
X144818345Y-90548459D02*
X144818345Y-89548459D01*
X144818345Y-89548459D02*
X145389773Y-90548459D01*
X145389773Y-90548459D02*
X145389773Y-89548459D01*
X143961202Y-92098459D02*
X144151678Y-92098459D01*
X144151678Y-92098459D02*
X144246916Y-92146078D01*
X144246916Y-92146078D02*
X144342154Y-92241316D01*
X144342154Y-92241316D02*
X144389773Y-92431792D01*
X144389773Y-92431792D02*
X144389773Y-92765125D01*
X144389773Y-92765125D02*
X144342154Y-92955601D01*
X144342154Y-92955601D02*
X144246916Y-93050840D01*
X144246916Y-93050840D02*
X144151678Y-93098459D01*
X144151678Y-93098459D02*
X143961202Y-93098459D01*
X143961202Y-93098459D02*
X143865964Y-93050840D01*
X143865964Y-93050840D02*
X143770726Y-92955601D01*
X143770726Y-92955601D02*
X143723107Y-92765125D01*
X143723107Y-92765125D02*
X143723107Y-92431792D01*
X143723107Y-92431792D02*
X143770726Y-92241316D01*
X143770726Y-92241316D02*
X143865964Y-92146078D01*
X143865964Y-92146078D02*
X143961202Y-92098459D01*
X144818345Y-93098459D02*
X144818345Y-92098459D01*
X144818345Y-92098459D02*
X145389773Y-93098459D01*
X145389773Y-93098459D02*
X145389773Y-92098459D01*
X143961202Y-93368459D02*
X144151678Y-93368459D01*
X144151678Y-93368459D02*
X144246916Y-93416078D01*
X144246916Y-93416078D02*
X144342154Y-93511316D01*
X144342154Y-93511316D02*
X144389773Y-93701792D01*
X144389773Y-93701792D02*
X144389773Y-94035125D01*
X144389773Y-94035125D02*
X144342154Y-94225601D01*
X144342154Y-94225601D02*
X144246916Y-94320840D01*
X144246916Y-94320840D02*
X144151678Y-94368459D01*
X144151678Y-94368459D02*
X143961202Y-94368459D01*
X143961202Y-94368459D02*
X143865964Y-94320840D01*
X143865964Y-94320840D02*
X143770726Y-94225601D01*
X143770726Y-94225601D02*
X143723107Y-94035125D01*
X143723107Y-94035125D02*
X143723107Y-93701792D01*
X143723107Y-93701792D02*
X143770726Y-93511316D01*
X143770726Y-93511316D02*
X143865964Y-93416078D01*
X143865964Y-93416078D02*
X143961202Y-93368459D01*
X144818345Y-94368459D02*
X144818345Y-93368459D01*
X144818345Y-93368459D02*
X145389773Y-94368459D01*
X145389773Y-94368459D02*
X145389773Y-93368459D01*
D10*
X143666667Y-73807200D02*
X143809524Y-73854819D01*
X143809524Y-73854819D02*
X144047619Y-73854819D01*
X144047619Y-73854819D02*
X144142857Y-73807200D01*
X144142857Y-73807200D02*
X144190476Y-73759580D01*
X144190476Y-73759580D02*
X144238095Y-73664342D01*
X144238095Y-73664342D02*
X144238095Y-73569104D01*
X144238095Y-73569104D02*
X144190476Y-73473866D01*
X144190476Y-73473866D02*
X144142857Y-73426247D01*
X144142857Y-73426247D02*
X144047619Y-73378628D01*
X144047619Y-73378628D02*
X143857143Y-73331009D01*
X143857143Y-73331009D02*
X143761905Y-73283390D01*
X143761905Y-73283390D02*
X143714286Y-73235771D01*
X143714286Y-73235771D02*
X143666667Y-73140533D01*
X143666667Y-73140533D02*
X143666667Y-73045295D01*
X143666667Y-73045295D02*
X143714286Y-72950057D01*
X143714286Y-72950057D02*
X143761905Y-72902438D01*
X143761905Y-72902438D02*
X143857143Y-72854819D01*
X143857143Y-72854819D02*
X144095238Y-72854819D01*
X144095238Y-72854819D02*
X144238095Y-72902438D01*
X144571429Y-72854819D02*
X144809524Y-73854819D01*
X144809524Y-73854819D02*
X145000000Y-73140533D01*
X145000000Y-73140533D02*
X145190476Y-73854819D01*
X145190476Y-73854819D02*
X145428572Y-72854819D01*
X146285714Y-72854819D02*
X145809524Y-72854819D01*
X145809524Y-72854819D02*
X145761905Y-73331009D01*
X145761905Y-73331009D02*
X145809524Y-73283390D01*
X145809524Y-73283390D02*
X145904762Y-73235771D01*
X145904762Y-73235771D02*
X146142857Y-73235771D01*
X146142857Y-73235771D02*
X146238095Y-73283390D01*
X146238095Y-73283390D02*
X146285714Y-73331009D01*
X146285714Y-73331009D02*
X146333333Y-73426247D01*
X146333333Y-73426247D02*
X146333333Y-73664342D01*
X146333333Y-73664342D02*
X146285714Y-73759580D01*
X146285714Y-73759580D02*
X146238095Y-73807200D01*
X146238095Y-73807200D02*
X146142857Y-73854819D01*
X146142857Y-73854819D02*
X145904762Y-73854819D01*
X145904762Y-73854819D02*
X145809524Y-73807200D01*
X145809524Y-73807200D02*
X145761905Y-73759580D01*
X155450057Y-77595238D02*
X155402438Y-77690476D01*
X155402438Y-77690476D02*
X155307200Y-77785714D01*
X155307200Y-77785714D02*
X155164342Y-77928571D01*
X155164342Y-77928571D02*
X155116723Y-78023809D01*
X155116723Y-78023809D02*
X155116723Y-78119047D01*
X155354819Y-78071428D02*
X155307200Y-78166666D01*
X155307200Y-78166666D02*
X155211961Y-78261904D01*
X155211961Y-78261904D02*
X155021485Y-78309523D01*
X155021485Y-78309523D02*
X154688152Y-78309523D01*
X154688152Y-78309523D02*
X154497676Y-78261904D01*
X154497676Y-78261904D02*
X154402438Y-78166666D01*
X154402438Y-78166666D02*
X154354819Y-78071428D01*
X154354819Y-78071428D02*
X154354819Y-77880952D01*
X154354819Y-77880952D02*
X154402438Y-77785714D01*
X154402438Y-77785714D02*
X154497676Y-77690476D01*
X154497676Y-77690476D02*
X154688152Y-77642857D01*
X154688152Y-77642857D02*
X155021485Y-77642857D01*
X155021485Y-77642857D02*
X155211961Y-77690476D01*
X155211961Y-77690476D02*
X155307200Y-77785714D01*
X155307200Y-77785714D02*
X155354819Y-77880952D01*
X155354819Y-77880952D02*
X155354819Y-78071428D01*
X154450057Y-77261904D02*
X154402438Y-77214285D01*
X154402438Y-77214285D02*
X154354819Y-77119047D01*
X154354819Y-77119047D02*
X154354819Y-76880952D01*
X154354819Y-76880952D02*
X154402438Y-76785714D01*
X154402438Y-76785714D02*
X154450057Y-76738095D01*
X154450057Y-76738095D02*
X154545295Y-76690476D01*
X154545295Y-76690476D02*
X154640533Y-76690476D01*
X154640533Y-76690476D02*
X154783390Y-76738095D01*
X154783390Y-76738095D02*
X155354819Y-77309523D01*
X155354819Y-77309523D02*
X155354819Y-76690476D01*
X111658333Y-96884819D02*
X111325000Y-96408628D01*
X111086905Y-96884819D02*
X111086905Y-95884819D01*
X111086905Y-95884819D02*
X111467857Y-95884819D01*
X111467857Y-95884819D02*
X111563095Y-95932438D01*
X111563095Y-95932438D02*
X111610714Y-95980057D01*
X111610714Y-95980057D02*
X111658333Y-96075295D01*
X111658333Y-96075295D02*
X111658333Y-96218152D01*
X111658333Y-96218152D02*
X111610714Y-96313390D01*
X111610714Y-96313390D02*
X111563095Y-96361009D01*
X111563095Y-96361009D02*
X111467857Y-96408628D01*
X111467857Y-96408628D02*
X111086905Y-96408628D01*
X112229762Y-96313390D02*
X112134524Y-96265771D01*
X112134524Y-96265771D02*
X112086905Y-96218152D01*
X112086905Y-96218152D02*
X112039286Y-96122914D01*
X112039286Y-96122914D02*
X112039286Y-96075295D01*
X112039286Y-96075295D02*
X112086905Y-95980057D01*
X112086905Y-95980057D02*
X112134524Y-95932438D01*
X112134524Y-95932438D02*
X112229762Y-95884819D01*
X112229762Y-95884819D02*
X112420238Y-95884819D01*
X112420238Y-95884819D02*
X112515476Y-95932438D01*
X112515476Y-95932438D02*
X112563095Y-95980057D01*
X112563095Y-95980057D02*
X112610714Y-96075295D01*
X112610714Y-96075295D02*
X112610714Y-96122914D01*
X112610714Y-96122914D02*
X112563095Y-96218152D01*
X112563095Y-96218152D02*
X112515476Y-96265771D01*
X112515476Y-96265771D02*
X112420238Y-96313390D01*
X112420238Y-96313390D02*
X112229762Y-96313390D01*
X112229762Y-96313390D02*
X112134524Y-96361009D01*
X112134524Y-96361009D02*
X112086905Y-96408628D01*
X112086905Y-96408628D02*
X112039286Y-96503866D01*
X112039286Y-96503866D02*
X112039286Y-96694342D01*
X112039286Y-96694342D02*
X112086905Y-96789580D01*
X112086905Y-96789580D02*
X112134524Y-96837200D01*
X112134524Y-96837200D02*
X112229762Y-96884819D01*
X112229762Y-96884819D02*
X112420238Y-96884819D01*
X112420238Y-96884819D02*
X112515476Y-96837200D01*
X112515476Y-96837200D02*
X112563095Y-96789580D01*
X112563095Y-96789580D02*
X112610714Y-96694342D01*
X112610714Y-96694342D02*
X112610714Y-96503866D01*
X112610714Y-96503866D02*
X112563095Y-96408628D01*
X112563095Y-96408628D02*
X112515476Y-96361009D01*
X112515476Y-96361009D02*
X112420238Y-96313390D01*
X100450057Y-78095238D02*
X100402438Y-78190476D01*
X100402438Y-78190476D02*
X100307200Y-78285714D01*
X100307200Y-78285714D02*
X100164342Y-78428571D01*
X100164342Y-78428571D02*
X100116723Y-78523809D01*
X100116723Y-78523809D02*
X100116723Y-78619047D01*
X100354819Y-78571428D02*
X100307200Y-78666666D01*
X100307200Y-78666666D02*
X100211961Y-78761904D01*
X100211961Y-78761904D02*
X100021485Y-78809523D01*
X100021485Y-78809523D02*
X99688152Y-78809523D01*
X99688152Y-78809523D02*
X99497676Y-78761904D01*
X99497676Y-78761904D02*
X99402438Y-78666666D01*
X99402438Y-78666666D02*
X99354819Y-78571428D01*
X99354819Y-78571428D02*
X99354819Y-78380952D01*
X99354819Y-78380952D02*
X99402438Y-78285714D01*
X99402438Y-78285714D02*
X99497676Y-78190476D01*
X99497676Y-78190476D02*
X99688152Y-78142857D01*
X99688152Y-78142857D02*
X100021485Y-78142857D01*
X100021485Y-78142857D02*
X100211961Y-78190476D01*
X100211961Y-78190476D02*
X100307200Y-78285714D01*
X100307200Y-78285714D02*
X100354819Y-78380952D01*
X100354819Y-78380952D02*
X100354819Y-78571428D01*
X100354819Y-77190476D02*
X100354819Y-77761904D01*
X100354819Y-77476190D02*
X99354819Y-77476190D01*
X99354819Y-77476190D02*
X99497676Y-77571428D01*
X99497676Y-77571428D02*
X99592914Y-77666666D01*
X99592914Y-77666666D02*
X99640533Y-77761904D01*
X111658333Y-92884819D02*
X111325000Y-92408628D01*
X111086905Y-92884819D02*
X111086905Y-91884819D01*
X111086905Y-91884819D02*
X111467857Y-91884819D01*
X111467857Y-91884819D02*
X111563095Y-91932438D01*
X111563095Y-91932438D02*
X111610714Y-91980057D01*
X111610714Y-91980057D02*
X111658333Y-92075295D01*
X111658333Y-92075295D02*
X111658333Y-92218152D01*
X111658333Y-92218152D02*
X111610714Y-92313390D01*
X111610714Y-92313390D02*
X111563095Y-92361009D01*
X111563095Y-92361009D02*
X111467857Y-92408628D01*
X111467857Y-92408628D02*
X111086905Y-92408628D01*
X112515476Y-91884819D02*
X112325000Y-91884819D01*
X112325000Y-91884819D02*
X112229762Y-91932438D01*
X112229762Y-91932438D02*
X112182143Y-91980057D01*
X112182143Y-91980057D02*
X112086905Y-92122914D01*
X112086905Y-92122914D02*
X112039286Y-92313390D01*
X112039286Y-92313390D02*
X112039286Y-92694342D01*
X112039286Y-92694342D02*
X112086905Y-92789580D01*
X112086905Y-92789580D02*
X112134524Y-92837200D01*
X112134524Y-92837200D02*
X112229762Y-92884819D01*
X112229762Y-92884819D02*
X112420238Y-92884819D01*
X112420238Y-92884819D02*
X112515476Y-92837200D01*
X112515476Y-92837200D02*
X112563095Y-92789580D01*
X112563095Y-92789580D02*
X112610714Y-92694342D01*
X112610714Y-92694342D02*
X112610714Y-92456247D01*
X112610714Y-92456247D02*
X112563095Y-92361009D01*
X112563095Y-92361009D02*
X112515476Y-92313390D01*
X112515476Y-92313390D02*
X112420238Y-92265771D01*
X112420238Y-92265771D02*
X112229762Y-92265771D01*
X112229762Y-92265771D02*
X112134524Y-92313390D01*
X112134524Y-92313390D02*
X112086905Y-92361009D01*
X112086905Y-92361009D02*
X112039286Y-92456247D01*
X124929580Y-83666666D02*
X124977200Y-83714285D01*
X124977200Y-83714285D02*
X125024819Y-83857142D01*
X125024819Y-83857142D02*
X125024819Y-83952380D01*
X125024819Y-83952380D02*
X124977200Y-84095237D01*
X124977200Y-84095237D02*
X124881961Y-84190475D01*
X124881961Y-84190475D02*
X124786723Y-84238094D01*
X124786723Y-84238094D02*
X124596247Y-84285713D01*
X124596247Y-84285713D02*
X124453390Y-84285713D01*
X124453390Y-84285713D02*
X124262914Y-84238094D01*
X124262914Y-84238094D02*
X124167676Y-84190475D01*
X124167676Y-84190475D02*
X124072438Y-84095237D01*
X124072438Y-84095237D02*
X124024819Y-83952380D01*
X124024819Y-83952380D02*
X124024819Y-83857142D01*
X124024819Y-83857142D02*
X124072438Y-83714285D01*
X124072438Y-83714285D02*
X124120057Y-83666666D01*
X124120057Y-83285713D02*
X124072438Y-83238094D01*
X124072438Y-83238094D02*
X124024819Y-83142856D01*
X124024819Y-83142856D02*
X124024819Y-82904761D01*
X124024819Y-82904761D02*
X124072438Y-82809523D01*
X124072438Y-82809523D02*
X124120057Y-82761904D01*
X124120057Y-82761904D02*
X124215295Y-82714285D01*
X124215295Y-82714285D02*
X124310533Y-82714285D01*
X124310533Y-82714285D02*
X124453390Y-82761904D01*
X124453390Y-82761904D02*
X125024819Y-83333332D01*
X125024819Y-83333332D02*
X125024819Y-82714285D01*
D12*
%TO.C,SW4*%
X102280000Y-75960000D02*
X102280000Y-78040000D01*
X103550000Y-74280000D02*
X103060000Y-74770000D01*
X103550000Y-79720000D02*
X103060000Y-79230000D01*
X106450000Y-74280000D02*
X103550000Y-74280000D01*
X106450000Y-74280000D02*
X106940000Y-74770000D01*
X106450000Y-79720000D02*
X103550000Y-79720000D01*
X106450000Y-79720000D02*
X106940000Y-79230000D01*
X107720000Y-75960000D02*
X107720000Y-78040000D01*
%TO.C,R3*%
X138737258Y-90477500D02*
X138262742Y-90477500D01*
X138737258Y-91522500D02*
X138262742Y-91522500D01*
%TO.C,R4*%
X138737258Y-92477500D02*
X138262742Y-92477500D01*
X138737258Y-93522500D02*
X138262742Y-93522500D01*
%TO.C,U1*%
X159000000Y-85440000D02*
X157200000Y-85440000D01*
X159000000Y-85440000D02*
X159800000Y-85440000D01*
X159000000Y-88560000D02*
X158200000Y-88560000D01*
X159000000Y-88560000D02*
X159800000Y-88560000D01*
%TO.C,C4*%
X121490000Y-83640580D02*
X121490000Y-83359420D01*
X122510000Y-83640580D02*
X122510000Y-83359420D01*
%TO.C,R7*%
X112062258Y-92477500D02*
X111587742Y-92477500D01*
X112062258Y-93522500D02*
X111587742Y-93522500D01*
%TO.C,C3*%
X123490000Y-83640580D02*
X123490000Y-83359420D01*
X124510000Y-83640580D02*
X124510000Y-83359420D01*
D13*
%TO.C,SW3*%
X102460000Y-89460000D02*
X102460000Y-90730000D01*
X102460000Y-90730000D02*
X102460000Y-92000000D01*
X102460000Y-90730000D02*
X107540000Y-90730000D01*
X102460000Y-90730000D02*
X107540000Y-90730000D01*
X102460000Y-92000000D02*
X107540000Y-92000000D01*
X102460000Y-92000000D02*
X107540000Y-92000000D01*
X102460000Y-93270000D02*
X102460000Y-92000000D01*
X102460000Y-93270000D02*
X107540000Y-93270000D01*
X102460000Y-94540000D02*
X102460000Y-93270000D01*
X103100000Y-89460000D02*
X103100000Y-90730000D01*
X103100000Y-90730000D02*
X103100000Y-92000000D01*
X103100000Y-92000000D02*
X104360000Y-90730000D01*
X103100000Y-93270000D02*
X103100000Y-92000000D01*
X103100000Y-94540000D02*
X103100000Y-93270000D01*
X103730000Y-89460000D02*
X103100000Y-90100000D01*
X103730000Y-90730000D02*
X103100000Y-91370000D01*
X103730000Y-92000000D02*
X103100000Y-92640000D01*
X103730000Y-93270000D02*
X103100000Y-93910000D01*
X104360000Y-89460000D02*
X103100000Y-90730000D01*
X104360000Y-90100000D02*
X103730000Y-90730000D01*
X104360000Y-90730000D02*
X104360000Y-89460000D01*
X104360000Y-90730000D02*
X104360000Y-92000000D01*
X104360000Y-91370000D02*
X103730000Y-92000000D01*
X104360000Y-92000000D02*
X103100000Y-93270000D01*
X104360000Y-92000000D02*
X104360000Y-93270000D01*
X104360000Y-92640000D02*
X103730000Y-93270000D01*
X104360000Y-93270000D02*
X103100000Y-94540000D01*
X104360000Y-93270000D02*
X104360000Y-94540000D01*
X104360000Y-93910000D02*
X103730000Y-94540000D01*
X107540000Y-89460000D02*
X102460000Y-89460000D01*
X107540000Y-90730000D02*
X102460000Y-90730000D01*
X107540000Y-90730000D02*
X102460000Y-90730000D01*
X107540000Y-90730000D02*
X107540000Y-89460000D01*
X107540000Y-92000000D02*
X102460000Y-92000000D01*
X107540000Y-92000000D02*
X107540000Y-90730000D01*
X107540000Y-92000000D02*
X107540000Y-93270000D01*
X107540000Y-93270000D02*
X102460000Y-93270000D01*
X107540000Y-93270000D02*
X107540000Y-94540000D01*
X107540000Y-94540000D02*
X102460000Y-94540000D01*
D12*
%TO.C,C5*%
X159140580Y-83490000D02*
X158859420Y-83490000D01*
X159140580Y-84510000D02*
X158859420Y-84510000D01*
%TO.C,R9*%
X154977500Y-77237258D02*
X154977500Y-76762742D01*
X156022500Y-77237258D02*
X156022500Y-76762742D01*
%TO.C,C1*%
X127490000Y-83640580D02*
X127490000Y-83359420D01*
X128510000Y-83640580D02*
X128510000Y-83359420D01*
%TO.C,R10*%
X97737258Y-74540000D02*
X97262742Y-74540000D01*
X97737258Y-75585000D02*
X97262742Y-75585000D01*
%TO.C,R2*%
X112062258Y-88477500D02*
X111587742Y-88477500D01*
X112062258Y-89522500D02*
X111587742Y-89522500D01*
%TO.C,R5*%
X138737258Y-94477500D02*
X138262742Y-94477500D01*
X138737258Y-95522500D02*
X138262742Y-95522500D01*
D13*
%TO.C,SW1*%
X122460000Y-74460000D02*
X123730000Y-74460000D01*
X122460000Y-75100000D02*
X123730000Y-75100000D01*
X122460000Y-79540000D02*
X122460000Y-74460000D01*
X123090000Y-76360000D02*
X122460000Y-75730000D01*
X123730000Y-74460000D02*
X123730000Y-79540000D01*
X123730000Y-74460000D02*
X125000000Y-74460000D01*
X123730000Y-75100000D02*
X125000000Y-75100000D01*
X123730000Y-75730000D02*
X123090000Y-75100000D01*
X123730000Y-76360000D02*
X122460000Y-75100000D01*
X123730000Y-76360000D02*
X122460000Y-76360000D01*
X123730000Y-79540000D02*
X122460000Y-79540000D01*
X123730000Y-79540000D02*
X123730000Y-74460000D01*
X124360000Y-76360000D02*
X123730000Y-75730000D01*
X125000000Y-74460000D02*
X125000000Y-79540000D01*
X125000000Y-74460000D02*
X125000000Y-79540000D01*
X125000000Y-75100000D02*
X126270000Y-76360000D01*
X125000000Y-75730000D02*
X124360000Y-75100000D01*
X125000000Y-76360000D02*
X123730000Y-75100000D01*
X125000000Y-76360000D02*
X123730000Y-76360000D01*
X125000000Y-79540000D02*
X123730000Y-79540000D01*
X125000000Y-79540000D02*
X125000000Y-74460000D01*
X125000000Y-79540000D02*
X126270000Y-79540000D01*
X125630000Y-76360000D02*
X125000000Y-75730000D01*
X126270000Y-74460000D02*
X125000000Y-74460000D01*
X126270000Y-74460000D02*
X126270000Y-79540000D01*
X126270000Y-74460000D02*
X126270000Y-79540000D01*
X126270000Y-75100000D02*
X125000000Y-75100000D01*
X126270000Y-75730000D02*
X125630000Y-75100000D01*
X126270000Y-76360000D02*
X125000000Y-76360000D01*
X126270000Y-76360000D02*
X127540000Y-76360000D01*
X126270000Y-79540000D02*
X126270000Y-74460000D01*
X126270000Y-79540000D02*
X126270000Y-74460000D01*
X126270000Y-79540000D02*
X127540000Y-79540000D01*
X126900000Y-76360000D02*
X126270000Y-75730000D01*
X127540000Y-74460000D02*
X126270000Y-74460000D01*
X127540000Y-75100000D02*
X126270000Y-75100000D01*
X127540000Y-75730000D02*
X126900000Y-75100000D01*
X127540000Y-76360000D02*
X126270000Y-75100000D01*
X127540000Y-79540000D02*
X127540000Y-74460000D01*
D12*
%TO.C,R1*%
X138737258Y-88477500D02*
X138262742Y-88477500D01*
X138737258Y-89522500D02*
X138262742Y-89522500D01*
D13*
%TO.C,SW2*%
X142460000Y-89460000D02*
X147540000Y-89460000D01*
X142460000Y-90730000D02*
X142460000Y-89460000D01*
X142460000Y-90730000D02*
X147540000Y-90730000D01*
X142460000Y-92000000D02*
X142460000Y-90730000D01*
X142460000Y-92000000D02*
X142460000Y-93270000D01*
X142460000Y-92000000D02*
X147540000Y-92000000D01*
X142460000Y-93270000D02*
X142460000Y-94540000D01*
X142460000Y-93270000D02*
X147540000Y-93270000D01*
X142460000Y-93270000D02*
X147540000Y-93270000D01*
X142460000Y-94540000D02*
X147540000Y-94540000D01*
X145640000Y-90090000D02*
X146270000Y-89460000D01*
X145640000Y-90730000D02*
X145640000Y-89460000D01*
X145640000Y-90730000D02*
X146900000Y-89460000D01*
X145640000Y-91360000D02*
X146270000Y-90730000D01*
X145640000Y-92000000D02*
X145640000Y-90730000D01*
X145640000Y-92000000D02*
X146900000Y-90730000D01*
X145640000Y-92630000D02*
X146270000Y-92000000D01*
X145640000Y-93270000D02*
X145640000Y-92000000D01*
X145640000Y-93270000D02*
X145640000Y-94540000D01*
X145640000Y-93900000D02*
X146270000Y-93270000D01*
X145640000Y-94540000D02*
X146900000Y-93270000D01*
X146270000Y-90730000D02*
X146900000Y-90090000D01*
X146270000Y-92000000D02*
X146900000Y-91360000D01*
X146270000Y-93270000D02*
X146900000Y-92630000D01*
X146270000Y-94540000D02*
X146900000Y-93900000D01*
X146900000Y-89460000D02*
X146900000Y-90730000D01*
X146900000Y-90730000D02*
X146900000Y-92000000D01*
X146900000Y-92000000D02*
X145640000Y-93270000D01*
X146900000Y-93270000D02*
X146900000Y-92000000D01*
X146900000Y-94540000D02*
X146900000Y-93270000D01*
X147540000Y-89460000D02*
X147540000Y-90730000D01*
X147540000Y-90730000D02*
X142460000Y-90730000D01*
X147540000Y-90730000D02*
X147540000Y-92000000D01*
X147540000Y-92000000D02*
X142460000Y-92000000D01*
X147540000Y-92000000D02*
X142460000Y-92000000D01*
X147540000Y-93270000D02*
X142460000Y-93270000D01*
X147540000Y-93270000D02*
X142460000Y-93270000D01*
X147540000Y-93270000D02*
X147540000Y-92000000D01*
X147540000Y-94540000D02*
X147540000Y-93270000D01*
D12*
%TO.C,SW5*%
X142280000Y-78040000D02*
X142280000Y-75960000D01*
X143550000Y-74280000D02*
X143060000Y-74770000D01*
X143550000Y-74280000D02*
X146450000Y-74280000D01*
X143550000Y-79720000D02*
X143060000Y-79230000D01*
X143550000Y-79720000D02*
X146450000Y-79720000D01*
X146450000Y-74280000D02*
X146940000Y-74770000D01*
X146450000Y-79720000D02*
X146940000Y-79230000D01*
X147720000Y-78040000D02*
X147720000Y-75960000D01*
%TO.C,Q2*%
X150940000Y-77500000D02*
X150940000Y-76850000D01*
X150940000Y-77500000D02*
X150940000Y-78150000D01*
X154060000Y-77500000D02*
X154060000Y-75825000D01*
X154060000Y-77500000D02*
X154060000Y-78150000D01*
%TO.C,R8*%
X112062258Y-94477500D02*
X111587742Y-94477500D01*
X112062258Y-95522500D02*
X111587742Y-95522500D01*
%TO.C,Q1*%
X95940000Y-78000000D02*
X95940000Y-77350000D01*
X95940000Y-78000000D02*
X95940000Y-78650000D01*
X99060000Y-78000000D02*
X99060000Y-76325000D01*
X99060000Y-78000000D02*
X99060000Y-78650000D01*
%TO.C,R6*%
X112062258Y-90477500D02*
X111587742Y-90477500D01*
X112062258Y-91522500D02*
X111587742Y-91522500D01*
%TO.C,C2*%
X125490000Y-83640580D02*
X125490000Y-83359420D01*
X126510000Y-83640580D02*
X126510000Y-83359420D01*
%TD*%
%LPC*%
D14*
%TO.C,SW4*%
X108100000Y-78850000D03*
X101900000Y-78850000D03*
X108100000Y-75150000D03*
X101900000Y-75150000D03*
%TD*%
D15*
%TO.C,R3*%
X139325000Y-91000000D03*
X137675000Y-91000000D03*
%TD*%
%TO.C,R4*%
X139325000Y-93000000D03*
X137675000Y-93000000D03*
%TD*%
D16*
%TO.C,U1*%
X157862500Y-86050000D03*
X157862500Y-87000000D03*
X157862500Y-87950000D03*
X160137500Y-87950000D03*
X160137500Y-86050000D03*
%TD*%
D17*
%TO.C,C4*%
X122000000Y-84275000D03*
X122000000Y-82725000D03*
%TD*%
D15*
%TO.C,R7*%
X112650000Y-93000000D03*
X111000000Y-93000000D03*
%TD*%
D17*
%TO.C,C3*%
X124000000Y-84275000D03*
X124000000Y-82725000D03*
%TD*%
D18*
%TO.C,SW3*%
X101190000Y-90090000D03*
X101190000Y-91360000D03*
X101190000Y-92630000D03*
X101190000Y-93910000D03*
X108810000Y-93910000D03*
X108810000Y-92630000D03*
X108810000Y-91360000D03*
X108810000Y-90090000D03*
%TD*%
D19*
%TO.C,C5*%
X159775000Y-84000000D03*
X158225000Y-84000000D03*
%TD*%
D20*
%TO.C,R9*%
X155500000Y-77825000D03*
X155500000Y-76175000D03*
%TD*%
D17*
%TO.C,C1*%
X128000000Y-84275000D03*
X128000000Y-82725000D03*
%TD*%
D15*
%TO.C,R10*%
X98325000Y-75062500D03*
X96675000Y-75062500D03*
%TD*%
%TO.C,R2*%
X112650000Y-89000000D03*
X111000000Y-89000000D03*
%TD*%
%TO.C,R5*%
X139325000Y-95000000D03*
X137675000Y-95000000D03*
%TD*%
D21*
%TO.C,SW1*%
X126910000Y-73190000D03*
X125640000Y-73190000D03*
X124370000Y-73190000D03*
X123090000Y-73190000D03*
X123090000Y-80810000D03*
X124370000Y-80810000D03*
X125640000Y-80810000D03*
X126910000Y-80810000D03*
%TD*%
D15*
%TO.C,R1*%
X139325000Y-89000000D03*
X137675000Y-89000000D03*
%TD*%
D18*
%TO.C,SW2*%
X148810000Y-93910000D03*
X148810000Y-92640000D03*
X148810000Y-91370000D03*
X148810000Y-90090000D03*
X141190000Y-90090000D03*
X141190000Y-91370000D03*
X141190000Y-92640000D03*
X141190000Y-93910000D03*
%TD*%
D14*
%TO.C,SW5*%
X141900000Y-75150000D03*
X148100000Y-75150000D03*
X141900000Y-78850000D03*
X148100000Y-78850000D03*
%TD*%
D22*
%TO.C,Q2*%
X153450000Y-76562500D03*
X151550000Y-76562500D03*
X152500000Y-78437500D03*
%TD*%
D15*
%TO.C,R8*%
X112650000Y-95000000D03*
X111000000Y-95000000D03*
%TD*%
D22*
%TO.C,Q1*%
X98450000Y-77062500D03*
X96550000Y-77062500D03*
X97500000Y-78937500D03*
%TD*%
D15*
%TO.C,R6*%
X112650000Y-91000000D03*
X111000000Y-91000000D03*
%TD*%
D17*
%TO.C,C2*%
X126000000Y-84275000D03*
X126000000Y-82725000D03*
%TD*%
D23*
%TO.C,J1*%
X82014400Y-74650600D03*
D24*
X79474400Y-74650600D03*
X82014400Y-77190600D03*
X79474400Y-77190600D03*
X82014400Y-79730600D03*
X79474400Y-79730600D03*
X82014400Y-82270600D03*
X79474400Y-82270600D03*
X82014400Y-84810600D03*
X79474400Y-84810600D03*
X82014400Y-87350600D03*
X79474400Y-87350600D03*
X82014400Y-89890600D03*
X79474400Y-89890600D03*
X82014400Y-92430600D03*
X79474400Y-92430600D03*
X82014400Y-94970600D03*
X79474400Y-94970600D03*
X82014400Y-97510600D03*
X79474400Y-97510600D03*
%TD*%
D23*
%TO.C,J2*%
X168554400Y-77190600D03*
D24*
X166014400Y-77190600D03*
X168554400Y-79730600D03*
X166014400Y-79730600D03*
X168554400Y-82270600D03*
X166014400Y-82270600D03*
X168554400Y-84810600D03*
X166014400Y-84810600D03*
X168554400Y-87350600D03*
X166014400Y-87350600D03*
X168554400Y-89890600D03*
X166014400Y-89890600D03*
X168554400Y-92430600D03*
X166014400Y-92430600D03*
X168554400Y-94970600D03*
X166014400Y-94970600D03*
%TD*%
%LPD*%
M02*
