%TF.GenerationSoftware,KiCad,Pcbnew,8.0.3*%
%TF.CreationDate,2025-07-14T16:25:53+02:00*%
%TF.ProjectId,Cmes,436d6573-2e6b-4696-9361-645f70636258,rev?*%
%TF.SameCoordinates,Original*%
%TF.FileFunction,Legend,Bot*%
%TF.FilePolarity,Positive*%
%FSLAX46Y46*%
G04 Gerber Fmt 4.6, Leading zero omitted, Abs format (unit mm)*
G04 Created by KiCad (PCBNEW 8.0.3) date 2025-07-14 16:25:53*
%MOMM*%
%LPD*%
G01*
G04 APERTURE LIST*
G04 Aperture macros list*
%AMRoundRect*
0 Rectangle with rounded corners*
0 $1 Rounding radius*
0 $2 $3 $4 $5 $6 $7 $8 $9 X,Y pos of 4 corners*
0 Add a 4 corners polygon primitive as box body*
4,1,4,$2,$3,$4,$5,$6,$7,$8,$9,$2,$3,0*
0 Add four circle primitives for the rounded corners*
1,1,$1+$1,$2,$3*
1,1,$1+$1,$4,$5*
1,1,$1+$1,$6,$7*
1,1,$1+$1,$8,$9*
0 Add four rect primitives between the rounded corners*
20,1,$1+$1,$2,$3,$4,$5,0*
20,1,$1+$1,$4,$5,$6,$7,0*
20,1,$1+$1,$6,$7,$8,$9,0*
20,1,$1+$1,$8,$9,$2,$3,0*%
G04 Aperture macros list end*
%ADD10C,0.150000*%
%ADD11C,0.120000*%
%ADD12RoundRect,0.135000X0.185000X-0.135000X0.185000X0.135000X-0.185000X0.135000X-0.185000X-0.135000X0*%
%ADD13R,1.700000X1.700000*%
%ADD14O,1.700000X1.700000*%
G04 APERTURE END LIST*
D10*
X86308419Y-91279742D02*
X85832228Y-90946409D01*
X86308419Y-90708314D02*
X85308419Y-90708314D01*
X85308419Y-90708314D02*
X85308419Y-91089266D01*
X85308419Y-91089266D02*
X85356038Y-91184504D01*
X85356038Y-91184504D02*
X85403657Y-91232123D01*
X85403657Y-91232123D02*
X85498895Y-91279742D01*
X85498895Y-91279742D02*
X85641752Y-91279742D01*
X85641752Y-91279742D02*
X85736990Y-91232123D01*
X85736990Y-91232123D02*
X85784609Y-91184504D01*
X85784609Y-91184504D02*
X85832228Y-91089266D01*
X85832228Y-91089266D02*
X85832228Y-90708314D01*
X85403657Y-91660695D02*
X85356038Y-91708314D01*
X85356038Y-91708314D02*
X85308419Y-91803552D01*
X85308419Y-91803552D02*
X85308419Y-92041647D01*
X85308419Y-92041647D02*
X85356038Y-92136885D01*
X85356038Y-92136885D02*
X85403657Y-92184504D01*
X85403657Y-92184504D02*
X85498895Y-92232123D01*
X85498895Y-92232123D02*
X85594133Y-92232123D01*
X85594133Y-92232123D02*
X85736990Y-92184504D01*
X85736990Y-92184504D02*
X86308419Y-91613076D01*
X86308419Y-91613076D02*
X86308419Y-92232123D01*
X85308419Y-92851171D02*
X85308419Y-92946409D01*
X85308419Y-92946409D02*
X85356038Y-93041647D01*
X85356038Y-93041647D02*
X85403657Y-93089266D01*
X85403657Y-93089266D02*
X85498895Y-93136885D01*
X85498895Y-93136885D02*
X85689371Y-93184504D01*
X85689371Y-93184504D02*
X85927466Y-93184504D01*
X85927466Y-93184504D02*
X86117942Y-93136885D01*
X86117942Y-93136885D02*
X86213180Y-93089266D01*
X86213180Y-93089266D02*
X86260800Y-93041647D01*
X86260800Y-93041647D02*
X86308419Y-92946409D01*
X86308419Y-92946409D02*
X86308419Y-92851171D01*
X86308419Y-92851171D02*
X86260800Y-92755933D01*
X86260800Y-92755933D02*
X86213180Y-92708314D01*
X86213180Y-92708314D02*
X86117942Y-92660695D01*
X86117942Y-92660695D02*
X85927466Y-92613076D01*
X85927466Y-92613076D02*
X85689371Y-92613076D01*
X85689371Y-92613076D02*
X85498895Y-92660695D01*
X85498895Y-92660695D02*
X85403657Y-92708314D01*
X85403657Y-92708314D02*
X85356038Y-92755933D01*
X85356038Y-92755933D02*
X85308419Y-92851171D01*
X86308419Y-83659742D02*
X85832228Y-83326409D01*
X86308419Y-83088314D02*
X85308419Y-83088314D01*
X85308419Y-83088314D02*
X85308419Y-83469266D01*
X85308419Y-83469266D02*
X85356038Y-83564504D01*
X85356038Y-83564504D02*
X85403657Y-83612123D01*
X85403657Y-83612123D02*
X85498895Y-83659742D01*
X85498895Y-83659742D02*
X85641752Y-83659742D01*
X85641752Y-83659742D02*
X85736990Y-83612123D01*
X85736990Y-83612123D02*
X85784609Y-83564504D01*
X85784609Y-83564504D02*
X85832228Y-83469266D01*
X85832228Y-83469266D02*
X85832228Y-83088314D01*
X85403657Y-84040695D02*
X85356038Y-84088314D01*
X85356038Y-84088314D02*
X85308419Y-84183552D01*
X85308419Y-84183552D02*
X85308419Y-84421647D01*
X85308419Y-84421647D02*
X85356038Y-84516885D01*
X85356038Y-84516885D02*
X85403657Y-84564504D01*
X85403657Y-84564504D02*
X85498895Y-84612123D01*
X85498895Y-84612123D02*
X85594133Y-84612123D01*
X85594133Y-84612123D02*
X85736990Y-84564504D01*
X85736990Y-84564504D02*
X86308419Y-83993076D01*
X86308419Y-83993076D02*
X86308419Y-84612123D01*
X85308419Y-84945457D02*
X85308419Y-85564504D01*
X85308419Y-85564504D02*
X85689371Y-85231171D01*
X85689371Y-85231171D02*
X85689371Y-85374028D01*
X85689371Y-85374028D02*
X85736990Y-85469266D01*
X85736990Y-85469266D02*
X85784609Y-85516885D01*
X85784609Y-85516885D02*
X85879847Y-85564504D01*
X85879847Y-85564504D02*
X86117942Y-85564504D01*
X86117942Y-85564504D02*
X86213180Y-85516885D01*
X86213180Y-85516885D02*
X86260800Y-85469266D01*
X86260800Y-85469266D02*
X86308419Y-85374028D01*
X86308419Y-85374028D02*
X86308419Y-85088314D01*
X86308419Y-85088314D02*
X86260800Y-84993076D01*
X86260800Y-84993076D02*
X86213180Y-84945457D01*
X86308419Y-81119742D02*
X85832228Y-80786409D01*
X86308419Y-80548314D02*
X85308419Y-80548314D01*
X85308419Y-80548314D02*
X85308419Y-80929266D01*
X85308419Y-80929266D02*
X85356038Y-81024504D01*
X85356038Y-81024504D02*
X85403657Y-81072123D01*
X85403657Y-81072123D02*
X85498895Y-81119742D01*
X85498895Y-81119742D02*
X85641752Y-81119742D01*
X85641752Y-81119742D02*
X85736990Y-81072123D01*
X85736990Y-81072123D02*
X85784609Y-81024504D01*
X85784609Y-81024504D02*
X85832228Y-80929266D01*
X85832228Y-80929266D02*
X85832228Y-80548314D01*
X85403657Y-81500695D02*
X85356038Y-81548314D01*
X85356038Y-81548314D02*
X85308419Y-81643552D01*
X85308419Y-81643552D02*
X85308419Y-81881647D01*
X85308419Y-81881647D02*
X85356038Y-81976885D01*
X85356038Y-81976885D02*
X85403657Y-82024504D01*
X85403657Y-82024504D02*
X85498895Y-82072123D01*
X85498895Y-82072123D02*
X85594133Y-82072123D01*
X85594133Y-82072123D02*
X85736990Y-82024504D01*
X85736990Y-82024504D02*
X86308419Y-81453076D01*
X86308419Y-81453076D02*
X86308419Y-82072123D01*
X85641752Y-82929266D02*
X86308419Y-82929266D01*
X85260800Y-82691171D02*
X85975085Y-82453076D01*
X85975085Y-82453076D02*
X85975085Y-83072123D01*
X88467419Y-86174342D02*
X87991228Y-85841009D01*
X88467419Y-85602914D02*
X87467419Y-85602914D01*
X87467419Y-85602914D02*
X87467419Y-85983866D01*
X87467419Y-85983866D02*
X87515038Y-86079104D01*
X87515038Y-86079104D02*
X87562657Y-86126723D01*
X87562657Y-86126723D02*
X87657895Y-86174342D01*
X87657895Y-86174342D02*
X87800752Y-86174342D01*
X87800752Y-86174342D02*
X87895990Y-86126723D01*
X87895990Y-86126723D02*
X87943609Y-86079104D01*
X87943609Y-86079104D02*
X87991228Y-85983866D01*
X87991228Y-85983866D02*
X87991228Y-85602914D01*
X88467419Y-87126723D02*
X88467419Y-86555295D01*
X88467419Y-86841009D02*
X87467419Y-86841009D01*
X87467419Y-86841009D02*
X87610276Y-86745771D01*
X87610276Y-86745771D02*
X87705514Y-86650533D01*
X87705514Y-86650533D02*
X87753133Y-86555295D01*
X87800752Y-87983866D02*
X88467419Y-87983866D01*
X87419800Y-87745771D02*
X88134085Y-87507676D01*
X88134085Y-87507676D02*
X88134085Y-88126723D01*
X86308419Y-76039742D02*
X85832228Y-75706409D01*
X86308419Y-75468314D02*
X85308419Y-75468314D01*
X85308419Y-75468314D02*
X85308419Y-75849266D01*
X85308419Y-75849266D02*
X85356038Y-75944504D01*
X85356038Y-75944504D02*
X85403657Y-75992123D01*
X85403657Y-75992123D02*
X85498895Y-76039742D01*
X85498895Y-76039742D02*
X85641752Y-76039742D01*
X85641752Y-76039742D02*
X85736990Y-75992123D01*
X85736990Y-75992123D02*
X85784609Y-75944504D01*
X85784609Y-75944504D02*
X85832228Y-75849266D01*
X85832228Y-75849266D02*
X85832228Y-75468314D01*
X85403657Y-76420695D02*
X85356038Y-76468314D01*
X85356038Y-76468314D02*
X85308419Y-76563552D01*
X85308419Y-76563552D02*
X85308419Y-76801647D01*
X85308419Y-76801647D02*
X85356038Y-76896885D01*
X85356038Y-76896885D02*
X85403657Y-76944504D01*
X85403657Y-76944504D02*
X85498895Y-76992123D01*
X85498895Y-76992123D02*
X85594133Y-76992123D01*
X85594133Y-76992123D02*
X85736990Y-76944504D01*
X85736990Y-76944504D02*
X86308419Y-76373076D01*
X86308419Y-76373076D02*
X86308419Y-76992123D01*
X85308419Y-77849266D02*
X85308419Y-77658790D01*
X85308419Y-77658790D02*
X85356038Y-77563552D01*
X85356038Y-77563552D02*
X85403657Y-77515933D01*
X85403657Y-77515933D02*
X85546514Y-77420695D01*
X85546514Y-77420695D02*
X85736990Y-77373076D01*
X85736990Y-77373076D02*
X86117942Y-77373076D01*
X86117942Y-77373076D02*
X86213180Y-77420695D01*
X86213180Y-77420695D02*
X86260800Y-77468314D01*
X86260800Y-77468314D02*
X86308419Y-77563552D01*
X86308419Y-77563552D02*
X86308419Y-77754028D01*
X86308419Y-77754028D02*
X86260800Y-77849266D01*
X86260800Y-77849266D02*
X86213180Y-77896885D01*
X86213180Y-77896885D02*
X86117942Y-77944504D01*
X86117942Y-77944504D02*
X85879847Y-77944504D01*
X85879847Y-77944504D02*
X85784609Y-77896885D01*
X85784609Y-77896885D02*
X85736990Y-77849266D01*
X85736990Y-77849266D02*
X85689371Y-77754028D01*
X85689371Y-77754028D02*
X85689371Y-77563552D01*
X85689371Y-77563552D02*
X85736990Y-77468314D01*
X85736990Y-77468314D02*
X85784609Y-77420695D01*
X85784609Y-77420695D02*
X85879847Y-77373076D01*
X88467419Y-78579742D02*
X87991228Y-78246409D01*
X88467419Y-78008314D02*
X87467419Y-78008314D01*
X87467419Y-78008314D02*
X87467419Y-78389266D01*
X87467419Y-78389266D02*
X87515038Y-78484504D01*
X87515038Y-78484504D02*
X87562657Y-78532123D01*
X87562657Y-78532123D02*
X87657895Y-78579742D01*
X87657895Y-78579742D02*
X87800752Y-78579742D01*
X87800752Y-78579742D02*
X87895990Y-78532123D01*
X87895990Y-78532123D02*
X87943609Y-78484504D01*
X87943609Y-78484504D02*
X87991228Y-78389266D01*
X87991228Y-78389266D02*
X87991228Y-78008314D01*
X88467419Y-79532123D02*
X88467419Y-78960695D01*
X88467419Y-79246409D02*
X87467419Y-79246409D01*
X87467419Y-79246409D02*
X87610276Y-79151171D01*
X87610276Y-79151171D02*
X87705514Y-79055933D01*
X87705514Y-79055933D02*
X87753133Y-78960695D01*
X87467419Y-79865457D02*
X87467419Y-80532123D01*
X87467419Y-80532123D02*
X88467419Y-80103552D01*
X81077733Y-71775419D02*
X81077733Y-72489704D01*
X81077733Y-72489704D02*
X81125352Y-72632561D01*
X81125352Y-72632561D02*
X81220590Y-72727800D01*
X81220590Y-72727800D02*
X81363447Y-72775419D01*
X81363447Y-72775419D02*
X81458685Y-72775419D01*
X80077733Y-72775419D02*
X80649161Y-72775419D01*
X80363447Y-72775419D02*
X80363447Y-71775419D01*
X80363447Y-71775419D02*
X80458685Y-71918276D01*
X80458685Y-71918276D02*
X80553923Y-72013514D01*
X80553923Y-72013514D02*
X80649161Y-72061133D01*
X88467419Y-76039742D02*
X87991228Y-75706409D01*
X88467419Y-75468314D02*
X87467419Y-75468314D01*
X87467419Y-75468314D02*
X87467419Y-75849266D01*
X87467419Y-75849266D02*
X87515038Y-75944504D01*
X87515038Y-75944504D02*
X87562657Y-75992123D01*
X87562657Y-75992123D02*
X87657895Y-76039742D01*
X87657895Y-76039742D02*
X87800752Y-76039742D01*
X87800752Y-76039742D02*
X87895990Y-75992123D01*
X87895990Y-75992123D02*
X87943609Y-75944504D01*
X87943609Y-75944504D02*
X87991228Y-75849266D01*
X87991228Y-75849266D02*
X87991228Y-75468314D01*
X88467419Y-76992123D02*
X88467419Y-76420695D01*
X88467419Y-76706409D02*
X87467419Y-76706409D01*
X87467419Y-76706409D02*
X87610276Y-76611171D01*
X87610276Y-76611171D02*
X87705514Y-76515933D01*
X87705514Y-76515933D02*
X87753133Y-76420695D01*
X87895990Y-77563552D02*
X87848371Y-77468314D01*
X87848371Y-77468314D02*
X87800752Y-77420695D01*
X87800752Y-77420695D02*
X87705514Y-77373076D01*
X87705514Y-77373076D02*
X87657895Y-77373076D01*
X87657895Y-77373076D02*
X87562657Y-77420695D01*
X87562657Y-77420695D02*
X87515038Y-77468314D01*
X87515038Y-77468314D02*
X87467419Y-77563552D01*
X87467419Y-77563552D02*
X87467419Y-77754028D01*
X87467419Y-77754028D02*
X87515038Y-77849266D01*
X87515038Y-77849266D02*
X87562657Y-77896885D01*
X87562657Y-77896885D02*
X87657895Y-77944504D01*
X87657895Y-77944504D02*
X87705514Y-77944504D01*
X87705514Y-77944504D02*
X87800752Y-77896885D01*
X87800752Y-77896885D02*
X87848371Y-77849266D01*
X87848371Y-77849266D02*
X87895990Y-77754028D01*
X87895990Y-77754028D02*
X87895990Y-77563552D01*
X87895990Y-77563552D02*
X87943609Y-77468314D01*
X87943609Y-77468314D02*
X87991228Y-77420695D01*
X87991228Y-77420695D02*
X88086466Y-77373076D01*
X88086466Y-77373076D02*
X88276942Y-77373076D01*
X88276942Y-77373076D02*
X88372180Y-77420695D01*
X88372180Y-77420695D02*
X88419800Y-77468314D01*
X88419800Y-77468314D02*
X88467419Y-77563552D01*
X88467419Y-77563552D02*
X88467419Y-77754028D01*
X88467419Y-77754028D02*
X88419800Y-77849266D01*
X88419800Y-77849266D02*
X88372180Y-77896885D01*
X88372180Y-77896885D02*
X88276942Y-77944504D01*
X88276942Y-77944504D02*
X88086466Y-77944504D01*
X88086466Y-77944504D02*
X87991228Y-77896885D01*
X87991228Y-77896885D02*
X87943609Y-77849266D01*
X87943609Y-77849266D02*
X87895990Y-77754028D01*
X88467419Y-83659742D02*
X87991228Y-83326409D01*
X88467419Y-83088314D02*
X87467419Y-83088314D01*
X87467419Y-83088314D02*
X87467419Y-83469266D01*
X87467419Y-83469266D02*
X87515038Y-83564504D01*
X87515038Y-83564504D02*
X87562657Y-83612123D01*
X87562657Y-83612123D02*
X87657895Y-83659742D01*
X87657895Y-83659742D02*
X87800752Y-83659742D01*
X87800752Y-83659742D02*
X87895990Y-83612123D01*
X87895990Y-83612123D02*
X87943609Y-83564504D01*
X87943609Y-83564504D02*
X87991228Y-83469266D01*
X87991228Y-83469266D02*
X87991228Y-83088314D01*
X88467419Y-84612123D02*
X88467419Y-84040695D01*
X88467419Y-84326409D02*
X87467419Y-84326409D01*
X87467419Y-84326409D02*
X87610276Y-84231171D01*
X87610276Y-84231171D02*
X87705514Y-84135933D01*
X87705514Y-84135933D02*
X87753133Y-84040695D01*
X87467419Y-85516885D02*
X87467419Y-85040695D01*
X87467419Y-85040695D02*
X87943609Y-84993076D01*
X87943609Y-84993076D02*
X87895990Y-85040695D01*
X87895990Y-85040695D02*
X87848371Y-85135933D01*
X87848371Y-85135933D02*
X87848371Y-85374028D01*
X87848371Y-85374028D02*
X87895990Y-85469266D01*
X87895990Y-85469266D02*
X87943609Y-85516885D01*
X87943609Y-85516885D02*
X88038847Y-85564504D01*
X88038847Y-85564504D02*
X88276942Y-85564504D01*
X88276942Y-85564504D02*
X88372180Y-85516885D01*
X88372180Y-85516885D02*
X88419800Y-85469266D01*
X88419800Y-85469266D02*
X88467419Y-85374028D01*
X88467419Y-85374028D02*
X88467419Y-85135933D01*
X88467419Y-85135933D02*
X88419800Y-85040695D01*
X88419800Y-85040695D02*
X88372180Y-84993076D01*
X88467419Y-91279742D02*
X87991228Y-90946409D01*
X88467419Y-90708314D02*
X87467419Y-90708314D01*
X87467419Y-90708314D02*
X87467419Y-91089266D01*
X87467419Y-91089266D02*
X87515038Y-91184504D01*
X87515038Y-91184504D02*
X87562657Y-91232123D01*
X87562657Y-91232123D02*
X87657895Y-91279742D01*
X87657895Y-91279742D02*
X87800752Y-91279742D01*
X87800752Y-91279742D02*
X87895990Y-91232123D01*
X87895990Y-91232123D02*
X87943609Y-91184504D01*
X87943609Y-91184504D02*
X87991228Y-91089266D01*
X87991228Y-91089266D02*
X87991228Y-90708314D01*
X88467419Y-92232123D02*
X88467419Y-91660695D01*
X88467419Y-91946409D02*
X87467419Y-91946409D01*
X87467419Y-91946409D02*
X87610276Y-91851171D01*
X87610276Y-91851171D02*
X87705514Y-91755933D01*
X87705514Y-91755933D02*
X87753133Y-91660695D01*
X87562657Y-92613076D02*
X87515038Y-92660695D01*
X87515038Y-92660695D02*
X87467419Y-92755933D01*
X87467419Y-92755933D02*
X87467419Y-92994028D01*
X87467419Y-92994028D02*
X87515038Y-93089266D01*
X87515038Y-93089266D02*
X87562657Y-93136885D01*
X87562657Y-93136885D02*
X87657895Y-93184504D01*
X87657895Y-93184504D02*
X87753133Y-93184504D01*
X87753133Y-93184504D02*
X87895990Y-93136885D01*
X87895990Y-93136885D02*
X88467419Y-92565457D01*
X88467419Y-92565457D02*
X88467419Y-93184504D01*
X88467419Y-81119742D02*
X87991228Y-80786409D01*
X88467419Y-80548314D02*
X87467419Y-80548314D01*
X87467419Y-80548314D02*
X87467419Y-80929266D01*
X87467419Y-80929266D02*
X87515038Y-81024504D01*
X87515038Y-81024504D02*
X87562657Y-81072123D01*
X87562657Y-81072123D02*
X87657895Y-81119742D01*
X87657895Y-81119742D02*
X87800752Y-81119742D01*
X87800752Y-81119742D02*
X87895990Y-81072123D01*
X87895990Y-81072123D02*
X87943609Y-81024504D01*
X87943609Y-81024504D02*
X87991228Y-80929266D01*
X87991228Y-80929266D02*
X87991228Y-80548314D01*
X88467419Y-82072123D02*
X88467419Y-81500695D01*
X88467419Y-81786409D02*
X87467419Y-81786409D01*
X87467419Y-81786409D02*
X87610276Y-81691171D01*
X87610276Y-81691171D02*
X87705514Y-81595933D01*
X87705514Y-81595933D02*
X87753133Y-81500695D01*
X87467419Y-82929266D02*
X87467419Y-82738790D01*
X87467419Y-82738790D02*
X87515038Y-82643552D01*
X87515038Y-82643552D02*
X87562657Y-82595933D01*
X87562657Y-82595933D02*
X87705514Y-82500695D01*
X87705514Y-82500695D02*
X87895990Y-82453076D01*
X87895990Y-82453076D02*
X88276942Y-82453076D01*
X88276942Y-82453076D02*
X88372180Y-82500695D01*
X88372180Y-82500695D02*
X88419800Y-82548314D01*
X88419800Y-82548314D02*
X88467419Y-82643552D01*
X88467419Y-82643552D02*
X88467419Y-82834028D01*
X88467419Y-82834028D02*
X88419800Y-82929266D01*
X88419800Y-82929266D02*
X88372180Y-82976885D01*
X88372180Y-82976885D02*
X88276942Y-83024504D01*
X88276942Y-83024504D02*
X88038847Y-83024504D01*
X88038847Y-83024504D02*
X87943609Y-82976885D01*
X87943609Y-82976885D02*
X87895990Y-82929266D01*
X87895990Y-82929266D02*
X87848371Y-82834028D01*
X87848371Y-82834028D02*
X87848371Y-82643552D01*
X87848371Y-82643552D02*
X87895990Y-82548314D01*
X87895990Y-82548314D02*
X87943609Y-82500695D01*
X87943609Y-82500695D02*
X88038847Y-82453076D01*
X88467419Y-88739742D02*
X87991228Y-88406409D01*
X88467419Y-88168314D02*
X87467419Y-88168314D01*
X87467419Y-88168314D02*
X87467419Y-88549266D01*
X87467419Y-88549266D02*
X87515038Y-88644504D01*
X87515038Y-88644504D02*
X87562657Y-88692123D01*
X87562657Y-88692123D02*
X87657895Y-88739742D01*
X87657895Y-88739742D02*
X87800752Y-88739742D01*
X87800752Y-88739742D02*
X87895990Y-88692123D01*
X87895990Y-88692123D02*
X87943609Y-88644504D01*
X87943609Y-88644504D02*
X87991228Y-88549266D01*
X87991228Y-88549266D02*
X87991228Y-88168314D01*
X88467419Y-89692123D02*
X88467419Y-89120695D01*
X88467419Y-89406409D02*
X87467419Y-89406409D01*
X87467419Y-89406409D02*
X87610276Y-89311171D01*
X87610276Y-89311171D02*
X87705514Y-89215933D01*
X87705514Y-89215933D02*
X87753133Y-89120695D01*
X87467419Y-90025457D02*
X87467419Y-90644504D01*
X87467419Y-90644504D02*
X87848371Y-90311171D01*
X87848371Y-90311171D02*
X87848371Y-90454028D01*
X87848371Y-90454028D02*
X87895990Y-90549266D01*
X87895990Y-90549266D02*
X87943609Y-90596885D01*
X87943609Y-90596885D02*
X88038847Y-90644504D01*
X88038847Y-90644504D02*
X88276942Y-90644504D01*
X88276942Y-90644504D02*
X88372180Y-90596885D01*
X88372180Y-90596885D02*
X88419800Y-90549266D01*
X88419800Y-90549266D02*
X88467419Y-90454028D01*
X88467419Y-90454028D02*
X88467419Y-90168314D01*
X88467419Y-90168314D02*
X88419800Y-90073076D01*
X88419800Y-90073076D02*
X88372180Y-90025457D01*
X86308419Y-78579742D02*
X85832228Y-78246409D01*
X86308419Y-78008314D02*
X85308419Y-78008314D01*
X85308419Y-78008314D02*
X85308419Y-78389266D01*
X85308419Y-78389266D02*
X85356038Y-78484504D01*
X85356038Y-78484504D02*
X85403657Y-78532123D01*
X85403657Y-78532123D02*
X85498895Y-78579742D01*
X85498895Y-78579742D02*
X85641752Y-78579742D01*
X85641752Y-78579742D02*
X85736990Y-78532123D01*
X85736990Y-78532123D02*
X85784609Y-78484504D01*
X85784609Y-78484504D02*
X85832228Y-78389266D01*
X85832228Y-78389266D02*
X85832228Y-78008314D01*
X85403657Y-78960695D02*
X85356038Y-79008314D01*
X85356038Y-79008314D02*
X85308419Y-79103552D01*
X85308419Y-79103552D02*
X85308419Y-79341647D01*
X85308419Y-79341647D02*
X85356038Y-79436885D01*
X85356038Y-79436885D02*
X85403657Y-79484504D01*
X85403657Y-79484504D02*
X85498895Y-79532123D01*
X85498895Y-79532123D02*
X85594133Y-79532123D01*
X85594133Y-79532123D02*
X85736990Y-79484504D01*
X85736990Y-79484504D02*
X86308419Y-78913076D01*
X86308419Y-78913076D02*
X86308419Y-79532123D01*
X85308419Y-80436885D02*
X85308419Y-79960695D01*
X85308419Y-79960695D02*
X85784609Y-79913076D01*
X85784609Y-79913076D02*
X85736990Y-79960695D01*
X85736990Y-79960695D02*
X85689371Y-80055933D01*
X85689371Y-80055933D02*
X85689371Y-80294028D01*
X85689371Y-80294028D02*
X85736990Y-80389266D01*
X85736990Y-80389266D02*
X85784609Y-80436885D01*
X85784609Y-80436885D02*
X85879847Y-80484504D01*
X85879847Y-80484504D02*
X86117942Y-80484504D01*
X86117942Y-80484504D02*
X86213180Y-80436885D01*
X86213180Y-80436885D02*
X86260800Y-80389266D01*
X86260800Y-80389266D02*
X86308419Y-80294028D01*
X86308419Y-80294028D02*
X86308419Y-80055933D01*
X86308419Y-80055933D02*
X86260800Y-79960695D01*
X86260800Y-79960695D02*
X86213180Y-79913076D01*
X86308419Y-86174342D02*
X85832228Y-85841009D01*
X86308419Y-85602914D02*
X85308419Y-85602914D01*
X85308419Y-85602914D02*
X85308419Y-85983866D01*
X85308419Y-85983866D02*
X85356038Y-86079104D01*
X85356038Y-86079104D02*
X85403657Y-86126723D01*
X85403657Y-86126723D02*
X85498895Y-86174342D01*
X85498895Y-86174342D02*
X85641752Y-86174342D01*
X85641752Y-86174342D02*
X85736990Y-86126723D01*
X85736990Y-86126723D02*
X85784609Y-86079104D01*
X85784609Y-86079104D02*
X85832228Y-85983866D01*
X85832228Y-85983866D02*
X85832228Y-85602914D01*
X85403657Y-86555295D02*
X85356038Y-86602914D01*
X85356038Y-86602914D02*
X85308419Y-86698152D01*
X85308419Y-86698152D02*
X85308419Y-86936247D01*
X85308419Y-86936247D02*
X85356038Y-87031485D01*
X85356038Y-87031485D02*
X85403657Y-87079104D01*
X85403657Y-87079104D02*
X85498895Y-87126723D01*
X85498895Y-87126723D02*
X85594133Y-87126723D01*
X85594133Y-87126723D02*
X85736990Y-87079104D01*
X85736990Y-87079104D02*
X86308419Y-86507676D01*
X86308419Y-86507676D02*
X86308419Y-87126723D01*
X85403657Y-87507676D02*
X85356038Y-87555295D01*
X85356038Y-87555295D02*
X85308419Y-87650533D01*
X85308419Y-87650533D02*
X85308419Y-87888628D01*
X85308419Y-87888628D02*
X85356038Y-87983866D01*
X85356038Y-87983866D02*
X85403657Y-88031485D01*
X85403657Y-88031485D02*
X85498895Y-88079104D01*
X85498895Y-88079104D02*
X85594133Y-88079104D01*
X85594133Y-88079104D02*
X85736990Y-88031485D01*
X85736990Y-88031485D02*
X86308419Y-87460057D01*
X86308419Y-87460057D02*
X86308419Y-88079104D01*
X88467419Y-93819742D02*
X87991228Y-93486409D01*
X88467419Y-93248314D02*
X87467419Y-93248314D01*
X87467419Y-93248314D02*
X87467419Y-93629266D01*
X87467419Y-93629266D02*
X87515038Y-93724504D01*
X87515038Y-93724504D02*
X87562657Y-93772123D01*
X87562657Y-93772123D02*
X87657895Y-93819742D01*
X87657895Y-93819742D02*
X87800752Y-93819742D01*
X87800752Y-93819742D02*
X87895990Y-93772123D01*
X87895990Y-93772123D02*
X87943609Y-93724504D01*
X87943609Y-93724504D02*
X87991228Y-93629266D01*
X87991228Y-93629266D02*
X87991228Y-93248314D01*
X88467419Y-94772123D02*
X88467419Y-94200695D01*
X88467419Y-94486409D02*
X87467419Y-94486409D01*
X87467419Y-94486409D02*
X87610276Y-94391171D01*
X87610276Y-94391171D02*
X87705514Y-94295933D01*
X87705514Y-94295933D02*
X87753133Y-94200695D01*
X88467419Y-95724504D02*
X88467419Y-95153076D01*
X88467419Y-95438790D02*
X87467419Y-95438790D01*
X87467419Y-95438790D02*
X87610276Y-95343552D01*
X87610276Y-95343552D02*
X87705514Y-95248314D01*
X87705514Y-95248314D02*
X87753133Y-95153076D01*
X167617733Y-74315419D02*
X167617733Y-75029704D01*
X167617733Y-75029704D02*
X167665352Y-75172561D01*
X167665352Y-75172561D02*
X167760590Y-75267800D01*
X167760590Y-75267800D02*
X167903447Y-75315419D01*
X167903447Y-75315419D02*
X167998685Y-75315419D01*
X167189161Y-74410657D02*
X167141542Y-74363038D01*
X167141542Y-74363038D02*
X167046304Y-74315419D01*
X167046304Y-74315419D02*
X166808209Y-74315419D01*
X166808209Y-74315419D02*
X166712971Y-74363038D01*
X166712971Y-74363038D02*
X166665352Y-74410657D01*
X166665352Y-74410657D02*
X166617733Y-74505895D01*
X166617733Y-74505895D02*
X166617733Y-74601133D01*
X166617733Y-74601133D02*
X166665352Y-74743990D01*
X166665352Y-74743990D02*
X167236780Y-75315419D01*
X167236780Y-75315419D02*
X166617733Y-75315419D01*
X86308419Y-93819742D02*
X85832228Y-93486409D01*
X86308419Y-93248314D02*
X85308419Y-93248314D01*
X85308419Y-93248314D02*
X85308419Y-93629266D01*
X85308419Y-93629266D02*
X85356038Y-93724504D01*
X85356038Y-93724504D02*
X85403657Y-93772123D01*
X85403657Y-93772123D02*
X85498895Y-93819742D01*
X85498895Y-93819742D02*
X85641752Y-93819742D01*
X85641752Y-93819742D02*
X85736990Y-93772123D01*
X85736990Y-93772123D02*
X85784609Y-93724504D01*
X85784609Y-93724504D02*
X85832228Y-93629266D01*
X85832228Y-93629266D02*
X85832228Y-93248314D01*
X86308419Y-94772123D02*
X86308419Y-94200695D01*
X86308419Y-94486409D02*
X85308419Y-94486409D01*
X85308419Y-94486409D02*
X85451276Y-94391171D01*
X85451276Y-94391171D02*
X85546514Y-94295933D01*
X85546514Y-94295933D02*
X85594133Y-94200695D01*
X86308419Y-95248314D02*
X86308419Y-95438790D01*
X86308419Y-95438790D02*
X86260800Y-95534028D01*
X86260800Y-95534028D02*
X86213180Y-95581647D01*
X86213180Y-95581647D02*
X86070323Y-95676885D01*
X86070323Y-95676885D02*
X85879847Y-95724504D01*
X85879847Y-95724504D02*
X85498895Y-95724504D01*
X85498895Y-95724504D02*
X85403657Y-95676885D01*
X85403657Y-95676885D02*
X85356038Y-95629266D01*
X85356038Y-95629266D02*
X85308419Y-95534028D01*
X85308419Y-95534028D02*
X85308419Y-95343552D01*
X85308419Y-95343552D02*
X85356038Y-95248314D01*
X85356038Y-95248314D02*
X85403657Y-95200695D01*
X85403657Y-95200695D02*
X85498895Y-95153076D01*
X85498895Y-95153076D02*
X85736990Y-95153076D01*
X85736990Y-95153076D02*
X85832228Y-95200695D01*
X85832228Y-95200695D02*
X85879847Y-95248314D01*
X85879847Y-95248314D02*
X85927466Y-95343552D01*
X85927466Y-95343552D02*
X85927466Y-95534028D01*
X85927466Y-95534028D02*
X85879847Y-95629266D01*
X85879847Y-95629266D02*
X85832228Y-95676885D01*
X85832228Y-95676885D02*
X85736990Y-95724504D01*
X86308419Y-88739742D02*
X85832228Y-88406409D01*
X86308419Y-88168314D02*
X85308419Y-88168314D01*
X85308419Y-88168314D02*
X85308419Y-88549266D01*
X85308419Y-88549266D02*
X85356038Y-88644504D01*
X85356038Y-88644504D02*
X85403657Y-88692123D01*
X85403657Y-88692123D02*
X85498895Y-88739742D01*
X85498895Y-88739742D02*
X85641752Y-88739742D01*
X85641752Y-88739742D02*
X85736990Y-88692123D01*
X85736990Y-88692123D02*
X85784609Y-88644504D01*
X85784609Y-88644504D02*
X85832228Y-88549266D01*
X85832228Y-88549266D02*
X85832228Y-88168314D01*
X85403657Y-89120695D02*
X85356038Y-89168314D01*
X85356038Y-89168314D02*
X85308419Y-89263552D01*
X85308419Y-89263552D02*
X85308419Y-89501647D01*
X85308419Y-89501647D02*
X85356038Y-89596885D01*
X85356038Y-89596885D02*
X85403657Y-89644504D01*
X85403657Y-89644504D02*
X85498895Y-89692123D01*
X85498895Y-89692123D02*
X85594133Y-89692123D01*
X85594133Y-89692123D02*
X85736990Y-89644504D01*
X85736990Y-89644504D02*
X86308419Y-89073076D01*
X86308419Y-89073076D02*
X86308419Y-89692123D01*
X86308419Y-90644504D02*
X86308419Y-90073076D01*
X86308419Y-90358790D02*
X85308419Y-90358790D01*
X85308419Y-90358790D02*
X85451276Y-90263552D01*
X85451276Y-90263552D02*
X85546514Y-90168314D01*
X85546514Y-90168314D02*
X85594133Y-90073076D01*
D11*
%TO.C,R20*%
X84303600Y-91768959D02*
X84303600Y-92076241D01*
X85063600Y-91768959D02*
X85063600Y-92076241D01*
%TO.C,R23*%
X84303600Y-84148959D02*
X84303600Y-84456241D01*
X85063600Y-84148959D02*
X85063600Y-84456241D01*
%TO.C,R24*%
X84303600Y-81608959D02*
X84303600Y-81916241D01*
X85063600Y-81608959D02*
X85063600Y-81916241D01*
%TO.C,R14*%
X86462600Y-86663559D02*
X86462600Y-86970841D01*
X87222600Y-86663559D02*
X87222600Y-86970841D01*
%TO.C,R26*%
X84303600Y-76528959D02*
X84303600Y-76836241D01*
X85063600Y-76528959D02*
X85063600Y-76836241D01*
%TO.C,R17*%
X86462600Y-79068959D02*
X86462600Y-79376241D01*
X87222600Y-79068959D02*
X87222600Y-79376241D01*
%TO.C,J1*%
X78144400Y-73320600D02*
X78144400Y-98840600D01*
X80744400Y-73320600D02*
X78144400Y-73320600D01*
X80744400Y-75920600D02*
X80744400Y-73320600D01*
X83344400Y-73320600D02*
X82014400Y-73320600D01*
X83344400Y-74650600D02*
X83344400Y-73320600D01*
X83344400Y-75920600D02*
X80744400Y-75920600D01*
X83344400Y-75920600D02*
X83344400Y-98840600D01*
X83344400Y-98840600D02*
X78144400Y-98840600D01*
%TO.C,R18*%
X86462600Y-76528959D02*
X86462600Y-76836241D01*
X87222600Y-76528959D02*
X87222600Y-76836241D01*
%TO.C,R15*%
X86462600Y-84148959D02*
X86462600Y-84456241D01*
X87222600Y-84148959D02*
X87222600Y-84456241D01*
%TO.C,R12*%
X86462600Y-91768959D02*
X86462600Y-92076241D01*
X87222600Y-91768959D02*
X87222600Y-92076241D01*
%TO.C,R16*%
X86462600Y-81608959D02*
X86462600Y-81916241D01*
X87222600Y-81608959D02*
X87222600Y-81916241D01*
%TO.C,R13*%
X86462600Y-89228959D02*
X86462600Y-89536241D01*
X87222600Y-89228959D02*
X87222600Y-89536241D01*
%TO.C,R25*%
X84303600Y-79068959D02*
X84303600Y-79376241D01*
X85063600Y-79068959D02*
X85063600Y-79376241D01*
%TO.C,R22*%
X84303600Y-86663559D02*
X84303600Y-86970841D01*
X85063600Y-86663559D02*
X85063600Y-86970841D01*
%TO.C,R11*%
X86462600Y-94308959D02*
X86462600Y-94616241D01*
X87222600Y-94308959D02*
X87222600Y-94616241D01*
%TO.C,J2*%
X164684400Y-75860600D02*
X164684400Y-96300600D01*
X167284400Y-75860600D02*
X164684400Y-75860600D01*
X167284400Y-78460600D02*
X167284400Y-75860600D01*
X169884400Y-75860600D02*
X168554400Y-75860600D01*
X169884400Y-77190600D02*
X169884400Y-75860600D01*
X169884400Y-78460600D02*
X167284400Y-78460600D01*
X169884400Y-78460600D02*
X169884400Y-96300600D01*
X169884400Y-96300600D02*
X164684400Y-96300600D01*
%TO.C,R19*%
X84303600Y-94308959D02*
X84303600Y-94616241D01*
X85063600Y-94308959D02*
X85063600Y-94616241D01*
%TO.C,R21*%
X84303600Y-89228959D02*
X84303600Y-89536241D01*
X85063600Y-89228959D02*
X85063600Y-89536241D01*
%TD*%
%LPC*%
D12*
%TO.C,R20*%
X84683600Y-92432600D03*
X84683600Y-91412600D03*
%TD*%
%TO.C,R23*%
X84683600Y-84812600D03*
X84683600Y-83792600D03*
%TD*%
%TO.C,R24*%
X84683600Y-82272600D03*
X84683600Y-81252600D03*
%TD*%
%TO.C,R14*%
X86842600Y-87327200D03*
X86842600Y-86307200D03*
%TD*%
%TO.C,R26*%
X84683600Y-77192600D03*
X84683600Y-76172600D03*
%TD*%
%TO.C,R17*%
X86842600Y-79732600D03*
X86842600Y-78712600D03*
%TD*%
D13*
%TO.C,J1*%
X82014400Y-74650600D03*
D14*
X79474400Y-74650600D03*
X82014400Y-77190600D03*
X79474400Y-77190600D03*
X82014400Y-79730600D03*
X79474400Y-79730600D03*
X82014400Y-82270600D03*
X79474400Y-82270600D03*
X82014400Y-84810600D03*
X79474400Y-84810600D03*
X82014400Y-87350600D03*
X79474400Y-87350600D03*
X82014400Y-89890600D03*
X79474400Y-89890600D03*
X82014400Y-92430600D03*
X79474400Y-92430600D03*
X82014400Y-94970600D03*
X79474400Y-94970600D03*
X82014400Y-97510600D03*
X79474400Y-97510600D03*
%TD*%
D12*
%TO.C,R18*%
X86842600Y-77192600D03*
X86842600Y-76172600D03*
%TD*%
%TO.C,R15*%
X86842600Y-84812600D03*
X86842600Y-83792600D03*
%TD*%
%TO.C,R12*%
X86842600Y-92432600D03*
X86842600Y-91412600D03*
%TD*%
%TO.C,R16*%
X86842600Y-82272600D03*
X86842600Y-81252600D03*
%TD*%
%TO.C,R13*%
X86842600Y-89892600D03*
X86842600Y-88872600D03*
%TD*%
%TO.C,R25*%
X84683600Y-79732600D03*
X84683600Y-78712600D03*
%TD*%
%TO.C,R22*%
X84683600Y-87327200D03*
X84683600Y-86307200D03*
%TD*%
%TO.C,R11*%
X86842600Y-94972600D03*
X86842600Y-93952600D03*
%TD*%
D13*
%TO.C,J2*%
X168554400Y-77190600D03*
D14*
X166014400Y-77190600D03*
X168554400Y-79730600D03*
X166014400Y-79730600D03*
X168554400Y-82270600D03*
X166014400Y-82270600D03*
X168554400Y-84810600D03*
X166014400Y-84810600D03*
X168554400Y-87350600D03*
X166014400Y-87350600D03*
X168554400Y-89890600D03*
X166014400Y-89890600D03*
X168554400Y-92430600D03*
X166014400Y-92430600D03*
X168554400Y-94970600D03*
X166014400Y-94970600D03*
%TD*%
D12*
%TO.C,R19*%
X84683600Y-94972600D03*
X84683600Y-93952600D03*
%TD*%
%TO.C,R21*%
X84683600Y-89892600D03*
X84683600Y-88872600D03*
%TD*%
%LPD*%
M02*
