%TF.GenerationSoftware,KiCad,Pcbnew,8.0.3*%
%TF.CreationDate,2025-07-14T16:25:53+02:00*%
%TF.ProjectId,Cmes,436d6573-2e6b-4696-9361-645f70636258,rev?*%
%TF.SameCoordinates,Original*%
%TF.FileFunction,Soldermask,Bot*%
%TF.FilePolarity,Negative*%
%FSLAX46Y46*%
G04 Gerber Fmt 4.6, Leading zero omitted, Abs format (unit mm)*
G04 Created by KiCad (PCBNEW 8.0.3) date 2025-07-14 16:25:53*
%MOMM*%
%LPD*%
G01*
G04 APERTURE LIST*
G04 Aperture macros list*
%AMRoundRect*
0 Rectangle with rounded corners*
0 $1 Rounding radius*
0 $2 $3 $4 $5 $6 $7 $8 $9 X,Y pos of 4 corners*
0 Add a 4 corners polygon primitive as box body*
4,1,4,$2,$3,$4,$5,$6,$7,$8,$9,$2,$3,0*
0 Add four circle primitives for the rounded corners*
1,1,$1+$1,$2,$3*
1,1,$1+$1,$4,$5*
1,1,$1+$1,$6,$7*
1,1,$1+$1,$8,$9*
0 Add four rect primitives between the rounded corners*
20,1,$1+$1,$2,$3,$4,$5,0*
20,1,$1+$1,$4,$5,$6,$7,0*
20,1,$1+$1,$6,$7,$8,$9,0*
20,1,$1+$1,$8,$9,$2,$3,0*%
G04 Aperture macros list end*
%ADD10RoundRect,0.135000X0.185000X-0.135000X0.185000X0.135000X-0.185000X0.135000X-0.185000X-0.135000X0*%
%ADD11R,1.700000X1.700000*%
%ADD12O,1.700000X1.700000*%
G04 APERTURE END LIST*
D10*
%TO.C,R20*%
X84683600Y-92432600D03*
X84683600Y-91412600D03*
%TD*%
%TO.C,R23*%
X84683600Y-84812600D03*
X84683600Y-83792600D03*
%TD*%
%TO.C,R24*%
X84683600Y-82272600D03*
X84683600Y-81252600D03*
%TD*%
%TO.C,R14*%
X86842600Y-87327200D03*
X86842600Y-86307200D03*
%TD*%
%TO.C,R26*%
X84683600Y-77192600D03*
X84683600Y-76172600D03*
%TD*%
%TO.C,R17*%
X86842600Y-79732600D03*
X86842600Y-78712600D03*
%TD*%
D11*
%TO.C,J1*%
X82014400Y-74650600D03*
D12*
X79474400Y-74650600D03*
X82014400Y-77190600D03*
X79474400Y-77190600D03*
X82014400Y-79730600D03*
X79474400Y-79730600D03*
X82014400Y-82270600D03*
X79474400Y-82270600D03*
X82014400Y-84810600D03*
X79474400Y-84810600D03*
X82014400Y-87350600D03*
X79474400Y-87350600D03*
X82014400Y-89890600D03*
X79474400Y-89890600D03*
X82014400Y-92430600D03*
X79474400Y-92430600D03*
X82014400Y-94970600D03*
X79474400Y-94970600D03*
X82014400Y-97510600D03*
X79474400Y-97510600D03*
%TD*%
D10*
%TO.C,R18*%
X86842600Y-77192600D03*
X86842600Y-76172600D03*
%TD*%
%TO.C,R15*%
X86842600Y-84812600D03*
X86842600Y-83792600D03*
%TD*%
%TO.C,R12*%
X86842600Y-92432600D03*
X86842600Y-91412600D03*
%TD*%
%TO.C,R16*%
X86842600Y-82272600D03*
X86842600Y-81252600D03*
%TD*%
%TO.C,R13*%
X86842600Y-89892600D03*
X86842600Y-88872600D03*
%TD*%
%TO.C,R25*%
X84683600Y-79732600D03*
X84683600Y-78712600D03*
%TD*%
%TO.C,R22*%
X84683600Y-87327200D03*
X84683600Y-86307200D03*
%TD*%
%TO.C,R11*%
X86842600Y-94972600D03*
X86842600Y-93952600D03*
%TD*%
D11*
%TO.C,J2*%
X168554400Y-77190600D03*
D12*
X166014400Y-77190600D03*
X168554400Y-79730600D03*
X166014400Y-79730600D03*
X168554400Y-82270600D03*
X166014400Y-82270600D03*
X168554400Y-84810600D03*
X166014400Y-84810600D03*
X168554400Y-87350600D03*
X166014400Y-87350600D03*
X168554400Y-89890600D03*
X166014400Y-89890600D03*
X168554400Y-92430600D03*
X166014400Y-92430600D03*
X168554400Y-94970600D03*
X166014400Y-94970600D03*
%TD*%
D10*
%TO.C,R19*%
X84683600Y-94972600D03*
X84683600Y-93952600D03*
%TD*%
%TO.C,R21*%
X84683600Y-89892600D03*
X84683600Y-88872600D03*
%TD*%
M02*
