%TF.GenerationSoftware,KiCad,Pcbnew,8.0.1*%
%TF.CreationDate,2024-04-03T13:15:38+02:00*%
%TF.ProjectId,AdapterFlatFlexMYDAQ,41646170-7465-4724-966c-6174466c6578,rev?*%
%TF.SameCoordinates,Original*%
%TF.FileFunction,Legend,Top*%
%TF.FilePolarity,Positive*%
%FSLAX46Y46*%
G04 Gerber Fmt 4.6, Leading zero omitted, Abs format (unit mm)*
G04 Created by KiCad (PCBNEW 8.0.1) date 2024-04-03 13:15:38*
%MOMM*%
%LPD*%
G01*
G04 APERTURE LIST*
G04 Aperture macros list*
%AMRoundRect*
0 Rectangle with rounded corners*
0 $1 Rounding radius*
0 $2 $3 $4 $5 $6 $7 $8 $9 X,Y pos of 4 corners*
0 Add a 4 corners polygon primitive as box body*
4,1,4,$2,$3,$4,$5,$6,$7,$8,$9,$2,$3,0*
0 Add four circle primitives for the rounded corners*
1,1,$1+$1,$2,$3*
1,1,$1+$1,$4,$5*
1,1,$1+$1,$6,$7*
1,1,$1+$1,$8,$9*
0 Add four rect primitives between the rounded corners*
20,1,$1+$1,$2,$3,$4,$5,0*
20,1,$1+$1,$4,$5,$6,$7,0*
20,1,$1+$1,$6,$7,$8,$9,0*
20,1,$1+$1,$8,$9,$2,$3,0*%
G04 Aperture macros list end*
%ADD10C,0.150000*%
%ADD11C,0.120000*%
%ADD12RoundRect,0.255000X2.245000X0.255000X-2.245000X0.255000X-2.245000X-0.255000X2.245000X-0.255000X0*%
%ADD13C,2.800000*%
G04 APERTURE END LIST*
D10*
X103216666Y-75614819D02*
X103216666Y-76329104D01*
X103216666Y-76329104D02*
X103169047Y-76471961D01*
X103169047Y-76471961D02*
X103073809Y-76567200D01*
X103073809Y-76567200D02*
X102930952Y-76614819D01*
X102930952Y-76614819D02*
X102835714Y-76614819D01*
X104216666Y-76614819D02*
X103645238Y-76614819D01*
X103930952Y-76614819D02*
X103930952Y-75614819D01*
X103930952Y-75614819D02*
X103835714Y-75757676D01*
X103835714Y-75757676D02*
X103740476Y-75852914D01*
X103740476Y-75852914D02*
X103645238Y-75900533D01*
X103366666Y-106034819D02*
X103366666Y-106749104D01*
X103366666Y-106749104D02*
X103319047Y-106891961D01*
X103319047Y-106891961D02*
X103223809Y-106987200D01*
X103223809Y-106987200D02*
X103080952Y-107034819D01*
X103080952Y-107034819D02*
X102985714Y-107034819D01*
X103795238Y-106130057D02*
X103842857Y-106082438D01*
X103842857Y-106082438D02*
X103938095Y-106034819D01*
X103938095Y-106034819D02*
X104176190Y-106034819D01*
X104176190Y-106034819D02*
X104271428Y-106082438D01*
X104271428Y-106082438D02*
X104319047Y-106130057D01*
X104319047Y-106130057D02*
X104366666Y-106225295D01*
X104366666Y-106225295D02*
X104366666Y-106320533D01*
X104366666Y-106320533D02*
X104319047Y-106463390D01*
X104319047Y-106463390D02*
X103747619Y-107034819D01*
X103747619Y-107034819D02*
X104366666Y-107034819D01*
D11*
%TO.C,J1*%
X98965000Y-42030000D02*
X98965000Y-46210000D01*
X98965000Y-75270000D02*
X98965000Y-71090000D01*
X108135000Y-42030000D02*
X98965000Y-42030000D01*
X108135000Y-46210000D02*
X108135000Y-42030000D01*
X108135000Y-71090000D02*
X108135000Y-75270000D01*
X108135000Y-71090000D02*
X109635000Y-71090000D01*
X108135000Y-75270000D02*
X98965000Y-75270000D01*
%TO.C,J2*%
X99115000Y-77530000D02*
X99115000Y-81710000D01*
X99115000Y-105690000D02*
X99115000Y-101510000D01*
X108285000Y-77530000D02*
X99115000Y-77530000D01*
X108285000Y-81710000D02*
X108285000Y-77530000D01*
X108285000Y-101510000D02*
X108285000Y-105690000D01*
X108285000Y-101510000D02*
X109785000Y-101510000D01*
X108285000Y-105690000D02*
X99115000Y-105690000D01*
%TO.C,J4*%
X92500000Y-36000000D02*
X86500000Y-36000000D01*
X92500000Y-113000000D02*
X86500000Y-113000000D01*
X92500000Y-113000000D02*
X92500000Y-36000000D01*
%TD*%
%LPC*%
D12*
%TO.C,J1*%
X107350000Y-70080000D03*
X99750000Y-70080000D03*
X107350000Y-67540000D03*
X99750000Y-67540000D03*
X107350000Y-65000000D03*
X99750000Y-65000000D03*
X107350000Y-62460000D03*
X99750000Y-62460000D03*
X107350000Y-59920000D03*
X99750000Y-59920000D03*
X107350000Y-57380000D03*
X99750000Y-57380000D03*
X107350000Y-54840000D03*
X99750000Y-54840000D03*
X107350000Y-52300000D03*
X99750000Y-52300000D03*
X107350000Y-49760000D03*
X99750000Y-49760000D03*
X107350000Y-47220000D03*
X99750000Y-47220000D03*
%TD*%
%TO.C,J2*%
X107500000Y-100500000D03*
X99900000Y-100500000D03*
X107500000Y-97960000D03*
X99900000Y-97960000D03*
X107500000Y-95420000D03*
X99900000Y-95420000D03*
X107500000Y-92880000D03*
X99900000Y-92880000D03*
X107500000Y-90340000D03*
X99900000Y-90340000D03*
X107500000Y-87800000D03*
X99900000Y-87800000D03*
X107500000Y-85260000D03*
X99900000Y-85260000D03*
X107500000Y-82720000D03*
X99900000Y-82720000D03*
%TD*%
D13*
%TO.C,J4*%
X87960000Y-110695000D03*
X90500000Y-110695000D03*
X87960000Y-106885000D03*
X90500000Y-106885000D03*
X87960000Y-103075000D03*
X90500000Y-103075000D03*
X87960000Y-99265000D03*
X90500000Y-99265000D03*
X87960000Y-95455000D03*
X90500000Y-95455000D03*
X87960000Y-91645000D03*
X90500000Y-91645000D03*
X87960000Y-87835000D03*
X90500000Y-87835000D03*
X87960000Y-84025000D03*
X90500000Y-84025000D03*
X87960000Y-80215000D03*
X90500000Y-80215000D03*
X87960000Y-76405000D03*
X90500000Y-76405000D03*
X87960000Y-72595000D03*
X90500000Y-72595000D03*
X87960000Y-68785000D03*
X90500000Y-68785000D03*
X87960000Y-64975000D03*
X90500000Y-64975000D03*
X87960000Y-61165000D03*
X90500000Y-61165000D03*
X87960000Y-57355000D03*
X90500000Y-57355000D03*
X87960000Y-53545000D03*
X90500000Y-53545000D03*
X87960000Y-49735000D03*
X90500000Y-49735000D03*
X87960000Y-45925000D03*
X90500000Y-45925000D03*
X87960000Y-42115000D03*
X90500000Y-42115000D03*
X87960000Y-38305000D03*
X90500000Y-38305000D03*
%TD*%
%LPD*%
M02*
