M48
; DRILL file {KiCad 8.0.1} date 2024-04-03T13:15:38+0200
; FORMAT={-:-/ absolute / inch / decimal}
; #@! TF.CreationDate,2024-04-03T13:15:38+02:00
; #@! TF.GenerationSoftware,Kicad,Pcbnew,8.0.1
; #@! TF.FileFunction,Plated,1,2,PTH
FMAT,2
INCH
; #@! TA.AperFunction,Plated,PTH,ViaDrill
T1C0.0118
; #@! TA.AperFunction,Plated,PTH,ComponentDrill
T2C0.0551
%
G90
G05
T1
X3.878Y-3.2087
X3.9173Y-1.811
X3.937Y-3.2087
X4.1929Y-3.2087
X4.2323Y-1.811
X4.252Y-3.2087
T2
X3.463Y-1.5081
X3.463Y-1.6581
X3.463Y-1.8081
X3.463Y-1.9581
X3.463Y-2.1081
X3.463Y-2.2581
X3.463Y-2.4081
X3.463Y-2.5581
X3.463Y-2.7081
X3.463Y-2.8581
X3.463Y-3.0081
X3.463Y-3.1581
X3.463Y-3.3081
X3.463Y-3.4581
X3.463Y-3.6081
X3.463Y-3.7581
X3.463Y-3.9081
X3.463Y-4.0581
X3.463Y-4.2081
X3.463Y-4.3581
X3.563Y-1.5081
X3.563Y-1.6581
X3.563Y-1.8081
X3.563Y-1.9581
X3.563Y-2.1081
X3.563Y-2.2581
X3.563Y-2.4081
X3.563Y-2.5581
X3.563Y-2.7081
X3.563Y-2.8581
X3.563Y-3.0081
X3.563Y-3.1581
X3.563Y-3.3081
X3.563Y-3.4581
X3.563Y-3.6081
X3.563Y-3.7581
X3.563Y-3.9081
X3.563Y-4.0581
X3.563Y-4.2081
X3.563Y-4.3581
M30
