%TF.GenerationSoftware,KiCad,Pcbnew,8.0.1*%
%TF.CreationDate,2024-04-03T13:15:38+02:00*%
%TF.ProjectId,AdapterFlatFlexMYDAQ,41646170-7465-4724-966c-6174466c6578,rev?*%
%TF.SameCoordinates,Original*%
%TF.FileFunction,Copper,L1,Top*%
%TF.FilePolarity,Positive*%
%FSLAX46Y46*%
G04 Gerber Fmt 4.6, Leading zero omitted, Abs format (unit mm)*
G04 Created by KiCad (PCBNEW 8.0.1) date 2024-04-03 13:15:38*
%MOMM*%
%LPD*%
G01*
G04 APERTURE LIST*
G04 Aperture macros list*
%AMRoundRect*
0 Rectangle with rounded corners*
0 $1 Rounding radius*
0 $2 $3 $4 $5 $6 $7 $8 $9 X,Y pos of 4 corners*
0 Add a 4 corners polygon primitive as box body*
4,1,4,$2,$3,$4,$5,$6,$7,$8,$9,$2,$3,0*
0 Add four circle primitives for the rounded corners*
1,1,$1+$1,$2,$3*
1,1,$1+$1,$4,$5*
1,1,$1+$1,$6,$7*
1,1,$1+$1,$8,$9*
0 Add four rect primitives between the rounded corners*
20,1,$1+$1,$2,$3,$4,$5,0*
20,1,$1+$1,$4,$5,$6,$7,0*
20,1,$1+$1,$6,$7,$8,$9,0*
20,1,$1+$1,$8,$9,$2,$3,0*%
G04 Aperture macros list end*
%TA.AperFunction,SMDPad,CuDef*%
%ADD10RoundRect,0.255000X2.245000X0.255000X-2.245000X0.255000X-2.245000X-0.255000X2.245000X-0.255000X0*%
%TD*%
%TA.AperFunction,ComponentPad*%
%ADD11C,2.800000*%
%TD*%
%TA.AperFunction,ViaPad*%
%ADD12C,0.600000*%
%TD*%
%TA.AperFunction,Conductor*%
%ADD13C,0.200000*%
%TD*%
G04 APERTURE END LIST*
D10*
%TO.P,J1,1,Pin_1*%
%TO.N,+5V*%
X107350000Y-70080000D03*
%TO.P,J1,2,Pin_2*%
X99750000Y-70080000D03*
%TO.P,J1,3,Pin_3*%
%TO.N,DIO0*%
X107350000Y-67540000D03*
%TO.P,J1,4,Pin_4*%
%TO.N,DIO8*%
X99750000Y-67540000D03*
%TO.P,J1,5,Pin_5*%
%TO.N,DIO1*%
X107350000Y-65000000D03*
%TO.P,J1,6,Pin_6*%
%TO.N,DIO9*%
X99750000Y-65000000D03*
%TO.P,J1,7,Pin_7*%
%TO.N,DIO2*%
X107350000Y-62460000D03*
%TO.P,J1,8,Pin_8*%
%TO.N,DIO10*%
X99750000Y-62460000D03*
%TO.P,J1,9,Pin_9*%
%TO.N,DIO3*%
X107350000Y-59920000D03*
%TO.P,J1,10,Pin_10*%
%TO.N,DIO11*%
X99750000Y-59920000D03*
%TO.P,J1,11,Pin_11*%
%TO.N,DIO4*%
X107350000Y-57380000D03*
%TO.P,J1,12,Pin_12*%
%TO.N,DIO12*%
X99750000Y-57380000D03*
%TO.P,J1,13,Pin_13*%
%TO.N,DIO5*%
X107350000Y-54840000D03*
%TO.P,J1,14,Pin_14*%
%TO.N,DIO13*%
X99750000Y-54840000D03*
%TO.P,J1,15,Pin_15*%
%TO.N,DIO6*%
X107350000Y-52300000D03*
%TO.P,J1,16,Pin_16*%
%TO.N,DIO14*%
X99750000Y-52300000D03*
%TO.P,J1,17,Pin_17*%
%TO.N,DIO7*%
X107350000Y-49760000D03*
%TO.P,J1,18,Pin_18*%
%TO.N,DIO15*%
X99750000Y-49760000D03*
%TO.P,J1,19,Pin_19*%
%TO.N,GNDD*%
X107350000Y-47220000D03*
%TO.P,J1,20,Pin_20*%
X99750000Y-47220000D03*
%TD*%
%TO.P,J2,1,Pin_1*%
%TO.N,AO0*%
X107500000Y-100500000D03*
%TO.P,J2,2,Pin_2*%
%TO.N,AO1*%
X99900000Y-100500000D03*
%TO.P,J2,3,Pin_3*%
%TO.N,GNDA*%
X107500000Y-97960000D03*
%TO.P,J2,4,Pin_4*%
X99900000Y-97960000D03*
%TO.P,J2,5,Pin_5*%
%TO.N,Res0*%
X107500000Y-95420000D03*
%TO.P,J2,6,Pin_6*%
%TO.N,Res2*%
X99900000Y-95420000D03*
%TO.P,J2,7,Pin_7*%
%TO.N,Res1*%
X107500000Y-92880000D03*
%TO.P,J2,8,Pin_8*%
%TO.N,Res3*%
X99900000Y-92880000D03*
%TO.P,J2,9,Pin_9*%
%TO.N,AI0-*%
X107500000Y-90340000D03*
%TO.P,J2,10,Pin_10*%
%TO.N,AI0+*%
X99900000Y-90340000D03*
%TO.P,J2,11,Pin_11*%
%TO.N,GNDA*%
X107500000Y-87800000D03*
%TO.P,J2,12,Pin_12*%
X99900000Y-87800000D03*
%TO.P,J2,13,Pin_13*%
%TO.N,AI1-*%
X107500000Y-85260000D03*
%TO.P,J2,14,Pin_14*%
%TO.N,AI1+*%
X99900000Y-85260000D03*
%TO.P,J2,15,Pin_15*%
%TO.N,GNDA*%
X107500000Y-82720000D03*
%TO.P,J2,16,Pin_16*%
X99900000Y-82720000D03*
%TD*%
D11*
%TO.P,J4,1,Pin_1*%
%TO.N,unconnected-(J4-Pin_1-Pad1)_0*%
X87960000Y-110695000D03*
%TO.N,unconnected-(J4-Pin_1-Pad1)*%
X90500000Y-110695000D03*
%TO.P,J4,2,Pin_2*%
%TO.N,unconnected-(J4-Pin_2-Pad2)_0*%
X87960000Y-106885000D03*
%TO.N,unconnected-(J4-Pin_2-Pad2)*%
X90500000Y-106885000D03*
%TO.P,J4,3,Pin_3*%
%TO.N,GNDA*%
X87960000Y-103075000D03*
X90500000Y-103075000D03*
%TO.P,J4,4,Pin_4*%
%TO.N,AO0*%
X87960000Y-99265000D03*
X90500000Y-99265000D03*
%TO.P,J4,5,Pin_5*%
%TO.N,AO1*%
X87960000Y-95455000D03*
X90500000Y-95455000D03*
%TO.P,J4,6,Pin_6*%
%TO.N,GNDA*%
X87960000Y-91645000D03*
X90500000Y-91645000D03*
%TO.P,J4,7,Pin_7*%
%TO.N,AI0+*%
X87960000Y-87835000D03*
X90500000Y-87835000D03*
%TO.P,J4,8,Pin_8*%
%TO.N,AI0-*%
X87960000Y-84025000D03*
X90500000Y-84025000D03*
%TO.P,J4,9,Pin_9*%
%TO.N,AI1-*%
X87960000Y-80215000D03*
X90500000Y-80215000D03*
%TO.P,J4,10,Pin_10*%
%TO.N,AI1+*%
X87960000Y-76405000D03*
X90500000Y-76405000D03*
%TO.P,J4,11,Pin_11*%
%TO.N,DIO0*%
X87960000Y-72595000D03*
X90500000Y-72595000D03*
%TO.P,J4,12,Pin_12*%
%TO.N,DIO1*%
X87960000Y-68785000D03*
X90500000Y-68785000D03*
%TO.P,J4,13,Pin_13*%
%TO.N,DIO2*%
X87960000Y-64975000D03*
X90500000Y-64975000D03*
%TO.P,J4,14,Pin_14*%
%TO.N,DIO3*%
X87960000Y-61165000D03*
X90500000Y-61165000D03*
%TO.P,J4,15,Pin_15*%
%TO.N,DIO4*%
X87960000Y-57355000D03*
X90500000Y-57355000D03*
%TO.P,J4,16,Pin_16*%
%TO.N,DIO5*%
X87960000Y-53545000D03*
X90500000Y-53545000D03*
%TO.P,J4,17,Pin_17*%
%TO.N,DIO6*%
X87960000Y-49735000D03*
X90500000Y-49735000D03*
%TO.P,J4,18,Pin_18*%
%TO.N,DIO7*%
X87960000Y-45925000D03*
X90500000Y-45925000D03*
%TO.P,J4,19,Pin_19*%
%TO.N,GNDD*%
X87960000Y-42115000D03*
X90500000Y-42115000D03*
%TO.P,J4,20,Pin_20*%
%TO.N,unconnected-(J4-Pin_20-Pad20)*%
X87960000Y-38305000D03*
%TO.N,unconnected-(J4-Pin_20-Pad20)_0*%
X90500000Y-38305000D03*
%TD*%
D12*
%TO.N,*%
X107500000Y-46000000D03*
X100000000Y-81500000D03*
X108000000Y-81500000D03*
X98500000Y-81500000D03*
X106500000Y-81500000D03*
X99500000Y-46000000D03*
%TD*%
D13*
%TO.N,DIO1*%
X104000000Y-66500000D02*
X105500000Y-65000000D01*
X96500000Y-66500000D02*
X104000000Y-66500000D01*
X90500000Y-68785000D02*
X94215000Y-68785000D01*
X94215000Y-68785000D02*
X96500000Y-66500000D01*
X87960000Y-68785000D02*
X90500000Y-68785000D01*
X105500000Y-65000000D02*
X107350000Y-65000000D01*
%TO.N,DIO4*%
X87960000Y-57355000D02*
X90500000Y-57355000D01*
X105380000Y-57380000D02*
X107350000Y-57380000D01*
X94500000Y-56000000D02*
X104000000Y-56000000D01*
X90500000Y-57355000D02*
X93145000Y-57355000D01*
X93145000Y-57355000D02*
X94500000Y-56000000D01*
X104000000Y-56000000D02*
X105380000Y-57380000D01*
%TO.N,DIO2*%
X96730000Y-63270000D02*
X106540000Y-63270000D01*
X95000000Y-64500000D02*
X95500000Y-64500000D01*
X94525000Y-64975000D02*
X95000000Y-64500000D01*
X87960000Y-64975000D02*
X94525000Y-64975000D01*
X95500000Y-64500000D02*
X96730000Y-63270000D01*
X106540000Y-63270000D02*
X107350000Y-62460000D01*
%TO.N,DIO7*%
X87960000Y-45925000D02*
X90500000Y-45925000D01*
X105260000Y-49760000D02*
X107350000Y-49760000D01*
X90500000Y-45925000D02*
X93075000Y-48500000D01*
X93075000Y-48500000D02*
X104000000Y-48500000D01*
X104000000Y-48500000D02*
X105260000Y-49760000D01*
%TO.N,DIO0*%
X105460000Y-67540000D02*
X107350000Y-67540000D01*
X96500000Y-69000000D02*
X104000000Y-69000000D01*
X87960000Y-72595000D02*
X90500000Y-72595000D01*
X92905000Y-72595000D02*
X96500000Y-69000000D01*
X104000000Y-69000000D02*
X105460000Y-67540000D01*
X90500000Y-72595000D02*
X92905000Y-72595000D01*
%TO.N,DIO6*%
X96500000Y-51000000D02*
X104000000Y-51000000D01*
X104000000Y-51000000D02*
X105300000Y-52300000D01*
X95235000Y-49735000D02*
X96500000Y-51000000D01*
X90500000Y-49735000D02*
X95235000Y-49735000D01*
X87960000Y-49735000D02*
X90500000Y-49735000D01*
X105300000Y-52300000D02*
X107350000Y-52300000D01*
%TO.N,DIO3*%
X106105000Y-61165000D02*
X107350000Y-59920000D01*
X87960000Y-61165000D02*
X106105000Y-61165000D01*
%TO.N,+5V*%
X99750000Y-70080000D02*
X107350000Y-70080000D01*
%TO.N,GNDD*%
X87960000Y-42115000D02*
X90615000Y-42115000D01*
X99750000Y-47220000D02*
X107350000Y-47220000D01*
X95720000Y-47220000D02*
X99750000Y-47220000D01*
X90615000Y-42115000D02*
X95720000Y-47220000D01*
%TO.N,DIO5*%
X87960000Y-53545000D02*
X90500000Y-53545000D01*
X104045000Y-53545000D02*
X105340000Y-54840000D01*
X105340000Y-54840000D02*
X107350000Y-54840000D01*
X90500000Y-53545000D02*
X104045000Y-53545000D01*
%TO.N,GNDA*%
X111500000Y-99791954D02*
X111500000Y-96000000D01*
X91925000Y-104500000D02*
X106791954Y-104500000D01*
X90500000Y-91645000D02*
X87960000Y-91645000D01*
X110855000Y-91645000D02*
X111500000Y-91000000D01*
X107500000Y-87800000D02*
X110200000Y-87800000D01*
X99900000Y-87800000D02*
X107500000Y-87800000D01*
X111500000Y-96500000D02*
X111500000Y-96000000D01*
X111500000Y-86500000D02*
X111500000Y-83500000D01*
X110200000Y-87800000D02*
X111500000Y-86500000D01*
X99900000Y-97960000D02*
X107500000Y-97960000D01*
X107500000Y-97960000D02*
X110040000Y-97960000D01*
X110720000Y-82720000D02*
X107500000Y-82720000D01*
X111500000Y-83500000D02*
X110720000Y-82720000D01*
X99900000Y-82720000D02*
X107500000Y-82720000D01*
X90500000Y-91645000D02*
X110855000Y-91645000D01*
X110040000Y-97960000D02*
X111500000Y-96500000D01*
X111500000Y-91000000D02*
X111500000Y-86500000D01*
X111500000Y-96000000D02*
X111500000Y-91000000D01*
X90500000Y-103075000D02*
X91925000Y-104500000D01*
X87960000Y-103075000D02*
X90500000Y-103075000D01*
X106791954Y-104500000D02*
X111500000Y-99791954D01*
%TO.N,AI1+*%
X90500000Y-76405000D02*
X92905000Y-76405000D01*
X87960000Y-76405000D02*
X90500000Y-76405000D01*
X92905000Y-76405000D02*
X95500000Y-79000000D01*
X97760000Y-85260000D02*
X99900000Y-85260000D01*
X95500000Y-83000000D02*
X97760000Y-85260000D01*
X95500000Y-79000000D02*
X95500000Y-83000000D01*
%TO.N,AI0-*%
X106160000Y-89000000D02*
X107500000Y-90340000D01*
X87960000Y-84025000D02*
X90500000Y-84025000D01*
X90500000Y-84025000D02*
X95475000Y-89000000D01*
X95475000Y-89000000D02*
X106160000Y-89000000D01*
%TO.N,AI0+*%
X90500000Y-87835000D02*
X93005000Y-90340000D01*
X87960000Y-87835000D02*
X90500000Y-87835000D01*
X93005000Y-90340000D02*
X99900000Y-90340000D01*
%TO.N,AO0*%
X105500000Y-102500000D02*
X107500000Y-100500000D01*
X90500000Y-99265000D02*
X93735000Y-102500000D01*
X93735000Y-102500000D02*
X105500000Y-102500000D01*
%TO.N,AO1*%
X95000000Y-96500000D02*
X95000000Y-99000000D01*
X93955000Y-95455000D02*
X95000000Y-96500000D01*
X99900000Y-100500000D02*
X96500000Y-100500000D01*
X90500000Y-95455000D02*
X93955000Y-95455000D01*
X95000000Y-99000000D02*
X96500000Y-100500000D01*
%TO.N,AI1-*%
X106260000Y-86500000D02*
X107500000Y-85260000D01*
X96785000Y-86500000D02*
X106260000Y-86500000D01*
X87960000Y-80215000D02*
X90500000Y-80215000D01*
X90500000Y-80215000D02*
X96785000Y-86500000D01*
%TD*%
%TA.AperFunction,Conductor*%
%TO.N,GNDA*%
G36*
X86013031Y-76519685D02*
G01*
X86058786Y-76572489D01*
X86069675Y-76615152D01*
X86072194Y-76650358D01*
X86074039Y-76676160D01*
X86074040Y-76676167D01*
X86081766Y-76711681D01*
X86131825Y-76941801D01*
X86162926Y-77025185D01*
X86226830Y-77196519D01*
X86357109Y-77435107D01*
X86357110Y-77435108D01*
X86357113Y-77435113D01*
X86520029Y-77652742D01*
X86520033Y-77652746D01*
X86520038Y-77652752D01*
X86712247Y-77844961D01*
X86712253Y-77844966D01*
X86712258Y-77844971D01*
X86929887Y-78007887D01*
X86929891Y-78007889D01*
X86929892Y-78007890D01*
X87168481Y-78138169D01*
X87168480Y-78138169D01*
X87168484Y-78138170D01*
X87168487Y-78138172D01*
X87317682Y-78193819D01*
X87373614Y-78235690D01*
X87398031Y-78301154D01*
X87383179Y-78369427D01*
X87333774Y-78418832D01*
X87317689Y-78426178D01*
X87238994Y-78455530D01*
X87168480Y-78481830D01*
X86929892Y-78612109D01*
X86929891Y-78612110D01*
X86712259Y-78775028D01*
X86712247Y-78775038D01*
X86520038Y-78967247D01*
X86520028Y-78967259D01*
X86357110Y-79184891D01*
X86357109Y-79184892D01*
X86226830Y-79423480D01*
X86179326Y-79550843D01*
X86131825Y-79678199D01*
X86131824Y-79678202D01*
X86131823Y-79678206D01*
X86074040Y-79943832D01*
X86074039Y-79943839D01*
X86054645Y-80214998D01*
X86054645Y-80215001D01*
X86074039Y-80486160D01*
X86074040Y-80486167D01*
X86119346Y-80694435D01*
X86131825Y-80751801D01*
X86140184Y-80774211D01*
X86226830Y-81006519D01*
X86357109Y-81245107D01*
X86357110Y-81245108D01*
X86357113Y-81245113D01*
X86520029Y-81462742D01*
X86520033Y-81462746D01*
X86520038Y-81462752D01*
X86712247Y-81654961D01*
X86712253Y-81654966D01*
X86712258Y-81654971D01*
X86929887Y-81817887D01*
X86929891Y-81817889D01*
X86929892Y-81817890D01*
X87168481Y-81948169D01*
X87168480Y-81948169D01*
X87168484Y-81948170D01*
X87168487Y-81948172D01*
X87317682Y-82003819D01*
X87373614Y-82045690D01*
X87398031Y-82111154D01*
X87383179Y-82179427D01*
X87333774Y-82228832D01*
X87317689Y-82236178D01*
X87238994Y-82265530D01*
X87168480Y-82291830D01*
X86929892Y-82422109D01*
X86929891Y-82422110D01*
X86712259Y-82585028D01*
X86712247Y-82585038D01*
X86520038Y-82777247D01*
X86520028Y-82777259D01*
X86357110Y-82994891D01*
X86357109Y-82994892D01*
X86226830Y-83233480D01*
X86179326Y-83360843D01*
X86131825Y-83488199D01*
X86131824Y-83488202D01*
X86131823Y-83488206D01*
X86074040Y-83753832D01*
X86074039Y-83753839D01*
X86054645Y-84024998D01*
X86054645Y-84025001D01*
X86074039Y-84296160D01*
X86074040Y-84296167D01*
X86131823Y-84561793D01*
X86131825Y-84561801D01*
X86208330Y-84766920D01*
X86226830Y-84816519D01*
X86357109Y-85055107D01*
X86357110Y-85055108D01*
X86357113Y-85055113D01*
X86520029Y-85272742D01*
X86520033Y-85272746D01*
X86520038Y-85272752D01*
X86712247Y-85464961D01*
X86712253Y-85464966D01*
X86712258Y-85464971D01*
X86929887Y-85627887D01*
X86929891Y-85627889D01*
X86929892Y-85627890D01*
X87168481Y-85758169D01*
X87168480Y-85758169D01*
X87168484Y-85758170D01*
X87168487Y-85758172D01*
X87317682Y-85813819D01*
X87373614Y-85855690D01*
X87398031Y-85921154D01*
X87383179Y-85989427D01*
X87333774Y-86038832D01*
X87317689Y-86046178D01*
X87238994Y-86075530D01*
X87168480Y-86101830D01*
X86929892Y-86232109D01*
X86929891Y-86232110D01*
X86712259Y-86395028D01*
X86712247Y-86395038D01*
X86520038Y-86587247D01*
X86520028Y-86587259D01*
X86357110Y-86804891D01*
X86357109Y-86804892D01*
X86226830Y-87043480D01*
X86204839Y-87102441D01*
X86131825Y-87298199D01*
X86131824Y-87298202D01*
X86131823Y-87298206D01*
X86074040Y-87563832D01*
X86074039Y-87563839D01*
X86054645Y-87834998D01*
X86054645Y-87835001D01*
X86074039Y-88106160D01*
X86074040Y-88106167D01*
X86131823Y-88371793D01*
X86131825Y-88371801D01*
X86157420Y-88440423D01*
X86226830Y-88626519D01*
X86357109Y-88865107D01*
X86357110Y-88865108D01*
X86357113Y-88865113D01*
X86520029Y-89082742D01*
X86520033Y-89082746D01*
X86520038Y-89082752D01*
X86712247Y-89274961D01*
X86712253Y-89274966D01*
X86712258Y-89274971D01*
X86929887Y-89437887D01*
X86929891Y-89437889D01*
X86929892Y-89437890D01*
X87168481Y-89568169D01*
X87168485Y-89568171D01*
X87168487Y-89568172D01*
X87318398Y-89624086D01*
X87374331Y-89665956D01*
X87398748Y-89731421D01*
X87383896Y-89799694D01*
X87334491Y-89849099D01*
X87318398Y-89856449D01*
X87168689Y-89912287D01*
X86930164Y-90042532D01*
X86930156Y-90042537D01*
X86804875Y-90136321D01*
X86804874Y-90136322D01*
X87674242Y-91005690D01*
X87628426Y-91024668D01*
X87513776Y-91101274D01*
X87416274Y-91198776D01*
X87339668Y-91313426D01*
X87320690Y-91359242D01*
X86451322Y-90489874D01*
X86451321Y-90489875D01*
X86357537Y-90615156D01*
X86357532Y-90615164D01*
X86227287Y-90853689D01*
X86227285Y-90853693D01*
X86132305Y-91108345D01*
X86074537Y-91373902D01*
X86074536Y-91373909D01*
X86055147Y-91644998D01*
X86055147Y-91645001D01*
X86074536Y-91916090D01*
X86074537Y-91916097D01*
X86132305Y-92181654D01*
X86227285Y-92436306D01*
X86227287Y-92436310D01*
X86357532Y-92674835D01*
X86357537Y-92674843D01*
X86451321Y-92800123D01*
X86451322Y-92800124D01*
X87320690Y-91930756D01*
X87339668Y-91976574D01*
X87416274Y-92091224D01*
X87513776Y-92188726D01*
X87628426Y-92265332D01*
X87674242Y-92284309D01*
X86804874Y-93153676D01*
X86930163Y-93247466D01*
X86930164Y-93247467D01*
X87168689Y-93377712D01*
X87168693Y-93377714D01*
X87318397Y-93433550D01*
X87374331Y-93475421D01*
X87398748Y-93540885D01*
X87383896Y-93609158D01*
X87334491Y-93658564D01*
X87318398Y-93665914D01*
X87168481Y-93721830D01*
X86929892Y-93852109D01*
X86929891Y-93852110D01*
X86712259Y-94015028D01*
X86712247Y-94015038D01*
X86520038Y-94207247D01*
X86520028Y-94207259D01*
X86357110Y-94424891D01*
X86357109Y-94424892D01*
X86226830Y-94663480D01*
X86182621Y-94782011D01*
X86131825Y-94918199D01*
X86131824Y-94918202D01*
X86131823Y-94918206D01*
X86074040Y-95183832D01*
X86074039Y-95183839D01*
X86054645Y-95454998D01*
X86054645Y-95455001D01*
X86074039Y-95726160D01*
X86074040Y-95726167D01*
X86096370Y-95828815D01*
X86131825Y-95991801D01*
X86185671Y-96136166D01*
X86226830Y-96246519D01*
X86357109Y-96485107D01*
X86357110Y-96485108D01*
X86357113Y-96485113D01*
X86520029Y-96702742D01*
X86520033Y-96702746D01*
X86520038Y-96702752D01*
X86712247Y-96894961D01*
X86712253Y-96894966D01*
X86712258Y-96894971D01*
X86929887Y-97057887D01*
X86929891Y-97057889D01*
X86929892Y-97057890D01*
X87168481Y-97188169D01*
X87168480Y-97188169D01*
X87168484Y-97188170D01*
X87168487Y-97188172D01*
X87317682Y-97243819D01*
X87373614Y-97285690D01*
X87398031Y-97351154D01*
X87383179Y-97419427D01*
X87333774Y-97468832D01*
X87317689Y-97476178D01*
X87238994Y-97505530D01*
X87168480Y-97531830D01*
X86929892Y-97662109D01*
X86929891Y-97662110D01*
X86712259Y-97825028D01*
X86712247Y-97825038D01*
X86520038Y-98017247D01*
X86520028Y-98017259D01*
X86357110Y-98234891D01*
X86357109Y-98234892D01*
X86226830Y-98473480D01*
X86203420Y-98536246D01*
X86131825Y-98728199D01*
X86131824Y-98728202D01*
X86131823Y-98728206D01*
X86074040Y-98993832D01*
X86074039Y-98993839D01*
X86054645Y-99264998D01*
X86054645Y-99265000D01*
X86074039Y-99536160D01*
X86074040Y-99536167D01*
X86131823Y-99801793D01*
X86131825Y-99801801D01*
X86208330Y-100006920D01*
X86226830Y-100056519D01*
X86357109Y-100295107D01*
X86357110Y-100295108D01*
X86357113Y-100295113D01*
X86520029Y-100512742D01*
X86520033Y-100512746D01*
X86520038Y-100512752D01*
X86712247Y-100704961D01*
X86712253Y-100704966D01*
X86712258Y-100704971D01*
X86929887Y-100867887D01*
X86929891Y-100867889D01*
X86929892Y-100867890D01*
X87168481Y-100998169D01*
X87168485Y-100998171D01*
X87168487Y-100998172D01*
X87318398Y-101054086D01*
X87374331Y-101095956D01*
X87398748Y-101161421D01*
X87383896Y-101229694D01*
X87334491Y-101279099D01*
X87318398Y-101286449D01*
X87168689Y-101342287D01*
X86930164Y-101472532D01*
X86930156Y-101472537D01*
X86804875Y-101566321D01*
X86804874Y-101566322D01*
X87674242Y-102435690D01*
X87628426Y-102454668D01*
X87513776Y-102531274D01*
X87416274Y-102628776D01*
X87339668Y-102743426D01*
X87320690Y-102789242D01*
X86451322Y-101919874D01*
X86451321Y-101919875D01*
X86357537Y-102045156D01*
X86357532Y-102045164D01*
X86227287Y-102283689D01*
X86227285Y-102283693D01*
X86132305Y-102538345D01*
X86074537Y-102803902D01*
X86074536Y-102803909D01*
X86055147Y-103074998D01*
X86055147Y-103075001D01*
X86074536Y-103346090D01*
X86074537Y-103346097D01*
X86132305Y-103611654D01*
X86227285Y-103866306D01*
X86227287Y-103866310D01*
X86357532Y-104104835D01*
X86357537Y-104104843D01*
X86451321Y-104230123D01*
X86451322Y-104230124D01*
X87320690Y-103360756D01*
X87339668Y-103406574D01*
X87416274Y-103521224D01*
X87513776Y-103618726D01*
X87628426Y-103695332D01*
X87674242Y-103714309D01*
X86804874Y-104583676D01*
X86930163Y-104677466D01*
X86930164Y-104677467D01*
X87168689Y-104807712D01*
X87168693Y-104807714D01*
X87318397Y-104863550D01*
X87374331Y-104905421D01*
X87398748Y-104970885D01*
X87383896Y-105039158D01*
X87334491Y-105088564D01*
X87318398Y-105095914D01*
X87168481Y-105151830D01*
X86929892Y-105282109D01*
X86929891Y-105282110D01*
X86712259Y-105445028D01*
X86712247Y-105445038D01*
X86520038Y-105637247D01*
X86520028Y-105637259D01*
X86357110Y-105854891D01*
X86357109Y-105854892D01*
X86226830Y-106093480D01*
X86179326Y-106220843D01*
X86131825Y-106348199D01*
X86131824Y-106348202D01*
X86131823Y-106348206D01*
X86074040Y-106613832D01*
X86074039Y-106613839D01*
X86054645Y-106884998D01*
X86054645Y-106885001D01*
X86074039Y-107156160D01*
X86074040Y-107156167D01*
X86127191Y-107400500D01*
X86131825Y-107421801D01*
X86148457Y-107466392D01*
X86226830Y-107676519D01*
X86357109Y-107915107D01*
X86357110Y-107915108D01*
X86357113Y-107915113D01*
X86520029Y-108132742D01*
X86520033Y-108132746D01*
X86520038Y-108132752D01*
X86712247Y-108324961D01*
X86712253Y-108324966D01*
X86712258Y-108324971D01*
X86929887Y-108487887D01*
X86929891Y-108487889D01*
X86929892Y-108487890D01*
X87168481Y-108618169D01*
X87168480Y-108618169D01*
X87168484Y-108618170D01*
X87168487Y-108618172D01*
X87317682Y-108673819D01*
X87373614Y-108715690D01*
X87398031Y-108781154D01*
X87383179Y-108849427D01*
X87333774Y-108898832D01*
X87317689Y-108906178D01*
X87238994Y-108935530D01*
X87168480Y-108961830D01*
X86929892Y-109092109D01*
X86929891Y-109092110D01*
X86712259Y-109255028D01*
X86712247Y-109255038D01*
X86520038Y-109447247D01*
X86520028Y-109447259D01*
X86357110Y-109664891D01*
X86357109Y-109664892D01*
X86226830Y-109903480D01*
X86179326Y-110030843D01*
X86131825Y-110158199D01*
X86131824Y-110158202D01*
X86131823Y-110158206D01*
X86074040Y-110423832D01*
X86074039Y-110423839D01*
X86054645Y-110694998D01*
X86054645Y-110695001D01*
X86074039Y-110966160D01*
X86074040Y-110966167D01*
X86131823Y-111231793D01*
X86131825Y-111231801D01*
X86208330Y-111436920D01*
X86226830Y-111486519D01*
X86357109Y-111725107D01*
X86357110Y-111725108D01*
X86357113Y-111725113D01*
X86520029Y-111942742D01*
X86520033Y-111942746D01*
X86520038Y-111942752D01*
X86712247Y-112134961D01*
X86712253Y-112134966D01*
X86712258Y-112134971D01*
X86929887Y-112297887D01*
X86929891Y-112297889D01*
X86929892Y-112297890D01*
X87168481Y-112428169D01*
X87168480Y-112428169D01*
X87168484Y-112428170D01*
X87168487Y-112428172D01*
X87423199Y-112523175D01*
X87688840Y-112580961D01*
X87940605Y-112598967D01*
X87959999Y-112600355D01*
X87960000Y-112600355D01*
X87960001Y-112600355D01*
X87978100Y-112599060D01*
X88231160Y-112580961D01*
X88496801Y-112523175D01*
X88751513Y-112428172D01*
X88751517Y-112428169D01*
X88751519Y-112428169D01*
X88870813Y-112363029D01*
X88990113Y-112297887D01*
X89155690Y-112173936D01*
X89221154Y-112149520D01*
X89289427Y-112164372D01*
X89304305Y-112173933D01*
X89469887Y-112297887D01*
X89469891Y-112297889D01*
X89469892Y-112297890D01*
X89708481Y-112428169D01*
X89708480Y-112428169D01*
X89708484Y-112428170D01*
X89708487Y-112428172D01*
X89963199Y-112523175D01*
X90228840Y-112580961D01*
X90480605Y-112598967D01*
X90499999Y-112600355D01*
X90500000Y-112600355D01*
X90500001Y-112600355D01*
X90518100Y-112599060D01*
X90771160Y-112580961D01*
X91036801Y-112523175D01*
X91291513Y-112428172D01*
X91291517Y-112428169D01*
X91291519Y-112428169D01*
X91410813Y-112363029D01*
X91530113Y-112297887D01*
X91747742Y-112134971D01*
X91939971Y-111942742D01*
X92102887Y-111725113D01*
X92233172Y-111486513D01*
X92328175Y-111231801D01*
X92385961Y-110966160D01*
X92405355Y-110695000D01*
X92385961Y-110423840D01*
X92328175Y-110158199D01*
X92233172Y-109903487D01*
X92233170Y-109903484D01*
X92233169Y-109903480D01*
X92102890Y-109664892D01*
X92102889Y-109664891D01*
X92102887Y-109664887D01*
X91939971Y-109447258D01*
X91939966Y-109447253D01*
X91939961Y-109447247D01*
X91747752Y-109255038D01*
X91747746Y-109255033D01*
X91747742Y-109255029D01*
X91530113Y-109092113D01*
X91530108Y-109092110D01*
X91530107Y-109092109D01*
X91291518Y-108961830D01*
X91291514Y-108961828D01*
X91238750Y-108942148D01*
X91142317Y-108906180D01*
X91086385Y-108864311D01*
X91061968Y-108798846D01*
X91076820Y-108730573D01*
X91126225Y-108681168D01*
X91142310Y-108673821D01*
X91291513Y-108618172D01*
X91530113Y-108487887D01*
X91747742Y-108324971D01*
X91939971Y-108132742D01*
X92102887Y-107915113D01*
X92233172Y-107676513D01*
X92328175Y-107421801D01*
X92385961Y-107156160D01*
X92405355Y-106885000D01*
X92385961Y-106613840D01*
X92328175Y-106348199D01*
X92233172Y-106093487D01*
X92233170Y-106093484D01*
X92233169Y-106093480D01*
X92102890Y-105854892D01*
X92102889Y-105854891D01*
X92102887Y-105854887D01*
X91939971Y-105637258D01*
X91939966Y-105637253D01*
X91939961Y-105637247D01*
X91747752Y-105445038D01*
X91747746Y-105445033D01*
X91747742Y-105445029D01*
X91530113Y-105282113D01*
X91530108Y-105282110D01*
X91530107Y-105282109D01*
X91291518Y-105151830D01*
X91291519Y-105151830D01*
X91242030Y-105133372D01*
X91141599Y-105095913D01*
X91085668Y-105054042D01*
X91061251Y-104988578D01*
X91076103Y-104920305D01*
X91125508Y-104870900D01*
X91141602Y-104863550D01*
X91291307Y-104807714D01*
X91291310Y-104807712D01*
X91529844Y-104677462D01*
X91655123Y-104583677D01*
X91655124Y-104583676D01*
X90785757Y-103714309D01*
X90831574Y-103695332D01*
X90946224Y-103618726D01*
X91043726Y-103521224D01*
X91120332Y-103406574D01*
X91139309Y-103360757D01*
X92008676Y-104230124D01*
X92008677Y-104230123D01*
X92102462Y-104104844D01*
X92232712Y-103866310D01*
X92232714Y-103866306D01*
X92327694Y-103611654D01*
X92385462Y-103346097D01*
X92385463Y-103346090D01*
X92404853Y-103075001D01*
X92404853Y-103074998D01*
X92385463Y-102803909D01*
X92385462Y-102803902D01*
X92327694Y-102538345D01*
X92232714Y-102283693D01*
X92232712Y-102283689D01*
X92120701Y-102078557D01*
X92105849Y-102010284D01*
X92130266Y-101944820D01*
X92186199Y-101902948D01*
X92255891Y-101897964D01*
X92317214Y-101931449D01*
X93250139Y-102864374D01*
X93250149Y-102864385D01*
X93254479Y-102868715D01*
X93254480Y-102868716D01*
X93366284Y-102980520D01*
X93410515Y-103006056D01*
X93453095Y-103030639D01*
X93453097Y-103030641D01*
X93491151Y-103052611D01*
X93503215Y-103059577D01*
X93655943Y-103100501D01*
X93655946Y-103100501D01*
X93821653Y-103100501D01*
X93821669Y-103100500D01*
X105413331Y-103100500D01*
X105413347Y-103100501D01*
X105420943Y-103100501D01*
X105579054Y-103100501D01*
X105579057Y-103100501D01*
X105731785Y-103059577D01*
X105781904Y-103030639D01*
X105868716Y-102980520D01*
X105980520Y-102868716D01*
X105980520Y-102868714D01*
X105990728Y-102858507D01*
X105990729Y-102858504D01*
X107302416Y-101546819D01*
X107363739Y-101513334D01*
X107390097Y-101510500D01*
X109795337Y-101510500D01*
X109795342Y-101510500D01*
X109898815Y-101499929D01*
X110066462Y-101444377D01*
X110216778Y-101351660D01*
X110341660Y-101226778D01*
X110434377Y-101076462D01*
X110489929Y-100908815D01*
X110500500Y-100805342D01*
X110500500Y-100194658D01*
X110489929Y-100091185D01*
X110434377Y-99923538D01*
X110434373Y-99923532D01*
X110434372Y-99923529D01*
X110341662Y-99773225D01*
X110341659Y-99773221D01*
X110216778Y-99648340D01*
X110216774Y-99648337D01*
X110066470Y-99555627D01*
X110066464Y-99555624D01*
X110066462Y-99555623D01*
X110007726Y-99536160D01*
X109898816Y-99500071D01*
X109795349Y-99489500D01*
X109795342Y-99489500D01*
X105204658Y-99489500D01*
X105204650Y-99489500D01*
X105101183Y-99500071D01*
X104933540Y-99555622D01*
X104933529Y-99555627D01*
X104783225Y-99648337D01*
X104783221Y-99648340D01*
X104658340Y-99773221D01*
X104658337Y-99773225D01*
X104565627Y-99923529D01*
X104565622Y-99923540D01*
X104510071Y-100091183D01*
X104499500Y-100194650D01*
X104499500Y-100805349D01*
X104510071Y-100908816D01*
X104565622Y-101076459D01*
X104565627Y-101076470D01*
X104658337Y-101226774D01*
X104658340Y-101226778D01*
X104783221Y-101351659D01*
X104783225Y-101351662D01*
X104933529Y-101444372D01*
X104933532Y-101444373D01*
X104933538Y-101444377D01*
X105101185Y-101499929D01*
X105204658Y-101510500D01*
X105340903Y-101510500D01*
X105407942Y-101530185D01*
X105453697Y-101582989D01*
X105463641Y-101652147D01*
X105434616Y-101715703D01*
X105428584Y-101722181D01*
X105287584Y-101863181D01*
X105226261Y-101896666D01*
X105199903Y-101899500D01*
X94035097Y-101899500D01*
X93968058Y-101879815D01*
X93947416Y-101863181D01*
X92264413Y-100180178D01*
X92230928Y-100118855D01*
X92235911Y-100049167D01*
X92328175Y-99801801D01*
X92385961Y-99536160D01*
X92405355Y-99265000D01*
X92385961Y-98993840D01*
X92328175Y-98728199D01*
X92233172Y-98473487D01*
X92233170Y-98473484D01*
X92233169Y-98473480D01*
X92102890Y-98234892D01*
X92102889Y-98234891D01*
X92102887Y-98234887D01*
X91939971Y-98017258D01*
X91939966Y-98017253D01*
X91939961Y-98017247D01*
X91747752Y-97825038D01*
X91747746Y-97825033D01*
X91747742Y-97825029D01*
X91530113Y-97662113D01*
X91530108Y-97662110D01*
X91530107Y-97662109D01*
X91291518Y-97531830D01*
X91291514Y-97531828D01*
X91238750Y-97512148D01*
X91142317Y-97476180D01*
X91086385Y-97434311D01*
X91061968Y-97368846D01*
X91076820Y-97300573D01*
X91126225Y-97251168D01*
X91142310Y-97243821D01*
X91291513Y-97188172D01*
X91530113Y-97057887D01*
X91747742Y-96894971D01*
X91939971Y-96702742D01*
X92102887Y-96485113D01*
X92219441Y-96271660D01*
X92233169Y-96246519D01*
X92233169Y-96246517D01*
X92233172Y-96246513D01*
X92274329Y-96136165D01*
X92316201Y-96080233D01*
X92381665Y-96055816D01*
X92390511Y-96055500D01*
X93654903Y-96055500D01*
X93721942Y-96075185D01*
X93742584Y-96091819D01*
X94363181Y-96712416D01*
X94396666Y-96773739D01*
X94399500Y-96800097D01*
X94399500Y-98913330D01*
X94399499Y-98913348D01*
X94399499Y-99079054D01*
X94399498Y-99079054D01*
X94440423Y-99231785D01*
X94459599Y-99264999D01*
X94459601Y-99265001D01*
X94519479Y-99368714D01*
X94519481Y-99368717D01*
X94638349Y-99487585D01*
X94638355Y-99487590D01*
X96015139Y-100864374D01*
X96015149Y-100864385D01*
X96019479Y-100868715D01*
X96019480Y-100868716D01*
X96131284Y-100980520D01*
X96131286Y-100980521D01*
X96131290Y-100980524D01*
X96161858Y-100998172D01*
X96268216Y-101059577D01*
X96380019Y-101089534D01*
X96420942Y-101100500D01*
X96420943Y-101100500D01*
X96911244Y-101100500D01*
X96978283Y-101120185D01*
X97016782Y-101159403D01*
X97058337Y-101226774D01*
X97058340Y-101226778D01*
X97183221Y-101351659D01*
X97183225Y-101351662D01*
X97333529Y-101444372D01*
X97333532Y-101444373D01*
X97333538Y-101444377D01*
X97501185Y-101499929D01*
X97604658Y-101510500D01*
X97604663Y-101510500D01*
X102195337Y-101510500D01*
X102195342Y-101510500D01*
X102298815Y-101499929D01*
X102466462Y-101444377D01*
X102616778Y-101351660D01*
X102741660Y-101226778D01*
X102834377Y-101076462D01*
X102889929Y-100908815D01*
X102900500Y-100805342D01*
X102900500Y-100194658D01*
X102889929Y-100091185D01*
X102834377Y-99923538D01*
X102834373Y-99923532D01*
X102834372Y-99923529D01*
X102741662Y-99773225D01*
X102741659Y-99773221D01*
X102616778Y-99648340D01*
X102616774Y-99648337D01*
X102466470Y-99555627D01*
X102466464Y-99555624D01*
X102466462Y-99555623D01*
X102407726Y-99536160D01*
X102298816Y-99500071D01*
X102195349Y-99489500D01*
X102195342Y-99489500D01*
X97604658Y-99489500D01*
X97604650Y-99489500D01*
X97501183Y-99500071D01*
X97333540Y-99555622D01*
X97333529Y-99555627D01*
X97183225Y-99648337D01*
X97183221Y-99648340D01*
X97058340Y-99773221D01*
X97058337Y-99773225D01*
X97016782Y-99840597D01*
X96964835Y-99887322D01*
X96911244Y-99899500D01*
X96800097Y-99899500D01*
X96733058Y-99879815D01*
X96712416Y-99863181D01*
X95636819Y-98787584D01*
X95603334Y-98726261D01*
X95600500Y-98699903D01*
X95600500Y-98210000D01*
X96900001Y-98210000D01*
X96900001Y-98265318D01*
X96910564Y-98368715D01*
X96966078Y-98536246D01*
X96966080Y-98536251D01*
X97058735Y-98686467D01*
X97183532Y-98811264D01*
X97333748Y-98903919D01*
X97333753Y-98903921D01*
X97501284Y-98959435D01*
X97604687Y-98969999D01*
X99649999Y-98969999D01*
X99650000Y-98969998D01*
X99650000Y-98210000D01*
X100150000Y-98210000D01*
X100150000Y-98969999D01*
X102195304Y-98969999D01*
X102195318Y-98969998D01*
X102298715Y-98959435D01*
X102466246Y-98903921D01*
X102466251Y-98903919D01*
X102616467Y-98811264D01*
X102741264Y-98686467D01*
X102833919Y-98536251D01*
X102833921Y-98536246D01*
X102889435Y-98368715D01*
X102899999Y-98265318D01*
X102900000Y-98265305D01*
X102900000Y-98210000D01*
X104500001Y-98210000D01*
X104500001Y-98265318D01*
X104510564Y-98368715D01*
X104566078Y-98536246D01*
X104566080Y-98536251D01*
X104658735Y-98686467D01*
X104783532Y-98811264D01*
X104933748Y-98903919D01*
X104933753Y-98903921D01*
X105101284Y-98959435D01*
X105204687Y-98969999D01*
X107249999Y-98969999D01*
X107250000Y-98969998D01*
X107250000Y-98210000D01*
X107750000Y-98210000D01*
X107750000Y-98969999D01*
X109795304Y-98969999D01*
X109795318Y-98969998D01*
X109898715Y-98959435D01*
X110066246Y-98903921D01*
X110066251Y-98903919D01*
X110216467Y-98811264D01*
X110341264Y-98686467D01*
X110433919Y-98536251D01*
X110433921Y-98536246D01*
X110489435Y-98368715D01*
X110499999Y-98265318D01*
X110500000Y-98265305D01*
X110500000Y-98210000D01*
X107750000Y-98210000D01*
X107250000Y-98210000D01*
X104500001Y-98210000D01*
X102900000Y-98210000D01*
X100150000Y-98210000D01*
X99650000Y-98210000D01*
X96900001Y-98210000D01*
X95600500Y-98210000D01*
X95600500Y-97710000D01*
X96900000Y-97710000D01*
X99650000Y-97710000D01*
X99650000Y-96950000D01*
X100150000Y-96950000D01*
X100150000Y-97710000D01*
X102899999Y-97710000D01*
X104500000Y-97710000D01*
X107250000Y-97710000D01*
X107250000Y-96950000D01*
X107750000Y-96950000D01*
X107750000Y-97710000D01*
X110499999Y-97710000D01*
X110499999Y-97654696D01*
X110499998Y-97654681D01*
X110489435Y-97551284D01*
X110433921Y-97383753D01*
X110433919Y-97383748D01*
X110341264Y-97233532D01*
X110216467Y-97108735D01*
X110066251Y-97016080D01*
X110066246Y-97016078D01*
X109898715Y-96960564D01*
X109795318Y-96950000D01*
X107750000Y-96950000D01*
X107250000Y-96950000D01*
X105204696Y-96950000D01*
X105204680Y-96950001D01*
X105101284Y-96960564D01*
X104933753Y-97016078D01*
X104933748Y-97016080D01*
X104783532Y-97108735D01*
X104658735Y-97233532D01*
X104566080Y-97383748D01*
X104566078Y-97383753D01*
X104510564Y-97551284D01*
X104500000Y-97654681D01*
X104500000Y-97710000D01*
X102899999Y-97710000D01*
X102899999Y-97654696D01*
X102899998Y-97654681D01*
X102889435Y-97551284D01*
X102833921Y-97383753D01*
X102833919Y-97383748D01*
X102741264Y-97233532D01*
X102616467Y-97108735D01*
X102466251Y-97016080D01*
X102466246Y-97016078D01*
X102298715Y-96960564D01*
X102195318Y-96950000D01*
X100150000Y-96950000D01*
X99650000Y-96950000D01*
X97604696Y-96950000D01*
X97604680Y-96950001D01*
X97501284Y-96960564D01*
X97333753Y-97016078D01*
X97333748Y-97016080D01*
X97183532Y-97108735D01*
X97058735Y-97233532D01*
X96966080Y-97383748D01*
X96966078Y-97383753D01*
X96910564Y-97551284D01*
X96900000Y-97654681D01*
X96900000Y-97710000D01*
X95600500Y-97710000D01*
X95600500Y-96420945D01*
X95600500Y-96420943D01*
X95568224Y-96300490D01*
X95559577Y-96268215D01*
X95547047Y-96246513D01*
X95489465Y-96146778D01*
X95489464Y-96146775D01*
X95480522Y-96131286D01*
X95480518Y-96131281D01*
X95364397Y-96015160D01*
X95364374Y-96015139D01*
X95074584Y-95725349D01*
X96899500Y-95725349D01*
X96910071Y-95828816D01*
X96965622Y-95996459D01*
X96965627Y-95996470D01*
X97058337Y-96146774D01*
X97058340Y-96146778D01*
X97183221Y-96271659D01*
X97183225Y-96271662D01*
X97333529Y-96364372D01*
X97333532Y-96364373D01*
X97333538Y-96364377D01*
X97501185Y-96419929D01*
X97604658Y-96430500D01*
X97604663Y-96430500D01*
X102195337Y-96430500D01*
X102195342Y-96430500D01*
X102298815Y-96419929D01*
X102466462Y-96364377D01*
X102616778Y-96271660D01*
X102741660Y-96146778D01*
X102834377Y-95996462D01*
X102889929Y-95828815D01*
X102900499Y-95725349D01*
X104499500Y-95725349D01*
X104510071Y-95828816D01*
X104565622Y-95996459D01*
X104565627Y-95996470D01*
X104658337Y-96146774D01*
X104658340Y-96146778D01*
X104783221Y-96271659D01*
X104783225Y-96271662D01*
X104933529Y-96364372D01*
X104933532Y-96364373D01*
X104933538Y-96364377D01*
X105101185Y-96419929D01*
X105204658Y-96430500D01*
X105204663Y-96430500D01*
X109795337Y-96430500D01*
X109795342Y-96430500D01*
X109898815Y-96419929D01*
X110066462Y-96364377D01*
X110216778Y-96271660D01*
X110341660Y-96146778D01*
X110434377Y-95996462D01*
X110489929Y-95828815D01*
X110500500Y-95725342D01*
X110500500Y-95114658D01*
X110489929Y-95011185D01*
X110434377Y-94843538D01*
X110434373Y-94843532D01*
X110434372Y-94843529D01*
X110341662Y-94693225D01*
X110341659Y-94693221D01*
X110216778Y-94568340D01*
X110216774Y-94568337D01*
X110066470Y-94475627D01*
X110066464Y-94475624D01*
X110066462Y-94475623D01*
X110066459Y-94475622D01*
X109898816Y-94420071D01*
X109795349Y-94409500D01*
X109795342Y-94409500D01*
X105204658Y-94409500D01*
X105204650Y-94409500D01*
X105101183Y-94420071D01*
X104933540Y-94475622D01*
X104933529Y-94475627D01*
X104783225Y-94568337D01*
X104783221Y-94568340D01*
X104658340Y-94693221D01*
X104658337Y-94693225D01*
X104565627Y-94843529D01*
X104565622Y-94843540D01*
X104510071Y-95011183D01*
X104499500Y-95114650D01*
X104499500Y-95725349D01*
X102900499Y-95725349D01*
X102900500Y-95725342D01*
X102900500Y-95114658D01*
X102889929Y-95011185D01*
X102834377Y-94843538D01*
X102834373Y-94843532D01*
X102834372Y-94843529D01*
X102741662Y-94693225D01*
X102741659Y-94693221D01*
X102616778Y-94568340D01*
X102616774Y-94568337D01*
X102466470Y-94475627D01*
X102466464Y-94475624D01*
X102466462Y-94475623D01*
X102466459Y-94475622D01*
X102298816Y-94420071D01*
X102195349Y-94409500D01*
X102195342Y-94409500D01*
X97604658Y-94409500D01*
X97604650Y-94409500D01*
X97501183Y-94420071D01*
X97333540Y-94475622D01*
X97333529Y-94475627D01*
X97183225Y-94568337D01*
X97183221Y-94568340D01*
X97058340Y-94693221D01*
X97058337Y-94693225D01*
X96965627Y-94843529D01*
X96965622Y-94843540D01*
X96910071Y-95011183D01*
X96899500Y-95114650D01*
X96899500Y-95725349D01*
X95074584Y-95725349D01*
X94442590Y-95093355D01*
X94442588Y-95093352D01*
X94323717Y-94974481D01*
X94323709Y-94974475D01*
X94226235Y-94918199D01*
X94226233Y-94918198D01*
X94186790Y-94895425D01*
X94186789Y-94895424D01*
X94174263Y-94892067D01*
X94034057Y-94854499D01*
X93875943Y-94854499D01*
X93868347Y-94854499D01*
X93868331Y-94854500D01*
X92390511Y-94854500D01*
X92323472Y-94834815D01*
X92277717Y-94782011D01*
X92274329Y-94773834D01*
X92233172Y-94663487D01*
X92233170Y-94663484D01*
X92233169Y-94663480D01*
X92102890Y-94424892D01*
X92102889Y-94424891D01*
X92102887Y-94424887D01*
X91939971Y-94207258D01*
X91939966Y-94207253D01*
X91939961Y-94207247D01*
X91747752Y-94015038D01*
X91747746Y-94015033D01*
X91747742Y-94015029D01*
X91530113Y-93852113D01*
X91530108Y-93852110D01*
X91530107Y-93852109D01*
X91291518Y-93721830D01*
X91291519Y-93721830D01*
X91242030Y-93703372D01*
X91141599Y-93665913D01*
X91085668Y-93624042D01*
X91061251Y-93558578D01*
X91076103Y-93490305D01*
X91125508Y-93440900D01*
X91141602Y-93433550D01*
X91291307Y-93377714D01*
X91291310Y-93377712D01*
X91529844Y-93247462D01*
X91612815Y-93185349D01*
X96899500Y-93185349D01*
X96910071Y-93288816D01*
X96965622Y-93456459D01*
X96965627Y-93456470D01*
X97058337Y-93606774D01*
X97058340Y-93606778D01*
X97183221Y-93731659D01*
X97183225Y-93731662D01*
X97333529Y-93824372D01*
X97333532Y-93824373D01*
X97333538Y-93824377D01*
X97501185Y-93879929D01*
X97604658Y-93890500D01*
X97604663Y-93890500D01*
X102195337Y-93890500D01*
X102195342Y-93890500D01*
X102298815Y-93879929D01*
X102466462Y-93824377D01*
X102616778Y-93731660D01*
X102741660Y-93606778D01*
X102834377Y-93456462D01*
X102889929Y-93288815D01*
X102900499Y-93185349D01*
X104499500Y-93185349D01*
X104510071Y-93288816D01*
X104565622Y-93456459D01*
X104565627Y-93456470D01*
X104658337Y-93606774D01*
X104658340Y-93606778D01*
X104783221Y-93731659D01*
X104783225Y-93731662D01*
X104933529Y-93824372D01*
X104933532Y-93824373D01*
X104933538Y-93824377D01*
X105101185Y-93879929D01*
X105204658Y-93890500D01*
X105204663Y-93890500D01*
X109795337Y-93890500D01*
X109795342Y-93890500D01*
X109898815Y-93879929D01*
X110066462Y-93824377D01*
X110216778Y-93731660D01*
X110341660Y-93606778D01*
X110434377Y-93456462D01*
X110489929Y-93288815D01*
X110500500Y-93185342D01*
X110500500Y-92574658D01*
X110489929Y-92471185D01*
X110434377Y-92303538D01*
X110434373Y-92303532D01*
X110434372Y-92303529D01*
X110341662Y-92153225D01*
X110341659Y-92153221D01*
X110216778Y-92028340D01*
X110216774Y-92028337D01*
X110066470Y-91935627D01*
X110066464Y-91935624D01*
X110066462Y-91935623D01*
X110007515Y-91916090D01*
X109898816Y-91880071D01*
X109795349Y-91869500D01*
X109795342Y-91869500D01*
X105204658Y-91869500D01*
X105204650Y-91869500D01*
X105101183Y-91880071D01*
X104933540Y-91935622D01*
X104933529Y-91935627D01*
X104783225Y-92028337D01*
X104783221Y-92028340D01*
X104658340Y-92153221D01*
X104658337Y-92153225D01*
X104565627Y-92303529D01*
X104565622Y-92303540D01*
X104510071Y-92471183D01*
X104499500Y-92574650D01*
X104499500Y-93185349D01*
X102900499Y-93185349D01*
X102900500Y-93185342D01*
X102900500Y-92574658D01*
X102889929Y-92471185D01*
X102834377Y-92303538D01*
X102834373Y-92303532D01*
X102834372Y-92303529D01*
X102741662Y-92153225D01*
X102741659Y-92153221D01*
X102616778Y-92028340D01*
X102616774Y-92028337D01*
X102466470Y-91935627D01*
X102466464Y-91935624D01*
X102466462Y-91935623D01*
X102407515Y-91916090D01*
X102298816Y-91880071D01*
X102195349Y-91869500D01*
X102195342Y-91869500D01*
X97604658Y-91869500D01*
X97604650Y-91869500D01*
X97501183Y-91880071D01*
X97333540Y-91935622D01*
X97333529Y-91935627D01*
X97183225Y-92028337D01*
X97183221Y-92028340D01*
X97058340Y-92153221D01*
X97058337Y-92153225D01*
X96965627Y-92303529D01*
X96965622Y-92303540D01*
X96910071Y-92471183D01*
X96899500Y-92574650D01*
X96899500Y-93185349D01*
X91612815Y-93185349D01*
X91655123Y-93153677D01*
X91655124Y-93153676D01*
X90785757Y-92284309D01*
X90831574Y-92265332D01*
X90946224Y-92188726D01*
X91043726Y-92091224D01*
X91120332Y-91976574D01*
X91139309Y-91930757D01*
X92008676Y-92800124D01*
X92008677Y-92800123D01*
X92102462Y-92674844D01*
X92232712Y-92436310D01*
X92232714Y-92436306D01*
X92327694Y-92181654D01*
X92385462Y-91916097D01*
X92385463Y-91916090D01*
X92404853Y-91645001D01*
X92404853Y-91644998D01*
X92385463Y-91373909D01*
X92385462Y-91373902D01*
X92327694Y-91108345D01*
X92232714Y-90853693D01*
X92232712Y-90853689D01*
X92120701Y-90648557D01*
X92105849Y-90580284D01*
X92130266Y-90514820D01*
X92186199Y-90472948D01*
X92255891Y-90467964D01*
X92317214Y-90501449D01*
X92520139Y-90704374D01*
X92520149Y-90704385D01*
X92524479Y-90708715D01*
X92524480Y-90708716D01*
X92636284Y-90820520D01*
X92693736Y-90853689D01*
X92723095Y-90870639D01*
X92723097Y-90870641D01*
X92761151Y-90892611D01*
X92773215Y-90899577D01*
X92925943Y-90940501D01*
X92925946Y-90940501D01*
X93091653Y-90940501D01*
X93091669Y-90940500D01*
X96911244Y-90940500D01*
X96978283Y-90960185D01*
X97016782Y-90999403D01*
X97058337Y-91066774D01*
X97058340Y-91066778D01*
X97183221Y-91191659D01*
X97183225Y-91191662D01*
X97333529Y-91284372D01*
X97333532Y-91284373D01*
X97333538Y-91284377D01*
X97501185Y-91339929D01*
X97604658Y-91350500D01*
X97604663Y-91350500D01*
X102195337Y-91350500D01*
X102195342Y-91350500D01*
X102298815Y-91339929D01*
X102466462Y-91284377D01*
X102616778Y-91191660D01*
X102741660Y-91066778D01*
X102834377Y-90916462D01*
X102889929Y-90748815D01*
X102900500Y-90645342D01*
X102900500Y-90034658D01*
X102889929Y-89931185D01*
X102834377Y-89763538D01*
X102834375Y-89763535D01*
X102834365Y-89763504D01*
X102831963Y-89693676D01*
X102867695Y-89633634D01*
X102930215Y-89602441D01*
X102952071Y-89600500D01*
X104447929Y-89600500D01*
X104514968Y-89620185D01*
X104560723Y-89672989D01*
X104570667Y-89742147D01*
X104565635Y-89763504D01*
X104565624Y-89763535D01*
X104565623Y-89763538D01*
X104544334Y-89827785D01*
X104510071Y-89931183D01*
X104499500Y-90034650D01*
X104499500Y-90645349D01*
X104510071Y-90748816D01*
X104565622Y-90916459D01*
X104565627Y-90916470D01*
X104658337Y-91066774D01*
X104658340Y-91066778D01*
X104783221Y-91191659D01*
X104783225Y-91191662D01*
X104933529Y-91284372D01*
X104933532Y-91284373D01*
X104933538Y-91284377D01*
X105101185Y-91339929D01*
X105204658Y-91350500D01*
X105204663Y-91350500D01*
X109795337Y-91350500D01*
X109795342Y-91350500D01*
X109898815Y-91339929D01*
X110066462Y-91284377D01*
X110216778Y-91191660D01*
X110341660Y-91066778D01*
X110434377Y-90916462D01*
X110489929Y-90748815D01*
X110500500Y-90645342D01*
X110500500Y-90034658D01*
X110489929Y-89931185D01*
X110434377Y-89763538D01*
X110434373Y-89763532D01*
X110434372Y-89763529D01*
X110341662Y-89613225D01*
X110341659Y-89613221D01*
X110216778Y-89488340D01*
X110216774Y-89488337D01*
X110066470Y-89395627D01*
X110066464Y-89395624D01*
X110066462Y-89395623D01*
X109972158Y-89364374D01*
X109898816Y-89340071D01*
X109795349Y-89329500D01*
X109795342Y-89329500D01*
X107390097Y-89329500D01*
X107323058Y-89309815D01*
X107302416Y-89293181D01*
X107030915Y-89021680D01*
X106997430Y-88960357D01*
X107002414Y-88890665D01*
X107044286Y-88834732D01*
X107109750Y-88810315D01*
X107118596Y-88809999D01*
X107250000Y-88809999D01*
X107250000Y-88050000D01*
X107750000Y-88050000D01*
X107750000Y-88809999D01*
X109795304Y-88809999D01*
X109795318Y-88809998D01*
X109898715Y-88799435D01*
X110066246Y-88743921D01*
X110066251Y-88743919D01*
X110216467Y-88651264D01*
X110341264Y-88526467D01*
X110433919Y-88376251D01*
X110433921Y-88376246D01*
X110489435Y-88208715D01*
X110499999Y-88105318D01*
X110500000Y-88105305D01*
X110500000Y-88050000D01*
X107750000Y-88050000D01*
X107250000Y-88050000D01*
X104500001Y-88050000D01*
X104500001Y-88105318D01*
X104510563Y-88208713D01*
X104519770Y-88236495D01*
X104522172Y-88306324D01*
X104486441Y-88366366D01*
X104423920Y-88397559D01*
X104402064Y-88399500D01*
X102997936Y-88399500D01*
X102930897Y-88379815D01*
X102885142Y-88327011D01*
X102875198Y-88257853D01*
X102880230Y-88236495D01*
X102889436Y-88208713D01*
X102899999Y-88105318D01*
X102900000Y-88105305D01*
X102900000Y-88050000D01*
X96900001Y-88050000D01*
X96900001Y-88105318D01*
X96910563Y-88208713D01*
X96919770Y-88236495D01*
X96922172Y-88306324D01*
X96886441Y-88366366D01*
X96823920Y-88397559D01*
X96802064Y-88399500D01*
X95775097Y-88399500D01*
X95708058Y-88379815D01*
X95687416Y-88363181D01*
X92264413Y-84940178D01*
X92230928Y-84878855D01*
X92235911Y-84809167D01*
X92328175Y-84561801D01*
X92385961Y-84296160D01*
X92405355Y-84025000D01*
X92385961Y-83753840D01*
X92328175Y-83488199D01*
X92233172Y-83233487D01*
X92233170Y-83233484D01*
X92233169Y-83233480D01*
X92121960Y-83029816D01*
X92107108Y-82961543D01*
X92131525Y-82896078D01*
X92187459Y-82854207D01*
X92257150Y-82849223D01*
X92318473Y-82882708D01*
X96300139Y-86864374D01*
X96300149Y-86864385D01*
X96304479Y-86868715D01*
X96304480Y-86868716D01*
X96416284Y-86980520D01*
X96503095Y-87030639D01*
X96503097Y-87030641D01*
X96525347Y-87043487D01*
X96553215Y-87059577D01*
X96705942Y-87100500D01*
X96705943Y-87100500D01*
X96835201Y-87100500D01*
X96902240Y-87120185D01*
X96947995Y-87172989D01*
X96957939Y-87242147D01*
X96952907Y-87263504D01*
X96910564Y-87391284D01*
X96900000Y-87494681D01*
X96900000Y-87550000D01*
X102899999Y-87550000D01*
X102899999Y-87494696D01*
X102899998Y-87494681D01*
X102889435Y-87391284D01*
X102847093Y-87263504D01*
X102844691Y-87193676D01*
X102880423Y-87133634D01*
X102942943Y-87102441D01*
X102964799Y-87100500D01*
X104435201Y-87100500D01*
X104502240Y-87120185D01*
X104547995Y-87172989D01*
X104557939Y-87242147D01*
X104552907Y-87263504D01*
X104510564Y-87391284D01*
X104500000Y-87494681D01*
X104500000Y-87550000D01*
X107250000Y-87550000D01*
X107250000Y-86790000D01*
X107750000Y-86790000D01*
X107750000Y-87550000D01*
X110499999Y-87550000D01*
X110499999Y-87494696D01*
X110499998Y-87494681D01*
X110489435Y-87391284D01*
X110433921Y-87223753D01*
X110433919Y-87223748D01*
X110341264Y-87073532D01*
X110216467Y-86948735D01*
X110066251Y-86856080D01*
X110066246Y-86856078D01*
X109898715Y-86800564D01*
X109795318Y-86790000D01*
X107750000Y-86790000D01*
X107250000Y-86790000D01*
X107118596Y-86790000D01*
X107051557Y-86770315D01*
X107005802Y-86717511D01*
X106995858Y-86648353D01*
X107024883Y-86584797D01*
X107030915Y-86578319D01*
X107302416Y-86306819D01*
X107363739Y-86273334D01*
X107390097Y-86270500D01*
X109795337Y-86270500D01*
X109795342Y-86270500D01*
X109898815Y-86259929D01*
X110066462Y-86204377D01*
X110216778Y-86111660D01*
X110341660Y-85986778D01*
X110434377Y-85836462D01*
X110489929Y-85668815D01*
X110500500Y-85565342D01*
X110500500Y-84954658D01*
X110489929Y-84851185D01*
X110434377Y-84683538D01*
X110434373Y-84683532D01*
X110434372Y-84683529D01*
X110341662Y-84533225D01*
X110341659Y-84533221D01*
X110216778Y-84408340D01*
X110216774Y-84408337D01*
X110066470Y-84315627D01*
X110066464Y-84315624D01*
X110066462Y-84315623D01*
X110007726Y-84296160D01*
X109898816Y-84260071D01*
X109795349Y-84249500D01*
X109795342Y-84249500D01*
X105204658Y-84249500D01*
X105204650Y-84249500D01*
X105101183Y-84260071D01*
X104933540Y-84315622D01*
X104933529Y-84315627D01*
X104783225Y-84408337D01*
X104783221Y-84408340D01*
X104658340Y-84533221D01*
X104658337Y-84533225D01*
X104565627Y-84683529D01*
X104565622Y-84683540D01*
X104510071Y-84851183D01*
X104499500Y-84954650D01*
X104499500Y-85565349D01*
X104510071Y-85668816D01*
X104532498Y-85736496D01*
X104534900Y-85806324D01*
X104499168Y-85866366D01*
X104436648Y-85897559D01*
X104414792Y-85899500D01*
X102985208Y-85899500D01*
X102918169Y-85879815D01*
X102872414Y-85827011D01*
X102862470Y-85757853D01*
X102867502Y-85736496D01*
X102871136Y-85725529D01*
X102889929Y-85668815D01*
X102900500Y-85565342D01*
X102900500Y-84954658D01*
X102889929Y-84851185D01*
X102834377Y-84683538D01*
X102834373Y-84683532D01*
X102834372Y-84683529D01*
X102741662Y-84533225D01*
X102741659Y-84533221D01*
X102616778Y-84408340D01*
X102616774Y-84408337D01*
X102466470Y-84315627D01*
X102466464Y-84315624D01*
X102466462Y-84315623D01*
X102407726Y-84296160D01*
X102298816Y-84260071D01*
X102195349Y-84249500D01*
X102195342Y-84249500D01*
X97650098Y-84249500D01*
X97583059Y-84229815D01*
X97562417Y-84213181D01*
X97224231Y-83874995D01*
X97190746Y-83813672D01*
X97195730Y-83743980D01*
X97237602Y-83688047D01*
X97303066Y-83663630D01*
X97350916Y-83669608D01*
X97501284Y-83719435D01*
X97604687Y-83729999D01*
X99649999Y-83729999D01*
X99650000Y-83729998D01*
X99650000Y-82970000D01*
X100150000Y-82970000D01*
X100150000Y-83729999D01*
X102195304Y-83729999D01*
X102195318Y-83729998D01*
X102298715Y-83719435D01*
X102466246Y-83663921D01*
X102466251Y-83663919D01*
X102616467Y-83571264D01*
X102741264Y-83446467D01*
X102833919Y-83296251D01*
X102833921Y-83296246D01*
X102889435Y-83128715D01*
X102899999Y-83025318D01*
X102900000Y-83025305D01*
X102900000Y-82970000D01*
X104500001Y-82970000D01*
X104500001Y-83025318D01*
X104510564Y-83128715D01*
X104566078Y-83296246D01*
X104566080Y-83296251D01*
X104658735Y-83446467D01*
X104783532Y-83571264D01*
X104933748Y-83663919D01*
X104933753Y-83663921D01*
X105101284Y-83719435D01*
X105204687Y-83729999D01*
X107249999Y-83729999D01*
X107250000Y-83729998D01*
X107250000Y-82970000D01*
X107750000Y-82970000D01*
X107750000Y-83729999D01*
X109795304Y-83729999D01*
X109795318Y-83729998D01*
X109898715Y-83719435D01*
X110066246Y-83663921D01*
X110066251Y-83663919D01*
X110216467Y-83571264D01*
X110341264Y-83446467D01*
X110433919Y-83296251D01*
X110433921Y-83296246D01*
X110489435Y-83128715D01*
X110499999Y-83025318D01*
X110500000Y-83025305D01*
X110500000Y-82970000D01*
X107750000Y-82970000D01*
X107250000Y-82970000D01*
X104500001Y-82970000D01*
X102900000Y-82970000D01*
X100150000Y-82970000D01*
X99650000Y-82970000D01*
X96900001Y-82970000D01*
X96900001Y-83025318D01*
X96910564Y-83128715D01*
X96960391Y-83279083D01*
X96962793Y-83348912D01*
X96927061Y-83408953D01*
X96864541Y-83440146D01*
X96795081Y-83432585D01*
X96755004Y-83405768D01*
X96136819Y-82787583D01*
X96103334Y-82726260D01*
X96100500Y-82699902D01*
X96100500Y-82470000D01*
X96900000Y-82470000D01*
X102899999Y-82470000D01*
X104500000Y-82470000D01*
X110499999Y-82470000D01*
X110499999Y-82414696D01*
X110499998Y-82414681D01*
X110489435Y-82311284D01*
X110433921Y-82143753D01*
X110433919Y-82143748D01*
X110341264Y-81993532D01*
X110216467Y-81868735D01*
X110066251Y-81776080D01*
X110066246Y-81776078D01*
X109898715Y-81720564D01*
X109795318Y-81710000D01*
X108920660Y-81710000D01*
X108853621Y-81690315D01*
X108807866Y-81637511D01*
X108797440Y-81572117D01*
X108805565Y-81500003D01*
X108805565Y-81499996D01*
X108785369Y-81320750D01*
X108785368Y-81320745D01*
X108725788Y-81150476D01*
X108635333Y-81006519D01*
X108629816Y-80997738D01*
X108502262Y-80870184D01*
X108349523Y-80774211D01*
X108179254Y-80714631D01*
X108179249Y-80714630D01*
X108000004Y-80694435D01*
X107999996Y-80694435D01*
X107820750Y-80714630D01*
X107820745Y-80714631D01*
X107650476Y-80774211D01*
X107497737Y-80870184D01*
X107370184Y-80997737D01*
X107354994Y-81021913D01*
X107302659Y-81068204D01*
X107233605Y-81078852D01*
X107169757Y-81050477D01*
X107145006Y-81021913D01*
X107135333Y-81006519D01*
X107129816Y-80997738D01*
X107002262Y-80870184D01*
X106849523Y-80774211D01*
X106679254Y-80714631D01*
X106679249Y-80714630D01*
X106500004Y-80694435D01*
X106499996Y-80694435D01*
X106320750Y-80714630D01*
X106320745Y-80714631D01*
X106150476Y-80774211D01*
X105997737Y-80870184D01*
X105870184Y-80997737D01*
X105774211Y-81150476D01*
X105714631Y-81320745D01*
X105714630Y-81320750D01*
X105694435Y-81499996D01*
X105694435Y-81500003D01*
X105702560Y-81572117D01*
X105690505Y-81640939D01*
X105643156Y-81692318D01*
X105579340Y-81710000D01*
X105204696Y-81710000D01*
X105204680Y-81710001D01*
X105101284Y-81720564D01*
X104933753Y-81776078D01*
X104933748Y-81776080D01*
X104783532Y-81868735D01*
X104658735Y-81993532D01*
X104566080Y-82143748D01*
X104566078Y-82143753D01*
X104510564Y-82311284D01*
X104500000Y-82414681D01*
X104500000Y-82470000D01*
X102899999Y-82470000D01*
X102899999Y-82414696D01*
X102899998Y-82414681D01*
X102889435Y-82311284D01*
X102833921Y-82143753D01*
X102833919Y-82143748D01*
X102741264Y-81993532D01*
X102616467Y-81868735D01*
X102466251Y-81776080D01*
X102466246Y-81776078D01*
X102298715Y-81720564D01*
X102195318Y-81710000D01*
X100920660Y-81710000D01*
X100853621Y-81690315D01*
X100807866Y-81637511D01*
X100797440Y-81572117D01*
X100805565Y-81500003D01*
X100805565Y-81499996D01*
X100785369Y-81320750D01*
X100785368Y-81320745D01*
X100725788Y-81150476D01*
X100635333Y-81006519D01*
X100629816Y-80997738D01*
X100502262Y-80870184D01*
X100349523Y-80774211D01*
X100179254Y-80714631D01*
X100179249Y-80714630D01*
X100000004Y-80694435D01*
X99999996Y-80694435D01*
X99820750Y-80714630D01*
X99820745Y-80714631D01*
X99650476Y-80774211D01*
X99497737Y-80870184D01*
X99370184Y-80997737D01*
X99354994Y-81021913D01*
X99302659Y-81068204D01*
X99233605Y-81078852D01*
X99169757Y-81050477D01*
X99145006Y-81021913D01*
X99135333Y-81006519D01*
X99129816Y-80997738D01*
X99002262Y-80870184D01*
X98849523Y-80774211D01*
X98679254Y-80714631D01*
X98679249Y-80714630D01*
X98500004Y-80694435D01*
X98499996Y-80694435D01*
X98320750Y-80714630D01*
X98320745Y-80714631D01*
X98150476Y-80774211D01*
X97997737Y-80870184D01*
X97870184Y-80997737D01*
X97774211Y-81150476D01*
X97714631Y-81320745D01*
X97714630Y-81320750D01*
X97694435Y-81499996D01*
X97694435Y-81500005D01*
X97702776Y-81574040D01*
X97690721Y-81642861D01*
X97643372Y-81694240D01*
X97592159Y-81711280D01*
X97501284Y-81720564D01*
X97333753Y-81776078D01*
X97333748Y-81776080D01*
X97183532Y-81868735D01*
X97058735Y-81993532D01*
X96966080Y-82143748D01*
X96966078Y-82143753D01*
X96910564Y-82311284D01*
X96900000Y-82414681D01*
X96900000Y-82470000D01*
X96100500Y-82470000D01*
X96100500Y-78920945D01*
X96100500Y-78920943D01*
X96059577Y-78768216D01*
X96059577Y-78768215D01*
X96059577Y-78768214D01*
X96030639Y-78718095D01*
X96030637Y-78718092D01*
X95980520Y-78631284D01*
X95868716Y-78519480D01*
X95868715Y-78519479D01*
X95864385Y-78515149D01*
X95864374Y-78515139D01*
X94060916Y-76711681D01*
X94027431Y-76650358D01*
X94032415Y-76580666D01*
X94074287Y-76524733D01*
X94139751Y-76500316D01*
X94148597Y-76500000D01*
X111875500Y-76500000D01*
X111942539Y-76519685D01*
X111988294Y-76572489D01*
X111999500Y-76624000D01*
X111999500Y-106564543D01*
X111979815Y-106631582D01*
X111927011Y-106677337D01*
X111918367Y-106680898D01*
X104931416Y-109255038D01*
X93747306Y-113375500D01*
X93431485Y-113491855D01*
X93388618Y-113499500D01*
X85624500Y-113499500D01*
X85557461Y-113479815D01*
X85511706Y-113427011D01*
X85500500Y-113375500D01*
X85500500Y-76624000D01*
X85520185Y-76556961D01*
X85572989Y-76511206D01*
X85624500Y-76500000D01*
X85945992Y-76500000D01*
X86013031Y-76519685D01*
G37*
%TD.AperFunction*%
%TA.AperFunction,Conductor*%
G36*
X89879668Y-103406574D02*
G01*
X89956274Y-103521224D01*
X90053776Y-103618726D01*
X90168426Y-103695332D01*
X90214242Y-103714309D01*
X89344874Y-104583675D01*
X89470163Y-104677466D01*
X89470164Y-104677467D01*
X89708689Y-104807712D01*
X89708693Y-104807714D01*
X89858397Y-104863550D01*
X89914331Y-104905421D01*
X89938748Y-104970885D01*
X89923896Y-105039158D01*
X89874491Y-105088564D01*
X89858398Y-105095914D01*
X89708481Y-105151830D01*
X89469892Y-105282109D01*
X89469884Y-105282114D01*
X89304310Y-105406062D01*
X89238846Y-105430479D01*
X89170573Y-105415627D01*
X89155690Y-105406062D01*
X88990115Y-105282114D01*
X88990107Y-105282109D01*
X88751518Y-105151830D01*
X88751519Y-105151830D01*
X88702030Y-105133372D01*
X88601599Y-105095913D01*
X88545668Y-105054042D01*
X88521251Y-104988578D01*
X88536103Y-104920305D01*
X88585508Y-104870900D01*
X88601602Y-104863550D01*
X88751307Y-104807714D01*
X88751310Y-104807712D01*
X88989840Y-104677464D01*
X89115123Y-104583675D01*
X88245757Y-103714309D01*
X88291574Y-103695332D01*
X88406224Y-103618726D01*
X88503726Y-103521224D01*
X88580332Y-103406574D01*
X88599309Y-103360756D01*
X89230000Y-103991447D01*
X89860690Y-103360756D01*
X89879668Y-103406574D01*
G37*
%TD.AperFunction*%
%TA.AperFunction,Conductor*%
G36*
X89289427Y-100734372D02*
G01*
X89304305Y-100743933D01*
X89469887Y-100867887D01*
X89469891Y-100867889D01*
X89469892Y-100867890D01*
X89708481Y-100998169D01*
X89708485Y-100998171D01*
X89708487Y-100998172D01*
X89858398Y-101054086D01*
X89914331Y-101095956D01*
X89938748Y-101161421D01*
X89923896Y-101229694D01*
X89874491Y-101279099D01*
X89858398Y-101286449D01*
X89708689Y-101342287D01*
X89470164Y-101472532D01*
X89344874Y-101566322D01*
X90214242Y-102435690D01*
X90168426Y-102454668D01*
X90053776Y-102531274D01*
X89956274Y-102628776D01*
X89879668Y-102743426D01*
X89860690Y-102789243D01*
X89230000Y-102158553D01*
X88599309Y-102789243D01*
X88580332Y-102743426D01*
X88503726Y-102628776D01*
X88406224Y-102531274D01*
X88291574Y-102454668D01*
X88245757Y-102435690D01*
X89115124Y-101566321D01*
X88989843Y-101472537D01*
X88989835Y-101472532D01*
X88751310Y-101342287D01*
X88751306Y-101342285D01*
X88601602Y-101286449D01*
X88545668Y-101244578D01*
X88521251Y-101179113D01*
X88536103Y-101110840D01*
X88585508Y-101061435D01*
X88601588Y-101054091D01*
X88751513Y-100998172D01*
X88990113Y-100867887D01*
X89155690Y-100743936D01*
X89221154Y-100719520D01*
X89289427Y-100734372D01*
G37*
%TD.AperFunction*%
%TA.AperFunction,Conductor*%
G36*
X89879668Y-91976574D02*
G01*
X89956274Y-92091224D01*
X90053776Y-92188726D01*
X90168426Y-92265332D01*
X90214242Y-92284309D01*
X89344874Y-93153675D01*
X89470163Y-93247466D01*
X89470164Y-93247467D01*
X89708689Y-93377712D01*
X89708693Y-93377714D01*
X89858397Y-93433550D01*
X89914331Y-93475421D01*
X89938748Y-93540885D01*
X89923896Y-93609158D01*
X89874491Y-93658564D01*
X89858398Y-93665914D01*
X89708481Y-93721830D01*
X89469892Y-93852109D01*
X89469884Y-93852114D01*
X89304310Y-93976062D01*
X89238846Y-94000479D01*
X89170573Y-93985627D01*
X89155690Y-93976062D01*
X88990115Y-93852114D01*
X88990107Y-93852109D01*
X88751518Y-93721830D01*
X88751519Y-93721830D01*
X88702030Y-93703372D01*
X88601599Y-93665913D01*
X88545668Y-93624042D01*
X88521251Y-93558578D01*
X88536103Y-93490305D01*
X88585508Y-93440900D01*
X88601602Y-93433550D01*
X88751307Y-93377714D01*
X88751310Y-93377712D01*
X88989840Y-93247464D01*
X89115123Y-93153675D01*
X88245757Y-92284309D01*
X88291574Y-92265332D01*
X88406224Y-92188726D01*
X88503726Y-92091224D01*
X88580332Y-91976574D01*
X88599309Y-91930756D01*
X89230000Y-92561447D01*
X89860690Y-91930756D01*
X89879668Y-91976574D01*
G37*
%TD.AperFunction*%
%TA.AperFunction,Conductor*%
G36*
X89289427Y-89304372D02*
G01*
X89304305Y-89313933D01*
X89469887Y-89437887D01*
X89469891Y-89437889D01*
X89469892Y-89437890D01*
X89708481Y-89568169D01*
X89708485Y-89568171D01*
X89708487Y-89568172D01*
X89858398Y-89624086D01*
X89914331Y-89665956D01*
X89938748Y-89731421D01*
X89923896Y-89799694D01*
X89874491Y-89849099D01*
X89858398Y-89856449D01*
X89708689Y-89912287D01*
X89470164Y-90042532D01*
X89344874Y-90136322D01*
X90214242Y-91005690D01*
X90168426Y-91024668D01*
X90053776Y-91101274D01*
X89956274Y-91198776D01*
X89879668Y-91313426D01*
X89860690Y-91359243D01*
X89230000Y-90728553D01*
X88599309Y-91359243D01*
X88580332Y-91313426D01*
X88503726Y-91198776D01*
X88406224Y-91101274D01*
X88291574Y-91024668D01*
X88245757Y-91005690D01*
X89115124Y-90136321D01*
X88989843Y-90042537D01*
X88989835Y-90042532D01*
X88751310Y-89912287D01*
X88751306Y-89912285D01*
X88601602Y-89856449D01*
X88545668Y-89814578D01*
X88521251Y-89749113D01*
X88536103Y-89680840D01*
X88585508Y-89631435D01*
X88601588Y-89624091D01*
X88751513Y-89568172D01*
X88990113Y-89437887D01*
X89155690Y-89313936D01*
X89221154Y-89289520D01*
X89289427Y-89304372D01*
G37*
%TD.AperFunction*%
%TD*%
%TA.AperFunction,Conductor*%
%TO.N,GNDD*%
G36*
X93436270Y-35507176D02*
G01*
X106966552Y-40135956D01*
X110438398Y-41323693D01*
X111915637Y-41829064D01*
X111972696Y-41869388D01*
X111998896Y-41934160D01*
X111999500Y-41946388D01*
X111999500Y-75870500D01*
X111979815Y-75937539D01*
X111927011Y-75983294D01*
X111875500Y-75994500D01*
X94148578Y-75994500D01*
X94130595Y-75994820D01*
X94122950Y-75995093D01*
X94121705Y-75995138D01*
X94121701Y-75995138D01*
X94121679Y-75995139D01*
X94103693Y-75996103D01*
X94103678Y-75996105D01*
X93963102Y-76026686D01*
X93963097Y-76026687D01*
X93963096Y-76026688D01*
X93947270Y-76032590D01*
X93897630Y-76051105D01*
X93897626Y-76051107D01*
X93771358Y-76120055D01*
X93708001Y-76183409D01*
X93646677Y-76216892D01*
X93576985Y-76211906D01*
X93532641Y-76183406D01*
X93392590Y-76043355D01*
X93392588Y-76043352D01*
X93273717Y-75924481D01*
X93273709Y-75924475D01*
X93176235Y-75868199D01*
X93176233Y-75868198D01*
X93136790Y-75845425D01*
X93136789Y-75845424D01*
X93124263Y-75842067D01*
X92984057Y-75804499D01*
X92825943Y-75804499D01*
X92818347Y-75804499D01*
X92818331Y-75804500D01*
X92390511Y-75804500D01*
X92323472Y-75784815D01*
X92277717Y-75732011D01*
X92274329Y-75723834D01*
X92233169Y-75613480D01*
X92102890Y-75374892D01*
X92102889Y-75374891D01*
X92102887Y-75374887D01*
X91939971Y-75157258D01*
X91939966Y-75157253D01*
X91939961Y-75157247D01*
X91747752Y-74965038D01*
X91747746Y-74965033D01*
X91747742Y-74965029D01*
X91530113Y-74802113D01*
X91530108Y-74802110D01*
X91530107Y-74802109D01*
X91291518Y-74671830D01*
X91291514Y-74671828D01*
X91238750Y-74652148D01*
X91142317Y-74616180D01*
X91086385Y-74574311D01*
X91061968Y-74508846D01*
X91076820Y-74440573D01*
X91126225Y-74391168D01*
X91142310Y-74383821D01*
X91291513Y-74328172D01*
X91530113Y-74197887D01*
X91747742Y-74034971D01*
X91939971Y-73842742D01*
X92102887Y-73625113D01*
X92233172Y-73386513D01*
X92274329Y-73276165D01*
X92316201Y-73220233D01*
X92381665Y-73195816D01*
X92390511Y-73195500D01*
X92818331Y-73195500D01*
X92818347Y-73195501D01*
X92825943Y-73195501D01*
X92984054Y-73195501D01*
X92984057Y-73195501D01*
X93136785Y-73154577D01*
X93186904Y-73125639D01*
X93273716Y-73075520D01*
X93385520Y-72963716D01*
X93385520Y-72963714D01*
X93395728Y-72953507D01*
X93395729Y-72953504D01*
X96537820Y-69811414D01*
X96599142Y-69777931D01*
X96668834Y-69782915D01*
X96724767Y-69824787D01*
X96749184Y-69890251D01*
X96749500Y-69899097D01*
X96749500Y-70385349D01*
X96760071Y-70488816D01*
X96815622Y-70656459D01*
X96815627Y-70656470D01*
X96908337Y-70806774D01*
X96908340Y-70806778D01*
X97033221Y-70931659D01*
X97033225Y-70931662D01*
X97183529Y-71024372D01*
X97183532Y-71024373D01*
X97183538Y-71024377D01*
X97351185Y-71079929D01*
X97454658Y-71090500D01*
X97454663Y-71090500D01*
X102045337Y-71090500D01*
X102045342Y-71090500D01*
X102148815Y-71079929D01*
X102316462Y-71024377D01*
X102466778Y-70931660D01*
X102591660Y-70806778D01*
X102633218Y-70739403D01*
X102685165Y-70692678D01*
X102738756Y-70680500D01*
X104361244Y-70680500D01*
X104428283Y-70700185D01*
X104466782Y-70739403D01*
X104508337Y-70806774D01*
X104508340Y-70806778D01*
X104633221Y-70931659D01*
X104633225Y-70931662D01*
X104783529Y-71024372D01*
X104783532Y-71024373D01*
X104783538Y-71024377D01*
X104951185Y-71079929D01*
X105054658Y-71090500D01*
X105054663Y-71090500D01*
X109645337Y-71090500D01*
X109645342Y-71090500D01*
X109748815Y-71079929D01*
X109916462Y-71024377D01*
X110066778Y-70931660D01*
X110191660Y-70806778D01*
X110284377Y-70656462D01*
X110339929Y-70488815D01*
X110350500Y-70385342D01*
X110350500Y-69774658D01*
X110339929Y-69671185D01*
X110284377Y-69503538D01*
X110284373Y-69503532D01*
X110284372Y-69503529D01*
X110191662Y-69353225D01*
X110191659Y-69353221D01*
X110066778Y-69228340D01*
X110066774Y-69228337D01*
X109916470Y-69135627D01*
X109916464Y-69135624D01*
X109916462Y-69135623D01*
X109916459Y-69135622D01*
X109748816Y-69080071D01*
X109645349Y-69069500D01*
X109645342Y-69069500D01*
X105079097Y-69069500D01*
X105012058Y-69049815D01*
X104966303Y-68997011D01*
X104956359Y-68927853D01*
X104985384Y-68864297D01*
X104991416Y-68857819D01*
X105262417Y-68586819D01*
X105323740Y-68553334D01*
X105350098Y-68550500D01*
X109645337Y-68550500D01*
X109645342Y-68550500D01*
X109748815Y-68539929D01*
X109916462Y-68484377D01*
X110066778Y-68391660D01*
X110191660Y-68266778D01*
X110284377Y-68116462D01*
X110339929Y-67948815D01*
X110350500Y-67845342D01*
X110350500Y-67234658D01*
X110339929Y-67131185D01*
X110284377Y-66963538D01*
X110284373Y-66963532D01*
X110284372Y-66963529D01*
X110191662Y-66813225D01*
X110191659Y-66813221D01*
X110066778Y-66688340D01*
X110066774Y-66688337D01*
X109916470Y-66595627D01*
X109916464Y-66595624D01*
X109916462Y-66595623D01*
X109862938Y-66577887D01*
X109748816Y-66540071D01*
X109645349Y-66529500D01*
X109645342Y-66529500D01*
X105119097Y-66529500D01*
X105052058Y-66509815D01*
X105006303Y-66457011D01*
X104996359Y-66387853D01*
X105025384Y-66324297D01*
X105031416Y-66317819D01*
X105302416Y-66046819D01*
X105363739Y-66013334D01*
X105390097Y-66010500D01*
X109645337Y-66010500D01*
X109645342Y-66010500D01*
X109748815Y-65999929D01*
X109916462Y-65944377D01*
X110066778Y-65851660D01*
X110191660Y-65726778D01*
X110284377Y-65576462D01*
X110339929Y-65408815D01*
X110350500Y-65305342D01*
X110350500Y-64694658D01*
X110339929Y-64591185D01*
X110284377Y-64423538D01*
X110284373Y-64423532D01*
X110284372Y-64423529D01*
X110191662Y-64273225D01*
X110191659Y-64273221D01*
X110066778Y-64148340D01*
X110066774Y-64148337D01*
X109916470Y-64055627D01*
X109916464Y-64055624D01*
X109916462Y-64055623D01*
X109893729Y-64048090D01*
X109748816Y-64000071D01*
X109645349Y-63989500D01*
X109645342Y-63989500D01*
X106957564Y-63989500D01*
X106890525Y-63969815D01*
X106844770Y-63917011D01*
X106834826Y-63847853D01*
X106863851Y-63784297D01*
X106895564Y-63758113D01*
X106908716Y-63750520D01*
X107020520Y-63638716D01*
X107020520Y-63638714D01*
X107030728Y-63628507D01*
X107030728Y-63628505D01*
X107152417Y-63506818D01*
X107213741Y-63473334D01*
X107240098Y-63470500D01*
X109645337Y-63470500D01*
X109645342Y-63470500D01*
X109748815Y-63459929D01*
X109916462Y-63404377D01*
X110066778Y-63311660D01*
X110191660Y-63186778D01*
X110284377Y-63036462D01*
X110339929Y-62868815D01*
X110350500Y-62765342D01*
X110350500Y-62154658D01*
X110339929Y-62051185D01*
X110284377Y-61883538D01*
X110284373Y-61883532D01*
X110284372Y-61883529D01*
X110191662Y-61733225D01*
X110191659Y-61733221D01*
X110066778Y-61608340D01*
X110066774Y-61608337D01*
X109916470Y-61515627D01*
X109916464Y-61515624D01*
X109916462Y-61515623D01*
X109916459Y-61515622D01*
X109748816Y-61460071D01*
X109645349Y-61449500D01*
X109645342Y-61449500D01*
X106969097Y-61449500D01*
X106902058Y-61429815D01*
X106856303Y-61377011D01*
X106846359Y-61307853D01*
X106875384Y-61244297D01*
X106881416Y-61237819D01*
X107152416Y-60966819D01*
X107213739Y-60933334D01*
X107240097Y-60930500D01*
X109645337Y-60930500D01*
X109645342Y-60930500D01*
X109748815Y-60919929D01*
X109916462Y-60864377D01*
X110066778Y-60771660D01*
X110191660Y-60646778D01*
X110284377Y-60496462D01*
X110339929Y-60328815D01*
X110350500Y-60225342D01*
X110350500Y-59614658D01*
X110339929Y-59511185D01*
X110284377Y-59343538D01*
X110284373Y-59343532D01*
X110284372Y-59343529D01*
X110191662Y-59193225D01*
X110191659Y-59193221D01*
X110066778Y-59068340D01*
X110066774Y-59068337D01*
X109916470Y-58975627D01*
X109916464Y-58975624D01*
X109916462Y-58975623D01*
X109862938Y-58957887D01*
X109748816Y-58920071D01*
X109645349Y-58909500D01*
X109645342Y-58909500D01*
X105054658Y-58909500D01*
X105054650Y-58909500D01*
X104951183Y-58920071D01*
X104783540Y-58975622D01*
X104783529Y-58975627D01*
X104633225Y-59068337D01*
X104633221Y-59068340D01*
X104508340Y-59193221D01*
X104508337Y-59193225D01*
X104415627Y-59343529D01*
X104415622Y-59343540D01*
X104360071Y-59511183D01*
X104349500Y-59614650D01*
X104349500Y-60225349D01*
X104360071Y-60328816D01*
X104384155Y-60401496D01*
X104386557Y-60471324D01*
X104350825Y-60531366D01*
X104288305Y-60562559D01*
X104266449Y-60564500D01*
X102833551Y-60564500D01*
X102766512Y-60544815D01*
X102720757Y-60492011D01*
X102710813Y-60422853D01*
X102715845Y-60401496D01*
X102725126Y-60373487D01*
X102739929Y-60328815D01*
X102750500Y-60225342D01*
X102750500Y-59614658D01*
X102739929Y-59511185D01*
X102684377Y-59343538D01*
X102684373Y-59343532D01*
X102684372Y-59343529D01*
X102591662Y-59193225D01*
X102591659Y-59193221D01*
X102466778Y-59068340D01*
X102466774Y-59068337D01*
X102316470Y-58975627D01*
X102316464Y-58975624D01*
X102316462Y-58975623D01*
X102262938Y-58957887D01*
X102148816Y-58920071D01*
X102045349Y-58909500D01*
X102045342Y-58909500D01*
X97454658Y-58909500D01*
X97454650Y-58909500D01*
X97351183Y-58920071D01*
X97183540Y-58975622D01*
X97183529Y-58975627D01*
X97033225Y-59068337D01*
X97033221Y-59068340D01*
X96908340Y-59193221D01*
X96908337Y-59193225D01*
X96815627Y-59343529D01*
X96815622Y-59343540D01*
X96760071Y-59511183D01*
X96749500Y-59614650D01*
X96749500Y-60225349D01*
X96760071Y-60328816D01*
X96784155Y-60401496D01*
X96786557Y-60471324D01*
X96750825Y-60531366D01*
X96688305Y-60562559D01*
X96666449Y-60564500D01*
X92390511Y-60564500D01*
X92323472Y-60544815D01*
X92277717Y-60492011D01*
X92274329Y-60483834D01*
X92269663Y-60471324D01*
X92233172Y-60373487D01*
X92233170Y-60373484D01*
X92233169Y-60373480D01*
X92102890Y-60134892D01*
X92102889Y-60134891D01*
X92102887Y-60134887D01*
X91939971Y-59917258D01*
X91939966Y-59917253D01*
X91939961Y-59917247D01*
X91747752Y-59725038D01*
X91747746Y-59725033D01*
X91747742Y-59725029D01*
X91530113Y-59562113D01*
X91530108Y-59562110D01*
X91530107Y-59562109D01*
X91291518Y-59431830D01*
X91291514Y-59431828D01*
X91238750Y-59412148D01*
X91142317Y-59376180D01*
X91086385Y-59334311D01*
X91061968Y-59268846D01*
X91076820Y-59200573D01*
X91126225Y-59151168D01*
X91142310Y-59143821D01*
X91291513Y-59088172D01*
X91530113Y-58957887D01*
X91747742Y-58794971D01*
X91939971Y-58602742D01*
X92102887Y-58385113D01*
X92233172Y-58146513D01*
X92274329Y-58036165D01*
X92316201Y-57980233D01*
X92381665Y-57955816D01*
X92390511Y-57955500D01*
X93058331Y-57955500D01*
X93058347Y-57955501D01*
X93065943Y-57955501D01*
X93224054Y-57955501D01*
X93224057Y-57955501D01*
X93376785Y-57914577D01*
X93426904Y-57885639D01*
X93513716Y-57835520D01*
X93625520Y-57723716D01*
X93625520Y-57723714D01*
X93635728Y-57713507D01*
X93635729Y-57713504D01*
X94712416Y-56636819D01*
X94773739Y-56603334D01*
X94800097Y-56600500D01*
X96718684Y-56600500D01*
X96785723Y-56620185D01*
X96831478Y-56672989D01*
X96841422Y-56742147D01*
X96824221Y-56789599D01*
X96815626Y-56803531D01*
X96815622Y-56803540D01*
X96760071Y-56971183D01*
X96749500Y-57074650D01*
X96749500Y-57685349D01*
X96752377Y-57713507D01*
X96760071Y-57788815D01*
X96815623Y-57956462D01*
X96815625Y-57956465D01*
X96815627Y-57956470D01*
X96908337Y-58106774D01*
X96908340Y-58106778D01*
X97033221Y-58231659D01*
X97033225Y-58231662D01*
X97183529Y-58324372D01*
X97183532Y-58324373D01*
X97183538Y-58324377D01*
X97351185Y-58379929D01*
X97454658Y-58390500D01*
X97454663Y-58390500D01*
X102045337Y-58390500D01*
X102045342Y-58390500D01*
X102148815Y-58379929D01*
X102316462Y-58324377D01*
X102466778Y-58231660D01*
X102591660Y-58106778D01*
X102684377Y-57956462D01*
X102739929Y-57788815D01*
X102750500Y-57685342D01*
X102750500Y-57074658D01*
X102739929Y-56971185D01*
X102684377Y-56803538D01*
X102684371Y-56803529D01*
X102675779Y-56789599D01*
X102657337Y-56722207D01*
X102678258Y-56655543D01*
X102731899Y-56610772D01*
X102781316Y-56600500D01*
X103699903Y-56600500D01*
X103766942Y-56620185D01*
X103787584Y-56636819D01*
X104313181Y-57162416D01*
X104346666Y-57223739D01*
X104349500Y-57250097D01*
X104349500Y-57685349D01*
X104352377Y-57713507D01*
X104360071Y-57788815D01*
X104415623Y-57956462D01*
X104415625Y-57956465D01*
X104415627Y-57956470D01*
X104508337Y-58106774D01*
X104508340Y-58106778D01*
X104633221Y-58231659D01*
X104633225Y-58231662D01*
X104783529Y-58324372D01*
X104783532Y-58324373D01*
X104783538Y-58324377D01*
X104951185Y-58379929D01*
X105054658Y-58390500D01*
X105054663Y-58390500D01*
X109645337Y-58390500D01*
X109645342Y-58390500D01*
X109748815Y-58379929D01*
X109916462Y-58324377D01*
X110066778Y-58231660D01*
X110191660Y-58106778D01*
X110284377Y-57956462D01*
X110339929Y-57788815D01*
X110350500Y-57685342D01*
X110350500Y-57074658D01*
X110339929Y-56971185D01*
X110284377Y-56803538D01*
X110284373Y-56803531D01*
X110284372Y-56803529D01*
X110191662Y-56653225D01*
X110191659Y-56653221D01*
X110066778Y-56528340D01*
X110066774Y-56528337D01*
X109916470Y-56435627D01*
X109916464Y-56435624D01*
X109916462Y-56435623D01*
X109916459Y-56435622D01*
X109748816Y-56380071D01*
X109645349Y-56369500D01*
X109645342Y-56369500D01*
X105270098Y-56369500D01*
X105203059Y-56349815D01*
X105182417Y-56333181D01*
X105160654Y-56311418D01*
X104905812Y-56056576D01*
X104872328Y-55995255D01*
X104877312Y-55925564D01*
X104919183Y-55869630D01*
X104984648Y-55845213D01*
X105006097Y-55845539D01*
X105021492Y-55847111D01*
X105054658Y-55850500D01*
X105054663Y-55850500D01*
X109645337Y-55850500D01*
X109645342Y-55850500D01*
X109748815Y-55839929D01*
X109916462Y-55784377D01*
X110066778Y-55691660D01*
X110191660Y-55566778D01*
X110284377Y-55416462D01*
X110339929Y-55248815D01*
X110350500Y-55145342D01*
X110350500Y-54534658D01*
X110339929Y-54431185D01*
X110284377Y-54263538D01*
X110284373Y-54263532D01*
X110284372Y-54263529D01*
X110191662Y-54113225D01*
X110191659Y-54113221D01*
X110066778Y-53988340D01*
X110066774Y-53988337D01*
X109916470Y-53895627D01*
X109916464Y-53895624D01*
X109916462Y-53895623D01*
X109916459Y-53895622D01*
X109748816Y-53840071D01*
X109645349Y-53829500D01*
X109645342Y-53829500D01*
X105230098Y-53829500D01*
X105163059Y-53809815D01*
X105142417Y-53793181D01*
X105114971Y-53765735D01*
X104861260Y-53512024D01*
X104827776Y-53450703D01*
X104832760Y-53381012D01*
X104874631Y-53325078D01*
X104940096Y-53300661D01*
X104961540Y-53300986D01*
X105054658Y-53310500D01*
X105054663Y-53310500D01*
X109645337Y-53310500D01*
X109645342Y-53310500D01*
X109748815Y-53299929D01*
X109916462Y-53244377D01*
X110066778Y-53151660D01*
X110191660Y-53026778D01*
X110284377Y-52876462D01*
X110339929Y-52708815D01*
X110350500Y-52605342D01*
X110350500Y-51994658D01*
X110339929Y-51891185D01*
X110284377Y-51723538D01*
X110284373Y-51723532D01*
X110284372Y-51723529D01*
X110191662Y-51573225D01*
X110191659Y-51573221D01*
X110066778Y-51448340D01*
X110066774Y-51448337D01*
X109916470Y-51355627D01*
X109916464Y-51355624D01*
X109916462Y-51355623D01*
X109862938Y-51337887D01*
X109748816Y-51300071D01*
X109645349Y-51289500D01*
X109645342Y-51289500D01*
X105190098Y-51289500D01*
X105123059Y-51269815D01*
X105102417Y-51253181D01*
X105001949Y-51152713D01*
X104809620Y-50960384D01*
X104776136Y-50899063D01*
X104781120Y-50829372D01*
X104822991Y-50773438D01*
X104888456Y-50749021D01*
X104936305Y-50754999D01*
X104951181Y-50759928D01*
X104951182Y-50759928D01*
X104951185Y-50759929D01*
X105054658Y-50770500D01*
X105054663Y-50770500D01*
X109645337Y-50770500D01*
X109645342Y-50770500D01*
X109748815Y-50759929D01*
X109916462Y-50704377D01*
X110066778Y-50611660D01*
X110191660Y-50486778D01*
X110284377Y-50336462D01*
X110339929Y-50168815D01*
X110350500Y-50065342D01*
X110350500Y-49454658D01*
X110339929Y-49351185D01*
X110284377Y-49183538D01*
X110284373Y-49183532D01*
X110284372Y-49183529D01*
X110191662Y-49033225D01*
X110191659Y-49033221D01*
X110066778Y-48908340D01*
X110066774Y-48908337D01*
X109916470Y-48815627D01*
X109916464Y-48815624D01*
X109916462Y-48815623D01*
X109916459Y-48815622D01*
X109748816Y-48760071D01*
X109645349Y-48749500D01*
X109645342Y-48749500D01*
X105150097Y-48749500D01*
X105083058Y-48729815D01*
X105062416Y-48713181D01*
X104749009Y-48399774D01*
X104715524Y-48338451D01*
X104720508Y-48268759D01*
X104762380Y-48212826D01*
X104827844Y-48188409D01*
X104875695Y-48194387D01*
X104951286Y-48219435D01*
X105054687Y-48229999D01*
X107099999Y-48229999D01*
X107100000Y-48229998D01*
X107100000Y-47470000D01*
X107600000Y-47470000D01*
X107600000Y-48229999D01*
X109645304Y-48229999D01*
X109645318Y-48229998D01*
X109748715Y-48219435D01*
X109916246Y-48163921D01*
X109916251Y-48163919D01*
X110066467Y-48071264D01*
X110191264Y-47946467D01*
X110283919Y-47796251D01*
X110283921Y-47796246D01*
X110339435Y-47628715D01*
X110349999Y-47525318D01*
X110350000Y-47525305D01*
X110350000Y-47470000D01*
X107600000Y-47470000D01*
X107100000Y-47470000D01*
X104350001Y-47470000D01*
X104350001Y-47525318D01*
X104360564Y-47628715D01*
X104416256Y-47796783D01*
X104418658Y-47866612D01*
X104382926Y-47926653D01*
X104320405Y-47957846D01*
X104250946Y-47950285D01*
X104236554Y-47943176D01*
X104231785Y-47940423D01*
X104079057Y-47899499D01*
X103920943Y-47899499D01*
X103913347Y-47899499D01*
X103913331Y-47899500D01*
X102821427Y-47899500D01*
X102754388Y-47879815D01*
X102708633Y-47827011D01*
X102698689Y-47757853D01*
X102703721Y-47736496D01*
X102739435Y-47628715D01*
X102749999Y-47525318D01*
X102750000Y-47525305D01*
X102750000Y-47470000D01*
X96750001Y-47470000D01*
X96750001Y-47525318D01*
X96760564Y-47628715D01*
X96796279Y-47736496D01*
X96798681Y-47806325D01*
X96762949Y-47866366D01*
X96700428Y-47897559D01*
X96678573Y-47899500D01*
X93375097Y-47899500D01*
X93308058Y-47879815D01*
X93287416Y-47863181D01*
X92394235Y-46970000D01*
X96750000Y-46970000D01*
X102749999Y-46970000D01*
X104350000Y-46970000D01*
X110349999Y-46970000D01*
X110349999Y-46914696D01*
X110349998Y-46914681D01*
X110339435Y-46811284D01*
X110283921Y-46643753D01*
X110283919Y-46643748D01*
X110191264Y-46493532D01*
X110066467Y-46368735D01*
X109916251Y-46276080D01*
X109916246Y-46276078D01*
X109748715Y-46220564D01*
X109645318Y-46210000D01*
X108420660Y-46210000D01*
X108353621Y-46190315D01*
X108307866Y-46137511D01*
X108297440Y-46072117D01*
X108305565Y-46000003D01*
X108305565Y-45999996D01*
X108285369Y-45820750D01*
X108285368Y-45820745D01*
X108226965Y-45653839D01*
X108225789Y-45650478D01*
X108129816Y-45497738D01*
X108002262Y-45370184D01*
X107849523Y-45274211D01*
X107679254Y-45214631D01*
X107679249Y-45214630D01*
X107500004Y-45194435D01*
X107499996Y-45194435D01*
X107320750Y-45214630D01*
X107320745Y-45214631D01*
X107150476Y-45274211D01*
X106997737Y-45370184D01*
X106870184Y-45497737D01*
X106774211Y-45650476D01*
X106714631Y-45820745D01*
X106714630Y-45820750D01*
X106694435Y-45999996D01*
X106694435Y-46000003D01*
X106702560Y-46072117D01*
X106690505Y-46140939D01*
X106643156Y-46192318D01*
X106579340Y-46210000D01*
X105054696Y-46210000D01*
X105054680Y-46210001D01*
X104951284Y-46220564D01*
X104783753Y-46276078D01*
X104783748Y-46276080D01*
X104633532Y-46368735D01*
X104508735Y-46493532D01*
X104416080Y-46643748D01*
X104416078Y-46643753D01*
X104360564Y-46811284D01*
X104350000Y-46914681D01*
X104350000Y-46970000D01*
X102749999Y-46970000D01*
X102749999Y-46914696D01*
X102749998Y-46914681D01*
X102739435Y-46811284D01*
X102683921Y-46643753D01*
X102683919Y-46643748D01*
X102591264Y-46493532D01*
X102466467Y-46368735D01*
X102316251Y-46276080D01*
X102316246Y-46276078D01*
X102148715Y-46220564D01*
X102045318Y-46210000D01*
X100420660Y-46210000D01*
X100353621Y-46190315D01*
X100307866Y-46137511D01*
X100297440Y-46072117D01*
X100305565Y-46000003D01*
X100305565Y-45999996D01*
X100285369Y-45820750D01*
X100285368Y-45820745D01*
X100226965Y-45653839D01*
X100225789Y-45650478D01*
X100129816Y-45497738D01*
X100002262Y-45370184D01*
X99849523Y-45274211D01*
X99679254Y-45214631D01*
X99679249Y-45214630D01*
X99500004Y-45194435D01*
X99499996Y-45194435D01*
X99320750Y-45214630D01*
X99320745Y-45214631D01*
X99150476Y-45274211D01*
X98997737Y-45370184D01*
X98870184Y-45497737D01*
X98774211Y-45650476D01*
X98714631Y-45820745D01*
X98714630Y-45820750D01*
X98694435Y-45999996D01*
X98694435Y-46000003D01*
X98702560Y-46072117D01*
X98690505Y-46140939D01*
X98643156Y-46192318D01*
X98579340Y-46210000D01*
X97454696Y-46210000D01*
X97454680Y-46210001D01*
X97351284Y-46220564D01*
X97183753Y-46276078D01*
X97183748Y-46276080D01*
X97033532Y-46368735D01*
X96908735Y-46493532D01*
X96816080Y-46643748D01*
X96816078Y-46643753D01*
X96760564Y-46811284D01*
X96750000Y-46914681D01*
X96750000Y-46970000D01*
X92394235Y-46970000D01*
X92264413Y-46840178D01*
X92230928Y-46778855D01*
X92235911Y-46709167D01*
X92328175Y-46461801D01*
X92385961Y-46196160D01*
X92405355Y-45925000D01*
X92385961Y-45653840D01*
X92328175Y-45388199D01*
X92233172Y-45133487D01*
X92233170Y-45133484D01*
X92233169Y-45133480D01*
X92102890Y-44894892D01*
X92102889Y-44894891D01*
X92102887Y-44894887D01*
X91939971Y-44677258D01*
X91939966Y-44677253D01*
X91939961Y-44677247D01*
X91747752Y-44485038D01*
X91747746Y-44485033D01*
X91747742Y-44485029D01*
X91530113Y-44322113D01*
X91530108Y-44322110D01*
X91530107Y-44322109D01*
X91291518Y-44191830D01*
X91291519Y-44191830D01*
X91242030Y-44173372D01*
X91141599Y-44135913D01*
X91085668Y-44094042D01*
X91061251Y-44028578D01*
X91076103Y-43960305D01*
X91125508Y-43910900D01*
X91141602Y-43903550D01*
X91291307Y-43847714D01*
X91291310Y-43847712D01*
X91529844Y-43717462D01*
X91655123Y-43623677D01*
X91655124Y-43623676D01*
X90785757Y-42754309D01*
X90831574Y-42735332D01*
X90946224Y-42658726D01*
X91043726Y-42561224D01*
X91120332Y-42446574D01*
X91139309Y-42400757D01*
X92008676Y-43270124D01*
X92008677Y-43270123D01*
X92102462Y-43144844D01*
X92232712Y-42906310D01*
X92232714Y-42906306D01*
X92327694Y-42651654D01*
X92385462Y-42386097D01*
X92385463Y-42386090D01*
X92404853Y-42115001D01*
X92404853Y-42114998D01*
X92385463Y-41843909D01*
X92385462Y-41843902D01*
X92327694Y-41578345D01*
X92232714Y-41323693D01*
X92232712Y-41323689D01*
X92102467Y-41085164D01*
X92102466Y-41085163D01*
X92008676Y-40959874D01*
X91139309Y-41829242D01*
X91120332Y-41783426D01*
X91043726Y-41668776D01*
X90946224Y-41571274D01*
X90831574Y-41494668D01*
X90785757Y-41475690D01*
X91655124Y-40606322D01*
X91655123Y-40606321D01*
X91529843Y-40512537D01*
X91529835Y-40512532D01*
X91291310Y-40382287D01*
X91291306Y-40382285D01*
X91141602Y-40326449D01*
X91085668Y-40284578D01*
X91061251Y-40219113D01*
X91076103Y-40150840D01*
X91125508Y-40101435D01*
X91141588Y-40094091D01*
X91291513Y-40038172D01*
X91530113Y-39907887D01*
X91747742Y-39744971D01*
X91939971Y-39552742D01*
X92102887Y-39335113D01*
X92233172Y-39096513D01*
X92328175Y-38841801D01*
X92385961Y-38576160D01*
X92405355Y-38305000D01*
X92385961Y-38033840D01*
X92328175Y-37768199D01*
X92233172Y-37513487D01*
X92233170Y-37513484D01*
X92233169Y-37513480D01*
X92102890Y-37274892D01*
X92102889Y-37274891D01*
X92102887Y-37274887D01*
X91939971Y-37057258D01*
X91939966Y-37057253D01*
X91939961Y-37057247D01*
X91747752Y-36865038D01*
X91747746Y-36865033D01*
X91747742Y-36865029D01*
X91530113Y-36702113D01*
X91530108Y-36702110D01*
X91530107Y-36702109D01*
X91291518Y-36571830D01*
X91291519Y-36571830D01*
X91241920Y-36553330D01*
X91036801Y-36476825D01*
X91036794Y-36476823D01*
X91036793Y-36476823D01*
X90771167Y-36419040D01*
X90771160Y-36419039D01*
X90500001Y-36399645D01*
X90499999Y-36399645D01*
X90228839Y-36419039D01*
X90228832Y-36419040D01*
X89963206Y-36476823D01*
X89963202Y-36476824D01*
X89963199Y-36476825D01*
X89835843Y-36524326D01*
X89708480Y-36571830D01*
X89469892Y-36702109D01*
X89469884Y-36702114D01*
X89304310Y-36826062D01*
X89238846Y-36850479D01*
X89170573Y-36835627D01*
X89155690Y-36826062D01*
X88990115Y-36702114D01*
X88990107Y-36702109D01*
X88751518Y-36571830D01*
X88751519Y-36571830D01*
X88701920Y-36553330D01*
X88496801Y-36476825D01*
X88496794Y-36476823D01*
X88496793Y-36476823D01*
X88231167Y-36419040D01*
X88231160Y-36419039D01*
X87960001Y-36399645D01*
X87959999Y-36399645D01*
X87688839Y-36419039D01*
X87688832Y-36419040D01*
X87423206Y-36476823D01*
X87423202Y-36476824D01*
X87423199Y-36476825D01*
X87295843Y-36524326D01*
X87168480Y-36571830D01*
X86929892Y-36702109D01*
X86929891Y-36702110D01*
X86712259Y-36865028D01*
X86712247Y-36865038D01*
X86520038Y-37057247D01*
X86520028Y-37057259D01*
X86357110Y-37274891D01*
X86357109Y-37274892D01*
X86226830Y-37513480D01*
X86179326Y-37640843D01*
X86131825Y-37768199D01*
X86131824Y-37768202D01*
X86131823Y-37768206D01*
X86074040Y-38033832D01*
X86074039Y-38033839D01*
X86054645Y-38304998D01*
X86054645Y-38305001D01*
X86074039Y-38576160D01*
X86074040Y-38576167D01*
X86131823Y-38841793D01*
X86131825Y-38841801D01*
X86208330Y-39046920D01*
X86226830Y-39096519D01*
X86357109Y-39335107D01*
X86357110Y-39335108D01*
X86357113Y-39335113D01*
X86520029Y-39552742D01*
X86520033Y-39552746D01*
X86520038Y-39552752D01*
X86712247Y-39744961D01*
X86712253Y-39744966D01*
X86712258Y-39744971D01*
X86929887Y-39907887D01*
X86929891Y-39907889D01*
X86929892Y-39907890D01*
X87168481Y-40038169D01*
X87168485Y-40038171D01*
X87168487Y-40038172D01*
X87318398Y-40094086D01*
X87374331Y-40135956D01*
X87398748Y-40201421D01*
X87383896Y-40269694D01*
X87334491Y-40319099D01*
X87318398Y-40326449D01*
X87168689Y-40382287D01*
X86930164Y-40512532D01*
X86930156Y-40512537D01*
X86804875Y-40606321D01*
X86804874Y-40606322D01*
X87674242Y-41475690D01*
X87628426Y-41494668D01*
X87513776Y-41571274D01*
X87416274Y-41668776D01*
X87339668Y-41783426D01*
X87320690Y-41829242D01*
X86451322Y-40959874D01*
X86451321Y-40959875D01*
X86357537Y-41085156D01*
X86357532Y-41085164D01*
X86227287Y-41323689D01*
X86227285Y-41323693D01*
X86132305Y-41578345D01*
X86074537Y-41843902D01*
X86074536Y-41843909D01*
X86055147Y-42114998D01*
X86055147Y-42115001D01*
X86074536Y-42386090D01*
X86074537Y-42386097D01*
X86132305Y-42651654D01*
X86227285Y-42906306D01*
X86227287Y-42906310D01*
X86357532Y-43144835D01*
X86357537Y-43144843D01*
X86451321Y-43270123D01*
X86451322Y-43270124D01*
X87320690Y-42400756D01*
X87339668Y-42446574D01*
X87416274Y-42561224D01*
X87513776Y-42658726D01*
X87628426Y-42735332D01*
X87674242Y-42754309D01*
X86804874Y-43623676D01*
X86930163Y-43717466D01*
X86930164Y-43717467D01*
X87168689Y-43847712D01*
X87168693Y-43847714D01*
X87318397Y-43903550D01*
X87374331Y-43945421D01*
X87398748Y-44010885D01*
X87383896Y-44079158D01*
X87334491Y-44128564D01*
X87318398Y-44135914D01*
X87168481Y-44191830D01*
X86929892Y-44322109D01*
X86929891Y-44322110D01*
X86712259Y-44485028D01*
X86712247Y-44485038D01*
X86520038Y-44677247D01*
X86520028Y-44677259D01*
X86357110Y-44894891D01*
X86357109Y-44894892D01*
X86226830Y-45133480D01*
X86204095Y-45194435D01*
X86131825Y-45388199D01*
X86131824Y-45388202D01*
X86131823Y-45388206D01*
X86074040Y-45653832D01*
X86074039Y-45653839D01*
X86054645Y-45924998D01*
X86054645Y-45925001D01*
X86074039Y-46196160D01*
X86074040Y-46196167D01*
X86091424Y-46276080D01*
X86131825Y-46461801D01*
X86194492Y-46629816D01*
X86226830Y-46716519D01*
X86357109Y-46955107D01*
X86357110Y-46955108D01*
X86357113Y-46955113D01*
X86520029Y-47172742D01*
X86520033Y-47172746D01*
X86520038Y-47172752D01*
X86712247Y-47364961D01*
X86712253Y-47364966D01*
X86712258Y-47364971D01*
X86929887Y-47527887D01*
X86929891Y-47527889D01*
X86929892Y-47527890D01*
X87168481Y-47658169D01*
X87168480Y-47658169D01*
X87168484Y-47658170D01*
X87168487Y-47658172D01*
X87317682Y-47713819D01*
X87373614Y-47755690D01*
X87398031Y-47821154D01*
X87383179Y-47889427D01*
X87333774Y-47938832D01*
X87317689Y-47946178D01*
X87255537Y-47969360D01*
X87168480Y-48001830D01*
X86929892Y-48132109D01*
X86929891Y-48132110D01*
X86712259Y-48295028D01*
X86712247Y-48295038D01*
X86520038Y-48487247D01*
X86520028Y-48487259D01*
X86357110Y-48704891D01*
X86357109Y-48704892D01*
X86226830Y-48943480D01*
X86182621Y-49062011D01*
X86131825Y-49198199D01*
X86131824Y-49198202D01*
X86131823Y-49198206D01*
X86074040Y-49463832D01*
X86074039Y-49463839D01*
X86054645Y-49734998D01*
X86054645Y-49735001D01*
X86074039Y-50006160D01*
X86074040Y-50006167D01*
X86122324Y-50228126D01*
X86131825Y-50271801D01*
X86195503Y-50442527D01*
X86226830Y-50526519D01*
X86357109Y-50765107D01*
X86357110Y-50765108D01*
X86357113Y-50765113D01*
X86520029Y-50982742D01*
X86520033Y-50982746D01*
X86520038Y-50982752D01*
X86712247Y-51174961D01*
X86712253Y-51174966D01*
X86712258Y-51174971D01*
X86929887Y-51337887D01*
X86929891Y-51337889D01*
X86929892Y-51337890D01*
X87168481Y-51468169D01*
X87168480Y-51468169D01*
X87168484Y-51468170D01*
X87168487Y-51468172D01*
X87317682Y-51523819D01*
X87373614Y-51565690D01*
X87398031Y-51631154D01*
X87383179Y-51699427D01*
X87333774Y-51748832D01*
X87317689Y-51756178D01*
X87238994Y-51785530D01*
X87168480Y-51811830D01*
X86929892Y-51942109D01*
X86929891Y-51942110D01*
X86712259Y-52105028D01*
X86712247Y-52105038D01*
X86520038Y-52297247D01*
X86520028Y-52297259D01*
X86357110Y-52514891D01*
X86357109Y-52514892D01*
X86226830Y-52753480D01*
X86182621Y-52872011D01*
X86131825Y-53008199D01*
X86131824Y-53008202D01*
X86131823Y-53008206D01*
X86074040Y-53273832D01*
X86074039Y-53273839D01*
X86054645Y-53544998D01*
X86054645Y-53545001D01*
X86074039Y-53816160D01*
X86074040Y-53816167D01*
X86111493Y-53988337D01*
X86131825Y-54081801D01*
X86156308Y-54147441D01*
X86226830Y-54336519D01*
X86357109Y-54575107D01*
X86357110Y-54575108D01*
X86357113Y-54575113D01*
X86520029Y-54792742D01*
X86520033Y-54792746D01*
X86520038Y-54792752D01*
X86712247Y-54984961D01*
X86712253Y-54984966D01*
X86712258Y-54984971D01*
X86929887Y-55147887D01*
X86929891Y-55147889D01*
X86929892Y-55147890D01*
X87168481Y-55278169D01*
X87168480Y-55278169D01*
X87168484Y-55278170D01*
X87168487Y-55278172D01*
X87317682Y-55333819D01*
X87373614Y-55375690D01*
X87398031Y-55441154D01*
X87383179Y-55509427D01*
X87333774Y-55558832D01*
X87317689Y-55566178D01*
X87238994Y-55595530D01*
X87168480Y-55621830D01*
X86929892Y-55752109D01*
X86929891Y-55752110D01*
X86712259Y-55915028D01*
X86712247Y-55915038D01*
X86520038Y-56107247D01*
X86520028Y-56107259D01*
X86357110Y-56324891D01*
X86357109Y-56324892D01*
X86226830Y-56563480D01*
X86182621Y-56682011D01*
X86131825Y-56818199D01*
X86131824Y-56818202D01*
X86131823Y-56818206D01*
X86074040Y-57083832D01*
X86074039Y-57083839D01*
X86054645Y-57354998D01*
X86054645Y-57355001D01*
X86074039Y-57626160D01*
X86074040Y-57626167D01*
X86130485Y-57885642D01*
X86131825Y-57891801D01*
X86164809Y-57980233D01*
X86226830Y-58146519D01*
X86357109Y-58385107D01*
X86357110Y-58385108D01*
X86357113Y-58385113D01*
X86520029Y-58602742D01*
X86520033Y-58602746D01*
X86520038Y-58602752D01*
X86712247Y-58794961D01*
X86712253Y-58794966D01*
X86712258Y-58794971D01*
X86929887Y-58957887D01*
X86929891Y-58957889D01*
X86929892Y-58957890D01*
X87168481Y-59088169D01*
X87168480Y-59088169D01*
X87168484Y-59088170D01*
X87168487Y-59088172D01*
X87317682Y-59143819D01*
X87373614Y-59185690D01*
X87398031Y-59251154D01*
X87383179Y-59319427D01*
X87333774Y-59368832D01*
X87317689Y-59376178D01*
X87238994Y-59405530D01*
X87168480Y-59431830D01*
X86929892Y-59562109D01*
X86929891Y-59562110D01*
X86712259Y-59725028D01*
X86712247Y-59725038D01*
X86520038Y-59917247D01*
X86520028Y-59917259D01*
X86357110Y-60134891D01*
X86357109Y-60134892D01*
X86226830Y-60373480D01*
X86182621Y-60492011D01*
X86131825Y-60628199D01*
X86131824Y-60628202D01*
X86131823Y-60628206D01*
X86074040Y-60893832D01*
X86074039Y-60893839D01*
X86054645Y-61164998D01*
X86054645Y-61165001D01*
X86074039Y-61436160D01*
X86074040Y-61436167D01*
X86111493Y-61608337D01*
X86131825Y-61701801D01*
X86156308Y-61767441D01*
X86226830Y-61956519D01*
X86357109Y-62195107D01*
X86357110Y-62195108D01*
X86357113Y-62195113D01*
X86520029Y-62412742D01*
X86520033Y-62412746D01*
X86520038Y-62412752D01*
X86712247Y-62604961D01*
X86712253Y-62604966D01*
X86712258Y-62604971D01*
X86929887Y-62767887D01*
X86929891Y-62767889D01*
X86929892Y-62767890D01*
X87168481Y-62898169D01*
X87168480Y-62898169D01*
X87168484Y-62898170D01*
X87168487Y-62898172D01*
X87317682Y-62953819D01*
X87373614Y-62995690D01*
X87398031Y-63061154D01*
X87383179Y-63129427D01*
X87333774Y-63178832D01*
X87317689Y-63186178D01*
X87238994Y-63215530D01*
X87168480Y-63241830D01*
X86929892Y-63372109D01*
X86929891Y-63372110D01*
X86712259Y-63535028D01*
X86712247Y-63535038D01*
X86520038Y-63727247D01*
X86520028Y-63727259D01*
X86357110Y-63944891D01*
X86357109Y-63944892D01*
X86226830Y-64183480D01*
X86182621Y-64302011D01*
X86131825Y-64438199D01*
X86131824Y-64438202D01*
X86131823Y-64438206D01*
X86074040Y-64703832D01*
X86074039Y-64703839D01*
X86054645Y-64974998D01*
X86054645Y-64975001D01*
X86074039Y-65246160D01*
X86074040Y-65246167D01*
X86130485Y-65505642D01*
X86131825Y-65511801D01*
X86164809Y-65600233D01*
X86226830Y-65766519D01*
X86357109Y-66005107D01*
X86357110Y-66005108D01*
X86357113Y-66005113D01*
X86520029Y-66222742D01*
X86520033Y-66222746D01*
X86520038Y-66222752D01*
X86712247Y-66414961D01*
X86712253Y-66414966D01*
X86712258Y-66414971D01*
X86929887Y-66577887D01*
X86929891Y-66577889D01*
X86929892Y-66577890D01*
X87168481Y-66708169D01*
X87168480Y-66708169D01*
X87168484Y-66708170D01*
X87168487Y-66708172D01*
X87317682Y-66763819D01*
X87373614Y-66805690D01*
X87398031Y-66871154D01*
X87383179Y-66939427D01*
X87333774Y-66988832D01*
X87317689Y-66996178D01*
X87238994Y-67025530D01*
X87168480Y-67051830D01*
X86929892Y-67182109D01*
X86929891Y-67182110D01*
X86712259Y-67345028D01*
X86712247Y-67345038D01*
X86520038Y-67537247D01*
X86520028Y-67537259D01*
X86357110Y-67754891D01*
X86357109Y-67754892D01*
X86226830Y-67993480D01*
X86182621Y-68112011D01*
X86131825Y-68248199D01*
X86131824Y-68248202D01*
X86131823Y-68248206D01*
X86074040Y-68513832D01*
X86074039Y-68513839D01*
X86054645Y-68784998D01*
X86054645Y-68785001D01*
X86074039Y-69056160D01*
X86074040Y-69056167D01*
X86130485Y-69315642D01*
X86131825Y-69321801D01*
X86164809Y-69410233D01*
X86226830Y-69576519D01*
X86357109Y-69815107D01*
X86357110Y-69815108D01*
X86357113Y-69815113D01*
X86520029Y-70032742D01*
X86520033Y-70032746D01*
X86520038Y-70032752D01*
X86712247Y-70224961D01*
X86712253Y-70224966D01*
X86712258Y-70224971D01*
X86929887Y-70387887D01*
X86929891Y-70387889D01*
X86929892Y-70387890D01*
X87168481Y-70518169D01*
X87168480Y-70518169D01*
X87168484Y-70518170D01*
X87168487Y-70518172D01*
X87317682Y-70573819D01*
X87373614Y-70615690D01*
X87398031Y-70681154D01*
X87383179Y-70749427D01*
X87333774Y-70798832D01*
X87317689Y-70806178D01*
X87238994Y-70835530D01*
X87168480Y-70861830D01*
X86929892Y-70992109D01*
X86929891Y-70992110D01*
X86712259Y-71155028D01*
X86712247Y-71155038D01*
X86520038Y-71347247D01*
X86520028Y-71347259D01*
X86357110Y-71564891D01*
X86357109Y-71564892D01*
X86226830Y-71803480D01*
X86182621Y-71922011D01*
X86131825Y-72058199D01*
X86131824Y-72058202D01*
X86131823Y-72058206D01*
X86074040Y-72323832D01*
X86074039Y-72323839D01*
X86054645Y-72594998D01*
X86054645Y-72595001D01*
X86074039Y-72866160D01*
X86074040Y-72866167D01*
X86130485Y-73125642D01*
X86131825Y-73131801D01*
X86164809Y-73220233D01*
X86226830Y-73386519D01*
X86357109Y-73625107D01*
X86357110Y-73625108D01*
X86357113Y-73625113D01*
X86520029Y-73842742D01*
X86520033Y-73842746D01*
X86520038Y-73842752D01*
X86712247Y-74034961D01*
X86712253Y-74034966D01*
X86712258Y-74034971D01*
X86929887Y-74197887D01*
X86929891Y-74197889D01*
X86929892Y-74197890D01*
X87168481Y-74328169D01*
X87168480Y-74328169D01*
X87168484Y-74328170D01*
X87168487Y-74328172D01*
X87317682Y-74383819D01*
X87373614Y-74425690D01*
X87398031Y-74491154D01*
X87383179Y-74559427D01*
X87333774Y-74608832D01*
X87317689Y-74616178D01*
X87238994Y-74645530D01*
X87168480Y-74671830D01*
X86929892Y-74802109D01*
X86929891Y-74802110D01*
X86712259Y-74965028D01*
X86712247Y-74965038D01*
X86520038Y-75157247D01*
X86520028Y-75157259D01*
X86357110Y-75374891D01*
X86357109Y-75374892D01*
X86226830Y-75613480D01*
X86131822Y-75868207D01*
X86124087Y-75903768D01*
X86090602Y-75965091D01*
X86029279Y-75998576D01*
X85985275Y-76000148D01*
X85974341Y-75998576D01*
X85945992Y-75994500D01*
X85624500Y-75994500D01*
X85557461Y-75974815D01*
X85511706Y-75922011D01*
X85500500Y-75870500D01*
X85500500Y-35624500D01*
X85520185Y-35557461D01*
X85572989Y-35511706D01*
X85624500Y-35500500D01*
X93396133Y-35500500D01*
X93436270Y-35507176D01*
G37*
%TD.AperFunction*%
%TA.AperFunction,Conductor*%
G36*
X89879668Y-42446574D02*
G01*
X89956274Y-42561224D01*
X90053776Y-42658726D01*
X90168426Y-42735332D01*
X90214242Y-42754309D01*
X89344874Y-43623675D01*
X89470163Y-43717466D01*
X89470164Y-43717467D01*
X89708689Y-43847712D01*
X89708693Y-43847714D01*
X89858397Y-43903550D01*
X89914331Y-43945421D01*
X89938748Y-44010885D01*
X89923896Y-44079158D01*
X89874491Y-44128564D01*
X89858398Y-44135914D01*
X89708481Y-44191830D01*
X89469892Y-44322109D01*
X89469884Y-44322114D01*
X89304310Y-44446062D01*
X89238846Y-44470479D01*
X89170573Y-44455627D01*
X89155690Y-44446062D01*
X88990115Y-44322114D01*
X88990107Y-44322109D01*
X88751518Y-44191830D01*
X88751519Y-44191830D01*
X88702030Y-44173372D01*
X88601599Y-44135913D01*
X88545668Y-44094042D01*
X88521251Y-44028578D01*
X88536103Y-43960305D01*
X88585508Y-43910900D01*
X88601602Y-43903550D01*
X88751307Y-43847714D01*
X88751310Y-43847712D01*
X88989840Y-43717464D01*
X89115123Y-43623675D01*
X88245757Y-42754309D01*
X88291574Y-42735332D01*
X88406224Y-42658726D01*
X88503726Y-42561224D01*
X88580332Y-42446574D01*
X88599309Y-42400756D01*
X89230000Y-43031447D01*
X89860690Y-42400756D01*
X89879668Y-42446574D01*
G37*
%TD.AperFunction*%
%TA.AperFunction,Conductor*%
G36*
X89289427Y-39774372D02*
G01*
X89304305Y-39783933D01*
X89469887Y-39907887D01*
X89469891Y-39907889D01*
X89469892Y-39907890D01*
X89708481Y-40038169D01*
X89708485Y-40038171D01*
X89708487Y-40038172D01*
X89858398Y-40094086D01*
X89914331Y-40135956D01*
X89938748Y-40201421D01*
X89923896Y-40269694D01*
X89874491Y-40319099D01*
X89858398Y-40326449D01*
X89708689Y-40382287D01*
X89470164Y-40512532D01*
X89344874Y-40606322D01*
X90214242Y-41475690D01*
X90168426Y-41494668D01*
X90053776Y-41571274D01*
X89956274Y-41668776D01*
X89879668Y-41783426D01*
X89860690Y-41829243D01*
X89230000Y-41198553D01*
X88599309Y-41829243D01*
X88580332Y-41783426D01*
X88503726Y-41668776D01*
X88406224Y-41571274D01*
X88291574Y-41494668D01*
X88245757Y-41475690D01*
X89115124Y-40606321D01*
X88989843Y-40512537D01*
X88989835Y-40512532D01*
X88751310Y-40382287D01*
X88751306Y-40382285D01*
X88601602Y-40326449D01*
X88545668Y-40284578D01*
X88521251Y-40219113D01*
X88536103Y-40150840D01*
X88585508Y-40101435D01*
X88601588Y-40094091D01*
X88751513Y-40038172D01*
X88990113Y-39907887D01*
X89155690Y-39783936D01*
X89221154Y-39759520D01*
X89289427Y-39774372D01*
G37*
%TD.AperFunction*%
%TD*%
M02*
