%TF.GenerationSoftware,KiCad,Pcbnew,8.0.3*%
%TF.CreationDate,2025-07-14T16:27:36+02:00*%
%TF.ProjectId,distributionPCB,64697374-7269-4627-9574-696f6e504342,rev?*%
%TF.SameCoordinates,Original*%
%TF.FileFunction,Other,Comment*%
%FSLAX46Y46*%
G04 Gerber Fmt 4.6, Leading zero omitted, Abs format (unit mm)*
G04 Created by KiCad (PCBNEW 8.0.3) date 2025-07-14 16:27:36*
%MOMM*%
%LPD*%
G01*
G04 APERTURE LIST*
%ADD10C,0.030000*%
G04 APERTURE END LIST*
D10*
X80542515Y-110233163D02*
X80542515Y-110033163D01*
X80656800Y-110233163D02*
X80571086Y-110118878D01*
X80656800Y-110033163D02*
X80542515Y-110147449D01*
X80742515Y-110128401D02*
X80809181Y-110128401D01*
X80837753Y-110233163D02*
X80742515Y-110233163D01*
X80742515Y-110233163D02*
X80742515Y-110033163D01*
X80742515Y-110033163D02*
X80837753Y-110033163D01*
X80923467Y-110128401D02*
X80990133Y-110128401D01*
X81018705Y-110233163D02*
X80923467Y-110233163D01*
X80923467Y-110233163D02*
X80923467Y-110033163D01*
X80923467Y-110033163D02*
X81018705Y-110033163D01*
X81104419Y-110233163D02*
X81104419Y-110033163D01*
X81104419Y-110033163D02*
X81180609Y-110033163D01*
X81180609Y-110033163D02*
X81199657Y-110042687D01*
X81199657Y-110042687D02*
X81209180Y-110052211D01*
X81209180Y-110052211D02*
X81218704Y-110071259D01*
X81218704Y-110071259D02*
X81218704Y-110099830D01*
X81218704Y-110099830D02*
X81209180Y-110118878D01*
X81209180Y-110118878D02*
X81199657Y-110128401D01*
X81199657Y-110128401D02*
X81180609Y-110137925D01*
X81180609Y-110137925D02*
X81104419Y-110137925D01*
X81304419Y-110156973D02*
X81456800Y-110156973D01*
X81590133Y-110033163D02*
X81628228Y-110033163D01*
X81628228Y-110033163D02*
X81647276Y-110042687D01*
X81647276Y-110042687D02*
X81666323Y-110061735D01*
X81666323Y-110061735D02*
X81675847Y-110099830D01*
X81675847Y-110099830D02*
X81675847Y-110166497D01*
X81675847Y-110166497D02*
X81666323Y-110204592D01*
X81666323Y-110204592D02*
X81647276Y-110223640D01*
X81647276Y-110223640D02*
X81628228Y-110233163D01*
X81628228Y-110233163D02*
X81590133Y-110233163D01*
X81590133Y-110233163D02*
X81571085Y-110223640D01*
X81571085Y-110223640D02*
X81552038Y-110204592D01*
X81552038Y-110204592D02*
X81542514Y-110166497D01*
X81542514Y-110166497D02*
X81542514Y-110099830D01*
X81542514Y-110099830D02*
X81552038Y-110061735D01*
X81552038Y-110061735D02*
X81571085Y-110042687D01*
X81571085Y-110042687D02*
X81590133Y-110033163D01*
X81761562Y-110033163D02*
X81761562Y-110195068D01*
X81761562Y-110195068D02*
X81771085Y-110214116D01*
X81771085Y-110214116D02*
X81780609Y-110223640D01*
X81780609Y-110223640D02*
X81799657Y-110233163D01*
X81799657Y-110233163D02*
X81837752Y-110233163D01*
X81837752Y-110233163D02*
X81856800Y-110223640D01*
X81856800Y-110223640D02*
X81866323Y-110214116D01*
X81866323Y-110214116D02*
X81875847Y-110195068D01*
X81875847Y-110195068D02*
X81875847Y-110033163D01*
X81942514Y-110033163D02*
X82056800Y-110033163D01*
X81999657Y-110233163D02*
X81999657Y-110033163D01*
X82256800Y-110033163D02*
X82390133Y-110033163D01*
X82390133Y-110033163D02*
X82256800Y-110233163D01*
X82256800Y-110233163D02*
X82390133Y-110233163D01*
X82504419Y-110033163D02*
X82542514Y-110033163D01*
X82542514Y-110033163D02*
X82561562Y-110042687D01*
X82561562Y-110042687D02*
X82580609Y-110061735D01*
X82580609Y-110061735D02*
X82590133Y-110099830D01*
X82590133Y-110099830D02*
X82590133Y-110166497D01*
X82590133Y-110166497D02*
X82580609Y-110204592D01*
X82580609Y-110204592D02*
X82561562Y-110223640D01*
X82561562Y-110223640D02*
X82542514Y-110233163D01*
X82542514Y-110233163D02*
X82504419Y-110233163D01*
X82504419Y-110233163D02*
X82485371Y-110223640D01*
X82485371Y-110223640D02*
X82466324Y-110204592D01*
X82466324Y-110204592D02*
X82456800Y-110166497D01*
X82456800Y-110166497D02*
X82456800Y-110099830D01*
X82456800Y-110099830D02*
X82466324Y-110061735D01*
X82466324Y-110061735D02*
X82485371Y-110042687D01*
X82485371Y-110042687D02*
X82504419Y-110033163D01*
X82675848Y-110233163D02*
X82675848Y-110033163D01*
X82675848Y-110033163D02*
X82790133Y-110233163D01*
X82790133Y-110233163D02*
X82790133Y-110033163D01*
X82885372Y-110128401D02*
X82952038Y-110128401D01*
X82980610Y-110233163D02*
X82885372Y-110233163D01*
X82885372Y-110233163D02*
X82885372Y-110033163D01*
X82885372Y-110033163D02*
X82980610Y-110033163D01*
X80675847Y-110633163D02*
X80675847Y-110433163D01*
X80675847Y-110433163D02*
X80790132Y-110633163D01*
X80790132Y-110633163D02*
X80790132Y-110433163D01*
X80913942Y-110633163D02*
X80894894Y-110623640D01*
X80894894Y-110623640D02*
X80885371Y-110614116D01*
X80885371Y-110614116D02*
X80875847Y-110595068D01*
X80875847Y-110595068D02*
X80875847Y-110537925D01*
X80875847Y-110537925D02*
X80885371Y-110518878D01*
X80885371Y-110518878D02*
X80894894Y-110509354D01*
X80894894Y-110509354D02*
X80913942Y-110499830D01*
X80913942Y-110499830D02*
X80942513Y-110499830D01*
X80942513Y-110499830D02*
X80961561Y-110509354D01*
X80961561Y-110509354D02*
X80971085Y-110518878D01*
X80971085Y-110518878D02*
X80980609Y-110537925D01*
X80980609Y-110537925D02*
X80980609Y-110595068D01*
X80980609Y-110595068D02*
X80971085Y-110614116D01*
X80971085Y-110614116D02*
X80961561Y-110623640D01*
X80961561Y-110623640D02*
X80942513Y-110633163D01*
X80942513Y-110633163D02*
X80913942Y-110633163D01*
X81285370Y-110528401D02*
X81218704Y-110528401D01*
X81218704Y-110633163D02*
X81218704Y-110433163D01*
X81218704Y-110433163D02*
X81313942Y-110433163D01*
X81390133Y-110614116D02*
X81399656Y-110623640D01*
X81399656Y-110623640D02*
X81390133Y-110633163D01*
X81390133Y-110633163D02*
X81380609Y-110623640D01*
X81380609Y-110623640D02*
X81390133Y-110614116D01*
X81390133Y-110614116D02*
X81390133Y-110633163D01*
X81599656Y-110614116D02*
X81590132Y-110623640D01*
X81590132Y-110623640D02*
X81561561Y-110633163D01*
X81561561Y-110633163D02*
X81542513Y-110633163D01*
X81542513Y-110633163D02*
X81513942Y-110623640D01*
X81513942Y-110623640D02*
X81494894Y-110604592D01*
X81494894Y-110604592D02*
X81485371Y-110585544D01*
X81485371Y-110585544D02*
X81475847Y-110547449D01*
X81475847Y-110547449D02*
X81475847Y-110518878D01*
X81475847Y-110518878D02*
X81485371Y-110480782D01*
X81485371Y-110480782D02*
X81494894Y-110461735D01*
X81494894Y-110461735D02*
X81513942Y-110442687D01*
X81513942Y-110442687D02*
X81542513Y-110433163D01*
X81542513Y-110433163D02*
X81561561Y-110433163D01*
X81561561Y-110433163D02*
X81590132Y-110442687D01*
X81590132Y-110442687D02*
X81599656Y-110452211D01*
X81771085Y-110499830D02*
X81771085Y-110633163D01*
X81685371Y-110499830D02*
X81685371Y-110604592D01*
X81685371Y-110604592D02*
X81694894Y-110623640D01*
X81694894Y-110623640D02*
X81713942Y-110633163D01*
X81713942Y-110633163D02*
X81742513Y-110633163D01*
X81742513Y-110633163D02*
X81761561Y-110623640D01*
X81761561Y-110623640D02*
X81771085Y-110614116D01*
X81990132Y-110499830D02*
X82066323Y-110499830D01*
X82018704Y-110433163D02*
X82018704Y-110604592D01*
X82018704Y-110604592D02*
X82028227Y-110623640D01*
X82028227Y-110623640D02*
X82047275Y-110633163D01*
X82047275Y-110633163D02*
X82066323Y-110633163D01*
X82132990Y-110633163D02*
X82132990Y-110499830D01*
X82132990Y-110537925D02*
X82142513Y-110518878D01*
X82142513Y-110518878D02*
X82152037Y-110509354D01*
X82152037Y-110509354D02*
X82171085Y-110499830D01*
X82171085Y-110499830D02*
X82190132Y-110499830D01*
X82342514Y-110633163D02*
X82342514Y-110528401D01*
X82342514Y-110528401D02*
X82332990Y-110509354D01*
X82332990Y-110509354D02*
X82313942Y-110499830D01*
X82313942Y-110499830D02*
X82275847Y-110499830D01*
X82275847Y-110499830D02*
X82256800Y-110509354D01*
X82342514Y-110623640D02*
X82323466Y-110633163D01*
X82323466Y-110633163D02*
X82275847Y-110633163D01*
X82275847Y-110633163D02*
X82256800Y-110623640D01*
X82256800Y-110623640D02*
X82247276Y-110604592D01*
X82247276Y-110604592D02*
X82247276Y-110585544D01*
X82247276Y-110585544D02*
X82256800Y-110566497D01*
X82256800Y-110566497D02*
X82275847Y-110556973D01*
X82275847Y-110556973D02*
X82323466Y-110556973D01*
X82323466Y-110556973D02*
X82342514Y-110547449D01*
X82523466Y-110623640D02*
X82504418Y-110633163D01*
X82504418Y-110633163D02*
X82466323Y-110633163D01*
X82466323Y-110633163D02*
X82447275Y-110623640D01*
X82447275Y-110623640D02*
X82437752Y-110614116D01*
X82437752Y-110614116D02*
X82428228Y-110595068D01*
X82428228Y-110595068D02*
X82428228Y-110537925D01*
X82428228Y-110537925D02*
X82437752Y-110518878D01*
X82437752Y-110518878D02*
X82447275Y-110509354D01*
X82447275Y-110509354D02*
X82466323Y-110499830D01*
X82466323Y-110499830D02*
X82504418Y-110499830D01*
X82504418Y-110499830D02*
X82523466Y-110509354D01*
X82609181Y-110633163D02*
X82609181Y-110433163D01*
X82628228Y-110556973D02*
X82685371Y-110633163D01*
X82685371Y-110499830D02*
X82609181Y-110576020D01*
X82761562Y-110623640D02*
X82780609Y-110633163D01*
X82780609Y-110633163D02*
X82818705Y-110633163D01*
X82818705Y-110633163D02*
X82837752Y-110623640D01*
X82837752Y-110623640D02*
X82847276Y-110604592D01*
X82847276Y-110604592D02*
X82847276Y-110595068D01*
X82847276Y-110595068D02*
X82837752Y-110576020D01*
X82837752Y-110576020D02*
X82818705Y-110566497D01*
X82818705Y-110566497D02*
X82790133Y-110566497D01*
X82790133Y-110566497D02*
X82771086Y-110556973D01*
X82771086Y-110556973D02*
X82761562Y-110537925D01*
X82761562Y-110537925D02*
X82761562Y-110528401D01*
X82761562Y-110528401D02*
X82771086Y-110509354D01*
X82771086Y-110509354D02*
X82790133Y-110499830D01*
X82790133Y-110499830D02*
X82818705Y-110499830D01*
X82818705Y-110499830D02*
X82837752Y-110509354D01*
X85675847Y-110633163D02*
X85675847Y-110433163D01*
X85675847Y-110433163D02*
X85790132Y-110633163D01*
X85790132Y-110633163D02*
X85790132Y-110433163D01*
X85913942Y-110633163D02*
X85894894Y-110623640D01*
X85894894Y-110623640D02*
X85885371Y-110614116D01*
X85885371Y-110614116D02*
X85875847Y-110595068D01*
X85875847Y-110595068D02*
X85875847Y-110537925D01*
X85875847Y-110537925D02*
X85885371Y-110518878D01*
X85885371Y-110518878D02*
X85894894Y-110509354D01*
X85894894Y-110509354D02*
X85913942Y-110499830D01*
X85913942Y-110499830D02*
X85942513Y-110499830D01*
X85942513Y-110499830D02*
X85961561Y-110509354D01*
X85961561Y-110509354D02*
X85971085Y-110518878D01*
X85971085Y-110518878D02*
X85980609Y-110537925D01*
X85980609Y-110537925D02*
X85980609Y-110595068D01*
X85980609Y-110595068D02*
X85971085Y-110614116D01*
X85971085Y-110614116D02*
X85961561Y-110623640D01*
X85961561Y-110623640D02*
X85942513Y-110633163D01*
X85942513Y-110633163D02*
X85913942Y-110633163D01*
X86285370Y-110528401D02*
X86218704Y-110528401D01*
X86218704Y-110633163D02*
X86218704Y-110433163D01*
X86218704Y-110433163D02*
X86313942Y-110433163D01*
X86390133Y-110614116D02*
X86399656Y-110623640D01*
X86399656Y-110623640D02*
X86390133Y-110633163D01*
X86390133Y-110633163D02*
X86380609Y-110623640D01*
X86380609Y-110623640D02*
X86390133Y-110614116D01*
X86390133Y-110614116D02*
X86390133Y-110633163D01*
X86599656Y-110614116D02*
X86590132Y-110623640D01*
X86590132Y-110623640D02*
X86561561Y-110633163D01*
X86561561Y-110633163D02*
X86542513Y-110633163D01*
X86542513Y-110633163D02*
X86513942Y-110623640D01*
X86513942Y-110623640D02*
X86494894Y-110604592D01*
X86494894Y-110604592D02*
X86485371Y-110585544D01*
X86485371Y-110585544D02*
X86475847Y-110547449D01*
X86475847Y-110547449D02*
X86475847Y-110518878D01*
X86475847Y-110518878D02*
X86485371Y-110480782D01*
X86485371Y-110480782D02*
X86494894Y-110461735D01*
X86494894Y-110461735D02*
X86513942Y-110442687D01*
X86513942Y-110442687D02*
X86542513Y-110433163D01*
X86542513Y-110433163D02*
X86561561Y-110433163D01*
X86561561Y-110433163D02*
X86590132Y-110442687D01*
X86590132Y-110442687D02*
X86599656Y-110452211D01*
X86771085Y-110499830D02*
X86771085Y-110633163D01*
X86685371Y-110499830D02*
X86685371Y-110604592D01*
X86685371Y-110604592D02*
X86694894Y-110623640D01*
X86694894Y-110623640D02*
X86713942Y-110633163D01*
X86713942Y-110633163D02*
X86742513Y-110633163D01*
X86742513Y-110633163D02*
X86761561Y-110623640D01*
X86761561Y-110623640D02*
X86771085Y-110614116D01*
X86990132Y-110499830D02*
X87066323Y-110499830D01*
X87018704Y-110433163D02*
X87018704Y-110604592D01*
X87018704Y-110604592D02*
X87028227Y-110623640D01*
X87028227Y-110623640D02*
X87047275Y-110633163D01*
X87047275Y-110633163D02*
X87066323Y-110633163D01*
X87132990Y-110633163D02*
X87132990Y-110499830D01*
X87132990Y-110537925D02*
X87142513Y-110518878D01*
X87142513Y-110518878D02*
X87152037Y-110509354D01*
X87152037Y-110509354D02*
X87171085Y-110499830D01*
X87171085Y-110499830D02*
X87190132Y-110499830D01*
X87342514Y-110633163D02*
X87342514Y-110528401D01*
X87342514Y-110528401D02*
X87332990Y-110509354D01*
X87332990Y-110509354D02*
X87313942Y-110499830D01*
X87313942Y-110499830D02*
X87275847Y-110499830D01*
X87275847Y-110499830D02*
X87256800Y-110509354D01*
X87342514Y-110623640D02*
X87323466Y-110633163D01*
X87323466Y-110633163D02*
X87275847Y-110633163D01*
X87275847Y-110633163D02*
X87256800Y-110623640D01*
X87256800Y-110623640D02*
X87247276Y-110604592D01*
X87247276Y-110604592D02*
X87247276Y-110585544D01*
X87247276Y-110585544D02*
X87256800Y-110566497D01*
X87256800Y-110566497D02*
X87275847Y-110556973D01*
X87275847Y-110556973D02*
X87323466Y-110556973D01*
X87323466Y-110556973D02*
X87342514Y-110547449D01*
X87523466Y-110623640D02*
X87504418Y-110633163D01*
X87504418Y-110633163D02*
X87466323Y-110633163D01*
X87466323Y-110633163D02*
X87447275Y-110623640D01*
X87447275Y-110623640D02*
X87437752Y-110614116D01*
X87437752Y-110614116D02*
X87428228Y-110595068D01*
X87428228Y-110595068D02*
X87428228Y-110537925D01*
X87428228Y-110537925D02*
X87437752Y-110518878D01*
X87437752Y-110518878D02*
X87447275Y-110509354D01*
X87447275Y-110509354D02*
X87466323Y-110499830D01*
X87466323Y-110499830D02*
X87504418Y-110499830D01*
X87504418Y-110499830D02*
X87523466Y-110509354D01*
X87609181Y-110633163D02*
X87609181Y-110433163D01*
X87628228Y-110556973D02*
X87685371Y-110633163D01*
X87685371Y-110499830D02*
X87609181Y-110576020D01*
X87761562Y-110623640D02*
X87780609Y-110633163D01*
X87780609Y-110633163D02*
X87818705Y-110633163D01*
X87818705Y-110633163D02*
X87837752Y-110623640D01*
X87837752Y-110623640D02*
X87847276Y-110604592D01*
X87847276Y-110604592D02*
X87847276Y-110595068D01*
X87847276Y-110595068D02*
X87837752Y-110576020D01*
X87837752Y-110576020D02*
X87818705Y-110566497D01*
X87818705Y-110566497D02*
X87790133Y-110566497D01*
X87790133Y-110566497D02*
X87771086Y-110556973D01*
X87771086Y-110556973D02*
X87761562Y-110537925D01*
X87761562Y-110537925D02*
X87761562Y-110528401D01*
X87761562Y-110528401D02*
X87771086Y-110509354D01*
X87771086Y-110509354D02*
X87790133Y-110499830D01*
X87790133Y-110499830D02*
X87818705Y-110499830D01*
X87818705Y-110499830D02*
X87837752Y-110509354D01*
X85542515Y-110233163D02*
X85542515Y-110033163D01*
X85656800Y-110233163D02*
X85571086Y-110118878D01*
X85656800Y-110033163D02*
X85542515Y-110147449D01*
X85742515Y-110128401D02*
X85809181Y-110128401D01*
X85837753Y-110233163D02*
X85742515Y-110233163D01*
X85742515Y-110233163D02*
X85742515Y-110033163D01*
X85742515Y-110033163D02*
X85837753Y-110033163D01*
X85923467Y-110128401D02*
X85990133Y-110128401D01*
X86018705Y-110233163D02*
X85923467Y-110233163D01*
X85923467Y-110233163D02*
X85923467Y-110033163D01*
X85923467Y-110033163D02*
X86018705Y-110033163D01*
X86104419Y-110233163D02*
X86104419Y-110033163D01*
X86104419Y-110033163D02*
X86180609Y-110033163D01*
X86180609Y-110033163D02*
X86199657Y-110042687D01*
X86199657Y-110042687D02*
X86209180Y-110052211D01*
X86209180Y-110052211D02*
X86218704Y-110071259D01*
X86218704Y-110071259D02*
X86218704Y-110099830D01*
X86218704Y-110099830D02*
X86209180Y-110118878D01*
X86209180Y-110118878D02*
X86199657Y-110128401D01*
X86199657Y-110128401D02*
X86180609Y-110137925D01*
X86180609Y-110137925D02*
X86104419Y-110137925D01*
X86304419Y-110156973D02*
X86456800Y-110156973D01*
X86590133Y-110033163D02*
X86628228Y-110033163D01*
X86628228Y-110033163D02*
X86647276Y-110042687D01*
X86647276Y-110042687D02*
X86666323Y-110061735D01*
X86666323Y-110061735D02*
X86675847Y-110099830D01*
X86675847Y-110099830D02*
X86675847Y-110166497D01*
X86675847Y-110166497D02*
X86666323Y-110204592D01*
X86666323Y-110204592D02*
X86647276Y-110223640D01*
X86647276Y-110223640D02*
X86628228Y-110233163D01*
X86628228Y-110233163D02*
X86590133Y-110233163D01*
X86590133Y-110233163D02*
X86571085Y-110223640D01*
X86571085Y-110223640D02*
X86552038Y-110204592D01*
X86552038Y-110204592D02*
X86542514Y-110166497D01*
X86542514Y-110166497D02*
X86542514Y-110099830D01*
X86542514Y-110099830D02*
X86552038Y-110061735D01*
X86552038Y-110061735D02*
X86571085Y-110042687D01*
X86571085Y-110042687D02*
X86590133Y-110033163D01*
X86761562Y-110033163D02*
X86761562Y-110195068D01*
X86761562Y-110195068D02*
X86771085Y-110214116D01*
X86771085Y-110214116D02*
X86780609Y-110223640D01*
X86780609Y-110223640D02*
X86799657Y-110233163D01*
X86799657Y-110233163D02*
X86837752Y-110233163D01*
X86837752Y-110233163D02*
X86856800Y-110223640D01*
X86856800Y-110223640D02*
X86866323Y-110214116D01*
X86866323Y-110214116D02*
X86875847Y-110195068D01*
X86875847Y-110195068D02*
X86875847Y-110033163D01*
X86942514Y-110033163D02*
X87056800Y-110033163D01*
X86999657Y-110233163D02*
X86999657Y-110033163D01*
X87256800Y-110033163D02*
X87390133Y-110033163D01*
X87390133Y-110033163D02*
X87256800Y-110233163D01*
X87256800Y-110233163D02*
X87390133Y-110233163D01*
X87504419Y-110033163D02*
X87542514Y-110033163D01*
X87542514Y-110033163D02*
X87561562Y-110042687D01*
X87561562Y-110042687D02*
X87580609Y-110061735D01*
X87580609Y-110061735D02*
X87590133Y-110099830D01*
X87590133Y-110099830D02*
X87590133Y-110166497D01*
X87590133Y-110166497D02*
X87580609Y-110204592D01*
X87580609Y-110204592D02*
X87561562Y-110223640D01*
X87561562Y-110223640D02*
X87542514Y-110233163D01*
X87542514Y-110233163D02*
X87504419Y-110233163D01*
X87504419Y-110233163D02*
X87485371Y-110223640D01*
X87485371Y-110223640D02*
X87466324Y-110204592D01*
X87466324Y-110204592D02*
X87456800Y-110166497D01*
X87456800Y-110166497D02*
X87456800Y-110099830D01*
X87456800Y-110099830D02*
X87466324Y-110061735D01*
X87466324Y-110061735D02*
X87485371Y-110042687D01*
X87485371Y-110042687D02*
X87504419Y-110033163D01*
X87675848Y-110233163D02*
X87675848Y-110033163D01*
X87675848Y-110033163D02*
X87790133Y-110233163D01*
X87790133Y-110233163D02*
X87790133Y-110033163D01*
X87885372Y-110128401D02*
X87952038Y-110128401D01*
X87980610Y-110233163D02*
X87885372Y-110233163D01*
X87885372Y-110233163D02*
X87885372Y-110033163D01*
X87885372Y-110033163D02*
X87980610Y-110033163D01*
X80542515Y-117598763D02*
X80542515Y-117398763D01*
X80656800Y-117598763D02*
X80571086Y-117484478D01*
X80656800Y-117398763D02*
X80542515Y-117513049D01*
X80742515Y-117494001D02*
X80809181Y-117494001D01*
X80837753Y-117598763D02*
X80742515Y-117598763D01*
X80742515Y-117598763D02*
X80742515Y-117398763D01*
X80742515Y-117398763D02*
X80837753Y-117398763D01*
X80923467Y-117494001D02*
X80990133Y-117494001D01*
X81018705Y-117598763D02*
X80923467Y-117598763D01*
X80923467Y-117598763D02*
X80923467Y-117398763D01*
X80923467Y-117398763D02*
X81018705Y-117398763D01*
X81104419Y-117598763D02*
X81104419Y-117398763D01*
X81104419Y-117398763D02*
X81180609Y-117398763D01*
X81180609Y-117398763D02*
X81199657Y-117408287D01*
X81199657Y-117408287D02*
X81209180Y-117417811D01*
X81209180Y-117417811D02*
X81218704Y-117436859D01*
X81218704Y-117436859D02*
X81218704Y-117465430D01*
X81218704Y-117465430D02*
X81209180Y-117484478D01*
X81209180Y-117484478D02*
X81199657Y-117494001D01*
X81199657Y-117494001D02*
X81180609Y-117503525D01*
X81180609Y-117503525D02*
X81104419Y-117503525D01*
X81304419Y-117522573D02*
X81456800Y-117522573D01*
X81590133Y-117398763D02*
X81628228Y-117398763D01*
X81628228Y-117398763D02*
X81647276Y-117408287D01*
X81647276Y-117408287D02*
X81666323Y-117427335D01*
X81666323Y-117427335D02*
X81675847Y-117465430D01*
X81675847Y-117465430D02*
X81675847Y-117532097D01*
X81675847Y-117532097D02*
X81666323Y-117570192D01*
X81666323Y-117570192D02*
X81647276Y-117589240D01*
X81647276Y-117589240D02*
X81628228Y-117598763D01*
X81628228Y-117598763D02*
X81590133Y-117598763D01*
X81590133Y-117598763D02*
X81571085Y-117589240D01*
X81571085Y-117589240D02*
X81552038Y-117570192D01*
X81552038Y-117570192D02*
X81542514Y-117532097D01*
X81542514Y-117532097D02*
X81542514Y-117465430D01*
X81542514Y-117465430D02*
X81552038Y-117427335D01*
X81552038Y-117427335D02*
X81571085Y-117408287D01*
X81571085Y-117408287D02*
X81590133Y-117398763D01*
X81761562Y-117398763D02*
X81761562Y-117560668D01*
X81761562Y-117560668D02*
X81771085Y-117579716D01*
X81771085Y-117579716D02*
X81780609Y-117589240D01*
X81780609Y-117589240D02*
X81799657Y-117598763D01*
X81799657Y-117598763D02*
X81837752Y-117598763D01*
X81837752Y-117598763D02*
X81856800Y-117589240D01*
X81856800Y-117589240D02*
X81866323Y-117579716D01*
X81866323Y-117579716D02*
X81875847Y-117560668D01*
X81875847Y-117560668D02*
X81875847Y-117398763D01*
X81942514Y-117398763D02*
X82056800Y-117398763D01*
X81999657Y-117598763D02*
X81999657Y-117398763D01*
X82256800Y-117398763D02*
X82390133Y-117398763D01*
X82390133Y-117398763D02*
X82256800Y-117598763D01*
X82256800Y-117598763D02*
X82390133Y-117598763D01*
X82504419Y-117398763D02*
X82542514Y-117398763D01*
X82542514Y-117398763D02*
X82561562Y-117408287D01*
X82561562Y-117408287D02*
X82580609Y-117427335D01*
X82580609Y-117427335D02*
X82590133Y-117465430D01*
X82590133Y-117465430D02*
X82590133Y-117532097D01*
X82590133Y-117532097D02*
X82580609Y-117570192D01*
X82580609Y-117570192D02*
X82561562Y-117589240D01*
X82561562Y-117589240D02*
X82542514Y-117598763D01*
X82542514Y-117598763D02*
X82504419Y-117598763D01*
X82504419Y-117598763D02*
X82485371Y-117589240D01*
X82485371Y-117589240D02*
X82466324Y-117570192D01*
X82466324Y-117570192D02*
X82456800Y-117532097D01*
X82456800Y-117532097D02*
X82456800Y-117465430D01*
X82456800Y-117465430D02*
X82466324Y-117427335D01*
X82466324Y-117427335D02*
X82485371Y-117408287D01*
X82485371Y-117408287D02*
X82504419Y-117398763D01*
X82675848Y-117598763D02*
X82675848Y-117398763D01*
X82675848Y-117398763D02*
X82790133Y-117598763D01*
X82790133Y-117598763D02*
X82790133Y-117398763D01*
X82885372Y-117494001D02*
X82952038Y-117494001D01*
X82980610Y-117598763D02*
X82885372Y-117598763D01*
X82885372Y-117598763D02*
X82885372Y-117398763D01*
X82885372Y-117398763D02*
X82980610Y-117398763D01*
X80675847Y-117998763D02*
X80675847Y-117798763D01*
X80675847Y-117798763D02*
X80790132Y-117998763D01*
X80790132Y-117998763D02*
X80790132Y-117798763D01*
X80913942Y-117998763D02*
X80894894Y-117989240D01*
X80894894Y-117989240D02*
X80885371Y-117979716D01*
X80885371Y-117979716D02*
X80875847Y-117960668D01*
X80875847Y-117960668D02*
X80875847Y-117903525D01*
X80875847Y-117903525D02*
X80885371Y-117884478D01*
X80885371Y-117884478D02*
X80894894Y-117874954D01*
X80894894Y-117874954D02*
X80913942Y-117865430D01*
X80913942Y-117865430D02*
X80942513Y-117865430D01*
X80942513Y-117865430D02*
X80961561Y-117874954D01*
X80961561Y-117874954D02*
X80971085Y-117884478D01*
X80971085Y-117884478D02*
X80980609Y-117903525D01*
X80980609Y-117903525D02*
X80980609Y-117960668D01*
X80980609Y-117960668D02*
X80971085Y-117979716D01*
X80971085Y-117979716D02*
X80961561Y-117989240D01*
X80961561Y-117989240D02*
X80942513Y-117998763D01*
X80942513Y-117998763D02*
X80913942Y-117998763D01*
X81285370Y-117894001D02*
X81218704Y-117894001D01*
X81218704Y-117998763D02*
X81218704Y-117798763D01*
X81218704Y-117798763D02*
X81313942Y-117798763D01*
X81390133Y-117979716D02*
X81399656Y-117989240D01*
X81399656Y-117989240D02*
X81390133Y-117998763D01*
X81390133Y-117998763D02*
X81380609Y-117989240D01*
X81380609Y-117989240D02*
X81390133Y-117979716D01*
X81390133Y-117979716D02*
X81390133Y-117998763D01*
X81599656Y-117979716D02*
X81590132Y-117989240D01*
X81590132Y-117989240D02*
X81561561Y-117998763D01*
X81561561Y-117998763D02*
X81542513Y-117998763D01*
X81542513Y-117998763D02*
X81513942Y-117989240D01*
X81513942Y-117989240D02*
X81494894Y-117970192D01*
X81494894Y-117970192D02*
X81485371Y-117951144D01*
X81485371Y-117951144D02*
X81475847Y-117913049D01*
X81475847Y-117913049D02*
X81475847Y-117884478D01*
X81475847Y-117884478D02*
X81485371Y-117846382D01*
X81485371Y-117846382D02*
X81494894Y-117827335D01*
X81494894Y-117827335D02*
X81513942Y-117808287D01*
X81513942Y-117808287D02*
X81542513Y-117798763D01*
X81542513Y-117798763D02*
X81561561Y-117798763D01*
X81561561Y-117798763D02*
X81590132Y-117808287D01*
X81590132Y-117808287D02*
X81599656Y-117817811D01*
X81771085Y-117865430D02*
X81771085Y-117998763D01*
X81685371Y-117865430D02*
X81685371Y-117970192D01*
X81685371Y-117970192D02*
X81694894Y-117989240D01*
X81694894Y-117989240D02*
X81713942Y-117998763D01*
X81713942Y-117998763D02*
X81742513Y-117998763D01*
X81742513Y-117998763D02*
X81761561Y-117989240D01*
X81761561Y-117989240D02*
X81771085Y-117979716D01*
X81990132Y-117865430D02*
X82066323Y-117865430D01*
X82018704Y-117798763D02*
X82018704Y-117970192D01*
X82018704Y-117970192D02*
X82028227Y-117989240D01*
X82028227Y-117989240D02*
X82047275Y-117998763D01*
X82047275Y-117998763D02*
X82066323Y-117998763D01*
X82132990Y-117998763D02*
X82132990Y-117865430D01*
X82132990Y-117903525D02*
X82142513Y-117884478D01*
X82142513Y-117884478D02*
X82152037Y-117874954D01*
X82152037Y-117874954D02*
X82171085Y-117865430D01*
X82171085Y-117865430D02*
X82190132Y-117865430D01*
X82342514Y-117998763D02*
X82342514Y-117894001D01*
X82342514Y-117894001D02*
X82332990Y-117874954D01*
X82332990Y-117874954D02*
X82313942Y-117865430D01*
X82313942Y-117865430D02*
X82275847Y-117865430D01*
X82275847Y-117865430D02*
X82256800Y-117874954D01*
X82342514Y-117989240D02*
X82323466Y-117998763D01*
X82323466Y-117998763D02*
X82275847Y-117998763D01*
X82275847Y-117998763D02*
X82256800Y-117989240D01*
X82256800Y-117989240D02*
X82247276Y-117970192D01*
X82247276Y-117970192D02*
X82247276Y-117951144D01*
X82247276Y-117951144D02*
X82256800Y-117932097D01*
X82256800Y-117932097D02*
X82275847Y-117922573D01*
X82275847Y-117922573D02*
X82323466Y-117922573D01*
X82323466Y-117922573D02*
X82342514Y-117913049D01*
X82523466Y-117989240D02*
X82504418Y-117998763D01*
X82504418Y-117998763D02*
X82466323Y-117998763D01*
X82466323Y-117998763D02*
X82447275Y-117989240D01*
X82447275Y-117989240D02*
X82437752Y-117979716D01*
X82437752Y-117979716D02*
X82428228Y-117960668D01*
X82428228Y-117960668D02*
X82428228Y-117903525D01*
X82428228Y-117903525D02*
X82437752Y-117884478D01*
X82437752Y-117884478D02*
X82447275Y-117874954D01*
X82447275Y-117874954D02*
X82466323Y-117865430D01*
X82466323Y-117865430D02*
X82504418Y-117865430D01*
X82504418Y-117865430D02*
X82523466Y-117874954D01*
X82609181Y-117998763D02*
X82609181Y-117798763D01*
X82628228Y-117922573D02*
X82685371Y-117998763D01*
X82685371Y-117865430D02*
X82609181Y-117941620D01*
X82761562Y-117989240D02*
X82780609Y-117998763D01*
X82780609Y-117998763D02*
X82818705Y-117998763D01*
X82818705Y-117998763D02*
X82837752Y-117989240D01*
X82837752Y-117989240D02*
X82847276Y-117970192D01*
X82847276Y-117970192D02*
X82847276Y-117960668D01*
X82847276Y-117960668D02*
X82837752Y-117941620D01*
X82837752Y-117941620D02*
X82818705Y-117932097D01*
X82818705Y-117932097D02*
X82790133Y-117932097D01*
X82790133Y-117932097D02*
X82771086Y-117922573D01*
X82771086Y-117922573D02*
X82761562Y-117903525D01*
X82761562Y-117903525D02*
X82761562Y-117894001D01*
X82761562Y-117894001D02*
X82771086Y-117874954D01*
X82771086Y-117874954D02*
X82790133Y-117865430D01*
X82790133Y-117865430D02*
X82818705Y-117865430D01*
X82818705Y-117865430D02*
X82837752Y-117874954D01*
X85675847Y-117998763D02*
X85675847Y-117798763D01*
X85675847Y-117798763D02*
X85790132Y-117998763D01*
X85790132Y-117998763D02*
X85790132Y-117798763D01*
X85913942Y-117998763D02*
X85894894Y-117989240D01*
X85894894Y-117989240D02*
X85885371Y-117979716D01*
X85885371Y-117979716D02*
X85875847Y-117960668D01*
X85875847Y-117960668D02*
X85875847Y-117903525D01*
X85875847Y-117903525D02*
X85885371Y-117884478D01*
X85885371Y-117884478D02*
X85894894Y-117874954D01*
X85894894Y-117874954D02*
X85913942Y-117865430D01*
X85913942Y-117865430D02*
X85942513Y-117865430D01*
X85942513Y-117865430D02*
X85961561Y-117874954D01*
X85961561Y-117874954D02*
X85971085Y-117884478D01*
X85971085Y-117884478D02*
X85980609Y-117903525D01*
X85980609Y-117903525D02*
X85980609Y-117960668D01*
X85980609Y-117960668D02*
X85971085Y-117979716D01*
X85971085Y-117979716D02*
X85961561Y-117989240D01*
X85961561Y-117989240D02*
X85942513Y-117998763D01*
X85942513Y-117998763D02*
X85913942Y-117998763D01*
X86285370Y-117894001D02*
X86218704Y-117894001D01*
X86218704Y-117998763D02*
X86218704Y-117798763D01*
X86218704Y-117798763D02*
X86313942Y-117798763D01*
X86390133Y-117979716D02*
X86399656Y-117989240D01*
X86399656Y-117989240D02*
X86390133Y-117998763D01*
X86390133Y-117998763D02*
X86380609Y-117989240D01*
X86380609Y-117989240D02*
X86390133Y-117979716D01*
X86390133Y-117979716D02*
X86390133Y-117998763D01*
X86599656Y-117979716D02*
X86590132Y-117989240D01*
X86590132Y-117989240D02*
X86561561Y-117998763D01*
X86561561Y-117998763D02*
X86542513Y-117998763D01*
X86542513Y-117998763D02*
X86513942Y-117989240D01*
X86513942Y-117989240D02*
X86494894Y-117970192D01*
X86494894Y-117970192D02*
X86485371Y-117951144D01*
X86485371Y-117951144D02*
X86475847Y-117913049D01*
X86475847Y-117913049D02*
X86475847Y-117884478D01*
X86475847Y-117884478D02*
X86485371Y-117846382D01*
X86485371Y-117846382D02*
X86494894Y-117827335D01*
X86494894Y-117827335D02*
X86513942Y-117808287D01*
X86513942Y-117808287D02*
X86542513Y-117798763D01*
X86542513Y-117798763D02*
X86561561Y-117798763D01*
X86561561Y-117798763D02*
X86590132Y-117808287D01*
X86590132Y-117808287D02*
X86599656Y-117817811D01*
X86771085Y-117865430D02*
X86771085Y-117998763D01*
X86685371Y-117865430D02*
X86685371Y-117970192D01*
X86685371Y-117970192D02*
X86694894Y-117989240D01*
X86694894Y-117989240D02*
X86713942Y-117998763D01*
X86713942Y-117998763D02*
X86742513Y-117998763D01*
X86742513Y-117998763D02*
X86761561Y-117989240D01*
X86761561Y-117989240D02*
X86771085Y-117979716D01*
X86990132Y-117865430D02*
X87066323Y-117865430D01*
X87018704Y-117798763D02*
X87018704Y-117970192D01*
X87018704Y-117970192D02*
X87028227Y-117989240D01*
X87028227Y-117989240D02*
X87047275Y-117998763D01*
X87047275Y-117998763D02*
X87066323Y-117998763D01*
X87132990Y-117998763D02*
X87132990Y-117865430D01*
X87132990Y-117903525D02*
X87142513Y-117884478D01*
X87142513Y-117884478D02*
X87152037Y-117874954D01*
X87152037Y-117874954D02*
X87171085Y-117865430D01*
X87171085Y-117865430D02*
X87190132Y-117865430D01*
X87342514Y-117998763D02*
X87342514Y-117894001D01*
X87342514Y-117894001D02*
X87332990Y-117874954D01*
X87332990Y-117874954D02*
X87313942Y-117865430D01*
X87313942Y-117865430D02*
X87275847Y-117865430D01*
X87275847Y-117865430D02*
X87256800Y-117874954D01*
X87342514Y-117989240D02*
X87323466Y-117998763D01*
X87323466Y-117998763D02*
X87275847Y-117998763D01*
X87275847Y-117998763D02*
X87256800Y-117989240D01*
X87256800Y-117989240D02*
X87247276Y-117970192D01*
X87247276Y-117970192D02*
X87247276Y-117951144D01*
X87247276Y-117951144D02*
X87256800Y-117932097D01*
X87256800Y-117932097D02*
X87275847Y-117922573D01*
X87275847Y-117922573D02*
X87323466Y-117922573D01*
X87323466Y-117922573D02*
X87342514Y-117913049D01*
X87523466Y-117989240D02*
X87504418Y-117998763D01*
X87504418Y-117998763D02*
X87466323Y-117998763D01*
X87466323Y-117998763D02*
X87447275Y-117989240D01*
X87447275Y-117989240D02*
X87437752Y-117979716D01*
X87437752Y-117979716D02*
X87428228Y-117960668D01*
X87428228Y-117960668D02*
X87428228Y-117903525D01*
X87428228Y-117903525D02*
X87437752Y-117884478D01*
X87437752Y-117884478D02*
X87447275Y-117874954D01*
X87447275Y-117874954D02*
X87466323Y-117865430D01*
X87466323Y-117865430D02*
X87504418Y-117865430D01*
X87504418Y-117865430D02*
X87523466Y-117874954D01*
X87609181Y-117998763D02*
X87609181Y-117798763D01*
X87628228Y-117922573D02*
X87685371Y-117998763D01*
X87685371Y-117865430D02*
X87609181Y-117941620D01*
X87761562Y-117989240D02*
X87780609Y-117998763D01*
X87780609Y-117998763D02*
X87818705Y-117998763D01*
X87818705Y-117998763D02*
X87837752Y-117989240D01*
X87837752Y-117989240D02*
X87847276Y-117970192D01*
X87847276Y-117970192D02*
X87847276Y-117960668D01*
X87847276Y-117960668D02*
X87837752Y-117941620D01*
X87837752Y-117941620D02*
X87818705Y-117932097D01*
X87818705Y-117932097D02*
X87790133Y-117932097D01*
X87790133Y-117932097D02*
X87771086Y-117922573D01*
X87771086Y-117922573D02*
X87761562Y-117903525D01*
X87761562Y-117903525D02*
X87761562Y-117894001D01*
X87761562Y-117894001D02*
X87771086Y-117874954D01*
X87771086Y-117874954D02*
X87790133Y-117865430D01*
X87790133Y-117865430D02*
X87818705Y-117865430D01*
X87818705Y-117865430D02*
X87837752Y-117874954D01*
X85542515Y-117598763D02*
X85542515Y-117398763D01*
X85656800Y-117598763D02*
X85571086Y-117484478D01*
X85656800Y-117398763D02*
X85542515Y-117513049D01*
X85742515Y-117494001D02*
X85809181Y-117494001D01*
X85837753Y-117598763D02*
X85742515Y-117598763D01*
X85742515Y-117598763D02*
X85742515Y-117398763D01*
X85742515Y-117398763D02*
X85837753Y-117398763D01*
X85923467Y-117494001D02*
X85990133Y-117494001D01*
X86018705Y-117598763D02*
X85923467Y-117598763D01*
X85923467Y-117598763D02*
X85923467Y-117398763D01*
X85923467Y-117398763D02*
X86018705Y-117398763D01*
X86104419Y-117598763D02*
X86104419Y-117398763D01*
X86104419Y-117398763D02*
X86180609Y-117398763D01*
X86180609Y-117398763D02*
X86199657Y-117408287D01*
X86199657Y-117408287D02*
X86209180Y-117417811D01*
X86209180Y-117417811D02*
X86218704Y-117436859D01*
X86218704Y-117436859D02*
X86218704Y-117465430D01*
X86218704Y-117465430D02*
X86209180Y-117484478D01*
X86209180Y-117484478D02*
X86199657Y-117494001D01*
X86199657Y-117494001D02*
X86180609Y-117503525D01*
X86180609Y-117503525D02*
X86104419Y-117503525D01*
X86304419Y-117522573D02*
X86456800Y-117522573D01*
X86590133Y-117398763D02*
X86628228Y-117398763D01*
X86628228Y-117398763D02*
X86647276Y-117408287D01*
X86647276Y-117408287D02*
X86666323Y-117427335D01*
X86666323Y-117427335D02*
X86675847Y-117465430D01*
X86675847Y-117465430D02*
X86675847Y-117532097D01*
X86675847Y-117532097D02*
X86666323Y-117570192D01*
X86666323Y-117570192D02*
X86647276Y-117589240D01*
X86647276Y-117589240D02*
X86628228Y-117598763D01*
X86628228Y-117598763D02*
X86590133Y-117598763D01*
X86590133Y-117598763D02*
X86571085Y-117589240D01*
X86571085Y-117589240D02*
X86552038Y-117570192D01*
X86552038Y-117570192D02*
X86542514Y-117532097D01*
X86542514Y-117532097D02*
X86542514Y-117465430D01*
X86542514Y-117465430D02*
X86552038Y-117427335D01*
X86552038Y-117427335D02*
X86571085Y-117408287D01*
X86571085Y-117408287D02*
X86590133Y-117398763D01*
X86761562Y-117398763D02*
X86761562Y-117560668D01*
X86761562Y-117560668D02*
X86771085Y-117579716D01*
X86771085Y-117579716D02*
X86780609Y-117589240D01*
X86780609Y-117589240D02*
X86799657Y-117598763D01*
X86799657Y-117598763D02*
X86837752Y-117598763D01*
X86837752Y-117598763D02*
X86856800Y-117589240D01*
X86856800Y-117589240D02*
X86866323Y-117579716D01*
X86866323Y-117579716D02*
X86875847Y-117560668D01*
X86875847Y-117560668D02*
X86875847Y-117398763D01*
X86942514Y-117398763D02*
X87056800Y-117398763D01*
X86999657Y-117598763D02*
X86999657Y-117398763D01*
X87256800Y-117398763D02*
X87390133Y-117398763D01*
X87390133Y-117398763D02*
X87256800Y-117598763D01*
X87256800Y-117598763D02*
X87390133Y-117598763D01*
X87504419Y-117398763D02*
X87542514Y-117398763D01*
X87542514Y-117398763D02*
X87561562Y-117408287D01*
X87561562Y-117408287D02*
X87580609Y-117427335D01*
X87580609Y-117427335D02*
X87590133Y-117465430D01*
X87590133Y-117465430D02*
X87590133Y-117532097D01*
X87590133Y-117532097D02*
X87580609Y-117570192D01*
X87580609Y-117570192D02*
X87561562Y-117589240D01*
X87561562Y-117589240D02*
X87542514Y-117598763D01*
X87542514Y-117598763D02*
X87504419Y-117598763D01*
X87504419Y-117598763D02*
X87485371Y-117589240D01*
X87485371Y-117589240D02*
X87466324Y-117570192D01*
X87466324Y-117570192D02*
X87456800Y-117532097D01*
X87456800Y-117532097D02*
X87456800Y-117465430D01*
X87456800Y-117465430D02*
X87466324Y-117427335D01*
X87466324Y-117427335D02*
X87485371Y-117408287D01*
X87485371Y-117408287D02*
X87504419Y-117398763D01*
X87675848Y-117598763D02*
X87675848Y-117398763D01*
X87675848Y-117398763D02*
X87790133Y-117598763D01*
X87790133Y-117598763D02*
X87790133Y-117398763D01*
X87885372Y-117494001D02*
X87952038Y-117494001D01*
X87980610Y-117598763D02*
X87885372Y-117598763D01*
X87885372Y-117598763D02*
X87885372Y-117398763D01*
X87885372Y-117398763D02*
X87980610Y-117398763D01*
X85542515Y-102815963D02*
X85542515Y-102615963D01*
X85656800Y-102815963D02*
X85571086Y-102701678D01*
X85656800Y-102615963D02*
X85542515Y-102730249D01*
X85742515Y-102711201D02*
X85809181Y-102711201D01*
X85837753Y-102815963D02*
X85742515Y-102815963D01*
X85742515Y-102815963D02*
X85742515Y-102615963D01*
X85742515Y-102615963D02*
X85837753Y-102615963D01*
X85923467Y-102711201D02*
X85990133Y-102711201D01*
X86018705Y-102815963D02*
X85923467Y-102815963D01*
X85923467Y-102815963D02*
X85923467Y-102615963D01*
X85923467Y-102615963D02*
X86018705Y-102615963D01*
X86104419Y-102815963D02*
X86104419Y-102615963D01*
X86104419Y-102615963D02*
X86180609Y-102615963D01*
X86180609Y-102615963D02*
X86199657Y-102625487D01*
X86199657Y-102625487D02*
X86209180Y-102635011D01*
X86209180Y-102635011D02*
X86218704Y-102654059D01*
X86218704Y-102654059D02*
X86218704Y-102682630D01*
X86218704Y-102682630D02*
X86209180Y-102701678D01*
X86209180Y-102701678D02*
X86199657Y-102711201D01*
X86199657Y-102711201D02*
X86180609Y-102720725D01*
X86180609Y-102720725D02*
X86104419Y-102720725D01*
X86304419Y-102739773D02*
X86456800Y-102739773D01*
X86590133Y-102615963D02*
X86628228Y-102615963D01*
X86628228Y-102615963D02*
X86647276Y-102625487D01*
X86647276Y-102625487D02*
X86666323Y-102644535D01*
X86666323Y-102644535D02*
X86675847Y-102682630D01*
X86675847Y-102682630D02*
X86675847Y-102749297D01*
X86675847Y-102749297D02*
X86666323Y-102787392D01*
X86666323Y-102787392D02*
X86647276Y-102806440D01*
X86647276Y-102806440D02*
X86628228Y-102815963D01*
X86628228Y-102815963D02*
X86590133Y-102815963D01*
X86590133Y-102815963D02*
X86571085Y-102806440D01*
X86571085Y-102806440D02*
X86552038Y-102787392D01*
X86552038Y-102787392D02*
X86542514Y-102749297D01*
X86542514Y-102749297D02*
X86542514Y-102682630D01*
X86542514Y-102682630D02*
X86552038Y-102644535D01*
X86552038Y-102644535D02*
X86571085Y-102625487D01*
X86571085Y-102625487D02*
X86590133Y-102615963D01*
X86761562Y-102615963D02*
X86761562Y-102777868D01*
X86761562Y-102777868D02*
X86771085Y-102796916D01*
X86771085Y-102796916D02*
X86780609Y-102806440D01*
X86780609Y-102806440D02*
X86799657Y-102815963D01*
X86799657Y-102815963D02*
X86837752Y-102815963D01*
X86837752Y-102815963D02*
X86856800Y-102806440D01*
X86856800Y-102806440D02*
X86866323Y-102796916D01*
X86866323Y-102796916D02*
X86875847Y-102777868D01*
X86875847Y-102777868D02*
X86875847Y-102615963D01*
X86942514Y-102615963D02*
X87056800Y-102615963D01*
X86999657Y-102815963D02*
X86999657Y-102615963D01*
X87256800Y-102615963D02*
X87390133Y-102615963D01*
X87390133Y-102615963D02*
X87256800Y-102815963D01*
X87256800Y-102815963D02*
X87390133Y-102815963D01*
X87504419Y-102615963D02*
X87542514Y-102615963D01*
X87542514Y-102615963D02*
X87561562Y-102625487D01*
X87561562Y-102625487D02*
X87580609Y-102644535D01*
X87580609Y-102644535D02*
X87590133Y-102682630D01*
X87590133Y-102682630D02*
X87590133Y-102749297D01*
X87590133Y-102749297D02*
X87580609Y-102787392D01*
X87580609Y-102787392D02*
X87561562Y-102806440D01*
X87561562Y-102806440D02*
X87542514Y-102815963D01*
X87542514Y-102815963D02*
X87504419Y-102815963D01*
X87504419Y-102815963D02*
X87485371Y-102806440D01*
X87485371Y-102806440D02*
X87466324Y-102787392D01*
X87466324Y-102787392D02*
X87456800Y-102749297D01*
X87456800Y-102749297D02*
X87456800Y-102682630D01*
X87456800Y-102682630D02*
X87466324Y-102644535D01*
X87466324Y-102644535D02*
X87485371Y-102625487D01*
X87485371Y-102625487D02*
X87504419Y-102615963D01*
X87675848Y-102815963D02*
X87675848Y-102615963D01*
X87675848Y-102615963D02*
X87790133Y-102815963D01*
X87790133Y-102815963D02*
X87790133Y-102615963D01*
X87885372Y-102711201D02*
X87952038Y-102711201D01*
X87980610Y-102815963D02*
X87885372Y-102815963D01*
X87885372Y-102815963D02*
X87885372Y-102615963D01*
X87885372Y-102615963D02*
X87980610Y-102615963D01*
X80675847Y-103215963D02*
X80675847Y-103015963D01*
X80675847Y-103015963D02*
X80790132Y-103215963D01*
X80790132Y-103215963D02*
X80790132Y-103015963D01*
X80913942Y-103215963D02*
X80894894Y-103206440D01*
X80894894Y-103206440D02*
X80885371Y-103196916D01*
X80885371Y-103196916D02*
X80875847Y-103177868D01*
X80875847Y-103177868D02*
X80875847Y-103120725D01*
X80875847Y-103120725D02*
X80885371Y-103101678D01*
X80885371Y-103101678D02*
X80894894Y-103092154D01*
X80894894Y-103092154D02*
X80913942Y-103082630D01*
X80913942Y-103082630D02*
X80942513Y-103082630D01*
X80942513Y-103082630D02*
X80961561Y-103092154D01*
X80961561Y-103092154D02*
X80971085Y-103101678D01*
X80971085Y-103101678D02*
X80980609Y-103120725D01*
X80980609Y-103120725D02*
X80980609Y-103177868D01*
X80980609Y-103177868D02*
X80971085Y-103196916D01*
X80971085Y-103196916D02*
X80961561Y-103206440D01*
X80961561Y-103206440D02*
X80942513Y-103215963D01*
X80942513Y-103215963D02*
X80913942Y-103215963D01*
X81285370Y-103111201D02*
X81218704Y-103111201D01*
X81218704Y-103215963D02*
X81218704Y-103015963D01*
X81218704Y-103015963D02*
X81313942Y-103015963D01*
X81390133Y-103196916D02*
X81399656Y-103206440D01*
X81399656Y-103206440D02*
X81390133Y-103215963D01*
X81390133Y-103215963D02*
X81380609Y-103206440D01*
X81380609Y-103206440D02*
X81390133Y-103196916D01*
X81390133Y-103196916D02*
X81390133Y-103215963D01*
X81599656Y-103196916D02*
X81590132Y-103206440D01*
X81590132Y-103206440D02*
X81561561Y-103215963D01*
X81561561Y-103215963D02*
X81542513Y-103215963D01*
X81542513Y-103215963D02*
X81513942Y-103206440D01*
X81513942Y-103206440D02*
X81494894Y-103187392D01*
X81494894Y-103187392D02*
X81485371Y-103168344D01*
X81485371Y-103168344D02*
X81475847Y-103130249D01*
X81475847Y-103130249D02*
X81475847Y-103101678D01*
X81475847Y-103101678D02*
X81485371Y-103063582D01*
X81485371Y-103063582D02*
X81494894Y-103044535D01*
X81494894Y-103044535D02*
X81513942Y-103025487D01*
X81513942Y-103025487D02*
X81542513Y-103015963D01*
X81542513Y-103015963D02*
X81561561Y-103015963D01*
X81561561Y-103015963D02*
X81590132Y-103025487D01*
X81590132Y-103025487D02*
X81599656Y-103035011D01*
X81771085Y-103082630D02*
X81771085Y-103215963D01*
X81685371Y-103082630D02*
X81685371Y-103187392D01*
X81685371Y-103187392D02*
X81694894Y-103206440D01*
X81694894Y-103206440D02*
X81713942Y-103215963D01*
X81713942Y-103215963D02*
X81742513Y-103215963D01*
X81742513Y-103215963D02*
X81761561Y-103206440D01*
X81761561Y-103206440D02*
X81771085Y-103196916D01*
X81990132Y-103082630D02*
X82066323Y-103082630D01*
X82018704Y-103015963D02*
X82018704Y-103187392D01*
X82018704Y-103187392D02*
X82028227Y-103206440D01*
X82028227Y-103206440D02*
X82047275Y-103215963D01*
X82047275Y-103215963D02*
X82066323Y-103215963D01*
X82132990Y-103215963D02*
X82132990Y-103082630D01*
X82132990Y-103120725D02*
X82142513Y-103101678D01*
X82142513Y-103101678D02*
X82152037Y-103092154D01*
X82152037Y-103092154D02*
X82171085Y-103082630D01*
X82171085Y-103082630D02*
X82190132Y-103082630D01*
X82342514Y-103215963D02*
X82342514Y-103111201D01*
X82342514Y-103111201D02*
X82332990Y-103092154D01*
X82332990Y-103092154D02*
X82313942Y-103082630D01*
X82313942Y-103082630D02*
X82275847Y-103082630D01*
X82275847Y-103082630D02*
X82256800Y-103092154D01*
X82342514Y-103206440D02*
X82323466Y-103215963D01*
X82323466Y-103215963D02*
X82275847Y-103215963D01*
X82275847Y-103215963D02*
X82256800Y-103206440D01*
X82256800Y-103206440D02*
X82247276Y-103187392D01*
X82247276Y-103187392D02*
X82247276Y-103168344D01*
X82247276Y-103168344D02*
X82256800Y-103149297D01*
X82256800Y-103149297D02*
X82275847Y-103139773D01*
X82275847Y-103139773D02*
X82323466Y-103139773D01*
X82323466Y-103139773D02*
X82342514Y-103130249D01*
X82523466Y-103206440D02*
X82504418Y-103215963D01*
X82504418Y-103215963D02*
X82466323Y-103215963D01*
X82466323Y-103215963D02*
X82447275Y-103206440D01*
X82447275Y-103206440D02*
X82437752Y-103196916D01*
X82437752Y-103196916D02*
X82428228Y-103177868D01*
X82428228Y-103177868D02*
X82428228Y-103120725D01*
X82428228Y-103120725D02*
X82437752Y-103101678D01*
X82437752Y-103101678D02*
X82447275Y-103092154D01*
X82447275Y-103092154D02*
X82466323Y-103082630D01*
X82466323Y-103082630D02*
X82504418Y-103082630D01*
X82504418Y-103082630D02*
X82523466Y-103092154D01*
X82609181Y-103215963D02*
X82609181Y-103015963D01*
X82628228Y-103139773D02*
X82685371Y-103215963D01*
X82685371Y-103082630D02*
X82609181Y-103158820D01*
X82761562Y-103206440D02*
X82780609Y-103215963D01*
X82780609Y-103215963D02*
X82818705Y-103215963D01*
X82818705Y-103215963D02*
X82837752Y-103206440D01*
X82837752Y-103206440D02*
X82847276Y-103187392D01*
X82847276Y-103187392D02*
X82847276Y-103177868D01*
X82847276Y-103177868D02*
X82837752Y-103158820D01*
X82837752Y-103158820D02*
X82818705Y-103149297D01*
X82818705Y-103149297D02*
X82790133Y-103149297D01*
X82790133Y-103149297D02*
X82771086Y-103139773D01*
X82771086Y-103139773D02*
X82761562Y-103120725D01*
X82761562Y-103120725D02*
X82761562Y-103111201D01*
X82761562Y-103111201D02*
X82771086Y-103092154D01*
X82771086Y-103092154D02*
X82790133Y-103082630D01*
X82790133Y-103082630D02*
X82818705Y-103082630D01*
X82818705Y-103082630D02*
X82837752Y-103092154D01*
X85675847Y-103215963D02*
X85675847Y-103015963D01*
X85675847Y-103015963D02*
X85790132Y-103215963D01*
X85790132Y-103215963D02*
X85790132Y-103015963D01*
X85913942Y-103215963D02*
X85894894Y-103206440D01*
X85894894Y-103206440D02*
X85885371Y-103196916D01*
X85885371Y-103196916D02*
X85875847Y-103177868D01*
X85875847Y-103177868D02*
X85875847Y-103120725D01*
X85875847Y-103120725D02*
X85885371Y-103101678D01*
X85885371Y-103101678D02*
X85894894Y-103092154D01*
X85894894Y-103092154D02*
X85913942Y-103082630D01*
X85913942Y-103082630D02*
X85942513Y-103082630D01*
X85942513Y-103082630D02*
X85961561Y-103092154D01*
X85961561Y-103092154D02*
X85971085Y-103101678D01*
X85971085Y-103101678D02*
X85980609Y-103120725D01*
X85980609Y-103120725D02*
X85980609Y-103177868D01*
X85980609Y-103177868D02*
X85971085Y-103196916D01*
X85971085Y-103196916D02*
X85961561Y-103206440D01*
X85961561Y-103206440D02*
X85942513Y-103215963D01*
X85942513Y-103215963D02*
X85913942Y-103215963D01*
X86285370Y-103111201D02*
X86218704Y-103111201D01*
X86218704Y-103215963D02*
X86218704Y-103015963D01*
X86218704Y-103015963D02*
X86313942Y-103015963D01*
X86390133Y-103196916D02*
X86399656Y-103206440D01*
X86399656Y-103206440D02*
X86390133Y-103215963D01*
X86390133Y-103215963D02*
X86380609Y-103206440D01*
X86380609Y-103206440D02*
X86390133Y-103196916D01*
X86390133Y-103196916D02*
X86390133Y-103215963D01*
X86599656Y-103196916D02*
X86590132Y-103206440D01*
X86590132Y-103206440D02*
X86561561Y-103215963D01*
X86561561Y-103215963D02*
X86542513Y-103215963D01*
X86542513Y-103215963D02*
X86513942Y-103206440D01*
X86513942Y-103206440D02*
X86494894Y-103187392D01*
X86494894Y-103187392D02*
X86485371Y-103168344D01*
X86485371Y-103168344D02*
X86475847Y-103130249D01*
X86475847Y-103130249D02*
X86475847Y-103101678D01*
X86475847Y-103101678D02*
X86485371Y-103063582D01*
X86485371Y-103063582D02*
X86494894Y-103044535D01*
X86494894Y-103044535D02*
X86513942Y-103025487D01*
X86513942Y-103025487D02*
X86542513Y-103015963D01*
X86542513Y-103015963D02*
X86561561Y-103015963D01*
X86561561Y-103015963D02*
X86590132Y-103025487D01*
X86590132Y-103025487D02*
X86599656Y-103035011D01*
X86771085Y-103082630D02*
X86771085Y-103215963D01*
X86685371Y-103082630D02*
X86685371Y-103187392D01*
X86685371Y-103187392D02*
X86694894Y-103206440D01*
X86694894Y-103206440D02*
X86713942Y-103215963D01*
X86713942Y-103215963D02*
X86742513Y-103215963D01*
X86742513Y-103215963D02*
X86761561Y-103206440D01*
X86761561Y-103206440D02*
X86771085Y-103196916D01*
X86990132Y-103082630D02*
X87066323Y-103082630D01*
X87018704Y-103015963D02*
X87018704Y-103187392D01*
X87018704Y-103187392D02*
X87028227Y-103206440D01*
X87028227Y-103206440D02*
X87047275Y-103215963D01*
X87047275Y-103215963D02*
X87066323Y-103215963D01*
X87132990Y-103215963D02*
X87132990Y-103082630D01*
X87132990Y-103120725D02*
X87142513Y-103101678D01*
X87142513Y-103101678D02*
X87152037Y-103092154D01*
X87152037Y-103092154D02*
X87171085Y-103082630D01*
X87171085Y-103082630D02*
X87190132Y-103082630D01*
X87342514Y-103215963D02*
X87342514Y-103111201D01*
X87342514Y-103111201D02*
X87332990Y-103092154D01*
X87332990Y-103092154D02*
X87313942Y-103082630D01*
X87313942Y-103082630D02*
X87275847Y-103082630D01*
X87275847Y-103082630D02*
X87256800Y-103092154D01*
X87342514Y-103206440D02*
X87323466Y-103215963D01*
X87323466Y-103215963D02*
X87275847Y-103215963D01*
X87275847Y-103215963D02*
X87256800Y-103206440D01*
X87256800Y-103206440D02*
X87247276Y-103187392D01*
X87247276Y-103187392D02*
X87247276Y-103168344D01*
X87247276Y-103168344D02*
X87256800Y-103149297D01*
X87256800Y-103149297D02*
X87275847Y-103139773D01*
X87275847Y-103139773D02*
X87323466Y-103139773D01*
X87323466Y-103139773D02*
X87342514Y-103130249D01*
X87523466Y-103206440D02*
X87504418Y-103215963D01*
X87504418Y-103215963D02*
X87466323Y-103215963D01*
X87466323Y-103215963D02*
X87447275Y-103206440D01*
X87447275Y-103206440D02*
X87437752Y-103196916D01*
X87437752Y-103196916D02*
X87428228Y-103177868D01*
X87428228Y-103177868D02*
X87428228Y-103120725D01*
X87428228Y-103120725D02*
X87437752Y-103101678D01*
X87437752Y-103101678D02*
X87447275Y-103092154D01*
X87447275Y-103092154D02*
X87466323Y-103082630D01*
X87466323Y-103082630D02*
X87504418Y-103082630D01*
X87504418Y-103082630D02*
X87523466Y-103092154D01*
X87609181Y-103215963D02*
X87609181Y-103015963D01*
X87628228Y-103139773D02*
X87685371Y-103215963D01*
X87685371Y-103082630D02*
X87609181Y-103158820D01*
X87761562Y-103206440D02*
X87780609Y-103215963D01*
X87780609Y-103215963D02*
X87818705Y-103215963D01*
X87818705Y-103215963D02*
X87837752Y-103206440D01*
X87837752Y-103206440D02*
X87847276Y-103187392D01*
X87847276Y-103187392D02*
X87847276Y-103177868D01*
X87847276Y-103177868D02*
X87837752Y-103158820D01*
X87837752Y-103158820D02*
X87818705Y-103149297D01*
X87818705Y-103149297D02*
X87790133Y-103149297D01*
X87790133Y-103149297D02*
X87771086Y-103139773D01*
X87771086Y-103139773D02*
X87761562Y-103120725D01*
X87761562Y-103120725D02*
X87761562Y-103111201D01*
X87761562Y-103111201D02*
X87771086Y-103092154D01*
X87771086Y-103092154D02*
X87790133Y-103082630D01*
X87790133Y-103082630D02*
X87818705Y-103082630D01*
X87818705Y-103082630D02*
X87837752Y-103092154D01*
X80542515Y-102815963D02*
X80542515Y-102615963D01*
X80656800Y-102815963D02*
X80571086Y-102701678D01*
X80656800Y-102615963D02*
X80542515Y-102730249D01*
X80742515Y-102711201D02*
X80809181Y-102711201D01*
X80837753Y-102815963D02*
X80742515Y-102815963D01*
X80742515Y-102815963D02*
X80742515Y-102615963D01*
X80742515Y-102615963D02*
X80837753Y-102615963D01*
X80923467Y-102711201D02*
X80990133Y-102711201D01*
X81018705Y-102815963D02*
X80923467Y-102815963D01*
X80923467Y-102815963D02*
X80923467Y-102615963D01*
X80923467Y-102615963D02*
X81018705Y-102615963D01*
X81104419Y-102815963D02*
X81104419Y-102615963D01*
X81104419Y-102615963D02*
X81180609Y-102615963D01*
X81180609Y-102615963D02*
X81199657Y-102625487D01*
X81199657Y-102625487D02*
X81209180Y-102635011D01*
X81209180Y-102635011D02*
X81218704Y-102654059D01*
X81218704Y-102654059D02*
X81218704Y-102682630D01*
X81218704Y-102682630D02*
X81209180Y-102701678D01*
X81209180Y-102701678D02*
X81199657Y-102711201D01*
X81199657Y-102711201D02*
X81180609Y-102720725D01*
X81180609Y-102720725D02*
X81104419Y-102720725D01*
X81304419Y-102739773D02*
X81456800Y-102739773D01*
X81590133Y-102615963D02*
X81628228Y-102615963D01*
X81628228Y-102615963D02*
X81647276Y-102625487D01*
X81647276Y-102625487D02*
X81666323Y-102644535D01*
X81666323Y-102644535D02*
X81675847Y-102682630D01*
X81675847Y-102682630D02*
X81675847Y-102749297D01*
X81675847Y-102749297D02*
X81666323Y-102787392D01*
X81666323Y-102787392D02*
X81647276Y-102806440D01*
X81647276Y-102806440D02*
X81628228Y-102815963D01*
X81628228Y-102815963D02*
X81590133Y-102815963D01*
X81590133Y-102815963D02*
X81571085Y-102806440D01*
X81571085Y-102806440D02*
X81552038Y-102787392D01*
X81552038Y-102787392D02*
X81542514Y-102749297D01*
X81542514Y-102749297D02*
X81542514Y-102682630D01*
X81542514Y-102682630D02*
X81552038Y-102644535D01*
X81552038Y-102644535D02*
X81571085Y-102625487D01*
X81571085Y-102625487D02*
X81590133Y-102615963D01*
X81761562Y-102615963D02*
X81761562Y-102777868D01*
X81761562Y-102777868D02*
X81771085Y-102796916D01*
X81771085Y-102796916D02*
X81780609Y-102806440D01*
X81780609Y-102806440D02*
X81799657Y-102815963D01*
X81799657Y-102815963D02*
X81837752Y-102815963D01*
X81837752Y-102815963D02*
X81856800Y-102806440D01*
X81856800Y-102806440D02*
X81866323Y-102796916D01*
X81866323Y-102796916D02*
X81875847Y-102777868D01*
X81875847Y-102777868D02*
X81875847Y-102615963D01*
X81942514Y-102615963D02*
X82056800Y-102615963D01*
X81999657Y-102815963D02*
X81999657Y-102615963D01*
X82256800Y-102615963D02*
X82390133Y-102615963D01*
X82390133Y-102615963D02*
X82256800Y-102815963D01*
X82256800Y-102815963D02*
X82390133Y-102815963D01*
X82504419Y-102615963D02*
X82542514Y-102615963D01*
X82542514Y-102615963D02*
X82561562Y-102625487D01*
X82561562Y-102625487D02*
X82580609Y-102644535D01*
X82580609Y-102644535D02*
X82590133Y-102682630D01*
X82590133Y-102682630D02*
X82590133Y-102749297D01*
X82590133Y-102749297D02*
X82580609Y-102787392D01*
X82580609Y-102787392D02*
X82561562Y-102806440D01*
X82561562Y-102806440D02*
X82542514Y-102815963D01*
X82542514Y-102815963D02*
X82504419Y-102815963D01*
X82504419Y-102815963D02*
X82485371Y-102806440D01*
X82485371Y-102806440D02*
X82466324Y-102787392D01*
X82466324Y-102787392D02*
X82456800Y-102749297D01*
X82456800Y-102749297D02*
X82456800Y-102682630D01*
X82456800Y-102682630D02*
X82466324Y-102644535D01*
X82466324Y-102644535D02*
X82485371Y-102625487D01*
X82485371Y-102625487D02*
X82504419Y-102615963D01*
X82675848Y-102815963D02*
X82675848Y-102615963D01*
X82675848Y-102615963D02*
X82790133Y-102815963D01*
X82790133Y-102815963D02*
X82790133Y-102615963D01*
X82885372Y-102711201D02*
X82952038Y-102711201D01*
X82980610Y-102815963D02*
X82885372Y-102815963D01*
X82885372Y-102815963D02*
X82885372Y-102615963D01*
X82885372Y-102615963D02*
X82980610Y-102615963D01*
X80542515Y-66091763D02*
X80542515Y-65891763D01*
X80656800Y-66091763D02*
X80571086Y-65977478D01*
X80656800Y-65891763D02*
X80542515Y-66006049D01*
X80742515Y-65987001D02*
X80809181Y-65987001D01*
X80837753Y-66091763D02*
X80742515Y-66091763D01*
X80742515Y-66091763D02*
X80742515Y-65891763D01*
X80742515Y-65891763D02*
X80837753Y-65891763D01*
X80923467Y-65987001D02*
X80990133Y-65987001D01*
X81018705Y-66091763D02*
X80923467Y-66091763D01*
X80923467Y-66091763D02*
X80923467Y-65891763D01*
X80923467Y-65891763D02*
X81018705Y-65891763D01*
X81104419Y-66091763D02*
X81104419Y-65891763D01*
X81104419Y-65891763D02*
X81180609Y-65891763D01*
X81180609Y-65891763D02*
X81199657Y-65901287D01*
X81199657Y-65901287D02*
X81209180Y-65910811D01*
X81209180Y-65910811D02*
X81218704Y-65929859D01*
X81218704Y-65929859D02*
X81218704Y-65958430D01*
X81218704Y-65958430D02*
X81209180Y-65977478D01*
X81209180Y-65977478D02*
X81199657Y-65987001D01*
X81199657Y-65987001D02*
X81180609Y-65996525D01*
X81180609Y-65996525D02*
X81104419Y-65996525D01*
X81304419Y-66015573D02*
X81456800Y-66015573D01*
X81590133Y-65891763D02*
X81628228Y-65891763D01*
X81628228Y-65891763D02*
X81647276Y-65901287D01*
X81647276Y-65901287D02*
X81666323Y-65920335D01*
X81666323Y-65920335D02*
X81675847Y-65958430D01*
X81675847Y-65958430D02*
X81675847Y-66025097D01*
X81675847Y-66025097D02*
X81666323Y-66063192D01*
X81666323Y-66063192D02*
X81647276Y-66082240D01*
X81647276Y-66082240D02*
X81628228Y-66091763D01*
X81628228Y-66091763D02*
X81590133Y-66091763D01*
X81590133Y-66091763D02*
X81571085Y-66082240D01*
X81571085Y-66082240D02*
X81552038Y-66063192D01*
X81552038Y-66063192D02*
X81542514Y-66025097D01*
X81542514Y-66025097D02*
X81542514Y-65958430D01*
X81542514Y-65958430D02*
X81552038Y-65920335D01*
X81552038Y-65920335D02*
X81571085Y-65901287D01*
X81571085Y-65901287D02*
X81590133Y-65891763D01*
X81761562Y-65891763D02*
X81761562Y-66053668D01*
X81761562Y-66053668D02*
X81771085Y-66072716D01*
X81771085Y-66072716D02*
X81780609Y-66082240D01*
X81780609Y-66082240D02*
X81799657Y-66091763D01*
X81799657Y-66091763D02*
X81837752Y-66091763D01*
X81837752Y-66091763D02*
X81856800Y-66082240D01*
X81856800Y-66082240D02*
X81866323Y-66072716D01*
X81866323Y-66072716D02*
X81875847Y-66053668D01*
X81875847Y-66053668D02*
X81875847Y-65891763D01*
X81942514Y-65891763D02*
X82056800Y-65891763D01*
X81999657Y-66091763D02*
X81999657Y-65891763D01*
X82256800Y-65891763D02*
X82390133Y-65891763D01*
X82390133Y-65891763D02*
X82256800Y-66091763D01*
X82256800Y-66091763D02*
X82390133Y-66091763D01*
X82504419Y-65891763D02*
X82542514Y-65891763D01*
X82542514Y-65891763D02*
X82561562Y-65901287D01*
X82561562Y-65901287D02*
X82580609Y-65920335D01*
X82580609Y-65920335D02*
X82590133Y-65958430D01*
X82590133Y-65958430D02*
X82590133Y-66025097D01*
X82590133Y-66025097D02*
X82580609Y-66063192D01*
X82580609Y-66063192D02*
X82561562Y-66082240D01*
X82561562Y-66082240D02*
X82542514Y-66091763D01*
X82542514Y-66091763D02*
X82504419Y-66091763D01*
X82504419Y-66091763D02*
X82485371Y-66082240D01*
X82485371Y-66082240D02*
X82466324Y-66063192D01*
X82466324Y-66063192D02*
X82456800Y-66025097D01*
X82456800Y-66025097D02*
X82456800Y-65958430D01*
X82456800Y-65958430D02*
X82466324Y-65920335D01*
X82466324Y-65920335D02*
X82485371Y-65901287D01*
X82485371Y-65901287D02*
X82504419Y-65891763D01*
X82675848Y-66091763D02*
X82675848Y-65891763D01*
X82675848Y-65891763D02*
X82790133Y-66091763D01*
X82790133Y-66091763D02*
X82790133Y-65891763D01*
X82885372Y-65987001D02*
X82952038Y-65987001D01*
X82980610Y-66091763D02*
X82885372Y-66091763D01*
X82885372Y-66091763D02*
X82885372Y-65891763D01*
X82885372Y-65891763D02*
X82980610Y-65891763D01*
X85675847Y-66491763D02*
X85675847Y-66291763D01*
X85675847Y-66291763D02*
X85790132Y-66491763D01*
X85790132Y-66491763D02*
X85790132Y-66291763D01*
X85913942Y-66491763D02*
X85894894Y-66482240D01*
X85894894Y-66482240D02*
X85885371Y-66472716D01*
X85885371Y-66472716D02*
X85875847Y-66453668D01*
X85875847Y-66453668D02*
X85875847Y-66396525D01*
X85875847Y-66396525D02*
X85885371Y-66377478D01*
X85885371Y-66377478D02*
X85894894Y-66367954D01*
X85894894Y-66367954D02*
X85913942Y-66358430D01*
X85913942Y-66358430D02*
X85942513Y-66358430D01*
X85942513Y-66358430D02*
X85961561Y-66367954D01*
X85961561Y-66367954D02*
X85971085Y-66377478D01*
X85971085Y-66377478D02*
X85980609Y-66396525D01*
X85980609Y-66396525D02*
X85980609Y-66453668D01*
X85980609Y-66453668D02*
X85971085Y-66472716D01*
X85971085Y-66472716D02*
X85961561Y-66482240D01*
X85961561Y-66482240D02*
X85942513Y-66491763D01*
X85942513Y-66491763D02*
X85913942Y-66491763D01*
X86285370Y-66387001D02*
X86218704Y-66387001D01*
X86218704Y-66491763D02*
X86218704Y-66291763D01*
X86218704Y-66291763D02*
X86313942Y-66291763D01*
X86390133Y-66472716D02*
X86399656Y-66482240D01*
X86399656Y-66482240D02*
X86390133Y-66491763D01*
X86390133Y-66491763D02*
X86380609Y-66482240D01*
X86380609Y-66482240D02*
X86390133Y-66472716D01*
X86390133Y-66472716D02*
X86390133Y-66491763D01*
X86599656Y-66472716D02*
X86590132Y-66482240D01*
X86590132Y-66482240D02*
X86561561Y-66491763D01*
X86561561Y-66491763D02*
X86542513Y-66491763D01*
X86542513Y-66491763D02*
X86513942Y-66482240D01*
X86513942Y-66482240D02*
X86494894Y-66463192D01*
X86494894Y-66463192D02*
X86485371Y-66444144D01*
X86485371Y-66444144D02*
X86475847Y-66406049D01*
X86475847Y-66406049D02*
X86475847Y-66377478D01*
X86475847Y-66377478D02*
X86485371Y-66339382D01*
X86485371Y-66339382D02*
X86494894Y-66320335D01*
X86494894Y-66320335D02*
X86513942Y-66301287D01*
X86513942Y-66301287D02*
X86542513Y-66291763D01*
X86542513Y-66291763D02*
X86561561Y-66291763D01*
X86561561Y-66291763D02*
X86590132Y-66301287D01*
X86590132Y-66301287D02*
X86599656Y-66310811D01*
X86771085Y-66358430D02*
X86771085Y-66491763D01*
X86685371Y-66358430D02*
X86685371Y-66463192D01*
X86685371Y-66463192D02*
X86694894Y-66482240D01*
X86694894Y-66482240D02*
X86713942Y-66491763D01*
X86713942Y-66491763D02*
X86742513Y-66491763D01*
X86742513Y-66491763D02*
X86761561Y-66482240D01*
X86761561Y-66482240D02*
X86771085Y-66472716D01*
X86990132Y-66358430D02*
X87066323Y-66358430D01*
X87018704Y-66291763D02*
X87018704Y-66463192D01*
X87018704Y-66463192D02*
X87028227Y-66482240D01*
X87028227Y-66482240D02*
X87047275Y-66491763D01*
X87047275Y-66491763D02*
X87066323Y-66491763D01*
X87132990Y-66491763D02*
X87132990Y-66358430D01*
X87132990Y-66396525D02*
X87142513Y-66377478D01*
X87142513Y-66377478D02*
X87152037Y-66367954D01*
X87152037Y-66367954D02*
X87171085Y-66358430D01*
X87171085Y-66358430D02*
X87190132Y-66358430D01*
X87342514Y-66491763D02*
X87342514Y-66387001D01*
X87342514Y-66387001D02*
X87332990Y-66367954D01*
X87332990Y-66367954D02*
X87313942Y-66358430D01*
X87313942Y-66358430D02*
X87275847Y-66358430D01*
X87275847Y-66358430D02*
X87256800Y-66367954D01*
X87342514Y-66482240D02*
X87323466Y-66491763D01*
X87323466Y-66491763D02*
X87275847Y-66491763D01*
X87275847Y-66491763D02*
X87256800Y-66482240D01*
X87256800Y-66482240D02*
X87247276Y-66463192D01*
X87247276Y-66463192D02*
X87247276Y-66444144D01*
X87247276Y-66444144D02*
X87256800Y-66425097D01*
X87256800Y-66425097D02*
X87275847Y-66415573D01*
X87275847Y-66415573D02*
X87323466Y-66415573D01*
X87323466Y-66415573D02*
X87342514Y-66406049D01*
X87523466Y-66482240D02*
X87504418Y-66491763D01*
X87504418Y-66491763D02*
X87466323Y-66491763D01*
X87466323Y-66491763D02*
X87447275Y-66482240D01*
X87447275Y-66482240D02*
X87437752Y-66472716D01*
X87437752Y-66472716D02*
X87428228Y-66453668D01*
X87428228Y-66453668D02*
X87428228Y-66396525D01*
X87428228Y-66396525D02*
X87437752Y-66377478D01*
X87437752Y-66377478D02*
X87447275Y-66367954D01*
X87447275Y-66367954D02*
X87466323Y-66358430D01*
X87466323Y-66358430D02*
X87504418Y-66358430D01*
X87504418Y-66358430D02*
X87523466Y-66367954D01*
X87609181Y-66491763D02*
X87609181Y-66291763D01*
X87628228Y-66415573D02*
X87685371Y-66491763D01*
X87685371Y-66358430D02*
X87609181Y-66434620D01*
X87761562Y-66482240D02*
X87780609Y-66491763D01*
X87780609Y-66491763D02*
X87818705Y-66491763D01*
X87818705Y-66491763D02*
X87837752Y-66482240D01*
X87837752Y-66482240D02*
X87847276Y-66463192D01*
X87847276Y-66463192D02*
X87847276Y-66453668D01*
X87847276Y-66453668D02*
X87837752Y-66434620D01*
X87837752Y-66434620D02*
X87818705Y-66425097D01*
X87818705Y-66425097D02*
X87790133Y-66425097D01*
X87790133Y-66425097D02*
X87771086Y-66415573D01*
X87771086Y-66415573D02*
X87761562Y-66396525D01*
X87761562Y-66396525D02*
X87761562Y-66387001D01*
X87761562Y-66387001D02*
X87771086Y-66367954D01*
X87771086Y-66367954D02*
X87790133Y-66358430D01*
X87790133Y-66358430D02*
X87818705Y-66358430D01*
X87818705Y-66358430D02*
X87837752Y-66367954D01*
X80675847Y-66491763D02*
X80675847Y-66291763D01*
X80675847Y-66291763D02*
X80790132Y-66491763D01*
X80790132Y-66491763D02*
X80790132Y-66291763D01*
X80913942Y-66491763D02*
X80894894Y-66482240D01*
X80894894Y-66482240D02*
X80885371Y-66472716D01*
X80885371Y-66472716D02*
X80875847Y-66453668D01*
X80875847Y-66453668D02*
X80875847Y-66396525D01*
X80875847Y-66396525D02*
X80885371Y-66377478D01*
X80885371Y-66377478D02*
X80894894Y-66367954D01*
X80894894Y-66367954D02*
X80913942Y-66358430D01*
X80913942Y-66358430D02*
X80942513Y-66358430D01*
X80942513Y-66358430D02*
X80961561Y-66367954D01*
X80961561Y-66367954D02*
X80971085Y-66377478D01*
X80971085Y-66377478D02*
X80980609Y-66396525D01*
X80980609Y-66396525D02*
X80980609Y-66453668D01*
X80980609Y-66453668D02*
X80971085Y-66472716D01*
X80971085Y-66472716D02*
X80961561Y-66482240D01*
X80961561Y-66482240D02*
X80942513Y-66491763D01*
X80942513Y-66491763D02*
X80913942Y-66491763D01*
X81285370Y-66387001D02*
X81218704Y-66387001D01*
X81218704Y-66491763D02*
X81218704Y-66291763D01*
X81218704Y-66291763D02*
X81313942Y-66291763D01*
X81390133Y-66472716D02*
X81399656Y-66482240D01*
X81399656Y-66482240D02*
X81390133Y-66491763D01*
X81390133Y-66491763D02*
X81380609Y-66482240D01*
X81380609Y-66482240D02*
X81390133Y-66472716D01*
X81390133Y-66472716D02*
X81390133Y-66491763D01*
X81599656Y-66472716D02*
X81590132Y-66482240D01*
X81590132Y-66482240D02*
X81561561Y-66491763D01*
X81561561Y-66491763D02*
X81542513Y-66491763D01*
X81542513Y-66491763D02*
X81513942Y-66482240D01*
X81513942Y-66482240D02*
X81494894Y-66463192D01*
X81494894Y-66463192D02*
X81485371Y-66444144D01*
X81485371Y-66444144D02*
X81475847Y-66406049D01*
X81475847Y-66406049D02*
X81475847Y-66377478D01*
X81475847Y-66377478D02*
X81485371Y-66339382D01*
X81485371Y-66339382D02*
X81494894Y-66320335D01*
X81494894Y-66320335D02*
X81513942Y-66301287D01*
X81513942Y-66301287D02*
X81542513Y-66291763D01*
X81542513Y-66291763D02*
X81561561Y-66291763D01*
X81561561Y-66291763D02*
X81590132Y-66301287D01*
X81590132Y-66301287D02*
X81599656Y-66310811D01*
X81771085Y-66358430D02*
X81771085Y-66491763D01*
X81685371Y-66358430D02*
X81685371Y-66463192D01*
X81685371Y-66463192D02*
X81694894Y-66482240D01*
X81694894Y-66482240D02*
X81713942Y-66491763D01*
X81713942Y-66491763D02*
X81742513Y-66491763D01*
X81742513Y-66491763D02*
X81761561Y-66482240D01*
X81761561Y-66482240D02*
X81771085Y-66472716D01*
X81990132Y-66358430D02*
X82066323Y-66358430D01*
X82018704Y-66291763D02*
X82018704Y-66463192D01*
X82018704Y-66463192D02*
X82028227Y-66482240D01*
X82028227Y-66482240D02*
X82047275Y-66491763D01*
X82047275Y-66491763D02*
X82066323Y-66491763D01*
X82132990Y-66491763D02*
X82132990Y-66358430D01*
X82132990Y-66396525D02*
X82142513Y-66377478D01*
X82142513Y-66377478D02*
X82152037Y-66367954D01*
X82152037Y-66367954D02*
X82171085Y-66358430D01*
X82171085Y-66358430D02*
X82190132Y-66358430D01*
X82342514Y-66491763D02*
X82342514Y-66387001D01*
X82342514Y-66387001D02*
X82332990Y-66367954D01*
X82332990Y-66367954D02*
X82313942Y-66358430D01*
X82313942Y-66358430D02*
X82275847Y-66358430D01*
X82275847Y-66358430D02*
X82256800Y-66367954D01*
X82342514Y-66482240D02*
X82323466Y-66491763D01*
X82323466Y-66491763D02*
X82275847Y-66491763D01*
X82275847Y-66491763D02*
X82256800Y-66482240D01*
X82256800Y-66482240D02*
X82247276Y-66463192D01*
X82247276Y-66463192D02*
X82247276Y-66444144D01*
X82247276Y-66444144D02*
X82256800Y-66425097D01*
X82256800Y-66425097D02*
X82275847Y-66415573D01*
X82275847Y-66415573D02*
X82323466Y-66415573D01*
X82323466Y-66415573D02*
X82342514Y-66406049D01*
X82523466Y-66482240D02*
X82504418Y-66491763D01*
X82504418Y-66491763D02*
X82466323Y-66491763D01*
X82466323Y-66491763D02*
X82447275Y-66482240D01*
X82447275Y-66482240D02*
X82437752Y-66472716D01*
X82437752Y-66472716D02*
X82428228Y-66453668D01*
X82428228Y-66453668D02*
X82428228Y-66396525D01*
X82428228Y-66396525D02*
X82437752Y-66377478D01*
X82437752Y-66377478D02*
X82447275Y-66367954D01*
X82447275Y-66367954D02*
X82466323Y-66358430D01*
X82466323Y-66358430D02*
X82504418Y-66358430D01*
X82504418Y-66358430D02*
X82523466Y-66367954D01*
X82609181Y-66491763D02*
X82609181Y-66291763D01*
X82628228Y-66415573D02*
X82685371Y-66491763D01*
X82685371Y-66358430D02*
X82609181Y-66434620D01*
X82761562Y-66482240D02*
X82780609Y-66491763D01*
X82780609Y-66491763D02*
X82818705Y-66491763D01*
X82818705Y-66491763D02*
X82837752Y-66482240D01*
X82837752Y-66482240D02*
X82847276Y-66463192D01*
X82847276Y-66463192D02*
X82847276Y-66453668D01*
X82847276Y-66453668D02*
X82837752Y-66434620D01*
X82837752Y-66434620D02*
X82818705Y-66425097D01*
X82818705Y-66425097D02*
X82790133Y-66425097D01*
X82790133Y-66425097D02*
X82771086Y-66415573D01*
X82771086Y-66415573D02*
X82761562Y-66396525D01*
X82761562Y-66396525D02*
X82761562Y-66387001D01*
X82761562Y-66387001D02*
X82771086Y-66367954D01*
X82771086Y-66367954D02*
X82790133Y-66358430D01*
X82790133Y-66358430D02*
X82818705Y-66358430D01*
X82818705Y-66358430D02*
X82837752Y-66367954D01*
X85542515Y-66091763D02*
X85542515Y-65891763D01*
X85656800Y-66091763D02*
X85571086Y-65977478D01*
X85656800Y-65891763D02*
X85542515Y-66006049D01*
X85742515Y-65987001D02*
X85809181Y-65987001D01*
X85837753Y-66091763D02*
X85742515Y-66091763D01*
X85742515Y-66091763D02*
X85742515Y-65891763D01*
X85742515Y-65891763D02*
X85837753Y-65891763D01*
X85923467Y-65987001D02*
X85990133Y-65987001D01*
X86018705Y-66091763D02*
X85923467Y-66091763D01*
X85923467Y-66091763D02*
X85923467Y-65891763D01*
X85923467Y-65891763D02*
X86018705Y-65891763D01*
X86104419Y-66091763D02*
X86104419Y-65891763D01*
X86104419Y-65891763D02*
X86180609Y-65891763D01*
X86180609Y-65891763D02*
X86199657Y-65901287D01*
X86199657Y-65901287D02*
X86209180Y-65910811D01*
X86209180Y-65910811D02*
X86218704Y-65929859D01*
X86218704Y-65929859D02*
X86218704Y-65958430D01*
X86218704Y-65958430D02*
X86209180Y-65977478D01*
X86209180Y-65977478D02*
X86199657Y-65987001D01*
X86199657Y-65987001D02*
X86180609Y-65996525D01*
X86180609Y-65996525D02*
X86104419Y-65996525D01*
X86304419Y-66015573D02*
X86456800Y-66015573D01*
X86590133Y-65891763D02*
X86628228Y-65891763D01*
X86628228Y-65891763D02*
X86647276Y-65901287D01*
X86647276Y-65901287D02*
X86666323Y-65920335D01*
X86666323Y-65920335D02*
X86675847Y-65958430D01*
X86675847Y-65958430D02*
X86675847Y-66025097D01*
X86675847Y-66025097D02*
X86666323Y-66063192D01*
X86666323Y-66063192D02*
X86647276Y-66082240D01*
X86647276Y-66082240D02*
X86628228Y-66091763D01*
X86628228Y-66091763D02*
X86590133Y-66091763D01*
X86590133Y-66091763D02*
X86571085Y-66082240D01*
X86571085Y-66082240D02*
X86552038Y-66063192D01*
X86552038Y-66063192D02*
X86542514Y-66025097D01*
X86542514Y-66025097D02*
X86542514Y-65958430D01*
X86542514Y-65958430D02*
X86552038Y-65920335D01*
X86552038Y-65920335D02*
X86571085Y-65901287D01*
X86571085Y-65901287D02*
X86590133Y-65891763D01*
X86761562Y-65891763D02*
X86761562Y-66053668D01*
X86761562Y-66053668D02*
X86771085Y-66072716D01*
X86771085Y-66072716D02*
X86780609Y-66082240D01*
X86780609Y-66082240D02*
X86799657Y-66091763D01*
X86799657Y-66091763D02*
X86837752Y-66091763D01*
X86837752Y-66091763D02*
X86856800Y-66082240D01*
X86856800Y-66082240D02*
X86866323Y-66072716D01*
X86866323Y-66072716D02*
X86875847Y-66053668D01*
X86875847Y-66053668D02*
X86875847Y-65891763D01*
X86942514Y-65891763D02*
X87056800Y-65891763D01*
X86999657Y-66091763D02*
X86999657Y-65891763D01*
X87256800Y-65891763D02*
X87390133Y-65891763D01*
X87390133Y-65891763D02*
X87256800Y-66091763D01*
X87256800Y-66091763D02*
X87390133Y-66091763D01*
X87504419Y-65891763D02*
X87542514Y-65891763D01*
X87542514Y-65891763D02*
X87561562Y-65901287D01*
X87561562Y-65901287D02*
X87580609Y-65920335D01*
X87580609Y-65920335D02*
X87590133Y-65958430D01*
X87590133Y-65958430D02*
X87590133Y-66025097D01*
X87590133Y-66025097D02*
X87580609Y-66063192D01*
X87580609Y-66063192D02*
X87561562Y-66082240D01*
X87561562Y-66082240D02*
X87542514Y-66091763D01*
X87542514Y-66091763D02*
X87504419Y-66091763D01*
X87504419Y-66091763D02*
X87485371Y-66082240D01*
X87485371Y-66082240D02*
X87466324Y-66063192D01*
X87466324Y-66063192D02*
X87456800Y-66025097D01*
X87456800Y-66025097D02*
X87456800Y-65958430D01*
X87456800Y-65958430D02*
X87466324Y-65920335D01*
X87466324Y-65920335D02*
X87485371Y-65901287D01*
X87485371Y-65901287D02*
X87504419Y-65891763D01*
X87675848Y-66091763D02*
X87675848Y-65891763D01*
X87675848Y-65891763D02*
X87790133Y-66091763D01*
X87790133Y-66091763D02*
X87790133Y-65891763D01*
X87885372Y-65987001D02*
X87952038Y-65987001D01*
X87980610Y-66091763D02*
X87885372Y-66091763D01*
X87885372Y-66091763D02*
X87885372Y-65891763D01*
X87885372Y-65891763D02*
X87980610Y-65891763D01*
X80675847Y-95824563D02*
X80675847Y-95624563D01*
X80675847Y-95624563D02*
X80790132Y-95824563D01*
X80790132Y-95824563D02*
X80790132Y-95624563D01*
X80913942Y-95824563D02*
X80894894Y-95815040D01*
X80894894Y-95815040D02*
X80885371Y-95805516D01*
X80885371Y-95805516D02*
X80875847Y-95786468D01*
X80875847Y-95786468D02*
X80875847Y-95729325D01*
X80875847Y-95729325D02*
X80885371Y-95710278D01*
X80885371Y-95710278D02*
X80894894Y-95700754D01*
X80894894Y-95700754D02*
X80913942Y-95691230D01*
X80913942Y-95691230D02*
X80942513Y-95691230D01*
X80942513Y-95691230D02*
X80961561Y-95700754D01*
X80961561Y-95700754D02*
X80971085Y-95710278D01*
X80971085Y-95710278D02*
X80980609Y-95729325D01*
X80980609Y-95729325D02*
X80980609Y-95786468D01*
X80980609Y-95786468D02*
X80971085Y-95805516D01*
X80971085Y-95805516D02*
X80961561Y-95815040D01*
X80961561Y-95815040D02*
X80942513Y-95824563D01*
X80942513Y-95824563D02*
X80913942Y-95824563D01*
X81285370Y-95719801D02*
X81218704Y-95719801D01*
X81218704Y-95824563D02*
X81218704Y-95624563D01*
X81218704Y-95624563D02*
X81313942Y-95624563D01*
X81390133Y-95805516D02*
X81399656Y-95815040D01*
X81399656Y-95815040D02*
X81390133Y-95824563D01*
X81390133Y-95824563D02*
X81380609Y-95815040D01*
X81380609Y-95815040D02*
X81390133Y-95805516D01*
X81390133Y-95805516D02*
X81390133Y-95824563D01*
X81599656Y-95805516D02*
X81590132Y-95815040D01*
X81590132Y-95815040D02*
X81561561Y-95824563D01*
X81561561Y-95824563D02*
X81542513Y-95824563D01*
X81542513Y-95824563D02*
X81513942Y-95815040D01*
X81513942Y-95815040D02*
X81494894Y-95795992D01*
X81494894Y-95795992D02*
X81485371Y-95776944D01*
X81485371Y-95776944D02*
X81475847Y-95738849D01*
X81475847Y-95738849D02*
X81475847Y-95710278D01*
X81475847Y-95710278D02*
X81485371Y-95672182D01*
X81485371Y-95672182D02*
X81494894Y-95653135D01*
X81494894Y-95653135D02*
X81513942Y-95634087D01*
X81513942Y-95634087D02*
X81542513Y-95624563D01*
X81542513Y-95624563D02*
X81561561Y-95624563D01*
X81561561Y-95624563D02*
X81590132Y-95634087D01*
X81590132Y-95634087D02*
X81599656Y-95643611D01*
X81771085Y-95691230D02*
X81771085Y-95824563D01*
X81685371Y-95691230D02*
X81685371Y-95795992D01*
X81685371Y-95795992D02*
X81694894Y-95815040D01*
X81694894Y-95815040D02*
X81713942Y-95824563D01*
X81713942Y-95824563D02*
X81742513Y-95824563D01*
X81742513Y-95824563D02*
X81761561Y-95815040D01*
X81761561Y-95815040D02*
X81771085Y-95805516D01*
X81990132Y-95691230D02*
X82066323Y-95691230D01*
X82018704Y-95624563D02*
X82018704Y-95795992D01*
X82018704Y-95795992D02*
X82028227Y-95815040D01*
X82028227Y-95815040D02*
X82047275Y-95824563D01*
X82047275Y-95824563D02*
X82066323Y-95824563D01*
X82132990Y-95824563D02*
X82132990Y-95691230D01*
X82132990Y-95729325D02*
X82142513Y-95710278D01*
X82142513Y-95710278D02*
X82152037Y-95700754D01*
X82152037Y-95700754D02*
X82171085Y-95691230D01*
X82171085Y-95691230D02*
X82190132Y-95691230D01*
X82342514Y-95824563D02*
X82342514Y-95719801D01*
X82342514Y-95719801D02*
X82332990Y-95700754D01*
X82332990Y-95700754D02*
X82313942Y-95691230D01*
X82313942Y-95691230D02*
X82275847Y-95691230D01*
X82275847Y-95691230D02*
X82256800Y-95700754D01*
X82342514Y-95815040D02*
X82323466Y-95824563D01*
X82323466Y-95824563D02*
X82275847Y-95824563D01*
X82275847Y-95824563D02*
X82256800Y-95815040D01*
X82256800Y-95815040D02*
X82247276Y-95795992D01*
X82247276Y-95795992D02*
X82247276Y-95776944D01*
X82247276Y-95776944D02*
X82256800Y-95757897D01*
X82256800Y-95757897D02*
X82275847Y-95748373D01*
X82275847Y-95748373D02*
X82323466Y-95748373D01*
X82323466Y-95748373D02*
X82342514Y-95738849D01*
X82523466Y-95815040D02*
X82504418Y-95824563D01*
X82504418Y-95824563D02*
X82466323Y-95824563D01*
X82466323Y-95824563D02*
X82447275Y-95815040D01*
X82447275Y-95815040D02*
X82437752Y-95805516D01*
X82437752Y-95805516D02*
X82428228Y-95786468D01*
X82428228Y-95786468D02*
X82428228Y-95729325D01*
X82428228Y-95729325D02*
X82437752Y-95710278D01*
X82437752Y-95710278D02*
X82447275Y-95700754D01*
X82447275Y-95700754D02*
X82466323Y-95691230D01*
X82466323Y-95691230D02*
X82504418Y-95691230D01*
X82504418Y-95691230D02*
X82523466Y-95700754D01*
X82609181Y-95824563D02*
X82609181Y-95624563D01*
X82628228Y-95748373D02*
X82685371Y-95824563D01*
X82685371Y-95691230D02*
X82609181Y-95767420D01*
X82761562Y-95815040D02*
X82780609Y-95824563D01*
X82780609Y-95824563D02*
X82818705Y-95824563D01*
X82818705Y-95824563D02*
X82837752Y-95815040D01*
X82837752Y-95815040D02*
X82847276Y-95795992D01*
X82847276Y-95795992D02*
X82847276Y-95786468D01*
X82847276Y-95786468D02*
X82837752Y-95767420D01*
X82837752Y-95767420D02*
X82818705Y-95757897D01*
X82818705Y-95757897D02*
X82790133Y-95757897D01*
X82790133Y-95757897D02*
X82771086Y-95748373D01*
X82771086Y-95748373D02*
X82761562Y-95729325D01*
X82761562Y-95729325D02*
X82761562Y-95719801D01*
X82761562Y-95719801D02*
X82771086Y-95700754D01*
X82771086Y-95700754D02*
X82790133Y-95691230D01*
X82790133Y-95691230D02*
X82818705Y-95691230D01*
X82818705Y-95691230D02*
X82837752Y-95700754D01*
X80542515Y-95424563D02*
X80542515Y-95224563D01*
X80656800Y-95424563D02*
X80571086Y-95310278D01*
X80656800Y-95224563D02*
X80542515Y-95338849D01*
X80742515Y-95319801D02*
X80809181Y-95319801D01*
X80837753Y-95424563D02*
X80742515Y-95424563D01*
X80742515Y-95424563D02*
X80742515Y-95224563D01*
X80742515Y-95224563D02*
X80837753Y-95224563D01*
X80923467Y-95319801D02*
X80990133Y-95319801D01*
X81018705Y-95424563D02*
X80923467Y-95424563D01*
X80923467Y-95424563D02*
X80923467Y-95224563D01*
X80923467Y-95224563D02*
X81018705Y-95224563D01*
X81104419Y-95424563D02*
X81104419Y-95224563D01*
X81104419Y-95224563D02*
X81180609Y-95224563D01*
X81180609Y-95224563D02*
X81199657Y-95234087D01*
X81199657Y-95234087D02*
X81209180Y-95243611D01*
X81209180Y-95243611D02*
X81218704Y-95262659D01*
X81218704Y-95262659D02*
X81218704Y-95291230D01*
X81218704Y-95291230D02*
X81209180Y-95310278D01*
X81209180Y-95310278D02*
X81199657Y-95319801D01*
X81199657Y-95319801D02*
X81180609Y-95329325D01*
X81180609Y-95329325D02*
X81104419Y-95329325D01*
X81304419Y-95348373D02*
X81456800Y-95348373D01*
X81590133Y-95224563D02*
X81628228Y-95224563D01*
X81628228Y-95224563D02*
X81647276Y-95234087D01*
X81647276Y-95234087D02*
X81666323Y-95253135D01*
X81666323Y-95253135D02*
X81675847Y-95291230D01*
X81675847Y-95291230D02*
X81675847Y-95357897D01*
X81675847Y-95357897D02*
X81666323Y-95395992D01*
X81666323Y-95395992D02*
X81647276Y-95415040D01*
X81647276Y-95415040D02*
X81628228Y-95424563D01*
X81628228Y-95424563D02*
X81590133Y-95424563D01*
X81590133Y-95424563D02*
X81571085Y-95415040D01*
X81571085Y-95415040D02*
X81552038Y-95395992D01*
X81552038Y-95395992D02*
X81542514Y-95357897D01*
X81542514Y-95357897D02*
X81542514Y-95291230D01*
X81542514Y-95291230D02*
X81552038Y-95253135D01*
X81552038Y-95253135D02*
X81571085Y-95234087D01*
X81571085Y-95234087D02*
X81590133Y-95224563D01*
X81761562Y-95224563D02*
X81761562Y-95386468D01*
X81761562Y-95386468D02*
X81771085Y-95405516D01*
X81771085Y-95405516D02*
X81780609Y-95415040D01*
X81780609Y-95415040D02*
X81799657Y-95424563D01*
X81799657Y-95424563D02*
X81837752Y-95424563D01*
X81837752Y-95424563D02*
X81856800Y-95415040D01*
X81856800Y-95415040D02*
X81866323Y-95405516D01*
X81866323Y-95405516D02*
X81875847Y-95386468D01*
X81875847Y-95386468D02*
X81875847Y-95224563D01*
X81942514Y-95224563D02*
X82056800Y-95224563D01*
X81999657Y-95424563D02*
X81999657Y-95224563D01*
X82256800Y-95224563D02*
X82390133Y-95224563D01*
X82390133Y-95224563D02*
X82256800Y-95424563D01*
X82256800Y-95424563D02*
X82390133Y-95424563D01*
X82504419Y-95224563D02*
X82542514Y-95224563D01*
X82542514Y-95224563D02*
X82561562Y-95234087D01*
X82561562Y-95234087D02*
X82580609Y-95253135D01*
X82580609Y-95253135D02*
X82590133Y-95291230D01*
X82590133Y-95291230D02*
X82590133Y-95357897D01*
X82590133Y-95357897D02*
X82580609Y-95395992D01*
X82580609Y-95395992D02*
X82561562Y-95415040D01*
X82561562Y-95415040D02*
X82542514Y-95424563D01*
X82542514Y-95424563D02*
X82504419Y-95424563D01*
X82504419Y-95424563D02*
X82485371Y-95415040D01*
X82485371Y-95415040D02*
X82466324Y-95395992D01*
X82466324Y-95395992D02*
X82456800Y-95357897D01*
X82456800Y-95357897D02*
X82456800Y-95291230D01*
X82456800Y-95291230D02*
X82466324Y-95253135D01*
X82466324Y-95253135D02*
X82485371Y-95234087D01*
X82485371Y-95234087D02*
X82504419Y-95224563D01*
X82675848Y-95424563D02*
X82675848Y-95224563D01*
X82675848Y-95224563D02*
X82790133Y-95424563D01*
X82790133Y-95424563D02*
X82790133Y-95224563D01*
X82885372Y-95319801D02*
X82952038Y-95319801D01*
X82980610Y-95424563D02*
X82885372Y-95424563D01*
X82885372Y-95424563D02*
X82885372Y-95224563D01*
X82885372Y-95224563D02*
X82980610Y-95224563D01*
X85542515Y-95424563D02*
X85542515Y-95224563D01*
X85656800Y-95424563D02*
X85571086Y-95310278D01*
X85656800Y-95224563D02*
X85542515Y-95338849D01*
X85742515Y-95319801D02*
X85809181Y-95319801D01*
X85837753Y-95424563D02*
X85742515Y-95424563D01*
X85742515Y-95424563D02*
X85742515Y-95224563D01*
X85742515Y-95224563D02*
X85837753Y-95224563D01*
X85923467Y-95319801D02*
X85990133Y-95319801D01*
X86018705Y-95424563D02*
X85923467Y-95424563D01*
X85923467Y-95424563D02*
X85923467Y-95224563D01*
X85923467Y-95224563D02*
X86018705Y-95224563D01*
X86104419Y-95424563D02*
X86104419Y-95224563D01*
X86104419Y-95224563D02*
X86180609Y-95224563D01*
X86180609Y-95224563D02*
X86199657Y-95234087D01*
X86199657Y-95234087D02*
X86209180Y-95243611D01*
X86209180Y-95243611D02*
X86218704Y-95262659D01*
X86218704Y-95262659D02*
X86218704Y-95291230D01*
X86218704Y-95291230D02*
X86209180Y-95310278D01*
X86209180Y-95310278D02*
X86199657Y-95319801D01*
X86199657Y-95319801D02*
X86180609Y-95329325D01*
X86180609Y-95329325D02*
X86104419Y-95329325D01*
X86304419Y-95348373D02*
X86456800Y-95348373D01*
X86590133Y-95224563D02*
X86628228Y-95224563D01*
X86628228Y-95224563D02*
X86647276Y-95234087D01*
X86647276Y-95234087D02*
X86666323Y-95253135D01*
X86666323Y-95253135D02*
X86675847Y-95291230D01*
X86675847Y-95291230D02*
X86675847Y-95357897D01*
X86675847Y-95357897D02*
X86666323Y-95395992D01*
X86666323Y-95395992D02*
X86647276Y-95415040D01*
X86647276Y-95415040D02*
X86628228Y-95424563D01*
X86628228Y-95424563D02*
X86590133Y-95424563D01*
X86590133Y-95424563D02*
X86571085Y-95415040D01*
X86571085Y-95415040D02*
X86552038Y-95395992D01*
X86552038Y-95395992D02*
X86542514Y-95357897D01*
X86542514Y-95357897D02*
X86542514Y-95291230D01*
X86542514Y-95291230D02*
X86552038Y-95253135D01*
X86552038Y-95253135D02*
X86571085Y-95234087D01*
X86571085Y-95234087D02*
X86590133Y-95224563D01*
X86761562Y-95224563D02*
X86761562Y-95386468D01*
X86761562Y-95386468D02*
X86771085Y-95405516D01*
X86771085Y-95405516D02*
X86780609Y-95415040D01*
X86780609Y-95415040D02*
X86799657Y-95424563D01*
X86799657Y-95424563D02*
X86837752Y-95424563D01*
X86837752Y-95424563D02*
X86856800Y-95415040D01*
X86856800Y-95415040D02*
X86866323Y-95405516D01*
X86866323Y-95405516D02*
X86875847Y-95386468D01*
X86875847Y-95386468D02*
X86875847Y-95224563D01*
X86942514Y-95224563D02*
X87056800Y-95224563D01*
X86999657Y-95424563D02*
X86999657Y-95224563D01*
X87256800Y-95224563D02*
X87390133Y-95224563D01*
X87390133Y-95224563D02*
X87256800Y-95424563D01*
X87256800Y-95424563D02*
X87390133Y-95424563D01*
X87504419Y-95224563D02*
X87542514Y-95224563D01*
X87542514Y-95224563D02*
X87561562Y-95234087D01*
X87561562Y-95234087D02*
X87580609Y-95253135D01*
X87580609Y-95253135D02*
X87590133Y-95291230D01*
X87590133Y-95291230D02*
X87590133Y-95357897D01*
X87590133Y-95357897D02*
X87580609Y-95395992D01*
X87580609Y-95395992D02*
X87561562Y-95415040D01*
X87561562Y-95415040D02*
X87542514Y-95424563D01*
X87542514Y-95424563D02*
X87504419Y-95424563D01*
X87504419Y-95424563D02*
X87485371Y-95415040D01*
X87485371Y-95415040D02*
X87466324Y-95395992D01*
X87466324Y-95395992D02*
X87456800Y-95357897D01*
X87456800Y-95357897D02*
X87456800Y-95291230D01*
X87456800Y-95291230D02*
X87466324Y-95253135D01*
X87466324Y-95253135D02*
X87485371Y-95234087D01*
X87485371Y-95234087D02*
X87504419Y-95224563D01*
X87675848Y-95424563D02*
X87675848Y-95224563D01*
X87675848Y-95224563D02*
X87790133Y-95424563D01*
X87790133Y-95424563D02*
X87790133Y-95224563D01*
X87885372Y-95319801D02*
X87952038Y-95319801D01*
X87980610Y-95424563D02*
X87885372Y-95424563D01*
X87885372Y-95424563D02*
X87885372Y-95224563D01*
X87885372Y-95224563D02*
X87980610Y-95224563D01*
X85675847Y-95824563D02*
X85675847Y-95624563D01*
X85675847Y-95624563D02*
X85790132Y-95824563D01*
X85790132Y-95824563D02*
X85790132Y-95624563D01*
X85913942Y-95824563D02*
X85894894Y-95815040D01*
X85894894Y-95815040D02*
X85885371Y-95805516D01*
X85885371Y-95805516D02*
X85875847Y-95786468D01*
X85875847Y-95786468D02*
X85875847Y-95729325D01*
X85875847Y-95729325D02*
X85885371Y-95710278D01*
X85885371Y-95710278D02*
X85894894Y-95700754D01*
X85894894Y-95700754D02*
X85913942Y-95691230D01*
X85913942Y-95691230D02*
X85942513Y-95691230D01*
X85942513Y-95691230D02*
X85961561Y-95700754D01*
X85961561Y-95700754D02*
X85971085Y-95710278D01*
X85971085Y-95710278D02*
X85980609Y-95729325D01*
X85980609Y-95729325D02*
X85980609Y-95786468D01*
X85980609Y-95786468D02*
X85971085Y-95805516D01*
X85971085Y-95805516D02*
X85961561Y-95815040D01*
X85961561Y-95815040D02*
X85942513Y-95824563D01*
X85942513Y-95824563D02*
X85913942Y-95824563D01*
X86285370Y-95719801D02*
X86218704Y-95719801D01*
X86218704Y-95824563D02*
X86218704Y-95624563D01*
X86218704Y-95624563D02*
X86313942Y-95624563D01*
X86390133Y-95805516D02*
X86399656Y-95815040D01*
X86399656Y-95815040D02*
X86390133Y-95824563D01*
X86390133Y-95824563D02*
X86380609Y-95815040D01*
X86380609Y-95815040D02*
X86390133Y-95805516D01*
X86390133Y-95805516D02*
X86390133Y-95824563D01*
X86599656Y-95805516D02*
X86590132Y-95815040D01*
X86590132Y-95815040D02*
X86561561Y-95824563D01*
X86561561Y-95824563D02*
X86542513Y-95824563D01*
X86542513Y-95824563D02*
X86513942Y-95815040D01*
X86513942Y-95815040D02*
X86494894Y-95795992D01*
X86494894Y-95795992D02*
X86485371Y-95776944D01*
X86485371Y-95776944D02*
X86475847Y-95738849D01*
X86475847Y-95738849D02*
X86475847Y-95710278D01*
X86475847Y-95710278D02*
X86485371Y-95672182D01*
X86485371Y-95672182D02*
X86494894Y-95653135D01*
X86494894Y-95653135D02*
X86513942Y-95634087D01*
X86513942Y-95634087D02*
X86542513Y-95624563D01*
X86542513Y-95624563D02*
X86561561Y-95624563D01*
X86561561Y-95624563D02*
X86590132Y-95634087D01*
X86590132Y-95634087D02*
X86599656Y-95643611D01*
X86771085Y-95691230D02*
X86771085Y-95824563D01*
X86685371Y-95691230D02*
X86685371Y-95795992D01*
X86685371Y-95795992D02*
X86694894Y-95815040D01*
X86694894Y-95815040D02*
X86713942Y-95824563D01*
X86713942Y-95824563D02*
X86742513Y-95824563D01*
X86742513Y-95824563D02*
X86761561Y-95815040D01*
X86761561Y-95815040D02*
X86771085Y-95805516D01*
X86990132Y-95691230D02*
X87066323Y-95691230D01*
X87018704Y-95624563D02*
X87018704Y-95795992D01*
X87018704Y-95795992D02*
X87028227Y-95815040D01*
X87028227Y-95815040D02*
X87047275Y-95824563D01*
X87047275Y-95824563D02*
X87066323Y-95824563D01*
X87132990Y-95824563D02*
X87132990Y-95691230D01*
X87132990Y-95729325D02*
X87142513Y-95710278D01*
X87142513Y-95710278D02*
X87152037Y-95700754D01*
X87152037Y-95700754D02*
X87171085Y-95691230D01*
X87171085Y-95691230D02*
X87190132Y-95691230D01*
X87342514Y-95824563D02*
X87342514Y-95719801D01*
X87342514Y-95719801D02*
X87332990Y-95700754D01*
X87332990Y-95700754D02*
X87313942Y-95691230D01*
X87313942Y-95691230D02*
X87275847Y-95691230D01*
X87275847Y-95691230D02*
X87256800Y-95700754D01*
X87342514Y-95815040D02*
X87323466Y-95824563D01*
X87323466Y-95824563D02*
X87275847Y-95824563D01*
X87275847Y-95824563D02*
X87256800Y-95815040D01*
X87256800Y-95815040D02*
X87247276Y-95795992D01*
X87247276Y-95795992D02*
X87247276Y-95776944D01*
X87247276Y-95776944D02*
X87256800Y-95757897D01*
X87256800Y-95757897D02*
X87275847Y-95748373D01*
X87275847Y-95748373D02*
X87323466Y-95748373D01*
X87323466Y-95748373D02*
X87342514Y-95738849D01*
X87523466Y-95815040D02*
X87504418Y-95824563D01*
X87504418Y-95824563D02*
X87466323Y-95824563D01*
X87466323Y-95824563D02*
X87447275Y-95815040D01*
X87447275Y-95815040D02*
X87437752Y-95805516D01*
X87437752Y-95805516D02*
X87428228Y-95786468D01*
X87428228Y-95786468D02*
X87428228Y-95729325D01*
X87428228Y-95729325D02*
X87437752Y-95710278D01*
X87437752Y-95710278D02*
X87447275Y-95700754D01*
X87447275Y-95700754D02*
X87466323Y-95691230D01*
X87466323Y-95691230D02*
X87504418Y-95691230D01*
X87504418Y-95691230D02*
X87523466Y-95700754D01*
X87609181Y-95824563D02*
X87609181Y-95624563D01*
X87628228Y-95748373D02*
X87685371Y-95824563D01*
X87685371Y-95691230D02*
X87609181Y-95767420D01*
X87761562Y-95815040D02*
X87780609Y-95824563D01*
X87780609Y-95824563D02*
X87818705Y-95824563D01*
X87818705Y-95824563D02*
X87837752Y-95815040D01*
X87837752Y-95815040D02*
X87847276Y-95795992D01*
X87847276Y-95795992D02*
X87847276Y-95786468D01*
X87847276Y-95786468D02*
X87837752Y-95767420D01*
X87837752Y-95767420D02*
X87818705Y-95757897D01*
X87818705Y-95757897D02*
X87790133Y-95757897D01*
X87790133Y-95757897D02*
X87771086Y-95748373D01*
X87771086Y-95748373D02*
X87761562Y-95729325D01*
X87761562Y-95729325D02*
X87761562Y-95719801D01*
X87761562Y-95719801D02*
X87771086Y-95700754D01*
X87771086Y-95700754D02*
X87790133Y-95691230D01*
X87790133Y-95691230D02*
X87818705Y-95691230D01*
X87818705Y-95691230D02*
X87837752Y-95700754D01*
X85542515Y-73402763D02*
X85542515Y-73202763D01*
X85656800Y-73402763D02*
X85571086Y-73288478D01*
X85656800Y-73202763D02*
X85542515Y-73317049D01*
X85742515Y-73298001D02*
X85809181Y-73298001D01*
X85837753Y-73402763D02*
X85742515Y-73402763D01*
X85742515Y-73402763D02*
X85742515Y-73202763D01*
X85742515Y-73202763D02*
X85837753Y-73202763D01*
X85923467Y-73298001D02*
X85990133Y-73298001D01*
X86018705Y-73402763D02*
X85923467Y-73402763D01*
X85923467Y-73402763D02*
X85923467Y-73202763D01*
X85923467Y-73202763D02*
X86018705Y-73202763D01*
X86104419Y-73402763D02*
X86104419Y-73202763D01*
X86104419Y-73202763D02*
X86180609Y-73202763D01*
X86180609Y-73202763D02*
X86199657Y-73212287D01*
X86199657Y-73212287D02*
X86209180Y-73221811D01*
X86209180Y-73221811D02*
X86218704Y-73240859D01*
X86218704Y-73240859D02*
X86218704Y-73269430D01*
X86218704Y-73269430D02*
X86209180Y-73288478D01*
X86209180Y-73288478D02*
X86199657Y-73298001D01*
X86199657Y-73298001D02*
X86180609Y-73307525D01*
X86180609Y-73307525D02*
X86104419Y-73307525D01*
X86304419Y-73326573D02*
X86456800Y-73326573D01*
X86590133Y-73202763D02*
X86628228Y-73202763D01*
X86628228Y-73202763D02*
X86647276Y-73212287D01*
X86647276Y-73212287D02*
X86666323Y-73231335D01*
X86666323Y-73231335D02*
X86675847Y-73269430D01*
X86675847Y-73269430D02*
X86675847Y-73336097D01*
X86675847Y-73336097D02*
X86666323Y-73374192D01*
X86666323Y-73374192D02*
X86647276Y-73393240D01*
X86647276Y-73393240D02*
X86628228Y-73402763D01*
X86628228Y-73402763D02*
X86590133Y-73402763D01*
X86590133Y-73402763D02*
X86571085Y-73393240D01*
X86571085Y-73393240D02*
X86552038Y-73374192D01*
X86552038Y-73374192D02*
X86542514Y-73336097D01*
X86542514Y-73336097D02*
X86542514Y-73269430D01*
X86542514Y-73269430D02*
X86552038Y-73231335D01*
X86552038Y-73231335D02*
X86571085Y-73212287D01*
X86571085Y-73212287D02*
X86590133Y-73202763D01*
X86761562Y-73202763D02*
X86761562Y-73364668D01*
X86761562Y-73364668D02*
X86771085Y-73383716D01*
X86771085Y-73383716D02*
X86780609Y-73393240D01*
X86780609Y-73393240D02*
X86799657Y-73402763D01*
X86799657Y-73402763D02*
X86837752Y-73402763D01*
X86837752Y-73402763D02*
X86856800Y-73393240D01*
X86856800Y-73393240D02*
X86866323Y-73383716D01*
X86866323Y-73383716D02*
X86875847Y-73364668D01*
X86875847Y-73364668D02*
X86875847Y-73202763D01*
X86942514Y-73202763D02*
X87056800Y-73202763D01*
X86999657Y-73402763D02*
X86999657Y-73202763D01*
X87256800Y-73202763D02*
X87390133Y-73202763D01*
X87390133Y-73202763D02*
X87256800Y-73402763D01*
X87256800Y-73402763D02*
X87390133Y-73402763D01*
X87504419Y-73202763D02*
X87542514Y-73202763D01*
X87542514Y-73202763D02*
X87561562Y-73212287D01*
X87561562Y-73212287D02*
X87580609Y-73231335D01*
X87580609Y-73231335D02*
X87590133Y-73269430D01*
X87590133Y-73269430D02*
X87590133Y-73336097D01*
X87590133Y-73336097D02*
X87580609Y-73374192D01*
X87580609Y-73374192D02*
X87561562Y-73393240D01*
X87561562Y-73393240D02*
X87542514Y-73402763D01*
X87542514Y-73402763D02*
X87504419Y-73402763D01*
X87504419Y-73402763D02*
X87485371Y-73393240D01*
X87485371Y-73393240D02*
X87466324Y-73374192D01*
X87466324Y-73374192D02*
X87456800Y-73336097D01*
X87456800Y-73336097D02*
X87456800Y-73269430D01*
X87456800Y-73269430D02*
X87466324Y-73231335D01*
X87466324Y-73231335D02*
X87485371Y-73212287D01*
X87485371Y-73212287D02*
X87504419Y-73202763D01*
X87675848Y-73402763D02*
X87675848Y-73202763D01*
X87675848Y-73202763D02*
X87790133Y-73402763D01*
X87790133Y-73402763D02*
X87790133Y-73202763D01*
X87885372Y-73298001D02*
X87952038Y-73298001D01*
X87980610Y-73402763D02*
X87885372Y-73402763D01*
X87885372Y-73402763D02*
X87885372Y-73202763D01*
X87885372Y-73202763D02*
X87980610Y-73202763D01*
X80542515Y-73402763D02*
X80542515Y-73202763D01*
X80656800Y-73402763D02*
X80571086Y-73288478D01*
X80656800Y-73202763D02*
X80542515Y-73317049D01*
X80742515Y-73298001D02*
X80809181Y-73298001D01*
X80837753Y-73402763D02*
X80742515Y-73402763D01*
X80742515Y-73402763D02*
X80742515Y-73202763D01*
X80742515Y-73202763D02*
X80837753Y-73202763D01*
X80923467Y-73298001D02*
X80990133Y-73298001D01*
X81018705Y-73402763D02*
X80923467Y-73402763D01*
X80923467Y-73402763D02*
X80923467Y-73202763D01*
X80923467Y-73202763D02*
X81018705Y-73202763D01*
X81104419Y-73402763D02*
X81104419Y-73202763D01*
X81104419Y-73202763D02*
X81180609Y-73202763D01*
X81180609Y-73202763D02*
X81199657Y-73212287D01*
X81199657Y-73212287D02*
X81209180Y-73221811D01*
X81209180Y-73221811D02*
X81218704Y-73240859D01*
X81218704Y-73240859D02*
X81218704Y-73269430D01*
X81218704Y-73269430D02*
X81209180Y-73288478D01*
X81209180Y-73288478D02*
X81199657Y-73298001D01*
X81199657Y-73298001D02*
X81180609Y-73307525D01*
X81180609Y-73307525D02*
X81104419Y-73307525D01*
X81304419Y-73326573D02*
X81456800Y-73326573D01*
X81590133Y-73202763D02*
X81628228Y-73202763D01*
X81628228Y-73202763D02*
X81647276Y-73212287D01*
X81647276Y-73212287D02*
X81666323Y-73231335D01*
X81666323Y-73231335D02*
X81675847Y-73269430D01*
X81675847Y-73269430D02*
X81675847Y-73336097D01*
X81675847Y-73336097D02*
X81666323Y-73374192D01*
X81666323Y-73374192D02*
X81647276Y-73393240D01*
X81647276Y-73393240D02*
X81628228Y-73402763D01*
X81628228Y-73402763D02*
X81590133Y-73402763D01*
X81590133Y-73402763D02*
X81571085Y-73393240D01*
X81571085Y-73393240D02*
X81552038Y-73374192D01*
X81552038Y-73374192D02*
X81542514Y-73336097D01*
X81542514Y-73336097D02*
X81542514Y-73269430D01*
X81542514Y-73269430D02*
X81552038Y-73231335D01*
X81552038Y-73231335D02*
X81571085Y-73212287D01*
X81571085Y-73212287D02*
X81590133Y-73202763D01*
X81761562Y-73202763D02*
X81761562Y-73364668D01*
X81761562Y-73364668D02*
X81771085Y-73383716D01*
X81771085Y-73383716D02*
X81780609Y-73393240D01*
X81780609Y-73393240D02*
X81799657Y-73402763D01*
X81799657Y-73402763D02*
X81837752Y-73402763D01*
X81837752Y-73402763D02*
X81856800Y-73393240D01*
X81856800Y-73393240D02*
X81866323Y-73383716D01*
X81866323Y-73383716D02*
X81875847Y-73364668D01*
X81875847Y-73364668D02*
X81875847Y-73202763D01*
X81942514Y-73202763D02*
X82056800Y-73202763D01*
X81999657Y-73402763D02*
X81999657Y-73202763D01*
X82256800Y-73202763D02*
X82390133Y-73202763D01*
X82390133Y-73202763D02*
X82256800Y-73402763D01*
X82256800Y-73402763D02*
X82390133Y-73402763D01*
X82504419Y-73202763D02*
X82542514Y-73202763D01*
X82542514Y-73202763D02*
X82561562Y-73212287D01*
X82561562Y-73212287D02*
X82580609Y-73231335D01*
X82580609Y-73231335D02*
X82590133Y-73269430D01*
X82590133Y-73269430D02*
X82590133Y-73336097D01*
X82590133Y-73336097D02*
X82580609Y-73374192D01*
X82580609Y-73374192D02*
X82561562Y-73393240D01*
X82561562Y-73393240D02*
X82542514Y-73402763D01*
X82542514Y-73402763D02*
X82504419Y-73402763D01*
X82504419Y-73402763D02*
X82485371Y-73393240D01*
X82485371Y-73393240D02*
X82466324Y-73374192D01*
X82466324Y-73374192D02*
X82456800Y-73336097D01*
X82456800Y-73336097D02*
X82456800Y-73269430D01*
X82456800Y-73269430D02*
X82466324Y-73231335D01*
X82466324Y-73231335D02*
X82485371Y-73212287D01*
X82485371Y-73212287D02*
X82504419Y-73202763D01*
X82675848Y-73402763D02*
X82675848Y-73202763D01*
X82675848Y-73202763D02*
X82790133Y-73402763D01*
X82790133Y-73402763D02*
X82790133Y-73202763D01*
X82885372Y-73298001D02*
X82952038Y-73298001D01*
X82980610Y-73402763D02*
X82885372Y-73402763D01*
X82885372Y-73402763D02*
X82885372Y-73202763D01*
X82885372Y-73202763D02*
X82980610Y-73202763D01*
X85675847Y-73802763D02*
X85675847Y-73602763D01*
X85675847Y-73602763D02*
X85790132Y-73802763D01*
X85790132Y-73802763D02*
X85790132Y-73602763D01*
X85913942Y-73802763D02*
X85894894Y-73793240D01*
X85894894Y-73793240D02*
X85885371Y-73783716D01*
X85885371Y-73783716D02*
X85875847Y-73764668D01*
X85875847Y-73764668D02*
X85875847Y-73707525D01*
X85875847Y-73707525D02*
X85885371Y-73688478D01*
X85885371Y-73688478D02*
X85894894Y-73678954D01*
X85894894Y-73678954D02*
X85913942Y-73669430D01*
X85913942Y-73669430D02*
X85942513Y-73669430D01*
X85942513Y-73669430D02*
X85961561Y-73678954D01*
X85961561Y-73678954D02*
X85971085Y-73688478D01*
X85971085Y-73688478D02*
X85980609Y-73707525D01*
X85980609Y-73707525D02*
X85980609Y-73764668D01*
X85980609Y-73764668D02*
X85971085Y-73783716D01*
X85971085Y-73783716D02*
X85961561Y-73793240D01*
X85961561Y-73793240D02*
X85942513Y-73802763D01*
X85942513Y-73802763D02*
X85913942Y-73802763D01*
X86285370Y-73698001D02*
X86218704Y-73698001D01*
X86218704Y-73802763D02*
X86218704Y-73602763D01*
X86218704Y-73602763D02*
X86313942Y-73602763D01*
X86390133Y-73783716D02*
X86399656Y-73793240D01*
X86399656Y-73793240D02*
X86390133Y-73802763D01*
X86390133Y-73802763D02*
X86380609Y-73793240D01*
X86380609Y-73793240D02*
X86390133Y-73783716D01*
X86390133Y-73783716D02*
X86390133Y-73802763D01*
X86599656Y-73783716D02*
X86590132Y-73793240D01*
X86590132Y-73793240D02*
X86561561Y-73802763D01*
X86561561Y-73802763D02*
X86542513Y-73802763D01*
X86542513Y-73802763D02*
X86513942Y-73793240D01*
X86513942Y-73793240D02*
X86494894Y-73774192D01*
X86494894Y-73774192D02*
X86485371Y-73755144D01*
X86485371Y-73755144D02*
X86475847Y-73717049D01*
X86475847Y-73717049D02*
X86475847Y-73688478D01*
X86475847Y-73688478D02*
X86485371Y-73650382D01*
X86485371Y-73650382D02*
X86494894Y-73631335D01*
X86494894Y-73631335D02*
X86513942Y-73612287D01*
X86513942Y-73612287D02*
X86542513Y-73602763D01*
X86542513Y-73602763D02*
X86561561Y-73602763D01*
X86561561Y-73602763D02*
X86590132Y-73612287D01*
X86590132Y-73612287D02*
X86599656Y-73621811D01*
X86771085Y-73669430D02*
X86771085Y-73802763D01*
X86685371Y-73669430D02*
X86685371Y-73774192D01*
X86685371Y-73774192D02*
X86694894Y-73793240D01*
X86694894Y-73793240D02*
X86713942Y-73802763D01*
X86713942Y-73802763D02*
X86742513Y-73802763D01*
X86742513Y-73802763D02*
X86761561Y-73793240D01*
X86761561Y-73793240D02*
X86771085Y-73783716D01*
X86990132Y-73669430D02*
X87066323Y-73669430D01*
X87018704Y-73602763D02*
X87018704Y-73774192D01*
X87018704Y-73774192D02*
X87028227Y-73793240D01*
X87028227Y-73793240D02*
X87047275Y-73802763D01*
X87047275Y-73802763D02*
X87066323Y-73802763D01*
X87132990Y-73802763D02*
X87132990Y-73669430D01*
X87132990Y-73707525D02*
X87142513Y-73688478D01*
X87142513Y-73688478D02*
X87152037Y-73678954D01*
X87152037Y-73678954D02*
X87171085Y-73669430D01*
X87171085Y-73669430D02*
X87190132Y-73669430D01*
X87342514Y-73802763D02*
X87342514Y-73698001D01*
X87342514Y-73698001D02*
X87332990Y-73678954D01*
X87332990Y-73678954D02*
X87313942Y-73669430D01*
X87313942Y-73669430D02*
X87275847Y-73669430D01*
X87275847Y-73669430D02*
X87256800Y-73678954D01*
X87342514Y-73793240D02*
X87323466Y-73802763D01*
X87323466Y-73802763D02*
X87275847Y-73802763D01*
X87275847Y-73802763D02*
X87256800Y-73793240D01*
X87256800Y-73793240D02*
X87247276Y-73774192D01*
X87247276Y-73774192D02*
X87247276Y-73755144D01*
X87247276Y-73755144D02*
X87256800Y-73736097D01*
X87256800Y-73736097D02*
X87275847Y-73726573D01*
X87275847Y-73726573D02*
X87323466Y-73726573D01*
X87323466Y-73726573D02*
X87342514Y-73717049D01*
X87523466Y-73793240D02*
X87504418Y-73802763D01*
X87504418Y-73802763D02*
X87466323Y-73802763D01*
X87466323Y-73802763D02*
X87447275Y-73793240D01*
X87447275Y-73793240D02*
X87437752Y-73783716D01*
X87437752Y-73783716D02*
X87428228Y-73764668D01*
X87428228Y-73764668D02*
X87428228Y-73707525D01*
X87428228Y-73707525D02*
X87437752Y-73688478D01*
X87437752Y-73688478D02*
X87447275Y-73678954D01*
X87447275Y-73678954D02*
X87466323Y-73669430D01*
X87466323Y-73669430D02*
X87504418Y-73669430D01*
X87504418Y-73669430D02*
X87523466Y-73678954D01*
X87609181Y-73802763D02*
X87609181Y-73602763D01*
X87628228Y-73726573D02*
X87685371Y-73802763D01*
X87685371Y-73669430D02*
X87609181Y-73745620D01*
X87761562Y-73793240D02*
X87780609Y-73802763D01*
X87780609Y-73802763D02*
X87818705Y-73802763D01*
X87818705Y-73802763D02*
X87837752Y-73793240D01*
X87837752Y-73793240D02*
X87847276Y-73774192D01*
X87847276Y-73774192D02*
X87847276Y-73764668D01*
X87847276Y-73764668D02*
X87837752Y-73745620D01*
X87837752Y-73745620D02*
X87818705Y-73736097D01*
X87818705Y-73736097D02*
X87790133Y-73736097D01*
X87790133Y-73736097D02*
X87771086Y-73726573D01*
X87771086Y-73726573D02*
X87761562Y-73707525D01*
X87761562Y-73707525D02*
X87761562Y-73698001D01*
X87761562Y-73698001D02*
X87771086Y-73678954D01*
X87771086Y-73678954D02*
X87790133Y-73669430D01*
X87790133Y-73669430D02*
X87818705Y-73669430D01*
X87818705Y-73669430D02*
X87837752Y-73678954D01*
X80675847Y-73802763D02*
X80675847Y-73602763D01*
X80675847Y-73602763D02*
X80790132Y-73802763D01*
X80790132Y-73802763D02*
X80790132Y-73602763D01*
X80913942Y-73802763D02*
X80894894Y-73793240D01*
X80894894Y-73793240D02*
X80885371Y-73783716D01*
X80885371Y-73783716D02*
X80875847Y-73764668D01*
X80875847Y-73764668D02*
X80875847Y-73707525D01*
X80875847Y-73707525D02*
X80885371Y-73688478D01*
X80885371Y-73688478D02*
X80894894Y-73678954D01*
X80894894Y-73678954D02*
X80913942Y-73669430D01*
X80913942Y-73669430D02*
X80942513Y-73669430D01*
X80942513Y-73669430D02*
X80961561Y-73678954D01*
X80961561Y-73678954D02*
X80971085Y-73688478D01*
X80971085Y-73688478D02*
X80980609Y-73707525D01*
X80980609Y-73707525D02*
X80980609Y-73764668D01*
X80980609Y-73764668D02*
X80971085Y-73783716D01*
X80971085Y-73783716D02*
X80961561Y-73793240D01*
X80961561Y-73793240D02*
X80942513Y-73802763D01*
X80942513Y-73802763D02*
X80913942Y-73802763D01*
X81285370Y-73698001D02*
X81218704Y-73698001D01*
X81218704Y-73802763D02*
X81218704Y-73602763D01*
X81218704Y-73602763D02*
X81313942Y-73602763D01*
X81390133Y-73783716D02*
X81399656Y-73793240D01*
X81399656Y-73793240D02*
X81390133Y-73802763D01*
X81390133Y-73802763D02*
X81380609Y-73793240D01*
X81380609Y-73793240D02*
X81390133Y-73783716D01*
X81390133Y-73783716D02*
X81390133Y-73802763D01*
X81599656Y-73783716D02*
X81590132Y-73793240D01*
X81590132Y-73793240D02*
X81561561Y-73802763D01*
X81561561Y-73802763D02*
X81542513Y-73802763D01*
X81542513Y-73802763D02*
X81513942Y-73793240D01*
X81513942Y-73793240D02*
X81494894Y-73774192D01*
X81494894Y-73774192D02*
X81485371Y-73755144D01*
X81485371Y-73755144D02*
X81475847Y-73717049D01*
X81475847Y-73717049D02*
X81475847Y-73688478D01*
X81475847Y-73688478D02*
X81485371Y-73650382D01*
X81485371Y-73650382D02*
X81494894Y-73631335D01*
X81494894Y-73631335D02*
X81513942Y-73612287D01*
X81513942Y-73612287D02*
X81542513Y-73602763D01*
X81542513Y-73602763D02*
X81561561Y-73602763D01*
X81561561Y-73602763D02*
X81590132Y-73612287D01*
X81590132Y-73612287D02*
X81599656Y-73621811D01*
X81771085Y-73669430D02*
X81771085Y-73802763D01*
X81685371Y-73669430D02*
X81685371Y-73774192D01*
X81685371Y-73774192D02*
X81694894Y-73793240D01*
X81694894Y-73793240D02*
X81713942Y-73802763D01*
X81713942Y-73802763D02*
X81742513Y-73802763D01*
X81742513Y-73802763D02*
X81761561Y-73793240D01*
X81761561Y-73793240D02*
X81771085Y-73783716D01*
X81990132Y-73669430D02*
X82066323Y-73669430D01*
X82018704Y-73602763D02*
X82018704Y-73774192D01*
X82018704Y-73774192D02*
X82028227Y-73793240D01*
X82028227Y-73793240D02*
X82047275Y-73802763D01*
X82047275Y-73802763D02*
X82066323Y-73802763D01*
X82132990Y-73802763D02*
X82132990Y-73669430D01*
X82132990Y-73707525D02*
X82142513Y-73688478D01*
X82142513Y-73688478D02*
X82152037Y-73678954D01*
X82152037Y-73678954D02*
X82171085Y-73669430D01*
X82171085Y-73669430D02*
X82190132Y-73669430D01*
X82342514Y-73802763D02*
X82342514Y-73698001D01*
X82342514Y-73698001D02*
X82332990Y-73678954D01*
X82332990Y-73678954D02*
X82313942Y-73669430D01*
X82313942Y-73669430D02*
X82275847Y-73669430D01*
X82275847Y-73669430D02*
X82256800Y-73678954D01*
X82342514Y-73793240D02*
X82323466Y-73802763D01*
X82323466Y-73802763D02*
X82275847Y-73802763D01*
X82275847Y-73802763D02*
X82256800Y-73793240D01*
X82256800Y-73793240D02*
X82247276Y-73774192D01*
X82247276Y-73774192D02*
X82247276Y-73755144D01*
X82247276Y-73755144D02*
X82256800Y-73736097D01*
X82256800Y-73736097D02*
X82275847Y-73726573D01*
X82275847Y-73726573D02*
X82323466Y-73726573D01*
X82323466Y-73726573D02*
X82342514Y-73717049D01*
X82523466Y-73793240D02*
X82504418Y-73802763D01*
X82504418Y-73802763D02*
X82466323Y-73802763D01*
X82466323Y-73802763D02*
X82447275Y-73793240D01*
X82447275Y-73793240D02*
X82437752Y-73783716D01*
X82437752Y-73783716D02*
X82428228Y-73764668D01*
X82428228Y-73764668D02*
X82428228Y-73707525D01*
X82428228Y-73707525D02*
X82437752Y-73688478D01*
X82437752Y-73688478D02*
X82447275Y-73678954D01*
X82447275Y-73678954D02*
X82466323Y-73669430D01*
X82466323Y-73669430D02*
X82504418Y-73669430D01*
X82504418Y-73669430D02*
X82523466Y-73678954D01*
X82609181Y-73802763D02*
X82609181Y-73602763D01*
X82628228Y-73726573D02*
X82685371Y-73802763D01*
X82685371Y-73669430D02*
X82609181Y-73745620D01*
X82761562Y-73793240D02*
X82780609Y-73802763D01*
X82780609Y-73802763D02*
X82818705Y-73802763D01*
X82818705Y-73802763D02*
X82837752Y-73793240D01*
X82837752Y-73793240D02*
X82847276Y-73774192D01*
X82847276Y-73774192D02*
X82847276Y-73764668D01*
X82847276Y-73764668D02*
X82837752Y-73745620D01*
X82837752Y-73745620D02*
X82818705Y-73736097D01*
X82818705Y-73736097D02*
X82790133Y-73736097D01*
X82790133Y-73736097D02*
X82771086Y-73726573D01*
X82771086Y-73726573D02*
X82761562Y-73707525D01*
X82761562Y-73707525D02*
X82761562Y-73698001D01*
X82761562Y-73698001D02*
X82771086Y-73678954D01*
X82771086Y-73678954D02*
X82790133Y-73669430D01*
X82790133Y-73669430D02*
X82818705Y-73669430D01*
X82818705Y-73669430D02*
X82837752Y-73678954D01*
X80542515Y-80743363D02*
X80542515Y-80543363D01*
X80656800Y-80743363D02*
X80571086Y-80629078D01*
X80656800Y-80543363D02*
X80542515Y-80657649D01*
X80742515Y-80638601D02*
X80809181Y-80638601D01*
X80837753Y-80743363D02*
X80742515Y-80743363D01*
X80742515Y-80743363D02*
X80742515Y-80543363D01*
X80742515Y-80543363D02*
X80837753Y-80543363D01*
X80923467Y-80638601D02*
X80990133Y-80638601D01*
X81018705Y-80743363D02*
X80923467Y-80743363D01*
X80923467Y-80743363D02*
X80923467Y-80543363D01*
X80923467Y-80543363D02*
X81018705Y-80543363D01*
X81104419Y-80743363D02*
X81104419Y-80543363D01*
X81104419Y-80543363D02*
X81180609Y-80543363D01*
X81180609Y-80543363D02*
X81199657Y-80552887D01*
X81199657Y-80552887D02*
X81209180Y-80562411D01*
X81209180Y-80562411D02*
X81218704Y-80581459D01*
X81218704Y-80581459D02*
X81218704Y-80610030D01*
X81218704Y-80610030D02*
X81209180Y-80629078D01*
X81209180Y-80629078D02*
X81199657Y-80638601D01*
X81199657Y-80638601D02*
X81180609Y-80648125D01*
X81180609Y-80648125D02*
X81104419Y-80648125D01*
X81304419Y-80667173D02*
X81456800Y-80667173D01*
X81590133Y-80543363D02*
X81628228Y-80543363D01*
X81628228Y-80543363D02*
X81647276Y-80552887D01*
X81647276Y-80552887D02*
X81666323Y-80571935D01*
X81666323Y-80571935D02*
X81675847Y-80610030D01*
X81675847Y-80610030D02*
X81675847Y-80676697D01*
X81675847Y-80676697D02*
X81666323Y-80714792D01*
X81666323Y-80714792D02*
X81647276Y-80733840D01*
X81647276Y-80733840D02*
X81628228Y-80743363D01*
X81628228Y-80743363D02*
X81590133Y-80743363D01*
X81590133Y-80743363D02*
X81571085Y-80733840D01*
X81571085Y-80733840D02*
X81552038Y-80714792D01*
X81552038Y-80714792D02*
X81542514Y-80676697D01*
X81542514Y-80676697D02*
X81542514Y-80610030D01*
X81542514Y-80610030D02*
X81552038Y-80571935D01*
X81552038Y-80571935D02*
X81571085Y-80552887D01*
X81571085Y-80552887D02*
X81590133Y-80543363D01*
X81761562Y-80543363D02*
X81761562Y-80705268D01*
X81761562Y-80705268D02*
X81771085Y-80724316D01*
X81771085Y-80724316D02*
X81780609Y-80733840D01*
X81780609Y-80733840D02*
X81799657Y-80743363D01*
X81799657Y-80743363D02*
X81837752Y-80743363D01*
X81837752Y-80743363D02*
X81856800Y-80733840D01*
X81856800Y-80733840D02*
X81866323Y-80724316D01*
X81866323Y-80724316D02*
X81875847Y-80705268D01*
X81875847Y-80705268D02*
X81875847Y-80543363D01*
X81942514Y-80543363D02*
X82056800Y-80543363D01*
X81999657Y-80743363D02*
X81999657Y-80543363D01*
X82256800Y-80543363D02*
X82390133Y-80543363D01*
X82390133Y-80543363D02*
X82256800Y-80743363D01*
X82256800Y-80743363D02*
X82390133Y-80743363D01*
X82504419Y-80543363D02*
X82542514Y-80543363D01*
X82542514Y-80543363D02*
X82561562Y-80552887D01*
X82561562Y-80552887D02*
X82580609Y-80571935D01*
X82580609Y-80571935D02*
X82590133Y-80610030D01*
X82590133Y-80610030D02*
X82590133Y-80676697D01*
X82590133Y-80676697D02*
X82580609Y-80714792D01*
X82580609Y-80714792D02*
X82561562Y-80733840D01*
X82561562Y-80733840D02*
X82542514Y-80743363D01*
X82542514Y-80743363D02*
X82504419Y-80743363D01*
X82504419Y-80743363D02*
X82485371Y-80733840D01*
X82485371Y-80733840D02*
X82466324Y-80714792D01*
X82466324Y-80714792D02*
X82456800Y-80676697D01*
X82456800Y-80676697D02*
X82456800Y-80610030D01*
X82456800Y-80610030D02*
X82466324Y-80571935D01*
X82466324Y-80571935D02*
X82485371Y-80552887D01*
X82485371Y-80552887D02*
X82504419Y-80543363D01*
X82675848Y-80743363D02*
X82675848Y-80543363D01*
X82675848Y-80543363D02*
X82790133Y-80743363D01*
X82790133Y-80743363D02*
X82790133Y-80543363D01*
X82885372Y-80638601D02*
X82952038Y-80638601D01*
X82980610Y-80743363D02*
X82885372Y-80743363D01*
X82885372Y-80743363D02*
X82885372Y-80543363D01*
X82885372Y-80543363D02*
X82980610Y-80543363D01*
X80675847Y-81143363D02*
X80675847Y-80943363D01*
X80675847Y-80943363D02*
X80790132Y-81143363D01*
X80790132Y-81143363D02*
X80790132Y-80943363D01*
X80913942Y-81143363D02*
X80894894Y-81133840D01*
X80894894Y-81133840D02*
X80885371Y-81124316D01*
X80885371Y-81124316D02*
X80875847Y-81105268D01*
X80875847Y-81105268D02*
X80875847Y-81048125D01*
X80875847Y-81048125D02*
X80885371Y-81029078D01*
X80885371Y-81029078D02*
X80894894Y-81019554D01*
X80894894Y-81019554D02*
X80913942Y-81010030D01*
X80913942Y-81010030D02*
X80942513Y-81010030D01*
X80942513Y-81010030D02*
X80961561Y-81019554D01*
X80961561Y-81019554D02*
X80971085Y-81029078D01*
X80971085Y-81029078D02*
X80980609Y-81048125D01*
X80980609Y-81048125D02*
X80980609Y-81105268D01*
X80980609Y-81105268D02*
X80971085Y-81124316D01*
X80971085Y-81124316D02*
X80961561Y-81133840D01*
X80961561Y-81133840D02*
X80942513Y-81143363D01*
X80942513Y-81143363D02*
X80913942Y-81143363D01*
X81285370Y-81038601D02*
X81218704Y-81038601D01*
X81218704Y-81143363D02*
X81218704Y-80943363D01*
X81218704Y-80943363D02*
X81313942Y-80943363D01*
X81390133Y-81124316D02*
X81399656Y-81133840D01*
X81399656Y-81133840D02*
X81390133Y-81143363D01*
X81390133Y-81143363D02*
X81380609Y-81133840D01*
X81380609Y-81133840D02*
X81390133Y-81124316D01*
X81390133Y-81124316D02*
X81390133Y-81143363D01*
X81599656Y-81124316D02*
X81590132Y-81133840D01*
X81590132Y-81133840D02*
X81561561Y-81143363D01*
X81561561Y-81143363D02*
X81542513Y-81143363D01*
X81542513Y-81143363D02*
X81513942Y-81133840D01*
X81513942Y-81133840D02*
X81494894Y-81114792D01*
X81494894Y-81114792D02*
X81485371Y-81095744D01*
X81485371Y-81095744D02*
X81475847Y-81057649D01*
X81475847Y-81057649D02*
X81475847Y-81029078D01*
X81475847Y-81029078D02*
X81485371Y-80990982D01*
X81485371Y-80990982D02*
X81494894Y-80971935D01*
X81494894Y-80971935D02*
X81513942Y-80952887D01*
X81513942Y-80952887D02*
X81542513Y-80943363D01*
X81542513Y-80943363D02*
X81561561Y-80943363D01*
X81561561Y-80943363D02*
X81590132Y-80952887D01*
X81590132Y-80952887D02*
X81599656Y-80962411D01*
X81771085Y-81010030D02*
X81771085Y-81143363D01*
X81685371Y-81010030D02*
X81685371Y-81114792D01*
X81685371Y-81114792D02*
X81694894Y-81133840D01*
X81694894Y-81133840D02*
X81713942Y-81143363D01*
X81713942Y-81143363D02*
X81742513Y-81143363D01*
X81742513Y-81143363D02*
X81761561Y-81133840D01*
X81761561Y-81133840D02*
X81771085Y-81124316D01*
X81990132Y-81010030D02*
X82066323Y-81010030D01*
X82018704Y-80943363D02*
X82018704Y-81114792D01*
X82018704Y-81114792D02*
X82028227Y-81133840D01*
X82028227Y-81133840D02*
X82047275Y-81143363D01*
X82047275Y-81143363D02*
X82066323Y-81143363D01*
X82132990Y-81143363D02*
X82132990Y-81010030D01*
X82132990Y-81048125D02*
X82142513Y-81029078D01*
X82142513Y-81029078D02*
X82152037Y-81019554D01*
X82152037Y-81019554D02*
X82171085Y-81010030D01*
X82171085Y-81010030D02*
X82190132Y-81010030D01*
X82342514Y-81143363D02*
X82342514Y-81038601D01*
X82342514Y-81038601D02*
X82332990Y-81019554D01*
X82332990Y-81019554D02*
X82313942Y-81010030D01*
X82313942Y-81010030D02*
X82275847Y-81010030D01*
X82275847Y-81010030D02*
X82256800Y-81019554D01*
X82342514Y-81133840D02*
X82323466Y-81143363D01*
X82323466Y-81143363D02*
X82275847Y-81143363D01*
X82275847Y-81143363D02*
X82256800Y-81133840D01*
X82256800Y-81133840D02*
X82247276Y-81114792D01*
X82247276Y-81114792D02*
X82247276Y-81095744D01*
X82247276Y-81095744D02*
X82256800Y-81076697D01*
X82256800Y-81076697D02*
X82275847Y-81067173D01*
X82275847Y-81067173D02*
X82323466Y-81067173D01*
X82323466Y-81067173D02*
X82342514Y-81057649D01*
X82523466Y-81133840D02*
X82504418Y-81143363D01*
X82504418Y-81143363D02*
X82466323Y-81143363D01*
X82466323Y-81143363D02*
X82447275Y-81133840D01*
X82447275Y-81133840D02*
X82437752Y-81124316D01*
X82437752Y-81124316D02*
X82428228Y-81105268D01*
X82428228Y-81105268D02*
X82428228Y-81048125D01*
X82428228Y-81048125D02*
X82437752Y-81029078D01*
X82437752Y-81029078D02*
X82447275Y-81019554D01*
X82447275Y-81019554D02*
X82466323Y-81010030D01*
X82466323Y-81010030D02*
X82504418Y-81010030D01*
X82504418Y-81010030D02*
X82523466Y-81019554D01*
X82609181Y-81143363D02*
X82609181Y-80943363D01*
X82628228Y-81067173D02*
X82685371Y-81143363D01*
X82685371Y-81010030D02*
X82609181Y-81086220D01*
X82761562Y-81133840D02*
X82780609Y-81143363D01*
X82780609Y-81143363D02*
X82818705Y-81143363D01*
X82818705Y-81143363D02*
X82837752Y-81133840D01*
X82837752Y-81133840D02*
X82847276Y-81114792D01*
X82847276Y-81114792D02*
X82847276Y-81105268D01*
X82847276Y-81105268D02*
X82837752Y-81086220D01*
X82837752Y-81086220D02*
X82818705Y-81076697D01*
X82818705Y-81076697D02*
X82790133Y-81076697D01*
X82790133Y-81076697D02*
X82771086Y-81067173D01*
X82771086Y-81067173D02*
X82761562Y-81048125D01*
X82761562Y-81048125D02*
X82761562Y-81038601D01*
X82761562Y-81038601D02*
X82771086Y-81019554D01*
X82771086Y-81019554D02*
X82790133Y-81010030D01*
X82790133Y-81010030D02*
X82818705Y-81010030D01*
X82818705Y-81010030D02*
X82837752Y-81019554D01*
X85675847Y-81143363D02*
X85675847Y-80943363D01*
X85675847Y-80943363D02*
X85790132Y-81143363D01*
X85790132Y-81143363D02*
X85790132Y-80943363D01*
X85913942Y-81143363D02*
X85894894Y-81133840D01*
X85894894Y-81133840D02*
X85885371Y-81124316D01*
X85885371Y-81124316D02*
X85875847Y-81105268D01*
X85875847Y-81105268D02*
X85875847Y-81048125D01*
X85875847Y-81048125D02*
X85885371Y-81029078D01*
X85885371Y-81029078D02*
X85894894Y-81019554D01*
X85894894Y-81019554D02*
X85913942Y-81010030D01*
X85913942Y-81010030D02*
X85942513Y-81010030D01*
X85942513Y-81010030D02*
X85961561Y-81019554D01*
X85961561Y-81019554D02*
X85971085Y-81029078D01*
X85971085Y-81029078D02*
X85980609Y-81048125D01*
X85980609Y-81048125D02*
X85980609Y-81105268D01*
X85980609Y-81105268D02*
X85971085Y-81124316D01*
X85971085Y-81124316D02*
X85961561Y-81133840D01*
X85961561Y-81133840D02*
X85942513Y-81143363D01*
X85942513Y-81143363D02*
X85913942Y-81143363D01*
X86285370Y-81038601D02*
X86218704Y-81038601D01*
X86218704Y-81143363D02*
X86218704Y-80943363D01*
X86218704Y-80943363D02*
X86313942Y-80943363D01*
X86390133Y-81124316D02*
X86399656Y-81133840D01*
X86399656Y-81133840D02*
X86390133Y-81143363D01*
X86390133Y-81143363D02*
X86380609Y-81133840D01*
X86380609Y-81133840D02*
X86390133Y-81124316D01*
X86390133Y-81124316D02*
X86390133Y-81143363D01*
X86599656Y-81124316D02*
X86590132Y-81133840D01*
X86590132Y-81133840D02*
X86561561Y-81143363D01*
X86561561Y-81143363D02*
X86542513Y-81143363D01*
X86542513Y-81143363D02*
X86513942Y-81133840D01*
X86513942Y-81133840D02*
X86494894Y-81114792D01*
X86494894Y-81114792D02*
X86485371Y-81095744D01*
X86485371Y-81095744D02*
X86475847Y-81057649D01*
X86475847Y-81057649D02*
X86475847Y-81029078D01*
X86475847Y-81029078D02*
X86485371Y-80990982D01*
X86485371Y-80990982D02*
X86494894Y-80971935D01*
X86494894Y-80971935D02*
X86513942Y-80952887D01*
X86513942Y-80952887D02*
X86542513Y-80943363D01*
X86542513Y-80943363D02*
X86561561Y-80943363D01*
X86561561Y-80943363D02*
X86590132Y-80952887D01*
X86590132Y-80952887D02*
X86599656Y-80962411D01*
X86771085Y-81010030D02*
X86771085Y-81143363D01*
X86685371Y-81010030D02*
X86685371Y-81114792D01*
X86685371Y-81114792D02*
X86694894Y-81133840D01*
X86694894Y-81133840D02*
X86713942Y-81143363D01*
X86713942Y-81143363D02*
X86742513Y-81143363D01*
X86742513Y-81143363D02*
X86761561Y-81133840D01*
X86761561Y-81133840D02*
X86771085Y-81124316D01*
X86990132Y-81010030D02*
X87066323Y-81010030D01*
X87018704Y-80943363D02*
X87018704Y-81114792D01*
X87018704Y-81114792D02*
X87028227Y-81133840D01*
X87028227Y-81133840D02*
X87047275Y-81143363D01*
X87047275Y-81143363D02*
X87066323Y-81143363D01*
X87132990Y-81143363D02*
X87132990Y-81010030D01*
X87132990Y-81048125D02*
X87142513Y-81029078D01*
X87142513Y-81029078D02*
X87152037Y-81019554D01*
X87152037Y-81019554D02*
X87171085Y-81010030D01*
X87171085Y-81010030D02*
X87190132Y-81010030D01*
X87342514Y-81143363D02*
X87342514Y-81038601D01*
X87342514Y-81038601D02*
X87332990Y-81019554D01*
X87332990Y-81019554D02*
X87313942Y-81010030D01*
X87313942Y-81010030D02*
X87275847Y-81010030D01*
X87275847Y-81010030D02*
X87256800Y-81019554D01*
X87342514Y-81133840D02*
X87323466Y-81143363D01*
X87323466Y-81143363D02*
X87275847Y-81143363D01*
X87275847Y-81143363D02*
X87256800Y-81133840D01*
X87256800Y-81133840D02*
X87247276Y-81114792D01*
X87247276Y-81114792D02*
X87247276Y-81095744D01*
X87247276Y-81095744D02*
X87256800Y-81076697D01*
X87256800Y-81076697D02*
X87275847Y-81067173D01*
X87275847Y-81067173D02*
X87323466Y-81067173D01*
X87323466Y-81067173D02*
X87342514Y-81057649D01*
X87523466Y-81133840D02*
X87504418Y-81143363D01*
X87504418Y-81143363D02*
X87466323Y-81143363D01*
X87466323Y-81143363D02*
X87447275Y-81133840D01*
X87447275Y-81133840D02*
X87437752Y-81124316D01*
X87437752Y-81124316D02*
X87428228Y-81105268D01*
X87428228Y-81105268D02*
X87428228Y-81048125D01*
X87428228Y-81048125D02*
X87437752Y-81029078D01*
X87437752Y-81029078D02*
X87447275Y-81019554D01*
X87447275Y-81019554D02*
X87466323Y-81010030D01*
X87466323Y-81010030D02*
X87504418Y-81010030D01*
X87504418Y-81010030D02*
X87523466Y-81019554D01*
X87609181Y-81143363D02*
X87609181Y-80943363D01*
X87628228Y-81067173D02*
X87685371Y-81143363D01*
X87685371Y-81010030D02*
X87609181Y-81086220D01*
X87761562Y-81133840D02*
X87780609Y-81143363D01*
X87780609Y-81143363D02*
X87818705Y-81143363D01*
X87818705Y-81143363D02*
X87837752Y-81133840D01*
X87837752Y-81133840D02*
X87847276Y-81114792D01*
X87847276Y-81114792D02*
X87847276Y-81105268D01*
X87847276Y-81105268D02*
X87837752Y-81086220D01*
X87837752Y-81086220D02*
X87818705Y-81076697D01*
X87818705Y-81076697D02*
X87790133Y-81076697D01*
X87790133Y-81076697D02*
X87771086Y-81067173D01*
X87771086Y-81067173D02*
X87761562Y-81048125D01*
X87761562Y-81048125D02*
X87761562Y-81038601D01*
X87761562Y-81038601D02*
X87771086Y-81019554D01*
X87771086Y-81019554D02*
X87790133Y-81010030D01*
X87790133Y-81010030D02*
X87818705Y-81010030D01*
X87818705Y-81010030D02*
X87837752Y-81019554D01*
X85542515Y-80743363D02*
X85542515Y-80543363D01*
X85656800Y-80743363D02*
X85571086Y-80629078D01*
X85656800Y-80543363D02*
X85542515Y-80657649D01*
X85742515Y-80638601D02*
X85809181Y-80638601D01*
X85837753Y-80743363D02*
X85742515Y-80743363D01*
X85742515Y-80743363D02*
X85742515Y-80543363D01*
X85742515Y-80543363D02*
X85837753Y-80543363D01*
X85923467Y-80638601D02*
X85990133Y-80638601D01*
X86018705Y-80743363D02*
X85923467Y-80743363D01*
X85923467Y-80743363D02*
X85923467Y-80543363D01*
X85923467Y-80543363D02*
X86018705Y-80543363D01*
X86104419Y-80743363D02*
X86104419Y-80543363D01*
X86104419Y-80543363D02*
X86180609Y-80543363D01*
X86180609Y-80543363D02*
X86199657Y-80552887D01*
X86199657Y-80552887D02*
X86209180Y-80562411D01*
X86209180Y-80562411D02*
X86218704Y-80581459D01*
X86218704Y-80581459D02*
X86218704Y-80610030D01*
X86218704Y-80610030D02*
X86209180Y-80629078D01*
X86209180Y-80629078D02*
X86199657Y-80638601D01*
X86199657Y-80638601D02*
X86180609Y-80648125D01*
X86180609Y-80648125D02*
X86104419Y-80648125D01*
X86304419Y-80667173D02*
X86456800Y-80667173D01*
X86590133Y-80543363D02*
X86628228Y-80543363D01*
X86628228Y-80543363D02*
X86647276Y-80552887D01*
X86647276Y-80552887D02*
X86666323Y-80571935D01*
X86666323Y-80571935D02*
X86675847Y-80610030D01*
X86675847Y-80610030D02*
X86675847Y-80676697D01*
X86675847Y-80676697D02*
X86666323Y-80714792D01*
X86666323Y-80714792D02*
X86647276Y-80733840D01*
X86647276Y-80733840D02*
X86628228Y-80743363D01*
X86628228Y-80743363D02*
X86590133Y-80743363D01*
X86590133Y-80743363D02*
X86571085Y-80733840D01*
X86571085Y-80733840D02*
X86552038Y-80714792D01*
X86552038Y-80714792D02*
X86542514Y-80676697D01*
X86542514Y-80676697D02*
X86542514Y-80610030D01*
X86542514Y-80610030D02*
X86552038Y-80571935D01*
X86552038Y-80571935D02*
X86571085Y-80552887D01*
X86571085Y-80552887D02*
X86590133Y-80543363D01*
X86761562Y-80543363D02*
X86761562Y-80705268D01*
X86761562Y-80705268D02*
X86771085Y-80724316D01*
X86771085Y-80724316D02*
X86780609Y-80733840D01*
X86780609Y-80733840D02*
X86799657Y-80743363D01*
X86799657Y-80743363D02*
X86837752Y-80743363D01*
X86837752Y-80743363D02*
X86856800Y-80733840D01*
X86856800Y-80733840D02*
X86866323Y-80724316D01*
X86866323Y-80724316D02*
X86875847Y-80705268D01*
X86875847Y-80705268D02*
X86875847Y-80543363D01*
X86942514Y-80543363D02*
X87056800Y-80543363D01*
X86999657Y-80743363D02*
X86999657Y-80543363D01*
X87256800Y-80543363D02*
X87390133Y-80543363D01*
X87390133Y-80543363D02*
X87256800Y-80743363D01*
X87256800Y-80743363D02*
X87390133Y-80743363D01*
X87504419Y-80543363D02*
X87542514Y-80543363D01*
X87542514Y-80543363D02*
X87561562Y-80552887D01*
X87561562Y-80552887D02*
X87580609Y-80571935D01*
X87580609Y-80571935D02*
X87590133Y-80610030D01*
X87590133Y-80610030D02*
X87590133Y-80676697D01*
X87590133Y-80676697D02*
X87580609Y-80714792D01*
X87580609Y-80714792D02*
X87561562Y-80733840D01*
X87561562Y-80733840D02*
X87542514Y-80743363D01*
X87542514Y-80743363D02*
X87504419Y-80743363D01*
X87504419Y-80743363D02*
X87485371Y-80733840D01*
X87485371Y-80733840D02*
X87466324Y-80714792D01*
X87466324Y-80714792D02*
X87456800Y-80676697D01*
X87456800Y-80676697D02*
X87456800Y-80610030D01*
X87456800Y-80610030D02*
X87466324Y-80571935D01*
X87466324Y-80571935D02*
X87485371Y-80552887D01*
X87485371Y-80552887D02*
X87504419Y-80543363D01*
X87675848Y-80743363D02*
X87675848Y-80543363D01*
X87675848Y-80543363D02*
X87790133Y-80743363D01*
X87790133Y-80743363D02*
X87790133Y-80543363D01*
X87885372Y-80638601D02*
X87952038Y-80638601D01*
X87980610Y-80743363D02*
X87885372Y-80743363D01*
X87885372Y-80743363D02*
X87885372Y-80543363D01*
X87885372Y-80543363D02*
X87980610Y-80543363D01*
X80675847Y-88483963D02*
X80675847Y-88283963D01*
X80675847Y-88283963D02*
X80790132Y-88483963D01*
X80790132Y-88483963D02*
X80790132Y-88283963D01*
X80913942Y-88483963D02*
X80894894Y-88474440D01*
X80894894Y-88474440D02*
X80885371Y-88464916D01*
X80885371Y-88464916D02*
X80875847Y-88445868D01*
X80875847Y-88445868D02*
X80875847Y-88388725D01*
X80875847Y-88388725D02*
X80885371Y-88369678D01*
X80885371Y-88369678D02*
X80894894Y-88360154D01*
X80894894Y-88360154D02*
X80913942Y-88350630D01*
X80913942Y-88350630D02*
X80942513Y-88350630D01*
X80942513Y-88350630D02*
X80961561Y-88360154D01*
X80961561Y-88360154D02*
X80971085Y-88369678D01*
X80971085Y-88369678D02*
X80980609Y-88388725D01*
X80980609Y-88388725D02*
X80980609Y-88445868D01*
X80980609Y-88445868D02*
X80971085Y-88464916D01*
X80971085Y-88464916D02*
X80961561Y-88474440D01*
X80961561Y-88474440D02*
X80942513Y-88483963D01*
X80942513Y-88483963D02*
X80913942Y-88483963D01*
X81285370Y-88379201D02*
X81218704Y-88379201D01*
X81218704Y-88483963D02*
X81218704Y-88283963D01*
X81218704Y-88283963D02*
X81313942Y-88283963D01*
X81390133Y-88464916D02*
X81399656Y-88474440D01*
X81399656Y-88474440D02*
X81390133Y-88483963D01*
X81390133Y-88483963D02*
X81380609Y-88474440D01*
X81380609Y-88474440D02*
X81390133Y-88464916D01*
X81390133Y-88464916D02*
X81390133Y-88483963D01*
X81599656Y-88464916D02*
X81590132Y-88474440D01*
X81590132Y-88474440D02*
X81561561Y-88483963D01*
X81561561Y-88483963D02*
X81542513Y-88483963D01*
X81542513Y-88483963D02*
X81513942Y-88474440D01*
X81513942Y-88474440D02*
X81494894Y-88455392D01*
X81494894Y-88455392D02*
X81485371Y-88436344D01*
X81485371Y-88436344D02*
X81475847Y-88398249D01*
X81475847Y-88398249D02*
X81475847Y-88369678D01*
X81475847Y-88369678D02*
X81485371Y-88331582D01*
X81485371Y-88331582D02*
X81494894Y-88312535D01*
X81494894Y-88312535D02*
X81513942Y-88293487D01*
X81513942Y-88293487D02*
X81542513Y-88283963D01*
X81542513Y-88283963D02*
X81561561Y-88283963D01*
X81561561Y-88283963D02*
X81590132Y-88293487D01*
X81590132Y-88293487D02*
X81599656Y-88303011D01*
X81771085Y-88350630D02*
X81771085Y-88483963D01*
X81685371Y-88350630D02*
X81685371Y-88455392D01*
X81685371Y-88455392D02*
X81694894Y-88474440D01*
X81694894Y-88474440D02*
X81713942Y-88483963D01*
X81713942Y-88483963D02*
X81742513Y-88483963D01*
X81742513Y-88483963D02*
X81761561Y-88474440D01*
X81761561Y-88474440D02*
X81771085Y-88464916D01*
X81990132Y-88350630D02*
X82066323Y-88350630D01*
X82018704Y-88283963D02*
X82018704Y-88455392D01*
X82018704Y-88455392D02*
X82028227Y-88474440D01*
X82028227Y-88474440D02*
X82047275Y-88483963D01*
X82047275Y-88483963D02*
X82066323Y-88483963D01*
X82132990Y-88483963D02*
X82132990Y-88350630D01*
X82132990Y-88388725D02*
X82142513Y-88369678D01*
X82142513Y-88369678D02*
X82152037Y-88360154D01*
X82152037Y-88360154D02*
X82171085Y-88350630D01*
X82171085Y-88350630D02*
X82190132Y-88350630D01*
X82342514Y-88483963D02*
X82342514Y-88379201D01*
X82342514Y-88379201D02*
X82332990Y-88360154D01*
X82332990Y-88360154D02*
X82313942Y-88350630D01*
X82313942Y-88350630D02*
X82275847Y-88350630D01*
X82275847Y-88350630D02*
X82256800Y-88360154D01*
X82342514Y-88474440D02*
X82323466Y-88483963D01*
X82323466Y-88483963D02*
X82275847Y-88483963D01*
X82275847Y-88483963D02*
X82256800Y-88474440D01*
X82256800Y-88474440D02*
X82247276Y-88455392D01*
X82247276Y-88455392D02*
X82247276Y-88436344D01*
X82247276Y-88436344D02*
X82256800Y-88417297D01*
X82256800Y-88417297D02*
X82275847Y-88407773D01*
X82275847Y-88407773D02*
X82323466Y-88407773D01*
X82323466Y-88407773D02*
X82342514Y-88398249D01*
X82523466Y-88474440D02*
X82504418Y-88483963D01*
X82504418Y-88483963D02*
X82466323Y-88483963D01*
X82466323Y-88483963D02*
X82447275Y-88474440D01*
X82447275Y-88474440D02*
X82437752Y-88464916D01*
X82437752Y-88464916D02*
X82428228Y-88445868D01*
X82428228Y-88445868D02*
X82428228Y-88388725D01*
X82428228Y-88388725D02*
X82437752Y-88369678D01*
X82437752Y-88369678D02*
X82447275Y-88360154D01*
X82447275Y-88360154D02*
X82466323Y-88350630D01*
X82466323Y-88350630D02*
X82504418Y-88350630D01*
X82504418Y-88350630D02*
X82523466Y-88360154D01*
X82609181Y-88483963D02*
X82609181Y-88283963D01*
X82628228Y-88407773D02*
X82685371Y-88483963D01*
X82685371Y-88350630D02*
X82609181Y-88426820D01*
X82761562Y-88474440D02*
X82780609Y-88483963D01*
X82780609Y-88483963D02*
X82818705Y-88483963D01*
X82818705Y-88483963D02*
X82837752Y-88474440D01*
X82837752Y-88474440D02*
X82847276Y-88455392D01*
X82847276Y-88455392D02*
X82847276Y-88445868D01*
X82847276Y-88445868D02*
X82837752Y-88426820D01*
X82837752Y-88426820D02*
X82818705Y-88417297D01*
X82818705Y-88417297D02*
X82790133Y-88417297D01*
X82790133Y-88417297D02*
X82771086Y-88407773D01*
X82771086Y-88407773D02*
X82761562Y-88388725D01*
X82761562Y-88388725D02*
X82761562Y-88379201D01*
X82761562Y-88379201D02*
X82771086Y-88360154D01*
X82771086Y-88360154D02*
X82790133Y-88350630D01*
X82790133Y-88350630D02*
X82818705Y-88350630D01*
X82818705Y-88350630D02*
X82837752Y-88360154D01*
X80542515Y-88083963D02*
X80542515Y-87883963D01*
X80656800Y-88083963D02*
X80571086Y-87969678D01*
X80656800Y-87883963D02*
X80542515Y-87998249D01*
X80742515Y-87979201D02*
X80809181Y-87979201D01*
X80837753Y-88083963D02*
X80742515Y-88083963D01*
X80742515Y-88083963D02*
X80742515Y-87883963D01*
X80742515Y-87883963D02*
X80837753Y-87883963D01*
X80923467Y-87979201D02*
X80990133Y-87979201D01*
X81018705Y-88083963D02*
X80923467Y-88083963D01*
X80923467Y-88083963D02*
X80923467Y-87883963D01*
X80923467Y-87883963D02*
X81018705Y-87883963D01*
X81104419Y-88083963D02*
X81104419Y-87883963D01*
X81104419Y-87883963D02*
X81180609Y-87883963D01*
X81180609Y-87883963D02*
X81199657Y-87893487D01*
X81199657Y-87893487D02*
X81209180Y-87903011D01*
X81209180Y-87903011D02*
X81218704Y-87922059D01*
X81218704Y-87922059D02*
X81218704Y-87950630D01*
X81218704Y-87950630D02*
X81209180Y-87969678D01*
X81209180Y-87969678D02*
X81199657Y-87979201D01*
X81199657Y-87979201D02*
X81180609Y-87988725D01*
X81180609Y-87988725D02*
X81104419Y-87988725D01*
X81304419Y-88007773D02*
X81456800Y-88007773D01*
X81590133Y-87883963D02*
X81628228Y-87883963D01*
X81628228Y-87883963D02*
X81647276Y-87893487D01*
X81647276Y-87893487D02*
X81666323Y-87912535D01*
X81666323Y-87912535D02*
X81675847Y-87950630D01*
X81675847Y-87950630D02*
X81675847Y-88017297D01*
X81675847Y-88017297D02*
X81666323Y-88055392D01*
X81666323Y-88055392D02*
X81647276Y-88074440D01*
X81647276Y-88074440D02*
X81628228Y-88083963D01*
X81628228Y-88083963D02*
X81590133Y-88083963D01*
X81590133Y-88083963D02*
X81571085Y-88074440D01*
X81571085Y-88074440D02*
X81552038Y-88055392D01*
X81552038Y-88055392D02*
X81542514Y-88017297D01*
X81542514Y-88017297D02*
X81542514Y-87950630D01*
X81542514Y-87950630D02*
X81552038Y-87912535D01*
X81552038Y-87912535D02*
X81571085Y-87893487D01*
X81571085Y-87893487D02*
X81590133Y-87883963D01*
X81761562Y-87883963D02*
X81761562Y-88045868D01*
X81761562Y-88045868D02*
X81771085Y-88064916D01*
X81771085Y-88064916D02*
X81780609Y-88074440D01*
X81780609Y-88074440D02*
X81799657Y-88083963D01*
X81799657Y-88083963D02*
X81837752Y-88083963D01*
X81837752Y-88083963D02*
X81856800Y-88074440D01*
X81856800Y-88074440D02*
X81866323Y-88064916D01*
X81866323Y-88064916D02*
X81875847Y-88045868D01*
X81875847Y-88045868D02*
X81875847Y-87883963D01*
X81942514Y-87883963D02*
X82056800Y-87883963D01*
X81999657Y-88083963D02*
X81999657Y-87883963D01*
X82256800Y-87883963D02*
X82390133Y-87883963D01*
X82390133Y-87883963D02*
X82256800Y-88083963D01*
X82256800Y-88083963D02*
X82390133Y-88083963D01*
X82504419Y-87883963D02*
X82542514Y-87883963D01*
X82542514Y-87883963D02*
X82561562Y-87893487D01*
X82561562Y-87893487D02*
X82580609Y-87912535D01*
X82580609Y-87912535D02*
X82590133Y-87950630D01*
X82590133Y-87950630D02*
X82590133Y-88017297D01*
X82590133Y-88017297D02*
X82580609Y-88055392D01*
X82580609Y-88055392D02*
X82561562Y-88074440D01*
X82561562Y-88074440D02*
X82542514Y-88083963D01*
X82542514Y-88083963D02*
X82504419Y-88083963D01*
X82504419Y-88083963D02*
X82485371Y-88074440D01*
X82485371Y-88074440D02*
X82466324Y-88055392D01*
X82466324Y-88055392D02*
X82456800Y-88017297D01*
X82456800Y-88017297D02*
X82456800Y-87950630D01*
X82456800Y-87950630D02*
X82466324Y-87912535D01*
X82466324Y-87912535D02*
X82485371Y-87893487D01*
X82485371Y-87893487D02*
X82504419Y-87883963D01*
X82675848Y-88083963D02*
X82675848Y-87883963D01*
X82675848Y-87883963D02*
X82790133Y-88083963D01*
X82790133Y-88083963D02*
X82790133Y-87883963D01*
X82885372Y-87979201D02*
X82952038Y-87979201D01*
X82980610Y-88083963D02*
X82885372Y-88083963D01*
X82885372Y-88083963D02*
X82885372Y-87883963D01*
X82885372Y-87883963D02*
X82980610Y-87883963D01*
X85542515Y-88083963D02*
X85542515Y-87883963D01*
X85656800Y-88083963D02*
X85571086Y-87969678D01*
X85656800Y-87883963D02*
X85542515Y-87998249D01*
X85742515Y-87979201D02*
X85809181Y-87979201D01*
X85837753Y-88083963D02*
X85742515Y-88083963D01*
X85742515Y-88083963D02*
X85742515Y-87883963D01*
X85742515Y-87883963D02*
X85837753Y-87883963D01*
X85923467Y-87979201D02*
X85990133Y-87979201D01*
X86018705Y-88083963D02*
X85923467Y-88083963D01*
X85923467Y-88083963D02*
X85923467Y-87883963D01*
X85923467Y-87883963D02*
X86018705Y-87883963D01*
X86104419Y-88083963D02*
X86104419Y-87883963D01*
X86104419Y-87883963D02*
X86180609Y-87883963D01*
X86180609Y-87883963D02*
X86199657Y-87893487D01*
X86199657Y-87893487D02*
X86209180Y-87903011D01*
X86209180Y-87903011D02*
X86218704Y-87922059D01*
X86218704Y-87922059D02*
X86218704Y-87950630D01*
X86218704Y-87950630D02*
X86209180Y-87969678D01*
X86209180Y-87969678D02*
X86199657Y-87979201D01*
X86199657Y-87979201D02*
X86180609Y-87988725D01*
X86180609Y-87988725D02*
X86104419Y-87988725D01*
X86304419Y-88007773D02*
X86456800Y-88007773D01*
X86590133Y-87883963D02*
X86628228Y-87883963D01*
X86628228Y-87883963D02*
X86647276Y-87893487D01*
X86647276Y-87893487D02*
X86666323Y-87912535D01*
X86666323Y-87912535D02*
X86675847Y-87950630D01*
X86675847Y-87950630D02*
X86675847Y-88017297D01*
X86675847Y-88017297D02*
X86666323Y-88055392D01*
X86666323Y-88055392D02*
X86647276Y-88074440D01*
X86647276Y-88074440D02*
X86628228Y-88083963D01*
X86628228Y-88083963D02*
X86590133Y-88083963D01*
X86590133Y-88083963D02*
X86571085Y-88074440D01*
X86571085Y-88074440D02*
X86552038Y-88055392D01*
X86552038Y-88055392D02*
X86542514Y-88017297D01*
X86542514Y-88017297D02*
X86542514Y-87950630D01*
X86542514Y-87950630D02*
X86552038Y-87912535D01*
X86552038Y-87912535D02*
X86571085Y-87893487D01*
X86571085Y-87893487D02*
X86590133Y-87883963D01*
X86761562Y-87883963D02*
X86761562Y-88045868D01*
X86761562Y-88045868D02*
X86771085Y-88064916D01*
X86771085Y-88064916D02*
X86780609Y-88074440D01*
X86780609Y-88074440D02*
X86799657Y-88083963D01*
X86799657Y-88083963D02*
X86837752Y-88083963D01*
X86837752Y-88083963D02*
X86856800Y-88074440D01*
X86856800Y-88074440D02*
X86866323Y-88064916D01*
X86866323Y-88064916D02*
X86875847Y-88045868D01*
X86875847Y-88045868D02*
X86875847Y-87883963D01*
X86942514Y-87883963D02*
X87056800Y-87883963D01*
X86999657Y-88083963D02*
X86999657Y-87883963D01*
X87256800Y-87883963D02*
X87390133Y-87883963D01*
X87390133Y-87883963D02*
X87256800Y-88083963D01*
X87256800Y-88083963D02*
X87390133Y-88083963D01*
X87504419Y-87883963D02*
X87542514Y-87883963D01*
X87542514Y-87883963D02*
X87561562Y-87893487D01*
X87561562Y-87893487D02*
X87580609Y-87912535D01*
X87580609Y-87912535D02*
X87590133Y-87950630D01*
X87590133Y-87950630D02*
X87590133Y-88017297D01*
X87590133Y-88017297D02*
X87580609Y-88055392D01*
X87580609Y-88055392D02*
X87561562Y-88074440D01*
X87561562Y-88074440D02*
X87542514Y-88083963D01*
X87542514Y-88083963D02*
X87504419Y-88083963D01*
X87504419Y-88083963D02*
X87485371Y-88074440D01*
X87485371Y-88074440D02*
X87466324Y-88055392D01*
X87466324Y-88055392D02*
X87456800Y-88017297D01*
X87456800Y-88017297D02*
X87456800Y-87950630D01*
X87456800Y-87950630D02*
X87466324Y-87912535D01*
X87466324Y-87912535D02*
X87485371Y-87893487D01*
X87485371Y-87893487D02*
X87504419Y-87883963D01*
X87675848Y-88083963D02*
X87675848Y-87883963D01*
X87675848Y-87883963D02*
X87790133Y-88083963D01*
X87790133Y-88083963D02*
X87790133Y-87883963D01*
X87885372Y-87979201D02*
X87952038Y-87979201D01*
X87980610Y-88083963D02*
X87885372Y-88083963D01*
X87885372Y-88083963D02*
X87885372Y-87883963D01*
X87885372Y-87883963D02*
X87980610Y-87883963D01*
X85675847Y-88483963D02*
X85675847Y-88283963D01*
X85675847Y-88283963D02*
X85790132Y-88483963D01*
X85790132Y-88483963D02*
X85790132Y-88283963D01*
X85913942Y-88483963D02*
X85894894Y-88474440D01*
X85894894Y-88474440D02*
X85885371Y-88464916D01*
X85885371Y-88464916D02*
X85875847Y-88445868D01*
X85875847Y-88445868D02*
X85875847Y-88388725D01*
X85875847Y-88388725D02*
X85885371Y-88369678D01*
X85885371Y-88369678D02*
X85894894Y-88360154D01*
X85894894Y-88360154D02*
X85913942Y-88350630D01*
X85913942Y-88350630D02*
X85942513Y-88350630D01*
X85942513Y-88350630D02*
X85961561Y-88360154D01*
X85961561Y-88360154D02*
X85971085Y-88369678D01*
X85971085Y-88369678D02*
X85980609Y-88388725D01*
X85980609Y-88388725D02*
X85980609Y-88445868D01*
X85980609Y-88445868D02*
X85971085Y-88464916D01*
X85971085Y-88464916D02*
X85961561Y-88474440D01*
X85961561Y-88474440D02*
X85942513Y-88483963D01*
X85942513Y-88483963D02*
X85913942Y-88483963D01*
X86285370Y-88379201D02*
X86218704Y-88379201D01*
X86218704Y-88483963D02*
X86218704Y-88283963D01*
X86218704Y-88283963D02*
X86313942Y-88283963D01*
X86390133Y-88464916D02*
X86399656Y-88474440D01*
X86399656Y-88474440D02*
X86390133Y-88483963D01*
X86390133Y-88483963D02*
X86380609Y-88474440D01*
X86380609Y-88474440D02*
X86390133Y-88464916D01*
X86390133Y-88464916D02*
X86390133Y-88483963D01*
X86599656Y-88464916D02*
X86590132Y-88474440D01*
X86590132Y-88474440D02*
X86561561Y-88483963D01*
X86561561Y-88483963D02*
X86542513Y-88483963D01*
X86542513Y-88483963D02*
X86513942Y-88474440D01*
X86513942Y-88474440D02*
X86494894Y-88455392D01*
X86494894Y-88455392D02*
X86485371Y-88436344D01*
X86485371Y-88436344D02*
X86475847Y-88398249D01*
X86475847Y-88398249D02*
X86475847Y-88369678D01*
X86475847Y-88369678D02*
X86485371Y-88331582D01*
X86485371Y-88331582D02*
X86494894Y-88312535D01*
X86494894Y-88312535D02*
X86513942Y-88293487D01*
X86513942Y-88293487D02*
X86542513Y-88283963D01*
X86542513Y-88283963D02*
X86561561Y-88283963D01*
X86561561Y-88283963D02*
X86590132Y-88293487D01*
X86590132Y-88293487D02*
X86599656Y-88303011D01*
X86771085Y-88350630D02*
X86771085Y-88483963D01*
X86685371Y-88350630D02*
X86685371Y-88455392D01*
X86685371Y-88455392D02*
X86694894Y-88474440D01*
X86694894Y-88474440D02*
X86713942Y-88483963D01*
X86713942Y-88483963D02*
X86742513Y-88483963D01*
X86742513Y-88483963D02*
X86761561Y-88474440D01*
X86761561Y-88474440D02*
X86771085Y-88464916D01*
X86990132Y-88350630D02*
X87066323Y-88350630D01*
X87018704Y-88283963D02*
X87018704Y-88455392D01*
X87018704Y-88455392D02*
X87028227Y-88474440D01*
X87028227Y-88474440D02*
X87047275Y-88483963D01*
X87047275Y-88483963D02*
X87066323Y-88483963D01*
X87132990Y-88483963D02*
X87132990Y-88350630D01*
X87132990Y-88388725D02*
X87142513Y-88369678D01*
X87142513Y-88369678D02*
X87152037Y-88360154D01*
X87152037Y-88360154D02*
X87171085Y-88350630D01*
X87171085Y-88350630D02*
X87190132Y-88350630D01*
X87342514Y-88483963D02*
X87342514Y-88379201D01*
X87342514Y-88379201D02*
X87332990Y-88360154D01*
X87332990Y-88360154D02*
X87313942Y-88350630D01*
X87313942Y-88350630D02*
X87275847Y-88350630D01*
X87275847Y-88350630D02*
X87256800Y-88360154D01*
X87342514Y-88474440D02*
X87323466Y-88483963D01*
X87323466Y-88483963D02*
X87275847Y-88483963D01*
X87275847Y-88483963D02*
X87256800Y-88474440D01*
X87256800Y-88474440D02*
X87247276Y-88455392D01*
X87247276Y-88455392D02*
X87247276Y-88436344D01*
X87247276Y-88436344D02*
X87256800Y-88417297D01*
X87256800Y-88417297D02*
X87275847Y-88407773D01*
X87275847Y-88407773D02*
X87323466Y-88407773D01*
X87323466Y-88407773D02*
X87342514Y-88398249D01*
X87523466Y-88474440D02*
X87504418Y-88483963D01*
X87504418Y-88483963D02*
X87466323Y-88483963D01*
X87466323Y-88483963D02*
X87447275Y-88474440D01*
X87447275Y-88474440D02*
X87437752Y-88464916D01*
X87437752Y-88464916D02*
X87428228Y-88445868D01*
X87428228Y-88445868D02*
X87428228Y-88388725D01*
X87428228Y-88388725D02*
X87437752Y-88369678D01*
X87437752Y-88369678D02*
X87447275Y-88360154D01*
X87447275Y-88360154D02*
X87466323Y-88350630D01*
X87466323Y-88350630D02*
X87504418Y-88350630D01*
X87504418Y-88350630D02*
X87523466Y-88360154D01*
X87609181Y-88483963D02*
X87609181Y-88283963D01*
X87628228Y-88407773D02*
X87685371Y-88483963D01*
X87685371Y-88350630D02*
X87609181Y-88426820D01*
X87761562Y-88474440D02*
X87780609Y-88483963D01*
X87780609Y-88483963D02*
X87818705Y-88483963D01*
X87818705Y-88483963D02*
X87837752Y-88474440D01*
X87837752Y-88474440D02*
X87847276Y-88455392D01*
X87847276Y-88455392D02*
X87847276Y-88445868D01*
X87847276Y-88445868D02*
X87837752Y-88426820D01*
X87837752Y-88426820D02*
X87818705Y-88417297D01*
X87818705Y-88417297D02*
X87790133Y-88417297D01*
X87790133Y-88417297D02*
X87771086Y-88407773D01*
X87771086Y-88407773D02*
X87761562Y-88388725D01*
X87761562Y-88388725D02*
X87761562Y-88379201D01*
X87761562Y-88379201D02*
X87771086Y-88360154D01*
X87771086Y-88360154D02*
X87790133Y-88350630D01*
X87790133Y-88350630D02*
X87818705Y-88350630D01*
X87818705Y-88350630D02*
X87837752Y-88360154D01*
M02*
