%TF.GenerationSoftware,KiCad,Pcbnew,8.0.3*%
%TF.CreationDate,2025-07-14T16:27:36+02:00*%
%TF.ProjectId,distributionPCB,64697374-7269-4627-9574-696f6e504342,rev?*%
%TF.SameCoordinates,Original*%
%TF.FileFunction,Copper,L1,Top*%
%TF.FilePolarity,Positive*%
%FSLAX46Y46*%
G04 Gerber Fmt 4.6, Leading zero omitted, Abs format (unit mm)*
G04 Created by KiCad (PCBNEW 8.0.3) date 2025-07-14 16:27:36*
%MOMM*%
%LPD*%
G01*
G04 APERTURE LIST*
G04 Aperture macros list*
%AMRoundRect*
0 Rectangle with rounded corners*
0 $1 Rounding radius*
0 $2 $3 $4 $5 $6 $7 $8 $9 X,Y pos of 4 corners*
0 Add a 4 corners polygon primitive as box body*
4,1,4,$2,$3,$4,$5,$6,$7,$8,$9,$2,$3,0*
0 Add four circle primitives for the rounded corners*
1,1,$1+$1,$2,$3*
1,1,$1+$1,$4,$5*
1,1,$1+$1,$6,$7*
1,1,$1+$1,$8,$9*
0 Add four rect primitives between the rounded corners*
20,1,$1+$1,$2,$3,$4,$5,0*
20,1,$1+$1,$4,$5,$6,$7,0*
20,1,$1+$1,$6,$7,$8,$9,0*
20,1,$1+$1,$8,$9,$2,$3,0*%
G04 Aperture macros list end*
%TA.AperFunction,SMDPad,CuDef*%
%ADD10RoundRect,0.200000X0.200000X0.275000X-0.200000X0.275000X-0.200000X-0.275000X0.200000X-0.275000X0*%
%TD*%
%TA.AperFunction,SMDPad,CuDef*%
%ADD11RoundRect,0.200000X0.275000X-0.200000X0.275000X0.200000X-0.275000X0.200000X-0.275000X-0.200000X0*%
%TD*%
%TA.AperFunction,ComponentPad*%
%ADD12R,1.700000X1.700000*%
%TD*%
%TA.AperFunction,ComponentPad*%
%ADD13O,1.700000X1.700000*%
%TD*%
%TA.AperFunction,SMDPad,CuDef*%
%ADD14RoundRect,0.243750X0.456250X-0.243750X0.456250X0.243750X-0.456250X0.243750X-0.456250X-0.243750X0*%
%TD*%
%TA.AperFunction,SMDPad,CuDef*%
%ADD15RoundRect,0.243750X-0.456250X0.243750X-0.456250X-0.243750X0.456250X-0.243750X0.456250X0.243750X0*%
%TD*%
%TA.AperFunction,SMDPad,CuDef*%
%ADD16R,1.800000X1.100000*%
%TD*%
%TA.AperFunction,WasherPad*%
%ADD17C,1.700000*%
%TD*%
%TA.AperFunction,ComponentPad*%
%ADD18C,3.000000*%
%TD*%
%TA.AperFunction,ComponentPad*%
%ADD19O,2.000000X4.000000*%
%TD*%
%TA.AperFunction,ComponentPad*%
%ADD20O,3.500000X2.000000*%
%TD*%
%TA.AperFunction,ComponentPad*%
%ADD21R,1.500000X1.500000*%
%TD*%
%TA.AperFunction,ComponentPad*%
%ADD22C,1.500000*%
%TD*%
%TA.AperFunction,ViaPad*%
%ADD23C,0.800000*%
%TD*%
%TA.AperFunction,ViaPad*%
%ADD24C,0.600000*%
%TD*%
%TA.AperFunction,Conductor*%
%ADD25C,0.250000*%
%TD*%
%TA.AperFunction,Conductor*%
%ADD26C,0.381000*%
%TD*%
%TA.AperFunction,Conductor*%
%ADD27C,0.635000*%
%TD*%
%TA.AperFunction,Conductor*%
%ADD28C,0.254000*%
%TD*%
G04 APERTURE END LIST*
D10*
%TO.P,R5,1*%
%TO.N,Net-(D2-A)*%
X92234000Y-76280000D03*
%TO.P,R5,2*%
%TO.N,+5V*%
X90584000Y-76280000D03*
%TD*%
D11*
%TO.P,R18,1*%
%TO.N,Net-(D10-A)*%
X105819001Y-129984000D03*
%TO.P,R18,2*%
%TO.N,LED1*%
X105819001Y-128334000D03*
%TD*%
D12*
%TO.P,J6,1,Pin_1*%
%TO.N,+12V*%
X195306000Y-83015000D03*
D13*
%TO.P,J6,2,Pin_2*%
%TO.N,-12V*%
X192766000Y-83015000D03*
%TO.P,J6,3,Pin_3*%
%TO.N,+5V*%
X195306000Y-85555000D03*
%TO.P,J6,4,Pin_4*%
X192766000Y-85555000D03*
%TO.P,J6,5,Pin_5*%
%TO.N,AO0*%
X195306000Y-88095000D03*
%TO.P,J6,6,Pin_6*%
%TO.N,AO1*%
X192766000Y-88095000D03*
%TO.P,J6,7,Pin_7*%
%TO.N,Res0*%
X195306000Y-90635000D03*
%TO.P,J6,8,Pin_8*%
%TO.N,Res2*%
X192766000Y-90635000D03*
%TO.P,J6,9,Pin_9*%
%TO.N,AI0+*%
X195306000Y-93175000D03*
%TO.P,J6,10,Pin_10*%
%TO.N,AI0-*%
X192766000Y-93175000D03*
%TO.P,J6,11,Pin_11*%
%TO.N,Res1*%
X195306000Y-95715000D03*
%TO.P,J6,12,Pin_12*%
%TO.N,Res3*%
X192766000Y-95715000D03*
%TO.P,J6,13,Pin_13*%
%TO.N,AI1+*%
X195306000Y-98255000D03*
%TO.P,J6,14,Pin_14*%
%TO.N,AI1-*%
X192766000Y-98255000D03*
%TO.P,J6,15,Pin_15*%
%TO.N,GND*%
X195306000Y-100795000D03*
%TO.P,J6,16,Pin_16*%
X192766000Y-100795000D03*
%TD*%
D14*
%TO.P,D13,1,K*%
%TO.N,GND*%
X113576200Y-133947100D03*
%TO.P,D13,2,A*%
%TO.N,Net-(D13-A)*%
X113576200Y-132072100D03*
%TD*%
D15*
%TO.P,D3,1,K*%
%TO.N,Net-(D3-K)*%
X91090600Y-79934900D03*
%TO.P,D3,2,A*%
%TO.N,Net-(D3-A)*%
X91090600Y-81809900D03*
%TD*%
D16*
%TO.P,SW7,1,1*%
%TO.N,DIO6*%
X81156800Y-108492200D03*
X87356800Y-108492200D03*
%TO.P,SW7,2,2*%
%TO.N,Net-(R24-Pad2)*%
X81156800Y-112192200D03*
X87356800Y-112192200D03*
%TD*%
D11*
%TO.P,R20,1*%
%TO.N,Net-(D12-A)*%
X109318999Y-129984000D03*
%TO.P,R20,2*%
%TO.N,LED3*%
X109318999Y-128334000D03*
%TD*%
D16*
%TO.P,SW8,1,1*%
%TO.N,DIO7*%
X81156800Y-115857800D03*
X87356800Y-115857800D03*
%TO.P,SW8,2,2*%
%TO.N,Net-(R27-Pad2)*%
X81156800Y-119557800D03*
X87356800Y-119557800D03*
%TD*%
%TO.P,SW6,1,1*%
%TO.N,DIO5*%
X81156800Y-101075000D03*
X87356800Y-101075000D03*
%TO.P,SW6,2,2*%
%TO.N,Net-(R15-Pad2)*%
X81156800Y-104775000D03*
X87356800Y-104775000D03*
%TD*%
D10*
%TO.P,R26,1*%
%TO.N,Net-(D7-A)*%
X92398200Y-113150600D03*
%TO.P,R26,2*%
%TO.N,+5V*%
X90748200Y-113150600D03*
%TD*%
D15*
%TO.P,D2,1,K*%
%TO.N,Net-(D2-K)*%
X90911600Y-72594300D03*
%TO.P,D2,2,A*%
%TO.N,Net-(D2-A)*%
X90911600Y-74469300D03*
%TD*%
D10*
%TO.P,R12,1*%
%TO.N,+5V*%
X89009400Y-99218200D03*
%TO.P,R12,2*%
%TO.N,Net-(R12-Pad2)*%
X87359400Y-99218200D03*
%TD*%
D15*
%TO.P,D1,1,K*%
%TO.N,Net-(D1-K)*%
X90860800Y-65283300D03*
%TO.P,D1,2,A*%
%TO.N,Net-(D1-A)*%
X90860800Y-67158300D03*
%TD*%
D10*
%TO.P,R22,1*%
%TO.N,Net-(D6-A)*%
X92413000Y-105727000D03*
%TO.P,R22,2*%
%TO.N,+5V*%
X90763000Y-105727000D03*
%TD*%
D11*
%TO.P,R21,1*%
%TO.N,Net-(D13-A)*%
X111069000Y-129984000D03*
%TO.P,R21,2*%
%TO.N,LED4*%
X111069000Y-128334000D03*
%TD*%
D14*
%TO.P,D9,1,K*%
%TO.N,GND*%
X101536200Y-133947100D03*
%TO.P,D9,2,A*%
%TO.N,Net-(D9-A)*%
X101536200Y-132072100D03*
%TD*%
D16*
%TO.P,SW2,1,1*%
%TO.N,DIO0*%
X81156800Y-64350800D03*
X87356800Y-64350800D03*
%TO.P,SW2,2,2*%
%TO.N,Net-(R23-Pad2)*%
X81156800Y-68050800D03*
X87356800Y-68050800D03*
%TD*%
D10*
%TO.P,R6,1*%
%TO.N,+5V*%
X89018800Y-84531200D03*
%TO.P,R6,2*%
%TO.N,Net-(R6-Pad2)*%
X87368800Y-84531200D03*
%TD*%
D11*
%TO.P,R17,1*%
%TO.N,Net-(D9-A)*%
X104069000Y-129984000D03*
%TO.P,R17,2*%
%TO.N,CHARGE*%
X104069000Y-128334000D03*
%TD*%
D10*
%TO.P,R23,1*%
%TO.N,+5V*%
X89008200Y-69858000D03*
%TO.P,R23,2*%
%TO.N,Net-(R23-Pad2)*%
X87358200Y-69858000D03*
%TD*%
%TO.P,R24,1*%
%TO.N,+5V*%
X89009400Y-114014200D03*
%TO.P,R24,2*%
%TO.N,Net-(R24-Pad2)*%
X87359400Y-114014200D03*
%TD*%
D14*
%TO.P,D10,1,K*%
%TO.N,GND*%
X104546200Y-133947100D03*
%TO.P,D10,2,A*%
%TO.N,Net-(D10-A)*%
X104546200Y-132072100D03*
%TD*%
D10*
%TO.P,R15,1*%
%TO.N,+5V*%
X88984000Y-106641400D03*
%TO.P,R15,2*%
%TO.N,Net-(R15-Pad2)*%
X87334000Y-106641400D03*
%TD*%
D14*
%TO.P,D11,1,K*%
%TO.N,GND*%
X107556200Y-133947100D03*
%TO.P,D11,2,A*%
%TO.N,Net-(D11-A)*%
X107556200Y-132072100D03*
%TD*%
D10*
%TO.P,R2,1*%
%TO.N,Net-(D1-A)*%
X92183200Y-68969000D03*
%TO.P,R2,2*%
%TO.N,+5V*%
X90533200Y-68969000D03*
%TD*%
D16*
%TO.P,SW5,1,1*%
%TO.N,DIO4*%
X81156800Y-93683600D03*
X87356800Y-93683600D03*
%TO.P,SW5,2,2*%
%TO.N,Net-(R12-Pad2)*%
X81156800Y-97383600D03*
X87356800Y-97383600D03*
%TD*%
D14*
%TO.P,D12,1,K*%
%TO.N,GND*%
X110566200Y-133947100D03*
%TO.P,D12,2,A*%
%TO.N,Net-(D12-A)*%
X110566200Y-132072100D03*
%TD*%
D16*
%TO.P,SW1,1,1*%
%TO.N,DIO1*%
X81156800Y-71661800D03*
X87356800Y-71661800D03*
%TO.P,SW1,2,2*%
%TO.N,Net-(R3-Pad2)*%
X81156800Y-75361800D03*
X87356800Y-75361800D03*
%TD*%
D15*
%TO.P,D6,1,K*%
%TO.N,Net-(D6-K)*%
X91090600Y-102007500D03*
%TO.P,D6,2,A*%
%TO.N,Net-(D6-A)*%
X91090600Y-103882500D03*
%TD*%
D16*
%TO.P,SW3,1,1*%
%TO.N,DIO2*%
X81156800Y-79002400D03*
X87356800Y-79002400D03*
%TO.P,SW3,2,2*%
%TO.N,Net-(R6-Pad2)*%
X81156800Y-82702400D03*
X87356800Y-82702400D03*
%TD*%
D12*
%TO.P,J2,1,Pin_1*%
%TO.N,+5V*%
X108946000Y-80475000D03*
D13*
%TO.P,J2,2,Pin_2*%
X106406000Y-80475000D03*
%TO.P,J2,3,Pin_3*%
%TO.N,DIO8*%
X108946000Y-83015000D03*
%TO.P,J2,4,Pin_4*%
%TO.N,DIO0*%
X106406000Y-83015000D03*
%TO.P,J2,5,Pin_5*%
%TO.N,DIO9*%
X108946000Y-85555000D03*
%TO.P,J2,6,Pin_6*%
%TO.N,DIO1*%
X106406000Y-85555000D03*
%TO.P,J2,7,Pin_7*%
%TO.N,DIO10*%
X108946000Y-88095000D03*
%TO.P,J2,8,Pin_8*%
%TO.N,DIO2*%
X106406000Y-88095000D03*
%TO.P,J2,9,Pin_9*%
%TO.N,DIO11*%
X108946000Y-90635000D03*
%TO.P,J2,10,Pin_10*%
%TO.N,DIO3*%
X106406000Y-90635000D03*
%TO.P,J2,11,Pin_11*%
%TO.N,DIO12*%
X108946000Y-93175000D03*
%TO.P,J2,12,Pin_12*%
%TO.N,DIO4*%
X106406000Y-93175000D03*
%TO.P,J2,13,Pin_13*%
%TO.N,DIO13*%
X108946000Y-95715000D03*
%TO.P,J2,14,Pin_14*%
%TO.N,DIO5*%
X106406000Y-95715000D03*
%TO.P,J2,15,Pin_15*%
%TO.N,DIO14*%
X108946000Y-98255000D03*
%TO.P,J2,16,Pin_16*%
%TO.N,DIO6*%
X106406000Y-98255000D03*
%TO.P,J2,17,Pin_17*%
%TO.N,DIO15*%
X108946000Y-100795000D03*
%TO.P,J2,18,Pin_18*%
%TO.N,DIO7*%
X106406000Y-100795000D03*
%TO.P,J2,19,Pin_19*%
%TO.N,GND*%
X108946000Y-103335000D03*
%TO.P,J2,20,Pin_20*%
X106406000Y-103335000D03*
%TD*%
D10*
%TO.P,R29,1*%
%TO.N,Net-(D8-A)*%
X92413000Y-120471800D03*
%TO.P,R29,2*%
%TO.N,+5V*%
X90763000Y-120471800D03*
%TD*%
D15*
%TO.P,D7,1,K*%
%TO.N,Net-(D7-K)*%
X91090600Y-109424700D03*
%TO.P,D7,2,A*%
%TO.N,Net-(D7-A)*%
X91090600Y-111299700D03*
%TD*%
D10*
%TO.P,R11,1*%
%TO.N,Net-(D4-A)*%
X92413000Y-90982200D03*
%TO.P,R11,2*%
%TO.N,+5V*%
X90763000Y-90982200D03*
%TD*%
D15*
%TO.P,D5,1,K*%
%TO.N,Net-(D5-K)*%
X91090600Y-94616100D03*
%TO.P,D5,2,A*%
%TO.N,Net-(D5-A)*%
X91090600Y-96491100D03*
%TD*%
D16*
%TO.P,SW4,1,1*%
%TO.N,DIO3*%
X81156800Y-86343000D03*
X87356800Y-86343000D03*
%TO.P,SW4,2,2*%
%TO.N,Net-(R9-Pad2)*%
X81156800Y-90043000D03*
X87356800Y-90043000D03*
%TD*%
D10*
%TO.P,R14,1*%
%TO.N,Net-(D5-A)*%
X92413000Y-98329200D03*
%TO.P,R14,2*%
%TO.N,+5V*%
X90763000Y-98329200D03*
%TD*%
D11*
%TO.P,R19,1*%
%TO.N,Net-(D11-A)*%
X107569000Y-129984000D03*
%TO.P,R19,2*%
%TO.N,LED2*%
X107569000Y-128334000D03*
%TD*%
D10*
%TO.P,R27,1*%
%TO.N,+5V*%
X89009400Y-121386200D03*
%TO.P,R27,2*%
%TO.N,Net-(R27-Pad2)*%
X87359400Y-121386200D03*
%TD*%
%TO.P,R9,1*%
%TO.N,+5V*%
X89009400Y-91871200D03*
%TO.P,R9,2*%
%TO.N,Net-(R9-Pad2)*%
X87359400Y-91871200D03*
%TD*%
%TO.P,R8,1*%
%TO.N,Net-(D3-A)*%
X92413000Y-83635200D03*
%TO.P,R8,2*%
%TO.N,+5V*%
X90763000Y-83635200D03*
%TD*%
%TO.P,R3,1*%
%TO.N,+5V*%
X89059000Y-77194400D03*
%TO.P,R3,2*%
%TO.N,Net-(R3-Pad2)*%
X87409000Y-77194400D03*
%TD*%
D15*
%TO.P,D8,1,K*%
%TO.N,Net-(D8-K)*%
X91090600Y-116790300D03*
%TO.P,D8,2,A*%
%TO.N,Net-(D8-A)*%
X91090600Y-118665300D03*
%TD*%
%TO.P,D4,1,K*%
%TO.N,Net-(D4-K)*%
X91090600Y-87275500D03*
%TO.P,D4,2,A*%
%TO.N,Net-(D4-A)*%
X91090600Y-89150500D03*
%TD*%
D17*
%TO.P,J1,*%
%TO.N,*%
X160175000Y-111000000D03*
D18*
%TO.P,J1,1*%
%TO.N,Net-(Q9-D)*%
X171125000Y-111000000D03*
D19*
%TO.P,J1,2*%
%TO.N,GND*%
X163425000Y-111000000D03*
D20*
%TO.P,J1,MP*%
%TO.N,N/C*%
X162925000Y-115850000D03*
X167625000Y-115850000D03*
X162925000Y-106150000D03*
X167625000Y-106150000D03*
%TD*%
D21*
%TO.P,U1,1,+Vin*%
%TO.N,VCC*%
X207441800Y-99288600D03*
D22*
%TO.P,U1,2,-Vin*%
%TO.N,GND*%
X207441800Y-96748600D03*
%TO.P,U1,4,-Vout*%
%TO.N,-12V*%
X207441800Y-91668600D03*
%TO.P,U1,5,Com*%
%TO.N,GND*%
X207441800Y-89128600D03*
%TO.P,U1,6,+Vout*%
%TO.N,+12V*%
X207441800Y-86588600D03*
%TD*%
D23*
%TO.N,Net-(D1-K)*%
X92247200Y-66200800D03*
D24*
%TO.N,DIO0*%
X90926400Y-63635000D03*
%TO.N,DIO1*%
X90977200Y-70920600D03*
%TO.N,DIO2*%
X91207000Y-78250400D03*
%TO.N,DIO3*%
X91156200Y-85572000D03*
%TO.N,DIO4*%
X91181600Y-92893600D03*
%TO.N,DIO5*%
X91181600Y-100291400D03*
%TO.N,DIO6*%
X91181600Y-107664200D03*
%TO.N,DIO7*%
X91156200Y-114883800D03*
D23*
%TO.N,GND*%
X206222600Y-113741200D03*
X207365600Y-120446800D03*
X204190600Y-106680000D03*
X174802800Y-108585000D03*
X206222600Y-112776000D03*
%TO.N,+5V*%
X203098400Y-109220000D03*
X204010800Y-116431600D03*
D24*
X89504000Y-76280000D03*
X89504000Y-98329200D03*
X89504000Y-120471800D03*
X89504000Y-113150600D03*
X89504000Y-68969000D03*
X89504000Y-90982800D03*
X89504000Y-105727000D03*
X89504000Y-83635200D03*
%TO.N,Res1*%
X188468000Y-90678000D03*
D23*
%TO.N,Net-(D2-K)*%
X92298000Y-73536800D03*
%TO.N,Net-(D3-K)*%
X92477000Y-80993600D03*
%TO.N,Net-(D4-K)*%
X92477000Y-88193000D03*
%TO.N,Net-(D5-K)*%
X92477000Y-95533600D03*
%TO.N,Net-(D6-K)*%
X92477000Y-102925000D03*
%TO.N,Net-(D7-K)*%
X92477000Y-110342200D03*
%TO.N,Net-(D8-K)*%
X92477000Y-117707800D03*
D24*
%TO.N,CHARGE*%
X104063800Y-127508000D03*
%TO.N,LED1*%
X105816400Y-127508000D03*
%TO.N,LED2*%
X107569000Y-127508000D03*
%TO.N,LED3*%
X109321600Y-127508000D03*
%TO.N,LED4*%
X111074200Y-127508000D03*
%TD*%
D25*
%TO.N,Net-(D1-K)*%
X92015900Y-65283300D02*
X92247200Y-65514600D01*
X90860800Y-65283300D02*
X92015900Y-65283300D01*
X92247200Y-65514600D02*
X92247200Y-66200800D01*
%TO.N,Net-(D1-A)*%
X90860800Y-67158300D02*
X91071500Y-67158300D01*
X90865400Y-67162900D02*
X90860800Y-67158300D01*
X91071500Y-67158300D02*
X92183200Y-68270000D01*
X92183200Y-68270000D02*
X92183200Y-68969000D01*
%TO.N,DIO0*%
X81156800Y-64350800D02*
X87356800Y-64350800D01*
X89186500Y-64130300D02*
X89377000Y-63939800D01*
D26*
X90926400Y-63635000D02*
X95639000Y-63635000D01*
D25*
X93226000Y-63635000D02*
X90926400Y-63635000D01*
X87356800Y-64350800D02*
X88966000Y-64350800D01*
D26*
X102489000Y-70485000D02*
X102489000Y-79121000D01*
D25*
X90926400Y-63635000D02*
X89681800Y-63635000D01*
D26*
X95639000Y-63635000D02*
X102489000Y-70485000D01*
X102489000Y-79121000D02*
X106383000Y-83015000D01*
D25*
X88966000Y-64350800D02*
X89186500Y-64130300D01*
D26*
X106383000Y-83015000D02*
X106406000Y-83015000D01*
D25*
X89681800Y-63635000D02*
X89186500Y-64130300D01*
%TO.N,DIO1*%
X90236000Y-71661800D02*
X90977200Y-70920600D01*
D26*
X101908000Y-74222000D02*
X101908000Y-81057000D01*
X98606600Y-70920600D02*
X101908000Y-74222000D01*
D25*
X87356800Y-71661800D02*
X90236000Y-71661800D01*
X81156800Y-71661800D02*
X87356800Y-71661800D01*
D26*
X101908000Y-81057000D02*
X106406000Y-85555000D01*
X90977200Y-70920600D02*
X98606600Y-70920600D01*
D25*
X87356800Y-71661800D02*
X89042200Y-71661800D01*
D26*
%TO.N,DIO2*%
X101327000Y-79610000D02*
X101327000Y-83016000D01*
D25*
X81156800Y-79002400D02*
X87356800Y-79002400D01*
X87356800Y-79002400D02*
X90455000Y-79002400D01*
X90455000Y-79002400D02*
X91207000Y-78250400D01*
D26*
X99967400Y-78250400D02*
X101327000Y-79610000D01*
X91207000Y-78250400D02*
X99967400Y-78250400D01*
X101327000Y-83016000D02*
X106406000Y-88095000D01*
D25*
%TO.N,DIO3*%
X87356800Y-86343000D02*
X90385200Y-86343000D01*
D26*
X91156200Y-85572000D02*
X101343000Y-85572000D01*
X101343000Y-85572000D02*
X106406000Y-90635000D01*
D25*
X90385200Y-86343000D02*
X91156200Y-85572000D01*
X81156800Y-86343000D02*
X87356800Y-86343000D01*
%TO.N,DIO4*%
X81156800Y-93683600D02*
X87356800Y-93683600D01*
X87356800Y-93683600D02*
X89299400Y-93683600D01*
D26*
X91181600Y-92893600D02*
X91463000Y-93175000D01*
X91463000Y-93175000D02*
X106406000Y-93175000D01*
D25*
X90089400Y-92893600D02*
X91181600Y-92893600D01*
X89299400Y-93683600D02*
X90089400Y-92893600D01*
D26*
%TO.N,DIO5*%
X97574600Y-100291400D02*
X91181600Y-100291400D01*
D25*
X81156800Y-101075000D02*
X87356800Y-101075000D01*
X87356800Y-101075000D02*
X90398000Y-101075000D01*
D26*
X102151000Y-95715000D02*
X97574600Y-100291400D01*
X106406000Y-95715000D02*
X102151000Y-95715000D01*
D25*
X90398000Y-101075000D02*
X91181600Y-100291400D01*
%TO.N,DIO6*%
X81156800Y-108492200D02*
X87356800Y-108492200D01*
D26*
X97059800Y-107664200D02*
X91181600Y-107664200D01*
X106406000Y-98255000D02*
X106406000Y-98318000D01*
X106406000Y-98318000D02*
X97059800Y-107664200D01*
D25*
X87356800Y-108492200D02*
X90353600Y-108492200D01*
X87356800Y-108492200D02*
X87356800Y-108466400D01*
X90353600Y-108492200D02*
X91181600Y-107664200D01*
%TO.N,DIO7*%
X87356800Y-115857800D02*
X90182200Y-115857800D01*
X81156800Y-115857800D02*
X87356800Y-115857800D01*
D26*
X91980636Y-114883800D02*
X92031836Y-114935000D01*
X102362000Y-104902000D02*
X104140000Y-103124000D01*
D25*
X90182200Y-115857800D02*
X91156200Y-114883800D01*
D26*
X104140000Y-103061000D02*
X106406000Y-100795000D01*
X100076000Y-114935000D02*
X102362000Y-112649000D01*
X102362000Y-112649000D02*
X102362000Y-104902000D01*
X104140000Y-103124000D02*
X104140000Y-103061000D01*
X91156200Y-114883800D02*
X91980636Y-114883800D01*
X92031836Y-114935000D02*
X100076000Y-114935000D01*
D27*
%TO.N,+5V*%
X203098400Y-115519200D02*
X203098400Y-109220000D01*
D25*
X89504000Y-90982800D02*
X89504000Y-91376600D01*
X89504000Y-120891600D02*
X89009400Y-121386200D01*
X89504000Y-113519600D02*
X89009400Y-114014200D01*
X89504000Y-84046000D02*
X89018800Y-84531200D01*
X89504000Y-106121400D02*
X88984000Y-106641400D01*
X89504000Y-90982800D02*
X89504600Y-90982200D01*
X89504000Y-98723600D02*
X89009400Y-99218200D01*
X89504000Y-68969000D02*
X89504000Y-69362200D01*
X89733800Y-105727000D02*
X90763000Y-105727000D01*
X89504000Y-83635200D02*
X89504000Y-84046000D01*
X89733800Y-120471800D02*
X90763000Y-120471800D01*
D27*
X204010800Y-116431600D02*
X203098400Y-115519200D01*
D25*
X89504000Y-120471800D02*
X89504000Y-120891600D01*
X89504000Y-113150600D02*
X89504000Y-113519600D01*
X89504000Y-105727000D02*
X89504000Y-106121400D01*
X89504600Y-90982200D02*
X90763000Y-90982200D01*
X89504000Y-69362200D02*
X89008200Y-69858000D01*
X89554800Y-76280000D02*
X90584000Y-76280000D01*
X90763000Y-98329200D02*
X89733800Y-98329200D01*
X89733800Y-83635200D02*
X89733800Y-83816200D01*
X89504000Y-98329200D02*
X89504000Y-98723600D01*
X89504000Y-68969000D02*
X90533200Y-68969000D01*
X89504000Y-91376600D02*
X89009400Y-91871200D01*
X89554800Y-76280000D02*
X89554800Y-76698600D01*
X89733800Y-113150600D02*
X90748200Y-113150600D01*
X89554800Y-76698600D02*
X89059000Y-77194400D01*
X89733800Y-83635200D02*
X90763000Y-83635200D01*
%TO.N,Net-(R6-Pad2)*%
X81156800Y-82702400D02*
X87356800Y-82702400D01*
X87368800Y-82714400D02*
X87356800Y-82702400D01*
X87368800Y-84531200D02*
X87368800Y-82714400D01*
D28*
%TO.N,Res1*%
X190881000Y-94488000D02*
X194079000Y-94488000D01*
X188468000Y-92075000D02*
X190881000Y-94488000D01*
X188468000Y-90678000D02*
X188468000Y-92075000D01*
X194079000Y-94488000D02*
X195306000Y-95715000D01*
D25*
%TO.N,Net-(R3-Pad2)*%
X81156800Y-75361800D02*
X87356800Y-75361800D01*
X87409000Y-77194400D02*
X87409000Y-75414000D01*
X87409000Y-75414000D02*
X87356800Y-75361800D01*
%TO.N,Net-(R23-Pad2)*%
X87356800Y-68050800D02*
X87356800Y-69856600D01*
X87356800Y-69856600D02*
X87358200Y-69858000D01*
X81156800Y-68050800D02*
X87356800Y-68050800D01*
X81156800Y-68050800D02*
X81512800Y-68050800D01*
%TO.N,Net-(R9-Pad2)*%
X88159600Y-90043000D02*
X87356800Y-90043000D01*
X87356800Y-91868600D02*
X87359400Y-91871200D01*
X81156800Y-90043000D02*
X88159600Y-90043000D01*
X87356800Y-90043000D02*
X87356800Y-91868600D01*
%TO.N,Net-(R12-Pad2)*%
X87356800Y-99215600D02*
X87359400Y-99218200D01*
X87356800Y-97383600D02*
X87356800Y-99215600D01*
X81156800Y-97383600D02*
X87356800Y-97383600D01*
%TO.N,Net-(R15-Pad2)*%
X87334000Y-106641400D02*
X87334000Y-104797800D01*
X87334000Y-104797800D02*
X87356800Y-104775000D01*
X81156800Y-104775000D02*
X87356800Y-104775000D01*
%TO.N,Net-(R24-Pad2)*%
X87359400Y-114014200D02*
X87359400Y-112194800D01*
X81156800Y-112192200D02*
X87356800Y-112192200D01*
X87359400Y-112194800D02*
X87356800Y-112192200D01*
%TO.N,Net-(D2-K)*%
X91993200Y-72597000D02*
X90914300Y-72597000D01*
X90914300Y-72597000D02*
X90911600Y-72594300D01*
X92323400Y-72927200D02*
X91993200Y-72597000D01*
X92323400Y-73536800D02*
X92323400Y-72927200D01*
%TO.N,Net-(D2-A)*%
X90911200Y-74469700D02*
X90911600Y-74469300D01*
X92234000Y-75546200D02*
X91157100Y-74469300D01*
X92234000Y-76280000D02*
X92234000Y-75546200D01*
X90916200Y-74473900D02*
X90911600Y-74469300D01*
X91157100Y-74469300D02*
X90911600Y-74469300D01*
%TO.N,Net-(D3-K)*%
X92053300Y-79934900D02*
X92477000Y-80358600D01*
X91090600Y-79934900D02*
X92053300Y-79934900D01*
X92477000Y-80358600D02*
X92477000Y-80993600D01*
%TO.N,Net-(D3-A)*%
X92413000Y-82913400D02*
X91309500Y-81809900D01*
X92413000Y-83635200D02*
X92413000Y-82913400D01*
X91309500Y-81809900D02*
X91090600Y-81809900D01*
%TO.N,Net-(D4-K)*%
X91090600Y-87275500D02*
X92250100Y-87275500D01*
X92451600Y-87477000D02*
X92451600Y-88167600D01*
X92250100Y-87275500D02*
X92451600Y-87477000D01*
X92451600Y-88167600D02*
X92477000Y-88193000D01*
D28*
%TO.N,Net-(D4-A)*%
X91360300Y-89150500D02*
X91090600Y-89150500D01*
X92413000Y-90982200D02*
X92413000Y-90203200D01*
D25*
X91095200Y-89155100D02*
X91090600Y-89150500D01*
D28*
X92413000Y-90203200D02*
X91360300Y-89150500D01*
D25*
%TO.N,Net-(D5-K)*%
X92218300Y-94616100D02*
X92477000Y-94874800D01*
X91090600Y-94616100D02*
X92218300Y-94616100D01*
X92477000Y-94874800D02*
X92477000Y-95533600D01*
D28*
%TO.N,Net-(D5-A)*%
X92413000Y-97581900D02*
X91322200Y-96491100D01*
X91322200Y-96491100D02*
X91090600Y-96491100D01*
D25*
X91095200Y-96495700D02*
X91090600Y-96491100D01*
D28*
X92413000Y-98329200D02*
X92413000Y-97581900D01*
D25*
%TO.N,Net-(D6-K)*%
X92237300Y-102007500D02*
X91090600Y-102007500D01*
X92477000Y-102247200D02*
X92237300Y-102007500D01*
X92477000Y-102925000D02*
X92477000Y-102247200D01*
%TO.N,Net-(D6-A)*%
X91095200Y-103887100D02*
X91090600Y-103882500D01*
D28*
X91360300Y-103882500D02*
X91090600Y-103882500D01*
X92413000Y-104935200D02*
X91360300Y-103882500D01*
X92413000Y-105727000D02*
X92413000Y-104935200D01*
D25*
%TO.N,Net-(D7-K)*%
X92477000Y-110342200D02*
X92477000Y-109747000D01*
X92477000Y-109747000D02*
X92154700Y-109424700D01*
X92154700Y-109424700D02*
X91090600Y-109424700D01*
D28*
%TO.N,Net-(D7-A)*%
X91284500Y-111299700D02*
X91090600Y-111299700D01*
X92398200Y-113150600D02*
X92398200Y-112413400D01*
X92398200Y-112413400D02*
X91284500Y-111299700D01*
D25*
X91080400Y-111309900D02*
X91090600Y-111299700D01*
%TO.N,Net-(D8-K)*%
X92477000Y-117068200D02*
X92477000Y-117707800D01*
X92199100Y-116790300D02*
X92477000Y-117068200D01*
X91090600Y-116790300D02*
X92199100Y-116790300D01*
%TO.N,Net-(D8-A)*%
X92413000Y-119747400D02*
X91330900Y-118665300D01*
X91330900Y-118665300D02*
X91090600Y-118665300D01*
X92413000Y-120471800D02*
X92413000Y-119747400D01*
%TO.N,Net-(R27-Pad2)*%
X81156800Y-119557800D02*
X87356800Y-119557800D01*
X87359400Y-121386200D02*
X87359400Y-119560400D01*
X87359400Y-119560400D02*
X87356800Y-119557800D01*
D28*
%TO.N,CHARGE*%
X104063800Y-127508000D02*
X104063800Y-128328800D01*
X104063800Y-128328800D02*
X104069000Y-128334000D01*
%TO.N,LED1*%
X105816400Y-127508000D02*
X105816400Y-128331399D01*
X105816400Y-128331399D02*
X105819001Y-128334000D01*
%TO.N,LED2*%
X107569000Y-127508000D02*
X107569000Y-128334000D01*
%TO.N,LED3*%
X109321600Y-128331399D02*
X109318999Y-128334000D01*
X109321600Y-127508000D02*
X109321600Y-128331399D01*
%TO.N,LED4*%
X111074200Y-127508000D02*
X111074200Y-128328800D01*
X111074200Y-128328800D02*
X111069000Y-128334000D01*
D25*
%TO.N,Net-(D9-A)*%
X103784000Y-130150000D02*
X102997000Y-130937000D01*
X102997000Y-130937000D02*
X101981000Y-130937000D01*
X104069000Y-130150000D02*
X103784000Y-130150000D01*
X101536200Y-131381800D02*
X101536200Y-132072100D01*
X101981000Y-130937000D02*
X101536200Y-131381800D01*
%TO.N,Net-(D10-A)*%
X105410000Y-130937000D02*
X104902000Y-130937000D01*
X105819001Y-130150000D02*
X105819001Y-130527999D01*
X104902000Y-130937000D02*
X104546200Y-131292800D01*
X104546200Y-131292800D02*
X104546200Y-132072100D01*
X105819001Y-130527999D02*
X105410000Y-130937000D01*
%TO.N,Net-(D11-A)*%
X107569000Y-130150000D02*
X107569000Y-132059300D01*
X107569000Y-132059300D02*
X107556200Y-132072100D01*
%TO.N,Net-(D12-A)*%
X109318999Y-130150000D02*
X109318999Y-130527999D01*
X109318999Y-130527999D02*
X109728000Y-130937000D01*
X109728000Y-130937000D02*
X110286800Y-130937000D01*
X110286800Y-130937000D02*
X110566200Y-131216400D01*
X110566200Y-131216400D02*
X110566200Y-132072100D01*
%TO.N,Net-(D13-A)*%
X113576000Y-131356000D02*
X113576200Y-131356000D01*
X111074600Y-130150000D02*
X111861600Y-130937000D01*
X111861600Y-130937000D02*
X113157000Y-130937000D01*
X113576200Y-131356000D02*
X113576200Y-132072100D01*
X111069000Y-130150000D02*
X111074600Y-130150000D01*
X113157000Y-130937000D02*
X113576000Y-131356000D01*
%TD*%
%TA.AperFunction,Conductor*%
%TO.N,GND*%
G36*
X108480075Y-103142007D02*
G01*
X108446000Y-103269174D01*
X108446000Y-103400826D01*
X108480075Y-103527993D01*
X108512988Y-103585000D01*
X106839012Y-103585000D01*
X106871925Y-103527993D01*
X106906000Y-103400826D01*
X106906000Y-103269174D01*
X106871925Y-103142007D01*
X106839012Y-103085000D01*
X108512988Y-103085000D01*
X108480075Y-103142007D01*
G37*
%TD.AperFunction*%
%TA.AperFunction,Conductor*%
G36*
X194840075Y-100602007D02*
G01*
X194806000Y-100729174D01*
X194806000Y-100860826D01*
X194840075Y-100987993D01*
X194872988Y-101045000D01*
X193199012Y-101045000D01*
X193231925Y-100987993D01*
X193266000Y-100860826D01*
X193266000Y-100729174D01*
X193231925Y-100602007D01*
X193199012Y-100545000D01*
X194872988Y-100545000D01*
X194840075Y-100602007D01*
G37*
%TD.AperFunction*%
%TA.AperFunction,Conductor*%
G36*
X217946559Y-46905005D02*
G01*
X217954171Y-46905072D01*
X218227767Y-46907514D01*
X218235482Y-46907824D01*
X218797035Y-46947987D01*
X218805793Y-46948928D01*
X219362509Y-47028971D01*
X219371200Y-47030540D01*
X219920753Y-47150088D01*
X219929329Y-47152276D01*
X220468971Y-47310730D01*
X220477330Y-47313512D01*
X221004318Y-47510068D01*
X221012451Y-47513437D01*
X221524061Y-47747082D01*
X221531960Y-47751036D01*
X222025581Y-48020574D01*
X222033193Y-48025091D01*
X222506299Y-48329138D01*
X222513570Y-48334186D01*
X222963806Y-48671228D01*
X222970699Y-48676782D01*
X223395740Y-49045082D01*
X223402218Y-49051114D01*
X223799885Y-49448781D01*
X223805917Y-49455259D01*
X224174217Y-49880300D01*
X224179771Y-49887193D01*
X224516813Y-50337429D01*
X224521861Y-50344700D01*
X224825908Y-50817806D01*
X224830425Y-50825418D01*
X225099963Y-51319039D01*
X225103922Y-51326949D01*
X225337556Y-51838535D01*
X225340938Y-51846699D01*
X225537480Y-52373650D01*
X225540275Y-52382048D01*
X225698722Y-52921669D01*
X225700911Y-52930246D01*
X225820457Y-53479789D01*
X225822029Y-53488500D01*
X225902068Y-54045185D01*
X225903014Y-54053986D01*
X225943174Y-54615505D01*
X225943485Y-54623244D01*
X225945995Y-54904439D01*
X225946000Y-54905546D01*
X225946000Y-128904453D01*
X225945995Y-128905560D01*
X225943485Y-129186755D01*
X225943174Y-129194494D01*
X225903014Y-129756013D01*
X225902068Y-129764814D01*
X225822029Y-130321499D01*
X225820457Y-130330210D01*
X225700911Y-130879753D01*
X225698722Y-130888330D01*
X225540275Y-131427951D01*
X225537480Y-131436349D01*
X225340938Y-131963300D01*
X225337550Y-131971479D01*
X225103925Y-132483045D01*
X225099963Y-132490960D01*
X224830425Y-132984581D01*
X224825908Y-132992193D01*
X224521861Y-133465299D01*
X224516813Y-133472570D01*
X224179771Y-133922806D01*
X224174217Y-133929699D01*
X223805917Y-134354740D01*
X223799885Y-134361218D01*
X223402218Y-134758885D01*
X223395740Y-134764917D01*
X222970699Y-135133217D01*
X222963806Y-135138771D01*
X222513570Y-135475813D01*
X222506299Y-135480861D01*
X222033193Y-135784908D01*
X222025581Y-135789425D01*
X221531960Y-136058963D01*
X221524045Y-136062925D01*
X221012479Y-136296550D01*
X221004300Y-136299938D01*
X220477349Y-136496480D01*
X220468951Y-136499275D01*
X219929330Y-136657722D01*
X219920753Y-136659911D01*
X219371210Y-136779457D01*
X219362499Y-136781029D01*
X218805814Y-136861068D01*
X218797013Y-136862014D01*
X218235494Y-136902174D01*
X218227755Y-136902485D01*
X217946560Y-136904995D01*
X217945453Y-136905000D01*
X83946547Y-136905000D01*
X83945440Y-136904995D01*
X83664244Y-136902485D01*
X83656505Y-136902174D01*
X83094986Y-136862014D01*
X83086185Y-136861068D01*
X82529500Y-136781029D01*
X82520789Y-136779457D01*
X81971246Y-136659911D01*
X81962669Y-136657722D01*
X81423048Y-136499275D01*
X81414650Y-136496480D01*
X80887699Y-136299938D01*
X80879535Y-136296556D01*
X80367949Y-136062922D01*
X80360039Y-136058963D01*
X79866418Y-135789425D01*
X79858806Y-135784908D01*
X79385700Y-135480861D01*
X79378429Y-135475813D01*
X78928193Y-135138771D01*
X78921300Y-135133217D01*
X78496259Y-134764917D01*
X78489781Y-134758885D01*
X78092114Y-134361218D01*
X78086082Y-134354740D01*
X77987019Y-134240415D01*
X100336200Y-134240415D01*
X100346607Y-134342273D01*
X100401294Y-134507309D01*
X100401296Y-134507314D01*
X100492570Y-134655291D01*
X100615508Y-134778229D01*
X100763485Y-134869503D01*
X100763490Y-134869505D01*
X100928526Y-134924192D01*
X101030384Y-134934599D01*
X101030397Y-134934600D01*
X101286200Y-134934600D01*
X101786200Y-134934600D01*
X102042003Y-134934600D01*
X102042015Y-134934599D01*
X102143873Y-134924192D01*
X102308909Y-134869505D01*
X102308914Y-134869503D01*
X102456891Y-134778229D01*
X102579829Y-134655291D01*
X102671103Y-134507314D01*
X102671105Y-134507309D01*
X102725792Y-134342273D01*
X102736199Y-134240415D01*
X103346200Y-134240415D01*
X103356607Y-134342273D01*
X103411294Y-134507309D01*
X103411296Y-134507314D01*
X103502570Y-134655291D01*
X103625508Y-134778229D01*
X103773485Y-134869503D01*
X103773490Y-134869505D01*
X103938526Y-134924192D01*
X104040384Y-134934599D01*
X104040397Y-134934600D01*
X104296200Y-134934600D01*
X104796200Y-134934600D01*
X105052003Y-134934600D01*
X105052015Y-134934599D01*
X105153873Y-134924192D01*
X105318909Y-134869505D01*
X105318914Y-134869503D01*
X105466891Y-134778229D01*
X105589829Y-134655291D01*
X105681103Y-134507314D01*
X105681105Y-134507309D01*
X105735792Y-134342273D01*
X105746199Y-134240415D01*
X106356200Y-134240415D01*
X106366607Y-134342273D01*
X106421294Y-134507309D01*
X106421296Y-134507314D01*
X106512570Y-134655291D01*
X106635508Y-134778229D01*
X106783485Y-134869503D01*
X106783490Y-134869505D01*
X106948526Y-134924192D01*
X107050384Y-134934599D01*
X107050397Y-134934600D01*
X107306200Y-134934600D01*
X107806200Y-134934600D01*
X108062003Y-134934600D01*
X108062015Y-134934599D01*
X108163873Y-134924192D01*
X108328909Y-134869505D01*
X108328914Y-134869503D01*
X108476891Y-134778229D01*
X108599829Y-134655291D01*
X108691103Y-134507314D01*
X108691105Y-134507309D01*
X108745792Y-134342273D01*
X108756199Y-134240415D01*
X109366200Y-134240415D01*
X109376607Y-134342273D01*
X109431294Y-134507309D01*
X109431296Y-134507314D01*
X109522570Y-134655291D01*
X109645508Y-134778229D01*
X109793485Y-134869503D01*
X109793490Y-134869505D01*
X109958526Y-134924192D01*
X110060384Y-134934599D01*
X110060397Y-134934600D01*
X110316200Y-134934600D01*
X110816200Y-134934600D01*
X111072003Y-134934600D01*
X111072015Y-134934599D01*
X111173873Y-134924192D01*
X111338909Y-134869505D01*
X111338914Y-134869503D01*
X111486891Y-134778229D01*
X111609829Y-134655291D01*
X111701103Y-134507314D01*
X111701105Y-134507309D01*
X111755792Y-134342273D01*
X111766199Y-134240415D01*
X112376200Y-134240415D01*
X112386607Y-134342273D01*
X112441294Y-134507309D01*
X112441296Y-134507314D01*
X112532570Y-134655291D01*
X112655508Y-134778229D01*
X112803485Y-134869503D01*
X112803490Y-134869505D01*
X112968526Y-134924192D01*
X113070384Y-134934599D01*
X113070397Y-134934600D01*
X113326200Y-134934600D01*
X113826200Y-134934600D01*
X114082003Y-134934600D01*
X114082015Y-134934599D01*
X114183873Y-134924192D01*
X114348909Y-134869505D01*
X114348914Y-134869503D01*
X114496891Y-134778229D01*
X114619829Y-134655291D01*
X114711103Y-134507314D01*
X114711105Y-134507309D01*
X114765792Y-134342273D01*
X114776199Y-134240415D01*
X114776200Y-134240402D01*
X114776200Y-134197100D01*
X113826200Y-134197100D01*
X113826200Y-134934600D01*
X113326200Y-134934600D01*
X113326200Y-134197100D01*
X112376200Y-134197100D01*
X112376200Y-134240415D01*
X111766199Y-134240415D01*
X111766200Y-134240402D01*
X111766200Y-134197100D01*
X110816200Y-134197100D01*
X110816200Y-134934600D01*
X110316200Y-134934600D01*
X110316200Y-134197100D01*
X109366200Y-134197100D01*
X109366200Y-134240415D01*
X108756199Y-134240415D01*
X108756200Y-134240402D01*
X108756200Y-134197100D01*
X107806200Y-134197100D01*
X107806200Y-134934600D01*
X107306200Y-134934600D01*
X107306200Y-134197100D01*
X106356200Y-134197100D01*
X106356200Y-134240415D01*
X105746199Y-134240415D01*
X105746200Y-134240402D01*
X105746200Y-134197100D01*
X104796200Y-134197100D01*
X104796200Y-134934600D01*
X104296200Y-134934600D01*
X104296200Y-134197100D01*
X103346200Y-134197100D01*
X103346200Y-134240415D01*
X102736199Y-134240415D01*
X102736200Y-134240402D01*
X102736200Y-134197100D01*
X101786200Y-134197100D01*
X101786200Y-134934600D01*
X101286200Y-134934600D01*
X101286200Y-134197100D01*
X100336200Y-134197100D01*
X100336200Y-134240415D01*
X77987019Y-134240415D01*
X77717782Y-133929699D01*
X77712228Y-133922806D01*
X77375186Y-133472570D01*
X77370138Y-133465299D01*
X77066091Y-132992193D01*
X77061574Y-132984581D01*
X76792036Y-132490960D01*
X76788082Y-132483061D01*
X76554437Y-131971451D01*
X76551068Y-131963318D01*
X76482226Y-131778744D01*
X100335700Y-131778744D01*
X100335700Y-132365455D01*
X100346113Y-132467376D01*
X100400837Y-132632522D01*
X100400842Y-132632533D01*
X100492171Y-132780599D01*
X100492174Y-132780603D01*
X100615199Y-132903628D01*
X100616383Y-132904358D01*
X100617023Y-132905070D01*
X100620864Y-132908107D01*
X100620345Y-132908763D01*
X100663106Y-132956308D01*
X100674325Y-133025271D01*
X100646479Y-133089352D01*
X100621077Y-133111362D01*
X100621177Y-133111488D01*
X100618377Y-133113701D01*
X100616384Y-133115429D01*
X100615515Y-133115964D01*
X100615509Y-133115969D01*
X100492570Y-133238908D01*
X100401296Y-133386885D01*
X100401294Y-133386890D01*
X100346607Y-133551926D01*
X100336200Y-133653784D01*
X100336200Y-133697100D01*
X102736200Y-133697100D01*
X102736200Y-133653797D01*
X102736199Y-133653784D01*
X102725792Y-133551926D01*
X102671105Y-133386890D01*
X102671103Y-133386885D01*
X102579829Y-133238908D01*
X102456890Y-133115969D01*
X102456885Y-133115965D01*
X102456022Y-133115433D01*
X102455553Y-133114912D01*
X102451223Y-133111488D01*
X102451808Y-133110748D01*
X102409296Y-133063486D01*
X102398073Y-132994524D01*
X102425916Y-132930441D01*
X102451598Y-132908186D01*
X102451536Y-132908107D01*
X102453306Y-132906707D01*
X102456020Y-132904355D01*
X102457203Y-132903626D01*
X102580226Y-132780603D01*
X102671562Y-132632525D01*
X102726287Y-132467375D01*
X102736700Y-132365448D01*
X102736700Y-131778752D01*
X102728563Y-131699103D01*
X102741332Y-131630410D01*
X102789213Y-131579525D01*
X102851921Y-131562500D01*
X103058607Y-131562500D01*
X103119029Y-131550481D01*
X103179452Y-131538463D01*
X103187667Y-131535060D01*
X103257136Y-131527587D01*
X103319617Y-131558858D01*
X103355273Y-131618945D01*
X103356273Y-131670037D01*
X103356801Y-131670091D01*
X103356359Y-131674412D01*
X103356382Y-131675564D01*
X103356113Y-131676817D01*
X103345700Y-131778744D01*
X103345700Y-132365455D01*
X103356113Y-132467376D01*
X103410837Y-132632522D01*
X103410842Y-132632533D01*
X103502171Y-132780599D01*
X103502174Y-132780603D01*
X103625199Y-132903628D01*
X103626383Y-132904358D01*
X103627023Y-132905070D01*
X103630864Y-132908107D01*
X103630345Y-132908763D01*
X103673106Y-132956308D01*
X103684325Y-133025271D01*
X103656479Y-133089352D01*
X103631077Y-133111362D01*
X103631177Y-133111488D01*
X103628377Y-133113701D01*
X103626384Y-133115429D01*
X103625515Y-133115964D01*
X103625509Y-133115969D01*
X103502570Y-133238908D01*
X103411296Y-133386885D01*
X103411294Y-133386890D01*
X103356607Y-133551926D01*
X103346200Y-133653784D01*
X103346200Y-133697100D01*
X105746200Y-133697100D01*
X105746200Y-133653797D01*
X105746199Y-133653784D01*
X105735792Y-133551926D01*
X105681105Y-133386890D01*
X105681103Y-133386885D01*
X105589829Y-133238908D01*
X105466890Y-133115969D01*
X105466885Y-133115965D01*
X105466022Y-133115433D01*
X105465553Y-133114912D01*
X105461223Y-133111488D01*
X105461808Y-133110748D01*
X105419296Y-133063486D01*
X105408073Y-132994524D01*
X105435916Y-132930441D01*
X105461598Y-132908186D01*
X105461536Y-132908107D01*
X105463306Y-132906707D01*
X105466020Y-132904355D01*
X105467203Y-132903626D01*
X105590226Y-132780603D01*
X105681562Y-132632525D01*
X105736287Y-132467375D01*
X105746700Y-132365448D01*
X105746700Y-131778752D01*
X105736287Y-131676825D01*
X105710223Y-131598168D01*
X105707821Y-131528339D01*
X105743553Y-131468298D01*
X105759030Y-131456068D01*
X105777979Y-131443407D01*
X105808733Y-131422858D01*
X105895858Y-131335733D01*
X105895859Y-131335731D01*
X105902925Y-131328665D01*
X105902928Y-131328661D01*
X106217730Y-131013859D01*
X106217734Y-131013857D01*
X106304859Y-130926732D01*
X106347423Y-130863030D01*
X106386370Y-130825807D01*
X106529186Y-130739472D01*
X106606320Y-130662337D01*
X106667641Y-130628854D01*
X106737333Y-130633838D01*
X106781681Y-130662339D01*
X106858811Y-130739469D01*
X106858813Y-130739470D01*
X106858815Y-130739472D01*
X106883650Y-130754485D01*
X106930837Y-130806010D01*
X106943500Y-130860601D01*
X106943500Y-131006603D01*
X106923815Y-131073642D01*
X106871011Y-131119397D01*
X106858505Y-131124309D01*
X106783271Y-131149239D01*
X106635200Y-131240571D01*
X106635196Y-131240574D01*
X106512174Y-131363596D01*
X106512171Y-131363600D01*
X106420842Y-131511666D01*
X106420837Y-131511677D01*
X106366113Y-131676823D01*
X106355700Y-131778744D01*
X106355700Y-132365455D01*
X106366113Y-132467376D01*
X106420837Y-132632522D01*
X106420842Y-132632533D01*
X106512171Y-132780599D01*
X106512174Y-132780603D01*
X106635199Y-132903628D01*
X106636383Y-132904358D01*
X106637023Y-132905070D01*
X106640864Y-132908107D01*
X106640345Y-132908763D01*
X106683106Y-132956308D01*
X106694325Y-133025271D01*
X106666479Y-133089352D01*
X106641077Y-133111362D01*
X106641177Y-133111488D01*
X106638377Y-133113701D01*
X106636384Y-133115429D01*
X106635515Y-133115964D01*
X106635509Y-133115969D01*
X106512570Y-133238908D01*
X106421296Y-133386885D01*
X106421294Y-133386890D01*
X106366607Y-133551926D01*
X106356200Y-133653784D01*
X106356200Y-133697100D01*
X108756200Y-133697100D01*
X108756200Y-133653797D01*
X108756199Y-133653784D01*
X108745792Y-133551926D01*
X108691105Y-133386890D01*
X108691103Y-133386885D01*
X108599829Y-133238908D01*
X108476890Y-133115969D01*
X108476885Y-133115965D01*
X108476022Y-133115433D01*
X108475553Y-133114912D01*
X108471223Y-133111488D01*
X108471808Y-133110748D01*
X108429296Y-133063486D01*
X108418073Y-132994524D01*
X108445916Y-132930441D01*
X108471598Y-132908186D01*
X108471536Y-132908107D01*
X108473306Y-132906707D01*
X108476020Y-132904355D01*
X108477203Y-132903626D01*
X108600226Y-132780603D01*
X108691562Y-132632525D01*
X108746287Y-132467375D01*
X108756700Y-132365448D01*
X108756700Y-131778752D01*
X108746287Y-131676825D01*
X108691562Y-131511675D01*
X108691558Y-131511669D01*
X108691557Y-131511666D01*
X108600228Y-131363600D01*
X108600225Y-131363596D01*
X108477203Y-131240574D01*
X108477199Y-131240571D01*
X108329128Y-131149239D01*
X108279495Y-131132792D01*
X108222050Y-131093018D01*
X108195228Y-131028502D01*
X108194500Y-131015086D01*
X108194500Y-130860601D01*
X108214185Y-130793562D01*
X108254348Y-130754485D01*
X108279185Y-130739472D01*
X108356319Y-130662337D01*
X108417640Y-130628854D01*
X108487332Y-130633838D01*
X108531680Y-130662339D01*
X108608810Y-130739469D01*
X108608812Y-130739470D01*
X108608814Y-130739472D01*
X108714944Y-130803630D01*
X108751624Y-130825804D01*
X108770779Y-130844110D01*
X108773431Y-130845321D01*
X108780871Y-130853754D01*
X108790572Y-130863025D01*
X108795324Y-130870136D01*
X108795328Y-130870140D01*
X108795329Y-130870142D01*
X108804923Y-130884500D01*
X108833142Y-130926734D01*
X108924585Y-131018177D01*
X108924607Y-131018197D01*
X109239016Y-131332606D01*
X109239045Y-131332637D01*
X109329264Y-131422856D01*
X109329267Y-131422858D01*
X109358001Y-131442057D01*
X109402806Y-131495669D01*
X109411515Y-131564994D01*
X109406817Y-131584163D01*
X109376113Y-131676821D01*
X109365700Y-131778744D01*
X109365700Y-132365455D01*
X109376113Y-132467376D01*
X109430837Y-132632522D01*
X109430842Y-132632533D01*
X109522171Y-132780599D01*
X109522174Y-132780603D01*
X109645199Y-132903628D01*
X109646383Y-132904358D01*
X109647023Y-132905070D01*
X109650864Y-132908107D01*
X109650345Y-132908763D01*
X109693106Y-132956308D01*
X109704325Y-133025271D01*
X109676479Y-133089352D01*
X109651077Y-133111362D01*
X109651177Y-133111488D01*
X109648377Y-133113701D01*
X109646384Y-133115429D01*
X109645515Y-133115964D01*
X109645509Y-133115969D01*
X109522570Y-133238908D01*
X109431296Y-133386885D01*
X109431294Y-133386890D01*
X109376607Y-133551926D01*
X109366200Y-133653784D01*
X109366200Y-133697100D01*
X111766200Y-133697100D01*
X111766200Y-133653797D01*
X111766199Y-133653784D01*
X111755792Y-133551926D01*
X111701105Y-133386890D01*
X111701103Y-133386885D01*
X111609829Y-133238908D01*
X111486890Y-133115969D01*
X111486885Y-133115965D01*
X111486022Y-133115433D01*
X111485553Y-133114912D01*
X111481223Y-133111488D01*
X111481808Y-133110748D01*
X111439296Y-133063486D01*
X111428073Y-132994524D01*
X111455916Y-132930441D01*
X111481598Y-132908186D01*
X111481536Y-132908107D01*
X111483306Y-132906707D01*
X111486020Y-132904355D01*
X111487203Y-132903626D01*
X111610226Y-132780603D01*
X111701562Y-132632525D01*
X111756287Y-132467375D01*
X111766700Y-132365448D01*
X111766700Y-131778752D01*
X111758563Y-131699103D01*
X111771332Y-131630410D01*
X111819213Y-131579525D01*
X111881921Y-131562500D01*
X112260479Y-131562500D01*
X112327518Y-131582185D01*
X112373273Y-131634989D01*
X112383837Y-131699103D01*
X112375700Y-131778744D01*
X112375700Y-132365455D01*
X112386113Y-132467376D01*
X112440837Y-132632522D01*
X112440842Y-132632533D01*
X112532171Y-132780599D01*
X112532174Y-132780603D01*
X112655199Y-132903628D01*
X112656383Y-132904358D01*
X112657023Y-132905070D01*
X112660864Y-132908107D01*
X112660345Y-132908763D01*
X112703106Y-132956308D01*
X112714325Y-133025271D01*
X112686479Y-133089352D01*
X112661077Y-133111362D01*
X112661177Y-133111488D01*
X112658377Y-133113701D01*
X112656384Y-133115429D01*
X112655515Y-133115964D01*
X112655509Y-133115969D01*
X112532570Y-133238908D01*
X112441296Y-133386885D01*
X112441294Y-133386890D01*
X112386607Y-133551926D01*
X112376200Y-133653784D01*
X112376200Y-133697100D01*
X114776200Y-133697100D01*
X114776200Y-133653797D01*
X114776199Y-133653784D01*
X114765792Y-133551926D01*
X114711105Y-133386890D01*
X114711103Y-133386885D01*
X114619829Y-133238908D01*
X114496890Y-133115969D01*
X114496885Y-133115965D01*
X114496022Y-133115433D01*
X114495553Y-133114912D01*
X114491223Y-133111488D01*
X114491808Y-133110748D01*
X114449296Y-133063486D01*
X114438073Y-132994524D01*
X114465916Y-132930441D01*
X114491598Y-132908186D01*
X114491536Y-132908107D01*
X114493306Y-132906707D01*
X114496020Y-132904355D01*
X114497203Y-132903626D01*
X114620226Y-132780603D01*
X114711562Y-132632525D01*
X114766287Y-132467375D01*
X114776700Y-132365448D01*
X114776700Y-131778752D01*
X114766287Y-131676825D01*
X114711562Y-131511675D01*
X114711558Y-131511669D01*
X114711557Y-131511666D01*
X114620228Y-131363600D01*
X114620225Y-131363596D01*
X114497203Y-131240574D01*
X114497199Y-131240571D01*
X114349133Y-131149242D01*
X114349127Y-131149239D01*
X114349125Y-131149238D01*
X114185603Y-131095052D01*
X114128159Y-131055280D01*
X114121515Y-131046250D01*
X114062058Y-130957267D01*
X113974933Y-130870142D01*
X113974930Y-130870140D01*
X113971652Y-130866862D01*
X113969517Y-130864926D01*
X113649928Y-130545338D01*
X113649925Y-130545334D01*
X113649925Y-130545335D01*
X113642858Y-130538268D01*
X113642858Y-130538267D01*
X113555733Y-130451142D01*
X113555732Y-130451141D01*
X113555731Y-130451140D01*
X113504509Y-130416915D01*
X113503072Y-130415955D01*
X113453286Y-130382688D01*
X113453283Y-130382686D01*
X113453280Y-130382685D01*
X113363621Y-130345548D01*
X113339455Y-130335538D01*
X113339453Y-130335537D01*
X113339452Y-130335537D01*
X113279029Y-130323518D01*
X113218610Y-130311500D01*
X113218607Y-130311500D01*
X113218606Y-130311500D01*
X112172052Y-130311500D01*
X112105013Y-130291815D01*
X112084371Y-130275181D01*
X112080819Y-130271629D01*
X112047334Y-130210306D01*
X112044500Y-130183948D01*
X112044500Y-129727386D01*
X112038086Y-129656807D01*
X112038086Y-129656804D01*
X111987478Y-129494394D01*
X111899472Y-129348815D01*
X111899470Y-129348813D01*
X111899469Y-129348811D01*
X111797339Y-129246681D01*
X111763854Y-129185358D01*
X111768838Y-129115666D01*
X111797339Y-129071319D01*
X111899468Y-128969189D01*
X111899469Y-128969188D01*
X111899472Y-128969185D01*
X111938275Y-128904998D01*
X215693482Y-128904998D01*
X215693482Y-128905000D01*
X215713579Y-129205227D01*
X215713581Y-129205237D01*
X215773516Y-129500107D01*
X215872220Y-129784360D01*
X215872222Y-129784363D01*
X216007926Y-130052915D01*
X216007929Y-130052920D01*
X216007930Y-130052921D01*
X216178225Y-130300998D01*
X216380067Y-130524163D01*
X216609852Y-130718435D01*
X216863481Y-130880345D01*
X217136428Y-131007006D01*
X217423821Y-131096156D01*
X217720533Y-131146205D01*
X218021268Y-131156260D01*
X218320660Y-131126141D01*
X218613366Y-131056386D01*
X218894163Y-130948239D01*
X219158040Y-130803630D01*
X219400288Y-130625140D01*
X219616585Y-130415955D01*
X219803069Y-130179806D01*
X219956415Y-129920908D01*
X220073884Y-129643882D01*
X220153381Y-129353670D01*
X220193488Y-129055452D01*
X220196000Y-128905000D01*
X220193488Y-128754548D01*
X220153381Y-128456330D01*
X220073884Y-128166118D01*
X219956415Y-127889092D01*
X219878226Y-127757084D01*
X219803069Y-127630193D01*
X219616584Y-127394044D01*
X219400295Y-127184867D01*
X219400288Y-127184860D01*
X219158040Y-127006370D01*
X219156885Y-127005737D01*
X218894171Y-126861765D01*
X218894166Y-126861762D01*
X218894163Y-126861761D01*
X218894159Y-126861759D01*
X218894156Y-126861758D01*
X218613370Y-126753615D01*
X218613366Y-126753614D01*
X218320660Y-126683859D01*
X218320657Y-126683858D01*
X218021272Y-126653740D01*
X218021268Y-126653740D01*
X217720533Y-126663795D01*
X217423820Y-126713844D01*
X217295614Y-126753614D01*
X217136428Y-126802994D01*
X217136421Y-126802997D01*
X217136419Y-126802998D01*
X216863483Y-126929653D01*
X216863481Y-126929655D01*
X216609855Y-127091562D01*
X216380068Y-127285835D01*
X216178227Y-127508999D01*
X216178226Y-127509000D01*
X216007926Y-127757084D01*
X215872222Y-128025636D01*
X215872220Y-128025639D01*
X215773516Y-128309892D01*
X215713581Y-128604762D01*
X215713579Y-128604772D01*
X215693482Y-128904998D01*
X111938275Y-128904998D01*
X111987478Y-128823606D01*
X112038086Y-128661196D01*
X112044500Y-128590616D01*
X112044500Y-128077384D01*
X112038086Y-128006804D01*
X111987478Y-127844394D01*
X111899472Y-127698815D01*
X111899470Y-127698813D01*
X111899469Y-127698811D01*
X111894843Y-127692906D01*
X111897476Y-127690843D01*
X111871178Y-127642682D01*
X111869124Y-127602440D01*
X111879765Y-127508002D01*
X111879765Y-127507996D01*
X111859569Y-127328750D01*
X111859568Y-127328745D01*
X111844553Y-127285835D01*
X111799989Y-127158478D01*
X111704016Y-127005738D01*
X111576462Y-126878184D01*
X111423723Y-126782211D01*
X111253454Y-126722631D01*
X111253449Y-126722630D01*
X111074204Y-126702435D01*
X111074196Y-126702435D01*
X110894950Y-126722630D01*
X110894945Y-126722631D01*
X110724676Y-126782211D01*
X110571937Y-126878184D01*
X110444384Y-127005737D01*
X110348409Y-127158480D01*
X110314941Y-127254126D01*
X110274220Y-127310902D01*
X110209267Y-127336649D01*
X110140705Y-127323193D01*
X110090302Y-127274805D01*
X110080859Y-127254126D01*
X110047390Y-127158480D01*
X110047389Y-127158478D01*
X109951416Y-127005738D01*
X109823862Y-126878184D01*
X109671123Y-126782211D01*
X109500854Y-126722631D01*
X109500849Y-126722630D01*
X109321604Y-126702435D01*
X109321596Y-126702435D01*
X109142350Y-126722630D01*
X109142345Y-126722631D01*
X108972076Y-126782211D01*
X108819337Y-126878184D01*
X108691784Y-127005737D01*
X108595809Y-127158480D01*
X108562341Y-127254126D01*
X108521620Y-127310902D01*
X108456667Y-127336649D01*
X108388105Y-127323193D01*
X108337702Y-127274805D01*
X108328259Y-127254126D01*
X108294790Y-127158480D01*
X108294789Y-127158478D01*
X108198816Y-127005738D01*
X108071262Y-126878184D01*
X107918523Y-126782211D01*
X107748254Y-126722631D01*
X107748249Y-126722630D01*
X107569004Y-126702435D01*
X107568996Y-126702435D01*
X107389750Y-126722630D01*
X107389745Y-126722631D01*
X107219476Y-126782211D01*
X107066737Y-126878184D01*
X106939184Y-127005737D01*
X106843209Y-127158480D01*
X106809741Y-127254126D01*
X106769020Y-127310902D01*
X106704067Y-127336649D01*
X106635505Y-127323193D01*
X106585102Y-127274805D01*
X106575659Y-127254126D01*
X106542190Y-127158480D01*
X106542189Y-127158478D01*
X106446216Y-127005738D01*
X106318662Y-126878184D01*
X106165923Y-126782211D01*
X105995654Y-126722631D01*
X105995649Y-126722630D01*
X105816404Y-126702435D01*
X105816396Y-126702435D01*
X105637150Y-126722630D01*
X105637145Y-126722631D01*
X105466876Y-126782211D01*
X105314137Y-126878184D01*
X105186584Y-127005737D01*
X105090609Y-127158480D01*
X105057141Y-127254126D01*
X105016420Y-127310902D01*
X104951467Y-127336649D01*
X104882905Y-127323193D01*
X104832502Y-127274805D01*
X104823059Y-127254126D01*
X104789590Y-127158480D01*
X104789589Y-127158478D01*
X104693616Y-127005738D01*
X104566062Y-126878184D01*
X104413323Y-126782211D01*
X104243054Y-126722631D01*
X104243049Y-126722630D01*
X104063804Y-126702435D01*
X104063796Y-126702435D01*
X103884550Y-126722630D01*
X103884545Y-126722631D01*
X103714276Y-126782211D01*
X103561537Y-126878184D01*
X103433984Y-127005737D01*
X103338011Y-127158476D01*
X103278431Y-127328745D01*
X103278430Y-127328750D01*
X103258235Y-127507996D01*
X103258235Y-127508003D01*
X103268875Y-127602441D01*
X103256820Y-127671263D01*
X103242006Y-127692012D01*
X103243153Y-127692911D01*
X103238527Y-127698814D01*
X103150522Y-127844393D01*
X103099913Y-128006807D01*
X103098202Y-128025639D01*
X103093500Y-128077384D01*
X103093500Y-128590616D01*
X103095423Y-128611778D01*
X103099913Y-128661192D01*
X103099913Y-128661194D01*
X103099914Y-128661196D01*
X103150522Y-128823606D01*
X103199725Y-128904998D01*
X103238530Y-128969188D01*
X103340661Y-129071319D01*
X103374146Y-129132642D01*
X103369162Y-129202334D01*
X103340661Y-129246681D01*
X103238531Y-129348810D01*
X103238530Y-129348811D01*
X103150522Y-129494393D01*
X103099913Y-129656807D01*
X103093500Y-129727386D01*
X103093500Y-129904548D01*
X103073815Y-129971587D01*
X103057181Y-129992229D01*
X102774229Y-130275181D01*
X102712906Y-130308666D01*
X102686548Y-130311500D01*
X101919389Y-130311500D01*
X101858971Y-130323518D01*
X101815743Y-130332116D01*
X101798546Y-130335537D01*
X101684716Y-130382687D01*
X101684707Y-130382692D01*
X101582268Y-130451140D01*
X101538705Y-130494703D01*
X101495142Y-130538267D01*
X101495139Y-130538270D01*
X101137470Y-130895939D01*
X101137467Y-130895942D01*
X101113295Y-130920114D01*
X101050344Y-130983064D01*
X101029768Y-131013859D01*
X101029766Y-131013861D01*
X101011744Y-131040831D01*
X100958130Y-131085634D01*
X100934615Y-131093187D01*
X100928429Y-131094511D01*
X100763277Y-131149237D01*
X100763266Y-131149242D01*
X100615200Y-131240571D01*
X100615196Y-131240574D01*
X100492174Y-131363596D01*
X100492171Y-131363600D01*
X100400842Y-131511666D01*
X100400837Y-131511677D01*
X100346113Y-131676823D01*
X100335700Y-131778744D01*
X76482226Y-131778744D01*
X76354512Y-131436330D01*
X76351730Y-131427971D01*
X76193276Y-130888329D01*
X76191088Y-130879753D01*
X76175046Y-130806010D01*
X76071540Y-130330200D01*
X76069970Y-130321499D01*
X75989928Y-129764793D01*
X75988987Y-129756035D01*
X75948824Y-129194482D01*
X75948514Y-129186754D01*
X75948031Y-129132642D01*
X75946005Y-128905559D01*
X75946002Y-128904998D01*
X81693482Y-128904998D01*
X81693482Y-128905000D01*
X81713579Y-129205227D01*
X81713581Y-129205237D01*
X81773516Y-129500107D01*
X81872220Y-129784360D01*
X81872222Y-129784363D01*
X82007926Y-130052915D01*
X82007929Y-130052920D01*
X82007930Y-130052921D01*
X82178225Y-130300998D01*
X82380067Y-130524163D01*
X82609852Y-130718435D01*
X82863481Y-130880345D01*
X83136428Y-131007006D01*
X83423821Y-131096156D01*
X83720533Y-131146205D01*
X84021268Y-131156260D01*
X84320660Y-131126141D01*
X84613366Y-131056386D01*
X84894163Y-130948239D01*
X85158040Y-130803630D01*
X85400288Y-130625140D01*
X85616585Y-130415955D01*
X85803069Y-130179806D01*
X85956415Y-129920908D01*
X86073884Y-129643882D01*
X86153381Y-129353670D01*
X86193488Y-129055452D01*
X86196000Y-128905000D01*
X86193488Y-128754548D01*
X86153381Y-128456330D01*
X86073884Y-128166118D01*
X85956415Y-127889092D01*
X85878226Y-127757084D01*
X85803069Y-127630193D01*
X85616584Y-127394044D01*
X85400295Y-127184867D01*
X85400288Y-127184860D01*
X85158040Y-127006370D01*
X85156885Y-127005737D01*
X84894171Y-126861765D01*
X84894166Y-126861762D01*
X84894163Y-126861761D01*
X84894159Y-126861759D01*
X84894156Y-126861758D01*
X84613370Y-126753615D01*
X84613366Y-126753614D01*
X84320660Y-126683859D01*
X84320657Y-126683858D01*
X84021272Y-126653740D01*
X84021268Y-126653740D01*
X83720533Y-126663795D01*
X83423820Y-126713844D01*
X83295614Y-126753614D01*
X83136428Y-126802994D01*
X83136421Y-126802997D01*
X83136419Y-126802998D01*
X82863483Y-126929653D01*
X82863481Y-126929655D01*
X82609855Y-127091562D01*
X82380068Y-127285835D01*
X82178227Y-127508999D01*
X82178226Y-127509000D01*
X82007926Y-127757084D01*
X81872222Y-128025636D01*
X81872220Y-128025639D01*
X81773516Y-128309892D01*
X81713581Y-128604762D01*
X81713579Y-128604772D01*
X81693482Y-128904998D01*
X75946002Y-128904998D01*
X75946000Y-128904453D01*
X75946000Y-63752935D01*
X79756300Y-63752935D01*
X79756300Y-64948670D01*
X79756301Y-64948676D01*
X79762708Y-65008283D01*
X79813002Y-65143128D01*
X79813006Y-65143135D01*
X79899252Y-65258344D01*
X79899255Y-65258347D01*
X80014464Y-65344593D01*
X80014471Y-65344597D01*
X80149317Y-65394891D01*
X80156862Y-65396674D01*
X80156357Y-65398810D01*
X80210595Y-65421268D01*
X80250450Y-65478656D01*
X80256800Y-65517829D01*
X80256800Y-66883769D01*
X80237115Y-66950808D01*
X80184311Y-66996563D01*
X80156683Y-67004145D01*
X80156868Y-67004924D01*
X80149320Y-67006707D01*
X80014471Y-67057002D01*
X80014464Y-67057006D01*
X79899255Y-67143252D01*
X79899252Y-67143255D01*
X79813006Y-67258464D01*
X79813002Y-67258471D01*
X79762708Y-67393317D01*
X79756437Y-67451655D01*
X79756301Y-67452923D01*
X79756300Y-67452935D01*
X79756300Y-68648670D01*
X79756301Y-68648676D01*
X79762708Y-68708283D01*
X79813002Y-68843128D01*
X79813006Y-68843135D01*
X79899252Y-68958344D01*
X79899255Y-68958347D01*
X80014464Y-69044593D01*
X80014471Y-69044597D01*
X80149317Y-69094891D01*
X80149316Y-69094891D01*
X80156244Y-69095635D01*
X80208927Y-69101300D01*
X82104672Y-69101299D01*
X82164283Y-69094891D01*
X82299131Y-69044596D01*
X82414346Y-68958346D01*
X82500596Y-68843131D01*
X82513359Y-68808911D01*
X82532734Y-68756966D01*
X82574606Y-68701033D01*
X82640070Y-68676616D01*
X82648916Y-68676300D01*
X85864685Y-68676300D01*
X85931724Y-68695985D01*
X85977479Y-68748789D01*
X85980867Y-68756967D01*
X86013002Y-68843128D01*
X86013006Y-68843135D01*
X86099252Y-68958344D01*
X86099255Y-68958347D01*
X86214464Y-69044593D01*
X86214471Y-69044597D01*
X86259418Y-69061361D01*
X86349317Y-69094891D01*
X86408927Y-69101300D01*
X86410969Y-69101299D01*
X86411424Y-69101433D01*
X86412253Y-69101478D01*
X86412242Y-69101673D01*
X86478009Y-69120971D01*
X86523774Y-69173767D01*
X86533730Y-69242923D01*
X86517112Y-69289439D01*
X86514723Y-69293390D01*
X86464113Y-69455807D01*
X86457700Y-69526386D01*
X86457700Y-70189613D01*
X86464113Y-70260192D01*
X86464113Y-70260194D01*
X86464114Y-70260196D01*
X86479086Y-70308244D01*
X86514722Y-70422606D01*
X86515053Y-70423153D01*
X86515173Y-70423609D01*
X86517800Y-70429445D01*
X86516829Y-70429881D01*
X86532887Y-70490708D01*
X86511367Y-70557181D01*
X86457326Y-70601468D01*
X86412210Y-70610641D01*
X86412223Y-70610899D01*
X86412229Y-70610946D01*
X86412226Y-70610946D01*
X86412236Y-70611124D01*
X86408979Y-70611298D01*
X86408971Y-70611300D01*
X86408948Y-70611300D01*
X86408923Y-70611301D01*
X86349316Y-70617708D01*
X86214471Y-70668002D01*
X86214464Y-70668006D01*
X86099255Y-70754252D01*
X86099252Y-70754255D01*
X86013006Y-70869464D01*
X86013003Y-70869469D01*
X85980866Y-70955634D01*
X85938994Y-71011567D01*
X85873530Y-71035984D01*
X85864684Y-71036300D01*
X82648915Y-71036300D01*
X82581876Y-71016615D01*
X82536121Y-70963811D01*
X82532733Y-70955633D01*
X82500597Y-70869471D01*
X82500593Y-70869464D01*
X82414347Y-70754255D01*
X82414344Y-70754252D01*
X82299135Y-70668006D01*
X82299128Y-70668002D01*
X82164282Y-70617708D01*
X82164283Y-70617708D01*
X82104683Y-70611301D01*
X82104681Y-70611300D01*
X82104673Y-70611300D01*
X82104664Y-70611300D01*
X80208929Y-70611300D01*
X80208923Y-70611301D01*
X80149316Y-70617708D01*
X80014471Y-70668002D01*
X80014464Y-70668006D01*
X79899255Y-70754252D01*
X79899252Y-70754255D01*
X79813006Y-70869464D01*
X79813002Y-70869471D01*
X79762708Y-71004317D01*
X79756301Y-71063916D01*
X79756300Y-71063935D01*
X79756300Y-72259670D01*
X79756301Y-72259676D01*
X79762708Y-72319283D01*
X79813002Y-72454128D01*
X79813006Y-72454135D01*
X79899252Y-72569344D01*
X79899255Y-72569347D01*
X80014464Y-72655593D01*
X80014471Y-72655597D01*
X80149317Y-72705891D01*
X80156862Y-72707674D01*
X80156357Y-72709810D01*
X80210595Y-72732268D01*
X80250450Y-72789656D01*
X80256800Y-72828829D01*
X80256800Y-74194769D01*
X80237115Y-74261808D01*
X80184311Y-74307563D01*
X80156683Y-74315145D01*
X80156868Y-74315924D01*
X80149320Y-74317707D01*
X80014471Y-74368002D01*
X80014464Y-74368006D01*
X79899255Y-74454252D01*
X79899252Y-74454255D01*
X79813006Y-74569464D01*
X79813002Y-74569471D01*
X79762708Y-74704317D01*
X79756437Y-74762655D01*
X79756301Y-74763923D01*
X79756300Y-74763935D01*
X79756300Y-75959670D01*
X79756301Y-75959676D01*
X79762708Y-76019283D01*
X79813002Y-76154128D01*
X79813006Y-76154135D01*
X79899252Y-76269344D01*
X79899255Y-76269347D01*
X80014464Y-76355593D01*
X80014471Y-76355597D01*
X80149317Y-76405891D01*
X80149316Y-76405891D01*
X80156244Y-76406635D01*
X80208927Y-76412300D01*
X82104672Y-76412299D01*
X82164283Y-76405891D01*
X82299131Y-76355596D01*
X82414346Y-76269346D01*
X82500596Y-76154131D01*
X82513359Y-76119911D01*
X82532734Y-76067966D01*
X82574606Y-76012033D01*
X82640070Y-75987616D01*
X82648916Y-75987300D01*
X85864685Y-75987300D01*
X85931724Y-76006985D01*
X85977479Y-76059789D01*
X85980867Y-76067967D01*
X86013002Y-76154128D01*
X86013006Y-76154135D01*
X86099252Y-76269344D01*
X86099255Y-76269347D01*
X86214464Y-76355593D01*
X86214471Y-76355597D01*
X86259418Y-76372361D01*
X86349317Y-76405891D01*
X86408927Y-76412300D01*
X86477144Y-76412299D01*
X86544182Y-76431983D01*
X86589938Y-76484786D01*
X86599882Y-76553944D01*
X86583262Y-76600447D01*
X86565523Y-76629792D01*
X86565522Y-76629794D01*
X86549193Y-76682196D01*
X86514913Y-76792207D01*
X86508500Y-76862786D01*
X86508500Y-77526013D01*
X86514913Y-77596592D01*
X86514913Y-77596594D01*
X86514914Y-77596596D01*
X86565522Y-77759006D01*
X86565523Y-77759007D01*
X86568391Y-77763752D01*
X86586226Y-77831307D01*
X86564707Y-77897780D01*
X86510666Y-77942067D01*
X86462275Y-77951900D01*
X86408930Y-77951900D01*
X86408923Y-77951901D01*
X86349316Y-77958308D01*
X86214471Y-78008602D01*
X86214464Y-78008606D01*
X86099255Y-78094852D01*
X86099252Y-78094855D01*
X86013006Y-78210064D01*
X86013003Y-78210069D01*
X85980866Y-78296234D01*
X85938994Y-78352167D01*
X85873530Y-78376584D01*
X85864684Y-78376900D01*
X82648915Y-78376900D01*
X82581876Y-78357215D01*
X82536121Y-78304411D01*
X82532733Y-78296233D01*
X82500597Y-78210071D01*
X82500593Y-78210064D01*
X82414347Y-78094855D01*
X82414344Y-78094852D01*
X82299135Y-78008606D01*
X82299128Y-78008602D01*
X82164282Y-77958308D01*
X82164283Y-77958308D01*
X82104683Y-77951901D01*
X82104681Y-77951900D01*
X82104673Y-77951900D01*
X82104664Y-77951900D01*
X80208929Y-77951900D01*
X80208923Y-77951901D01*
X80149316Y-77958308D01*
X80014471Y-78008602D01*
X80014464Y-78008606D01*
X79899255Y-78094852D01*
X79899252Y-78094855D01*
X79813006Y-78210064D01*
X79813002Y-78210071D01*
X79762708Y-78344917D01*
X79756301Y-78404516D01*
X79756300Y-78404535D01*
X79756300Y-79600270D01*
X79756301Y-79600276D01*
X79762708Y-79659883D01*
X79813002Y-79794728D01*
X79813006Y-79794735D01*
X79899252Y-79909944D01*
X79899255Y-79909947D01*
X80014464Y-79996193D01*
X80014471Y-79996197D01*
X80149317Y-80046491D01*
X80156862Y-80048274D01*
X80156357Y-80050410D01*
X80210595Y-80072868D01*
X80250450Y-80130256D01*
X80256800Y-80169429D01*
X80256800Y-81535369D01*
X80237115Y-81602408D01*
X80184311Y-81648163D01*
X80156683Y-81655745D01*
X80156868Y-81656524D01*
X80149320Y-81658307D01*
X80014471Y-81708602D01*
X80014464Y-81708606D01*
X79899255Y-81794852D01*
X79899252Y-81794855D01*
X79813006Y-81910064D01*
X79813002Y-81910071D01*
X79762708Y-82044917D01*
X79756437Y-82103255D01*
X79756301Y-82104523D01*
X79756300Y-82104535D01*
X79756300Y-83300270D01*
X79756301Y-83300276D01*
X79762708Y-83359883D01*
X79813002Y-83494728D01*
X79813006Y-83494735D01*
X79899252Y-83609944D01*
X79899255Y-83609947D01*
X80014464Y-83696193D01*
X80014471Y-83696197D01*
X80149317Y-83746491D01*
X80149316Y-83746491D01*
X80156244Y-83747235D01*
X80208927Y-83752900D01*
X82104672Y-83752899D01*
X82164283Y-83746491D01*
X82299131Y-83696196D01*
X82414346Y-83609946D01*
X82500596Y-83494731D01*
X82515062Y-83455945D01*
X82532734Y-83408566D01*
X82574606Y-83352633D01*
X82640070Y-83328216D01*
X82648916Y-83327900D01*
X85864685Y-83327900D01*
X85931724Y-83347585D01*
X85977479Y-83400389D01*
X85980867Y-83408567D01*
X86013002Y-83494728D01*
X86013006Y-83494735D01*
X86099252Y-83609944D01*
X86099255Y-83609947D01*
X86214464Y-83696193D01*
X86214471Y-83696197D01*
X86259418Y-83712961D01*
X86349317Y-83746491D01*
X86408927Y-83752900D01*
X86434646Y-83752899D01*
X86501683Y-83772581D01*
X86547440Y-83825384D01*
X86557385Y-83894542D01*
X86540765Y-83941047D01*
X86525323Y-83966592D01*
X86525322Y-83966594D01*
X86523487Y-83972483D01*
X86474713Y-84129007D01*
X86469768Y-84183425D01*
X86468300Y-84199584D01*
X86468300Y-84862816D01*
X86470223Y-84883978D01*
X86474713Y-84933392D01*
X86474713Y-84933394D01*
X86474714Y-84933396D01*
X86525322Y-85095806D01*
X86530486Y-85104349D01*
X86548324Y-85171901D01*
X86526808Y-85238376D01*
X86472769Y-85282665D01*
X86424378Y-85292500D01*
X86408933Y-85292500D01*
X86408923Y-85292501D01*
X86349316Y-85298908D01*
X86214471Y-85349202D01*
X86214464Y-85349206D01*
X86099255Y-85435452D01*
X86099252Y-85435455D01*
X86013006Y-85550664D01*
X86013003Y-85550669D01*
X85980866Y-85636834D01*
X85938994Y-85692767D01*
X85873530Y-85717184D01*
X85864684Y-85717500D01*
X82648915Y-85717500D01*
X82581876Y-85697815D01*
X82536121Y-85645011D01*
X82532733Y-85636833D01*
X82500597Y-85550671D01*
X82500593Y-85550664D01*
X82414347Y-85435455D01*
X82414344Y-85435452D01*
X82299135Y-85349206D01*
X82299128Y-85349202D01*
X82164282Y-85298908D01*
X82164283Y-85298908D01*
X82104683Y-85292501D01*
X82104681Y-85292500D01*
X82104673Y-85292500D01*
X82104664Y-85292500D01*
X80208929Y-85292500D01*
X80208923Y-85292501D01*
X80149316Y-85298908D01*
X80014471Y-85349202D01*
X80014464Y-85349206D01*
X79899255Y-85435452D01*
X79899252Y-85435455D01*
X79813006Y-85550664D01*
X79813002Y-85550671D01*
X79762708Y-85685517D01*
X79756301Y-85745116D01*
X79756300Y-85745135D01*
X79756300Y-86940870D01*
X79756301Y-86940876D01*
X79762708Y-87000483D01*
X79813002Y-87135328D01*
X79813006Y-87135335D01*
X79899252Y-87250544D01*
X79899254Y-87250546D01*
X80014464Y-87336793D01*
X80014471Y-87336797D01*
X80149317Y-87387091D01*
X80156862Y-87388874D01*
X80156357Y-87391010D01*
X80210595Y-87413468D01*
X80250450Y-87470856D01*
X80256800Y-87510029D01*
X80256800Y-88875969D01*
X80237115Y-88943008D01*
X80184311Y-88988763D01*
X80156683Y-88996345D01*
X80156868Y-88997124D01*
X80149320Y-88998907D01*
X80014471Y-89049202D01*
X80014464Y-89049206D01*
X79899255Y-89135452D01*
X79899252Y-89135455D01*
X79813006Y-89250664D01*
X79813002Y-89250671D01*
X79762708Y-89385517D01*
X79756437Y-89443855D01*
X79756301Y-89445123D01*
X79756300Y-89445135D01*
X79756300Y-90640870D01*
X79756301Y-90640876D01*
X79762708Y-90700483D01*
X79813002Y-90835328D01*
X79813006Y-90835335D01*
X79899252Y-90950544D01*
X79899255Y-90950547D01*
X80014464Y-91036793D01*
X80014471Y-91036797D01*
X80149317Y-91087091D01*
X80149316Y-91087091D01*
X80156244Y-91087835D01*
X80208927Y-91093500D01*
X82104672Y-91093499D01*
X82164283Y-91087091D01*
X82299131Y-91036796D01*
X82414346Y-90950546D01*
X82500596Y-90835331D01*
X82513359Y-90801111D01*
X82532734Y-90749166D01*
X82574606Y-90693233D01*
X82640070Y-90668816D01*
X82648916Y-90668500D01*
X85864685Y-90668500D01*
X85931724Y-90688185D01*
X85977479Y-90740989D01*
X85980867Y-90749167D01*
X86013002Y-90835328D01*
X86013006Y-90835335D01*
X86099252Y-90950544D01*
X86099255Y-90950547D01*
X86214464Y-91036793D01*
X86214471Y-91036797D01*
X86259418Y-91053561D01*
X86349317Y-91087091D01*
X86408927Y-91093500D01*
X86424881Y-91093499D01*
X86491918Y-91113180D01*
X86537676Y-91165982D01*
X86547623Y-91235140D01*
X86531003Y-91281646D01*
X86515922Y-91306593D01*
X86465313Y-91469007D01*
X86458900Y-91539586D01*
X86458900Y-92202813D01*
X86465313Y-92273392D01*
X86465313Y-92273394D01*
X86465314Y-92273396D01*
X86511904Y-92422912D01*
X86515923Y-92435808D01*
X86521450Y-92444951D01*
X86539286Y-92512506D01*
X86517768Y-92578979D01*
X86463727Y-92623267D01*
X86415346Y-92633100D01*
X86408936Y-92633100D01*
X86408923Y-92633101D01*
X86349316Y-92639508D01*
X86214471Y-92689802D01*
X86214464Y-92689806D01*
X86099255Y-92776052D01*
X86099252Y-92776055D01*
X86013006Y-92891264D01*
X86013003Y-92891269D01*
X85980866Y-92977434D01*
X85938994Y-93033367D01*
X85873530Y-93057784D01*
X85864684Y-93058100D01*
X82648915Y-93058100D01*
X82581876Y-93038415D01*
X82536121Y-92985611D01*
X82532733Y-92977433D01*
X82500597Y-92891271D01*
X82500593Y-92891264D01*
X82414347Y-92776055D01*
X82414344Y-92776052D01*
X82299135Y-92689806D01*
X82299128Y-92689802D01*
X82164282Y-92639508D01*
X82164283Y-92639508D01*
X82104683Y-92633101D01*
X82104681Y-92633100D01*
X82104673Y-92633100D01*
X82104664Y-92633100D01*
X80208929Y-92633100D01*
X80208923Y-92633101D01*
X80149316Y-92639508D01*
X80014471Y-92689802D01*
X80014464Y-92689806D01*
X79899255Y-92776052D01*
X79899252Y-92776055D01*
X79813006Y-92891264D01*
X79813002Y-92891271D01*
X79762708Y-93026117D01*
X79756301Y-93085716D01*
X79756300Y-93085735D01*
X79756300Y-94281470D01*
X79756301Y-94281476D01*
X79762708Y-94341083D01*
X79813002Y-94475928D01*
X79813006Y-94475935D01*
X79899252Y-94591144D01*
X79899255Y-94591147D01*
X80014464Y-94677393D01*
X80014471Y-94677397D01*
X80149317Y-94727691D01*
X80156862Y-94729474D01*
X80156357Y-94731610D01*
X80210595Y-94754068D01*
X80250450Y-94811456D01*
X80256800Y-94850629D01*
X80256800Y-96216569D01*
X80237115Y-96283608D01*
X80184311Y-96329363D01*
X80156683Y-96336945D01*
X80156868Y-96337724D01*
X80149320Y-96339507D01*
X80014471Y-96389802D01*
X80014464Y-96389806D01*
X79899255Y-96476052D01*
X79899252Y-96476055D01*
X79813006Y-96591264D01*
X79813002Y-96591271D01*
X79762708Y-96726117D01*
X79756437Y-96784455D01*
X79756301Y-96785723D01*
X79756300Y-96785735D01*
X79756300Y-97981470D01*
X79756301Y-97981476D01*
X79762708Y-98041083D01*
X79813002Y-98175928D01*
X79813006Y-98175935D01*
X79899252Y-98291144D01*
X79899255Y-98291147D01*
X80014464Y-98377393D01*
X80014471Y-98377397D01*
X80149317Y-98427691D01*
X80149316Y-98427691D01*
X80156244Y-98428435D01*
X80208927Y-98434100D01*
X82104672Y-98434099D01*
X82164283Y-98427691D01*
X82299131Y-98377396D01*
X82414346Y-98291146D01*
X82500596Y-98175931D01*
X82530854Y-98094806D01*
X82532734Y-98089766D01*
X82574606Y-98033833D01*
X82640070Y-98009416D01*
X82648916Y-98009100D01*
X85864685Y-98009100D01*
X85931724Y-98028785D01*
X85977479Y-98081589D01*
X85980867Y-98089767D01*
X86013002Y-98175928D01*
X86013006Y-98175935D01*
X86099252Y-98291144D01*
X86099255Y-98291147D01*
X86214464Y-98377393D01*
X86214471Y-98377397D01*
X86259418Y-98394161D01*
X86349317Y-98427691D01*
X86408927Y-98434100D01*
X86428751Y-98434099D01*
X86495788Y-98453781D01*
X86541545Y-98506583D01*
X86551492Y-98575741D01*
X86534871Y-98622247D01*
X86515923Y-98653592D01*
X86515922Y-98653594D01*
X86472776Y-98792054D01*
X86465313Y-98816007D01*
X86458900Y-98886586D01*
X86458900Y-99549813D01*
X86465313Y-99620392D01*
X86465313Y-99620394D01*
X86465314Y-99620396D01*
X86507725Y-99756501D01*
X86515922Y-99782806D01*
X86548291Y-99836350D01*
X86566127Y-99903905D01*
X86544609Y-99970378D01*
X86490569Y-100014666D01*
X86442177Y-100024500D01*
X86408931Y-100024500D01*
X86408923Y-100024501D01*
X86349316Y-100030908D01*
X86214471Y-100081202D01*
X86214464Y-100081206D01*
X86099255Y-100167452D01*
X86099252Y-100167455D01*
X86013006Y-100282664D01*
X86013003Y-100282669D01*
X85980866Y-100368834D01*
X85938994Y-100424767D01*
X85873530Y-100449184D01*
X85864684Y-100449500D01*
X82648915Y-100449500D01*
X82581876Y-100429815D01*
X82536121Y-100377011D01*
X82532733Y-100368833D01*
X82500597Y-100282671D01*
X82500593Y-100282664D01*
X82414347Y-100167455D01*
X82414344Y-100167452D01*
X82299135Y-100081206D01*
X82299128Y-100081202D01*
X82164282Y-100030908D01*
X82164283Y-100030908D01*
X82104683Y-100024501D01*
X82104681Y-100024500D01*
X82104673Y-100024500D01*
X82104664Y-100024500D01*
X80208929Y-100024500D01*
X80208923Y-100024501D01*
X80149316Y-100030908D01*
X80014471Y-100081202D01*
X80014464Y-100081206D01*
X79899255Y-100167452D01*
X79899252Y-100167455D01*
X79813006Y-100282664D01*
X79813002Y-100282671D01*
X79762708Y-100417517D01*
X79756301Y-100477116D01*
X79756300Y-100477135D01*
X79756300Y-101672870D01*
X79756301Y-101672876D01*
X79762708Y-101732483D01*
X79813002Y-101867328D01*
X79813006Y-101867335D01*
X79899252Y-101982544D01*
X79899255Y-101982547D01*
X80014464Y-102068793D01*
X80014471Y-102068797D01*
X80149317Y-102119091D01*
X80156862Y-102120874D01*
X80156357Y-102123010D01*
X80210595Y-102145468D01*
X80250450Y-102202856D01*
X80256800Y-102242029D01*
X80256800Y-103607969D01*
X80237115Y-103675008D01*
X80184311Y-103720763D01*
X80156683Y-103728345D01*
X80156868Y-103729124D01*
X80149320Y-103730907D01*
X80014471Y-103781202D01*
X80014464Y-103781206D01*
X79899255Y-103867452D01*
X79899252Y-103867455D01*
X79813006Y-103982664D01*
X79813002Y-103982671D01*
X79762708Y-104117517D01*
X79756437Y-104175855D01*
X79756301Y-104177123D01*
X79756300Y-104177135D01*
X79756300Y-105372870D01*
X79756301Y-105372876D01*
X79762708Y-105432483D01*
X79813002Y-105567328D01*
X79813006Y-105567335D01*
X79899252Y-105682544D01*
X79899255Y-105682547D01*
X80014464Y-105768793D01*
X80014471Y-105768797D01*
X80149317Y-105819091D01*
X80149316Y-105819091D01*
X80156244Y-105819835D01*
X80208927Y-105825500D01*
X82104672Y-105825499D01*
X82164283Y-105819091D01*
X82299131Y-105768796D01*
X82414346Y-105682546D01*
X82500596Y-105567331D01*
X82513359Y-105533111D01*
X82532734Y-105481166D01*
X82574606Y-105425233D01*
X82640070Y-105400816D01*
X82648916Y-105400500D01*
X85864685Y-105400500D01*
X85931724Y-105420185D01*
X85977479Y-105472989D01*
X85980867Y-105481167D01*
X86013002Y-105567328D01*
X86013006Y-105567335D01*
X86099252Y-105682544D01*
X86099255Y-105682547D01*
X86214464Y-105768793D01*
X86214471Y-105768797D01*
X86259418Y-105785561D01*
X86349317Y-105819091D01*
X86408927Y-105825500D01*
X86422573Y-105825499D01*
X86489610Y-105845180D01*
X86535368Y-105897981D01*
X86545316Y-105967139D01*
X86528694Y-106013648D01*
X86490523Y-106076791D01*
X86439913Y-106239207D01*
X86433500Y-106309786D01*
X86433500Y-106973013D01*
X86439913Y-107043592D01*
X86439913Y-107043594D01*
X86439914Y-107043596D01*
X86490522Y-107206006D01*
X86519264Y-107253551D01*
X86537100Y-107321104D01*
X86515583Y-107387578D01*
X86461542Y-107431866D01*
X86413163Y-107441700D01*
X86408938Y-107441700D01*
X86408923Y-107441701D01*
X86349316Y-107448108D01*
X86214471Y-107498402D01*
X86214464Y-107498406D01*
X86099255Y-107584652D01*
X86099252Y-107584655D01*
X86013006Y-107699864D01*
X86013003Y-107699869D01*
X85980866Y-107786034D01*
X85938994Y-107841967D01*
X85873530Y-107866384D01*
X85864684Y-107866700D01*
X82648915Y-107866700D01*
X82581876Y-107847015D01*
X82536121Y-107794211D01*
X82532733Y-107786033D01*
X82500597Y-107699871D01*
X82500593Y-107699864D01*
X82414347Y-107584655D01*
X82414344Y-107584652D01*
X82299135Y-107498406D01*
X82299128Y-107498402D01*
X82164282Y-107448108D01*
X82164283Y-107448108D01*
X82104683Y-107441701D01*
X82104681Y-107441700D01*
X82104673Y-107441700D01*
X82104664Y-107441700D01*
X80208929Y-107441700D01*
X80208923Y-107441701D01*
X80149316Y-107448108D01*
X80014471Y-107498402D01*
X80014464Y-107498406D01*
X79899255Y-107584652D01*
X79899252Y-107584655D01*
X79813006Y-107699864D01*
X79813002Y-107699871D01*
X79762708Y-107834717D01*
X79756301Y-107894316D01*
X79756300Y-107894335D01*
X79756300Y-109090070D01*
X79756301Y-109090076D01*
X79762708Y-109149683D01*
X79813002Y-109284528D01*
X79813006Y-109284535D01*
X79899252Y-109399744D01*
X79899255Y-109399747D01*
X80014464Y-109485993D01*
X80014471Y-109485997D01*
X80149317Y-109536291D01*
X80156862Y-109538074D01*
X80156357Y-109540210D01*
X80210595Y-109562668D01*
X80250450Y-109620056D01*
X80256800Y-109659229D01*
X80256800Y-111025169D01*
X80237115Y-111092208D01*
X80184311Y-111137963D01*
X80156683Y-111145545D01*
X80156868Y-111146324D01*
X80149320Y-111148107D01*
X80014471Y-111198402D01*
X80014464Y-111198406D01*
X79899255Y-111284652D01*
X79899252Y-111284655D01*
X79813006Y-111399864D01*
X79813002Y-111399871D01*
X79762708Y-111534717D01*
X79756437Y-111593055D01*
X79756301Y-111594323D01*
X79756300Y-111594335D01*
X79756300Y-112790070D01*
X79756301Y-112790076D01*
X79762708Y-112849683D01*
X79813002Y-112984528D01*
X79813006Y-112984535D01*
X79899252Y-113099744D01*
X79899255Y-113099747D01*
X80014464Y-113185993D01*
X80014471Y-113185997D01*
X80149317Y-113236291D01*
X80149316Y-113236291D01*
X80156244Y-113237035D01*
X80208927Y-113242700D01*
X82104672Y-113242699D01*
X82164283Y-113236291D01*
X82299131Y-113185996D01*
X82414346Y-113099746D01*
X82500596Y-112984531D01*
X82523035Y-112924369D01*
X82532734Y-112898366D01*
X82574606Y-112842433D01*
X82640070Y-112818016D01*
X82648916Y-112817700D01*
X85864685Y-112817700D01*
X85931724Y-112837385D01*
X85977479Y-112890189D01*
X85980867Y-112898367D01*
X86013002Y-112984528D01*
X86013006Y-112984535D01*
X86099252Y-113099744D01*
X86099255Y-113099747D01*
X86214464Y-113185993D01*
X86214471Y-113185997D01*
X86259418Y-113202761D01*
X86349317Y-113236291D01*
X86408927Y-113242700D01*
X86421131Y-113242699D01*
X86488169Y-113262379D01*
X86533927Y-113315180D01*
X86543875Y-113384338D01*
X86527255Y-113430845D01*
X86515923Y-113449590D01*
X86465313Y-113612007D01*
X86458900Y-113682586D01*
X86458900Y-114345813D01*
X86465313Y-114416392D01*
X86515922Y-114578806D01*
X86540311Y-114619150D01*
X86558147Y-114686705D01*
X86536629Y-114753179D01*
X86482589Y-114797466D01*
X86434198Y-114807300D01*
X86408932Y-114807300D01*
X86408923Y-114807301D01*
X86349316Y-114813708D01*
X86214471Y-114864002D01*
X86214464Y-114864006D01*
X86099255Y-114950252D01*
X86099252Y-114950255D01*
X86013006Y-115065464D01*
X86013003Y-115065469D01*
X85980866Y-115151634D01*
X85938994Y-115207567D01*
X85873530Y-115231984D01*
X85864684Y-115232300D01*
X82648915Y-115232300D01*
X82581876Y-115212615D01*
X82536121Y-115159811D01*
X82532733Y-115151633D01*
X82500597Y-115065471D01*
X82500593Y-115065464D01*
X82414347Y-114950255D01*
X82414344Y-114950252D01*
X82299135Y-114864006D01*
X82299128Y-114864002D01*
X82164282Y-114813708D01*
X82164283Y-114813708D01*
X82104683Y-114807301D01*
X82104681Y-114807300D01*
X82104673Y-114807300D01*
X82104664Y-114807300D01*
X80208929Y-114807300D01*
X80208923Y-114807301D01*
X80149316Y-114813708D01*
X80014471Y-114864002D01*
X80014464Y-114864006D01*
X79899255Y-114950252D01*
X79899252Y-114950255D01*
X79813006Y-115065464D01*
X79813002Y-115065471D01*
X79762708Y-115200317D01*
X79756301Y-115259916D01*
X79756300Y-115259935D01*
X79756300Y-116455670D01*
X79756301Y-116455676D01*
X79762708Y-116515283D01*
X79813002Y-116650128D01*
X79813006Y-116650135D01*
X79899252Y-116765344D01*
X79899255Y-116765347D01*
X80014464Y-116851593D01*
X80014471Y-116851597D01*
X80149317Y-116901891D01*
X80156862Y-116903674D01*
X80156357Y-116905810D01*
X80210595Y-116928268D01*
X80250450Y-116985656D01*
X80256800Y-117024829D01*
X80256800Y-118390769D01*
X80237115Y-118457808D01*
X80184311Y-118503563D01*
X80156683Y-118511145D01*
X80156868Y-118511924D01*
X80149320Y-118513707D01*
X80014471Y-118564002D01*
X80014464Y-118564006D01*
X79899255Y-118650252D01*
X79899252Y-118650255D01*
X79813006Y-118765464D01*
X79813002Y-118765471D01*
X79762708Y-118900317D01*
X79756437Y-118958655D01*
X79756301Y-118959923D01*
X79756300Y-118959935D01*
X79756300Y-120155670D01*
X79756301Y-120155676D01*
X79762708Y-120215283D01*
X79813002Y-120350128D01*
X79813006Y-120350135D01*
X79899252Y-120465344D01*
X79899255Y-120465347D01*
X80014464Y-120551593D01*
X80014471Y-120551597D01*
X80149317Y-120601891D01*
X80149316Y-120601891D01*
X80156244Y-120602635D01*
X80208927Y-120608300D01*
X82104672Y-120608299D01*
X82164283Y-120601891D01*
X82299131Y-120551596D01*
X82414346Y-120465346D01*
X82500596Y-120350131D01*
X82517142Y-120305768D01*
X82532734Y-120263966D01*
X82574606Y-120208033D01*
X82640070Y-120183616D01*
X82648916Y-120183300D01*
X85864685Y-120183300D01*
X85931724Y-120202985D01*
X85977479Y-120255789D01*
X85980867Y-120263967D01*
X86013002Y-120350128D01*
X86013006Y-120350135D01*
X86099252Y-120465344D01*
X86099255Y-120465347D01*
X86214464Y-120551593D01*
X86214471Y-120551597D01*
X86259418Y-120568361D01*
X86349317Y-120601891D01*
X86408927Y-120608300D01*
X86425002Y-120608299D01*
X86492039Y-120627980D01*
X86537797Y-120680782D01*
X86547744Y-120749940D01*
X86531124Y-120796446D01*
X86515922Y-120821593D01*
X86465313Y-120984007D01*
X86458900Y-121054586D01*
X86458900Y-121717813D01*
X86465313Y-121788392D01*
X86515922Y-121950806D01*
X86603930Y-122096388D01*
X86724211Y-122216669D01*
X86724213Y-122216670D01*
X86724215Y-122216672D01*
X86869794Y-122304678D01*
X87032204Y-122355286D01*
X87102784Y-122361700D01*
X87102787Y-122361700D01*
X87616013Y-122361700D01*
X87616016Y-122361700D01*
X87686596Y-122355286D01*
X87849006Y-122304678D01*
X87994585Y-122216672D01*
X87994589Y-122216668D01*
X88096719Y-122114539D01*
X88158042Y-122081054D01*
X88227734Y-122086038D01*
X88272081Y-122114539D01*
X88374211Y-122216669D01*
X88374213Y-122216670D01*
X88374215Y-122216672D01*
X88519794Y-122304678D01*
X88682204Y-122355286D01*
X88752784Y-122361700D01*
X88752787Y-122361700D01*
X89266013Y-122361700D01*
X89266016Y-122361700D01*
X89336596Y-122355286D01*
X89499006Y-122304678D01*
X89644585Y-122216672D01*
X89764872Y-122096385D01*
X89852878Y-121950806D01*
X89903486Y-121788396D01*
X89909900Y-121717816D01*
X89909900Y-121421653D01*
X89929585Y-121354614D01*
X89946217Y-121333974D01*
X89966087Y-121314103D01*
X90027407Y-121280618D01*
X90097099Y-121285601D01*
X90121024Y-121299005D01*
X90121396Y-121298391D01*
X90127813Y-121302270D01*
X90127815Y-121302272D01*
X90273394Y-121390278D01*
X90435804Y-121440886D01*
X90506384Y-121447300D01*
X90506387Y-121447300D01*
X91019613Y-121447300D01*
X91019616Y-121447300D01*
X91090196Y-121440886D01*
X91252606Y-121390278D01*
X91398185Y-121302272D01*
X91419839Y-121280618D01*
X91500319Y-121200139D01*
X91561642Y-121166654D01*
X91631334Y-121171638D01*
X91675681Y-121200139D01*
X91777811Y-121302269D01*
X91777813Y-121302270D01*
X91777815Y-121302272D01*
X91923394Y-121390278D01*
X92085804Y-121440886D01*
X92156384Y-121447300D01*
X92156387Y-121447300D01*
X92669613Y-121447300D01*
X92669616Y-121447300D01*
X92740196Y-121440886D01*
X92902606Y-121390278D01*
X93048185Y-121302272D01*
X93168472Y-121181985D01*
X93256478Y-121036406D01*
X93307086Y-120873996D01*
X93313500Y-120803416D01*
X93313500Y-120140184D01*
X93307086Y-120069604D01*
X93256478Y-119907194D01*
X93168472Y-119761615D01*
X93051650Y-119644793D01*
X93018167Y-119583473D01*
X93017726Y-119581356D01*
X93014463Y-119564948D01*
X92986246Y-119496826D01*
X92967314Y-119451120D01*
X92967307Y-119451107D01*
X92898859Y-119348668D01*
X92898858Y-119348667D01*
X92811733Y-119261542D01*
X92811732Y-119261541D01*
X92370172Y-118819981D01*
X92336687Y-118758658D01*
X92341671Y-118688966D01*
X92383543Y-118633033D01*
X92449007Y-118608616D01*
X92457853Y-118608300D01*
X92571644Y-118608300D01*
X92571646Y-118608300D01*
X92756803Y-118568944D01*
X92929730Y-118491951D01*
X93082871Y-118380688D01*
X93209533Y-118240016D01*
X93304179Y-118076084D01*
X93362674Y-117896056D01*
X93382460Y-117707800D01*
X93362674Y-117519544D01*
X93304179Y-117339516D01*
X93209533Y-117175584D01*
X93171499Y-117133343D01*
X93134350Y-117092084D01*
X93104120Y-117029092D01*
X93102500Y-117009112D01*
X93102500Y-117006593D01*
X93095768Y-116972752D01*
X93095767Y-116972747D01*
X93092792Y-116957791D01*
X93082949Y-116908300D01*
X93081674Y-116901892D01*
X93078463Y-116885750D01*
X93078463Y-116885748D01*
X93050843Y-116819068D01*
X93042894Y-116799878D01*
X93031314Y-116771920D01*
X93031312Y-116771915D01*
X93002432Y-116728694D01*
X92962858Y-116669467D01*
X92962856Y-116669464D01*
X92872637Y-116579245D01*
X92872606Y-116579216D01*
X92689298Y-116395908D01*
X92689278Y-116395886D01*
X92597836Y-116304444D01*
X92597832Y-116304441D01*
X92535404Y-116262728D01*
X92495386Y-116235988D01*
X92495387Y-116235988D01*
X92495385Y-116235987D01*
X92450121Y-116217239D01*
X92391598Y-116192998D01*
X92391595Y-116192996D01*
X92391595Y-116192997D01*
X92381554Y-116188837D01*
X92361503Y-116184849D01*
X92321129Y-116176818D01*
X92260710Y-116164800D01*
X92260707Y-116164800D01*
X92260706Y-116164800D01*
X92255029Y-116164800D01*
X92187990Y-116145115D01*
X92149490Y-116105896D01*
X92143482Y-116096156D01*
X92134626Y-116081797D01*
X92011603Y-115958774D01*
X92011599Y-115958771D01*
X91863533Y-115867442D01*
X91863527Y-115867439D01*
X91863525Y-115867438D01*
X91824505Y-115854508D01*
X91791904Y-115843705D01*
X91734459Y-115803931D01*
X91707637Y-115739415D01*
X91719953Y-115670640D01*
X91767496Y-115619440D01*
X91835173Y-115602072D01*
X91855093Y-115604381D01*
X91930799Y-115619440D01*
X91963777Y-115626000D01*
X91963778Y-115626000D01*
X100144060Y-115626000D01*
X100264350Y-115602072D01*
X100277557Y-115599445D01*
X100403311Y-115547356D01*
X100427640Y-115531100D01*
X100516487Y-115471735D01*
X102083224Y-113904998D01*
X106693482Y-113904998D01*
X106693482Y-113905000D01*
X106713579Y-114205227D01*
X106713581Y-114205237D01*
X106773516Y-114500107D01*
X106872220Y-114784360D01*
X106872222Y-114784363D01*
X107007926Y-115052915D01*
X107007929Y-115052920D01*
X107007930Y-115052921D01*
X107178225Y-115300998D01*
X107380067Y-115524163D01*
X107609852Y-115718435D01*
X107863481Y-115880345D01*
X108136428Y-116007006D01*
X108423821Y-116096156D01*
X108720533Y-116146205D01*
X109021268Y-116156260D01*
X109320660Y-116126141D01*
X109613366Y-116056386D01*
X109894163Y-115948239D01*
X110158040Y-115803630D01*
X110255390Y-115731902D01*
X160674500Y-115731902D01*
X160674500Y-115968097D01*
X160711446Y-116201368D01*
X160784433Y-116425996D01*
X160864096Y-116582342D01*
X160891657Y-116636433D01*
X161030483Y-116827510D01*
X161197490Y-116994517D01*
X161388567Y-117133343D01*
X161471470Y-117175584D01*
X161599003Y-117240566D01*
X161599005Y-117240566D01*
X161599008Y-117240568D01*
X161719412Y-117279689D01*
X161823631Y-117313553D01*
X162056903Y-117350500D01*
X162056908Y-117350500D01*
X163793097Y-117350500D01*
X164026368Y-117313553D01*
X164090417Y-117292742D01*
X164250992Y-117240568D01*
X164461433Y-117133343D01*
X164652510Y-116994517D01*
X164819517Y-116827510D01*
X164958343Y-116636433D01*
X165065568Y-116425992D01*
X165138553Y-116201368D01*
X165144345Y-116164800D01*
X165152527Y-116113141D01*
X165182456Y-116050006D01*
X165241768Y-116013075D01*
X165311630Y-116014073D01*
X165369863Y-116052683D01*
X165397473Y-116113141D01*
X165411446Y-116201368D01*
X165484433Y-116425996D01*
X165564096Y-116582342D01*
X165591657Y-116636433D01*
X165730483Y-116827510D01*
X165897490Y-116994517D01*
X166088567Y-117133343D01*
X166171470Y-117175584D01*
X166299003Y-117240566D01*
X166299005Y-117240566D01*
X166299008Y-117240568D01*
X166419412Y-117279689D01*
X166523631Y-117313553D01*
X166756903Y-117350500D01*
X166756908Y-117350500D01*
X168493097Y-117350500D01*
X168726368Y-117313553D01*
X168790417Y-117292742D01*
X168950992Y-117240568D01*
X169161433Y-117133343D01*
X169352510Y-116994517D01*
X169519517Y-116827510D01*
X169658343Y-116636433D01*
X169765568Y-116425992D01*
X169838553Y-116201368D01*
X169844345Y-116164800D01*
X169875500Y-115968097D01*
X169875500Y-115731902D01*
X169838553Y-115498631D01*
X169804689Y-115394412D01*
X169765568Y-115274008D01*
X169765566Y-115274005D01*
X169765566Y-115274003D01*
X169659312Y-115065469D01*
X169658343Y-115063567D01*
X169519517Y-114872490D01*
X169352510Y-114705483D01*
X169161433Y-114566657D01*
X169097886Y-114534278D01*
X168950996Y-114459433D01*
X168726368Y-114386446D01*
X168493097Y-114349500D01*
X168493092Y-114349500D01*
X166756908Y-114349500D01*
X166756903Y-114349500D01*
X166523631Y-114386446D01*
X166299003Y-114459433D01*
X166088566Y-114566657D01*
X165982276Y-114643882D01*
X165897490Y-114705483D01*
X165897488Y-114705485D01*
X165897487Y-114705485D01*
X165730485Y-114872487D01*
X165730485Y-114872488D01*
X165730483Y-114872490D01*
X165686754Y-114932678D01*
X165591657Y-115063566D01*
X165484433Y-115274003D01*
X165411446Y-115498631D01*
X165397473Y-115586858D01*
X165367544Y-115649993D01*
X165308232Y-115686924D01*
X165238370Y-115685926D01*
X165180137Y-115647316D01*
X165152527Y-115586858D01*
X165138553Y-115498631D01*
X165104689Y-115394412D01*
X165065568Y-115274008D01*
X165065566Y-115274005D01*
X165065566Y-115274003D01*
X164959312Y-115065469D01*
X164958343Y-115063567D01*
X164819517Y-114872490D01*
X164652510Y-114705483D01*
X164461433Y-114566657D01*
X164397886Y-114534278D01*
X164250996Y-114459433D01*
X164026368Y-114386446D01*
X163793097Y-114349500D01*
X163793092Y-114349500D01*
X162056908Y-114349500D01*
X162056903Y-114349500D01*
X161823631Y-114386446D01*
X161599003Y-114459433D01*
X161388566Y-114566657D01*
X161282276Y-114643882D01*
X161197490Y-114705483D01*
X161197488Y-114705485D01*
X161197487Y-114705485D01*
X161030485Y-114872487D01*
X161030485Y-114872488D01*
X161030483Y-114872490D01*
X160986754Y-114932678D01*
X160891657Y-115063566D01*
X160784433Y-115274003D01*
X160711446Y-115498631D01*
X160674500Y-115731902D01*
X110255390Y-115731902D01*
X110400288Y-115625140D01*
X110616585Y-115415955D01*
X110803069Y-115179806D01*
X110956415Y-114920908D01*
X111073884Y-114643882D01*
X111153381Y-114353670D01*
X111193488Y-114055452D01*
X111196000Y-113905000D01*
X111196000Y-113904998D01*
X190693482Y-113904998D01*
X190693482Y-113905000D01*
X190713579Y-114205227D01*
X190713581Y-114205237D01*
X190773516Y-114500107D01*
X190872220Y-114784360D01*
X190872222Y-114784363D01*
X191007926Y-115052915D01*
X191007929Y-115052920D01*
X191007930Y-115052921D01*
X191178225Y-115300998D01*
X191380067Y-115524163D01*
X191609852Y-115718435D01*
X191863481Y-115880345D01*
X192136428Y-116007006D01*
X192423821Y-116096156D01*
X192720533Y-116146205D01*
X193021268Y-116156260D01*
X193320660Y-116126141D01*
X193613366Y-116056386D01*
X193894163Y-115948239D01*
X194158040Y-115803630D01*
X194400288Y-115625140D01*
X194616585Y-115415955D01*
X194803069Y-115179806D01*
X194956415Y-114920908D01*
X195073884Y-114643882D01*
X195153381Y-114353670D01*
X195193488Y-114055452D01*
X195196000Y-113905000D01*
X195193488Y-113754548D01*
X195153381Y-113456330D01*
X195094862Y-113242699D01*
X195073886Y-113166124D01*
X195073884Y-113166121D01*
X195073884Y-113166118D01*
X194956415Y-112889092D01*
X194878226Y-112757084D01*
X194803069Y-112630193D01*
X194646509Y-112431939D01*
X194616585Y-112394045D01*
X194400288Y-112184860D01*
X194158040Y-112006370D01*
X193894171Y-111861765D01*
X193894166Y-111861762D01*
X193894163Y-111861761D01*
X193894159Y-111861759D01*
X193894156Y-111861758D01*
X193613370Y-111753615D01*
X193613366Y-111753614D01*
X193320660Y-111683859D01*
X193320657Y-111683858D01*
X193021272Y-111653740D01*
X193021268Y-111653740D01*
X192720533Y-111663795D01*
X192423820Y-111713844D01*
X192295614Y-111753614D01*
X192136428Y-111802994D01*
X192136421Y-111802997D01*
X192136419Y-111802998D01*
X191863483Y-111929653D01*
X191863481Y-111929655D01*
X191609855Y-112091562D01*
X191380068Y-112285835D01*
X191178227Y-112508999D01*
X191178226Y-112509000D01*
X191007926Y-112757084D01*
X190872222Y-113025636D01*
X190872220Y-113025639D01*
X190773516Y-113309892D01*
X190713581Y-113604762D01*
X190713579Y-113604772D01*
X190693482Y-113904998D01*
X111196000Y-113904998D01*
X111193488Y-113754548D01*
X111153381Y-113456330D01*
X111094862Y-113242699D01*
X111073886Y-113166124D01*
X111073884Y-113166121D01*
X111073884Y-113166118D01*
X110956415Y-112889092D01*
X110878226Y-112757084D01*
X110803069Y-112630193D01*
X110646509Y-112431939D01*
X110616585Y-112394045D01*
X110400288Y-112184860D01*
X110158040Y-112006370D01*
X109894171Y-111861765D01*
X109894166Y-111861762D01*
X109894163Y-111861761D01*
X109894159Y-111861759D01*
X109894156Y-111861758D01*
X109613370Y-111753615D01*
X109613366Y-111753614D01*
X109320660Y-111683859D01*
X109320657Y-111683858D01*
X109021272Y-111653740D01*
X109021268Y-111653740D01*
X108720533Y-111663795D01*
X108423820Y-111713844D01*
X108295614Y-111753614D01*
X108136428Y-111802994D01*
X108136421Y-111802997D01*
X108136419Y-111802998D01*
X107863483Y-111929653D01*
X107863481Y-111929655D01*
X107609855Y-112091562D01*
X107380068Y-112285835D01*
X107178227Y-112508999D01*
X107178226Y-112509000D01*
X107007926Y-112757084D01*
X106872222Y-113025636D01*
X106872220Y-113025639D01*
X106773516Y-113309892D01*
X106713581Y-113604762D01*
X106713579Y-113604772D01*
X106693482Y-113904998D01*
X102083224Y-113904998D01*
X102898735Y-113089487D01*
X102974356Y-112976311D01*
X103026445Y-112850557D01*
X103027335Y-112846081D01*
X103027336Y-112846081D01*
X103027336Y-112846077D01*
X103053000Y-112717058D01*
X103053000Y-110999999D01*
X158819341Y-110999999D01*
X158819341Y-111000000D01*
X158839936Y-111235403D01*
X158839938Y-111235413D01*
X158901094Y-111463655D01*
X158901096Y-111463659D01*
X158901097Y-111463663D01*
X158961434Y-111593055D01*
X159000965Y-111677830D01*
X159000967Y-111677834D01*
X159054030Y-111753615D01*
X159136505Y-111871401D01*
X159303599Y-112038495D01*
X159400384Y-112106265D01*
X159497165Y-112174032D01*
X159497167Y-112174033D01*
X159497170Y-112174035D01*
X159711337Y-112273903D01*
X159939592Y-112335063D01*
X160124572Y-112351247D01*
X160174999Y-112355659D01*
X160175000Y-112355659D01*
X160175001Y-112355659D01*
X160225428Y-112351247D01*
X160410408Y-112335063D01*
X160638663Y-112273903D01*
X160852830Y-112174035D01*
X161046401Y-112038495D01*
X161213495Y-111871401D01*
X161349035Y-111677830D01*
X161448903Y-111463663D01*
X161510063Y-111235408D01*
X161530659Y-111000000D01*
X161510063Y-110764592D01*
X161448903Y-110536337D01*
X161349035Y-110322171D01*
X161306546Y-110261489D01*
X161213494Y-110128597D01*
X161046402Y-109961506D01*
X161046395Y-109961501D01*
X160932781Y-109881947D01*
X161925000Y-109881947D01*
X161925000Y-110750000D01*
X163025000Y-110750000D01*
X163025000Y-111250000D01*
X161925000Y-111250000D01*
X161925000Y-112118052D01*
X161961934Y-112351247D01*
X162034897Y-112575802D01*
X162142085Y-112786171D01*
X162280866Y-112977186D01*
X162447813Y-113144133D01*
X162638828Y-113282914D01*
X162849195Y-113390102D01*
X163073744Y-113463063D01*
X163073750Y-113463065D01*
X163175000Y-113479101D01*
X163175000Y-112415686D01*
X163179394Y-112420080D01*
X163270606Y-112472741D01*
X163372339Y-112500000D01*
X163477661Y-112500000D01*
X163579394Y-112472741D01*
X163670606Y-112420080D01*
X163675000Y-112415686D01*
X163675000Y-113479100D01*
X163776249Y-113463065D01*
X163776255Y-113463063D01*
X164000804Y-113390102D01*
X164211171Y-113282914D01*
X164402186Y-113144133D01*
X164569133Y-112977186D01*
X164707914Y-112786171D01*
X164815102Y-112575802D01*
X164888065Y-112351247D01*
X164925000Y-112118052D01*
X164925000Y-111250000D01*
X163825000Y-111250000D01*
X163825000Y-110999998D01*
X169119390Y-110999998D01*
X169119390Y-111000001D01*
X169139804Y-111285433D01*
X169200628Y-111565037D01*
X169200630Y-111565043D01*
X169200631Y-111565046D01*
X169289383Y-111802998D01*
X169300635Y-111833166D01*
X169437770Y-112084309D01*
X169437775Y-112084317D01*
X169609254Y-112313387D01*
X169609270Y-112313405D01*
X169811594Y-112515729D01*
X169811612Y-112515745D01*
X170040682Y-112687224D01*
X170040690Y-112687229D01*
X170291833Y-112824364D01*
X170291832Y-112824364D01*
X170291836Y-112824365D01*
X170291839Y-112824367D01*
X170559954Y-112924369D01*
X170559960Y-112924370D01*
X170559962Y-112924371D01*
X170839566Y-112985195D01*
X170839568Y-112985195D01*
X170839572Y-112985196D01*
X171093220Y-113003337D01*
X171124999Y-113005610D01*
X171125000Y-113005610D01*
X171125001Y-113005610D01*
X171153595Y-113003564D01*
X171410428Y-112985196D01*
X171447250Y-112977186D01*
X171690037Y-112924371D01*
X171690037Y-112924370D01*
X171690046Y-112924369D01*
X171958161Y-112824367D01*
X172209315Y-112687226D01*
X172438395Y-112515739D01*
X172640739Y-112313395D01*
X172812226Y-112084315D01*
X172949367Y-111833161D01*
X173049369Y-111565046D01*
X173071423Y-111463664D01*
X173110195Y-111285433D01*
X173110195Y-111285432D01*
X173110196Y-111285428D01*
X173130610Y-111000000D01*
X173110196Y-110714572D01*
X173083357Y-110591197D01*
X173049371Y-110434962D01*
X173049370Y-110434960D01*
X173049369Y-110434954D01*
X172949367Y-110166839D01*
X172931000Y-110133203D01*
X172812229Y-109915690D01*
X172812224Y-109915682D01*
X172640745Y-109686612D01*
X172640729Y-109686594D01*
X172438405Y-109484270D01*
X172438387Y-109484254D01*
X172209317Y-109312775D01*
X172209309Y-109312770D01*
X172039414Y-109220000D01*
X202192940Y-109220000D01*
X202212726Y-109408256D01*
X202212727Y-109408259D01*
X202273229Y-109594465D01*
X202271822Y-109594921D01*
X202280400Y-109635257D01*
X202280400Y-115599770D01*
X202311833Y-115757795D01*
X202311836Y-115757805D01*
X202327738Y-115796195D01*
X202373497Y-115906668D01*
X202373498Y-115906671D01*
X202463017Y-116040644D01*
X202463020Y-116040648D01*
X203143974Y-116721601D01*
X203174224Y-116770964D01*
X203183618Y-116799878D01*
X203183621Y-116799884D01*
X203278267Y-116963816D01*
X203337042Y-117029092D01*
X203404929Y-117104488D01*
X203558065Y-117215748D01*
X203558070Y-117215751D01*
X203730992Y-117292742D01*
X203730997Y-117292744D01*
X203916154Y-117332100D01*
X203916155Y-117332100D01*
X204105444Y-117332100D01*
X204105446Y-117332100D01*
X204290603Y-117292744D01*
X204463530Y-117215751D01*
X204616671Y-117104488D01*
X204743333Y-116963816D01*
X204837979Y-116799884D01*
X204896474Y-116619856D01*
X204916260Y-116431600D01*
X204896474Y-116243344D01*
X204837979Y-116063316D01*
X204743333Y-115899384D01*
X204616671Y-115758712D01*
X204615423Y-115757805D01*
X204463530Y-115647448D01*
X204340221Y-115592547D01*
X204302976Y-115566949D01*
X203952719Y-115216692D01*
X203919234Y-115155369D01*
X203916400Y-115129011D01*
X203916400Y-109635257D01*
X203924977Y-109594921D01*
X203923571Y-109594465D01*
X203942473Y-109536291D01*
X203984074Y-109408256D01*
X204003860Y-109220000D01*
X203984074Y-109031744D01*
X203925579Y-108851716D01*
X203830933Y-108687784D01*
X203704271Y-108547112D01*
X203704270Y-108547111D01*
X203551134Y-108435851D01*
X203551129Y-108435848D01*
X203378207Y-108358857D01*
X203378202Y-108358855D01*
X203232401Y-108327865D01*
X203193046Y-108319500D01*
X203003754Y-108319500D01*
X202971297Y-108326398D01*
X202818597Y-108358855D01*
X202818592Y-108358857D01*
X202645670Y-108435848D01*
X202645665Y-108435851D01*
X202492529Y-108547111D01*
X202365866Y-108687785D01*
X202271221Y-108851715D01*
X202271218Y-108851722D01*
X202212727Y-109031740D01*
X202212726Y-109031744D01*
X202192940Y-109220000D01*
X172039414Y-109220000D01*
X171958166Y-109175635D01*
X171958167Y-109175635D01*
X171728774Y-109090076D01*
X171690046Y-109075631D01*
X171690043Y-109075630D01*
X171690037Y-109075628D01*
X171410433Y-109014804D01*
X171125001Y-108994390D01*
X171124999Y-108994390D01*
X170839566Y-109014804D01*
X170559962Y-109075628D01*
X170291833Y-109175635D01*
X170040690Y-109312770D01*
X170040682Y-109312775D01*
X169811612Y-109484254D01*
X169811594Y-109484270D01*
X169609270Y-109686594D01*
X169609254Y-109686612D01*
X169437775Y-109915682D01*
X169437770Y-109915690D01*
X169300635Y-110166833D01*
X169200628Y-110434962D01*
X169139804Y-110714566D01*
X169119390Y-110999998D01*
X163825000Y-110999998D01*
X163825000Y-110750000D01*
X164925000Y-110750000D01*
X164925000Y-109881947D01*
X164888065Y-109648752D01*
X164815102Y-109424197D01*
X164707914Y-109213828D01*
X164569133Y-109022813D01*
X164402186Y-108855866D01*
X164211171Y-108717085D01*
X164000802Y-108609897D01*
X163776247Y-108536934D01*
X163675000Y-108520897D01*
X163675000Y-109584314D01*
X163670606Y-109579920D01*
X163579394Y-109527259D01*
X163477661Y-109500000D01*
X163372339Y-109500000D01*
X163270606Y-109527259D01*
X163179394Y-109579920D01*
X163175000Y-109584314D01*
X163175000Y-108520897D01*
X163073752Y-108536934D01*
X162849197Y-108609897D01*
X162638828Y-108717085D01*
X162447813Y-108855866D01*
X162280866Y-109022813D01*
X162142085Y-109213828D01*
X162034897Y-109424197D01*
X161961934Y-109648752D01*
X161925000Y-109881947D01*
X160932781Y-109881947D01*
X160852834Y-109825967D01*
X160852830Y-109825965D01*
X160818559Y-109809984D01*
X160638663Y-109726097D01*
X160638659Y-109726096D01*
X160638655Y-109726094D01*
X160410413Y-109664938D01*
X160410403Y-109664936D01*
X160175001Y-109644341D01*
X160174999Y-109644341D01*
X159939596Y-109664936D01*
X159939586Y-109664938D01*
X159711344Y-109726094D01*
X159711335Y-109726098D01*
X159497171Y-109825964D01*
X159497169Y-109825965D01*
X159303597Y-109961505D01*
X159136505Y-110128597D01*
X159000965Y-110322169D01*
X159000964Y-110322171D01*
X158901098Y-110536335D01*
X158901094Y-110536344D01*
X158839938Y-110764586D01*
X158839936Y-110764596D01*
X158819341Y-110999999D01*
X103053000Y-110999999D01*
X103053000Y-106031902D01*
X160674500Y-106031902D01*
X160674500Y-106268097D01*
X160711446Y-106501368D01*
X160784433Y-106725996D01*
X160852017Y-106858635D01*
X160891657Y-106936433D01*
X161030483Y-107127510D01*
X161197490Y-107294517D01*
X161388567Y-107433343D01*
X161487991Y-107484002D01*
X161599003Y-107540566D01*
X161599005Y-107540566D01*
X161599008Y-107540568D01*
X161658435Y-107559877D01*
X161823631Y-107613553D01*
X162056903Y-107650500D01*
X162056908Y-107650500D01*
X163793097Y-107650500D01*
X164026368Y-107613553D01*
X164035807Y-107610486D01*
X164250992Y-107540568D01*
X164461433Y-107433343D01*
X164652510Y-107294517D01*
X164819517Y-107127510D01*
X164958343Y-106936433D01*
X165065568Y-106725992D01*
X165138553Y-106501368D01*
X165148719Y-106437185D01*
X165152527Y-106413141D01*
X165182456Y-106350006D01*
X165241768Y-106313075D01*
X165311630Y-106314073D01*
X165369863Y-106352683D01*
X165397473Y-106413141D01*
X165411446Y-106501368D01*
X165484433Y-106725996D01*
X165552017Y-106858635D01*
X165591657Y-106936433D01*
X165730483Y-107127510D01*
X165897490Y-107294517D01*
X166088567Y-107433343D01*
X166187991Y-107484002D01*
X166299003Y-107540566D01*
X166299005Y-107540566D01*
X166299008Y-107540568D01*
X166358435Y-107559877D01*
X166523631Y-107613553D01*
X166756903Y-107650500D01*
X166756908Y-107650500D01*
X168493097Y-107650500D01*
X168726368Y-107613553D01*
X168735807Y-107610486D01*
X168950992Y-107540568D01*
X169161433Y-107433343D01*
X169352510Y-107294517D01*
X169519517Y-107127510D01*
X169658343Y-106936433D01*
X169765568Y-106725992D01*
X169838553Y-106501368D01*
X169848719Y-106437185D01*
X169875500Y-106268097D01*
X169875500Y-106031902D01*
X169838553Y-105798631D01*
X169765566Y-105574003D01*
X169677161Y-105400500D01*
X169658343Y-105363567D01*
X169519517Y-105172490D01*
X169352510Y-105005483D01*
X169161433Y-104866657D01*
X168950996Y-104759433D01*
X168726368Y-104686446D01*
X168493097Y-104649500D01*
X168493092Y-104649500D01*
X166756908Y-104649500D01*
X166756903Y-104649500D01*
X166523631Y-104686446D01*
X166299003Y-104759433D01*
X166088566Y-104866657D01*
X165985376Y-104941630D01*
X165897490Y-105005483D01*
X165897488Y-105005485D01*
X165897487Y-105005485D01*
X165730485Y-105172487D01*
X165730485Y-105172488D01*
X165730483Y-105172490D01*
X165681737Y-105239583D01*
X165591657Y-105363566D01*
X165484433Y-105574003D01*
X165411446Y-105798631D01*
X165397473Y-105886858D01*
X165367544Y-105949993D01*
X165308232Y-105986924D01*
X165238370Y-105985926D01*
X165180137Y-105947316D01*
X165152527Y-105886858D01*
X165138553Y-105798631D01*
X165065566Y-105574003D01*
X164977161Y-105400500D01*
X164958343Y-105363567D01*
X164819517Y-105172490D01*
X164652510Y-105005483D01*
X164461433Y-104866657D01*
X164250996Y-104759433D01*
X164026368Y-104686446D01*
X163793097Y-104649500D01*
X163793092Y-104649500D01*
X162056908Y-104649500D01*
X162056903Y-104649500D01*
X161823631Y-104686446D01*
X161599003Y-104759433D01*
X161388566Y-104866657D01*
X161285376Y-104941630D01*
X161197490Y-105005483D01*
X161197488Y-105005485D01*
X161197487Y-105005485D01*
X161030485Y-105172487D01*
X161030485Y-105172488D01*
X161030483Y-105172490D01*
X160981737Y-105239583D01*
X160891657Y-105363566D01*
X160784433Y-105574003D01*
X160711446Y-105798631D01*
X160674500Y-106031902D01*
X103053000Y-106031902D01*
X103053000Y-105239583D01*
X103072685Y-105172544D01*
X103089319Y-105151902D01*
X104676732Y-103564489D01*
X104676735Y-103564486D01*
X104752356Y-103451311D01*
X104760910Y-103430657D01*
X104787788Y-103390432D01*
X105056902Y-103121319D01*
X105118225Y-103087834D01*
X105144583Y-103085000D01*
X105972988Y-103085000D01*
X105940075Y-103142007D01*
X105906000Y-103269174D01*
X105906000Y-103400826D01*
X105940075Y-103527993D01*
X105972988Y-103585000D01*
X105075364Y-103585000D01*
X105132567Y-103798486D01*
X105132570Y-103798492D01*
X105232399Y-104012578D01*
X105367894Y-104206082D01*
X105534917Y-104373105D01*
X105728421Y-104508600D01*
X105942507Y-104608429D01*
X105942516Y-104608433D01*
X106156000Y-104665634D01*
X106156000Y-103768012D01*
X106213007Y-103800925D01*
X106340174Y-103835000D01*
X106471826Y-103835000D01*
X106598993Y-103800925D01*
X106656000Y-103768012D01*
X106656000Y-104665633D01*
X106869483Y-104608433D01*
X106869492Y-104608429D01*
X107083578Y-104508600D01*
X107277082Y-104373105D01*
X107444105Y-104206082D01*
X107574425Y-104019968D01*
X107629002Y-103976344D01*
X107698501Y-103969151D01*
X107760855Y-104000673D01*
X107777575Y-104019968D01*
X107907894Y-104206082D01*
X108074917Y-104373105D01*
X108268421Y-104508600D01*
X108482507Y-104608429D01*
X108482516Y-104608433D01*
X108696000Y-104665634D01*
X108696000Y-103768012D01*
X108753007Y-103800925D01*
X108880174Y-103835000D01*
X109011826Y-103835000D01*
X109138993Y-103800925D01*
X109196000Y-103768012D01*
X109196000Y-104665633D01*
X109409483Y-104608433D01*
X109409492Y-104608429D01*
X109623578Y-104508600D01*
X109817082Y-104373105D01*
X109984105Y-104206082D01*
X110119600Y-104012578D01*
X110219429Y-103798492D01*
X110219432Y-103798486D01*
X110276636Y-103585000D01*
X109379012Y-103585000D01*
X109411925Y-103527993D01*
X109446000Y-103400826D01*
X109446000Y-103269174D01*
X109411925Y-103142007D01*
X109379012Y-103085000D01*
X110276636Y-103085000D01*
X110276635Y-103084999D01*
X110219432Y-102871513D01*
X110219429Y-102871507D01*
X110119600Y-102657422D01*
X110119599Y-102657420D01*
X109984113Y-102463926D01*
X109984108Y-102463920D01*
X109817078Y-102296890D01*
X109631405Y-102166879D01*
X109587780Y-102112302D01*
X109580588Y-102042804D01*
X109612110Y-101980449D01*
X109631406Y-101963730D01*
X109817401Y-101833495D01*
X109984495Y-101666401D01*
X110120035Y-101472830D01*
X110219903Y-101258663D01*
X110281063Y-101030408D01*
X110301659Y-100795000D01*
X110281063Y-100559592D01*
X110219903Y-100331337D01*
X110120035Y-100117171D01*
X110116520Y-100112150D01*
X109984494Y-99923597D01*
X109817402Y-99756506D01*
X109817396Y-99756501D01*
X109631842Y-99626575D01*
X109588217Y-99571998D01*
X109581023Y-99502500D01*
X109612546Y-99440145D01*
X109631842Y-99423425D01*
X109750942Y-99340030D01*
X109817401Y-99293495D01*
X109984495Y-99126401D01*
X110120035Y-98932830D01*
X110219903Y-98718663D01*
X110281063Y-98490408D01*
X110301659Y-98255000D01*
X110281063Y-98019592D01*
X110219903Y-97791337D01*
X110120035Y-97577171D01*
X110114425Y-97569158D01*
X109984494Y-97383597D01*
X109817402Y-97216506D01*
X109817396Y-97216501D01*
X109631842Y-97086575D01*
X109588217Y-97031998D01*
X109581023Y-96962500D01*
X109612546Y-96900145D01*
X109631842Y-96883425D01*
X109654026Y-96867891D01*
X109817401Y-96753495D01*
X109984495Y-96586401D01*
X110120035Y-96392830D01*
X110219903Y-96178663D01*
X110281063Y-95950408D01*
X110301659Y-95715000D01*
X110281063Y-95479592D01*
X110219903Y-95251337D01*
X110120035Y-95037171D01*
X110114425Y-95029158D01*
X109984494Y-94843597D01*
X109817402Y-94676506D01*
X109817396Y-94676501D01*
X109631842Y-94546575D01*
X109588217Y-94491998D01*
X109581023Y-94422500D01*
X109612546Y-94360145D01*
X109631842Y-94343425D01*
X109720320Y-94281472D01*
X109817401Y-94213495D01*
X109984495Y-94046401D01*
X110120035Y-93852830D01*
X110219903Y-93638663D01*
X110281063Y-93410408D01*
X110301659Y-93175000D01*
X110281063Y-92939592D01*
X110219903Y-92711337D01*
X110120035Y-92497171D01*
X110114425Y-92489158D01*
X109984494Y-92303597D01*
X109817402Y-92136506D01*
X109817396Y-92136501D01*
X109631842Y-92006575D01*
X109588217Y-91951998D01*
X109581023Y-91882500D01*
X109612546Y-91820145D01*
X109631842Y-91803425D01*
X109688548Y-91763719D01*
X109817401Y-91673495D01*
X109984495Y-91506401D01*
X110120035Y-91312830D01*
X110219903Y-91098663D01*
X110281063Y-90870408D01*
X110297897Y-90677996D01*
X187662435Y-90677996D01*
X187662435Y-90678003D01*
X187682630Y-90857249D01*
X187682631Y-90857254D01*
X187742211Y-91027524D01*
X187821493Y-91153698D01*
X187840500Y-91219671D01*
X187840500Y-92136807D01*
X187864612Y-92258027D01*
X187864614Y-92258035D01*
X187883487Y-92303599D01*
X187898062Y-92338784D01*
X187911917Y-92372233D01*
X187945779Y-92422911D01*
X187960506Y-92444951D01*
X187980590Y-92475010D01*
X190480988Y-94975408D01*
X190480992Y-94975411D01*
X190583760Y-95044079D01*
X190583773Y-95044086D01*
X190653055Y-95072783D01*
X190697965Y-95091385D01*
X190697969Y-95091385D01*
X190697970Y-95091386D01*
X190819194Y-95115500D01*
X190819197Y-95115500D01*
X190942803Y-95115500D01*
X191366894Y-95115500D01*
X191433933Y-95135185D01*
X191479688Y-95187989D01*
X191489632Y-95257147D01*
X191486669Y-95271593D01*
X191430938Y-95479586D01*
X191430936Y-95479596D01*
X191410341Y-95714999D01*
X191410341Y-95715000D01*
X191430936Y-95950403D01*
X191430938Y-95950413D01*
X191492094Y-96178655D01*
X191492096Y-96178659D01*
X191492097Y-96178663D01*
X191567101Y-96339509D01*
X191591965Y-96392830D01*
X191591967Y-96392834D01*
X191688506Y-96530705D01*
X191727501Y-96586396D01*
X191727506Y-96586402D01*
X191894597Y-96753493D01*
X191894603Y-96753498D01*
X192080158Y-96883425D01*
X192123783Y-96938002D01*
X192130977Y-97007500D01*
X192099454Y-97069855D01*
X192080158Y-97086575D01*
X191894597Y-97216505D01*
X191727505Y-97383597D01*
X191591965Y-97577169D01*
X191591964Y-97577171D01*
X191492098Y-97791335D01*
X191492094Y-97791344D01*
X191430938Y-98019586D01*
X191430936Y-98019596D01*
X191410341Y-98254999D01*
X191410341Y-98255000D01*
X191430936Y-98490403D01*
X191430938Y-98490413D01*
X191492094Y-98718655D01*
X191492096Y-98718659D01*
X191492097Y-98718663D01*
X191570400Y-98886584D01*
X191591965Y-98932830D01*
X191591967Y-98932834D01*
X191666578Y-99039388D01*
X191727505Y-99126401D01*
X191894599Y-99293495D01*
X192060795Y-99409867D01*
X192080594Y-99423730D01*
X192124219Y-99478307D01*
X192131413Y-99547805D01*
X192099890Y-99610160D01*
X192080595Y-99626880D01*
X191894922Y-99756890D01*
X191894920Y-99756891D01*
X191727891Y-99923920D01*
X191727886Y-99923926D01*
X191592400Y-100117420D01*
X191592399Y-100117422D01*
X191492570Y-100331507D01*
X191492567Y-100331513D01*
X191435364Y-100544999D01*
X191435364Y-100545000D01*
X192332988Y-100545000D01*
X192300075Y-100602007D01*
X192266000Y-100729174D01*
X192266000Y-100860826D01*
X192300075Y-100987993D01*
X192332988Y-101045000D01*
X191435364Y-101045000D01*
X191492567Y-101258486D01*
X191492570Y-101258492D01*
X191592399Y-101472578D01*
X191727894Y-101666082D01*
X191894917Y-101833105D01*
X192088421Y-101968600D01*
X192302507Y-102068429D01*
X192302516Y-102068433D01*
X192516000Y-102125634D01*
X192516000Y-101228012D01*
X192573007Y-101260925D01*
X192700174Y-101295000D01*
X192831826Y-101295000D01*
X192958993Y-101260925D01*
X193016000Y-101228012D01*
X193016000Y-102125633D01*
X193229483Y-102068433D01*
X193229492Y-102068429D01*
X193443578Y-101968600D01*
X193637082Y-101833105D01*
X193804105Y-101666082D01*
X193934425Y-101479968D01*
X193989002Y-101436344D01*
X194058501Y-101429151D01*
X194120855Y-101460673D01*
X194137575Y-101479968D01*
X194267894Y-101666082D01*
X194434917Y-101833105D01*
X194628421Y-101968600D01*
X194842507Y-102068429D01*
X194842516Y-102068433D01*
X195056000Y-102125634D01*
X195056000Y-101228012D01*
X195113007Y-101260925D01*
X195240174Y-101295000D01*
X195371826Y-101295000D01*
X195498993Y-101260925D01*
X195556000Y-101228012D01*
X195556000Y-102125633D01*
X195769483Y-102068433D01*
X195769492Y-102068429D01*
X195983578Y-101968600D01*
X196177082Y-101833105D01*
X196344105Y-101666082D01*
X196479600Y-101472578D01*
X196579429Y-101258492D01*
X196579432Y-101258486D01*
X196636636Y-101045000D01*
X195739012Y-101045000D01*
X195771925Y-100987993D01*
X195806000Y-100860826D01*
X195806000Y-100729174D01*
X195771925Y-100602007D01*
X195739012Y-100545000D01*
X196636636Y-100545000D01*
X196636635Y-100544999D01*
X196579432Y-100331513D01*
X196579429Y-100331507D01*
X196479600Y-100117422D01*
X196479599Y-100117420D01*
X196344113Y-99923926D01*
X196344108Y-99923920D01*
X196177078Y-99756890D01*
X195991405Y-99626879D01*
X195947780Y-99572302D01*
X195940588Y-99502804D01*
X195972110Y-99440449D01*
X195991406Y-99423730D01*
X195991842Y-99423425D01*
X196177401Y-99293495D01*
X196344495Y-99126401D01*
X196480035Y-98932830D01*
X196579903Y-98718663D01*
X196641063Y-98490408D01*
X196661659Y-98255000D01*
X196641063Y-98019592D01*
X196579903Y-97791337D01*
X196480035Y-97577171D01*
X196474425Y-97569158D01*
X196344494Y-97383597D01*
X196177402Y-97216506D01*
X196177396Y-97216501D01*
X195991842Y-97086575D01*
X195948217Y-97031998D01*
X195941023Y-96962500D01*
X195972546Y-96900145D01*
X195991842Y-96883425D01*
X196014026Y-96867891D01*
X196177401Y-96753495D01*
X196182297Y-96748599D01*
X206187025Y-96748599D01*
X206187025Y-96748600D01*
X206206087Y-96966484D01*
X206206089Y-96966494D01*
X206262694Y-97177750D01*
X206262698Y-97177759D01*
X206355133Y-97375987D01*
X206398674Y-97438171D01*
X206958837Y-96878008D01*
X206975875Y-96941593D01*
X207041701Y-97055607D01*
X207134793Y-97148699D01*
X207248807Y-97214525D01*
X207312390Y-97231562D01*
X206752227Y-97791724D01*
X206781934Y-97812525D01*
X206825559Y-97867102D01*
X206832753Y-97936600D01*
X206801230Y-97998955D01*
X206741001Y-98034369D01*
X206710813Y-98038100D01*
X206643930Y-98038100D01*
X206643923Y-98038101D01*
X206584316Y-98044508D01*
X206449471Y-98094802D01*
X206449464Y-98094806D01*
X206334255Y-98181052D01*
X206334252Y-98181055D01*
X206248006Y-98296264D01*
X206248002Y-98296271D01*
X206197708Y-98431117D01*
X206195272Y-98453781D01*
X206191301Y-98490723D01*
X206191300Y-98490735D01*
X206191300Y-100086470D01*
X206191301Y-100086476D01*
X206197708Y-100146083D01*
X206248002Y-100280928D01*
X206248006Y-100280935D01*
X206334252Y-100396144D01*
X206334255Y-100396147D01*
X206449464Y-100482393D01*
X206449471Y-100482397D01*
X206584317Y-100532691D01*
X206584316Y-100532691D01*
X206591244Y-100533435D01*
X206643927Y-100539100D01*
X208239672Y-100539099D01*
X208299283Y-100532691D01*
X208434131Y-100482396D01*
X208549346Y-100396146D01*
X208635596Y-100280931D01*
X208685891Y-100146083D01*
X208692300Y-100086473D01*
X208692299Y-98490728D01*
X208686212Y-98434099D01*
X208685891Y-98431116D01*
X208635597Y-98296271D01*
X208635593Y-98296264D01*
X208549347Y-98181055D01*
X208549344Y-98181052D01*
X208434135Y-98094806D01*
X208434128Y-98094802D01*
X208299282Y-98044508D01*
X208299283Y-98044508D01*
X208239683Y-98038101D01*
X208239681Y-98038100D01*
X208239673Y-98038100D01*
X208239665Y-98038100D01*
X208172789Y-98038100D01*
X208105750Y-98018415D01*
X208059995Y-97965611D01*
X208050051Y-97896453D01*
X208079076Y-97832897D01*
X208101664Y-97812526D01*
X208131371Y-97791724D01*
X207571210Y-97231562D01*
X207634793Y-97214525D01*
X207748807Y-97148699D01*
X207841899Y-97055607D01*
X207907725Y-96941593D01*
X207924762Y-96878009D01*
X208484924Y-97438170D01*
X208528468Y-97375985D01*
X208528469Y-97375983D01*
X208620900Y-97177764D01*
X208620905Y-97177750D01*
X208677510Y-96966494D01*
X208677512Y-96966484D01*
X208696575Y-96748600D01*
X208696575Y-96748599D01*
X208677512Y-96530715D01*
X208677510Y-96530705D01*
X208620905Y-96319449D01*
X208620901Y-96319440D01*
X208528467Y-96121214D01*
X208528466Y-96121212D01*
X208484924Y-96059028D01*
X208484924Y-96059027D01*
X207924762Y-96619189D01*
X207907725Y-96555607D01*
X207841899Y-96441593D01*
X207748807Y-96348501D01*
X207634793Y-96282675D01*
X207571209Y-96265637D01*
X208131371Y-95705474D01*
X208069187Y-95661933D01*
X207870959Y-95569498D01*
X207870950Y-95569494D01*
X207659694Y-95512889D01*
X207659684Y-95512887D01*
X207441801Y-95493825D01*
X207441799Y-95493825D01*
X207223915Y-95512887D01*
X207223905Y-95512889D01*
X207012649Y-95569494D01*
X207012640Y-95569498D01*
X206814413Y-95661933D01*
X206752228Y-95705474D01*
X207312391Y-96265637D01*
X207248807Y-96282675D01*
X207134793Y-96348501D01*
X207041701Y-96441593D01*
X206975875Y-96555607D01*
X206958837Y-96619191D01*
X206398674Y-96059028D01*
X206355133Y-96121213D01*
X206262698Y-96319440D01*
X206262694Y-96319449D01*
X206206089Y-96530705D01*
X206206087Y-96530715D01*
X206187025Y-96748599D01*
X196182297Y-96748599D01*
X196344495Y-96586401D01*
X196480035Y-96392830D01*
X196579903Y-96178663D01*
X196641063Y-95950408D01*
X196661659Y-95715000D01*
X196641063Y-95479592D01*
X196579903Y-95251337D01*
X196480035Y-95037171D01*
X196474425Y-95029158D01*
X196344494Y-94843597D01*
X196177402Y-94676506D01*
X196177396Y-94676501D01*
X195991842Y-94546575D01*
X195948217Y-94491998D01*
X195941023Y-94422500D01*
X195972546Y-94360145D01*
X195991842Y-94343425D01*
X196080320Y-94281472D01*
X196177401Y-94213495D01*
X196344495Y-94046401D01*
X196480035Y-93852830D01*
X196579903Y-93638663D01*
X196641063Y-93410408D01*
X196661659Y-93175000D01*
X196641063Y-92939592D01*
X196579903Y-92711337D01*
X196480035Y-92497171D01*
X196474425Y-92489158D01*
X196344494Y-92303597D01*
X196177402Y-92136506D01*
X196177396Y-92136501D01*
X195991842Y-92006575D01*
X195948217Y-91951998D01*
X195941023Y-91882500D01*
X195972546Y-91820145D01*
X195991842Y-91803425D01*
X196048548Y-91763719D01*
X196177401Y-91673495D01*
X196344495Y-91506401D01*
X196480035Y-91312830D01*
X196579903Y-91098663D01*
X196641063Y-90870408D01*
X196661659Y-90635000D01*
X196641063Y-90399592D01*
X196579903Y-90171337D01*
X196480035Y-89957171D01*
X196474425Y-89949158D01*
X196344494Y-89763597D01*
X196177402Y-89596506D01*
X196177396Y-89596501D01*
X195991842Y-89466575D01*
X195948217Y-89411998D01*
X195941023Y-89342500D01*
X195972546Y-89280145D01*
X195991842Y-89263425D01*
X196019786Y-89243858D01*
X196177401Y-89133495D01*
X196344495Y-88966401D01*
X196480035Y-88772830D01*
X196579903Y-88558663D01*
X196641063Y-88330408D01*
X196661659Y-88095000D01*
X196641063Y-87859592D01*
X196590470Y-87670775D01*
X196579905Y-87631344D01*
X196579904Y-87631343D01*
X196579903Y-87631337D01*
X196480035Y-87417171D01*
X196477443Y-87413468D01*
X196344494Y-87223597D01*
X196177402Y-87056506D01*
X196177396Y-87056501D01*
X195991842Y-86926575D01*
X195948217Y-86871998D01*
X195941023Y-86802500D01*
X195972546Y-86740145D01*
X195991842Y-86723425D01*
X196062375Y-86674037D01*
X196177401Y-86593495D01*
X196182299Y-86588597D01*
X206186523Y-86588597D01*
X206186523Y-86588602D01*
X206190172Y-86630315D01*
X206204111Y-86789642D01*
X206205593Y-86806575D01*
X206205593Y-86806579D01*
X206262222Y-87017922D01*
X206262224Y-87017926D01*
X206262225Y-87017930D01*
X206290359Y-87078264D01*
X206354697Y-87216238D01*
X206378719Y-87250544D01*
X206480202Y-87395477D01*
X206634923Y-87550198D01*
X206807125Y-87670775D01*
X206814161Y-87675702D01*
X206965975Y-87746494D01*
X207018414Y-87792666D01*
X207037566Y-87859860D01*
X207017350Y-87926741D01*
X206965975Y-87971258D01*
X206814413Y-88041933D01*
X206752228Y-88085474D01*
X207312391Y-88645637D01*
X207248807Y-88662675D01*
X207134793Y-88728501D01*
X207041701Y-88821593D01*
X206975875Y-88935607D01*
X206958837Y-88999191D01*
X206398674Y-88439028D01*
X206355133Y-88501213D01*
X206262698Y-88699440D01*
X206262694Y-88699449D01*
X206206089Y-88910705D01*
X206206087Y-88910715D01*
X206187025Y-89128599D01*
X206187025Y-89128600D01*
X206206087Y-89346484D01*
X206206089Y-89346494D01*
X206262694Y-89557750D01*
X206262698Y-89557759D01*
X206355133Y-89755987D01*
X206398674Y-89818171D01*
X206958837Y-89258008D01*
X206975875Y-89321593D01*
X207041701Y-89435607D01*
X207134793Y-89528699D01*
X207248807Y-89594525D01*
X207312390Y-89611562D01*
X206752227Y-90171724D01*
X206814413Y-90215267D01*
X206814415Y-90215268D01*
X206965974Y-90285941D01*
X207018414Y-90332113D01*
X207037566Y-90399306D01*
X207017351Y-90466188D01*
X206965976Y-90510705D01*
X206841397Y-90568797D01*
X206817360Y-90580007D01*
X206814158Y-90581500D01*
X206814157Y-90581500D01*
X206634921Y-90707002D01*
X206480202Y-90861721D01*
X206354700Y-91040957D01*
X206354698Y-91040961D01*
X206262226Y-91239268D01*
X206262222Y-91239277D01*
X206205593Y-91450620D01*
X206205593Y-91450624D01*
X206186523Y-91668597D01*
X206186523Y-91668602D01*
X206188604Y-91692385D01*
X206204738Y-91876809D01*
X206205593Y-91886575D01*
X206205593Y-91886579D01*
X206262222Y-92097922D01*
X206262224Y-92097926D01*
X206262225Y-92097930D01*
X206294811Y-92167811D01*
X206354697Y-92296238D01*
X206359854Y-92303603D01*
X206480202Y-92475477D01*
X206634923Y-92630198D01*
X206814161Y-92755702D01*
X207012470Y-92848175D01*
X207223823Y-92904807D01*
X207406726Y-92920808D01*
X207441798Y-92923877D01*
X207441800Y-92923877D01*
X207441802Y-92923877D01*
X207470054Y-92921405D01*
X207659777Y-92904807D01*
X207871130Y-92848175D01*
X208069439Y-92755702D01*
X208248677Y-92630198D01*
X208403398Y-92475477D01*
X208528902Y-92296239D01*
X208621375Y-92097930D01*
X208678007Y-91886577D01*
X208695901Y-91682038D01*
X208697077Y-91668602D01*
X208697077Y-91668597D01*
X208693369Y-91626218D01*
X208678007Y-91450623D01*
X208621375Y-91239270D01*
X208528902Y-91040962D01*
X208528900Y-91040959D01*
X208528899Y-91040957D01*
X208403399Y-90861724D01*
X208345220Y-90803545D01*
X208248677Y-90707002D01*
X208069439Y-90581498D01*
X208069440Y-90581498D01*
X208069438Y-90581497D01*
X207917624Y-90510705D01*
X207865185Y-90464532D01*
X207846033Y-90397339D01*
X207866249Y-90330458D01*
X207917625Y-90285940D01*
X208069188Y-90215266D01*
X208131371Y-90171724D01*
X207571210Y-89611562D01*
X207634793Y-89594525D01*
X207748807Y-89528699D01*
X207841899Y-89435607D01*
X207907725Y-89321593D01*
X207924762Y-89258009D01*
X208484924Y-89818170D01*
X208528468Y-89755985D01*
X208528469Y-89755983D01*
X208620900Y-89557764D01*
X208620905Y-89557750D01*
X208677510Y-89346494D01*
X208677512Y-89346484D01*
X208696575Y-89128600D01*
X208696575Y-89128599D01*
X208677512Y-88910715D01*
X208677510Y-88910705D01*
X208620905Y-88699449D01*
X208620901Y-88699440D01*
X208528467Y-88501214D01*
X208528466Y-88501212D01*
X208484924Y-88439028D01*
X208484924Y-88439027D01*
X207924762Y-88999189D01*
X207907725Y-88935607D01*
X207841899Y-88821593D01*
X207748807Y-88728501D01*
X207634793Y-88662675D01*
X207571209Y-88645637D01*
X208131371Y-88085474D01*
X208069187Y-88041933D01*
X207917624Y-87971258D01*
X207865185Y-87925086D01*
X207846033Y-87857892D01*
X207866249Y-87791011D01*
X207917622Y-87746495D01*
X208069439Y-87675702D01*
X208248677Y-87550198D01*
X208403398Y-87395477D01*
X208528902Y-87216239D01*
X208621375Y-87017930D01*
X208678007Y-86806577D01*
X208694605Y-86616854D01*
X208697077Y-86588602D01*
X208697077Y-86588597D01*
X208693369Y-86546218D01*
X208678007Y-86370623D01*
X208621375Y-86159270D01*
X208528902Y-85960962D01*
X208528900Y-85960959D01*
X208528899Y-85960957D01*
X208403399Y-85781724D01*
X208336341Y-85714666D01*
X208248677Y-85627002D01*
X208084862Y-85512297D01*
X208069438Y-85501497D01*
X207958311Y-85449678D01*
X207871130Y-85409025D01*
X207871126Y-85409024D01*
X207871122Y-85409022D01*
X207659777Y-85352393D01*
X207441802Y-85333323D01*
X207441798Y-85333323D01*
X207296482Y-85346036D01*
X207223823Y-85352393D01*
X207223820Y-85352393D01*
X207012477Y-85409022D01*
X207012468Y-85409026D01*
X206814161Y-85501498D01*
X206814157Y-85501500D01*
X206634921Y-85627002D01*
X206480202Y-85781721D01*
X206354700Y-85960957D01*
X206354698Y-85960961D01*
X206262226Y-86159268D01*
X206262222Y-86159277D01*
X206205593Y-86370620D01*
X206205593Y-86370624D01*
X206186523Y-86588597D01*
X196182299Y-86588597D01*
X196344495Y-86426401D01*
X196480035Y-86232830D01*
X196579903Y-86018663D01*
X196641063Y-85790408D01*
X196661659Y-85555000D01*
X196641063Y-85319592D01*
X196594626Y-85146285D01*
X196579905Y-85091344D01*
X196579904Y-85091343D01*
X196579903Y-85091337D01*
X196480035Y-84877171D01*
X196474424Y-84869158D01*
X196344496Y-84683600D01*
X196289364Y-84628468D01*
X196222567Y-84561671D01*
X196189084Y-84500351D01*
X196194068Y-84430659D01*
X196235939Y-84374725D01*
X196266915Y-84357810D01*
X196398331Y-84308796D01*
X196513546Y-84222546D01*
X196599796Y-84107331D01*
X196650091Y-83972483D01*
X196656500Y-83912873D01*
X196656499Y-82117128D01*
X196650091Y-82057517D01*
X196649978Y-82057215D01*
X196599797Y-81922671D01*
X196599793Y-81922664D01*
X196513547Y-81807455D01*
X196513544Y-81807452D01*
X196398335Y-81721206D01*
X196398328Y-81721202D01*
X196263482Y-81670908D01*
X196263483Y-81670908D01*
X196203883Y-81664501D01*
X196203881Y-81664500D01*
X196203873Y-81664500D01*
X196203864Y-81664500D01*
X194408129Y-81664500D01*
X194408123Y-81664501D01*
X194348516Y-81670908D01*
X194213671Y-81721202D01*
X194213664Y-81721206D01*
X194098455Y-81807452D01*
X194098452Y-81807455D01*
X194012206Y-81922664D01*
X194012203Y-81922669D01*
X193963189Y-82054083D01*
X193921317Y-82110016D01*
X193855853Y-82134433D01*
X193787580Y-82119581D01*
X193759326Y-82098430D01*
X193637402Y-81976506D01*
X193637395Y-81976501D01*
X193443834Y-81840967D01*
X193443830Y-81840965D01*
X193394174Y-81817810D01*
X193229663Y-81741097D01*
X193229659Y-81741096D01*
X193229655Y-81741094D01*
X193001413Y-81679938D01*
X193001403Y-81679936D01*
X192766001Y-81659341D01*
X192765999Y-81659341D01*
X192530596Y-81679936D01*
X192530586Y-81679938D01*
X192302344Y-81741094D01*
X192302335Y-81741098D01*
X192088171Y-81840964D01*
X192088169Y-81840965D01*
X191894597Y-81976505D01*
X191727505Y-82143597D01*
X191591965Y-82337169D01*
X191591964Y-82337171D01*
X191492098Y-82551335D01*
X191492094Y-82551344D01*
X191430938Y-82779586D01*
X191430936Y-82779596D01*
X191410341Y-83014999D01*
X191410341Y-83015000D01*
X191430936Y-83250403D01*
X191430938Y-83250413D01*
X191492094Y-83478655D01*
X191492096Y-83478659D01*
X191492097Y-83478663D01*
X191553316Y-83609947D01*
X191591965Y-83692830D01*
X191591967Y-83692834D01*
X191647807Y-83772581D01*
X191727501Y-83886396D01*
X191727506Y-83886402D01*
X191894597Y-84053493D01*
X191894603Y-84053498D01*
X192080158Y-84183425D01*
X192123783Y-84238002D01*
X192130977Y-84307500D01*
X192099454Y-84369855D01*
X192080158Y-84386575D01*
X191894597Y-84516505D01*
X191727505Y-84683597D01*
X191591965Y-84877169D01*
X191591964Y-84877171D01*
X191492098Y-85091335D01*
X191492094Y-85091344D01*
X191430938Y-85319586D01*
X191430936Y-85319596D01*
X191410341Y-85554999D01*
X191410341Y-85555000D01*
X191430936Y-85790403D01*
X191430938Y-85790413D01*
X191492094Y-86018655D01*
X191492096Y-86018659D01*
X191492097Y-86018663D01*
X191557663Y-86159270D01*
X191591965Y-86232830D01*
X191591967Y-86232834D01*
X191688447Y-86370620D01*
X191727501Y-86426396D01*
X191727506Y-86426402D01*
X191894597Y-86593493D01*
X191894603Y-86593498D01*
X192080158Y-86723425D01*
X192123783Y-86778002D01*
X192130977Y-86847500D01*
X192099454Y-86909855D01*
X192080158Y-86926575D01*
X191894597Y-87056505D01*
X191727505Y-87223597D01*
X191591965Y-87417169D01*
X191591964Y-87417171D01*
X191492098Y-87631335D01*
X191492094Y-87631344D01*
X191430938Y-87859586D01*
X191430936Y-87859596D01*
X191410341Y-88094999D01*
X191410341Y-88095000D01*
X191430936Y-88330403D01*
X191430938Y-88330413D01*
X191492094Y-88558655D01*
X191492096Y-88558659D01*
X191492097Y-88558663D01*
X191540599Y-88662675D01*
X191591965Y-88772830D01*
X191591967Y-88772834D01*
X191700281Y-88927521D01*
X191727501Y-88966396D01*
X191727506Y-88966402D01*
X191894597Y-89133493D01*
X191894603Y-89133498D01*
X192080158Y-89263425D01*
X192123783Y-89318002D01*
X192130977Y-89387500D01*
X192099454Y-89449855D01*
X192080158Y-89466575D01*
X191894597Y-89596505D01*
X191727505Y-89763597D01*
X191591965Y-89957169D01*
X191591964Y-89957171D01*
X191492098Y-90171335D01*
X191492094Y-90171344D01*
X191430938Y-90399586D01*
X191430936Y-90399596D01*
X191410341Y-90634999D01*
X191410341Y-90635000D01*
X191430936Y-90870403D01*
X191430938Y-90870413D01*
X191492094Y-91098655D01*
X191492096Y-91098659D01*
X191492097Y-91098663D01*
X191575358Y-91277217D01*
X191591965Y-91312830D01*
X191591967Y-91312834D01*
X191642073Y-91384392D01*
X191727501Y-91506396D01*
X191727506Y-91506402D01*
X191894597Y-91673493D01*
X191894603Y-91673498D01*
X192080158Y-91803425D01*
X192123783Y-91858002D01*
X192130977Y-91927500D01*
X192099454Y-91989855D01*
X192080158Y-92006575D01*
X191894597Y-92136505D01*
X191727505Y-92303597D01*
X191591965Y-92497169D01*
X191591964Y-92497171D01*
X191492098Y-92711335D01*
X191492094Y-92711344D01*
X191430938Y-92939586D01*
X191430936Y-92939596D01*
X191410341Y-93174999D01*
X191410341Y-93175000D01*
X191430936Y-93410403D01*
X191430938Y-93410413D01*
X191492094Y-93638655D01*
X191492096Y-93638660D01*
X191492097Y-93638663D01*
X191496000Y-93647032D01*
X191513283Y-93684096D01*
X191523774Y-93753174D01*
X191495254Y-93816957D01*
X191436777Y-93855197D01*
X191400900Y-93860500D01*
X191192281Y-93860500D01*
X191125242Y-93840815D01*
X191104600Y-93824181D01*
X189131819Y-91851400D01*
X189098334Y-91790077D01*
X189095500Y-91763719D01*
X189095500Y-91219671D01*
X189114507Y-91153698D01*
X189143830Y-91107032D01*
X189193789Y-91027522D01*
X189253368Y-90857255D01*
X189255838Y-90835335D01*
X189273565Y-90678003D01*
X189273565Y-90677996D01*
X189253369Y-90498750D01*
X189253368Y-90498745D01*
X189223799Y-90414241D01*
X189193789Y-90328478D01*
X189184523Y-90313732D01*
X189132945Y-90231645D01*
X189097816Y-90175738D01*
X188970262Y-90048184D01*
X188925683Y-90020173D01*
X188817523Y-89952211D01*
X188647254Y-89892631D01*
X188647249Y-89892630D01*
X188468004Y-89872435D01*
X188467996Y-89872435D01*
X188288750Y-89892630D01*
X188288745Y-89892631D01*
X188118476Y-89952211D01*
X187965737Y-90048184D01*
X187838184Y-90175737D01*
X187742211Y-90328476D01*
X187682631Y-90498745D01*
X187682630Y-90498750D01*
X187662435Y-90677996D01*
X110297897Y-90677996D01*
X110301659Y-90635000D01*
X110281063Y-90399592D01*
X110219903Y-90171337D01*
X110120035Y-89957171D01*
X110114425Y-89949158D01*
X109984494Y-89763597D01*
X109817402Y-89596506D01*
X109817396Y-89596501D01*
X109631842Y-89466575D01*
X109588217Y-89411998D01*
X109581023Y-89342500D01*
X109612546Y-89280145D01*
X109631842Y-89263425D01*
X109659786Y-89243858D01*
X109817401Y-89133495D01*
X109984495Y-88966401D01*
X110120035Y-88772830D01*
X110219903Y-88558663D01*
X110281063Y-88330408D01*
X110301659Y-88095000D01*
X110281063Y-87859592D01*
X110230470Y-87670775D01*
X110219905Y-87631344D01*
X110219904Y-87631343D01*
X110219903Y-87631337D01*
X110120035Y-87417171D01*
X110117443Y-87413468D01*
X109984494Y-87223597D01*
X109817402Y-87056506D01*
X109817396Y-87056501D01*
X109631842Y-86926575D01*
X109588217Y-86871998D01*
X109581023Y-86802500D01*
X109612546Y-86740145D01*
X109631842Y-86723425D01*
X109702375Y-86674037D01*
X109817401Y-86593495D01*
X109984495Y-86426401D01*
X110120035Y-86232830D01*
X110219903Y-86018663D01*
X110281063Y-85790408D01*
X110301659Y-85555000D01*
X110281063Y-85319592D01*
X110234626Y-85146285D01*
X110219905Y-85091344D01*
X110219904Y-85091343D01*
X110219903Y-85091337D01*
X110120035Y-84877171D01*
X110114425Y-84869158D01*
X109984494Y-84683597D01*
X109817402Y-84516506D01*
X109817396Y-84516501D01*
X109631842Y-84386575D01*
X109588217Y-84331998D01*
X109581023Y-84262500D01*
X109612546Y-84200145D01*
X109631842Y-84183425D01*
X109709563Y-84129004D01*
X109817401Y-84053495D01*
X109984495Y-83886401D01*
X110120035Y-83692830D01*
X110219903Y-83478663D01*
X110281063Y-83250408D01*
X110301659Y-83015000D01*
X110281063Y-82779592D01*
X110219903Y-82551337D01*
X110120035Y-82337171D01*
X110115566Y-82330789D01*
X109984496Y-82143600D01*
X109939326Y-82098430D01*
X109862567Y-82021671D01*
X109829084Y-81960351D01*
X109834068Y-81890659D01*
X109875939Y-81834725D01*
X109906915Y-81817810D01*
X110038331Y-81768796D01*
X110153546Y-81682546D01*
X110239796Y-81567331D01*
X110290091Y-81432483D01*
X110296500Y-81372873D01*
X110296499Y-79577128D01*
X110290091Y-79517517D01*
X110288810Y-79514083D01*
X110239797Y-79382671D01*
X110239793Y-79382664D01*
X110153547Y-79267455D01*
X110153544Y-79267452D01*
X110038335Y-79181206D01*
X110038328Y-79181202D01*
X109903482Y-79130908D01*
X109903483Y-79130908D01*
X109843883Y-79124501D01*
X109843881Y-79124500D01*
X109843873Y-79124500D01*
X109843864Y-79124500D01*
X108048129Y-79124500D01*
X108048123Y-79124501D01*
X107988516Y-79130908D01*
X107853671Y-79181202D01*
X107853664Y-79181206D01*
X107738455Y-79267452D01*
X107738452Y-79267455D01*
X107652206Y-79382664D01*
X107652203Y-79382669D01*
X107603189Y-79514083D01*
X107561317Y-79570016D01*
X107495853Y-79594433D01*
X107427580Y-79579581D01*
X107399326Y-79558430D01*
X107277402Y-79436506D01*
X107277395Y-79436501D01*
X107083834Y-79300967D01*
X107083830Y-79300965D01*
X107039722Y-79280397D01*
X106869663Y-79201097D01*
X106869659Y-79201096D01*
X106869655Y-79201094D01*
X106641413Y-79139938D01*
X106641403Y-79139936D01*
X106406001Y-79119341D01*
X106405999Y-79119341D01*
X106170596Y-79139936D01*
X106170586Y-79139938D01*
X105942344Y-79201094D01*
X105942335Y-79201098D01*
X105728171Y-79300964D01*
X105728169Y-79300965D01*
X105534597Y-79436505D01*
X105367505Y-79603597D01*
X105231965Y-79797169D01*
X105231964Y-79797171D01*
X105132098Y-80011335D01*
X105132094Y-80011344D01*
X105070938Y-80239586D01*
X105070936Y-80239596D01*
X105055004Y-80421701D01*
X105029551Y-80486769D01*
X104972960Y-80527748D01*
X104903198Y-80531626D01*
X104843795Y-80498574D01*
X104097121Y-79751900D01*
X103216319Y-78871097D01*
X103182834Y-78809774D01*
X103180000Y-78783416D01*
X103180000Y-70416939D01*
X103153446Y-70283448D01*
X103153445Y-70283447D01*
X103153445Y-70283443D01*
X103101356Y-70157689D01*
X103086351Y-70135232D01*
X103025735Y-70044514D01*
X103025733Y-70044511D01*
X103025732Y-70044510D01*
X102886220Y-69904998D01*
X106693482Y-69904998D01*
X106693482Y-69905000D01*
X106713579Y-70205227D01*
X106713581Y-70205237D01*
X106773516Y-70500107D01*
X106872220Y-70784360D01*
X106872222Y-70784363D01*
X107007926Y-71052915D01*
X107007929Y-71052920D01*
X107007930Y-71052921D01*
X107178225Y-71300998D01*
X107380067Y-71524163D01*
X107609852Y-71718435D01*
X107863481Y-71880345D01*
X108136428Y-72007006D01*
X108423821Y-72096156D01*
X108720533Y-72146205D01*
X109021268Y-72156260D01*
X109320660Y-72126141D01*
X109613366Y-72056386D01*
X109894163Y-71948239D01*
X110158040Y-71803630D01*
X110400288Y-71625140D01*
X110616585Y-71415955D01*
X110803069Y-71179806D01*
X110956415Y-70920908D01*
X111073884Y-70643882D01*
X111153381Y-70353670D01*
X111193488Y-70055452D01*
X111196000Y-69905000D01*
X111196000Y-69904998D01*
X190693482Y-69904998D01*
X190693482Y-69905000D01*
X190713579Y-70205227D01*
X190713581Y-70205237D01*
X190773516Y-70500107D01*
X190872220Y-70784360D01*
X190872222Y-70784363D01*
X191007926Y-71052915D01*
X191007929Y-71052920D01*
X191007930Y-71052921D01*
X191178225Y-71300998D01*
X191380067Y-71524163D01*
X191609852Y-71718435D01*
X191863481Y-71880345D01*
X192136428Y-72007006D01*
X192423821Y-72096156D01*
X192720533Y-72146205D01*
X193021268Y-72156260D01*
X193320660Y-72126141D01*
X193613366Y-72056386D01*
X193894163Y-71948239D01*
X194158040Y-71803630D01*
X194400288Y-71625140D01*
X194616585Y-71415955D01*
X194803069Y-71179806D01*
X194956415Y-70920908D01*
X195073884Y-70643882D01*
X195153381Y-70353670D01*
X195193488Y-70055452D01*
X195196000Y-69905000D01*
X195193488Y-69754548D01*
X195153381Y-69456330D01*
X195094923Y-69242923D01*
X195073886Y-69166124D01*
X195073884Y-69166121D01*
X195073884Y-69166118D01*
X194956415Y-68889092D01*
X194878226Y-68757084D01*
X194803069Y-68630193D01*
X194616584Y-68394044D01*
X194400295Y-68184867D01*
X194400288Y-68184860D01*
X194158040Y-68006370D01*
X194065906Y-67955879D01*
X193894171Y-67861765D01*
X193894166Y-67861762D01*
X193894163Y-67861761D01*
X193894159Y-67861759D01*
X193894156Y-67861758D01*
X193613370Y-67753615D01*
X193613366Y-67753614D01*
X193320660Y-67683859D01*
X193320657Y-67683858D01*
X193021272Y-67653740D01*
X193021268Y-67653740D01*
X192720533Y-67663795D01*
X192423820Y-67713844D01*
X192295614Y-67753614D01*
X192136428Y-67802994D01*
X192136421Y-67802997D01*
X192136419Y-67802998D01*
X191863483Y-67929653D01*
X191863481Y-67929655D01*
X191609855Y-68091562D01*
X191380068Y-68285835D01*
X191178227Y-68508999D01*
X191178226Y-68509000D01*
X191007926Y-68757084D01*
X190872222Y-69025636D01*
X190872220Y-69025639D01*
X190773516Y-69309892D01*
X190713581Y-69604762D01*
X190713579Y-69604772D01*
X190693482Y-69904998D01*
X111196000Y-69904998D01*
X111193488Y-69754548D01*
X111153381Y-69456330D01*
X111094923Y-69242923D01*
X111073886Y-69166124D01*
X111073884Y-69166121D01*
X111073884Y-69166118D01*
X110956415Y-68889092D01*
X110878226Y-68757084D01*
X110803069Y-68630193D01*
X110616584Y-68394044D01*
X110400295Y-68184867D01*
X110400288Y-68184860D01*
X110158040Y-68006370D01*
X110065906Y-67955879D01*
X109894171Y-67861765D01*
X109894166Y-67861762D01*
X109894163Y-67861761D01*
X109894159Y-67861759D01*
X109894156Y-67861758D01*
X109613370Y-67753615D01*
X109613366Y-67753614D01*
X109320660Y-67683859D01*
X109320657Y-67683858D01*
X109021272Y-67653740D01*
X109021268Y-67653740D01*
X108720533Y-67663795D01*
X108423820Y-67713844D01*
X108295614Y-67753614D01*
X108136428Y-67802994D01*
X108136421Y-67802997D01*
X108136419Y-67802998D01*
X107863483Y-67929653D01*
X107863481Y-67929655D01*
X107609855Y-68091562D01*
X107380068Y-68285835D01*
X107178227Y-68508999D01*
X107178226Y-68509000D01*
X107007926Y-68757084D01*
X106872222Y-69025636D01*
X106872220Y-69025639D01*
X106773516Y-69309892D01*
X106713581Y-69604762D01*
X106713579Y-69604772D01*
X106693482Y-69904998D01*
X102886220Y-69904998D01*
X96079492Y-63098269D01*
X96079485Y-63098263D01*
X95966312Y-63022644D01*
X95966309Y-63022642D01*
X95840561Y-62970556D01*
X95840551Y-62970553D01*
X95707060Y-62944000D01*
X95707058Y-62944000D01*
X91367013Y-62944000D01*
X91301041Y-62924994D01*
X91275923Y-62909211D01*
X91105654Y-62849631D01*
X91105649Y-62849630D01*
X90926404Y-62829435D01*
X90926396Y-62829435D01*
X90747150Y-62849630D01*
X90747145Y-62849631D01*
X90576876Y-62909211D01*
X90447517Y-62990494D01*
X90381545Y-63009500D01*
X89620189Y-63009500D01*
X89559771Y-63021518D01*
X89522059Y-63029019D01*
X89499350Y-63033536D01*
X89499348Y-63033537D01*
X89466007Y-63047347D01*
X89385519Y-63080684D01*
X89385505Y-63080692D01*
X89283072Y-63149138D01*
X89283064Y-63149144D01*
X89125501Y-63306708D01*
X88978270Y-63453939D01*
X88978267Y-63453942D01*
X88912876Y-63519332D01*
X88875910Y-63556299D01*
X88814587Y-63589783D01*
X88744895Y-63584799D01*
X88688963Y-63542928D01*
X88614347Y-63443255D01*
X88614344Y-63443252D01*
X88499135Y-63357006D01*
X88499128Y-63357002D01*
X88364282Y-63306708D01*
X88364283Y-63306708D01*
X88304683Y-63300301D01*
X88304681Y-63300300D01*
X88304673Y-63300300D01*
X88304664Y-63300300D01*
X86408929Y-63300300D01*
X86408923Y-63300301D01*
X86349316Y-63306708D01*
X86214471Y-63357002D01*
X86214464Y-63357006D01*
X86099255Y-63443252D01*
X86099252Y-63443255D01*
X86013006Y-63558464D01*
X86013003Y-63558469D01*
X85980866Y-63644634D01*
X85938994Y-63700567D01*
X85873530Y-63724984D01*
X85864684Y-63725300D01*
X82648915Y-63725300D01*
X82581876Y-63705615D01*
X82536121Y-63652811D01*
X82532733Y-63644633D01*
X82500597Y-63558471D01*
X82500593Y-63558464D01*
X82414347Y-63443255D01*
X82414344Y-63443252D01*
X82299135Y-63357006D01*
X82299128Y-63357002D01*
X82164282Y-63306708D01*
X82164283Y-63306708D01*
X82104683Y-63300301D01*
X82104681Y-63300300D01*
X82104673Y-63300300D01*
X82104664Y-63300300D01*
X80208929Y-63300300D01*
X80208923Y-63300301D01*
X80149316Y-63306708D01*
X80014471Y-63357002D01*
X80014464Y-63357006D01*
X79899255Y-63443252D01*
X79899252Y-63443255D01*
X79813006Y-63558464D01*
X79813002Y-63558471D01*
X79762708Y-63693317D01*
X79756301Y-63752916D01*
X79756300Y-63752935D01*
X75946000Y-63752935D01*
X75946000Y-54905546D01*
X75946002Y-54904998D01*
X81693482Y-54904998D01*
X81693482Y-54905000D01*
X81713579Y-55205227D01*
X81713581Y-55205237D01*
X81773516Y-55500107D01*
X81872220Y-55784360D01*
X81872222Y-55784363D01*
X82007926Y-56052915D01*
X82007929Y-56052920D01*
X82007930Y-56052921D01*
X82178225Y-56300998D01*
X82380067Y-56524163D01*
X82609852Y-56718435D01*
X82863481Y-56880345D01*
X83136428Y-57007006D01*
X83423821Y-57096156D01*
X83720533Y-57146205D01*
X84021268Y-57156260D01*
X84320660Y-57126141D01*
X84613366Y-57056386D01*
X84894163Y-56948239D01*
X85158040Y-56803630D01*
X85400288Y-56625140D01*
X85616585Y-56415955D01*
X85803069Y-56179806D01*
X85956415Y-55920908D01*
X86073884Y-55643882D01*
X86153381Y-55353670D01*
X86193488Y-55055452D01*
X86196000Y-54905000D01*
X86196000Y-54904998D01*
X215693482Y-54904998D01*
X215693482Y-54905000D01*
X215713579Y-55205227D01*
X215713581Y-55205237D01*
X215773516Y-55500107D01*
X215872220Y-55784360D01*
X215872222Y-55784363D01*
X216007926Y-56052915D01*
X216007929Y-56052920D01*
X216007930Y-56052921D01*
X216178225Y-56300998D01*
X216380067Y-56524163D01*
X216609852Y-56718435D01*
X216863481Y-56880345D01*
X217136428Y-57007006D01*
X217423821Y-57096156D01*
X217720533Y-57146205D01*
X218021268Y-57156260D01*
X218320660Y-57126141D01*
X218613366Y-57056386D01*
X218894163Y-56948239D01*
X219158040Y-56803630D01*
X219400288Y-56625140D01*
X219616585Y-56415955D01*
X219803069Y-56179806D01*
X219956415Y-55920908D01*
X220073884Y-55643882D01*
X220153381Y-55353670D01*
X220193488Y-55055452D01*
X220196000Y-54905000D01*
X220193488Y-54754548D01*
X220153381Y-54456330D01*
X220073884Y-54166118D01*
X219956415Y-53889092D01*
X219878226Y-53757084D01*
X219803069Y-53630193D01*
X219616584Y-53394044D01*
X219400295Y-53184867D01*
X219400288Y-53184860D01*
X219158040Y-53006370D01*
X219019132Y-52930246D01*
X218894171Y-52861765D01*
X218894166Y-52861762D01*
X218894163Y-52861761D01*
X218894159Y-52861759D01*
X218894156Y-52861758D01*
X218613370Y-52753615D01*
X218613366Y-52753614D01*
X218320660Y-52683859D01*
X218320657Y-52683858D01*
X218021272Y-52653740D01*
X218021268Y-52653740D01*
X217720533Y-52663795D01*
X217423820Y-52713844D01*
X217295614Y-52753614D01*
X217136428Y-52802994D01*
X217136421Y-52802997D01*
X217136419Y-52802998D01*
X216863483Y-52929653D01*
X216863481Y-52929655D01*
X216609855Y-53091562D01*
X216380068Y-53285835D01*
X216178227Y-53508999D01*
X216178226Y-53509000D01*
X216007926Y-53757084D01*
X215872222Y-54025636D01*
X215872220Y-54025639D01*
X215773516Y-54309892D01*
X215713581Y-54604762D01*
X215713579Y-54604772D01*
X215693482Y-54904998D01*
X86196000Y-54904998D01*
X86193488Y-54754548D01*
X86153381Y-54456330D01*
X86073884Y-54166118D01*
X85956415Y-53889092D01*
X85878226Y-53757084D01*
X85803069Y-53630193D01*
X85616584Y-53394044D01*
X85400295Y-53184867D01*
X85400288Y-53184860D01*
X85158040Y-53006370D01*
X85019132Y-52930246D01*
X84894171Y-52861765D01*
X84894166Y-52861762D01*
X84894163Y-52861761D01*
X84894159Y-52861759D01*
X84894156Y-52861758D01*
X84613370Y-52753615D01*
X84613366Y-52753614D01*
X84320660Y-52683859D01*
X84320657Y-52683858D01*
X84021272Y-52653740D01*
X84021268Y-52653740D01*
X83720533Y-52663795D01*
X83423820Y-52713844D01*
X83295614Y-52753614D01*
X83136428Y-52802994D01*
X83136421Y-52802997D01*
X83136419Y-52802998D01*
X82863483Y-52929653D01*
X82863481Y-52929655D01*
X82609855Y-53091562D01*
X82380068Y-53285835D01*
X82178227Y-53508999D01*
X82178226Y-53509000D01*
X82007926Y-53757084D01*
X81872222Y-54025636D01*
X81872220Y-54025639D01*
X81773516Y-54309892D01*
X81713581Y-54604762D01*
X81713579Y-54604772D01*
X81693482Y-54904998D01*
X75946002Y-54904998D01*
X75946005Y-54904440D01*
X75946019Y-54902781D01*
X75948514Y-54623231D01*
X75948825Y-54615505D01*
X75949593Y-54604769D01*
X75988987Y-54053961D01*
X75989928Y-54045209D01*
X76069972Y-53488485D01*
X76071539Y-53479804D01*
X76191089Y-52930238D01*
X76193277Y-52921669D01*
X76351733Y-52382020D01*
X76354509Y-52373677D01*
X76551072Y-51846671D01*
X76554433Y-51838558D01*
X76788087Y-51326926D01*
X76792027Y-51319055D01*
X77061578Y-50825410D01*
X77066091Y-50817806D01*
X77370138Y-50344700D01*
X77375186Y-50337429D01*
X77712228Y-49887193D01*
X77717767Y-49880317D01*
X78086094Y-49455245D01*
X78092100Y-49448795D01*
X78489795Y-49051100D01*
X78496245Y-49045094D01*
X78921317Y-48676767D01*
X78928193Y-48671228D01*
X79378429Y-48334186D01*
X79385700Y-48329138D01*
X79858814Y-48025086D01*
X79866410Y-48020578D01*
X80360055Y-47751027D01*
X80367926Y-47747087D01*
X80879558Y-47513433D01*
X80887671Y-47510072D01*
X81414677Y-47313509D01*
X81423020Y-47310733D01*
X81962677Y-47152274D01*
X81971238Y-47150089D01*
X82520804Y-47030539D01*
X82529485Y-47028972D01*
X83086209Y-46948928D01*
X83094961Y-46947987D01*
X83656518Y-46907824D01*
X83664231Y-46907514D01*
X83937986Y-46905071D01*
X83945441Y-46905005D01*
X83946547Y-46905000D01*
X217945453Y-46905000D01*
X217946559Y-46905005D01*
G37*
%TD.AperFunction*%
%TD*%
M02*
