%TF.GenerationSoftware,KiCad,Pcbnew,8.0.3*%
%TF.CreationDate,2025-07-14T16:27:36+02:00*%
%TF.ProjectId,distributionPCB,64697374-7269-4627-9574-696f6e504342,rev?*%
%TF.SameCoordinates,Original*%
%TF.FileFunction,Paste,Bot*%
%TF.FilePolarity,Positive*%
%FSLAX46Y46*%
G04 Gerber Fmt 4.6, Leading zero omitted, Abs format (unit mm)*
G04 Created by KiCad (PCBNEW 8.0.3) date 2025-07-14 16:27:36*
%MOMM*%
%LPD*%
G01*
G04 APERTURE LIST*
G04 Aperture macros list*
%AMRoundRect*
0 Rectangle with rounded corners*
0 $1 Rounding radius*
0 $2 $3 $4 $5 $6 $7 $8 $9 X,Y pos of 4 corners*
0 Add a 4 corners polygon primitive as box body*
4,1,4,$2,$3,$4,$5,$6,$7,$8,$9,$2,$3,0*
0 Add four circle primitives for the rounded corners*
1,1,$1+$1,$2,$3*
1,1,$1+$1,$4,$5*
1,1,$1+$1,$6,$7*
1,1,$1+$1,$8,$9*
0 Add four rect primitives between the rounded corners*
20,1,$1+$1,$2,$3,$4,$5,0*
20,1,$1+$1,$4,$5,$6,$7,0*
20,1,$1+$1,$6,$7,$8,$9,0*
20,1,$1+$1,$8,$9,$2,$3,0*%
G04 Aperture macros list end*
%ADD10RoundRect,0.200000X0.200000X0.275000X-0.200000X0.275000X-0.200000X-0.275000X0.200000X-0.275000X0*%
%ADD11RoundRect,0.200000X-0.200000X-0.275000X0.200000X-0.275000X0.200000X0.275000X-0.200000X0.275000X0*%
%ADD12R,1.220000X0.650000*%
%ADD13RoundRect,0.140000X0.140000X0.170000X-0.140000X0.170000X-0.140000X-0.170000X0.140000X-0.170000X0*%
%ADD14RoundRect,0.255000X2.245000X0.255000X-2.245000X0.255000X-2.245000X-0.255000X2.245000X-0.255000X0*%
%ADD15RoundRect,0.250000X0.550000X-1.250000X0.550000X1.250000X-0.550000X1.250000X-0.550000X-1.250000X0*%
%ADD16RoundRect,0.140000X0.170000X-0.140000X0.170000X0.140000X-0.170000X0.140000X-0.170000X-0.140000X0*%
%ADD17RoundRect,0.135000X0.135000X0.185000X-0.135000X0.185000X-0.135000X-0.185000X0.135000X-0.185000X0*%
%ADD18RoundRect,0.147500X0.172500X-0.147500X0.172500X0.147500X-0.172500X0.147500X-0.172500X-0.147500X0*%
%ADD19RoundRect,0.150000X0.150000X-0.512500X0.150000X0.512500X-0.150000X0.512500X-0.150000X-0.512500X0*%
%ADD20R,3.500000X2.350000*%
%ADD21RoundRect,0.150000X0.587500X0.150000X-0.587500X0.150000X-0.587500X-0.150000X0.587500X-0.150000X0*%
%ADD22RoundRect,0.135000X0.185000X-0.135000X0.185000X0.135000X-0.185000X0.135000X-0.185000X-0.135000X0*%
%ADD23RoundRect,0.250000X-0.550000X1.250000X-0.550000X-1.250000X0.550000X-1.250000X0.550000X1.250000X0*%
G04 APERTURE END LIST*
D10*
%TO.C,R25*%
X93810000Y-107664200D03*
X92160000Y-107664200D03*
%TD*%
%TO.C,R7*%
X93810000Y-78199600D03*
X92160000Y-78199600D03*
%TD*%
D11*
%TO.C,R30*%
X171641000Y-88138000D03*
X173291000Y-88138000D03*
%TD*%
D12*
%TO.C,Q5*%
X93808600Y-96483600D03*
X93808600Y-94583600D03*
X96428600Y-95533600D03*
%TD*%
D10*
%TO.C,R1*%
X93580200Y-63635000D03*
X91930200Y-63635000D03*
%TD*%
%TO.C,R13*%
X93810000Y-92893600D03*
X92160000Y-92893600D03*
%TD*%
D13*
%TO.C,C1*%
X207337600Y-115062000D03*
X206377600Y-115062000D03*
%TD*%
D10*
%TO.C,R16*%
X93810000Y-100266000D03*
X92160000Y-100266000D03*
%TD*%
%TO.C,R33*%
X199199000Y-90678000D03*
X197549000Y-90678000D03*
%TD*%
D14*
%TO.C,J8*%
X126218000Y-80518000D03*
X118618000Y-80518000D03*
X126218000Y-83058000D03*
X118618000Y-83058000D03*
X126218000Y-85598000D03*
X118618000Y-85598000D03*
X126218000Y-88138000D03*
X118618000Y-88138000D03*
X126218000Y-90678000D03*
X118618000Y-90678000D03*
X126218000Y-93218000D03*
X118618000Y-93218000D03*
X126218000Y-95758000D03*
X118618000Y-95758000D03*
X126218000Y-98298000D03*
X118618000Y-98298000D03*
X126218000Y-100838000D03*
X118618000Y-100838000D03*
X126218000Y-103378000D03*
X118618000Y-103378000D03*
%TD*%
D15*
%TO.C,C2*%
X199821800Y-108829200D03*
X199821800Y-104429200D03*
%TD*%
D13*
%TO.C,C4*%
X206093000Y-106705400D03*
X205133000Y-106705400D03*
%TD*%
D12*
%TO.C,Q3*%
X93808600Y-81802400D03*
X93808600Y-79902400D03*
X96428600Y-80852400D03*
%TD*%
D16*
%TO.C,C3*%
X209727800Y-118336000D03*
X209727800Y-117376000D03*
%TD*%
D17*
%TO.C,R34*%
X176735200Y-108610400D03*
X175715200Y-108610400D03*
%TD*%
D18*
%TO.C,D14*%
X178450900Y-111568700D03*
X178450900Y-110598700D03*
%TD*%
D14*
%TO.C,J9*%
X126218000Y-115570000D03*
X118618000Y-115570000D03*
X126218000Y-118110000D03*
X118618000Y-118110000D03*
X126218000Y-120650000D03*
X118618000Y-120650000D03*
%TD*%
D12*
%TO.C,Q8*%
X93808600Y-118657800D03*
X93808600Y-116757800D03*
X96428600Y-117707800D03*
%TD*%
D10*
%TO.C,R32*%
X199199000Y-95758000D03*
X197549000Y-95758000D03*
%TD*%
D12*
%TO.C,Q4*%
X93808600Y-89143000D03*
X93808600Y-87243000D03*
X96428600Y-88193000D03*
%TD*%
D10*
%TO.C,R28*%
X93810000Y-114883800D03*
X92160000Y-114883800D03*
%TD*%
D19*
%TO.C,IC1*%
X208315600Y-119018900D03*
X207365600Y-119018900D03*
X206415600Y-119018900D03*
X206415600Y-116743900D03*
X207365600Y-116743900D03*
X208315600Y-116743900D03*
%TD*%
D10*
%TO.C,R4*%
X93631000Y-70920600D03*
X91981000Y-70920600D03*
%TD*%
%TO.C,R10*%
X93810000Y-85572000D03*
X92160000Y-85572000D03*
%TD*%
D20*
%TO.C,L1*%
X211353400Y-114988200D03*
X211353400Y-108938200D03*
%TD*%
D21*
%TO.C,Q9*%
X176756300Y-110048000D03*
X176756300Y-111948000D03*
X174881300Y-110998000D03*
%TD*%
D12*
%TO.C,Q6*%
X93808600Y-103875000D03*
X93808600Y-101975000D03*
X96428600Y-102925000D03*
%TD*%
D11*
%TO.C,R31*%
X171641000Y-90678000D03*
X173291000Y-90678000D03*
%TD*%
D14*
%TO.C,J3*%
X185283000Y-83058000D03*
X177683000Y-83058000D03*
X185283000Y-85598000D03*
X177683000Y-85598000D03*
X185283000Y-88138000D03*
X177683000Y-88138000D03*
X185283000Y-90678000D03*
X177683000Y-90678000D03*
X185283000Y-93218000D03*
X177683000Y-93218000D03*
X185283000Y-95758000D03*
X177683000Y-95758000D03*
X185283000Y-98298000D03*
X177683000Y-98298000D03*
X185283000Y-100838000D03*
X177683000Y-100838000D03*
%TD*%
D12*
%TO.C,Q1*%
X93578800Y-67150800D03*
X93578800Y-65250800D03*
X96198800Y-66200800D03*
%TD*%
%TO.C,Q2*%
X93629600Y-74461800D03*
X93629600Y-72561800D03*
X96249600Y-73511800D03*
%TD*%
%TO.C,Q7*%
X93808600Y-111292200D03*
X93808600Y-109392200D03*
X96428600Y-110342200D03*
%TD*%
D22*
%TO.C,R36*%
X204952600Y-119483600D03*
X204952600Y-118463600D03*
%TD*%
%TO.C,R35*%
X204952600Y-117451600D03*
X204952600Y-116431600D03*
%TD*%
D23*
%TO.C,C5*%
X204673200Y-109179000D03*
X204673200Y-113579000D03*
%TD*%
M02*
