%TF.GenerationSoftware,KiCad,Pcbnew,8.0.3*%
%TF.CreationDate,2025-07-14T16:27:36+02:00*%
%TF.ProjectId,distributionPCB,64697374-7269-4627-9574-696f6e504342,rev?*%
%TF.SameCoordinates,Original*%
%TF.FileFunction,Paste,Top*%
%TF.FilePolarity,Positive*%
%FSLAX46Y46*%
G04 Gerber Fmt 4.6, Leading zero omitted, Abs format (unit mm)*
G04 Created by KiCad (PCBNEW 8.0.3) date 2025-07-14 16:27:36*
%MOMM*%
%LPD*%
G01*
G04 APERTURE LIST*
G04 Aperture macros list*
%AMRoundRect*
0 Rectangle with rounded corners*
0 $1 Rounding radius*
0 $2 $3 $4 $5 $6 $7 $8 $9 X,Y pos of 4 corners*
0 Add a 4 corners polygon primitive as box body*
4,1,4,$2,$3,$4,$5,$6,$7,$8,$9,$2,$3,0*
0 Add four circle primitives for the rounded corners*
1,1,$1+$1,$2,$3*
1,1,$1+$1,$4,$5*
1,1,$1+$1,$6,$7*
1,1,$1+$1,$8,$9*
0 Add four rect primitives between the rounded corners*
20,1,$1+$1,$2,$3,$4,$5,0*
20,1,$1+$1,$4,$5,$6,$7,0*
20,1,$1+$1,$6,$7,$8,$9,0*
20,1,$1+$1,$8,$9,$2,$3,0*%
G04 Aperture macros list end*
%ADD10RoundRect,0.200000X0.200000X0.275000X-0.200000X0.275000X-0.200000X-0.275000X0.200000X-0.275000X0*%
%ADD11RoundRect,0.200000X0.275000X-0.200000X0.275000X0.200000X-0.275000X0.200000X-0.275000X-0.200000X0*%
%ADD12RoundRect,0.243750X0.456250X-0.243750X0.456250X0.243750X-0.456250X0.243750X-0.456250X-0.243750X0*%
%ADD13RoundRect,0.243750X-0.456250X0.243750X-0.456250X-0.243750X0.456250X-0.243750X0.456250X0.243750X0*%
%ADD14R,1.800000X1.100000*%
G04 APERTURE END LIST*
D10*
%TO.C,R5*%
X92234000Y-76280000D03*
X90584000Y-76280000D03*
%TD*%
D11*
%TO.C,R18*%
X105819001Y-129984000D03*
X105819001Y-128334000D03*
%TD*%
D12*
%TO.C,D13*%
X113576200Y-133947100D03*
X113576200Y-132072100D03*
%TD*%
D13*
%TO.C,D3*%
X91090600Y-79934900D03*
X91090600Y-81809900D03*
%TD*%
D14*
%TO.C,SW7*%
X81156800Y-108492200D03*
X87356800Y-108492200D03*
X81156800Y-112192200D03*
X87356800Y-112192200D03*
%TD*%
D11*
%TO.C,R20*%
X109318999Y-129984000D03*
X109318999Y-128334000D03*
%TD*%
D14*
%TO.C,SW8*%
X81156800Y-115857800D03*
X87356800Y-115857800D03*
X81156800Y-119557800D03*
X87356800Y-119557800D03*
%TD*%
%TO.C,SW6*%
X81156800Y-101075000D03*
X87356800Y-101075000D03*
X81156800Y-104775000D03*
X87356800Y-104775000D03*
%TD*%
D10*
%TO.C,R26*%
X92398200Y-113150600D03*
X90748200Y-113150600D03*
%TD*%
D13*
%TO.C,D2*%
X90911600Y-72594300D03*
X90911600Y-74469300D03*
%TD*%
D10*
%TO.C,R12*%
X89009400Y-99218200D03*
X87359400Y-99218200D03*
%TD*%
D13*
%TO.C,D1*%
X90860800Y-65283300D03*
X90860800Y-67158300D03*
%TD*%
D10*
%TO.C,R22*%
X92413000Y-105727000D03*
X90763000Y-105727000D03*
%TD*%
D11*
%TO.C,R21*%
X111069000Y-129984000D03*
X111069000Y-128334000D03*
%TD*%
D12*
%TO.C,D9*%
X101536200Y-133947100D03*
X101536200Y-132072100D03*
%TD*%
D14*
%TO.C,SW2*%
X81156800Y-64350800D03*
X87356800Y-64350800D03*
X81156800Y-68050800D03*
X87356800Y-68050800D03*
%TD*%
D10*
%TO.C,R6*%
X89018800Y-84531200D03*
X87368800Y-84531200D03*
%TD*%
D11*
%TO.C,R17*%
X104069000Y-129984000D03*
X104069000Y-128334000D03*
%TD*%
D10*
%TO.C,R23*%
X89008200Y-69858000D03*
X87358200Y-69858000D03*
%TD*%
%TO.C,R24*%
X89009400Y-114014200D03*
X87359400Y-114014200D03*
%TD*%
D12*
%TO.C,D10*%
X104546200Y-133947100D03*
X104546200Y-132072100D03*
%TD*%
D10*
%TO.C,R15*%
X88984000Y-106641400D03*
X87334000Y-106641400D03*
%TD*%
D12*
%TO.C,D11*%
X107556200Y-133947100D03*
X107556200Y-132072100D03*
%TD*%
D10*
%TO.C,R2*%
X92183200Y-68969000D03*
X90533200Y-68969000D03*
%TD*%
D14*
%TO.C,SW5*%
X81156800Y-93683600D03*
X87356800Y-93683600D03*
X81156800Y-97383600D03*
X87356800Y-97383600D03*
%TD*%
D12*
%TO.C,D12*%
X110566200Y-133947100D03*
X110566200Y-132072100D03*
%TD*%
D14*
%TO.C,SW1*%
X81156800Y-71661800D03*
X87356800Y-71661800D03*
X81156800Y-75361800D03*
X87356800Y-75361800D03*
%TD*%
D13*
%TO.C,D6*%
X91090600Y-102007500D03*
X91090600Y-103882500D03*
%TD*%
D14*
%TO.C,SW3*%
X81156800Y-79002400D03*
X87356800Y-79002400D03*
X81156800Y-82702400D03*
X87356800Y-82702400D03*
%TD*%
D10*
%TO.C,R29*%
X92413000Y-120471800D03*
X90763000Y-120471800D03*
%TD*%
D13*
%TO.C,D7*%
X91090600Y-109424700D03*
X91090600Y-111299700D03*
%TD*%
D10*
%TO.C,R11*%
X92413000Y-90982200D03*
X90763000Y-90982200D03*
%TD*%
D13*
%TO.C,D5*%
X91090600Y-94616100D03*
X91090600Y-96491100D03*
%TD*%
D14*
%TO.C,SW4*%
X81156800Y-86343000D03*
X87356800Y-86343000D03*
X81156800Y-90043000D03*
X87356800Y-90043000D03*
%TD*%
D10*
%TO.C,R14*%
X92413000Y-98329200D03*
X90763000Y-98329200D03*
%TD*%
D11*
%TO.C,R19*%
X107569000Y-129984000D03*
X107569000Y-128334000D03*
%TD*%
D10*
%TO.C,R27*%
X89009400Y-121386200D03*
X87359400Y-121386200D03*
%TD*%
%TO.C,R9*%
X89009400Y-91871200D03*
X87359400Y-91871200D03*
%TD*%
%TO.C,R8*%
X92413000Y-83635200D03*
X90763000Y-83635200D03*
%TD*%
%TO.C,R3*%
X89059000Y-77194400D03*
X87409000Y-77194400D03*
%TD*%
D13*
%TO.C,D8*%
X91090600Y-116790300D03*
X91090600Y-118665300D03*
%TD*%
%TO.C,D4*%
X91090600Y-87275500D03*
X91090600Y-89150500D03*
%TD*%
M02*
