M48
; DRILL file {KiCad 8.0.3} date 2025-07-14T16:27:36+0200
; FORMAT={-:-/ absolute / inch / decimal}
; #@! TF.CreationDate,2025-07-14T16:27:36+02:00
; #@! TF.GenerationSoftware,Kicad,Pcbnew,8.0.3
; #@! TF.FileFunction,Plated,1,2,PTH
FMAT,2
INCH
; #@! TA.AperFunction,Plated,PTH,ViaDrill
T1C0.0118
; #@! TA.AperFunction,Plated,PTH,ViaDrill
T2C0.0157
; #@! TA.AperFunction,Plated,PTH,ComponentDrill
T3C0.0315
; #@! TA.AperFunction,Plated,PTH,ComponentDrill
T4C0.0394
; #@! TA.AperFunction,Plated,PTH,ComponentDrill
T5C0.0591
%
G90
G05
T1
X3.5238Y-2.7153
X3.5238Y-3.0031
X3.5238Y-3.2927
X3.5238Y-3.582
X3.5238Y-3.8712
X3.5238Y-4.1625
X3.5238Y-4.4547
X3.5238Y-4.743
X3.5798Y-2.5053
X3.5818Y-2.7921
X3.5888Y-3.369
X3.5888Y-4.523
X3.5898Y-3.6572
X3.5898Y-3.9485
X3.5898Y-4.2387
X3.5908Y-3.0807
X4.097Y-5.02
X4.166Y-5.02
X4.235Y-5.02
X4.304Y-5.02
X4.373Y-5.02
X7.42Y-3.57
T2
X3.6318Y-2.6063
X3.6338Y-2.8951
X3.6408Y-3.1887
X3.6408Y-3.4722
X3.6408Y-3.7612
X3.6408Y-4.0522
X3.6408Y-4.3442
X3.6408Y-4.6342
X6.882Y-4.275
X7.996Y-4.3
X8.0319Y-4.5839
X8.039Y-4.2
X8.119Y-4.44
X8.119Y-4.478
X8.164Y-4.742
T4
X4.1892Y-3.1683
X4.1892Y-3.2683
X4.1892Y-3.3683
X4.1892Y-3.4683
X4.1892Y-3.5683
X4.1892Y-3.6683
X4.1892Y-3.7683
X4.1892Y-3.8683
X4.1892Y-3.9683
X4.1892Y-4.0683
X4.2892Y-3.1683
X4.2892Y-3.2683
X4.2892Y-3.3683
X4.2892Y-3.4683
X4.2892Y-3.5683
X4.2892Y-3.6683
X4.2892Y-3.7683
X4.2892Y-3.8683
X4.2892Y-3.9683
X4.2892Y-4.0683
X7.5892Y-3.2683
X7.5892Y-3.3683
X7.5892Y-3.4683
X7.5892Y-3.5683
X7.5892Y-3.6683
X7.5892Y-3.7683
X7.5892Y-3.8683
X7.5892Y-3.9683
X7.6892Y-3.2683
X7.6892Y-3.3683
X7.6892Y-3.4683
X7.6892Y-3.5683
X7.6892Y-3.6683
X7.6892Y-3.7683
X7.6892Y-3.8683
X7.6892Y-3.9683
X8.167Y-3.409
X8.167Y-3.509
X8.167Y-3.609
X8.167Y-3.809
X8.167Y-3.909
T5
X6.7372Y-4.3701
T3
G00X6.4341Y-4.4134
M15
G01X6.4341Y-4.3268
M16
G05
T4
G00X6.3848Y-4.1791
M15
G01X6.4439Y-4.1791
M16
G05
G00X6.3848Y-4.561
M15
G01X6.4439Y-4.561
M16
G05
G00X6.5699Y-4.1791
M15
G01X6.6289Y-4.1791
M16
G05
G00X6.5699Y-4.561
M15
G01X6.6289Y-4.561
M16
G05
M30
